<svg id="my-svg" width="100%" xmlns="http://www.w3.org/2000/svg" xmlns:xlink="http://www.w3.org/1999/xlink" class="classDiagram" style="max-width: 1336.09px; background-color: transparent;" viewBox="0 -48 1336.09375 570" role="graphics-document document" aria-roledescription="class"><style>#my-svg{font-family:"trebuchet ms",verdana,arial,sans-serif;font-size:16px;fill:#333;}@keyframes edge-animation-frame{from{stroke-dashoffset:0;}}@keyframes dash{to{stroke-dashoffset:0;}}#my-svg .edge-animation-slow{stroke-dasharray:9,5!important;stroke-dashoffset:900;animation:dash 50s linear infinite;stroke-linecap:round;}#my-svg .edge-animation-fast{stroke-dasharray:9,5!important;stroke-dashoffset:900;animation:dash 20s linear infinite;stroke-linecap:round;}#my-svg .error-icon{fill:#552222;}#my-svg .error-text{fill:#552222;stroke:#552222;}#my-svg .edge-thickness-normal{stroke-width:1px;}#my-svg .edge-thickness-thick{stroke-width:3.5px;}#my-svg .edge-pattern-solid{stroke-dasharray:0;}#my-svg .edge-thickness-invisible{stroke-width:0;fill:none;}#my-svg .edge-pattern-dashed{stroke-dasharray:3;}#my-svg .edge-pattern-dotted{stroke-dasharray:2;}#my-svg .marker{fill:#333333;stroke:#333333;}#my-svg .marker.cross{stroke:#333333;}#my-svg svg{font-family:"trebuchet ms",verdana,arial,sans-serif;font-size:16px;}#my-svg p{margin:0;}#my-svg g.classGroup text{fill:#9370DB;stroke:none;font-family:"trebuchet ms",verdana,arial,sans-serif;font-size:10px;}#my-svg g.classGroup text .title{font-weight:bolder;}#my-svg .nodeLabel,#my-svg .edgeLabel{color:#131300;}#my-svg .edgeLabel .label rect{fill:#ECECFF;}#my-svg .label text{fill:#131300;}#my-svg .labelBkg{background:#ECECFF;}#my-svg .edgeLabel .label span{background:#ECECFF;}#my-svg .classTitle{font-weight:bolder;}#my-svg .node rect,#my-svg .node circle,#my-svg .node ellipse,#my-svg .node polygon,#my-svg .node path{fill:#ECECFF;stroke:#9370DB;stroke-width:1px;}#my-svg .divider{stroke:#9370DB;stroke-width:1;}#my-svg g.clickable{cursor:pointer;}#my-svg g.classGroup rect{fill:#ECECFF;stroke:#9370DB;}#my-svg g.classGroup line{stroke:#9370DB;stroke-width:1;}#my-svg .classLabel .box{stroke:none;stroke-width:0;fill:#ECECFF;opacity:0.5;}#my-svg .classLabel .label{fill:#9370DB;font-size:10px;}#my-svg .relation{stroke:#333333;stroke-width:1;fill:none;}#my-svg .dashed-line{stroke-dasharray:3;}#my-svg .dotted-line{stroke-dasharray:1 2;}#my-svg #compositionStart,#my-svg .composition{fill:#333333!important;stroke:#333333!important;stroke-width:1;}#my-svg #compositionEnd,#my-svg .composition{fill:#333333!important;stroke:#333333!important;stroke-width:1;}#my-svg #dependencyStart,#my-svg .dependency{fill:#333333!important;stroke:#333333!important;stroke-width:1;}#my-svg #dependencyStart,#my-svg .dependency{fill:#333333!important;stroke:#333333!important;stroke-width:1;}#my-svg #extensionStart,#my-svg .extension{fill:transparent!important;stroke:#333333!important;stroke-width:1;}#my-svg #extensionEnd,#my-svg .extension{fill:transparent!important;stroke:#333333!important;stroke-width:1;}#my-svg #aggregationStart,#my-svg .aggregation{fill:transparent!important;stroke:#333333!important;stroke-width:1;}#my-svg #aggregationEnd,#my-svg .aggregation{fill:transparent!important;stroke:#333333!important;stroke-width:1;}#my-svg #lollipopStart,#my-svg .lollipop{fill:#ECECFF!important;stroke:#333333!important;stroke-width:1;}#my-svg #lollipopEnd,#my-svg .lollipop{fill:#ECECFF!important;stroke:#333333!important;stroke-width:1;}#my-svg .edgeTerminals{font-size:11px;line-height:initial;}#my-svg .classTitleText{text-anchor:middle;font-size:18px;fill:#333;}#my-svg .label-icon{display:inline-block;height:1em;overflow:visible;vertical-align:-0.125em;}#my-svg .node .label-icon path{fill:currentColor;stroke:revert;stroke-width:revert;}#my-svg :root{--mermaid-font-family:"trebuchet ms",verdana,arial,sans-serif;}</style><g><defs><marker id="my-svg_class-aggregationStart" class="marker aggregation class" refX="18" refY="7" markerWidth="190" markerHeight="240" orient="auto"><path d="M 18,7 L9,13 L1,7 L9,1 Z"/></marker></defs><defs><marker id="my-svg_class-aggregationEnd" class="marker aggregation class" refX="1" refY="7" markerWidth="20" markerHeight="28" orient="auto"><path d="M 18,7 L9,13 L1,7 L9,1 Z"/></marker></defs><defs><marker id="my-svg_class-extensionStart" class="marker extension class" refX="18" refY="7" markerWidth="190" markerHeight="240" orient="auto"><path d="M 1,7 L18,13 V 1 Z"/></marker></defs><defs><marker id="my-svg_class-extensionEnd" class="marker extension class" refX="1" refY="7" markerWidth="20" markerHeight="28" orient="auto"><path d="M 1,1 V 13 L18,7 Z"/></marker></defs><defs><marker id="my-svg_class-compositionStart" class="marker composition class" refX="18" refY="7" markerWidth="190" markerHeight="240" orient="auto"><path d="M 18,7 L9,13 L1,7 L9,1 Z"/></marker></defs><defs><marker id="my-svg_class-compositionEnd" class="marker composition class" refX="1" refY="7" markerWidth="20" markerHeight="28" orient="auto"><path d="M 18,7 L9,13 L1,7 L9,1 Z"/></marker></defs><defs><marker id="my-svg_class-dependencyStart" class="marker dependency class" refX="6" refY="7" markerWidth="190" markerHeight="240" orient="auto"><path d="M 5,7 L9,13 L1,7 L9,1 Z"/></marker></defs><defs><marker id="my-svg_class-dependencyEnd" class="marker dependency class" refX="13" refY="7" markerWidth="20" markerHeight="28" orient="auto"><path d="M 18,7 L9,13 L14,7 L9,1 Z"/></marker></defs><defs><marker id="my-svg_class-lollipopStart" class="marker lollipop class" refX="13" refY="7" markerWidth="190" markerHeight="240" orient="auto"><circle stroke="black" fill="transparent" cx="7" cy="7" r="6"/></marker></defs><defs><marker id="my-svg_class-lollipopEnd" class="marker lollipop class" refX="1" refY="7" markerWidth="190" markerHeight="240" orient="auto"><circle stroke="black" fill="transparent" cx="7" cy="7" r="6"/></marker></defs><g class="root"><g class="clusters"/><g class="edgePaths"><path d="M699.453,272L699.453,278.167C699.453,284.333,699.453,296.667,699.453,308C699.453,319.333,699.453,329.667,699.453,334.833L699.453,340" id="id_TelemetryEvaluationReadModel_Connectivity_1" class="edge-thickness-normal edge-pattern-solid relation" style=";;;" data-edge="true" data-et="edge" data-id="id_TelemetryEvaluationReadModel_Connectivity_1" data-points="W3sieCI6Njk5LjQ1MzEyNSwieSI6MjcyfSx7IngiOjY5OS40NTMxMjUsInkiOjMwOX0seyJ4Ijo2OTkuNDUzMTI1LCJ5IjozNDZ9XQ==" marker-end="url(#my-svg_class-dependencyEnd)"/><path d="M1123.438,200L1123.438,218.167C1123.438,236.333,1123.438,272.667,1123.438,300C1123.438,327.333,1123.438,345.667,1123.438,354.833L1123.438,364" id="id_GetLatestTelemetryEvaluationByDeviceQuery_EvaluationDeviceId_2" class="edge-thickness-normal edge-pattern-solid relation" style=";;;" data-edge="true" data-et="edge" data-id="id_GetLatestTelemetryEvaluationByDeviceQuery_EvaluationDeviceId_2" data-points="W3sieCI6MTEyMy40Mzc1LCJ5IjoyMDB9LHsieCI6MTEyMy40Mzc1LCJ5IjozMDl9LHsieCI6MTEyMy40Mzc1LCJ5IjozNzB9XQ==" marker-end="url(#my-svg_class-dependencyEnd)"/></g><g class="edgeLabels"><g class="edgeLabel" transform="translate(699.453125, 309)"><g class="label" data-id="id_TelemetryEvaluationReadModel_Connectivity_1" transform="translate(-29.890625, -12)"><foreignObject width="59.78125" height="24"><div xmlns="http://www.w3.org/1999/xhtml" class="labelBkg" style="display: table-cell; white-space: nowrap; line-height: 1.5; max-width: 200px; text-align: center;"><span class="edgeLabel"><p>contains</p></span></div></foreignObject></g></g><g class="edgeLabel" transform="translate(1123.4375, 309)"><g class="label" data-id="id_GetLatestTelemetryEvaluationByDeviceQuery_EvaluationDeviceId_2" transform="translate(-15.2109375, -12)"><foreignObject width="30.421875" height="24"><div xmlns="http://www.w3.org/1999/xhtml" class="labelBkg" style="display: table-cell; white-space: nowrap; line-height: 1.5; max-width: 200px; text-align: center;"><span class="edgeLabel"><p>uses</p></span></div></foreignObject></g></g></g><g class="nodes"><g class="node default" id="classId-TelemetryEvaluationQueryService-0" transform="translate(244.0625, 140)"><g class="basic label-container"><path d="M-236.0625 -75 L236.0625 -75 L236.0625 75 L-236.0625 75" stroke="none" stroke-width="0" fill="#ECECFF" style=""/><path d="M-236.0625 -75 C-79.3364504536786 -75, 77.38959909264281 -75, 236.0625 -75 M-236.0625 -75 C-99.44258128282976 -75, 37.17733743434047 -75, 236.0625 -75 M236.0625 -75 C236.0625 -23.18605316438481, 236.0625 28.62789367123038, 236.0625 75 M236.0625 -75 C236.0625 -37.3299438382562, 236.0625 0.34011232348760245, 236.0625 75 M236.0625 75 C108.17988838678825 75, -19.7027232264235 75, -236.0625 75 M236.0625 75 C100.85038537831366 75, -34.36172924337268 75, -236.0625 75 M-236.0625 75 C-236.0625 39.207323537515954, -236.0625 3.4146470750319082, -236.0625 -75 M-236.0625 75 C-236.0625 30.494466519628624, -236.0625 -14.011066960742752, -236.0625 -75" stroke="#9370DB" stroke-width="1.3" fill="none" stroke-dasharray="0 0" style=""/></g><g class="annotation-group text" transform="translate(-41.171875, -51)"><g class="label" style="" transform="translate(0,-12)"><foreignObject width="82.34375" height="24"><div xmlns="http://www.w3.org/1999/xhtml" style="display: table-cell; white-space: nowrap; line-height: 1.5; max-width: 122px; text-align: center;"><span class="nodeLabel markdown-node-label" style=""><p>«interface»</p></span></div></foreignObject></g></g><g class="label-group text" transform="translate(-127.421875, -27)"><g class="label" style="font-weight: bolder" transform="translate(0,-12)"><foreignObject width="254.84375" height="24"><div xmlns="http://www.w3.org/1999/xhtml" style="display: table-cell; white-space: nowrap; line-height: 1.5; max-width: 272px; text-align: center;"><span class="nodeLabel markdown-node-label" style=""><p>TelemetryEvaluationQueryService</p></span></div></foreignObject></g></g><g class="members-group text" transform="translate(-224.0625, 21)"/><g class="methods-group text" transform="translate(-224.0625, 51)"><g class="label" style="font-style:italic;" transform="translate(0,-12)"><foreignObject width="320.703125" height="24"><div xmlns="http://www.w3.org/1999/xhtml" style="display: table-cell; white-space: nowrap; line-height: 1.5; max-width: 332px; text-align: center;"><span class="nodeLabel markdown-node-label" style=""><p>+handleGetLatestByDevice(query) : Either</p></span></div></foreignObject></g></g><g class="divider" style=""><path d="M-236.0625 -3 C-112.57340317504779 -3, 10.915693649904426 -3, 236.0625 -3 M-236.0625 -3 C-65.62532493708875 -3, 104.8118501258225 -3, 236.0625 -3" stroke="#9370DB" stroke-width="1.3" fill="none" stroke-dasharray="0 0" style=""/></g><g class="divider" style=""><path d="M-236.0625 21 C-64.1438313877706 21, 107.77483722445879 21, 236.0625 21 M-236.0625 21 C-135.90096319119124 21, -35.739426382382504 21, 236.0625 21" stroke="#9370DB" stroke-width="1.3" fill="none" stroke-dasharray="0 0" style=""/></g></g><g class="node default" id="classId-TelemetryEvaluationReadModel-1" transform="translate(699.453125, 140)"><g class="basic label-container"><path d="M-169.328125 -132 L169.328125 -132 L169.328125 132 L-169.328125 132" stroke="none" stroke-width="0" fill="#ECECFF" style=""/><path d="M-169.328125 -132 C-48.8778571046377 -132, 71.5724107907246 -132, 169.328125 -132 M-169.328125 -132 C-83.25810001817695 -132, 2.8119249636461063 -132, 169.328125 -132 M169.328125 -132 C169.328125 -78.1587036308421, 169.328125 -24.317407261684195, 169.328125 132 M169.328125 -132 C169.328125 -47.30373474792988, 169.328125 37.39253050414024, 169.328125 132 M169.328125 132 C84.22163774727336 132, -0.8848495054532748 132, -169.328125 132 M169.328125 132 C52.885808997288024 132, -63.55650700542395 132, -169.328125 132 M-169.328125 132 C-169.328125 77.27144444473001, -169.328125 22.542888889460002, -169.328125 -132 M-169.328125 132 C-169.328125 42.38793403395883, -169.328125 -47.224131932082344, -169.328125 -132" stroke="#9370DB" stroke-width="1.3" fill="none" stroke-dasharray="0 0" style=""/></g><g class="annotation-group text" transform="translate(0, -108)"/><g class="label-group text" transform="translate(-117.5625, -108)"><g class="label" style="font-weight: bolder" transform="translate(0,-12)"><foreignObject width="235.125" height="24"><div xmlns="http://www.w3.org/1999/xhtml" style="display: table-cell; white-space: nowrap; line-height: 1.5; max-width: 259px; text-align: center;"><span class="nodeLabel markdown-node-label" style=""><p>TelemetryEvaluationReadModel</p></span></div></foreignObject></g></g><g class="members-group text" transform="translate(-157.328125, -60)"><g class="label" style="" transform="translate(0,-12)"><foreignObject width="74.15625" height="24"><div xmlns="http://www.w3.org/1999/xhtml" style="display: table-cell; white-space: nowrap; line-height: 1.5; max-width: 123px; text-align: center;"><span class="nodeLabel markdown-node-label" style=""><p>+id: String</p></span></div></foreignObject></g><g class="label" style="" transform="translate(0,12)"><foreignObject width="120.734375" height="24"><div xmlns="http://www.w3.org/1999/xhtml" style="display: table-cell; white-space: nowrap; line-height: 1.5; max-width: 166px; text-align: center;"><span class="nodeLabel markdown-node-label" style=""><p>+deviceId: String</p></span></div></foreignObject></g><g class="label" style="" transform="translate(0,36)"><foreignObject width="146.375" height="24"><div xmlns="http://www.w3.org/1999/xhtml" style="display: table-cell; white-space: nowrap; line-height: 1.5; max-width: 187px; text-align: center;"><span class="nodeLabel markdown-node-label" style=""><p>+uptimeSeconds: int</p></span></div></foreignObject></g><g class="label" style="" transform="translate(0,60)"><foreignObject width="197.09375" height="24"><div xmlns="http://www.w3.org/1999/xhtml" style="display: table-cell; white-space: nowrap; line-height: 1.5; max-width: 234px; text-align: center;"><span class="nodeLabel markdown-node-label" style=""><p>+connectivity: Connectivity</p></span></div></foreignObject></g><g class="label" style="" transform="translate(0,84)"><foreignObject width="128.421875" height="24"><div xmlns="http://www.w3.org/1999/xhtml" style="display: table-cell; white-space: nowrap; line-height: 1.5; max-width: 168px; text-align: center;"><span class="nodeLabel markdown-node-label" style=""><p>+healthStatus: int</p></span></div></foreignObject></g><g class="label" style="" transform="translate(0,108)"><foreignObject width="103.46875" height="24"><div xmlns="http://www.w3.org/1999/xhtml" style="display: table-cell; white-space: nowrap; line-height: 1.5; max-width: 147px; text-align: center;"><span class="nodeLabel markdown-node-label" style=""><p>+status: String</p></span></div></foreignObject></g><g class="label" style="" transform="translate(0,132)"><foreignObject width="167.578125" height="24"><div xmlns="http://www.w3.org/1999/xhtml" style="display: table-cell; white-space: nowrap; line-height: 1.5; max-width: 207px; text-align: center;"><span class="nodeLabel markdown-node-label" style=""><p>+recordedAt: DateTime</p></span></div></foreignObject></g></g><g class="methods-group text" transform="translate(-157.328125, 132)"/><g class="divider" style=""><path d="M-169.328125 -84 C-81.18738778088633 -84, 6.953349438227349 -84, 169.328125 -84 M-169.328125 -84 C-68.48045689858965 -84, 32.3672112028207 -84, 169.328125 -84" stroke="#9370DB" stroke-width="1.3" fill="none" stroke-dasharray="0 0" style=""/></g><g class="divider" style=""><path d="M-169.328125 108 C-45.49215081110697 108, 78.34382337778607 108, 169.328125 108 M-169.328125 108 C-50.39780501962714 108, 68.53251496074571 108, 169.328125 108" stroke="#9370DB" stroke-width="1.3" fill="none" stroke-dasharray="0 0" style=""/></g></g><g class="node default" id="classId-Connectivity-2" transform="translate(699.453125, 430)"><g class="basic label-container"><path d="M-108.90234375 -84 L108.90234375 -84 L108.90234375 84 L-108.90234375 84" stroke="none" stroke-width="0" fill="#ECECFF" style=""/><path d="M-108.90234375 -84 C-60.577318037755646 -84, -12.252292325511291 -84, 108.90234375 -84 M-108.90234375 -84 C-31.002802788488893 -84, 46.896738173022214 -84, 108.90234375 -84 M108.90234375 -84 C108.90234375 -40.71197056488141, 108.90234375 2.5760588702371763, 108.90234375 84 M108.90234375 -84 C108.90234375 -37.287152005573, 108.90234375 9.425695988854002, 108.90234375 84 M108.90234375 84 C34.94778001238858 84, -39.006783725222846 84, -108.90234375 84 M108.90234375 84 C49.616557594805705 84, -9.66922856038859 84, -108.90234375 84 M-108.90234375 84 C-108.90234375 35.88267514283439, -108.90234375 -12.234649714331226, -108.90234375 -84 M-108.90234375 84 C-108.90234375 28.069936459526033, -108.90234375 -27.860127080947933, -108.90234375 -84" stroke="#9370DB" stroke-width="1.3" fill="none" stroke-dasharray="0 0" style=""/></g><g class="annotation-group text" transform="translate(0, -60)"/><g class="label-group text" transform="translate(-47.4140625, -60)"><g class="label" style="font-weight: bolder" transform="translate(0,-12)"><foreignObject width="94.828125" height="24"><div xmlns="http://www.w3.org/1999/xhtml" style="display: table-cell; white-space: nowrap; line-height: 1.5; max-width: 133px; text-align: center;"><span class="nodeLabel markdown-node-label" style=""><p>Connectivity</p></span></div></foreignObject></g></g><g class="members-group text" transform="translate(-96.90234375, -12)"><g class="label" style="" transform="translate(0,-12)"><foreignObject width="103.46875" height="24"><div xmlns="http://www.w3.org/1999/xhtml" style="display: table-cell; white-space: nowrap; line-height: 1.5; max-width: 147px; text-align: center;"><span class="nodeLabel markdown-node-label" style=""><p>+status: String</p></span></div></foreignObject></g><g class="label" style="" transform="translate(0,12)"><foreignObject width="119.28125" height="24"><div xmlns="http://www.w3.org/1999/xhtml" style="display: table-cell; white-space: nowrap; line-height: 1.5; max-width: 163px; text-align: center;"><span class="nodeLabel markdown-node-label" style=""><p>+network: String</p></span></div></foreignObject></g><g class="label" style="" transform="translate(0,36)"><foreignObject width="146.390625" height="24"><div xmlns="http://www.w3.org/1999/xhtml" style="display: table-cell; white-space: nowrap; line-height: 1.5; max-width: 188px; text-align: center;"><span class="nodeLabel markdown-node-label" style=""><p>+signalStrength: int?</p></span></div></foreignObject></g></g><g class="methods-group text" transform="translate(-96.90234375, 84)"/><g class="divider" style=""><path d="M-108.90234375 -36 C-32.70810228687999 -36, 43.486139176240016 -36, 108.90234375 -36 M-108.90234375 -36 C-28.17906665113398 -36, 52.54421044773204 -36, 108.90234375 -36" stroke="#9370DB" stroke-width="1.3" fill="none" stroke-dasharray="0 0" style=""/></g><g class="divider" style=""><path d="M-108.90234375 60 C-41.99029631715989 60, 24.921751115680223 60, 108.90234375 60 M-108.90234375 60 C-57.986198658929 60, -7.070053567857997 60, 108.90234375 60" stroke="#9370DB" stroke-width="1.3" fill="none" stroke-dasharray="0 0" style=""/></g></g><g class="node default" id="classId-GetLatestTelemetryEvaluationByDeviceQuery-3" transform="translate(1123.4375, 140)"><g class="basic label-container"><path d="M-204.65625 -60 L204.65625 -60 L204.65625 60 L-204.65625 60" stroke="none" stroke-width="0" fill="#ECECFF" style=""/><path d="M-204.65625 -60 C-106.78949001897129 -60, -8.922730037942586 -60, 204.65625 -60 M-204.65625 -60 C-55.353191077969825 -60, 93.94986784406035 -60, 204.65625 -60 M204.65625 -60 C204.65625 -24.991398769058954, 204.65625 10.017202461882093, 204.65625 60 M204.65625 -60 C204.65625 -17.451070931595375, 204.65625 25.09785813680925, 204.65625 60 M204.65625 60 C95.15789334045024 60, -14.340463319099513 60, -204.65625 60 M204.65625 60 C65.70301956465684 60, -73.25021087068632 60, -204.65625 60 M-204.65625 60 C-204.65625 31.53306889431323, -204.65625 3.066137788626463, -204.65625 -60 M-204.65625 60 C-204.65625 18.586079830129655, -204.65625 -22.82784033974069, -204.65625 -60" stroke="#9370DB" stroke-width="1.3" fill="none" stroke-dasharray="0 0" style=""/></g><g class="annotation-group text" transform="translate(0, -36)"/><g class="label-group text" transform="translate(-170.296875, -36)"><g class="label" style="font-weight: bolder" transform="translate(0,-12)"><foreignObject width="340.59375" height="24"><div xmlns="http://www.w3.org/1999/xhtml" style="display: table-cell; white-space: nowrap; line-height: 1.5; max-width: 350px; text-align: center;"><span class="nodeLabel markdown-node-label" style=""><p>GetLatestTelemetryEvaluationByDeviceQuery</p></span></div></foreignObject></g></g><g class="members-group text" transform="translate(-192.65625, 12)"><g class="label" style="" transform="translate(0,-12)"><foreignObject width="215.015625" height="24"><div xmlns="http://www.w3.org/1999/xhtml" style="display: table-cell; white-space: nowrap; line-height: 1.5; max-width: 256px; text-align: center;"><span class="nodeLabel markdown-node-label" style=""><p>+deviceId: EvaluationDeviceId</p></span></div></foreignObject></g></g><g class="methods-group text" transform="translate(-192.65625, 60)"/><g class="divider" style=""><path d="M-204.65625 -12 C-75.18399697076302 -12, 54.28825605847396 -12, 204.65625 -12 M-204.65625 -12 C-47.392019479626214 -12, 109.87221104074757 -12, 204.65625 -12" stroke="#9370DB" stroke-width="1.3" fill="none" stroke-dasharray="0 0" style=""/></g><g class="divider" style=""><path d="M-204.65625 36 C-101.02141324195924 36, 2.613423516081525 36, 204.65625 36 M-204.65625 36 C-63.651811737946986 36, 77.35262652410603 36, 204.65625 36" stroke="#9370DB" stroke-width="1.3" fill="none" stroke-dasharray="0 0" style=""/></g></g><g class="node default" id="classId-EvaluationDeviceId-4" transform="translate(1123.4375, 430)"><g class="basic label-container"><path d="M-97.2265625 -60 L97.2265625 -60 L97.2265625 60 L-97.2265625 60" stroke="none" stroke-width="0" fill="#ECECFF" style=""/><path d="M-97.2265625 -60 C-37.69866391548832 -60, 21.829234669023364 -60, 97.2265625 -60 M-97.2265625 -60 C-25.56059632169422 -60, 46.10536985661156 -60, 97.2265625 -60 M97.2265625 -60 C97.2265625 -33.64423409967719, 97.2265625 -7.2884681993543765, 97.2265625 60 M97.2265625 -60 C97.2265625 -30.09276462653163, 97.2265625 -0.18552925306325818, 97.2265625 60 M97.2265625 60 C20.422762226835545 60, -56.38103804632891 60, -97.2265625 60 M97.2265625 60 C26.605252719190673 60, -44.01605706161865 60, -97.2265625 60 M-97.2265625 60 C-97.2265625 32.22969011448335, -97.2265625 4.459380228966694, -97.2265625 -60 M-97.2265625 60 C-97.2265625 20.349736262617867, -97.2265625 -19.300527474764266, -97.2265625 -60" stroke="#9370DB" stroke-width="1.3" fill="none" stroke-dasharray="0 0" style=""/></g><g class="annotation-group text" transform="translate(0, -36)"/><g class="label-group text" transform="translate(-71.34375, -36)"><g class="label" style="font-weight: bolder" transform="translate(0,-12)"><foreignObject width="142.6875" height="24"><div xmlns="http://www.w3.org/1999/xhtml" style="display: table-cell; white-space: nowrap; line-height: 1.5; max-width: 179px; text-align: center;"><span class="nodeLabel markdown-node-label" style=""><p>EvaluationDeviceId</p></span></div></foreignObject></g></g><g class="members-group text" transform="translate(-85.2265625, 12)"><g class="label" style="" transform="translate(0,-12)"><foreignObject width="99.109375" height="24"><div xmlns="http://www.w3.org/1999/xhtml" style="display: table-cell; white-space: nowrap; line-height: 1.5; max-width: 146px; text-align: center;"><span class="nodeLabel markdown-node-label" style=""><p>+value: String</p></span></div></foreignObject></g></g><g class="methods-group text" transform="translate(-85.2265625, 60)"/><g class="divider" style=""><path d="M-97.2265625 -12 C-34.134605957279284 -12, 28.957350585441432 -12, 97.2265625 -12 M-97.2265625 -12 C-36.95326774402005 -12, 23.320027011959894 -12, 97.2265625 -12" stroke="#9370DB" stroke-width="1.3" fill="none" stroke-dasharray="0 0" style=""/></g><g class="divider" style=""><path d="M-97.2265625 36 C-24.259013582948782 36, 48.708535334102436 36, 97.2265625 36 M-97.2265625 36 C-58.25602596366855 36, -19.285489427337097 36, 97.2265625 36" stroke="#9370DB" stroke-width="1.3" fill="none" stroke-dasharray="0 0" style=""/></g></g></g></g></g><text text-anchor="middle" x="668.046875" y="-25" class="classDiagramTitleText">Evaluation - Domain Layer</text></svg>