<svg id="my-svg" width="100%" xmlns="http://www.w3.org/2000/svg" xmlns:xlink="http://www.w3.org/1999/xlink" class="classDiagram" style="max-width: 608.723px; background-color: transparent;" viewBox="0 -48 608.72265625 482" role="graphics-document document" aria-roledescription="class"><style>#my-svg{font-family:"trebuchet ms",verdana,arial,sans-serif;font-size:16px;fill:#333;}@keyframes edge-animation-frame{from{stroke-dashoffset:0;}}@keyframes dash{to{stroke-dashoffset:0;}}#my-svg .edge-animation-slow{stroke-dasharray:9,5!important;stroke-dashoffset:900;animation:dash 50s linear infinite;stroke-linecap:round;}#my-svg .edge-animation-fast{stroke-dasharray:9,5!important;stroke-dashoffset:900;animation:dash 20s linear infinite;stroke-linecap:round;}#my-svg .error-icon{fill:#552222;}#my-svg .error-text{fill:#552222;stroke:#552222;}#my-svg .edge-thickness-normal{stroke-width:1px;}#my-svg .edge-thickness-thick{stroke-width:3.5px;}#my-svg .edge-pattern-solid{stroke-dasharray:0;}#my-svg .edge-thickness-invisible{stroke-width:0;fill:none;}#my-svg .edge-pattern-dashed{stroke-dasharray:3;}#my-svg .edge-pattern-dotted{stroke-dasharray:2;}#my-svg .marker{fill:#333333;stroke:#333333;}#my-svg .marker.cross{stroke:#333333;}#my-svg svg{font-family:"trebuchet ms",verdana,arial,sans-serif;font-size:16px;}#my-svg p{margin:0;}#my-svg g.classGroup text{fill:#9370DB;stroke:none;font-family:"trebuchet ms",verdana,arial,sans-serif;font-size:10px;}#my-svg g.classGroup text .title{font-weight:bolder;}#my-svg .nodeLabel,#my-svg .edgeLabel{color:#131300;}#my-svg .edgeLabel .label rect{fill:#ECECFF;}#my-svg .label text{fill:#131300;}#my-svg .labelBkg{background:#ECECFF;}#my-svg .edgeLabel .label span{background:#ECECFF;}#my-svg .classTitle{font-weight:bolder;}#my-svg .node rect,#my-svg .node circle,#my-svg .node ellipse,#my-svg .node polygon,#my-svg .node path{fill:#ECECFF;stroke:#9370DB;stroke-width:1px;}#my-svg .divider{stroke:#9370DB;stroke-width:1;}#my-svg g.clickable{cursor:pointer;}#my-svg g.classGroup rect{fill:#ECECFF;stroke:#9370DB;}#my-svg g.classGroup line{stroke:#9370DB;stroke-width:1;}#my-svg .classLabel .box{stroke:none;stroke-width:0;fill:#ECECFF;opacity:0.5;}#my-svg .classLabel .label{fill:#9370DB;font-size:10px;}#my-svg .relation{stroke:#333333;stroke-width:1;fill:none;}#my-svg .dashed-line{stroke-dasharray:3;}#my-svg .dotted-line{stroke-dasharray:1 2;}#my-svg #compositionStart,#my-svg .composition{fill:#333333!important;stroke:#333333!important;stroke-width:1;}#my-svg #compositionEnd,#my-svg .composition{fill:#333333!important;stroke:#333333!important;stroke-width:1;}#my-svg #dependencyStart,#my-svg .dependency{fill:#333333!important;stroke:#333333!important;stroke-width:1;}#my-svg #dependencyStart,#my-svg .dependency{fill:#333333!important;stroke:#333333!important;stroke-width:1;}#my-svg #extensionStart,#my-svg .extension{fill:transparent!important;stroke:#333333!important;stroke-width:1;}#my-svg #extensionEnd,#my-svg .extension{fill:transparent!important;stroke:#333333!important;stroke-width:1;}#my-svg #aggregationStart,#my-svg .aggregation{fill:transparent!important;stroke:#333333!important;stroke-width:1;}#my-svg #aggregationEnd,#my-svg .aggregation{fill:transparent!important;stroke:#333333!important;stroke-width:1;}#my-svg #lollipopStart,#my-svg .lollipop{fill:#ECECFF!important;stroke:#333333!important;stroke-width:1;}#my-svg #lollipopEnd,#my-svg .lollipop{fill:#ECECFF!important;stroke:#333333!important;stroke-width:1;}#my-svg .edgeTerminals{font-size:11px;line-height:initial;}#my-svg .classTitleText{text-anchor:middle;font-size:18px;fill:#333;}#my-svg .label-icon{display:inline-block;height:1em;overflow:visible;vertical-align:-0.125em;}#my-svg .node .label-icon path{fill:currentColor;stroke:revert;stroke-width:revert;}#my-svg :root{--mermaid-font-family:"trebuchet ms",verdana,arial,sans-serif;}</style><g><defs><marker id="my-svg_class-aggregationStart" class="marker aggregation class" refX="18" refY="7" markerWidth="190" markerHeight="240" orient="auto"><path d="M 18,7 L9,13 L1,7 L9,1 Z"/></marker></defs><defs><marker id="my-svg_class-aggregationEnd" class="marker aggregation class" refX="1" refY="7" markerWidth="20" markerHeight="28" orient="auto"><path d="M 18,7 L9,13 L1,7 L9,1 Z"/></marker></defs><defs><marker id="my-svg_class-extensionStart" class="marker extension class" refX="18" refY="7" markerWidth="190" markerHeight="240" orient="auto"><path d="M 1,7 L18,13 V 1 Z"/></marker></defs><defs><marker id="my-svg_class-extensionEnd" class="marker extension class" refX="1" refY="7" markerWidth="20" markerHeight="28" orient="auto"><path d="M 1,1 V 13 L18,7 Z"/></marker></defs><defs><marker id="my-svg_class-compositionStart" class="marker composition class" refX="18" refY="7" markerWidth="190" markerHeight="240" orient="auto"><path d="M 18,7 L9,13 L1,7 L9,1 Z"/></marker></defs><defs><marker id="my-svg_class-compositionEnd" class="marker composition class" refX="1" refY="7" markerWidth="20" markerHeight="28" orient="auto"><path d="M 18,7 L9,13 L1,7 L9,1 Z"/></marker></defs><defs><marker id="my-svg_class-dependencyStart" class="marker dependency class" refX="6" refY="7" markerWidth="190" markerHeight="240" orient="auto"><path d="M 5,7 L9,13 L1,7 L9,1 Z"/></marker></defs><defs><marker id="my-svg_class-dependencyEnd" class="marker dependency class" refX="13" refY="7" markerWidth="20" markerHeight="28" orient="auto"><path d="M 18,7 L9,13 L14,7 L9,1 Z"/></marker></defs><defs><marker id="my-svg_class-lollipopStart" class="marker lollipop class" refX="13" refY="7" markerWidth="190" markerHeight="240" orient="auto"><circle stroke="black" fill="transparent" cx="7" cy="7" r="6"/></marker></defs><defs><marker id="my-svg_class-lollipopEnd" class="marker lollipop class" refX="1" refY="7" markerWidth="190" markerHeight="240" orient="auto"><circle stroke="black" fill="transparent" cx="7" cy="7" r="6"/></marker></defs><g class="root"><g class="clusters"><g class="cluster undefined" id="infrastructure" data-look="classic"><rect style="fill:none !important;stroke:black !important" x="8" y="8" width="423.33203125" height="418"/><g class="cluster-label" transform="translate(169.876953125, 8)"><foreignObject width="99.578125" height="24"><div xmlns="http://www.w3.org/1999/xhtml" style="display: table-cell; white-space: nowrap; line-height: 1.5; max-width: 200px; text-align: center;"><span class="nodeLabel"><p>infrastructure</p></span></div></foreignObject></g></g></g><g class="edgePaths"><path d="M280.208,207L283.626,213.167C287.043,219.333,293.879,231.667,322.246,248.228C350.613,264.79,400.511,285.579,425.46,295.974L450.409,306.369" id="id_BillingHttpGateway_BillingGateway_1" class="edge-thickness-normal edge-pattern-dashed relation" style=";;;" data-edge="true" data-et="edge" data-id="id_BillingHttpGateway_BillingGateway_1" data-points="W3sieCI6MjgwLjIwNzcyNDI5NDM1NDgsInkiOjIwN30seyJ4IjozMDAuNzE0ODQzNzUsInkiOjI0NH0seyJ4Ijo0NjYuMzMyMDMxMjUsInkiOjMxMy4wMDM0NTYzNzU4Mzg5NH1d" marker-end="url(#my-svg_class-extensionEnd)"/><path d="M203.773,207L201.773,213.167C199.773,219.333,195.773,231.667,193.773,243C191.773,254.333,191.773,264.667,191.773,269.833L191.773,275" id="id_BillingHttpGateway_PaymentIntentResource_2" class="edge-thickness-normal edge-pattern-solid relation" style=";;;" data-edge="true" data-et="edge" data-id="id_BillingHttpGateway_PaymentIntentResource_2" data-points="W3sieCI6MjAzLjc3MzAyNzk3Mzc5MDMzLCJ5IjoyMDd9LHsieCI6MTkxLjc3MzQzNzUsInkiOjI0NH0seyJ4IjoxOTEuNzczNDM3NSwieSI6MjgxfV0=" marker-end="url(#my-svg_class-dependencyEnd)"/></g><g class="edgeLabels"><g class="edgeLabel" transform="translate(363.99883, 270.36691)"><g class="label" data-id="id_BillingHttpGateway_BillingGateway_1" transform="translate(-41.890625, -12)"><foreignObject width="83.78125" height="24"><div xmlns="http://www.w3.org/1999/xhtml" class="labelBkg" style="display: table-cell; white-space: nowrap; line-height: 1.5; max-width: 200px; text-align: center;"><span class="edgeLabel"><p>implements</p></span></div></foreignObject></g></g><g class="edgeLabel" transform="translate(191.7734375, 244)"><g class="label" data-id="id_BillingHttpGateway_PaymentIntentResource_2" transform="translate(-18.5390625, -12)"><foreignObject width="37.078125" height="24"><div xmlns="http://www.w3.org/1999/xhtml" class="labelBkg" style="display: table-cell; white-space: nowrap; line-height: 1.5; max-width: 200px; text-align: center;"><span class="edgeLabel"><p>maps</p></span></div></foreignObject></g></g></g><g class="nodes"><g class="node default" id="classId-BillingHttpGateway-0" transform="translate(231.98828125, 120)"><g class="basic label-container"><path d="M-164.34375 -87 L164.34375 -87 L164.34375 87 L-164.34375 87" stroke="none" stroke-width="0" fill="#ECECFF" style=""/><path d="M-164.34375 -87 C-80.91045512196614 -87, 2.522839756067725 -87, 164.34375 -87 M-164.34375 -87 C-61.89834276929126 -87, 40.54706446141748 -87, 164.34375 -87 M164.34375 -87 C164.34375 -40.621521475681725, 164.34375 5.756957048636551, 164.34375 87 M164.34375 -87 C164.34375 -19.615382140617385, 164.34375 47.76923571876523, 164.34375 87 M164.34375 87 C72.28164856690819 87, -19.780452866183623 87, -164.34375 87 M164.34375 87 C88.79356158444146 87, 13.243373168882925 87, -164.34375 87 M-164.34375 87 C-164.34375 38.197565748159285, -164.34375 -10.60486850368143, -164.34375 -87 M-164.34375 87 C-164.34375 26.647554957514124, -164.34375 -33.70489008497175, -164.34375 -87" stroke="#9370DB" stroke-width="1.3" fill="none" stroke-dasharray="0 0" style=""/></g><g class="annotation-group text" transform="translate(0, -63)"/><g class="label-group text" transform="translate(-71.671875, -63)"><g class="label" style="font-weight: bolder" transform="translate(0,-12)"><foreignObject width="143.34375" height="24"><div xmlns="http://www.w3.org/1999/xhtml" style="display: table-cell; white-space: nowrap; line-height: 1.5; max-width: 180px; text-align: center;"><span class="nodeLabel markdown-node-label" style=""><p>BillingHttpGateway</p></span></div></foreignObject></g></g><g class="members-group text" transform="translate(-152.34375, -15)"/><g class="methods-group text" transform="translate(-152.34375, 15)"><g class="label" style="" transform="translate(0,-12)"><foreignObject width="149.359375" height="24"><div xmlns="http://www.w3.org/1999/xhtml" style="display: table-cell; white-space: nowrap; line-height: 1.5; max-width: 192px; text-align: center;"><span class="nodeLabel markdown-node-label" style=""><p>+getUserPlan(userId)</p></span></div></foreignObject></g><g class="label" style="" transform="translate(0,12)"><foreignObject width="154.8125" height="24"><div xmlns="http://www.w3.org/1999/xhtml" style="display: table-cell; white-space: nowrap; line-height: 1.5; max-width: 199px; text-align: center;"><span class="nodeLabel markdown-node-label" style=""><p>+getStripePublicKey()</p></span></div></foreignObject></g><g class="label" style="" transform="translate(0,36)"><foreignObject width="233.015625" height="24"><div xmlns="http://www.w3.org/1999/xhtml" style="display: table-cell; white-space: nowrap; line-height: 1.5; max-width: 260px; text-align: center;"><span class="nodeLabel markdown-node-label" style=""><p>+createPaymentIntent(resource)</p></span></div></foreignObject></g></g><g class="divider" style=""><path d="M-164.34375 -39 C-63.78324181504155 -39, 36.7772663699169 -39, 164.34375 -39 M-164.34375 -39 C-76.23424627103188 -39, 11.875257457936243 -39, 164.34375 -39" stroke="#9370DB" stroke-width="1.3" fill="none" stroke-dasharray="0 0" style=""/></g><g class="divider" style=""><path d="M-164.34375 -15 C-40.68585248325759 -15, 82.97204503348482 -15, 164.34375 -15 M-164.34375 -15 C-77.36757514141546 -15, 9.608599717169085 -15, 164.34375 -15" stroke="#9370DB" stroke-width="1.3" fill="none" stroke-dasharray="0 0" style=""/></g></g><g class="node default" id="classId-PaymentIntentResource-1" transform="translate(191.7734375, 341)"><g class="basic label-container"><path d="M-133.203125 -60 L133.203125 -60 L133.203125 60 L-133.203125 60" stroke="none" stroke-width="0" fill="#ECECFF" style=""/><path d="M-133.203125 -60 C-55.60810298013014 -60, 21.986919039739718 -60, 133.203125 -60 M-133.203125 -60 C-58.36281216685455 -60, 16.477500666290894 -60, 133.203125 -60 M133.203125 -60 C133.203125 -19.509524937741283, 133.203125 20.980950124517435, 133.203125 60 M133.203125 -60 C133.203125 -28.059450175467944, 133.203125 3.8810996490641116, 133.203125 60 M133.203125 60 C75.05636465255826 60, 16.909604305116517 60, -133.203125 60 M133.203125 60 C53.96454073659969 60, -25.274043526800625 60, -133.203125 60 M-133.203125 60 C-133.203125 14.98010746328842, -133.203125 -30.03978507342316, -133.203125 -60 M-133.203125 60 C-133.203125 22.53747654166054, -133.203125 -14.925046916678923, -133.203125 -60" stroke="#9370DB" stroke-width="1.3" fill="none" stroke-dasharray="0 0" style=""/></g><g class="annotation-group text" transform="translate(0, -36)"/><g class="label-group text" transform="translate(-89.125, -36)"><g class="label" style="font-weight: bolder" transform="translate(0,-12)"><foreignObject width="178.25" height="24"><div xmlns="http://www.w3.org/1999/xhtml" style="display: table-cell; white-space: nowrap; line-height: 1.5; max-width: 203px; text-align: center;"><span class="nodeLabel markdown-node-label" style=""><p>PaymentIntentResource</p></span></div></foreignObject></g></g><g class="members-group text" transform="translate(-121.203125, 12)"><g class="label" style="" transform="translate(0,-12)"><foreignObject width="153.28125" height="24"><div xmlns="http://www.w3.org/1999/xhtml" style="display: table-cell; white-space: nowrap; line-height: 1.5; max-width: 189px; text-align: center;"><span class="nodeLabel markdown-node-label" style=""><p>+client_secret: string</p></span></div></foreignObject></g></g><g class="methods-group text" transform="translate(-121.203125, 60)"/><g class="divider" style=""><path d="M-133.203125 -12 C-73.55152777156944 -12, -13.899930543138879 -12, 133.203125 -12 M-133.203125 -12 C-51.62148771940015 -12, 29.9601495611997 -12, 133.203125 -12" stroke="#9370DB" stroke-width="1.3" fill="none" stroke-dasharray="0 0" style=""/></g><g class="divider" style=""><path d="M-133.203125 36 C-32.38382351877625 36, 68.4354779624475 36, 133.203125 36 M-133.203125 36 C-55.90787648195246 36, 21.387372036095087 36, 133.203125 36" stroke="#9370DB" stroke-width="1.3" fill="none" stroke-dasharray="0 0" style=""/></g></g><g class="node default" id="classId-BillingGateway-2" transform="translate(533.52734375, 341)"><g class="basic label-container"><path d="M-67.1953125 -42 L67.1953125 -42 L67.1953125 42 L-67.1953125 42" stroke="none" stroke-width="0" fill="#ECECFF" style=""/><path d="M-67.1953125 -42 C-29.76773424886958 -42, 7.65984400226084 -42, 67.1953125 -42 M-67.1953125 -42 C-28.343033443157047 -42, 10.509245613685906 -42, 67.1953125 -42 M67.1953125 -42 C67.1953125 -11.319282260678378, 67.1953125 19.361435478643244, 67.1953125 42 M67.1953125 -42 C67.1953125 -16.68608404315767, 67.1953125 8.627831913684659, 67.1953125 42 M67.1953125 42 C29.38131193662329 42, -8.432688626753418 42, -67.1953125 42 M67.1953125 42 C22.894898690154513 42, -21.405515119690975 42, -67.1953125 42 M-67.1953125 42 C-67.1953125 10.670407870312903, -67.1953125 -20.659184259374193, -67.1953125 -42 M-67.1953125 42 C-67.1953125 16.46963086595853, -67.1953125 -9.060738268082943, -67.1953125 -42" stroke="#9370DB" stroke-width="1.3" fill="none" stroke-dasharray="0 0" style=""/></g><g class="annotation-group text" transform="translate(0, -18)"/><g class="label-group text" transform="translate(-55.1953125, -18)"><g class="label" style="font-weight: bolder" transform="translate(0,-12)"><foreignObject width="110.390625" height="24"><div xmlns="http://www.w3.org/1999/xhtml" style="display: table-cell; white-space: nowrap; line-height: 1.5; max-width: 151px; text-align: center;"><span class="nodeLabel markdown-node-label" style=""><p>BillingGateway</p></span></div></foreignObject></g></g><g class="members-group text" transform="translate(-55.1953125, 30)"/><g class="methods-group text" transform="translate(-55.1953125, 60)"/><g class="divider" style=""><path d="M-67.1953125 6 C-19.566591812432065 6, 28.06212887513587 6, 67.1953125 6 M-67.1953125 6 C-15.578744879811666 6, 36.03782274037667 6, 67.1953125 6" stroke="#9370DB" stroke-width="1.3" fill="none" stroke-dasharray="0 0" style=""/></g><g class="divider" style=""><path d="M-67.1953125 24 C-20.472679343969332 24, 26.249953812061335 24, 67.1953125 24 M-67.1953125 24 C-20.689304497546473 24, 25.816703504907053 24, 67.1953125 24" stroke="#9370DB" stroke-width="1.3" fill="none" stroke-dasharray="0 0" style=""/></g></g></g></g></g><text text-anchor="middle" x="304.361328125" y="-25" class="classDiagramTitleText">Infrastructure - Billing</text></svg>