<svg id="my-svg" width="100%" xmlns="http://www.w3.org/2000/svg" xmlns:xlink="http://www.w3.org/1999/xlink" class="classDiagram" style="max-width: 487.117px; background-color: transparent;" viewBox="-8 -48 487.1171875 1392" role="graphics-document document" aria-roledescription="class"><style>#my-svg{font-family:"trebuchet ms",verdana,arial,sans-serif;font-size:16px;fill:#333;}@keyframes edge-animation-frame{from{stroke-dashoffset:0;}}@keyframes dash{to{stroke-dashoffset:0;}}#my-svg .edge-animation-slow{stroke-dasharray:9,5!important;stroke-dashoffset:900;animation:dash 50s linear infinite;stroke-linecap:round;}#my-svg .edge-animation-fast{stroke-dasharray:9,5!important;stroke-dashoffset:900;animation:dash 20s linear infinite;stroke-linecap:round;}#my-svg .error-icon{fill:#552222;}#my-svg .error-text{fill:#552222;stroke:#552222;}#my-svg .edge-thickness-normal{stroke-width:1px;}#my-svg .edge-thickness-thick{stroke-width:3.5px;}#my-svg .edge-pattern-solid{stroke-dasharray:0;}#my-svg .edge-thickness-invisible{stroke-width:0;fill:none;}#my-svg .edge-pattern-dashed{stroke-dasharray:3;}#my-svg .edge-pattern-dotted{stroke-dasharray:2;}#my-svg .marker{fill:#333333;stroke:#333333;}#my-svg .marker.cross{stroke:#333333;}#my-svg svg{font-family:"trebuchet ms",verdana,arial,sans-serif;font-size:16px;}#my-svg p{margin:0;}#my-svg g.classGroup text{fill:#9370DB;stroke:none;font-family:"trebuchet ms",verdana,arial,sans-serif;font-size:10px;}#my-svg g.classGroup text .title{font-weight:bolder;}#my-svg .nodeLabel,#my-svg .edgeLabel{color:#131300;}#my-svg .edgeLabel .label rect{fill:#ECECFF;}#my-svg .label text{fill:#131300;}#my-svg .labelBkg{background:#ECECFF;}#my-svg .edgeLabel .label span{background:#ECECFF;}#my-svg .classTitle{font-weight:bolder;}#my-svg .node rect,#my-svg .node circle,#my-svg .node ellipse,#my-svg .node polygon,#my-svg .node path{fill:#ECECFF;stroke:#9370DB;stroke-width:1px;}#my-svg .divider{stroke:#9370DB;stroke-width:1;}#my-svg g.clickable{cursor:pointer;}#my-svg g.classGroup rect{fill:#ECECFF;stroke:#9370DB;}#my-svg g.classGroup line{stroke:#9370DB;stroke-width:1;}#my-svg .classLabel .box{stroke:none;stroke-width:0;fill:#ECECFF;opacity:0.5;}#my-svg .classLabel .label{fill:#9370DB;font-size:10px;}#my-svg .relation{stroke:#333333;stroke-width:1;fill:none;}#my-svg .dashed-line{stroke-dasharray:3;}#my-svg .dotted-line{stroke-dasharray:1 2;}#my-svg #compositionStart,#my-svg .composition{fill:#333333!important;stroke:#333333!important;stroke-width:1;}#my-svg #compositionEnd,#my-svg .composition{fill:#333333!important;stroke:#333333!important;stroke-width:1;}#my-svg #dependencyStart,#my-svg .dependency{fill:#333333!important;stroke:#333333!important;stroke-width:1;}#my-svg #dependencyStart,#my-svg .dependency{fill:#333333!important;stroke:#333333!important;stroke-width:1;}#my-svg #extensionStart,#my-svg .extension{fill:transparent!important;stroke:#333333!important;stroke-width:1;}#my-svg #extensionEnd,#my-svg .extension{fill:transparent!important;stroke:#333333!important;stroke-width:1;}#my-svg #aggregationStart,#my-svg .aggregation{fill:transparent!important;stroke:#333333!important;stroke-width:1;}#my-svg #aggregationEnd,#my-svg .aggregation{fill:transparent!important;stroke:#333333!important;stroke-width:1;}#my-svg #lollipopStart,#my-svg .lollipop{fill:#ECECFF!important;stroke:#333333!important;stroke-width:1;}#my-svg #lollipopEnd,#my-svg .lollipop{fill:#ECECFF!important;stroke:#333333!important;stroke-width:1;}#my-svg .edgeTerminals{font-size:11px;line-height:initial;}#my-svg .classTitleText{text-anchor:middle;font-size:18px;fill:#333;}#my-svg .label-icon{display:inline-block;height:1em;overflow:visible;vertical-align:-0.125em;}#my-svg .node .label-icon path{fill:currentColor;stroke:revert;stroke-width:revert;}#my-svg :root{--mermaid-font-family:"trebuchet ms",verdana,arial,sans-serif;}</style><g><defs><marker id="my-svg_class-aggregationStart" class="marker aggregation class" refX="18" refY="7" markerWidth="190" markerHeight="240" orient="auto"><path d="M 18,7 L9,13 L1,7 L9,1 Z"/></marker></defs><defs><marker id="my-svg_class-aggregationEnd" class="marker aggregation class" refX="1" refY="7" markerWidth="20" markerHeight="28" orient="auto"><path d="M 18,7 L9,13 L1,7 L9,1 Z"/></marker></defs><defs><marker id="my-svg_class-extensionStart" class="marker extension class" refX="18" refY="7" markerWidth="190" markerHeight="240" orient="auto"><path d="M 1,7 L18,13 V 1 Z"/></marker></defs><defs><marker id="my-svg_class-extensionEnd" class="marker extension class" refX="1" refY="7" markerWidth="20" markerHeight="28" orient="auto"><path d="M 1,1 V 13 L18,7 Z"/></marker></defs><defs><marker id="my-svg_class-compositionStart" class="marker composition class" refX="18" refY="7" markerWidth="190" markerHeight="240" orient="auto"><path d="M 18,7 L9,13 L1,7 L9,1 Z"/></marker></defs><defs><marker id="my-svg_class-compositionEnd" class="marker composition class" refX="1" refY="7" markerWidth="20" markerHeight="28" orient="auto"><path d="M 18,7 L9,13 L1,7 L9,1 Z"/></marker></defs><defs><marker id="my-svg_class-dependencyStart" class="marker dependency class" refX="6" refY="7" markerWidth="190" markerHeight="240" orient="auto"><path d="M 5,7 L9,13 L1,7 L9,1 Z"/></marker></defs><defs><marker id="my-svg_class-dependencyEnd" class="marker dependency class" refX="13" refY="7" markerWidth="20" markerHeight="28" orient="auto"><path d="M 18,7 L9,13 L14,7 L9,1 Z"/></marker></defs><defs><marker id="my-svg_class-lollipopStart" class="marker lollipop class" refX="13" refY="7" markerWidth="190" markerHeight="240" orient="auto"><circle stroke="black" fill="transparent" cx="7" cy="7" r="6"/></marker></defs><defs><marker id="my-svg_class-lollipopEnd" class="marker lollipop class" refX="1" refY="7" markerWidth="190" markerHeight="240" orient="auto"><circle stroke="black" fill="transparent" cx="7" cy="7" r="6"/></marker></defs><g class="root"><g class="clusters"/><g class="edgePaths"/><g class="edgeLabels"/><g class="nodes"><g class="root" transform="translate(-8, 0)"><g class="clusters"><g class="cluster undefined" data-look="classic"><rect style="fill:none !important;stroke:black !important" x="8" y="8" width="471.1171875" height="1328"/><g class="cluster-label" transform="translate(217.30859375, 8)"><foreignObject width="52.5" height="24"><div xmlns="http://www.w3.org/1999/xhtml" style="display: table-cell; white-space: nowrap; line-height: 1.5; max-width: 200px; text-align: center;"><span class="nodeLabel"><p>domain</p></span></div></foreignObject></g></g></g><g class="edgePaths"/><g class="edgeLabels"/><g class="nodes"><g class="node default" id="classId-AuthCommandService-0" transform="translate(243.55859375, 130)"><g class="basic label-container"><path d="M-146.00390625 -87 L146.00390625 -87 L146.00390625 87 L-146.00390625 87" stroke="none" stroke-width="0" fill="#ECECFF" style=""/><path d="M-146.00390625 -87 C-50.715071257837224 -87, 44.57376373432555 -87, 146.00390625 -87 M-146.00390625 -87 C-67.01484251013646 -87, 11.974221229727078 -87, 146.00390625 -87 M146.00390625 -87 C146.00390625 -46.686863019398174, 146.00390625 -6.373726038796349, 146.00390625 87 M146.00390625 -87 C146.00390625 -20.650870077175753, 146.00390625 45.698259845648494, 146.00390625 87 M146.00390625 87 C72.80833846112533 87, -0.3872293277493384 87, -146.00390625 87 M146.00390625 87 C56.14420896899175 87, -33.715488312016504 87, -146.00390625 87 M-146.00390625 87 C-146.00390625 49.16830064081104, -146.00390625 11.33660128162208, -146.00390625 -87 M-146.00390625 87 C-146.00390625 24.402100370293297, -146.00390625 -38.195799259413405, -146.00390625 -87" stroke="#9370DB" stroke-width="1.3" fill="none" stroke-dasharray="0 0" style=""/></g><g class="annotation-group text" transform="translate(-41.171875, -63)"><g class="label" style="" transform="translate(0,-12)"><foreignObject width="82.34375" height="24"><div xmlns="http://www.w3.org/1999/xhtml" style="display: table-cell; white-space: nowrap; line-height: 1.5; max-width: 122px; text-align: center;"><span class="nodeLabel markdown-node-label" style=""><p>«interface»</p></span></div></foreignObject></g></g><g class="label-group text" transform="translate(-82.1640625, -39)"><g class="label" style="font-weight: bolder" transform="translate(0,-12)"><foreignObject width="164.328125" height="24"><div xmlns="http://www.w3.org/1999/xhtml" style="display: table-cell; white-space: nowrap; line-height: 1.5; max-width: 197px; text-align: center;"><span class="nodeLabel markdown-node-label" style=""><p>AuthCommandService</p></span></div></foreignObject></g></g><g class="members-group text" transform="translate(-134.00390625, 9)"/><g class="methods-group text" transform="translate(-134.00390625, 39)"><g class="label" style="" transform="translate(0,-12)"><foreignObject width="179.75" height="24"><div xmlns="http://www.w3.org/1999/xhtml" style="display: table-cell; white-space: nowrap; line-height: 1.5; max-width: 223px; text-align: center;"><span class="nodeLabel markdown-node-label" style=""><p>+handleSignIn(command)</p></span></div></foreignObject></g><g class="label" style="" transform="translate(0,12)"><foreignObject width="185.84375" height="24"><div xmlns="http://www.w3.org/1999/xhtml" style="display: table-cell; white-space: nowrap; line-height: 1.5; max-width: 229px; text-align: center;"><span class="nodeLabel markdown-node-label" style=""><p>+handleSignUp(command)</p></span></div></foreignObject></g></g><g class="divider" style=""><path d="M-146.00390625 -15 C-40.510490355113916 -15, 64.98292553977217 -15, 146.00390625 -15 M-146.00390625 -15 C-83.7916957566305 -15, -21.57948526326102 -15, 146.00390625 -15" stroke="#9370DB" stroke-width="1.3" fill="none" stroke-dasharray="0 0" style=""/></g><g class="divider" style=""><path d="M-146.00390625 9 C-59.19091980404397 9, 27.622066641912056 9, 146.00390625 9 M-146.00390625 9 C-84.90280186669861 9, -23.801697483397234 9, 146.00390625 9" stroke="#9370DB" stroke-width="1.3" fill="none" stroke-dasharray="0 0" style=""/></g></g><g class="node default" id="classId-AuthQueryService-1" transform="translate(243.55859375, 342)"><g class="basic label-container"><path d="M-142.015625 -75 L142.015625 -75 L142.015625 75 L-142.015625 75" stroke="none" stroke-width="0" fill="#ECECFF" style=""/><path d="M-142.015625 -75 C-45.64721232167315 -75, 50.721200356653696 -75, 142.015625 -75 M-142.015625 -75 C-55.60467050038416 -75, 30.80628399923168 -75, 142.015625 -75 M142.015625 -75 C142.015625 -19.72930765957456, 142.015625 35.54138468085088, 142.015625 75 M142.015625 -75 C142.015625 -28.19789921515742, 142.015625 18.60420156968516, 142.015625 75 M142.015625 75 C39.81599679329145 75, -62.383631413417106 75, -142.015625 75 M142.015625 75 C52.45488341989173 75, -37.10585816021654 75, -142.015625 75 M-142.015625 75 C-142.015625 40.98177071149075, -142.015625 6.963541422981507, -142.015625 -75 M-142.015625 75 C-142.015625 36.144013187811034, -142.015625 -2.711973624377933, -142.015625 -75" stroke="#9370DB" stroke-width="1.3" fill="none" stroke-dasharray="0 0" style=""/></g><g class="annotation-group text" transform="translate(-41.171875, -51)"><g class="label" style="" transform="translate(0,-12)"><foreignObject width="82.34375" height="24"><div xmlns="http://www.w3.org/1999/xhtml" style="display: table-cell; white-space: nowrap; line-height: 1.5; max-width: 122px; text-align: center;"><span class="nodeLabel markdown-node-label" style=""><p>«interface»</p></span></div></foreignObject></g></g><g class="label-group text" transform="translate(-68.046875, -27)"><g class="label" style="font-weight: bolder" transform="translate(0,-12)"><foreignObject width="136.09375" height="24"><div xmlns="http://www.w3.org/1999/xhtml" style="display: table-cell; white-space: nowrap; line-height: 1.5; max-width: 170px; text-align: center;"><span class="nodeLabel markdown-node-label" style=""><p>AuthQueryService</p></span></div></foreignObject></g></g><g class="members-group text" transform="translate(-130.015625, 21)"/><g class="methods-group text" transform="translate(-130.015625, 51)"><g class="label" style="" transform="translate(0,-12)"><foreignObject width="191.984375" height="24"><div xmlns="http://www.w3.org/1999/xhtml" style="display: table-cell; white-space: nowrap; line-height: 1.5; max-width: 233px; text-align: center;"><span class="nodeLabel markdown-node-label" style=""><p>+handleVerifyToken(query)</p></span></div></foreignObject></g></g><g class="divider" style=""><path d="M-142.015625 -3 C-50.93473544974901 -3, 40.146154100501974 -3, 142.015625 -3 M-142.015625 -3 C-72.11860505082815 -3, -2.221585101656302 -3, 142.015625 -3" stroke="#9370DB" stroke-width="1.3" fill="none" stroke-dasharray="0 0" style=""/></g><g class="divider" style=""><path d="M-142.015625 21 C-81.9452588177002 21, -21.874892635400414 21, 142.015625 21 M-142.015625 21 C-68.3077162834524 21, 5.400192433095214 21, 142.015625 21" stroke="#9370DB" stroke-width="1.3" fill="none" stroke-dasharray="0 0" style=""/></g></g><g class="node default" id="classId-AuthGateway-2" transform="translate(243.55859375, 566)"><g class="basic label-container"><path d="M-148.28515625 -99 L148.28515625 -99 L148.28515625 99 L-148.28515625 99" stroke="none" stroke-width="0" fill="#ECECFF" style=""/><path d="M-148.28515625 -99 C-55.52251148036031 -99, 37.240133289279385 -99, 148.28515625 -99 M-148.28515625 -99 C-81.87616236666007 -99, -15.467168483320137 -99, 148.28515625 -99 M148.28515625 -99 C148.28515625 -22.024187733051903, 148.28515625 54.951624533896194, 148.28515625 99 M148.28515625 -99 C148.28515625 -25.494302433565494, 148.28515625 48.01139513286901, 148.28515625 99 M148.28515625 99 C45.17083048089424 99, -57.94349528821152 99, -148.28515625 99 M148.28515625 99 C37.399740222599235 99, -73.48567580480153 99, -148.28515625 99 M-148.28515625 99 C-148.28515625 48.3361304520518, -148.28515625 -2.327739095896405, -148.28515625 -99 M-148.28515625 99 C-148.28515625 28.44574767712011, -148.28515625 -42.10850464575978, -148.28515625 -99" stroke="#9370DB" stroke-width="1.3" fill="none" stroke-dasharray="0 0" style=""/></g><g class="annotation-group text" transform="translate(-41.171875, -75)"><g class="label" style="" transform="translate(0,-12)"><foreignObject width="82.34375" height="24"><div xmlns="http://www.w3.org/1999/xhtml" style="display: table-cell; white-space: nowrap; line-height: 1.5; max-width: 122px; text-align: center;"><span class="nodeLabel markdown-node-label" style=""><p>«interface»</p></span></div></foreignObject></g></g><g class="label-group text" transform="translate(-49.9140625, -51)"><g class="label" style="font-weight: bolder" transform="translate(0,-12)"><foreignObject width="99.828125" height="24"><div xmlns="http://www.w3.org/1999/xhtml" style="display: table-cell; white-space: nowrap; line-height: 1.5; max-width: 139px; text-align: center;"><span class="nodeLabel markdown-node-label" style=""><p>AuthGateway</p></span></div></foreignObject></g></g><g class="members-group text" transform="translate(-136.28515625, -3)"/><g class="methods-group text" transform="translate(-136.28515625, 27)"><g class="label" style="" transform="translate(0,-12)"><foreignObject width="122.765625" height="24"><div xmlns="http://www.w3.org/1999/xhtml" style="display: table-cell; white-space: nowrap; line-height: 1.5; max-width: 168px; text-align: center;"><span class="nodeLabel markdown-node-label" style=""><p>+signIn(resource)</p></span></div></foreignObject></g><g class="label" style="" transform="translate(0,12)"><foreignObject width="128.859375" height="24"><div xmlns="http://www.w3.org/1999/xhtml" style="display: table-cell; white-space: nowrap; line-height: 1.5; max-width: 175px; text-align: center;"><span class="nodeLabel markdown-node-label" style=""><p>+signUp(resource)</p></span></div></foreignObject></g><g class="label" style="" transform="translate(0,36)"><foreignObject width="222.65625" height="24"><div xmlns="http://www.w3.org/1999/xhtml" style="display: table-cell; white-space: nowrap; line-height: 1.5; max-width: 257px; text-align: center;"><span class="nodeLabel markdown-node-label" style=""><p>+confirmRegistration(resource)</p></span></div></foreignObject></g></g><g class="divider" style=""><path d="M-148.28515625 -27 C-64.00629876861994 -27, 20.272558712760116 -27, 148.28515625 -27 M-148.28515625 -27 C-61.4127788031154 -27, 25.459598643769198 -27, 148.28515625 -27" stroke="#9370DB" stroke-width="1.3" fill="none" stroke-dasharray="0 0" style=""/></g><g class="divider" style=""><path d="M-148.28515625 -3 C-72.20999130310362 -3, 3.865173643792758 -3, 148.28515625 -3 M-148.28515625 -3 C-54.73752472784007 -3, 38.810106794319864 -3, 148.28515625 -3" stroke="#9370DB" stroke-width="1.3" fill="none" stroke-dasharray="0 0" style=""/></g></g><g class="node default" id="classId-TokenStorageGateway-3" transform="translate(243.55859375, 814)"><g class="basic label-container"><path d="M-198.05859375 -99 L198.05859375 -99 L198.05859375 99 L-198.05859375 99" stroke="none" stroke-width="0" fill="#ECECFF" style=""/><path d="M-198.05859375 -99 C-108.07329047961113 -99, -18.087987209222263 -99, 198.05859375 -99 M-198.05859375 -99 C-64.44233259917169 -99, 69.17392855165662 -99, 198.05859375 -99 M198.05859375 -99 C198.05859375 -56.610852779204386, 198.05859375 -14.221705558408772, 198.05859375 99 M198.05859375 -99 C198.05859375 -24.42586721458852, 198.05859375 50.14826557082296, 198.05859375 99 M198.05859375 99 C57.91307559614776 99, -82.23244255770447 99, -198.05859375 99 M198.05859375 99 C92.82568680733566 99, -12.407220135328686 99, -198.05859375 99 M-198.05859375 99 C-198.05859375 42.32788269249042, -198.05859375 -14.344234615019161, -198.05859375 -99 M-198.05859375 99 C-198.05859375 50.665045690396205, -198.05859375 2.3300913807924104, -198.05859375 -99" stroke="#9370DB" stroke-width="1.3" fill="none" stroke-dasharray="0 0" style=""/></g><g class="annotation-group text" transform="translate(-41.171875, -75)"><g class="label" style="" transform="translate(0,-12)"><foreignObject width="82.34375" height="24"><div xmlns="http://www.w3.org/1999/xhtml" style="display: table-cell; white-space: nowrap; line-height: 1.5; max-width: 122px; text-align: center;"><span class="nodeLabel markdown-node-label" style=""><p>«interface»</p></span></div></foreignObject></g></g><g class="label-group text" transform="translate(-82.1328125, -51)"><g class="label" style="font-weight: bolder" transform="translate(0,-12)"><foreignObject width="164.265625" height="24"><div xmlns="http://www.w3.org/1999/xhtml" style="display: table-cell; white-space: nowrap; line-height: 1.5; max-width: 196px; text-align: center;"><span class="nodeLabel markdown-node-label" style=""><p>TokenStorageGateway</p></span></div></foreignObject></g></g><g class="members-group text" transform="translate(-186.05859375, -3)"/><g class="methods-group text" transform="translate(-186.05859375, 27)"><g class="label" style="" transform="translate(0,-12)"><foreignObject width="289.984375" height="24"><div xmlns="http://www.w3.org/1999/xhtml" style="display: table-cell; white-space: nowrap; line-height: 1.5; max-width: 321px; text-align: center;"><span class="nodeLabel markdown-node-label" style=""><p>+saveTokens(accessToken, refreshToken)</p></span></div></foreignObject></g><g class="label" style="" transform="translate(0,12)"><foreignObject width="131.625" height="24"><div xmlns="http://www.w3.org/1999/xhtml" style="display: table-cell; white-space: nowrap; line-height: 1.5; max-width: 179px; text-align: center;"><span class="nodeLabel markdown-node-label" style=""><p>+getAccessToken()</p></span></div></foreignObject></g><g class="label" style="" transform="translate(0,36)"><foreignObject width="104.03125" height="24"><div xmlns="http://www.w3.org/1999/xhtml" style="display: table-cell; white-space: nowrap; line-height: 1.5; max-width: 151px; text-align: center;"><span class="nodeLabel markdown-node-label" style=""><p>+clearTokens()</p></span></div></foreignObject></g></g><g class="divider" style=""><path d="M-198.05859375 -27 C-90.3433465682079 -27, 17.371900613584188 -27, 198.05859375 -27 M-198.05859375 -27 C-95.53274283794737 -27, 6.993108074105265 -27, 198.05859375 -27" stroke="#9370DB" stroke-width="1.3" fill="none" stroke-dasharray="0 0" style=""/></g><g class="divider" style=""><path d="M-198.05859375 -3 C-98.30368462185993 -3, 1.4512245062801412 -3, 198.05859375 -3 M-198.05859375 -3 C-93.76032048292954 -3, 10.537952784140913 -3, 198.05859375 -3" stroke="#9370DB" stroke-width="1.3" fill="none" stroke-dasharray="0 0" style=""/></g></g><g class="node default" id="classId-SignInCommand-4" transform="translate(243.55859375, 1035)"><g class="basic label-container"><path d="M-116.5546875 -72 L116.5546875 -72 L116.5546875 72 L-116.5546875 72" stroke="none" stroke-width="0" fill="#ECECFF" style=""/><path d="M-116.5546875 -72 C-46.36305014171245 -72, 23.8285872165751 -72, 116.5546875 -72 M-116.5546875 -72 C-68.5527705596142 -72, -20.55085361922839 -72, 116.5546875 -72 M116.5546875 -72 C116.5546875 -42.5581362344786, 116.5546875 -13.116272468957206, 116.5546875 72 M116.5546875 -72 C116.5546875 -32.56886563016798, 116.5546875 6.862268739664046, 116.5546875 72 M116.5546875 72 C56.86431603174744 72, -2.826055436505115 72, -116.5546875 72 M116.5546875 72 C61.82977253782184 72, 7.104857575643678 72, -116.5546875 72 M-116.5546875 72 C-116.5546875 32.73825918561113, -116.5546875 -6.523481628777745, -116.5546875 -72 M-116.5546875 72 C-116.5546875 18.089945230916427, -116.5546875 -35.820109538167145, -116.5546875 -72" stroke="#9370DB" stroke-width="1.3" fill="none" stroke-dasharray="0 0" style=""/></g><g class="annotation-group text" transform="translate(0, -48)"/><g class="label-group text" transform="translate(-58.96875, -48)"><g class="label" style="font-weight: bolder" transform="translate(0,-12)"><foreignObject width="117.9375" height="24"><div xmlns="http://www.w3.org/1999/xhtml" style="display: table-cell; white-space: nowrap; line-height: 1.5; max-width: 160px; text-align: center;"><span class="nodeLabel markdown-node-label" style=""><p>SignInCommand</p></span></div></foreignObject></g></g><g class="members-group text" transform="translate(-104.5546875, 0)"><g class="label" style="" transform="translate(0,-12)"><foreignObject width="98.328125" height="24"><div xmlns="http://www.w3.org/1999/xhtml" style="display: table-cell; white-space: nowrap; line-height: 1.5; max-width: 146px; text-align: center;"><span class="nodeLabel markdown-node-label" style=""><p>+email: Email</p></span></div></foreignObject></g><g class="label" style="" transform="translate(0,12)"><foreignObject width="150.140625" height="24"><div xmlns="http://www.w3.org/1999/xhtml" style="display: table-cell; white-space: nowrap; line-height: 1.5; max-width: 195px; text-align: center;"><span class="nodeLabel markdown-node-label" style=""><p>+password: Password</p></span></div></foreignObject></g></g><g class="methods-group text" transform="translate(-104.5546875, 72)"/><g class="divider" style=""><path d="M-116.5546875 -24 C-26.375076926438794 -24, 63.80453364712241 -24, 116.5546875 -24 M-116.5546875 -24 C-43.0229543765203 -24, 30.508778746959393 -24, 116.5546875 -24" stroke="#9370DB" stroke-width="1.3" fill="none" stroke-dasharray="0 0" style=""/></g><g class="divider" style=""><path d="M-116.5546875 48 C-63.42592149467937 48, -10.297155489358744 48, 116.5546875 48 M-116.5546875 48 C-31.8233110732903 48, 52.9080653534194 48, 116.5546875 48" stroke="#9370DB" stroke-width="1.3" fill="none" stroke-dasharray="0 0" style=""/></g></g><g class="node default" id="classId-SignUpCommand-5" transform="translate(243.55859375, 1229)"><g class="basic label-container"><path d="M-118.12109375 -72 L118.12109375 -72 L118.12109375 72 L-118.12109375 72" stroke="none" stroke-width="0" fill="#ECECFF" style=""/><path d="M-118.12109375 -72 C-28.77933006734237 -72, 60.56243361531526 -72, 118.12109375 -72 M-118.12109375 -72 C-27.256506459410843 -72, 63.60808083117831 -72, 118.12109375 -72 M118.12109375 -72 C118.12109375 -33.89238107744834, 118.12109375 4.215237845103317, 118.12109375 72 M118.12109375 -72 C118.12109375 -27.781033701249434, 118.12109375 16.43793259750113, 118.12109375 72 M118.12109375 72 C68.27269699710041 72, 18.424300244200836 72, -118.12109375 72 M118.12109375 72 C57.553154364474416 72, -3.0147850210511677 72, -118.12109375 72 M-118.12109375 72 C-118.12109375 19.149353242064002, -118.12109375 -33.701293515871996, -118.12109375 -72 M-118.12109375 72 C-118.12109375 28.882414626748, -118.12109375 -14.235170746503996, -118.12109375 -72" stroke="#9370DB" stroke-width="1.3" fill="none" stroke-dasharray="0 0" style=""/></g><g class="annotation-group text" transform="translate(0, -48)"/><g class="label-group text" transform="translate(-62.1015625, -48)"><g class="label" style="font-weight: bolder" transform="translate(0,-12)"><foreignObject width="124.203125" height="24"><div xmlns="http://www.w3.org/1999/xhtml" style="display: table-cell; white-space: nowrap; line-height: 1.5; max-width: 167px; text-align: center;"><span class="nodeLabel markdown-node-label" style=""><p>SignUpCommand</p></span></div></foreignObject></g></g><g class="members-group text" transform="translate(-106.12109375, 0)"><g class="label" style="" transform="translate(0,-12)"><foreignObject width="98.328125" height="24"><div xmlns="http://www.w3.org/1999/xhtml" style="display: table-cell; white-space: nowrap; line-height: 1.5; max-width: 146px; text-align: center;"><span class="nodeLabel markdown-node-label" style=""><p>+email: Email</p></span></div></foreignObject></g><g class="label" style="" transform="translate(0,12)"><foreignObject width="150.140625" height="24"><div xmlns="http://www.w3.org/1999/xhtml" style="display: table-cell; white-space: nowrap; line-height: 1.5; max-width: 195px; text-align: center;"><span class="nodeLabel markdown-node-label" style=""><p>+password: Password</p></span></div></foreignObject></g></g><g class="methods-group text" transform="translate(-106.12109375, 72)"/><g class="divider" style=""><path d="M-118.12109375 -24 C-25.940712968155623 -24, 66.23966781368875 -24, 118.12109375 -24 M-118.12109375 -24 C-33.924227025032536 -24, 50.27263969993493 -24, 118.12109375 -24" stroke="#9370DB" stroke-width="1.3" fill="none" stroke-dasharray="0 0" style=""/></g><g class="divider" style=""><path d="M-118.12109375 48 C-65.09965629931959 48, -12.078218848639182 48, 118.12109375 48 M-118.12109375 48 C-37.92082171486791 48, 42.279450320264175 48, 118.12109375 48" stroke="#9370DB" stroke-width="1.3" fill="none" stroke-dasharray="0 0" style=""/></g></g></g></g></g></g></g><text text-anchor="middle" x="235.55859375" y="-25" class="classDiagramTitleText">Domain - IAM</text></svg>