<svg id="my-svg" width="100%" xmlns="http://www.w3.org/2000/svg" xmlns:xlink="http://www.w3.org/1999/xlink" class="classDiagram" style="max-width: 1182.68px; background-color: transparent;" viewBox="0 -48 1182.6796875 422" role="graphics-document document" aria-roledescription="class"><style>#my-svg{font-family:"trebuchet ms",verdana,arial,sans-serif;font-size:16px;fill:#333;}@keyframes edge-animation-frame{from{stroke-dashoffset:0;}}@keyframes dash{to{stroke-dashoffset:0;}}#my-svg .edge-animation-slow{stroke-dasharray:9,5!important;stroke-dashoffset:900;animation:dash 50s linear infinite;stroke-linecap:round;}#my-svg .edge-animation-fast{stroke-dasharray:9,5!important;stroke-dashoffset:900;animation:dash 20s linear infinite;stroke-linecap:round;}#my-svg .error-icon{fill:#552222;}#my-svg .error-text{fill:#552222;stroke:#552222;}#my-svg .edge-thickness-normal{stroke-width:1px;}#my-svg .edge-thickness-thick{stroke-width:3.5px;}#my-svg .edge-pattern-solid{stroke-dasharray:0;}#my-svg .edge-thickness-invisible{stroke-width:0;fill:none;}#my-svg .edge-pattern-dashed{stroke-dasharray:3;}#my-svg .edge-pattern-dotted{stroke-dasharray:2;}#my-svg .marker{fill:#333333;stroke:#333333;}#my-svg .marker.cross{stroke:#333333;}#my-svg svg{font-family:"trebuchet ms",verdana,arial,sans-serif;font-size:16px;}#my-svg p{margin:0;}#my-svg g.classGroup text{fill:#9370DB;stroke:none;font-family:"trebuchet ms",verdana,arial,sans-serif;font-size:10px;}#my-svg g.classGroup text .title{font-weight:bolder;}#my-svg .nodeLabel,#my-svg .edgeLabel{color:#131300;}#my-svg .edgeLabel .label rect{fill:#ECECFF;}#my-svg .label text{fill:#131300;}#my-svg .labelBkg{background:#ECECFF;}#my-svg .edgeLabel .label span{background:#ECECFF;}#my-svg .classTitle{font-weight:bolder;}#my-svg .node rect,#my-svg .node circle,#my-svg .node ellipse,#my-svg .node polygon,#my-svg .node path{fill:#ECECFF;stroke:#9370DB;stroke-width:1px;}#my-svg .divider{stroke:#9370DB;stroke-width:1;}#my-svg g.clickable{cursor:pointer;}#my-svg g.classGroup rect{fill:#ECECFF;stroke:#9370DB;}#my-svg g.classGroup line{stroke:#9370DB;stroke-width:1;}#my-svg .classLabel .box{stroke:none;stroke-width:0;fill:#ECECFF;opacity:0.5;}#my-svg .classLabel .label{fill:#9370DB;font-size:10px;}#my-svg .relation{stroke:#333333;stroke-width:1;fill:none;}#my-svg .dashed-line{stroke-dasharray:3;}#my-svg .dotted-line{stroke-dasharray:1 2;}#my-svg #compositionStart,#my-svg .composition{fill:#333333!important;stroke:#333333!important;stroke-width:1;}#my-svg #compositionEnd,#my-svg .composition{fill:#333333!important;stroke:#333333!important;stroke-width:1;}#my-svg #dependencyStart,#my-svg .dependency{fill:#333333!important;stroke:#333333!important;stroke-width:1;}#my-svg #dependencyStart,#my-svg .dependency{fill:#333333!important;stroke:#333333!important;stroke-width:1;}#my-svg #extensionStart,#my-svg .extension{fill:transparent!important;stroke:#333333!important;stroke-width:1;}#my-svg #extensionEnd,#my-svg .extension{fill:transparent!important;stroke:#333333!important;stroke-width:1;}#my-svg #aggregationStart,#my-svg .aggregation{fill:transparent!important;stroke:#333333!important;stroke-width:1;}#my-svg #aggregationEnd,#my-svg .aggregation{fill:transparent!important;stroke:#333333!important;stroke-width:1;}#my-svg #lollipopStart,#my-svg .lollipop{fill:#ECECFF!important;stroke:#333333!important;stroke-width:1;}#my-svg #lollipopEnd,#my-svg .lollipop{fill:#ECECFF!important;stroke:#333333!important;stroke-width:1;}#my-svg .edgeTerminals{font-size:11px;line-height:initial;}#my-svg .classTitleText{text-anchor:middle;font-size:18px;fill:#333;}#my-svg .label-icon{display:inline-block;height:1em;overflow:visible;vertical-align:-0.125em;}#my-svg .node .label-icon path{fill:currentColor;stroke:revert;stroke-width:revert;}#my-svg :root{--mermaid-font-family:"trebuchet ms",verdana,arial,sans-serif;}</style><g><defs><marker id="my-svg_class-aggregationStart" class="marker aggregation class" refX="18" refY="7" markerWidth="190" markerHeight="240" orient="auto"><path d="M 18,7 L9,13 L1,7 L9,1 Z"/></marker></defs><defs><marker id="my-svg_class-aggregationEnd" class="marker aggregation class" refX="1" refY="7" markerWidth="20" markerHeight="28" orient="auto"><path d="M 18,7 L9,13 L1,7 L9,1 Z"/></marker></defs><defs><marker id="my-svg_class-extensionStart" class="marker extension class" refX="18" refY="7" markerWidth="190" markerHeight="240" orient="auto"><path d="M 1,7 L18,13 V 1 Z"/></marker></defs><defs><marker id="my-svg_class-extensionEnd" class="marker extension class" refX="1" refY="7" markerWidth="20" markerHeight="28" orient="auto"><path d="M 1,1 V 13 L18,7 Z"/></marker></defs><defs><marker id="my-svg_class-compositionStart" class="marker composition class" refX="18" refY="7" markerWidth="190" markerHeight="240" orient="auto"><path d="M 18,7 L9,13 L1,7 L9,1 Z"/></marker></defs><defs><marker id="my-svg_class-compositionEnd" class="marker composition class" refX="1" refY="7" markerWidth="20" markerHeight="28" orient="auto"><path d="M 18,7 L9,13 L1,7 L9,1 Z"/></marker></defs><defs><marker id="my-svg_class-dependencyStart" class="marker dependency class" refX="6" refY="7" markerWidth="190" markerHeight="240" orient="auto"><path d="M 5,7 L9,13 L1,7 L9,1 Z"/></marker></defs><defs><marker id="my-svg_class-dependencyEnd" class="marker dependency class" refX="13" refY="7" markerWidth="20" markerHeight="28" orient="auto"><path d="M 18,7 L9,13 L14,7 L9,1 Z"/></marker></defs><defs><marker id="my-svg_class-lollipopStart" class="marker lollipop class" refX="13" refY="7" markerWidth="190" markerHeight="240" orient="auto"><circle stroke="black" fill="transparent" cx="7" cy="7" r="6"/></marker></defs><defs><marker id="my-svg_class-lollipopEnd" class="marker lollipop class" refX="1" refY="7" markerWidth="190" markerHeight="240" orient="auto"><circle stroke="black" fill="transparent" cx="7" cy="7" r="6"/></marker></defs><g class="root"><g class="clusters"><g class="cluster undefined" id="interfaces" data-look="classic"><rect style="fill:none !important;stroke:black !important" x="8" y="8" width="1166.6796875" height="200"/><g class="cluster-label" transform="translate(555.31640625, 8)"><foreignObject width="72.046875" height="24"><div xmlns="http://www.w3.org/1999/xhtml" style="display: table-cell; white-space: nowrap; line-height: 1.5; max-width: 200px; text-align: center;"><span class="nodeLabel"><p>interfaces</p></span></div></foreignObject></g></g></g><g class="edgePaths"><path d="M176.102,183L176.102,187.167C176.102,191.333,176.102,199.667,176.102,210C176.102,220.333,176.102,232.667,207.03,247.391C237.958,262.115,299.814,279.23,330.742,287.788L361.67,296.345" id="id_LoginPageComponent_AuthCommandService_1" class="edge-thickness-normal edge-pattern-solid relation" style=";;;" data-edge="true" data-et="edge" data-id="id_LoginPageComponent_AuthCommandService_1" data-points="W3sieCI6MTc2LjEwMTU2MjUsInkiOjE4M30seyJ4IjoxNzYuMTAxNTYyNSwieSI6MjA4fSx7IngiOjE3Ni4xMDE1NjI1LCJ5IjoyNDV9LHsieCI6MzY3LjQ1MzEyNSwieSI6Mjk3Ljk0NTUyMDcxMzYyMTJ9XQ==" marker-end="url(#my-svg_class-dependencyEnd)"/><path d="M461.617,171L461.617,177.167C461.617,183.333,461.617,195.667,461.617,208C461.617,220.333,461.617,232.667,461.617,244C461.617,255.333,461.617,265.667,461.617,270.833L461.617,276" id="id_RegisterPageComponent_AuthCommandService_2" class="edge-thickness-normal edge-pattern-solid relation" style=";;;" data-edge="true" data-et="edge" data-id="id_RegisterPageComponent_AuthCommandService_2" data-points="W3sieCI6NDYxLjYxNzE4NzUsInkiOjE3MX0seyJ4Ijo0NjEuNjE3MTg3NSwieSI6MjA4fSx7IngiOjQ2MS42MTcxODc1LCJ5IjoyNDV9LHsieCI6NDYxLjYxNzE4NzUsInkiOjI4Mn1d" marker-end="url(#my-svg_class-dependencyEnd)"/><path d="M718.043,171L718.043,177.167C718.043,183.333,718.043,195.667,718.043,208C718.043,220.333,718.043,232.667,691.955,246.871C665.867,261.074,613.691,277.149,587.603,285.186L561.515,293.223" id="id_ConfirmPageComponent_AuthCommandService_3" class="edge-thickness-normal edge-pattern-solid relation" style=";;;" data-edge="true" data-et="edge" data-id="id_ConfirmPageComponent_AuthCommandService_3" data-points="W3sieCI6NzE4LjA0Mjk2ODc1LCJ5IjoxNzF9LHsieCI6NzE4LjA0Mjk2ODc1LCJ5IjoyMDh9LHsieCI6NzE4LjA0Mjk2ODc1LCJ5IjoyNDV9LHsieCI6NTU1Ljc4MTI1LCJ5IjoyOTQuOTg5ODA4ODIwMTY5MX1d" marker-end="url(#my-svg_class-dependencyEnd)"/><path d="M1005.867,171L1005.867,177.167C1005.867,183.333,1005.867,195.667,1005.867,208C1005.867,220.333,1005.867,232.667,1005.867,244C1005.867,255.333,1005.867,265.667,1005.867,270.833L1005.867,276" id="id_AuthInterceptor_TokenStorageGateway_4" class="edge-thickness-normal edge-pattern-solid relation" style=";;;" data-edge="true" data-et="edge" data-id="id_AuthInterceptor_TokenStorageGateway_4" data-points="W3sieCI6MTAwNS44NjcxODc1LCJ5IjoxNzF9LHsieCI6MTAwNS44NjcxODc1LCJ5IjoyMDh9LHsieCI6MTAwNS44NjcxODc1LCJ5IjoyNDV9LHsieCI6MTAwNS44NjcxODc1LCJ5IjoyODJ9XQ==" marker-end="url(#my-svg_class-dependencyEnd)"/></g><g class="edgeLabels"><g class="edgeLabel" transform="translate(176.1015625, 245)"><g class="label" data-id="id_LoginPageComponent_AuthCommandService_1" transform="translate(-15.2109375, -12)"><foreignObject width="30.421875" height="24"><div xmlns="http://www.w3.org/1999/xhtml" class="labelBkg" style="display: table-cell; white-space: nowrap; line-height: 1.5; max-width: 200px; text-align: center;"><span class="edgeLabel"><p>uses</p></span></div></foreignObject></g></g><g class="edgeLabel" transform="translate(461.6171875, 245)"><g class="label" data-id="id_RegisterPageComponent_AuthCommandService_2" transform="translate(-15.2109375, -12)"><foreignObject width="30.421875" height="24"><div xmlns="http://www.w3.org/1999/xhtml" class="labelBkg" style="display: table-cell; white-space: nowrap; line-height: 1.5; max-width: 200px; text-align: center;"><span class="edgeLabel"><p>uses</p></span></div></foreignObject></g></g><g class="edgeLabel" transform="translate(718.04296875, 245)"><g class="label" data-id="id_ConfirmPageComponent_AuthCommandService_3" transform="translate(-15.2109375, -12)"><foreignObject width="30.421875" height="24"><div xmlns="http://www.w3.org/1999/xhtml" class="labelBkg" style="display: table-cell; white-space: nowrap; line-height: 1.5; max-width: 200px; text-align: center;"><span class="edgeLabel"><p>uses</p></span></div></foreignObject></g></g><g class="edgeLabel" transform="translate(1005.8671875, 245)"><g class="label" data-id="id_AuthInterceptor_TokenStorageGateway_4" transform="translate(-15.2109375, -12)"><foreignObject width="30.421875" height="24"><div xmlns="http://www.w3.org/1999/xhtml" class="labelBkg" style="display: table-cell; white-space: nowrap; line-height: 1.5; max-width: 200px; text-align: center;"><span class="edgeLabel"><p>uses</p></span></div></foreignObject></g></g></g><g class="nodes"><g class="node default" id="classId-LoginPageComponent-0" transform="translate(176.1015625, 108)"><g class="basic label-container"><path d="M-133.1015625 -75 L133.1015625 -75 L133.1015625 75 L-133.1015625 75" stroke="none" stroke-width="0" fill="#ECECFF" style=""/><path d="M-133.1015625 -75 C-57.29088486491737 -75, 18.519792770165253 -75, 133.1015625 -75 M-133.1015625 -75 C-76.98683619864183 -75, -20.87210989728365 -75, 133.1015625 -75 M133.1015625 -75 C133.1015625 -28.306716422565422, 133.1015625 18.386567154869155, 133.1015625 75 M133.1015625 -75 C133.1015625 -15.057495642895994, 133.1015625 44.88500871420801, 133.1015625 75 M133.1015625 75 C78.61647132153634 75, 24.131380143072676 75, -133.1015625 75 M133.1015625 75 C46.40798170006508 75, -40.28559909986984 75, -133.1015625 75 M-133.1015625 75 C-133.1015625 33.02211452873785, -133.1015625 -8.955770942524296, -133.1015625 -75 M-133.1015625 75 C-133.1015625 43.20756274506202, -133.1015625 11.415125490124048, -133.1015625 -75" stroke="#9370DB" stroke-width="1.3" fill="none" stroke-dasharray="0 0" style=""/></g><g class="annotation-group text" transform="translate(0, -51)"/><g class="label-group text" transform="translate(-79.96875, -51)"><g class="label" style="font-weight: bolder" transform="translate(0,-12)"><foreignObject width="159.9375" height="24"><div xmlns="http://www.w3.org/1999/xhtml" style="display: table-cell; white-space: nowrap; line-height: 1.5; max-width: 195px; text-align: center;"><span class="nodeLabel markdown-node-label" style=""><p>LoginPageComponent</p></span></div></foreignObject></g></g><g class="members-group text" transform="translate(-121.1015625, -3)"/><g class="methods-group text" transform="translate(-121.1015625, 27)"><g class="label" style="" transform="translate(0,-12)"><foreignObject width="79.703125" height="24"><div xmlns="http://www.w3.org/1999/xhtml" style="display: table-cell; white-space: nowrap; line-height: 1.5; max-width: 133px; text-align: center;"><span class="nodeLabel markdown-node-label" style=""><p>+onSignIn()</p></span></div></foreignObject></g><g class="label" style="" transform="translate(0,12)"><foreignObject width="162.234375" height="24"><div xmlns="http://www.w3.org/1999/xhtml" style="display: table-cell; white-space: nowrap; line-height: 1.5; max-width: 211px; text-align: center;"><span class="nodeLabel markdown-node-label" style=""><p>+onSignInWithGoogle()</p></span></div></foreignObject></g></g><g class="divider" style=""><path d="M-133.1015625 -27 C-67.18654416487757 -27, -1.2715258297551486 -27, 133.1015625 -27 M-133.1015625 -27 C-50.463281618497746 -27, 32.17499926300451 -27, 133.1015625 -27" stroke="#9370DB" stroke-width="1.3" fill="none" stroke-dasharray="0 0" style=""/></g><g class="divider" style=""><path d="M-133.1015625 -3 C-34.16093708120698 -3, 64.77968833758604 -3, 133.1015625 -3 M-133.1015625 -3 C-38.24981919655153 -3, 56.601924106896945 -3, 133.1015625 -3" stroke="#9370DB" stroke-width="1.3" fill="none" stroke-dasharray="0 0" style=""/></g></g><g class="node default" id="classId-RegisterPageComponent-1" transform="translate(461.6171875, 108)"><g class="basic label-container"><path d="M-102.4140625 -63 L102.4140625 -63 L102.4140625 63 L-102.4140625 63" stroke="none" stroke-width="0" fill="#ECECFF" style=""/><path d="M-102.4140625 -63 C-32.13851967713423 -63, 38.13702314573155 -63, 102.4140625 -63 M-102.4140625 -63 C-28.85093317931978 -63, 44.71219614136044 -63, 102.4140625 -63 M102.4140625 -63 C102.4140625 -13.185949925899223, 102.4140625 36.628100148201554, 102.4140625 63 M102.4140625 -63 C102.4140625 -16.580922324463486, 102.4140625 29.838155351073027, 102.4140625 63 M102.4140625 63 C38.61866123544659 63, -25.176740029106824 63, -102.4140625 63 M102.4140625 63 C27.32677098148183 63, -47.76052053703634 63, -102.4140625 63 M-102.4140625 63 C-102.4140625 31.676306606040093, -102.4140625 0.35261321208018614, -102.4140625 -63 M-102.4140625 63 C-102.4140625 35.35977723396307, -102.4140625 7.719554467926152, -102.4140625 -63" stroke="#9370DB" stroke-width="1.3" fill="none" stroke-dasharray="0 0" style=""/></g><g class="annotation-group text" transform="translate(0, -39)"/><g class="label-group text" transform="translate(-90.4140625, -39)"><g class="label" style="font-weight: bolder" transform="translate(0,-12)"><foreignObject width="180.828125" height="24"><div xmlns="http://www.w3.org/1999/xhtml" style="display: table-cell; white-space: nowrap; line-height: 1.5; max-width: 210px; text-align: center;"><span class="nodeLabel markdown-node-label" style=""><p>RegisterPageComponent</p></span></div></foreignObject></g></g><g class="members-group text" transform="translate(-90.4140625, 9)"/><g class="methods-group text" transform="translate(-90.4140625, 39)"><g class="label" style="" transform="translate(0,-12)"><foreignObject width="85.796875" height="24"><div xmlns="http://www.w3.org/1999/xhtml" style="display: table-cell; white-space: nowrap; line-height: 1.5; max-width: 139px; text-align: center;"><span class="nodeLabel markdown-node-label" style=""><p>+onSignUp()</p></span></div></foreignObject></g></g><g class="divider" style=""><path d="M-102.4140625 -15 C-20.56604204251208 -15, 61.28197841497584 -15, 102.4140625 -15 M-102.4140625 -15 C-36.659314880893305 -15, 29.09543273821339 -15, 102.4140625 -15" stroke="#9370DB" stroke-width="1.3" fill="none" stroke-dasharray="0 0" style=""/></g><g class="divider" style=""><path d="M-102.4140625 9 C-46.725952771600824 9, 8.962156956798353 9, 102.4140625 9 M-102.4140625 9 C-22.76234299559603 9, 56.88937650880794 9, 102.4140625 9" stroke="#9370DB" stroke-width="1.3" fill="none" stroke-dasharray="0 0" style=""/></g></g><g class="node default" id="classId-ConfirmPageComponent-2" transform="translate(718.04296875, 108)"><g class="basic label-container"><path d="M-104.01171875 -63 L104.01171875 -63 L104.01171875 63 L-104.01171875 63" stroke="none" stroke-width="0" fill="#ECECFF" style=""/><path d="M-104.01171875 -63 C-53.05149886627117 -63, -2.0912789825423346 -63, 104.01171875 -63 M-104.01171875 -63 C-41.42258385015809 -63, 21.166551049683818 -63, 104.01171875 -63 M104.01171875 -63 C104.01171875 -18.880850393863135, 104.01171875 25.23829921227373, 104.01171875 63 M104.01171875 -63 C104.01171875 -24.384819454970405, 104.01171875 14.23036109005919, 104.01171875 63 M104.01171875 63 C57.0638473786364 63, 10.115976007272806 63, -104.01171875 63 M104.01171875 63 C38.28816595059165 63, -27.435386848816705 63, -104.01171875 63 M-104.01171875 63 C-104.01171875 23.497756794934418, -104.01171875 -16.004486410131165, -104.01171875 -63 M-104.01171875 63 C-104.01171875 13.175793736229785, -104.01171875 -36.64841252754043, -104.01171875 -63" stroke="#9370DB" stroke-width="1.3" fill="none" stroke-dasharray="0 0" style=""/></g><g class="annotation-group text" transform="translate(0, -39)"/><g class="label-group text" transform="translate(-89.6796875, -39)"><g class="label" style="font-weight: bolder" transform="translate(0,-12)"><foreignObject width="179.359375" height="24"><div xmlns="http://www.w3.org/1999/xhtml" style="display: table-cell; white-space: nowrap; line-height: 1.5; max-width: 211px; text-align: center;"><span class="nodeLabel markdown-node-label" style=""><p>ConfirmPageComponent</p></span></div></foreignObject></g></g><g class="members-group text" transform="translate(-92.01171875, 9)"/><g class="methods-group text" transform="translate(-92.01171875, 39)"><g class="label" style="" transform="translate(0,-12)"><foreignObject width="94.34375" height="24"><div xmlns="http://www.w3.org/1999/xhtml" style="display: table-cell; white-space: nowrap; line-height: 1.5; max-width: 144px; text-align: center;"><span class="nodeLabel markdown-node-label" style=""><p>+onConfirm()</p></span></div></foreignObject></g></g><g class="divider" style=""><path d="M-104.01171875 -15 C-44.71684152089464 -15, 14.57803570821072 -15, 104.01171875 -15 M-104.01171875 -15 C-27.98301305354613 -15, 48.04569264290774 -15, 104.01171875 -15" stroke="#9370DB" stroke-width="1.3" fill="none" stroke-dasharray="0 0" style=""/></g><g class="divider" style=""><path d="M-104.01171875 9 C-60.44664414393597 9, -16.88156953787194 9, 104.01171875 9 M-104.01171875 9 C-30.595527156315626 9, 42.82066443736875 9, 104.01171875 9" stroke="#9370DB" stroke-width="1.3" fill="none" stroke-dasharray="0 0" style=""/></g></g><g class="node default" id="classId-AuthInterceptor-3" transform="translate(1005.8671875, 108)"><g class="basic label-container"><path d="M-133.8125 -63 L133.8125 -63 L133.8125 63 L-133.8125 63" stroke="none" stroke-width="0" fill="#ECECFF" style=""/><path d="M-133.8125 -63 C-35.647404449937355 -63, 62.51769110012529 -63, 133.8125 -63 M-133.8125 -63 C-43.32254103265252 -63, 47.16741793469495 -63, 133.8125 -63 M133.8125 -63 C133.8125 -17.995228124017594, 133.8125 27.009543751964813, 133.8125 63 M133.8125 -63 C133.8125 -29.87081625703594, 133.8125 3.258367485928119, 133.8125 63 M133.8125 63 C64.67090996245183 63, -4.47068007509634 63, -133.8125 63 M133.8125 63 C50.99262863669743 63, -31.827242726605135 63, -133.8125 63 M-133.8125 63 C-133.8125 16.53410778276978, -133.8125 -29.93178443446044, -133.8125 -63 M-133.8125 63 C-133.8125 21.209286696315054, -133.8125 -20.58142660736989, -133.8125 -63" stroke="#9370DB" stroke-width="1.3" fill="none" stroke-dasharray="0 0" style=""/></g><g class="annotation-group text" transform="translate(0, -39)"/><g class="label-group text" transform="translate(-60.3125, -39)"><g class="label" style="font-weight: bolder" transform="translate(0,-12)"><foreignObject width="120.625" height="24"><div xmlns="http://www.w3.org/1999/xhtml" style="display: table-cell; white-space: nowrap; line-height: 1.5; max-width: 153px; text-align: center;"><span class="nodeLabel markdown-node-label" style=""><p>AuthInterceptor</p></span></div></foreignObject></g></g><g class="members-group text" transform="translate(-121.8125, 9)"/><g class="methods-group text" transform="translate(-121.8125, 39)"><g class="label" style="" transform="translate(0,-12)"><foreignObject width="183.3125" height="24"><div xmlns="http://www.w3.org/1999/xhtml" style="display: table-cell; white-space: nowrap; line-height: 1.5; max-width: 212px; text-align: center;"><span class="nodeLabel markdown-node-label" style=""><p>+intercept(request, next)</p></span></div></foreignObject></g></g><g class="divider" style=""><path d="M-133.8125 -15 C-63.05437609291258 -15, 7.7037478141748466 -15, 133.8125 -15 M-133.8125 -15 C-77.95067224131807 -15, -22.088844482636162 -15, 133.8125 -15" stroke="#9370DB" stroke-width="1.3" fill="none" stroke-dasharray="0 0" style=""/></g><g class="divider" style=""><path d="M-133.8125 9 C-40.29454200649698 9, 53.223415987006035 9, 133.8125 9 M-133.8125 9 C-39.81591465215112 9, 54.180670695697756 9, 133.8125 9" stroke="#9370DB" stroke-width="1.3" fill="none" stroke-dasharray="0 0" style=""/></g></g><g class="node default" id="classId-AuthCommandService-4" transform="translate(461.6171875, 324)"><g class="basic label-container"><path d="M-94.1640625 -42 L94.1640625 -42 L94.1640625 42 L-94.1640625 42" stroke="none" stroke-width="0" fill="#ECECFF" style=""/><path d="M-94.1640625 -42 C-24.819131503262156 -42, 44.52579949347569 -42, 94.1640625 -42 M-94.1640625 -42 C-53.3808608763082 -42, -12.597659252616396 -42, 94.1640625 -42 M94.1640625 -42 C94.1640625 -18.9917162102953, 94.1640625 4.016567579409397, 94.1640625 42 M94.1640625 -42 C94.1640625 -23.00846085049793, 94.1640625 -4.016921700995859, 94.1640625 42 M94.1640625 42 C30.335939100010215 42, -33.49218429997957 42, -94.1640625 42 M94.1640625 42 C49.216585700813134 42, 4.269108901626268 42, -94.1640625 42 M-94.1640625 42 C-94.1640625 14.35238155326493, -94.1640625 -13.29523689347014, -94.1640625 -42 M-94.1640625 42 C-94.1640625 20.073169898243705, -94.1640625 -1.8536602035125895, -94.1640625 -42" stroke="#9370DB" stroke-width="1.3" fill="none" stroke-dasharray="0 0" style=""/></g><g class="annotation-group text" transform="translate(0, -18)"/><g class="label-group text" transform="translate(-82.1640625, -18)"><g class="label" style="font-weight: bolder" transform="translate(0,-12)"><foreignObject width="164.328125" height="24"><div xmlns="http://www.w3.org/1999/xhtml" style="display: table-cell; white-space: nowrap; line-height: 1.5; max-width: 197px; text-align: center;"><span class="nodeLabel markdown-node-label" style=""><p>AuthCommandService</p></span></div></foreignObject></g></g><g class="members-group text" transform="translate(-82.1640625, 30)"/><g class="methods-group text" transform="translate(-82.1640625, 60)"/><g class="divider" style=""><path d="M-94.1640625 6 C-20.364044301281012 6, 53.435973897437975 6, 94.1640625 6 M-94.1640625 6 C-28.652760024144044 6, 36.85854245171191 6, 94.1640625 6" stroke="#9370DB" stroke-width="1.3" fill="none" stroke-dasharray="0 0" style=""/></g><g class="divider" style=""><path d="M-94.1640625 24 C-40.923214447818786 24, 12.317633604362427 24, 94.1640625 24 M-94.1640625 24 C-42.28715649809728 24, 9.589749503805436 24, 94.1640625 24" stroke="#9370DB" stroke-width="1.3" fill="none" stroke-dasharray="0 0" style=""/></g></g><g class="node default" id="classId-TokenStorageGateway-5" transform="translate(1005.8671875, 324)"><g class="basic label-container"><path d="M-94.1328125 -42 L94.1328125 -42 L94.1328125 42 L-94.1328125 42" stroke="none" stroke-width="0" fill="#ECECFF" style=""/><path d="M-94.1328125 -42 C-22.768603926551208 -42, 48.595604646897584 -42, 94.1328125 -42 M-94.1328125 -42 C-24.54119132663358 -42, 45.05042984673284 -42, 94.1328125 -42 M94.1328125 -42 C94.1328125 -20.110815129288728, 94.1328125 1.7783697414225443, 94.1328125 42 M94.1328125 -42 C94.1328125 -21.197065789342332, 94.1328125 -0.3941315786846644, 94.1328125 42 M94.1328125 42 C52.948192649000354 42, 11.763572798000709 42, -94.1328125 42 M94.1328125 42 C29.874476152941483 42, -34.383860194117034 42, -94.1328125 42 M-94.1328125 42 C-94.1328125 24.211503739850205, -94.1328125 6.423007479700409, -94.1328125 -42 M-94.1328125 42 C-94.1328125 23.33590978225207, -94.1328125 4.6718195645041405, -94.1328125 -42" stroke="#9370DB" stroke-width="1.3" fill="none" stroke-dasharray="0 0" style=""/></g><g class="annotation-group text" transform="translate(0, -18)"/><g class="label-group text" transform="translate(-82.1328125, -18)"><g class="label" style="font-weight: bolder" transform="translate(0,-12)"><foreignObject width="164.265625" height="24"><div xmlns="http://www.w3.org/1999/xhtml" style="display: table-cell; white-space: nowrap; line-height: 1.5; max-width: 196px; text-align: center;"><span class="nodeLabel markdown-node-label" style=""><p>TokenStorageGateway</p></span></div></foreignObject></g></g><g class="members-group text" transform="translate(-82.1328125, 30)"/><g class="methods-group text" transform="translate(-82.1328125, 60)"/><g class="divider" style=""><path d="M-94.1328125 6 C-50.62396743419586 6, -7.115122368391724 6, 94.1328125 6 M-94.1328125 6 C-25.889867622219953 6, 42.353077255560095 6, 94.1328125 6" stroke="#9370DB" stroke-width="1.3" fill="none" stroke-dasharray="0 0" style=""/></g><g class="divider" style=""><path d="M-94.1328125 24 C-41.458308292282915 24, 11.21619591543417 24, 94.1328125 24 M-94.1328125 24 C-49.02055457338513 24, -3.9082966467702533 24, 94.1328125 24" stroke="#9370DB" stroke-width="1.3" fill="none" stroke-dasharray="0 0" style=""/></g></g></g></g></g><text text-anchor="middle" x="591.33984375" y="-25" class="classDiagramTitleText">Interfaces - IAM</text></svg>