<svg xmlns="http://www.w3.org/2000/svg" xmlns:xlink="http://www.w3.org/1999/xlink" version="1.1" style="background: #111111" viewBox="0 0 4210 1754"><style id="v-3" type="text/css">        .joint-element .scalable * {            vector-effect: non-scaling-stroke;        }    </style><defs joint-selector="defs"><marker id="v-2-527367903" orient="auto" overflow="visible" markerUnits="userSpaceOnUse"><path id="v-115" stroke="#cccccc" fill="#cccccc" transform="rotate(180)" d="M 20 -10 0 0 20 10 Z"></path></marker></defs><g joint-selector="layers"  transform="matrix(1,0,0,1,0,0)"><g  style="pointer-events: none;"></g><g ></g><g  style="user-select: none;"><!--z-index:0--><!--z-index:1--><!--z-index:2--><!--z-index:3--><!--z-index:4--><!--z-index:5--><!--z-index:6--><!--z-index:7--><!--z-index:8--><!--z-index:9--><!--z-index:10--><!--z-index:11--><!--z-index:12--><!--z-index:13--><!--z-index:14--><!--z-index:15--><!--z-index:16--><!--z-index:17--><g   id="j_610"  transform="translate(20,1710)"><g id="v-7903"><text  id="v-7904" font-size="24px" xml:space="preserve" y="0.8em" font-weight="normal" text-anchor="start" fill="#cccccc" pointer-events="none" display="block" font-family="Tahoma, Verdana, Helvetica, Arial"><tspan dy="0" >Friday, June 5, 2026 at 3:48 PM Peru Standard Time</tspan></text></g></g><!--z-index:18--><g   id="j_609"  transform="translate(20,1676)"><g id="v-7901"><text  id="v-7902" font-size="24px" xml:space="preserve" y="0.8em" font-weight="normal" text-anchor="start" fill="#cccccc" pointer-events="none" display="block" font-family="Tahoma, Verdana, Helvetica, Arial"><tspan dy="0" >Component diagram for the Clair Embedded Application</tspan></text></g></g><!--z-index:19--><g   id="j_608"  transform="translate(20,1630)"><g id="v-7899"><text  id="v-7900" font-size="36px" xml:space="preserve" y="0.8em" font-weight="normal" text-anchor="start" fill="#cccccc" pointer-events="none" display="block" font-family="Tahoma, Verdana, Helvetica, Arial"><tspan dy="0" >Component View: Vanana Platform - Clair Embedded Application</tspan></text></g></g><!--z-index:20--><g   id="j_613"  transform="translate(199,570)" style="; opacity: 1;"><g id="v-7923"><rect  id="v-7924" width="3810" height="926" rx="0" ry="0" stroke-width="2" pointer-events="none" stroke="#2159d4" fill="#111111" opacity="1" stroke-dasharray=""></rect><text  id="v-7925" font-size="33.599999999999994px" xml:space="preserve" y="887" font-weight="bold" text-anchor="start" pointer-events="visible" font-family="Tahoma, Verdana, Helvetica, Arial" fill="#ffffff" transform="matrix(1,0,0,1,15,0)"><tspan dy="0" >Vanana Platform</tspan></text><text  id="v-7926" font-size="16.799999999999997px" xml:space="preserve" y="911" font-weight="normal" text-anchor="start" pointer-events="visible" font-family="Tahoma, Verdana, Helvetica, Arial" fill="#ffffff" transform="matrix(1,0,0,1,15,0)"><tspan dy="0" >[Software System]</tspan></text><image  id="v-7927" pointer-events="visible"></image></g></g><!--z-index:21--><g   id="j_612"  transform="translate(249,620)" style="; opacity: 1;"><g id="v-7918"><rect  id="v-7919" width="2920" height="747" rx="0" ry="0" stroke-width="2" pointer-events="none" stroke="#b67c04" fill="#111111" opacity="1" stroke-dasharray=""></rect><text  id="v-7920" font-size="33.599999999999994px" xml:space="preserve" y="708" font-weight="bold" text-anchor="start" pointer-events="visible" font-family="Tahoma, Verdana, Helvetica, Arial" fill="#ffffff" transform="matrix(1,0,0,1,15,0)"><tspan dy="0" >Clair Embedded Application</tspan></text><text  id="v-7921" font-size="16.799999999999997px" xml:space="preserve" y="732" font-weight="normal" text-anchor="start" pointer-events="visible" font-family="Tahoma, Verdana, Helvetica, Arial" fill="#ffffff" transform="matrix(1,0,0,1,15,0)"><tspan dy="0" >[Container]</tspan></text><image  id="v-7922" pointer-events="visible"></image></g></g><!--z-index:22--><g   id="j_617"  transform="translate(3509,938)" style=""><g  id="v-7976" style="opacity: 1;"><rect  id="v-7977" rx="1" ry="1" stroke-width="2" pointer-events="visiblePainted" fill="#0f766e" stroke="#0e6a63" stroke-dasharray="" width="450" height="300" style="fill: rgb(15, 118, 110); stroke: rgb(14, 106, 99);"></rect><text  id="v-7978" font-size="33.599999999999994px" xml:space="preserve" y="52.34" font-weight="bold" text-anchor="middle" pointer-events="visible" font-family="Tahoma, Verdana, Helvetica, Arial" fill="#ffffff" dominant-baseline="hanging" transform="matrix(1,0,0,1,225,0)" style="fill: rgb(255, 255, 255);"><tspan dy="0" >Clair Edge Station</tspan><tspan dy="1.2em" x="0" >Application</tspan></text><text  id="v-7979" font-size="16.799999999999997px" xml:space="preserve" y="134.26" text-anchor="middle" font-family="Tahoma, Verdana, Helvetica, Arial" fill="#ffffff" dominant-baseline="hanging" transform="matrix(1,0,0,1,225,0)" style="display: block; fill: rgb(255, 255, 255);"><tspan dy="0" >[Container: Flask]</tspan></text><text  id="v-7980" font-size="24px" xml:space="preserve" y="166.06" text-anchor="middle" font-family="Tahoma, Verdana, Helvetica, Arial" fill="#ffffff" dominant-baseline="hanging" transform="matrix(1,0,0,1,225,0)" style="display: block; fill: rgb(255, 255, 255);"><tspan dy="0" >Runs on-site as the local edge</tspan><tspan dy="1.2em" x="0" >gateway for air sensor devices and</tspan><tspan dy="1.2em" x="0" >synchronizes data with the platform.</tspan></text><g  id="v-7981" color="#ffffff" transform="matrix(1,0,0,1,210,268)" style="fill: rgb(255, 255, 255);" display="none"><g  transform="translate(5 0)"><svg xmlns="http://www.w3.org/2000/svg" width="20" height="20" fill="currentColor" viewBox="0 0 16 16"><path fill-rule="evenodd" d="M6.5 12a5.5 5.5 0 1 0 0-11 5.5 5.5 0 0 0 0 11zM13 6.5a6.5 6.5 0 1 1-13 0 6.5 6.5 0 0 1 13 0z"></path><path d="M10.344 11.742c.03.04.062.078.098.115l3.85 3.85a1 1 0 0 0 1.415-1.414l-3.85-3.85a1.007 1.007 0 0 0-.115-.1 6.538 6.538 0 0 1-1.398 1.4z"></path><path fill-rule="evenodd" d="M6.5 3a.5.5 0 0 1 .5.5V6h2.5a.5.5 0 0 1 0 1H7v2.5a.5.5 0 0 1-1 0V7H3.5a.5.5 0 0 1 0-1H6V3.5a.5.5 0 0 1 .5-.5z"></path></svg></g><g ></g><g ></g><g ></g></g><image  id="v-7982"></image></g></g><!--z-index:23--><g   id="j_611"  transform="translate(299,863)" style=""><g  id="v-7911" style="opacity: 1;"><rect  id="v-7912" rx="1" ry="1" stroke-width="2" pointer-events="visiblePainted" fill="#a16207" stroke="#915806" stroke-dasharray="" width="450" height="300" style="fill: rgb(161, 98, 7); stroke: rgb(145, 88, 6);"></rect><text  id="v-7913" font-size="33.599999999999994px" xml:space="preserve" y="86.9" font-weight="bold" text-anchor="middle" pointer-events="visible" font-family="Tahoma, Verdana, Helvetica, Arial" fill="#ffffff" dominant-baseline="hanging" transform="matrix(1,0,0,1,225,0)" style="fill: rgb(255, 255, 255);"><tspan dy="0" >Embedded Controller</tspan></text><text  id="v-7914" font-size="16.799999999999997px" xml:space="preserve" y="128.5" text-anchor="middle" font-family="Tahoma, Verdana, Helvetica, Arial" fill="#ffffff" dominant-baseline="hanging" transform="matrix(1,0,0,1,225,0)" style="display: block; fill: rgb(255, 255, 255);"><tspan dy="0" >[Component: C++]</tspan></text><text  id="v-7915" font-size="24px" xml:space="preserve" y="160.3" text-anchor="middle" font-family="Tahoma, Verdana, Helvetica, Arial" fill="#ffffff" dominant-baseline="hanging" transform="matrix(1,0,0,1,225,0)" style="display: block; fill: rgb(255, 255, 255);"><tspan dy="0" >Inbound adapter that receives local</tspan><tspan dy="1.2em" x="0" >commands and telemetry ticks.</tspan></text><g  id="v-7916" color="#ffffff" transform="matrix(1,0,0,1,222.5,268)" style="fill: rgb(255, 255, 255);" display="none"><g ></g><g ></g><g ></g><g ></g></g><image  id="v-7917"></image></g></g><!--z-index:24--><g   id="j_614"  transform="translate(1089,672)" style=""><g  id="v-7934" style="opacity: 1;"><rect  id="v-7935" rx="1" ry="1" stroke-width="2" pointer-events="visiblePainted" fill="#a16207" stroke="#915806" stroke-dasharray="" width="450" height="300" style="fill: rgb(161, 98, 7); stroke: rgb(145, 88, 6);"></rect><text  id="v-7936" font-size="33.599999999999994px" xml:space="preserve" y="52.34" font-weight="bold" text-anchor="middle" pointer-events="visible" font-family="Tahoma, Verdana, Helvetica, Arial" fill="#ffffff" dominant-baseline="hanging" transform="matrix(1,0,0,1,225,0)" style="fill: rgb(255, 255, 255);"><tspan dy="0" >Embedded Telemetry</tspan><tspan dy="1.2em" x="0" >Service</tspan></text><text  id="v-7937" font-size="16.799999999999997px" xml:space="preserve" y="134.26" text-anchor="middle" font-family="Tahoma, Verdana, Helvetica, Arial" fill="#ffffff" dominant-baseline="hanging" transform="matrix(1,0,0,1,225,0)" style="display: block; fill: rgb(255, 255, 255);"><tspan dy="0" >[Component: C++]</tspan></text><text  id="v-7938" font-size="24px" xml:space="preserve" y="166.06" text-anchor="middle" font-family="Tahoma, Verdana, Helvetica, Arial" fill="#ffffff" dominant-baseline="hanging" transform="matrix(1,0,0,1,225,0)" style="display: block; fill: rgb(255, 255, 255);"><tspan dy="0" >Application service that validates</tspan><tspan dy="1.2em" x="0" >and normalizes sensor readings</tspan><tspan dy="1.2em" x="0" >before publish.</tspan></text><g  id="v-7939" color="#ffffff" transform="matrix(1,0,0,1,222.5,268)" style="fill: rgb(255, 255, 255);" display="none"><g ></g><g ></g><g ></g><g ></g></g><image  id="v-7940"></image></g></g><!--z-index:25--><g   id="j_615"  transform="translate(1879,670)" style=""><g  id="v-7947" style="opacity: 1;"><rect  id="v-7948" rx="1" ry="1" stroke-width="2" pointer-events="visiblePainted" fill="#a16207" stroke="#915806" stroke-dasharray="" width="450" height="300" style="fill: rgb(161, 98, 7); stroke: rgb(145, 88, 6);"></rect><text  id="v-7949" font-size="33.599999999999994px" xml:space="preserve" y="86.9" font-weight="bold" text-anchor="middle" pointer-events="visible" font-family="Tahoma, Verdana, Helvetica, Arial" fill="#ffffff" dominant-baseline="hanging" transform="matrix(1,0,0,1,225,0)" style="fill: rgb(255, 255, 255);"><tspan dy="0" >Embedded Domain Model</tspan></text><text  id="v-7950" font-size="16.799999999999997px" xml:space="preserve" y="128.5" text-anchor="middle" font-family="Tahoma, Verdana, Helvetica, Arial" fill="#ffffff" dominant-baseline="hanging" transform="matrix(1,0,0,1,225,0)" style="display: block; fill: rgb(255, 255, 255);"><tspan dy="0" >[Component: C++]</tspan></text><text  id="v-7951" font-size="24px" xml:space="preserve" y="160.3" text-anchor="middle" font-family="Tahoma, Verdana, Helvetica, Arial" fill="#ffffff" dominant-baseline="hanging" transform="matrix(1,0,0,1,225,0)" style="display: block; fill: rgb(255, 255, 255);"><tspan dy="0" >Domain rules for device safety, valid</tspan><tspan dy="1.2em" x="0" >ranges, and state transitions.</tspan></text><g  id="v-7952" color="#ffffff" transform="matrix(1,0,0,1,222.5,268)" style="fill: rgb(255, 255, 255);" display="none"><g ></g><g ></g><g ></g><g ></g></g><image  id="v-7953"></image></g></g><!--z-index:26--><g   id="j_616"  transform="translate(2669,938)" style=""><g  id="v-7963" style="opacity: 1;"><rect  id="v-7964" rx="1" ry="1" stroke-width="2" pointer-events="visiblePainted" fill="#a16207" stroke="#915806" stroke-dasharray="" width="450" height="300" style="fill: rgb(161, 98, 7); stroke: rgb(145, 88, 6);"></rect><text  id="v-7965" font-size="33.599999999999994px" xml:space="preserve" y="72.5" font-weight="bold" text-anchor="middle" pointer-events="visible" font-family="Tahoma, Verdana, Helvetica, Arial" fill="#ffffff" dominant-baseline="hanging" transform="matrix(1,0,0,1,225,0)" style="fill: rgb(255, 255, 255);"><tspan dy="0" >Embedded IO Adapter</tspan></text><text  id="v-7966" font-size="16.799999999999997px" xml:space="preserve" y="114.1" text-anchor="middle" font-family="Tahoma, Verdana, Helvetica, Arial" fill="#ffffff" dominant-baseline="hanging" transform="matrix(1,0,0,1,225,0)" style="display: block; fill: rgb(255, 255, 255);"><tspan dy="0" >[Component: GPIO/I2C/UART + BLE/Wi-Fi]</tspan></text><text  id="v-7967" font-size="24px" xml:space="preserve" y="145.89999999999998" text-anchor="middle" font-family="Tahoma, Verdana, Helvetica, Arial" fill="#ffffff" dominant-baseline="hanging" transform="matrix(1,0,0,1,225,0)" style="display: block; fill: rgb(255, 255, 255);"><tspan dy="0" >Outbound adapter for hardware IO,</tspan><tspan dy="1.2em" x="0" >local state cache, and BLE/Wi-Fi</tspan><tspan dy="1.2em" x="0" >telemetry publishing.</tspan></text><g  id="v-7968" color="#ffffff" transform="matrix(1,0,0,1,222.5,268)" style="fill: rgb(255, 255, 255);" display="none"><g ></g><g ></g><g ></g><g ></g></g><image  id="v-7969"></image></g></g><!--z-index:27--><g   id="j_618"  transform="translate(1879,143)" style=""><g  id="v-7986" style="opacity: 1;"><rect  id="v-7987" rx="1" ry="1" stroke-width="2" pointer-events="visiblePainted" fill="#ea580c" stroke="#d34f0b" stroke-dasharray="" width="450" height="300" style="fill: rgb(234, 88, 12); stroke: rgb(211, 79, 11);"></rect><text  id="v-7988" font-size="33.599999999999994px" xml:space="preserve" y="86.9" font-weight="bold" text-anchor="middle" pointer-events="visible" font-family="Tahoma, Verdana, Helvetica, Arial" fill="#ffffff" dominant-baseline="hanging" transform="matrix(1,0,0,1,225,0)" style="fill: rgb(255, 255, 255);"><tspan dy="0" >Clair Hardware</tspan></text><text  id="v-7989" font-size="16.799999999999997px" xml:space="preserve" y="128.5" text-anchor="middle" font-family="Tahoma, Verdana, Helvetica, Arial" fill="#ffffff" dominant-baseline="hanging" transform="matrix(1,0,0,1,225,0)" style="display: block; fill: rgb(255, 255, 255);"><tspan dy="0" >[Software System]</tspan></text><text  id="v-7990" font-size="24px" xml:space="preserve" y="160.3" text-anchor="middle" font-family="Tahoma, Verdana, Helvetica, Arial" fill="#ffffff" dominant-baseline="hanging" transform="matrix(1,0,0,1,225,0)" style="display: block; fill: rgb(255, 255, 255);"><tspan dy="0" >Physical devices (sensors and</tspan><tspan dy="1.2em" x="0" >actuators) installed on-site.</tspan></text><g  id="v-7991" color="#ffffff" transform="matrix(1,0,0,1,222.5,268)" style="fill: rgb(255, 255, 255);" display="none"><g ></g><g ></g><g ></g><g ></g></g><image  id="v-7992"></image></g></g><!--z-index:28--><g   id="j_619"  style="opacity: 1;"><path fill="none" cursor="pointer" stroke="transparent" stroke-linecap="round" joint-selector="wrapper" id="v-8007" stroke-width="10" stroke-linejoin="round" d="M 2217.33 443 L 2493 808 C 2497 813.1999999999998 2501.6666666666665 817.5333333333332 2507 821 L 2676.33 938"></path><path fill="none" pointer-events="none" joint-selector="line" id="v-8006" stroke="#cccccc" stroke-width="2" stroke-linejoin="round" stroke-dasharray="8 8" d="M 2217.33 443 L 2493 808 C 2497 813.1999999999998 2501.6666666666665 817.5333333333332 2507 821 L 2676.33 938" marker-end="url(#v-2-527367903)"></path><g id="v-7996" ><g id="v-7997"  label-idx="0" cursor="move" transform="matrix(1,0,0,1,2499.1728515625,801.4439086914062)" style="cursor: default;"><rect joint-selector="rect" id="v-8001" fill="#111111" rx="3" ry="3" x="-77.59476470947266" y="-59.57076644897461" width="156.26109313964844" height="115.86346435546875" pointer-events="none"  style="display: block;"></rect><text joint-selector="text" id="v-8000" font-size="24px" xml:space="preserve" fill="#cccccc" text-anchor="middle" pointer-events="none" font-family="Tahoma, Verdana, Helvetica, Arial" font-weight="normal"  style="display: block;"><tspan dy="-1.4999999999999998em" >Provides raw</tspan><tspan dy="1.2em" x="0" >measurements</tspan><tspan dy="1.2em" x="0" >and actuator</tspan><tspan dy="1.2em" x="0" >interfaces</tspan></text></g><g id="v-7998"  label-idx="1" cursor="move" transform="matrix(1,0,0,1,2499.1728515625,875.0438842773438)" style="cursor: default;"><rect joint-selector="rect" id="v-8003" fill="#111111" rx="3" ry="3" x="-65.25694274902344" y="-12.63807201385498" width="130.51388549804688" height="20.62441635131836"  pointer-events="none" style="display: block;"></rect><text joint-selector="text" id="v-8002" font-size="16.799999999999997px" xml:space="preserve" fill="#cccccc" text-anchor="middle" pointer-events="none" font-family="Tahoma, Verdana, Helvetica, Arial" font-weight="normal"  style="display: block;"><tspan dy="0.3em" >[GPIO/I2C/UART]</tspan></text></g><g id="v-7999"  label-idx="2" cursor="move" transform="matrix(1,0,0,1,2412.97021484375,783.8773803710938)" style="cursor: default;"><rect joint-selector="rect" id="v-8005" fill="#ffffff" rx="3" ry="3" x="0" y="0" width="0" height="0"  display="none"></rect><text joint-selector="text" id="v-8004" fill="#000000" font-size="14" text-anchor="middle" text-vertical-anchor="middle" pointer-events="none"></text></g></g></g><!--z-index:29--><g   id="j_620"  style="opacity: 1;"><path fill="none" cursor="pointer" stroke="transparent" stroke-linecap="round" joint-selector="wrapper" id="v-8025" stroke-width="10" stroke-linejoin="round" d="M 2669 1155.9 L 2509 1204 C 2502.333333333333 1206.1333333333332 2495.6666666666665 1207.1333333333332 2489 1207 L 929 1207 C 922.3333333333333 1207.1333333333332 916 1205.8 910 1203 L 749 1123.62"></path><path fill="none" pointer-events="none" joint-selector="line" id="v-8024" stroke="#cccccc" stroke-width="2" stroke-linejoin="round" stroke-dasharray="8 8" d="M 2669 1155.9 L 2509 1204 C 2502.333333333333 1206.1333333333332 2495.6666666666665 1207.1333333333332 2489 1207 L 929 1207 C 922.3333333333333 1207.1333333333332 916 1205.8 910 1203 L 749 1123.62" marker-end="url(#v-2-527367903)"></path><g id="v-8014" ><g id="v-8015"  label-idx="0" cursor="move" transform="matrix(1,0,0,1,1709.056640625,1193.5999755859375)" style="cursor: default;"><rect joint-selector="rect" id="v-8019" fill="#111111" rx="3" ry="3" x="-92.23442077636719" y="-59.57076644897461" width="185.54225158691406" height="115.86346435546875" pointer-events="none"  style="display: block;"></rect><text joint-selector="text" id="v-8018" font-size="24px" xml:space="preserve" fill="#cccccc" text-anchor="middle" pointer-events="none" font-family="Tahoma, Verdana, Helvetica, Arial" font-weight="normal"  style="display: block;"><tspan dy="-1.4999999999999998em" >Delivers local</tspan><tspan dy="1.2em" x="0" >command</tspan><tspan dy="1.2em" x="0" >payloads and</tspan><tspan dy="1.2em" x="0" >sensor tick inputs</tspan></text></g><g id="v-8016"  label-idx="1" cursor="move" transform="matrix(1,0,0,1,1709.056640625,1267.199951171875)" style="cursor: default;"><rect joint-selector="rect" id="v-8021" fill="#111111" rx="3" ry="3" x="-59.87065887451172" y="-12.63807201385498" width="119.74131774902344" height="20.62441635131836"  pointer-events="none" style="display: block;"></rect><text joint-selector="text" id="v-8020" font-size="16.799999999999997px" xml:space="preserve" fill="#cccccc" text-anchor="middle" pointer-events="none" font-family="Tahoma, Verdana, Helvetica, Arial" font-weight="normal"  style="display: block;"><tspan dy="0.3em" >[In-process call]</tspan></text></g><g id="v-8017"  label-idx="2" cursor="move" transform="matrix(1,0,0,1,1693.14599609375,1275.5999755859375)" style="cursor: default;"><rect joint-selector="rect" id="v-8023" fill="#ffffff" rx="3" ry="3" x="-2.2737367544323206e-13" y="0" width="0" height="0"  display="none"></rect><text joint-selector="text" id="v-8022" fill="#000000" font-size="14" text-anchor="middle" text-vertical-anchor="middle" pointer-events="none"></text></g></g></g><!--z-index:30--><g   id="j_621"  style="opacity: 1;"><path fill="none" cursor="pointer" stroke="transparent" stroke-linecap="round" joint-selector="wrapper" id="v-8043" stroke-width="10" stroke-linejoin="round" d="M 749 904.32 L 910 827 C 916 823.8 922.3333333333333 822.1333333333333 929 822 L 1089 822.11"></path><path fill="none" pointer-events="none" joint-selector="line" id="v-8042" stroke="#cccccc" stroke-width="2" stroke-linejoin="round" stroke-dasharray="8 8" d="M 749 904.32 L 910 827 C 916 823.8 922.3333333333333 822.1333333333333 929 822 L 1089 822.11" marker-end="url(#v-2-527367903)"></path><g id="v-8032" ><g id="v-8033"  label-idx="0" cursor="move" transform="matrix(1,0,0,1,919.32421875,809.9305419921875)" style="cursor: default;"><rect joint-selector="rect" id="v-8037" fill="#111111" rx="3" ry="3" x="-97.0912857055664" y="-45.17076110839844" width="196.27346801757812" height="87.06346130371094" pointer-events="none"  style="display: block;"></rect><text joint-selector="text" id="v-8036" font-size="24px" xml:space="preserve" fill="#cccccc" text-anchor="middle" pointer-events="none" font-family="Tahoma, Verdana, Helvetica, Arial" font-weight="normal"  style="display: block;"><tspan dy="-0.8999999999999999em" >Invokes telemetry</tspan><tspan dy="1.2em" x="0" >and command use</tspan><tspan dy="1.2em" x="0" >cases</tspan></text></g><g id="v-8034"  label-idx="1" cursor="move" transform="matrix(1,0,0,1,919.32421875,869.1305541992188)" style="cursor: default;"><rect joint-selector="rect" id="v-8039" fill="#111111" rx="3" ry="3" x="-59.87065887451172" y="-12.63807201385498" width="119.74131774902344" height="20.62441635131836"  pointer-events="none" style="display: block;"></rect><text joint-selector="text" id="v-8038" font-size="16.799999999999997px" xml:space="preserve" fill="#cccccc" text-anchor="middle" pointer-events="none" font-family="Tahoma, Verdana, Helvetica, Arial" font-weight="normal"  style="display: block;"><tspan dy="0.3em" >[In-process call]</tspan></text></g><g id="v-8035"  label-idx="2" cursor="move" transform="matrix(1,0,0,1,900.5281982421875,880.9226684570312)" style="cursor: default;"><rect joint-selector="rect" id="v-8041" fill="#ffffff" rx="3" ry="3" x="0" y="-1.1368683772161603e-13" width="0" height="0"  display="none"></rect><text joint-selector="text" id="v-8040" fill="#000000" font-size="14" text-anchor="middle" text-vertical-anchor="middle" pointer-events="none"></text></g></g></g><!--z-index:31--><g   id="j_622"  style="opacity: 1;"><path fill="none" cursor="pointer" stroke="transparent" stroke-linecap="round" joint-selector="wrapper" id="v-8061" stroke-width="10" stroke-linejoin="round" d="M 1539 820.86 L 1699 820 C 1705.6666666666665 820 1712.3333333333333 820 1719 820 L 1879 820"></path><path fill="none" pointer-events="none" joint-selector="line" id="v-8060" stroke="#cccccc" stroke-width="2" stroke-linejoin="round" stroke-dasharray="8 8" d="M 1539 820.86 L 1699 820 C 1705.6666666666665 820 1712.3333333333333 820 1719 820 L 1879 820" marker-end="url(#v-2-527367903)"></path><g id="v-8050" ><g id="v-8051"  label-idx="0" cursor="move" transform="matrix(1,0,0,1,1709,806.5999755859375)" style="cursor: default;"><rect joint-selector="rect" id="v-8055" fill="#111111" rx="3" ry="3" x="-99.0018081665039" y="-30.770763397216797" width="195.05726623535156" height="58.26345443725586" pointer-events="none"  style="display: block;"></rect><text joint-selector="text" id="v-8054" font-size="24px" xml:space="preserve" fill="#cccccc" text-anchor="middle" pointer-events="none" font-family="Tahoma, Verdana, Helvetica, Arial" font-weight="normal"  style="display: block;"><tspan dy="-0.3em" >Applies safety and</tspan><tspan dy="1.2em" x="0" >validity rules</tspan></text></g><g id="v-8052"  label-idx="1" cursor="move" transform="matrix(1,0,0,1,1709,851.4000244140625)" style="cursor: default;"><rect joint-selector="rect" id="v-8057" fill="#111111" rx="3" ry="3" x="-59.87065887451172" y="-12.63807201385498" width="119.74131774902344" height="20.62441635131836"  pointer-events="none" style="display: block;"></rect><text joint-selector="text" id="v-8056" font-size="16.799999999999997px" xml:space="preserve" fill="#cccccc" text-anchor="middle" pointer-events="none" font-family="Tahoma, Verdana, Helvetica, Arial" font-weight="normal"  style="display: block;"><tspan dy="0.3em" >[In-process call]</tspan></text></g><g id="v-8053"  label-idx="2" cursor="move" transform="matrix(1,0,0,1,1699,859.7999877929688)" style="cursor: default;"><rect joint-selector="rect" id="v-8059" fill="#ffffff" rx="3" ry="3" x="0" y="1.1368683772161603e-13" width="0" height="0"  display="none"></rect><text joint-selector="text" id="v-8058" fill="#000000" font-size="14" text-anchor="middle" text-vertical-anchor="middle" pointer-events="none"></text></g></g></g><!--z-index:32--><g   id="j_623"  style="opacity: 1;"><path fill="none" cursor="pointer" stroke="transparent" stroke-linecap="round" joint-selector="wrapper" id="v-8079" stroke-width="10" stroke-linejoin="round" d="M 1536.24 972 L 1701 1083 C 1706.3333333333333 1086.7333333333331 1712.3333333333333 1088.7333333333331 1719 1089 L 2669 1088.11"></path><path fill="none" pointer-events="none" joint-selector="line" id="v-8078" stroke="#cccccc" stroke-width="2" stroke-linejoin="round" stroke-dasharray="8 8" d="M 1536.24 972 L 1701 1083 C 1706.3333333333333 1086.7333333333331 1712.3333333333333 1088.7333333333331 1719 1089 L 2669 1088.11" marker-end="url(#v-2-527367903)"></path><g id="v-8068" ><g id="v-8069"  label-idx="0" cursor="move" transform="matrix(1,0,0,1,2104.132080078125,1075.2391357421875)" style="cursor: default;"><rect joint-selector="rect" id="v-8073" fill="#111111" rx="3" ry="3" x="-73.29033660888672" y="-59.57076644897461" width="146.58067321777344" height="115.86346435546875" pointer-events="none"  style="display: block;"></rect><text joint-selector="text" id="v-8072" font-size="24px" xml:space="preserve" fill="#cccccc" text-anchor="middle" pointer-events="none" font-family="Tahoma, Verdana, Helvetica, Arial" font-weight="normal"  style="display: block;"><tspan dy="-1.4999999999999998em" >Publishes</tspan><tspan dy="1.2em" x="0" >telemetry and</tspan><tspan dy="1.2em" x="0" >updates local</tspan><tspan dy="1.2em" x="0" >runtime state</tspan></text></g><g id="v-8070"  label-idx="1" cursor="move" transform="matrix(1,0,0,1,2104.132080078125,1148.8392333984375)" style="cursor: default;"><rect joint-selector="rect" id="v-8075" fill="#111111" rx="3" ry="3" x="-59.87065887451172" y="-12.63807201385498" width="119.74131774902344" height="20.62441635131836"  pointer-events="none" style="display: block;"></rect><text joint-selector="text" id="v-8074" font-size="16.799999999999997px" xml:space="preserve" fill="#cccccc" text-anchor="middle" pointer-events="none" font-family="Tahoma, Verdana, Helvetica, Arial" font-weight="normal"  style="display: block;"><tspan dy="0.3em" >[In-process call]</tspan></text></g><g id="v-8071"  label-idx="2" cursor="move" transform="matrix(1,0,0,1,2075.049560546875,1157.257080078125)" style="cursor: default;"><rect joint-selector="rect" id="v-8077" fill="#ffffff" rx="3" ry="3" x="0" y="-1.1368683772161603e-13" width="0" height="0"  display="none"></rect><text joint-selector="text" id="v-8076" fill="#000000" font-size="14" text-anchor="middle" text-vertical-anchor="middle" pointer-events="none"></text></g></g></g><!--z-index:33--><g   id="j_624"  style="opacity: 1;"><path fill="none" cursor="pointer" stroke="transparent" stroke-linecap="round" joint-selector="wrapper" id="v-8094" stroke-width="10" stroke-linejoin="round" d="M 1539 730.63 L 1700 665 C 1706 662.7333333333333 1711.3333333333333 659.4 1716 655 L 1943.26 443"></path><path fill="none" pointer-events="none" joint-selector="line" id="v-8093" stroke="#cccccc" stroke-width="2" stroke-linejoin="round" stroke-dasharray="8 8" d="M 1539 730.63 L 1700 665 C 1706 662.7333333333333 1711.3333333333333 659.4 1716 655 L 1943.26 443" marker-end="url(#v-2-527367903)"></path><g id="v-8083" ><g id="v-8084"  label-idx="0" cursor="move" transform="matrix(1,0,0,1,1708.53125,647.3804321289062)" style="cursor: default;"><rect joint-selector="rect" id="v-8088" fill="#111111" rx="3" ry="3" x="-69.35420989990234" y="-59.57076644897461" width="140.04940795898438" height="115.86346435546875" pointer-events="none"  style="display: block;"></rect><text joint-selector="text" id="v-8087" font-size="24px" xml:space="preserve" fill="#cccccc" text-anchor="middle" pointer-events="none" font-family="Tahoma, Verdana, Helvetica, Arial" font-weight="normal"  style="display: block;"><tspan dy="-1.4999999999999998em" >Applies safe</tspan><tspan dy="1.2em" x="0" >device-level</tspan><tspan dy="1.2em" x="0" >actions when</tspan><tspan dy="1.2em" x="0" >required</tspan></text></g><g id="v-8085"  label-idx="1" cursor="move" transform="matrix(1,0,0,1,1708.53125,720.98046875)" style="cursor: default;"><rect joint-selector="rect" id="v-8090" fill="#111111" rx="3" ry="3" x="-65.25694274902344" y="-12.63807201385498" width="130.51388549804688" height="20.62441635131836"  pointer-events="none" style="display: block;"></rect><text joint-selector="text" id="v-8089" font-size="16.799999999999997px" xml:space="preserve" fill="#cccccc" text-anchor="middle" pointer-events="none" font-family="Tahoma, Verdana, Helvetica, Arial" font-weight="normal"  style="display: block;"><tspan dy="0.3em" >[GPIO/I2C/UART]</tspan></text></g><g id="v-8086"  label-idx="2" cursor="move" transform="matrix(1,0,0,1,1749.11962890625,683.375732421875)" style="cursor: default;"><rect joint-selector="rect" id="v-8092" fill="#ffffff" rx="3" ry="3" x="0" y="0" width="0" height="0"  display="none"></rect><text joint-selector="text" id="v-8091" fill="#000000" font-size="14" text-anchor="middle" text-vertical-anchor="middle" pointer-events="none"></text></g></g></g><!--z-index:34--><g   id="j_625"  style="opacity: 1;"><path fill="none" cursor="pointer" stroke="transparent" stroke-linecap="round" joint-selector="wrapper" id="v-8109" stroke-width="10" stroke-linejoin="round" d="M 3119 1088 L 3509 1088"></path><path fill="none" pointer-events="none" joint-selector="line" id="v-8108" stroke="#cccccc" stroke-width="2" stroke-linejoin="round" stroke-dasharray="8 8" d="M 3119 1088 L 3509 1088" marker-end="url(#v-2-527367903)"></path><g id="v-8098" ><g id="v-8099"  label-idx="0" cursor="move" transform="matrix(1,0,0,1,3339,1074.5999755859375)" style="cursor: default;"><rect joint-selector="rect" id="v-8103" fill="#111111" rx="3" ry="3" x="-84.93761444091797" y="-45.17076110839844" width="171.99542236328125" height="87.06346130371094" pointer-events="none"  style="display: block;"></rect><text joint-selector="text" id="v-8102" font-size="24px" xml:space="preserve" fill="#cccccc" text-anchor="middle" pointer-events="none" font-family="Tahoma, Verdana, Helvetica, Arial" font-weight="normal"  style="display: block;"><tspan dy="-0.8999999999999999em" >Publishes local</tspan><tspan dy="1.2em" x="0" >telemetry to the</tspan><tspan dy="1.2em" x="0" >edge station</tspan></text></g><g id="v-8100"  label-idx="1" cursor="move" transform="matrix(1,0,0,1,3339,1133.800048828125)" style="cursor: default;"><rect joint-selector="rect" id="v-8105" fill="#111111" rx="3" ry="3" x="-53.40250778198242" y="-12.63807201385498" width="106.80501556396484" height="20.62441635131836"  pointer-events="none" style="display: block;"></rect><text joint-selector="text" id="v-8104" font-size="16.799999999999997px" xml:space="preserve" fill="#cccccc" text-anchor="middle" pointer-events="none" font-family="Tahoma, Verdana, Helvetica, Arial" font-weight="normal"  style="display: block;"><tspan dy="0.3em" >[REST/HTTPS]</tspan></text></g><g id="v-8101"  label-idx="2" cursor="move" transform="matrix(1,0,0,1,3304,1142.199951171875)" style="cursor: default;"><rect joint-selector="rect" id="v-8107" fill="#ffffff" rx="3" ry="3" x="0" y="1.1368683772161603e-13" width="0" height="0"  display="none"></rect><text joint-selector="text" id="v-8106" fill="#000000" font-size="14" text-anchor="middle" text-vertical-anchor="middle" pointer-events="none"></text></g></g></g><!--z-index:35--><!--z-index:36--><!--z-index:37--><!--z-index:38--><!--z-index:39--><!--z-index:40--><!--z-index:41--><!--z-index:42--><!--z-index:43--><!--z-index:44--><!--z-index:45--><!--z-index:46--><!--z-index:47--><!--z-index:48--><!--z-index:49--><!--z-index:50--><!--z-index:51--><!--z-index:52--><!--z-index:53--><!--z-index:54--><!--z-index:55--><!--z-index:56--><!--z-index:57--><!--z-index:58--><!--z-index:59--><!--z-index:60--><!--z-index:61--><!--z-index:62--><!--z-index:63--><!--z-index:64--><!--z-index:65--><!--z-index:66--><!--z-index:67--><!--z-index:68--><!--z-index:69--><!--z-index:70--><!--z-index:71--><!--z-index:72--><!--z-index:73--><!--z-index:74--><!--z-index:75--><!--z-index:76--><!--z-index:77--><!--z-index:78--><!--z-index:79--><!--z-index:80--><!--z-index:81--><!--z-index:82--><!--z-index:83--><!--z-index:84--><!--z-index:85--><!--z-index:86--><!--z-index:87--><!--z-index:88--><!--z-index:89--><!--z-index:90--><!--z-index:91--><!--z-index:92--><!--z-index:93--><!--z-index:94--><!--z-index:95--><!--z-index:96--><!--z-index:97--></g><g  style="user-select: none;"></g><g ></g><g  display="none"></g></g></svg>