<svg xmlns="http://www.w3.org/2000/svg" xmlns:xlink="http://www.w3.org/1999/xlink" version="1.1" style="background: #111111" viewBox="149.9999981647123 92.37295585833809 2869.999979240353 2001.6270384304667"><style id="v-3" type="text/css">        .joint-element .scalable * {            vector-effect: non-scaling-stroke;        }    </style><defs joint-selector="defs"><marker id="v-2-527367903" orient="auto" overflow="visible" markerUnits="userSpaceOnUse"><path id="v-112" stroke="#cccccc" fill="#cccccc" transform="rotate(180)" d="M 20 -10 0 0 20 10 Z"></path></marker></defs><g joint-selector="layers"  transform="matrix(1,0,0,1,0,0)"><g  style="pointer-events: none;"></g><g ></g><g  style="user-select: none;"><!--z-index:0--><!--z-index:1--><!--z-index:2--><!--z-index:3--><!--z-index:4--><!--z-index:5--><!--z-index:6--><!--z-index:7--><!--z-index:8--><!--z-index:9--><!--z-index:10--><!--z-index:11--><!--z-index:12--><!--z-index:13--><!--z-index:14--><!--z-index:15--><!--z-index:16--><!--z-index:17--><!--z-index:18--><!--z-index:19--><!--z-index:20--><!--z-index:21--><!--z-index:22--><g   id="j_3"  transform="translate(20,2257)"><g id="v-8"><text  id="v-9" font-size="24px" xml:space="preserve" y="0.8em" font-weight="normal" text-anchor="start" fill="#cccccc" pointer-events="none" display="block" font-family="Tahoma, Verdana, Helvetica, Arial"><tspan dy="0"  display="none">Friday, June 5, 2026 at 4:19 PM Peru Standard Time</tspan></text></g></g><!--z-index:23--><g   id="j_2"  transform="translate(20,2223)"><g id="v-6"><text  id="v-7" font-size="24px" xml:space="preserve" y="0.8em" font-weight="normal" text-anchor="start" fill="#cccccc" pointer-events="none" display="block" font-family="Tahoma, Verdana, Helvetica, Arial"><tspan dy="0"  display="none">System Landscape diagram for the Vanana ecosystem - all systems shown as peers</tspan></text></g></g><!--z-index:24--><g   id="j_1"  transform="translate(20,2177)"><g id="v-4"><text  id="v-5" font-size="36px" xml:space="preserve" y="0.8em" font-weight="normal" text-anchor="start" fill="#cccccc" pointer-events="none" display="block" font-family="Tahoma, Verdana, Helvetica, Arial"><tspan dy="0"  display="none">System Landscape View</tspan></text></g></g><!--z-index:25--><g   id="j_4"  transform="translate(200,196)" style=""><g  id="v-16" style="opacity: 1;"><rect  x="0" y="160" width="400" height="240" rx="70" id="v-18" stroke-width="2" pointer-events="visiblePainted" fill="#374151" stroke="#323b49" stroke-dasharray="" style="fill: rgb(55, 65, 81); stroke: rgb(50, 59, 73);"></rect><circle  cx="200" cy="88.88888888888889" r="88.88888888888889" id="v-17" stroke-width="2" pointer-events="visiblePainted" fill="#374151" stroke="#323b49" stroke-dasharray="" style="fill: rgb(55, 65, 81); stroke: rgb(50, 59, 73);"></circle><line  x1="80" y1="266.6666666666667" x2="80" y2="400" id="v-24" stroke="#323b49" stroke-width="1" stroke-dasharray="" style="stroke: rgb(50, 59, 73);"></line><line  x1="320" y1="266.6666666666667" x2="320" y2="400" id="v-25" stroke="#323b49" stroke-width="1" stroke-dasharray="" style="stroke: rgb(50, 59, 73);"></line><text  id="v-19" font-size="33.599999999999994px" xml:space="preserve" y="216.9" font-weight="bold" text-anchor="middle" pointer-events="visible" font-family="Tahoma, Verdana, Helvetica, Arial" fill="#cccccc" dominant-baseline="hanging" transform="matrix(1,0,0,1,200,0)" style="fill: rgb(204, 204, 204);"><tspan dy="0" >Facility Admin</tspan></text><text  id="v-20" font-size="16.799999999999997px" xml:space="preserve" y="258.5" text-anchor="middle" font-family="Tahoma, Verdana, Helvetica, Arial" fill="#cccccc" dominant-baseline="hanging" transform="matrix(1,0,0,1,200,0)" style="display: block; fill: rgb(204, 204, 204);"><tspan dy="0" >[Person]</tspan></text><text  id="v-21" font-size="24px" xml:space="preserve" y="290.3" text-anchor="middle" font-family="Tahoma, Verdana, Helvetica, Arial" fill="#cccccc" dominant-baseline="hanging" transform="matrix(1,0,0,1,200,0)" style="display: block; fill: rgb(204, 204, 204);"><tspan dy="0" >Owner or operator of multiple</tspan><tspan dy="1.2em" x="0" >air sensors across facilities.</tspan></text><g  id="v-22" font-weight="normal" text-anchor="middle" color="#cccccc" transform="matrix(1,0,0,1,197.5,368)" style="fill: rgb(204, 204, 204);" display="none"><g ></g><g ></g><g ></g><g ></g></g><image  id="v-23"></image></g></g><!--z-index:26--><g   id="j_5"  transform="translate(200,1644)" style=""><g  id="v-29" style="opacity: 1;"><rect  x="0" y="160" width="400" height="240" rx="70" id="v-31" stroke-width="2" pointer-events="visiblePainted" fill="#374151" stroke="#323b49" stroke-dasharray="" style="fill: rgb(55, 65, 81); stroke: rgb(50, 59, 73);"></rect><circle  cx="200" cy="88.88888888888889" r="88.88888888888889" id="v-30" stroke-width="2" pointer-events="visiblePainted" fill="#374151" stroke="#323b49" stroke-dasharray="" style="fill: rgb(55, 65, 81); stroke: rgb(50, 59, 73);"></circle><line  x1="80" y1="266.6666666666667" x2="80" y2="400" id="v-37" stroke="#323b49" stroke-width="1" stroke-dasharray="" style="stroke: rgb(50, 59, 73);"></line><line  x1="320" y1="266.6666666666667" x2="320" y2="400" id="v-38" stroke="#323b49" stroke-width="1" stroke-dasharray="" style="stroke: rgb(50, 59, 73);"></line><text  id="v-32" font-size="33.599999999999994px" xml:space="preserve" y="216.9" font-weight="bold" text-anchor="middle" pointer-events="visible" font-family="Tahoma, Verdana, Helvetica, Arial" fill="#cccccc" dominant-baseline="hanging" transform="matrix(1,0,0,1,200,0)" style="fill: rgb(204, 204, 204);"><tspan dy="0" >Home User</tspan></text><text  id="v-33" font-size="16.799999999999997px" xml:space="preserve" y="258.5" text-anchor="middle" font-family="Tahoma, Verdana, Helvetica, Arial" fill="#cccccc" dominant-baseline="hanging" transform="matrix(1,0,0,1,200,0)" style="display: block; fill: rgb(204, 204, 204);"><tspan dy="0" >[Person]</tspan></text><text  id="v-34" font-size="24px" xml:space="preserve" y="290.3" text-anchor="middle" font-family="Tahoma, Verdana, Helvetica, Arial" fill="#cccccc" dominant-baseline="hanging" transform="matrix(1,0,0,1,200,0)" style="display: block; fill: rgb(204, 204, 204);"><tspan dy="0" >Customer who uses a personal</tspan><tspan dy="1.2em" x="0" >air sensor at home.</tspan></text><g  id="v-35" font-weight="normal" text-anchor="middle" color="#cccccc" transform="matrix(1,0,0,1,197.5,368)" style="fill: rgb(204, 204, 204);" display="none"><g ></g><g ></g><g ></g><g ></g></g><image  id="v-36"></image></g></g><!--z-index:27--><g   id="j_6"  transform="translate(940,755)" style=""><g  id="v-42" style="opacity: 1;"><rect  id="v-43" rx="1" ry="1" stroke-width="2" pointer-events="visiblePainted" fill="#111111" stroke="#cccccc" stroke-dasharray="" width="450" height="300" style="fill: rgb(17, 17, 17); stroke: rgb(204, 204, 204);"></rect><text  id="v-44" font-size="33.599999999999994px" xml:space="preserve" y="86.9" font-weight="bold" text-anchor="middle" pointer-events="visible" font-family="Tahoma, Verdana, Helvetica, Arial" fill="#cccccc" dominant-baseline="hanging" transform="matrix(1,0,0,1,225,0)" style="fill: rgb(204, 204, 204);"><tspan dy="0" >Vanana Platform</tspan></text><text  id="v-45" font-size="16.799999999999997px" xml:space="preserve" y="128.5" text-anchor="middle" font-family="Tahoma, Verdana, Helvetica, Arial" fill="#cccccc" dominant-baseline="hanging" transform="matrix(1,0,0,1,225,0)" style="display: block; fill: rgb(204, 204, 204);"><tspan dy="0" >[Software System]</tspan></text><text  id="v-46" font-size="24px" xml:space="preserve" y="160.3" text-anchor="middle" font-family="Tahoma, Verdana, Helvetica, Arial" fill="#cccccc" dominant-baseline="hanging" transform="matrix(1,0,0,1,225,0)" style="display: block; fill: rgb(204, 204, 204);"><tspan dy="0" >Central platform for monitoring and</tspan><tspan dy="1.2em" x="0" >automating IoT air quality devices.</tspan></text><g  id="v-47" color="#cccccc" transform="matrix(1,0,0,1,222.5,268)" style="fill: rgb(204, 204, 204);" display="none"><g ></g><g ></g><g ></g><g ></g></g><image  id="v-48"></image></g></g><!--z-index:28--><g   id="j_7"  transform="translate(2520,426)" style=""><g  id="v-52" style="opacity: 1;"><rect  id="v-53" rx="1" ry="1" stroke-width="2" pointer-events="visiblePainted" fill="#111111" stroke="#cccccc" stroke-dasharray="" width="450" height="300" style="fill: rgb(17, 17, 17); stroke: rgb(204, 204, 204);"></rect><text  id="v-54" font-size="33.599999999999994px" xml:space="preserve" y="101.30000000000001" font-weight="bold" text-anchor="middle" pointer-events="visible" font-family="Tahoma, Verdana, Helvetica, Arial" fill="#cccccc" dominant-baseline="hanging" transform="matrix(1,0,0,1,225,0)" style="fill: rgb(204, 204, 204);"><tspan dy="0" >Google OAuth2</tspan></text><text  id="v-55" font-size="16.799999999999997px" xml:space="preserve" y="142.9" text-anchor="middle" font-family="Tahoma, Verdana, Helvetica, Arial" fill="#cccccc" dominant-baseline="hanging" transform="matrix(1,0,0,1,225,0)" style="display: block; fill: rgb(204, 204, 204);"><tspan dy="0" >[Software System]</tspan></text><text  id="v-56" font-size="24px" xml:space="preserve" y="174.7" text-anchor="middle" font-family="Tahoma, Verdana, Helvetica, Arial" fill="#cccccc" dominant-baseline="hanging" transform="matrix(1,0,0,1,225,0)" style="display: block; fill: rgb(204, 204, 204);"><tspan dy="0" >External authentication service.</tspan></text><g  id="v-57" color="#cccccc" transform="matrix(1,0,0,1,222.5,268)" style="fill: rgb(204, 204, 204);" display="none"><g ></g><g ></g><g ></g><g ></g></g><image  id="v-58"></image></g></g><!--z-index:29--><g   id="j_8"  transform="translate(1730,405)" style=""><g  id="v-62" style="opacity: 1;"><rect  id="v-63" rx="1" ry="1" stroke-width="2" pointer-events="visiblePainted" fill="#111111" stroke="#cccccc" stroke-dasharray="" width="450" height="300" style="fill: rgb(17, 17, 17); stroke: rgb(204, 204, 204);"></rect><text  id="v-64" font-size="33.599999999999994px" xml:space="preserve" y="86.9" font-weight="bold" text-anchor="middle" pointer-events="visible" font-family="Tahoma, Verdana, Helvetica, Arial" fill="#cccccc" dominant-baseline="hanging" transform="matrix(1,0,0,1,225,0)" style="fill: rgb(204, 204, 204);"><tspan dy="0" >Stripe</tspan></text><text  id="v-65" font-size="16.799999999999997px" xml:space="preserve" y="128.5" text-anchor="middle" font-family="Tahoma, Verdana, Helvetica, Arial" fill="#cccccc" dominant-baseline="hanging" transform="matrix(1,0,0,1,225,0)" style="display: block; fill: rgb(204, 204, 204);"><tspan dy="0" >[Software System]</tspan></text><text  id="v-66" font-size="24px" xml:space="preserve" y="160.3" text-anchor="middle" font-family="Tahoma, Verdana, Helvetica, Arial" fill="#cccccc" dominant-baseline="hanging" transform="matrix(1,0,0,1,225,0)" style="display: block; fill: rgb(204, 204, 204);"><tspan dy="0" >External payment processing</tspan><tspan dy="1.2em" x="0" >platform.</tspan></text><g  id="v-67" color="#cccccc" transform="matrix(1,0,0,1,222.5,268)" style="fill: rgb(204, 204, 204);" display="none"><g ></g><g ></g><g ></g><g ></g></g><image  id="v-68"></image></g></g><!--z-index:30--><g   id="j_9"  transform="translate(1730,755)" style=""><g  id="v-72" style="opacity: 1;"><rect  id="v-73" rx="1" ry="1" stroke-width="2" pointer-events="visiblePainted" fill="#111111" stroke="#cccccc" stroke-dasharray="" width="450" height="300" style="fill: rgb(17, 17, 17); stroke: rgb(204, 204, 204);"></rect><text  id="v-74" font-size="33.599999999999994px" xml:space="preserve" y="86.9" font-weight="bold" text-anchor="middle" pointer-events="visible" font-family="Tahoma, Verdana, Helvetica, Arial" fill="#cccccc" dominant-baseline="hanging" transform="matrix(1,0,0,1,225,0)" style="fill: rgb(204, 204, 204);"><tspan dy="0" >Resend</tspan></text><text  id="v-75" font-size="16.799999999999997px" xml:space="preserve" y="128.5" text-anchor="middle" font-family="Tahoma, Verdana, Helvetica, Arial" fill="#cccccc" dominant-baseline="hanging" transform="matrix(1,0,0,1,225,0)" style="display: block; fill: rgb(204, 204, 204);"><tspan dy="0" >[Software System]</tspan></text><text  id="v-76" font-size="24px" xml:space="preserve" y="160.3" text-anchor="middle" font-family="Tahoma, Verdana, Helvetica, Arial" fill="#cccccc" dominant-baseline="hanging" transform="matrix(1,0,0,1,225,0)" style="display: block; fill: rgb(204, 204, 204);"><tspan dy="0" >External transactional email delivery</tspan><tspan dy="1.2em" x="0" >platform.</tspan></text><g  id="v-77" color="#cccccc" transform="matrix(1,0,0,1,222.5,268)" style="fill: rgb(204, 204, 204);" display="none"><g ></g><g ></g><g ></g><g ></g></g><image  id="v-78"></image></g></g><!--z-index:31--><g   id="j_10"  transform="translate(1730,1105)" style=""><g  id="v-82" style="opacity: 1;"><rect  id="v-83" rx="1" ry="1" stroke-width="2" pointer-events="visiblePainted" fill="#111111" stroke="#cccccc" stroke-dasharray="" width="450" height="300" style="fill: rgb(17, 17, 17); stroke: rgb(204, 204, 204);"></rect><text  id="v-84" font-size="33.599999999999994px" xml:space="preserve" y="86.9" font-weight="bold" text-anchor="middle" pointer-events="visible" font-family="Tahoma, Verdana, Helvetica, Arial" fill="#cccccc" dominant-baseline="hanging" transform="matrix(1,0,0,1,225,0)" style="fill: rgb(204, 204, 204);"><tspan dy="0" >Clair Hardware</tspan></text><text  id="v-85" font-size="16.799999999999997px" xml:space="preserve" y="128.5" text-anchor="middle" font-family="Tahoma, Verdana, Helvetica, Arial" fill="#cccccc" dominant-baseline="hanging" transform="matrix(1,0,0,1,225,0)" style="display: block; fill: rgb(204, 204, 204);"><tspan dy="0" >[Software System]</tspan></text><text  id="v-86" font-size="24px" xml:space="preserve" y="160.3" text-anchor="middle" font-family="Tahoma, Verdana, Helvetica, Arial" fill="#cccccc" dominant-baseline="hanging" transform="matrix(1,0,0,1,225,0)" style="display: block; fill: rgb(204, 204, 204);"><tspan dy="0" >Physical air quality sensors and</tspan><tspan dy="1.2em" x="0" >actuators.</tspan></text><g  id="v-87" color="#cccccc" transform="matrix(1,0,0,1,222.5,268)" style="fill: rgb(204, 204, 204);" display="none"><g ></g><g ></g><g ></g><g ></g></g><image  id="v-88"></image></g></g><!--z-index:32--><g   id="j_11"  transform="translate(1730,1455)" style=""><g  id="v-92" style="opacity: 1;"><rect  id="v-93" rx="1" ry="1" stroke-width="2" pointer-events="visiblePainted" fill="#111111" stroke="#cccccc" stroke-dasharray="" width="450" height="300" style="fill: rgb(17, 17, 17); stroke: rgb(204, 204, 204);"></rect><text  id="v-94" font-size="33.599999999999994px" xml:space="preserve" y="86.9" font-weight="bold" text-anchor="middle" pointer-events="visible" font-family="Tahoma, Verdana, Helvetica, Arial" fill="#cccccc" dominant-baseline="hanging" transform="matrix(1,0,0,1,225,0)" style="fill: rgb(204, 204, 204);"><tspan dy="0" >OneSignal</tspan></text><text  id="v-95" font-size="16.799999999999997px" xml:space="preserve" y="128.5" text-anchor="middle" font-family="Tahoma, Verdana, Helvetica, Arial" fill="#cccccc" dominant-baseline="hanging" transform="matrix(1,0,0,1,225,0)" style="display: block; fill: rgb(204, 204, 204);"><tspan dy="0" >[Software System]</tspan></text><text  id="v-96" font-size="24px" xml:space="preserve" y="160.3" text-anchor="middle" font-family="Tahoma, Verdana, Helvetica, Arial" fill="#cccccc" dominant-baseline="hanging" transform="matrix(1,0,0,1,225,0)" style="display: block; fill: rgb(204, 204, 204);"><tspan dy="0" >External push notification and user</tspan><tspan dy="1.2em" x="0" >messaging provider.</tspan></text><g  id="v-97" color="#cccccc" transform="matrix(1,0,0,1,222.5,268)" style="fill: rgb(204, 204, 204);" display="none"><g ></g><g ></g><g ></g><g ></g></g><image  id="v-98"></image></g></g><!--z-index:33--><g   id="j_12"  style="opacity: 1;"><path fill="none" cursor="pointer" stroke="transparent" stroke-linecap="round" joint-selector="wrapper" id="v-110" stroke-width="10" stroke-linejoin="round" d="M 600 276.19 L 761 179 C 766.9999999999999 175.89999999999992 773.3333333333333 174.23333333333326 780 174 L 2340 174 C 2346.6666666666665 174.23333333333326 2352.333333333333 176.5666666666666 2357 181 L 2597.48 426" style="stroke-width: 10px;"></path><path fill="none" pointer-events="none" joint-selector="line" id="v-109" stroke="#cccccc" stroke-width="2" stroke-linejoin="round" stroke-dasharray="8 8" d="M 600 276.19 L 761 179 C 766.9999999999999 175.89999999999992 773.3333333333333 174.23333333333326 780 174 L 2340 174 C 2346.6666666666665 174.23333333333326 2352.333333333333 176.5666666666666 2357 181 L 2597.48 426" marker-end="url(#v-2-527367903)"></path><g id="v-102" ><g id="v-103"  label-idx="0" cursor="move" transform="matrix(1,0,0,1,1559.6153564453125,174)" style="cursor: default;"><rect joint-selector="rect" id="v-106" fill="#111111" rx="3" ry="3" x="-90.08613586425781" y="-31.01285743713379" width="180.17227172851562" height="58.215885162353516" pointer-events="none"  style="display: block;"></rect><text joint-selector="text" id="v-105" font-size="24px" xml:space="preserve" fill="#cccccc" text-anchor="middle" pointer-events="none" font-family="Tahoma, Verdana, Helvetica, Arial" font-weight="normal"  style="display: block;"><tspan dy="-0.3em" >Authenticates</tspan><tspan dy="1.2em" x="0" >using social login</tspan></text></g><g id="v-104"  label-idx="1" cursor="move" transform="matrix(1,0,0,1,1549.6153564453125,200.39999389648438)" style="cursor: default;"><rect joint-selector="rect" id="v-108" fill="#ffffff" rx="3" ry="3" x="0" y="0" width="0" height="0"  display="none"></rect><text joint-selector="text" id="v-107" fill="#000000" font-size="14" text-anchor="middle" text-vertical-anchor="middle" pointer-events="none"></text></g></g></g><!--z-index:34--><g   id="j_13"  style="opacity: 1;"><path fill="none" cursor="pointer" stroke="transparent" stroke-linecap="round" joint-selector="wrapper" id="v-124" stroke-width="10" stroke-linejoin="round" d="M 600 325.27 L 761 268 C 766.9999999999999 266.1 773.3333333333333 265.1 780 265 L 1550 265 C 1556.6666666666665 265.1 1562.6666666666665 267.1 1568 271 L 1750.58 405" style="stroke-width: 10px;"></path><path fill="none" pointer-events="none" joint-selector="line" id="v-123" stroke="#cccccc" stroke-width="2" stroke-linejoin="round" stroke-dasharray="8 8" d="M 600 325.27 L 761 268 C 766.9999999999999 266.1 773.3333333333333 265.1 780 265 L 1550 265 C 1556.6666666666665 265.1 1562.6666666666665 267.1 1568 271 L 1750.58 405" marker-end="url(#v-2-527367903)"></path><g id="v-116" ><g id="v-117"  label-idx="0" cursor="move" transform="matrix(1,0,0,1,1164.2467041015625,265)" style="cursor: default;"><rect joint-selector="rect" id="v-120" fill="#111111" rx="3" ry="3" x="-86.57330322265625" y="-45.41285705566406" width="173.1466064453125" height="87.01588439941406" pointer-events="none"  style="display: block;"></rect><text joint-selector="text" id="v-119" font-size="24px" xml:space="preserve" fill="#cccccc" text-anchor="middle" pointer-events="none" font-family="Tahoma, Verdana, Helvetica, Arial" font-weight="normal"  style="display: block;"><tspan dy="-0.8999999999999999em" >Manages</tspan><tspan dy="1.2em" x="0" >subscription and</tspan><tspan dy="1.2em" x="0" >payments</tspan></text></g><g id="v-118"  label-idx="1" cursor="move" transform="matrix(1,0,0,1,1154.2467041015625,305.79998779296875)" style="cursor: default;"><rect joint-selector="rect" id="v-122" fill="#ffffff" rx="3" ry="3" x="-1.1368683772161603e-13" y="0" width="0" height="0"  display="none"></rect><text joint-selector="text" id="v-121" fill="#000000" font-size="14" text-anchor="middle" text-vertical-anchor="middle" pointer-events="none"></text></g></g></g><!--z-index:35--><g   id="j_14"  style="opacity: 1;"><path fill="none" cursor="pointer" stroke="transparent" stroke-linecap="round" joint-selector="wrapper" id="v-136" stroke-width="10" stroke-linejoin="round" d="M 600 1748.73 L 761 1672 C 766.9999999999999 1669.1666666666665 771.6666666666665 1664.8333333333333 775 1659 L 1087.32 1055" style="stroke-width: 10px;"></path><path fill="none" pointer-events="none" joint-selector="line" id="v-135" stroke="#cccccc" stroke-width="2" stroke-linejoin="round" stroke-dasharray="8 8" d="M 600 1748.73 L 761 1672 C 766.9999999999999 1669.1666666666665 771.6666666666665 1664.8333333333333 775 1659 L 1087.32 1055" marker-end="url(#v-2-527367903)"></path><g id="v-128" ><g id="v-129"  label-idx="0" cursor="move" transform="matrix(1,0,0,1,769.2719116210938,1666.369384765625)" style="cursor: default;"><rect joint-selector="rect" id="v-132" fill="#111111" rx="3" ry="3" x="-95.85330963134766" y="-31.01285743713379" width="192.85398864746094" height="58.215885162353516" pointer-events="none"  style="display: block;"></rect><text joint-selector="text" id="v-131" font-size="24px" xml:space="preserve" fill="#cccccc" text-anchor="middle" pointer-events="none" font-family="Tahoma, Verdana, Helvetica, Arial" font-weight="normal"  style="display: block;"><tspan dy="-0.3em" >Monitors home air</tspan><tspan dy="1.2em" x="0" >quality</tspan></text></g><g id="v-130"  label-idx="1" cursor="move" transform="matrix(1,0,0,1,759.2719116210938,1692.7694091796875)" style="cursor: default;"><rect joint-selector="rect" id="v-134" fill="#ffffff" rx="3" ry="3" x="1.1368683772161603e-13" y="0" width="0" height="0"  display="none"></rect><text joint-selector="text" id="v-133" fill="#000000" font-size="14" text-anchor="middle" text-vertical-anchor="middle" pointer-events="none"></text></g></g></g><!--z-index:36--><g   id="j_15"  style="opacity: 1;"><path fill="none" cursor="pointer" stroke="transparent" stroke-linecap="round" joint-selector="wrapper" id="v-148" stroke-width="10" stroke-linejoin="round" d="M 600 1823.43 L 760 1807 C 766.6666666666665 1806.3 773.3333333333333 1805.9666666666667 780 1806 L 2340 1806 C 2346.6666666666665 1805.9666666666667 2351 1802.6333333333332 2353 1796 L 2696.83 726" style="stroke-width: 10px;"></path><path fill="none" pointer-events="none" joint-selector="line" id="v-147" stroke="#cccccc" stroke-width="2" stroke-linejoin="round" stroke-dasharray="8 8" d="M 600 1823.43 L 760 1807 C 766.6666666666665 1806.3 773.3333333333333 1805.9666666666667 780 1806 L 2340 1806 C 2346.6666666666665 1805.9666666666667 2351 1802.6333333333332 2353 1796 L 2696.83 726" marker-end="url(#v-2-527367903)"></path><g id="v-140" ><g id="v-141"  label-idx="0" cursor="move" transform="matrix(1,0,0,1,1559.263427734375,1806)" style="cursor: default;"><rect joint-selector="rect" id="v-144" fill="#111111" rx="3" ry="3" x="-90.08613586425781" y="-31.01285743713379" width="180.17227172851562" height="58.215885162353516" pointer-events="none"  style="display: block;"></rect><text joint-selector="text" id="v-143" font-size="24px" xml:space="preserve" fill="#cccccc" text-anchor="middle" pointer-events="none" font-family="Tahoma, Verdana, Helvetica, Arial" font-weight="normal"  style="display: block;"><tspan dy="-0.3em" >Authenticates</tspan><tspan dy="1.2em" x="0" >using social login</tspan></text></g><g id="v-142"  label-idx="1" cursor="move" transform="matrix(1,0,0,1,1549.263427734375,1832.4000244140625)" style="cursor: default;"><rect joint-selector="rect" id="v-146" fill="#ffffff" rx="3" ry="3" x="2.2737367544323206e-13" y="0" width="0" height="0"  display="none"></rect><text joint-selector="text" id="v-145" fill="#000000" font-size="14" text-anchor="middle" text-vertical-anchor="middle" pointer-events="none"></text></g></g></g><!--z-index:37--><g   id="j_16"  style="opacity: 1;"><path fill="none" cursor="pointer" stroke="transparent" stroke-linecap="round" joint-selector="wrapper" id="v-160" stroke-width="10" stroke-linejoin="round" d="M 600 1864.73 L 760 1881 C 766.6666666666665 1881.8999999999999 773.3333333333333 1882.2333333333331 780 1882 L 1550 1882 C 1556.6666666666665 1882.2333333333331 1561 1879.2333333333331 1563 1873 L 1910.36 705" style="stroke-width: 10px;"></path><path fill="none" pointer-events="none" joint-selector="line" id="v-159" stroke="#cccccc" stroke-width="2" stroke-linejoin="round" stroke-dasharray="8 8" d="M 600 1864.73 L 760 1881 C 766.6666666666665 1881.8999999999999 773.3333333333333 1882.2333333333331 780 1882 L 1550 1882 C 1556.6666666666665 1882.2333333333331 1561 1879.2333333333331 1563 1873 L 1910.36 705" marker-end="url(#v-2-527367903)"></path><g id="v-152" ><g id="v-153"  label-idx="0" cursor="move" transform="matrix(1,0,0,1,1164.58544921875,1882)" style="cursor: default;"><rect joint-selector="rect" id="v-156" fill="#111111" rx="3" ry="3" x="-72.89404296875" y="-31.01285743713379" width="145.7880859375" height="58.215885162353516" pointer-events="none"  style="display: block;"></rect><text joint-selector="text" id="v-155" font-size="24px" xml:space="preserve" fill="#cccccc" text-anchor="middle" pointer-events="none" font-family="Tahoma, Verdana, Helvetica, Arial" font-weight="normal"  style="display: block;"><tspan dy="-0.3em" >Subscribes to</tspan><tspan dy="1.2em" x="0" >premium plan</tspan></text></g><g id="v-154"  label-idx="1" cursor="move" transform="matrix(1,0,0,1,1154.58544921875,1908.4000244140625)" style="cursor: default;"><rect joint-selector="rect" id="v-158" fill="#ffffff" rx="3" ry="3" x="0" y="0" width="0" height="0"  display="none"></rect><text joint-selector="text" id="v-157" fill="#000000" font-size="14" text-anchor="middle" text-vertical-anchor="middle" pointer-events="none"></text></g></g></g><!--z-index:38--><g   id="j_17"  style="opacity: 1;"><path fill="none" cursor="pointer" stroke="transparent" stroke-linecap="round" joint-selector="wrapper" id="v-172" stroke-width="10" stroke-linejoin="round" d="M 1265.45 755 L 1554 323 C 1558 317.7666666666667 1563.3333333333333 315.1 1570 315 L 2340 315 C 2346.6666666666665 315.1 2352.6666666666665 317.1 2358 321 L 2520 427.41" style="stroke-width: 10px;"></path><path fill="none" pointer-events="none" joint-selector="line" id="v-171" stroke="#cccccc" stroke-width="2" stroke-linejoin="round" stroke-dasharray="8 8" d="M 1265.45 755 L 1554 323 C 1558 317.7666666666667 1563.3333333333333 315.1 1570 315 L 2340 315 C 2346.6666666666665 315.1 2352.6666666666665 317.1 2358 321 L 2520 427.41" marker-end="url(#v-2-527367903)"></path><g id="v-164" ><g id="v-165"  label-idx="0" cursor="move" transform="matrix(1,0,0,1,1955.43017578125,315)" style="cursor: default;"><rect joint-selector="rect" id="v-168" fill="#111111" rx="3" ry="3" x="-91.26802062988281" y="-45.41285705566406" width="183.06150817871094" height="87.01588439941406" pointer-events="none"  style="display: block;"></rect><text joint-selector="text" id="v-167" font-size="24px" xml:space="preserve" fill="#cccccc" text-anchor="middle" pointer-events="none" font-family="Tahoma, Verdana, Helvetica, Arial" font-weight="normal"  style="display: block;"><tspan dy="-0.8999999999999999em" >Authenticates</tspan><tspan dy="1.2em" x="0" >users via OpenID</tspan><tspan dy="1.2em" x="0" >Connect</tspan></text></g><g id="v-166"  label-idx="1" cursor="move" transform="matrix(1,0,0,1,1945.43017578125,355.79998779296875)" style="cursor: default;"><rect joint-selector="rect" id="v-170" fill="#ffffff" rx="3" ry="3" x="0" y="0" width="0" height="0"  display="none"></rect><text joint-selector="text" id="v-169" fill="#000000" font-size="14" text-anchor="middle" text-vertical-anchor="middle" pointer-events="none"></text></g></g></g><!--z-index:39--><g   id="j_18"  style="opacity: 1;"><path fill="none" cursor="pointer" stroke="transparent" stroke-linecap="round" joint-selector="wrapper" id="v-184" stroke-width="10" stroke-linejoin="round" d="M 1334.75 755 L 1553 563 C 1557.6666666666665 558.2999999999998 1563.3333333333333 555.9666666666665 1570 556 L 1730 555.54" style="stroke-width: 10px;"></path><path fill="none" pointer-events="none" joint-selector="line" id="v-183" stroke="#cccccc" stroke-width="2" stroke-linejoin="round" stroke-dasharray="8 8" d="M 1334.75 755 L 1553 563 C 1557.6666666666665 558.2999999999998 1563.3333333333333 555.9666666666665 1570 556 L 1730 555.54" marker-end="url(#v-2-527367903)"></path><g id="v-176" ><g id="v-177"  label-idx="0" cursor="move" transform="matrix(1,0,0,1,1560.916259765625,557.6572875976562)" style="cursor: default;"><rect joint-selector="rect" id="v-180" fill="#111111" rx="3" ry="3" x="-74.62310028076172" y="-45.41285705566406" width="149.24620056152344" height="87.01588439941406" pointer-events="none"  style="display: block;"></rect><text joint-selector="text" id="v-179" font-size="24px" xml:space="preserve" fill="#cccccc" text-anchor="middle" pointer-events="none" font-family="Tahoma, Verdana, Helvetica, Arial" font-weight="normal"  style="display: block;"><tspan dy="-0.8999999999999999em" >Processes</tspan><tspan dy="1.2em" x="0" >payments and</tspan><tspan dy="1.2em" x="0" >subscriptions</tspan></text></g><g id="v-178"  label-idx="1" cursor="move" transform="matrix(1,0,0,1,1550.916259765625,598.4573364257812)" style="cursor: default;"><rect joint-selector="rect" id="v-182" fill="#ffffff" rx="3" ry="3" x="-2.2737367544323206e-13" y="1.1368683772161603e-13" width="0" height="0"  display="none"></rect><text joint-selector="text" id="v-181" fill="#000000" font-size="14" text-anchor="middle" text-vertical-anchor="middle" pointer-events="none"></text></g></g></g><!--z-index:40--><g   id="j_19"  style="opacity: 1;"><path fill="none" cursor="pointer" stroke="transparent" stroke-linecap="round" joint-selector="wrapper" id="v-196" stroke-width="10" stroke-linejoin="round" d="M 1390 905 L 1730 905" style="stroke-width: 10px;"></path><path fill="none" pointer-events="none" joint-selector="line" id="v-195" stroke="#cccccc" stroke-width="2" stroke-linejoin="round" stroke-dasharray="8 8" d="M 1390 905 L 1730 905" marker-end="url(#v-2-527367903)"></path><g id="v-188" ><g id="v-189"  label-idx="0" cursor="move" transform="matrix(1,0,0,1,1560,905)" style="cursor: default;"><rect joint-selector="rect" id="v-192" fill="#111111" rx="3" ry="3" x="-67.291015625" y="-45.41285705566406" width="134.58203125" height="87.01588439941406" pointer-events="none"  style="display: block;"></rect><text joint-selector="text" id="v-191" font-size="24px" xml:space="preserve" fill="#cccccc" text-anchor="middle" pointer-events="none" font-family="Tahoma, Verdana, Helvetica, Arial" font-weight="normal"  style="display: block;"><tspan dy="-0.8999999999999999em" >Sends</tspan><tspan dy="1.2em" x="0" >transactional</tspan><tspan dy="1.2em" x="0" >emails</tspan></text></g><g id="v-190"  label-idx="1" cursor="move" transform="matrix(1,0,0,1,1550,945.7999877929688)" style="cursor: default;"><rect joint-selector="rect" id="v-194" fill="#ffffff" rx="3" ry="3" x="0" y="0" width="0" height="0"  display="none"></rect><text joint-selector="text" id="v-193" fill="#000000" font-size="14" text-anchor="middle" text-vertical-anchor="middle" pointer-events="none"></text></g></g></g><!--z-index:41--><g   id="j_20"  style="opacity: 1;"><path fill="none" cursor="pointer" stroke="transparent" stroke-linecap="round" joint-selector="wrapper" id="v-208" stroke-width="10" stroke-linejoin="round" d="M 1333.83 1055 L 1553 1249 C 1557.6666666666665 1253.6333333333332 1563.3333333333333 1255.9666666666667 1570 1256 L 1730 1255.54" style="stroke-width: 10px;"></path><path fill="none" pointer-events="none" joint-selector="line" id="v-207" stroke="#cccccc" stroke-width="2" stroke-linejoin="round" stroke-dasharray="8 8" d="M 1333.83 1055 L 1553 1249 C 1557.6666666666665 1253.6333333333332 1563.3333333333333 1255.9666666666667 1570 1256 L 1730 1255.54" marker-end="url(#v-2-527367903)"></path><g id="v-200" ><g id="v-201"  label-idx="0" cursor="move" transform="matrix(1,0,0,1,1560.2545166015625,1254.0140380859375)" style="cursor: default;"><rect joint-selector="rect" id="v-204" fill="#111111" rx="3" ry="3" x="-96.53179931640625" y="-31.01285743713379" width="193.72274780273438" height="58.215885162353516" pointer-events="none"  style="display: block;"></rect><text joint-selector="text" id="v-203" font-size="24px" xml:space="preserve" fill="#cccccc" text-anchor="middle" pointer-events="none" font-family="Tahoma, Verdana, Helvetica, Arial" font-weight="normal"  style="display: block;"><tspan dy="-0.3em" >Commands and</tspan><tspan dy="1.2em" x="0" >receives telemetry</tspan></text></g><g id="v-202"  label-idx="1" cursor="move" transform="matrix(1,0,0,1,1550.2545166015625,1280.4139404296875)" style="cursor: default;"><rect joint-selector="rect" id="v-206" fill="#ffffff" rx="3" ry="3" x="0" y="0" width="0" height="0"  display="none"></rect><text joint-selector="text" id="v-205" fill="#000000" font-size="14" text-anchor="middle" text-vertical-anchor="middle" pointer-events="none"></text></g></g></g><!--z-index:42--><g   id="j_21"  style="opacity: 1;"><path fill="none" cursor="pointer" stroke="transparent" stroke-linecap="round" joint-selector="wrapper" id="v-220" stroke-width="10" stroke-linejoin="round" d="M 1249.53 1055 L 1555 1597 C 1558.3333333333333 1602.9666666666665 1563.3333333333333 1605.9666666666665 1570 1606 L 1730 1605.54" style="stroke-width: 10px;"></path><path fill="none" pointer-events="none" joint-selector="line" id="v-219" stroke="#cccccc" stroke-width="2" stroke-linejoin="round" stroke-dasharray="8 8" d="M 1249.53 1055 L 1555 1597 C 1558.3333333333333 1602.9666666666665 1563.3333333333333 1605.9666666666665 1570 1606 L 1730 1605.54" marker-end="url(#v-2-527367903)"></path><g id="v-212" ><g id="v-213"  label-idx="0" cursor="move" transform="matrix(1,0,0,1,1560.7001953125,1603.3787841796875)" style="cursor: default;"><rect joint-selector="rect" id="v-216" fill="#111111" rx="3" ry="3" x="-97.56048583984375" y="-59.8128547668457" width="195.49417114257812" height="115.81587982177734" pointer-events="none"  style="display: block;"></rect><text joint-selector="text" id="v-215" font-size="24px" xml:space="preserve" fill="#cccccc" text-anchor="middle" pointer-events="none" font-family="Tahoma, Verdana, Helvetica, Arial" font-weight="normal"  style="display: block;"><tspan dy="-1.4999999999999998em" >Receives push</tspan><tspan dy="1.2em" x="0" >notifications about</tspan><tspan dy="1.2em" x="0" >home air quality</tspan><tspan dy="1.2em" x="0" >alerts</tspan></text></g><g id="v-214"  label-idx="1" cursor="move" transform="matrix(1,0,0,1,1550.7001953125,1658.5787353515625)" style="cursor: default;"><rect joint-selector="rect" id="v-218" fill="#ffffff" rx="3" ry="3" x="0" y="0" width="0" height="0"  display="none"></rect><text joint-selector="text" id="v-217" fill="#000000" font-size="14" text-anchor="middle" text-vertical-anchor="middle" pointer-events="none"></text></g></g></g><!--z-index:43--><g   id="j_22"  style="opacity: 1;"><path fill="none" cursor="pointer" stroke="transparent" stroke-linecap="round" joint-selector="wrapper" id="v-235" stroke-width="10" stroke-linejoin="round" d="M 2180 555.54 L 2340 556 C 2346.6666666666665 555.9666666666665 2353.333333333333 555.9666666666665 2360 556 L 2520 564.58" style="stroke-width: 10px;"></path><path fill="none" pointer-events="none" joint-selector="line" id="v-234" stroke="#cccccc" stroke-width="2" stroke-linejoin="round" stroke-dasharray="8 8" d="M 2180 555.54 L 2340 556 C 2346.6666666666665 555.9666666666665 2353.333333333333 555.9666666666665 2360 556 L 2520 564.58" marker-end="url(#v-2-527367903)"></path><g id="v-224" ><g id="v-225"  label-idx="0" cursor="move" transform="matrix(1,0,0,1,2350,542.5750122070312)" style="cursor: default;"><rect joint-selector="rect" id="v-229" fill="#111111" rx="3" ry="3" x="-85.93858337402344" y="-45.41285705566406" width="172.5224609375" height="87.01588439941406" pointer-events="none"  style="display: block;"></rect><text joint-selector="text" id="v-228" font-size="24px" xml:space="preserve" fill="#cccccc" text-anchor="middle" pointer-events="none" font-family="Tahoma, Verdana, Helvetica, Arial" font-weight="normal"  style="display: block;"><tspan dy="-0.8999999999999999em" >Uses for identity</tspan><tspan dy="1.2em" x="0" >verification on</tspan><tspan dy="1.2em" x="0" >checkout</tspan></text></g><g id="v-226"  label-idx="1" cursor="move" transform="matrix(1,0,0,1,2350,601.7750244140625)" style="cursor: default;"><rect joint-selector="rect" id="v-231" fill="#111111" rx="3" ry="3" x="-34.11060333251953" y="-11.769074440002441" width="68.22120666503906" height="21.011343002319336"  pointer-events="none" style="display: block;"></rect><text joint-selector="text" id="v-230" font-size="16.799999999999997px" xml:space="preserve" fill="#cccccc" text-anchor="middle" pointer-events="none" font-family="Tahoma, Verdana, Helvetica, Arial" font-weight="normal"  style="display: block;"><tspan dy="0.3em" >[OAuth2]</tspan></text></g><g id="v-227"  label-idx="2" cursor="move" transform="matrix(1,0,0,1,2340.1171875,610.1749877929688)" style="cursor: default;"><rect joint-selector="rect" id="v-233" fill="#ffffff" rx="3" ry="3" x="0" y="0" width="0" height="0"  display="none"></rect><text joint-selector="text" id="v-232" fill="#000000" font-size="14" text-anchor="middle" text-vertical-anchor="middle" pointer-events="none"></text></g></g></g><!--z-index:44--><g   id="j_23"  style="opacity: 1;"><path fill="none" cursor="pointer" stroke="transparent" stroke-linecap="round" joint-selector="wrapper" id="v-247" stroke-width="10" stroke-linejoin="round" d="M 552.2 596 L 764 874 C 767.9999999999999 879.4666666666667 773.3333333333333 882.4666666666667 780 883 L 940 892.01" style="stroke-width: 10px;"></path><path fill="none" pointer-events="none" joint-selector="line" id="v-246" stroke="#cccccc" stroke-width="2" stroke-linejoin="round" stroke-dasharray="8 8" d="M 552.2 596 L 764 874 C 767.9999999999999 879.4666666666667 773.3333333333333 882.4666666666667 780 883 L 940 892.01" marker-end="url(#v-2-527367903)"></path><g id="v-239" ><g id="v-240"  label-idx="0" cursor="move" transform="matrix(1,0,0,1,770.8130493164062,880.2435302734375)" style="cursor: default;"><rect joint-selector="rect" id="v-243" fill="#111111" rx="3" ry="3" x="-92.7563247680664" y="-45.41285705566406" width="186.00880432128906" height="87.01588439941406" pointer-events="none"  style="display: block;"></rect><text joint-selector="text" id="v-242" font-size="24px" xml:space="preserve" fill="#cccccc" text-anchor="middle" pointer-events="none" font-family="Tahoma, Verdana, Helvetica, Arial" font-weight="normal"  style="display: block;"><tspan dy="-0.8999999999999999em" >Manages facilities</tspan><tspan dy="1.2em" x="0" >and monitors air</tspan><tspan dy="1.2em" x="0" >quality</tspan></text></g><g id="v-241"  label-idx="1" cursor="move" transform="matrix(1,0,0,1,760.8130493164062,921.0435180664062)" style="cursor: default;"><rect joint-selector="rect" id="v-245" fill="#ffffff" rx="3" ry="3" x="5.684341886080802e-14" y="0" width="0" height="0"  display="none"></rect><text joint-selector="text" id="v-244" fill="#000000" font-size="14" text-anchor="middle" text-vertical-anchor="middle" pointer-events="none"></text></g></g></g><!--z-index:45--></g><g  style="user-select: none;"></g><g ></g><g  display="none"></g></g></svg>