<svg xmlns="http://www.w3.org/2000/svg" xmlns:xlink="http://www.w3.org/1999/xlink" version="1.1" style="background: #111111" viewBox="0 0 3170 1857"><style id="v-3" type="text/css">        .joint-element .scalable * {            vector-effect: non-scaling-stroke;        }    </style><defs joint-selector="defs"><marker id="v-2-527367903" orient="auto" overflow="visible" markerUnits="userSpaceOnUse"><path id="v-102" stroke="#cccccc" fill="#cccccc" transform="rotate(180)" d="M 20 -10 0 0 20 10 Z"></path></marker></defs><g joint-selector="layers"  transform="matrix(1,0,0,1,0,0)"><g  style="pointer-events: none;"></g><g ></g><g  style="user-select: none;"><!--z-index:0--><!--z-index:1--><!--z-index:2--><!--z-index:3--><!--z-index:4--><!--z-index:5--><!--z-index:6--><!--z-index:7--><!--z-index:8--><!--z-index:9--><!--z-index:10--><!--z-index:11--><!--z-index:12--><!--z-index:13--><!--z-index:14--><!--z-index:15--><!--z-index:16--><!--z-index:17--><!--z-index:18--><!--z-index:19--><!--z-index:20--><g   id="j_3"  transform="translate(20,1813)"><g id="v-8"><text  id="v-9" font-size="24px" xml:space="preserve" y="0.8em" font-weight="normal" text-anchor="start" fill="#cccccc" pointer-events="none" display="block" font-family="Tahoma, Verdana, Helvetica, Arial"><tspan dy="0" >Friday, June 5, 2026 at 3:49 PM Peru Standard Time</tspan></text></g></g><!--z-index:21--><g   id="j_2"  transform="translate(20,1779)"><g id="v-6"><text  id="v-7" font-size="24px" xml:space="preserve" y="0.8em" font-weight="normal" text-anchor="start" fill="#cccccc" pointer-events="none" display="block" font-family="Tahoma, Verdana, Helvetica, Arial"><tspan dy="0" >System Landscape diagram for the Vanana ecosystem - all systems shown as peers</tspan></text></g></g><!--z-index:22--><g   id="j_1"  transform="translate(20,1733)"><g id="v-4"><text  id="v-5" font-size="36px" xml:space="preserve" y="0.8em" font-weight="normal" text-anchor="start" fill="#cccccc" pointer-events="none" display="block" font-family="Tahoma, Verdana, Helvetica, Arial"><tspan dy="0" >System Landscape View</tspan></text></g></g><!--z-index:23--><g   id="j_4"  transform="translate(200,1119)" style=""><g  id="v-16" style="opacity: 1;"><rect  x="0" y="160" width="400" height="240" rx="70" id="v-18" stroke-width="2" pointer-events="visiblePainted" fill="#374151" stroke="#323b49" stroke-dasharray="" style="fill: rgb(55, 65, 81); stroke: rgb(50, 59, 73);"></rect><circle  cx="200" cy="88.88888888888889" r="88.88888888888889" id="v-17" stroke-width="2" pointer-events="visiblePainted" fill="#374151" stroke="#323b49" stroke-dasharray="" style="fill: rgb(55, 65, 81); stroke: rgb(50, 59, 73);"></circle><line  x1="80" y1="266.6666666666667" x2="80" y2="400" id="v-24" stroke="#323b49" stroke-width="1" stroke-dasharray="" style="stroke: rgb(50, 59, 73);"></line><line  x1="320" y1="266.6666666666667" x2="320" y2="400" id="v-25" stroke="#323b49" stroke-width="1" stroke-dasharray="" style="stroke: rgb(50, 59, 73);"></line><text  id="v-19" font-size="33.599999999999994px" xml:space="preserve" y="216.9" font-weight="bold" text-anchor="middle" pointer-events="visible" font-family="Tahoma, Verdana, Helvetica, Arial" fill="#cccccc" dominant-baseline="hanging" transform="matrix(1,0,0,1,200,0)" style="fill: rgb(204, 204, 204);"><tspan dy="0" >Facility Admin</tspan></text><text  id="v-20" font-size="16.799999999999997px" xml:space="preserve" y="258.5" text-anchor="middle" font-family="Tahoma, Verdana, Helvetica, Arial" fill="#cccccc" dominant-baseline="hanging" transform="matrix(1,0,0,1,200,0)" style="display: block; fill: rgb(204, 204, 204);"><tspan dy="0" >[Person]</tspan></text><text  id="v-21" font-size="24px" xml:space="preserve" y="290.3" text-anchor="middle" font-family="Tahoma, Verdana, Helvetica, Arial" fill="#cccccc" dominant-baseline="hanging" transform="matrix(1,0,0,1,200,0)" style="display: block; fill: rgb(204, 204, 204);"><tspan dy="0" >Owner or operator of multiple</tspan><tspan dy="1.2em" x="0" >air sensors across facilities.</tspan></text><g  id="v-22" font-weight="normal" text-anchor="middle" color="#cccccc" transform="matrix(1,0,0,1,197.5,368)" style="fill: rgb(204, 204, 204);" display="none"><g ></g><g ></g><g ></g><g ></g></g><image  id="v-23"></image></g></g><!--z-index:24--><g   id="j_5"  transform="translate(200,540)" style=""><g  id="v-29" style="opacity: 1;"><rect  x="0" y="160" width="400" height="240" rx="70" id="v-31" stroke-width="2" pointer-events="visiblePainted" fill="#374151" stroke="#323b49" stroke-dasharray="" style="fill: rgb(55, 65, 81); stroke: rgb(50, 59, 73);"></rect><circle  cx="200" cy="88.88888888888889" r="88.88888888888889" id="v-30" stroke-width="2" pointer-events="visiblePainted" fill="#374151" stroke="#323b49" stroke-dasharray="" style="fill: rgb(55, 65, 81); stroke: rgb(50, 59, 73);"></circle><line  x1="80" y1="266.6666666666667" x2="80" y2="400" id="v-37" stroke="#323b49" stroke-width="1" stroke-dasharray="" style="stroke: rgb(50, 59, 73);"></line><line  x1="320" y1="266.6666666666667" x2="320" y2="400" id="v-38" stroke="#323b49" stroke-width="1" stroke-dasharray="" style="stroke: rgb(50, 59, 73);"></line><text  id="v-32" font-size="33.599999999999994px" xml:space="preserve" y="216.9" font-weight="bold" text-anchor="middle" pointer-events="visible" font-family="Tahoma, Verdana, Helvetica, Arial" fill="#cccccc" dominant-baseline="hanging" transform="matrix(1,0,0,1,200,0)" style="fill: rgb(204, 204, 204);"><tspan dy="0" >Home User</tspan></text><text  id="v-33" font-size="16.799999999999997px" xml:space="preserve" y="258.5" text-anchor="middle" font-family="Tahoma, Verdana, Helvetica, Arial" fill="#cccccc" dominant-baseline="hanging" transform="matrix(1,0,0,1,200,0)" style="display: block; fill: rgb(204, 204, 204);"><tspan dy="0" >[Person]</tspan></text><text  id="v-34" font-size="24px" xml:space="preserve" y="290.3" text-anchor="middle" font-family="Tahoma, Verdana, Helvetica, Arial" fill="#cccccc" dominant-baseline="hanging" transform="matrix(1,0,0,1,200,0)" style="display: block; fill: rgb(204, 204, 204);"><tspan dy="0" >Customer who uses a personal</tspan><tspan dy="1.2em" x="0" >air sensor at home.</tspan></text><g  id="v-35" font-weight="normal" text-anchor="middle" color="#cccccc" transform="matrix(1,0,0,1,197.5,368)" style="fill: rgb(204, 204, 204);" display="none"><g ></g><g ></g><g ></g><g ></g></g><image  id="v-36"></image></g></g><!--z-index:25--><g   id="j_6"  transform="translate(940,617)" style=""><g  id="v-42" style="opacity: 1;"><rect  id="v-43" rx="1" ry="1" stroke-width="2" pointer-events="visiblePainted" fill="#111111" stroke="#cccccc" stroke-dasharray="" width="450" height="300" style="fill: rgb(17, 17, 17); stroke: rgb(204, 204, 204);"></rect><text  id="v-44" font-size="33.599999999999994px" xml:space="preserve" y="86.9" font-weight="bold" text-anchor="middle" pointer-events="visible" font-family="Tahoma, Verdana, Helvetica, Arial" fill="#cccccc" dominant-baseline="hanging" transform="matrix(1,0,0,1,225,0)" style="fill: rgb(204, 204, 204);"><tspan dy="0" >Vanana Platform</tspan></text><text  id="v-45" font-size="16.799999999999997px" xml:space="preserve" y="128.5" text-anchor="middle" font-family="Tahoma, Verdana, Helvetica, Arial" fill="#cccccc" dominant-baseline="hanging" transform="matrix(1,0,0,1,225,0)" style="display: block; fill: rgb(204, 204, 204);"><tspan dy="0" >[Software System]</tspan></text><text  id="v-46" font-size="24px" xml:space="preserve" y="160.3" text-anchor="middle" font-family="Tahoma, Verdana, Helvetica, Arial" fill="#cccccc" dominant-baseline="hanging" transform="matrix(1,0,0,1,225,0)" style="display: block; fill: rgb(204, 204, 204);"><tspan dy="0" >Central platform for monitoring and</tspan><tspan dy="1.2em" x="0" >automating IoT air quality devices.</tspan></text><g  id="v-47" color="#cccccc" transform="matrix(1,0,0,1,222.5,268)" style="fill: rgb(204, 204, 204);" display="none"><g ></g><g ></g><g ></g><g ></g></g><image  id="v-48"></image></g></g><!--z-index:26--><g   id="j_7"  transform="translate(2520,1090)" style=""><g  id="v-52" style="opacity: 1;"><rect  id="v-53" rx="1" ry="1" stroke-width="2" pointer-events="visiblePainted" fill="#111111" stroke="#cccccc" stroke-dasharray="" width="450" height="300" style="fill: rgb(17, 17, 17); stroke: rgb(204, 204, 204);"></rect><text  id="v-54" font-size="33.599999999999994px" xml:space="preserve" y="101.30000000000001" font-weight="bold" text-anchor="middle" pointer-events="visible" font-family="Tahoma, Verdana, Helvetica, Arial" fill="#cccccc" dominant-baseline="hanging" transform="matrix(1,0,0,1,225,0)" style="fill: rgb(204, 204, 204);"><tspan dy="0" >Google OAuth2</tspan></text><text  id="v-55" font-size="16.799999999999997px" xml:space="preserve" y="142.9" text-anchor="middle" font-family="Tahoma, Verdana, Helvetica, Arial" fill="#cccccc" dominant-baseline="hanging" transform="matrix(1,0,0,1,225,0)" style="display: block; fill: rgb(204, 204, 204);"><tspan dy="0" >[Software System]</tspan></text><text  id="v-56" font-size="24px" xml:space="preserve" y="174.7" text-anchor="middle" font-family="Tahoma, Verdana, Helvetica, Arial" fill="#cccccc" dominant-baseline="hanging" transform="matrix(1,0,0,1,225,0)" style="display: block; fill: rgb(204, 204, 204);"><tspan dy="0" >External authentication service.</tspan></text><g  id="v-57" color="#cccccc" transform="matrix(1,0,0,1,222.5,268)" style="fill: rgb(204, 204, 204);" display="none"><g ></g><g ></g><g ></g><g ></g></g><image  id="v-58"></image></g></g><!--z-index:27--><g   id="j_8"  transform="translate(1730,1159)" style=""><g  id="v-62" style="opacity: 1;"><rect  id="v-63" rx="1" ry="1" stroke-width="2" pointer-events="visiblePainted" fill="#111111" stroke="#cccccc" stroke-dasharray="" width="450" height="300" style="fill: rgb(17, 17, 17); stroke: rgb(204, 204, 204);"></rect><text  id="v-64" font-size="33.599999999999994px" xml:space="preserve" y="86.9" font-weight="bold" text-anchor="middle" pointer-events="visible" font-family="Tahoma, Verdana, Helvetica, Arial" fill="#cccccc" dominant-baseline="hanging" transform="matrix(1,0,0,1,225,0)" style="fill: rgb(204, 204, 204);"><tspan dy="0" >Stripe</tspan></text><text  id="v-65" font-size="16.799999999999997px" xml:space="preserve" y="128.5" text-anchor="middle" font-family="Tahoma, Verdana, Helvetica, Arial" fill="#cccccc" dominant-baseline="hanging" transform="matrix(1,0,0,1,225,0)" style="display: block; fill: rgb(204, 204, 204);"><tspan dy="0" >[Software System]</tspan></text><text  id="v-66" font-size="24px" xml:space="preserve" y="160.3" text-anchor="middle" font-family="Tahoma, Verdana, Helvetica, Arial" fill="#cccccc" dominant-baseline="hanging" transform="matrix(1,0,0,1,225,0)" style="display: block; fill: rgb(204, 204, 204);"><tspan dy="0" >External payment processing</tspan><tspan dy="1.2em" x="0" >platform.</tspan></text><g  id="v-67" color="#cccccc" transform="matrix(1,0,0,1,222.5,268)" style="fill: rgb(204, 204, 204);" display="none"><g ></g><g ></g><g ></g><g ></g></g><image  id="v-68"></image></g></g><!--z-index:28--><g   id="j_9"  transform="translate(1730,224)" style=""><g  id="v-72" style="opacity: 1;"><rect  id="v-73" rx="1" ry="1" stroke-width="2" pointer-events="visiblePainted" fill="#111111" stroke="#cccccc" stroke-dasharray="" width="450" height="300" style="fill: rgb(17, 17, 17); stroke: rgb(204, 204, 204);"></rect><text  id="v-74" font-size="33.599999999999994px" xml:space="preserve" y="86.9" font-weight="bold" text-anchor="middle" pointer-events="visible" font-family="Tahoma, Verdana, Helvetica, Arial" fill="#cccccc" dominant-baseline="hanging" transform="matrix(1,0,0,1,225,0)" style="fill: rgb(204, 204, 204);"><tspan dy="0" >Resend</tspan></text><text  id="v-75" font-size="16.799999999999997px" xml:space="preserve" y="128.5" text-anchor="middle" font-family="Tahoma, Verdana, Helvetica, Arial" fill="#cccccc" dominant-baseline="hanging" transform="matrix(1,0,0,1,225,0)" style="display: block; fill: rgb(204, 204, 204);"><tspan dy="0" >[Software System]</tspan></text><text  id="v-76" font-size="24px" xml:space="preserve" y="160.3" text-anchor="middle" font-family="Tahoma, Verdana, Helvetica, Arial" fill="#cccccc" dominant-baseline="hanging" transform="matrix(1,0,0,1,225,0)" style="display: block; fill: rgb(204, 204, 204);"><tspan dy="0" >External transactional email delivery</tspan><tspan dy="1.2em" x="0" >platform.</tspan></text><g  id="v-77" color="#cccccc" transform="matrix(1,0,0,1,222.5,268)" style="fill: rgb(204, 204, 204);" display="none"><g ></g><g ></g><g ></g><g ></g></g><image  id="v-78"></image></g></g><!--z-index:29--><g   id="j_10"  transform="translate(1730,574)" style=""><g  id="v-82" style="opacity: 1;"><rect  id="v-83" rx="1" ry="1" stroke-width="2" pointer-events="visiblePainted" fill="#111111" stroke="#cccccc" stroke-dasharray="" width="450" height="300" style="fill: rgb(17, 17, 17); stroke: rgb(204, 204, 204);"></rect><text  id="v-84" font-size="33.599999999999994px" xml:space="preserve" y="86.9" font-weight="bold" text-anchor="middle" pointer-events="visible" font-family="Tahoma, Verdana, Helvetica, Arial" fill="#cccccc" dominant-baseline="hanging" transform="matrix(1,0,0,1,225,0)" style="fill: rgb(204, 204, 204);"><tspan dy="0" >Clair Hardware</tspan></text><text  id="v-85" font-size="16.799999999999997px" xml:space="preserve" y="128.5" text-anchor="middle" font-family="Tahoma, Verdana, Helvetica, Arial" fill="#cccccc" dominant-baseline="hanging" transform="matrix(1,0,0,1,225,0)" style="display: block; fill: rgb(204, 204, 204);"><tspan dy="0" >[Software System]</tspan></text><text  id="v-86" font-size="24px" xml:space="preserve" y="160.3" text-anchor="middle" font-family="Tahoma, Verdana, Helvetica, Arial" fill="#cccccc" dominant-baseline="hanging" transform="matrix(1,0,0,1,225,0)" style="display: block; fill: rgb(204, 204, 204);"><tspan dy="0" >Physical air quality sensors and</tspan><tspan dy="1.2em" x="0" >actuators.</tspan></text><g  id="v-87" color="#cccccc" transform="matrix(1,0,0,1,222.5,268)" style="fill: rgb(204, 204, 204);" display="none"><g ></g><g ></g><g ></g><g ></g></g><image  id="v-88"></image></g></g><!--z-index:30--><g   id="j_11"  style="opacity: 1;"><path fill="none" cursor="pointer" stroke="transparent" stroke-linecap="round" joint-selector="wrapper" id="v-100" stroke-width="10" stroke-linejoin="round" d="M 600 1257.92 L 760 1209 C 766.6666666666665 1207 773.3333333333333 1206 780 1206 L 1550 1206 C 1556.6666666666665 1206 1563.3333333333333 1207 1570 1209 L 1730 1250.33"></path><path fill="none" pointer-events="none" joint-selector="line" id="v-99" stroke="#cccccc" stroke-width="2" stroke-linejoin="round" stroke-dasharray="8 8" d="M 600 1257.92 L 760 1209 C 766.6666666666665 1207 773.3333333333333 1206 780 1206 L 1550 1206 C 1556.6666666666665 1206 1563.3333333333333 1207 1570 1209 L 1730 1250.33" marker-end="url(#v-2-527367903)"></path><g id="v-92" ><g id="v-93"  label-idx="0" cursor="move" transform="matrix(1,0,0,1,1164.9923095703125,1206)" style="cursor: default;"><rect joint-selector="rect" id="v-96" fill="#111111" rx="3" ry="3" x="-86.57330322265625" y="-45.41285705566406" width="173.1466064453125" height="87.01588439941406" pointer-events="none"  style="display: block;"></rect><text joint-selector="text" id="v-95" font-size="24px" xml:space="preserve" fill="#cccccc" text-anchor="middle" pointer-events="none" font-family="Tahoma, Verdana, Helvetica, Arial" font-weight="normal"  style="display: block;"><tspan dy="-0.8999999999999999em" >Manages</tspan><tspan dy="1.2em" x="0" >subscription and</tspan><tspan dy="1.2em" x="0" >payments</tspan></text></g><g id="v-94"  label-idx="1" cursor="move" transform="matrix(1,0,0,1,1154.9923095703125,1246.800048828125)" style="cursor: default;"><rect joint-selector="rect" id="v-98" fill="#ffffff" rx="3" ry="3" x="1.1368683772161603e-13" y="2.2737367544323206e-13" width="0" height="0"  display="none"></rect><text joint-selector="text" id="v-97" fill="#000000" font-size="14" text-anchor="middle" text-vertical-anchor="middle" pointer-events="none"></text></g></g></g><!--z-index:31--><g   id="j_12"  style="opacity: 1;"><path fill="none" cursor="pointer" stroke="transparent" stroke-linecap="round" joint-selector="wrapper" id="v-114" stroke-width="10" stroke-linejoin="round" d="M 600 740.11 L 760 740 C 766.6666666666665 740.1333333333332 773.3333333333333 740.4666666666666 780 741 L 940 751.73"></path><path fill="none" pointer-events="none" joint-selector="line" id="v-113" stroke="#cccccc" stroke-width="2" stroke-linejoin="round" stroke-dasharray="8 8" d="M 600 740.11 L 760 740 C 766.6666666666665 740.1333333333332 773.3333333333333 740.4666666666666 780 741 L 940 751.73" marker-end="url(#v-2-527367903)"></path><g id="v-106" ><g id="v-107"  label-idx="0" cursor="move" transform="matrix(1,0,0,1,770,740.3499755859375)" style="cursor: default;"><rect joint-selector="rect" id="v-110" fill="#111111" rx="3" ry="3" x="-95.85330963134766" y="-31.01285743713379" width="192.85398864746094" height="58.215885162353516" pointer-events="none"  style="display: block;"></rect><text joint-selector="text" id="v-109" font-size="24px" xml:space="preserve" fill="#cccccc" text-anchor="middle" pointer-events="none" font-family="Tahoma, Verdana, Helvetica, Arial" font-weight="normal"  style="display: block;"><tspan dy="-0.3em" >Monitors home air</tspan><tspan dy="1.2em" x="0" >quality</tspan></text></g><g id="v-108"  label-idx="1" cursor="move" transform="matrix(1,0,0,1,760,766.75)" style="cursor: default;"><rect joint-selector="rect" id="v-112" fill="#ffffff" rx="3" ry="3" x="0" y="0" width="0" height="0"  display="none"></rect><text joint-selector="text" id="v-111" fill="#000000" font-size="14" text-anchor="middle" text-vertical-anchor="middle" pointer-events="none"></text></g></g></g><!--z-index:32--><g   id="j_13"  style="opacity: 1;"><path fill="none" cursor="pointer" stroke="transparent" stroke-linecap="round" joint-selector="wrapper" id="v-126" stroke-width="10" stroke-linejoin="round" d="M 530.83 540 L 765 183 C 768.3333333333333 177.26666666666665 773.3333333333333 174.26666666666665 780 174 L 2340 174 C 2346.6666666666665 174.26666666666665 2351 177.6 2353 184 L 2689.4 1090"></path><path fill="none" pointer-events="none" joint-selector="line" id="v-125" stroke="#cccccc" stroke-width="2" stroke-linejoin="round" stroke-dasharray="8 8" d="M 530.83 540 L 765 183 C 768.3333333333333 177.26666666666665 773.3333333333333 174.26666666666665 780 174 L 2340 174 C 2346.6666666666665 174.26666666666665 2351 177.6 2353 184 L 2689.4 1090" marker-end="url(#v-2-527367903)"></path><g id="v-118" ><g id="v-119"  label-idx="0" cursor="move" transform="matrix(1,0,0,1,1559.7510986328125,174)" style="cursor: default;"><rect joint-selector="rect" id="v-122" fill="#111111" rx="3" ry="3" x="-90.08613586425781" y="-31.01285743713379" width="180.17227172851562" height="58.215885162353516" pointer-events="none"  style="display: block;"></rect><text joint-selector="text" id="v-121" font-size="24px" xml:space="preserve" fill="#cccccc" text-anchor="middle" pointer-events="none" font-family="Tahoma, Verdana, Helvetica, Arial" font-weight="normal"  style="display: block;"><tspan dy="-0.3em" >Authenticates</tspan><tspan dy="1.2em" x="0" >using social login</tspan></text></g><g id="v-120"  label-idx="1" cursor="move" transform="matrix(1,0,0,1,1549.7510986328125,200.39999389648438)" style="cursor: default;"><rect joint-selector="rect" id="v-124" fill="#ffffff" rx="3" ry="3" x="2.2737367544323206e-13" y="0" width="0" height="0"  display="none"></rect><text joint-selector="text" id="v-123" fill="#000000" font-size="14" text-anchor="middle" text-vertical-anchor="middle" pointer-events="none"></text></g></g></g><!--z-index:33--><g   id="j_14"  style="opacity: 1;"><path fill="none" cursor="pointer" stroke="transparent" stroke-linecap="round" joint-selector="wrapper" id="v-138" stroke-width="10" stroke-linejoin="round" d="M 526.89 940 L 765 1315 C 768.3333333333333 1320.4666666666667 773.3333333333333 1323.1333333333332 780 1323 L 1550 1323 C 1556.6666666666665 1323.1333333333332 1563.3333333333333 1323.1333333333332 1570 1323 L 1730 1317.09"></path><path fill="none" pointer-events="none" joint-selector="line" id="v-137" stroke="#cccccc" stroke-width="2" stroke-linejoin="round" stroke-dasharray="8 8" d="M 526.89 940 L 765 1315 C 768.3333333333333 1320.4666666666667 773.3333333333333 1323.1333333333332 780 1323 L 1550 1323 C 1556.6666666666665 1323.1333333333332 1563.3333333333333 1323.1333333333332 1570 1323 L 1730 1317.09" marker-end="url(#v-2-527367903)"></path><g id="v-130" ><g id="v-131"  label-idx="0" cursor="move" transform="matrix(1,0,0,1,1165.61767578125,1323)" style="cursor: default;"><rect joint-selector="rect" id="v-134" fill="#111111" rx="3" ry="3" x="-72.89404296875" y="-31.01285743713379" width="145.7880859375" height="58.215885162353516" pointer-events="none"  style="display: block;"></rect><text joint-selector="text" id="v-133" font-size="24px" xml:space="preserve" fill="#cccccc" text-anchor="middle" pointer-events="none" font-family="Tahoma, Verdana, Helvetica, Arial" font-weight="normal"  style="display: block;"><tspan dy="-0.3em" >Subscribes to</tspan><tspan dy="1.2em" x="0" >premium plan</tspan></text></g><g id="v-132"  label-idx="1" cursor="move" transform="matrix(1,0,0,1,1155.61767578125,1349.4000244140625)" style="cursor: default;"><rect joint-selector="rect" id="v-136" fill="#ffffff" rx="3" ry="3" x="0" y="2.2737367544323206e-13" width="0" height="0"  display="none"></rect><text joint-selector="text" id="v-135" fill="#000000" font-size="14" text-anchor="middle" text-vertical-anchor="middle" pointer-events="none"></text></g></g></g><!--z-index:34--><g   id="j_15"  style="opacity: 1;"><path fill="none" cursor="pointer" stroke="transparent" stroke-linecap="round" joint-selector="wrapper" id="v-150" stroke-width="10" stroke-linejoin="round" d="M 1390 879.9 L 1551 961 C 1557 963.8 1563.3333333333333 965.1333333333332 1570 965 L 2340 965 C 2346.6666666666665 965.1333333333332 2352.6666666666665 967.1333333333332 2358 971 L 2529.39 1090"></path><path fill="none" pointer-events="none" joint-selector="line" id="v-149" stroke="#cccccc" stroke-width="2" stroke-linejoin="round" stroke-dasharray="8 8" d="M 1390 879.9 L 1551 961 C 1557 963.8 1563.3333333333333 965.1333333333332 1570 965 L 2340 965 C 2346.6666666666665 965.1333333333332 2352.6666666666665 967.1333333333332 2358 971 L 2529.39 1090" marker-end="url(#v-2-527367903)"></path><g id="v-142" ><g id="v-143"  label-idx="0" cursor="move" transform="matrix(1,0,0,1,1954.3724365234375,965)" style="cursor: default;"><rect joint-selector="rect" id="v-146" fill="#111111" rx="3" ry="3" x="-91.26802062988281" y="-45.41285705566406" width="183.06150817871094" height="87.01588439941406" pointer-events="none"  style="display: block;"></rect><text joint-selector="text" id="v-145" font-size="24px" xml:space="preserve" fill="#cccccc" text-anchor="middle" pointer-events="none" font-family="Tahoma, Verdana, Helvetica, Arial" font-weight="normal"  style="display: block;"><tspan dy="-0.8999999999999999em" >Authenticates</tspan><tspan dy="1.2em" x="0" >users via OpenID</tspan><tspan dy="1.2em" x="0" >Connect</tspan></text></g><g id="v-144"  label-idx="1" cursor="move" transform="matrix(1,0,0,1,1944.3724365234375,1005.7999877929688)" style="cursor: default;"><rect joint-selector="rect" id="v-148" fill="#ffffff" rx="3" ry="3" x="0" y="0" width="0" height="0"  display="none"></rect><text joint-selector="text" id="v-147" fill="#000000" font-size="14" text-anchor="middle" text-vertical-anchor="middle" pointer-events="none"></text></g></g></g><!--z-index:35--><g   id="j_16"  style="opacity: 1;"><path fill="none" cursor="pointer" stroke="transparent" stroke-linecap="round" joint-selector="wrapper" id="v-162" stroke-width="10" stroke-linejoin="round" d="M 1256.58 917 L 1555 1405 C 1558.3333333333333 1410.9999999999998 1563.3333333333333 1412.9999999999998 1570 1411 L 1730 1368.81"></path><path fill="none" pointer-events="none" joint-selector="line" id="v-161" stroke="#cccccc" stroke-width="2" stroke-linejoin="round" stroke-dasharray="8 8" d="M 1256.58 917 L 1555 1405 C 1558.3333333333333 1410.9999999999998 1563.3333333333333 1412.9999999999998 1570 1411 L 1730 1368.81" marker-end="url(#v-2-527367903)"></path><g id="v-154" ><g id="v-155"  label-idx="0" cursor="move" transform="matrix(1,0,0,1,1560.557861328125,1410.6923828125)" style="cursor: default;"><rect joint-selector="rect" id="v-158" fill="#111111" rx="3" ry="3" x="-74.62310028076172" y="-45.41285705566406" width="149.24620056152344" height="87.01588439941406" pointer-events="none"  style="display: block;"></rect><text joint-selector="text" id="v-157" font-size="24px" xml:space="preserve" fill="#cccccc" text-anchor="middle" pointer-events="none" font-family="Tahoma, Verdana, Helvetica, Arial" font-weight="normal"  style="display: block;"><tspan dy="-0.8999999999999999em" >Processes</tspan><tspan dy="1.2em" x="0" >payments and</tspan><tspan dy="1.2em" x="0" >subscriptions</tspan></text></g><g id="v-156"  label-idx="1" cursor="move" transform="matrix(1,0,0,1,1550.557861328125,1451.492431640625)" style="cursor: default;"><rect joint-selector="rect" id="v-160" fill="#ffffff" rx="3" ry="3" x="0" y="0" width="0" height="0"  display="none"></rect><text joint-selector="text" id="v-159" fill="#000000" font-size="14" text-anchor="middle" text-vertical-anchor="middle" pointer-events="none"></text></g></g></g><!--z-index:36--><g   id="j_17"  style="opacity: 1;"><path fill="none" cursor="pointer" stroke="transparent" stroke-linecap="round" joint-selector="wrapper" id="v-174" stroke-width="10" stroke-linejoin="round" d="M 1315.92 617 L 1553 381 C 1557.6666666666665 376.59999999999997 1563.3333333333333 374.26666666666665 1570 374 L 1730 374.23"></path><path fill="none" pointer-events="none" joint-selector="line" id="v-173" stroke="#cccccc" stroke-width="2" stroke-linejoin="round" stroke-dasharray="8 8" d="M 1315.92 617 L 1553 381 C 1557.6666666666665 376.59999999999997 1563.3333333333333 374.26666666666665 1570 374 L 1730 374.23" marker-end="url(#v-2-527367903)"></path><g id="v-166" ><g id="v-167"  label-idx="0" cursor="move" transform="matrix(1,0,0,1,1560.5511474609375,376.0328674316406)" style="cursor: default;"><rect joint-selector="rect" id="v-170" fill="#111111" rx="3" ry="3" x="-67.291015625" y="-45.41285705566406" width="134.58203125" height="87.01588439941406" pointer-events="none"  style="display: block;"></rect><text joint-selector="text" id="v-169" font-size="24px" xml:space="preserve" fill="#cccccc" text-anchor="middle" pointer-events="none" font-family="Tahoma, Verdana, Helvetica, Arial" font-weight="normal"  style="display: block;"><tspan dy="-0.8999999999999999em" >Sends</tspan><tspan dy="1.2em" x="0" >transactional</tspan><tspan dy="1.2em" x="0" >emails</tspan></text></g><g id="v-168"  label-idx="1" cursor="move" transform="matrix(1,0,0,1,1550.5511474609375,416.8328857421875)" style="cursor: default;"><rect joint-selector="rect" id="v-172" fill="#ffffff" rx="3" ry="3" x="0" y="0" width="0" height="0"  display="none"></rect><text joint-selector="text" id="v-171" fill="#000000" font-size="14" text-anchor="middle" text-vertical-anchor="middle" pointer-events="none"></text></g></g></g><!--z-index:37--><g   id="j_18"  style="opacity: 1;"><path fill="none" cursor="pointer" stroke="transparent" stroke-linecap="round" joint-selector="wrapper" id="v-186" stroke-width="10" stroke-linejoin="round" d="M 1390 742.73 L 1550 725 C 1556.6666666666665 724.5999999999999 1563.3333333333333 724.2666666666667 1570 724 L 1730 724.23"></path><path fill="none" pointer-events="none" joint-selector="line" id="v-185" stroke="#cccccc" stroke-width="2" stroke-linejoin="round" stroke-dasharray="8 8" d="M 1390 742.73 L 1550 725 C 1556.6666666666665 724.5999999999999 1563.3333333333333 724.2666666666667 1570 724 L 1730 724.23" marker-end="url(#v-2-527367903)"></path><g id="v-178" ><g id="v-179"  label-idx="0" cursor="move" transform="matrix(1,0,0,1,1560,724.4500122070312)" style="cursor: default;"><rect joint-selector="rect" id="v-182" fill="#111111" rx="3" ry="3" x="-96.53179931640625" y="-31.01285743713379" width="193.72274780273438" height="58.215885162353516" pointer-events="none"  style="display: block;"></rect><text joint-selector="text" id="v-181" font-size="24px" xml:space="preserve" fill="#cccccc" text-anchor="middle" pointer-events="none" font-family="Tahoma, Verdana, Helvetica, Arial" font-weight="normal"  style="display: block;"><tspan dy="-0.3em" >Commands and</tspan><tspan dy="1.2em" x="0" >receives telemetry</tspan></text></g><g id="v-180"  label-idx="1" cursor="move" transform="matrix(1,0,0,1,1550,750.8499755859375)" style="cursor: default;"><rect joint-selector="rect" id="v-184" fill="#ffffff" rx="3" ry="3" x="0" y="0" width="0" height="0"  display="none"></rect><text joint-selector="text" id="v-183" fill="#000000" font-size="14" text-anchor="middle" text-vertical-anchor="middle" pointer-events="none"></text></g></g></g><!--z-index:38--><g   id="j_19"  style="opacity: 1;"><path fill="none" cursor="pointer" stroke="transparent" stroke-linecap="round" joint-selector="wrapper" id="v-201" stroke-width="10" stroke-linejoin="round" d="M 2180 1309.57 L 2340 1310 C 2346.6666666666665 1309.9999999999998 2353.333333333333 1309.333333333333 2360 1308 L 2520 1279.87"></path><path fill="none" pointer-events="none" joint-selector="line" id="v-200" stroke="#cccccc" stroke-width="2" stroke-linejoin="round" stroke-dasharray="8 8" d="M 2180 1309.57 L 2340 1310 C 2346.6666666666665 1309.9999999999998 2353.333333333333 1309.333333333333 2360 1308 L 2520 1279.87" marker-end="url(#v-2-527367903)"></path><g id="v-190" ><g id="v-191"  label-idx="0" cursor="move" transform="matrix(1,0,0,1,2350,1296.0999755859375)" style="cursor: default;"><rect joint-selector="rect" id="v-195" fill="#111111" rx="3" ry="3" x="-85.93858337402344" y="-45.41285705566406" width="172.5224609375" height="87.01588439941406" pointer-events="none"  style="display: block;"></rect><text joint-selector="text" id="v-194" font-size="24px" xml:space="preserve" fill="#cccccc" text-anchor="middle" pointer-events="none" font-family="Tahoma, Verdana, Helvetica, Arial" font-weight="normal"  style="display: block;"><tspan dy="-0.8999999999999999em" >Uses for identity</tspan><tspan dy="1.2em" x="0" >verification on</tspan><tspan dy="1.2em" x="0" >checkout</tspan></text></g><g id="v-192"  label-idx="1" cursor="move" transform="matrix(1,0,0,1,2350,1355.300048828125)" style="cursor: default;"><rect joint-selector="rect" id="v-197" fill="#111111" rx="3" ry="3" x="-34.11060333251953" y="-11.769074440002441" width="68.22120666503906" height="21.011343002319336"  pointer-events="none" style="display: block;"></rect><text joint-selector="text" id="v-196" font-size="16.799999999999997px" xml:space="preserve" fill="#cccccc" text-anchor="middle" pointer-events="none" font-family="Tahoma, Verdana, Helvetica, Arial" font-weight="normal"  style="display: block;"><tspan dy="0.3em" >[OAuth2]</tspan></text></g><g id="v-193"  label-idx="2" cursor="move" transform="matrix(1,0,0,1,2341.25,1363.567138671875)" style="cursor: default;"><rect joint-selector="rect" id="v-199" fill="#ffffff" rx="3" ry="3" x="0" y="2.2737367544323206e-13" width="0" height="0"  display="none"></rect><text joint-selector="text" id="v-198" fill="#000000" font-size="14" text-anchor="middle" text-vertical-anchor="middle" pointer-events="none"></text></g></g></g><!--z-index:39--><g   id="j_20"  style="opacity: 1;"><path fill="none" cursor="pointer" stroke="transparent" stroke-linecap="round" joint-selector="wrapper" id="v-213" stroke-width="10" stroke-linejoin="round" d="M 600 1168.3 L 762 1046 C 767.3333333333333 1042.1333333333332 772.6666666666665 1038.4666666666665 778 1035 L 948.13 917"></path><path fill="none" pointer-events="none" joint-selector="line" id="v-212" stroke="#cccccc" stroke-width="2" stroke-linejoin="round" stroke-dasharray="8 8" d="M 600 1168.3 L 762 1046 C 767.3333333333333 1042.1333333333332 772.6666666666665 1038.4666666666665 778 1035 L 948.13 917" marker-end="url(#v-2-527367903)"></path><g id="v-205" ><g id="v-206"  label-idx="0" cursor="move" transform="matrix(1,0,0,1,770.15625,1040.24267578125)" style="cursor: default;"><rect joint-selector="rect" id="v-209" fill="#111111" rx="3" ry="3" x="-92.7563247680664" y="-45.41285705566406" width="186.00880432128906" height="87.01588439941406" pointer-events="none"  style="display: block;"></rect><text joint-selector="text" id="v-208" font-size="24px" xml:space="preserve" fill="#cccccc" text-anchor="middle" pointer-events="none" font-family="Tahoma, Verdana, Helvetica, Arial" font-weight="normal"  style="display: block;"><tspan dy="-0.8999999999999999em" >Manages facilities</tspan><tspan dy="1.2em" x="0" >and monitors air</tspan><tspan dy="1.2em" x="0" >quality</tspan></text></g><g id="v-207"  label-idx="1" cursor="move" transform="matrix(1,0,0,1,760.15625,1081.0426025390625)" style="cursor: default;"><rect joint-selector="rect" id="v-211" fill="#ffffff" rx="3" ry="3" x="0" y="0" width="0" height="0"  display="none"></rect><text joint-selector="text" id="v-210" fill="#000000" font-size="14" text-anchor="middle" text-vertical-anchor="middle" pointer-events="none"></text></g></g></g><!--z-index:40--><g   id="j_21"  style="opacity: 1;"><path fill="none" cursor="pointer" stroke="transparent" stroke-linecap="round" joint-selector="wrapper" id="v-225" stroke-width="10" stroke-linejoin="round" d="M 600 1456.08 L 762 1567 C 767.3333333333333 1570.7333333333331 773.3333333333333 1572.7333333333331 780 1573 L 2340 1573 C 2346.6666666666665 1572.7333333333331 2352.6666666666665 1570.3999999999999 2358 1566 L 2566.86 1390"></path><path fill="none" pointer-events="none" joint-selector="line" id="v-224" stroke="#cccccc" stroke-width="2" stroke-linejoin="round" stroke-dasharray="8 8" d="M 600 1456.08 L 762 1567 C 767.3333333333333 1570.7333333333331 773.3333333333333 1572.7333333333331 780 1573 L 2340 1573 C 2346.6666666666665 1572.7333333333331 2352.6666666666665 1570.3999999999999 2358 1566 L 2566.86 1390" marker-end="url(#v-2-527367903)"></path><g id="v-217" ><g id="v-218"  label-idx="0" cursor="move" transform="matrix(1,0,0,1,1560.2786865234375,1573)" style="cursor: default;"><rect joint-selector="rect" id="v-221" fill="#111111" rx="3" ry="3" x="-90.08613586425781" y="-31.01285743713379" width="180.17227172851562" height="58.215885162353516" pointer-events="none"  style="display: block;"></rect><text joint-selector="text" id="v-220" font-size="24px" xml:space="preserve" fill="#cccccc" text-anchor="middle" pointer-events="none" font-family="Tahoma, Verdana, Helvetica, Arial" font-weight="normal"  style="display: block;"><tspan dy="-0.3em" >Authenticates</tspan><tspan dy="1.2em" x="0" >using social login</tspan></text></g><g id="v-219"  label-idx="1" cursor="move" transform="matrix(1,0,0,1,1550.2786865234375,1599.4000244140625)" style="cursor: default;"><rect joint-selector="rect" id="v-223" fill="#ffffff" rx="3" ry="3" x="0" y="0" width="0" height="0"  display="none"></rect><text joint-selector="text" id="v-222" fill="#000000" font-size="14" text-anchor="middle" text-vertical-anchor="middle" pointer-events="none"></text></g></g></g><!--z-index:41--></g><g  style="user-select: none;"></g><g ></g><g  display="none"></g></g></svg>