<svg id="my-svg" width="100%" xmlns="http://www.w3.org/2000/svg" xmlns:xlink="http://www.w3.org/1999/xlink" class="classDiagram" style="max-width: 1053.04px; background-color: transparent;" viewBox="0 -48 1053.0390625 488" role="graphics-document document" aria-roledescription="class"><style>#my-svg{font-family:"trebuchet ms",verdana,arial,sans-serif;font-size:16px;fill:#333;}@keyframes edge-animation-frame{from{stroke-dashoffset:0;}}@keyframes dash{to{stroke-dashoffset:0;}}#my-svg .edge-animation-slow{stroke-dasharray:9,5!important;stroke-dashoffset:900;animation:dash 50s linear infinite;stroke-linecap:round;}#my-svg .edge-animation-fast{stroke-dasharray:9,5!important;stroke-dashoffset:900;animation:dash 20s linear infinite;stroke-linecap:round;}#my-svg .error-icon{fill:#552222;}#my-svg .error-text{fill:#552222;stroke:#552222;}#my-svg .edge-thickness-normal{stroke-width:1px;}#my-svg .edge-thickness-thick{stroke-width:3.5px;}#my-svg .edge-pattern-solid{stroke-dasharray:0;}#my-svg .edge-thickness-invisible{stroke-width:0;fill:none;}#my-svg .edge-pattern-dashed{stroke-dasharray:3;}#my-svg .edge-pattern-dotted{stroke-dasharray:2;}#my-svg .marker{fill:#333333;stroke:#333333;}#my-svg .marker.cross{stroke:#333333;}#my-svg svg{font-family:"trebuchet ms",verdana,arial,sans-serif;font-size:16px;}#my-svg p{margin:0;}#my-svg g.classGroup text{fill:#9370DB;stroke:none;font-family:"trebuchet ms",verdana,arial,sans-serif;font-size:10px;}#my-svg g.classGroup text .title{font-weight:bolder;}#my-svg .cluster-label text{fill:#333;}#my-svg .cluster-label span{color:#333;}#my-svg .cluster-label span p{background-color:transparent;}#my-svg .cluster rect{fill:transparent;stroke:#666666;stroke-width:1px;}#my-svg .cluster text{fill:#333;}#my-svg .cluster span{color:#333;}#my-svg .nodeLabel,#my-svg .edgeLabel{color:#131300;}#my-svg .noteLabel .nodeLabel,#my-svg .noteLabel .edgeLabel{color:black;}#my-svg .edgeLabel .label rect{fill:#ECECFF;}#my-svg .label text{fill:#131300;}#my-svg .labelBkg{background:#ECECFF;}#my-svg .edgeLabel .label span{background:#ECECFF;}#my-svg .classTitle{font-weight:bolder;}#my-svg .node rect,#my-svg .node circle,#my-svg .node ellipse,#my-svg .node polygon,#my-svg .node path{fill:#ECECFF;stroke:#9370DB;stroke-width:1;}#my-svg .divider{stroke:#9370DB;stroke-width:1;}#my-svg g.clickable{cursor:pointer;}#my-svg g.classGroup rect{fill:#ECECFF;stroke:#9370DB;}#my-svg g.classGroup line{stroke:#9370DB;stroke-width:1;}#my-svg .classLabel .box{stroke:none;stroke-width:0;fill:#ECECFF;opacity:0.5;}#my-svg .classLabel .label{fill:#9370DB;font-size:10px;}#my-svg .relation{stroke:#333333;stroke-width:1;fill:none;}#my-svg .dashed-line{stroke-dasharray:3;}#my-svg .dotted-line{stroke-dasharray:1 2;}#my-svg [id$="-compositionStart"],#my-svg .composition{fill:#333333!important;stroke:#333333!important;stroke-width:1;}#my-svg [id$="-compositionEnd"],#my-svg .composition{fill:#333333!important;stroke:#333333!important;stroke-width:1;}#my-svg [id$="-dependencyStart"],#my-svg .dependency{fill:#333333!important;stroke:#333333!important;stroke-width:1;}#my-svg [id$="-dependencyEnd"],#my-svg .dependency{fill:#333333!important;stroke:#333333!important;stroke-width:1;}#my-svg [id$="-extensionStart"],#my-svg .extension{fill:transparent!important;stroke:#333333!important;stroke-width:1;}#my-svg [id$="-extensionEnd"],#my-svg .extension{fill:transparent!important;stroke:#333333!important;stroke-width:1;}#my-svg [id$="-aggregationStart"],#my-svg .aggregation{fill:transparent!important;stroke:#333333!important;stroke-width:1;}#my-svg [id$="-aggregationEnd"],#my-svg .aggregation{fill:transparent!important;stroke:#333333!important;stroke-width:1;}#my-svg [id$="-lollipopStart"],#my-svg .lollipop{fill:#ECECFF!important;stroke:#333333!important;stroke-width:1;}#my-svg [id$="-lollipopEnd"],#my-svg .lollipop{fill:#ECECFF!important;stroke:#333333!important;stroke-width:1;}#my-svg .edgeTerminals{font-size:11px;line-height:initial;}#my-svg .classTitleText{text-anchor:middle;font-size:18px;fill:#333;}#my-svg .edgeLabel[data-look="neo"]{background-color:rgba(232,232,232, 0.8);text-align:center;}#my-svg .edgeLabel[data-look="neo"] p{background-color:rgba(232,232,232, 0.8);}#my-svg .edgeLabel[data-look="neo"] rect{opacity:0.5;background-color:rgba(232,232,232, 0.8);fill:rgba(232,232,232, 0.8);}#my-svg .label-icon{display:inline-block;height:1em;overflow:visible;vertical-align:-0.125em;}#my-svg .node .label-icon path{fill:currentColor;stroke:revert;stroke-width:revert;}#my-svg .node .neo-node{stroke:#9370DB;}#my-svg [data-look="neo"].node rect,#my-svg [data-look="neo"].cluster rect,#my-svg [data-look="neo"].node polygon{stroke:#9370DB;filter:drop-shadow(1px 2px 2px rgba(185, 185, 185, 1));}#my-svg [data-look="neo"].node path{stroke:#9370DB;stroke-width:1px;}#my-svg [data-look="neo"].node .outer-path{filter:drop-shadow(1px 2px 2px rgba(185, 185, 185, 1));}#my-svg [data-look="neo"].node .neo-line path{stroke:#9370DB;filter:none;}#my-svg [data-look="neo"].node circle{stroke:#9370DB;filter:drop-shadow(1px 2px 2px rgba(185, 185, 185, 1));}#my-svg [data-look="neo"].node circle .state-start{fill:#000000;}#my-svg [data-look="neo"].icon-shape .icon{fill:#9370DB;filter:drop-shadow(1px 2px 2px rgba(185, 185, 185, 1));}#my-svg [data-look="neo"].icon-shape .icon-neo path{stroke:#9370DB;filter:drop-shadow(1px 2px 2px rgba(185, 185, 185, 1));}#my-svg :root{--mermaid-font-family:"trebuchet ms",verdana,arial,sans-serif;}</style><g><defs><marker id="my-svg_class-aggregationStart" class="marker aggregation class" refX="18" refY="7" markerWidth="190" markerHeight="240" orient="auto"><path d="M 18,7 L9,13 L1,7 L9,1 Z"/></marker></defs><defs><marker id="my-svg_class-aggregationEnd" class="marker aggregation class" refX="1" refY="7" markerWidth="20" markerHeight="28" orient="auto"><path d="M 18,7 L9,13 L1,7 L9,1 Z"/></marker></defs><defs><marker id="my-svg_class-aggregationStart-margin" class="marker aggregation class" refX="15" refY="7" markerWidth="190" markerHeight="240" orient="auto" markerUnits="userSpaceOnUse"><path d="M 18,7 L9,13 L1,7 L9,1 Z" style="stroke-width: 2;"/></marker></defs><defs><marker id="my-svg_class-aggregationEnd-margin" class="marker aggregation class" refX="1" refY="7" markerWidth="20" markerHeight="28" orient="auto" markerUnits="userSpaceOnUse"><path d="M 18,7 L9,13 L1,7 L9,1 Z" style="stroke-width: 2;"/></marker></defs><defs><marker id="my-svg_class-extensionStart" class="marker extension class" refX="18" refY="7" markerWidth="20" markerHeight="28" orient="auto" markerUnits="userSpaceOnUse"><path d="M 1,7 L18,13 V 1 Z"/></marker></defs><defs><marker id="my-svg_class-extensionEnd" class="marker extension class" refX="1" refY="7" markerWidth="20" markerHeight="28" orient="auto"><path d="M 1,1 V 13 L18,7 Z"/></marker></defs><marker id="my-svg_class-extensionStart-margin" class="marker extension class" refX="18" refY="7" markerWidth="20" markerHeight="28" orient="auto" markerUnits="userSpaceOnUse" viewBox="0 0 20 14"><polygon points="10,7 18,13 18,1" style="stroke-width: 2; stroke-dasharray: 0;"/></marker><defs><marker id="my-svg_class-extensionEnd-margin" class="marker extension class" refX="9" refY="7" markerWidth="20" markerHeight="28" orient="auto" markerUnits="userSpaceOnUse" viewBox="0 0 20 14"><polygon points="10,1 10,13 18,7" style="stroke-width: 2; stroke-dasharray: 0;"/></marker></defs><defs><marker id="my-svg_class-compositionStart" class="marker composition class" refX="18" refY="7" markerWidth="190" markerHeight="240" orient="auto"><path d="M 18,7 L9,13 L1,7 L9,1 Z"/></marker></defs><defs><marker id="my-svg_class-compositionEnd" class="marker composition class" refX="1" refY="7" markerWidth="20" markerHeight="28" orient="auto"><path d="M 18,7 L9,13 L1,7 L9,1 Z"/></marker></defs><defs><marker id="my-svg_class-compositionStart-margin" class="marker composition class" refX="15" refY="7" markerWidth="190" markerHeight="240" orient="auto" markerUnits="userSpaceOnUse"><path viewBox="0 0 15 15" d="M 18,7 L9,13 L1,7 L9,1 Z" style="stroke-width: 0;"/></marker></defs><defs><marker id="my-svg_class-compositionEnd-margin" class="marker composition class" refX="3.5" refY="7" markerWidth="20" markerHeight="28" orient="auto" markerUnits="userSpaceOnUse"><path d="M 18,7 L9,13 L1,7 L9,1 Z" style="stroke-width: 0;"/></marker></defs><defs><marker id="my-svg_class-dependencyStart" class="marker dependency class" refX="6" refY="7" markerWidth="190" markerHeight="240" orient="auto"><path d="M 5,7 L9,13 L1,7 L9,1 Z"/></marker></defs><defs><marker id="my-svg_class-dependencyEnd" class="marker dependency class" refX="13" refY="7" markerWidth="20" markerHeight="28" orient="auto"><path d="M 18,7 L9,13 L14,7 L9,1 Z"/></marker></defs><defs><marker id="my-svg_class-dependencyStart-margin" class="marker dependency class" refX="4" refY="7" markerWidth="190" markerHeight="240" orient="auto" markerUnits="userSpaceOnUse"><path d="M 5,7 L9,13 L1,7 L9,1 Z" style="stroke-width: 0;"/></marker></defs><defs><marker id="my-svg_class-dependencyEnd-margin" class="marker dependency class" refX="16" refY="7" markerWidth="20" markerHeight="28" orient="auto" markerUnits="userSpaceOnUse"><path d="M 18,7 L9,13 L14,7 L9,1 Z" style="stroke-width: 0;"/></marker></defs><defs><marker id="my-svg_class-lollipopStart" class="marker lollipop class" refX="13" refY="7" markerWidth="190" markerHeight="240" orient="auto"><circle fill="transparent" cx="7" cy="7" r="6"/></marker></defs><defs><marker id="my-svg_class-lollipopEnd" class="marker lollipop class" refX="1" refY="7" markerWidth="190" markerHeight="240" orient="auto"><circle fill="transparent" cx="7" cy="7" r="6"/></marker></defs><defs><marker id="my-svg_class-lollipopStart-margin" class="marker lollipop class" refX="13" refY="7" markerWidth="190" markerHeight="240" orient="auto" markerUnits="userSpaceOnUse"><circle fill="transparent" cx="7" cy="7" r="6" stroke-width="2"/></marker></defs><defs><marker id="my-svg_class-lollipopEnd-margin" class="marker lollipop class" refX="1" refY="7" markerWidth="190" markerHeight="240" orient="auto" markerUnits="userSpaceOnUse"><circle fill="transparent" cx="7" cy="7" r="6" stroke-width="2"/></marker></defs><g class="root"><g class="clusters"><g class="cluster undefined" id="my-svg-infrastructure" data-look="classic"><rect style="" x="8" y="8" width="1037.0390625" height="266"/><g class="cluster-label" transform="translate(471.91015625, 8)"><foreignObject width="109.21875" height="24"><div xmlns="http://www.w3.org/1999/xhtml" style="display: table-cell; white-space: nowrap; line-height: 1.5;"><span class="nodeLabel"><p>infrastructure</p></span></div></foreignObject></g></g></g><g class="edgePaths"><path d="M166.543,228L166.543,235.667C166.543,243.333,166.543,258.667,166.543,272.5C166.543,286.333,166.543,298.667,166.543,310C166.543,321.333,166.543,331.667,166.543,336.833L166.543,342" id="my-svg-id_StatePersistence_StateManager_1" class="edge-thickness-normal edge-pattern-solid relation" style=";;;" data-edge="true" data-et="edge" data-id="id_StatePersistence_StateManager_1" data-points="W3sieCI6MTY2LjU0Mjk2ODc1LCJ5IjoyMjh9LHsieCI6MTY2LjU0Mjk2ODc1LCJ5IjoyNzR9LHsieCI6MTY2LjU0Mjk2ODc1LCJ5IjozMTF9LHsieCI6MTY2LjU0Mjk2ODc1LCJ5IjozNDh9XQ==" data-look="classic" marker-end="url(#my-svg_class-dependencyEnd)"/><path d="M485.141,249L485.141,253.167C485.141,257.333,485.141,265.667,485.141,276C485.141,286.333,485.141,298.667,485.141,310C485.141,321.333,485.141,331.667,485.141,336.833L485.141,342" id="my-svg-id_StateTimer_InitStateManager_2" class="edge-thickness-normal edge-pattern-solid relation" style=";;;" data-edge="true" data-et="edge" data-id="id_StateTimer_InitStateManager_2" data-points="W3sieCI6NDg1LjE0MDYyNSwieSI6MjQ5fSx7IngiOjQ4NS4xNDA2MjUsInkiOjI3NH0seyJ4Ijo0ODUuMTQwNjI1LCJ5IjozMTF9LHsieCI6NDg1LjE0MDYyNSwieSI6MzQ4fV0=" data-look="classic" marker-end="url(#my-svg_class-dependencyEnd)"/><path d="M845.117,228L845.117,235.667C845.117,243.333,845.117,258.667,845.117,272.5C845.117,286.333,845.117,298.667,845.117,310C845.117,321.333,845.117,331.667,845.117,336.833L845.117,342" id="my-svg-id_StateEventEmitter_ClairDevice_3" class="edge-thickness-normal edge-pattern-solid relation" style=";;;" data-edge="true" data-et="edge" data-id="id_StateEventEmitter_ClairDevice_3" data-points="W3sieCI6ODQ1LjExNzE4NzUsInkiOjIyOH0seyJ4Ijo4NDUuMTE3MTg3NSwieSI6Mjc0fSx7IngiOjg0NS4xMTcxODc1LCJ5IjozMTF9LHsieCI6ODQ1LjExNzE4NzUsInkiOjM0OH1d" data-look="classic" marker-end="url(#my-svg_class-dependencyEnd)"/></g><g class="edgeLabels"><g class="edgeLabel" transform="translate(166.54296875, 311)"><g class="label" data-id="id_StatePersistence_StateManager_1" transform="translate(-31.15625, -12)"><foreignObject width="62.3125" height="24"><div xmlns="http://www.w3.org/1999/xhtml" class="labelBkg" style="display: table-cell; white-space: nowrap; line-height: 1.5; max-width: 200px; text-align: center;"><span class="edgeLabel"><p>persists</p></span></div></foreignObject></g></g><g class="edgeLabel" transform="translate(485.140625, 311)"><g class="label" data-id="id_StateTimer_InitStateManager_2" transform="translate(-62.28125, -12)"><foreignObject width="124.5625" height="24"><div xmlns="http://www.w3.org/1999/xhtml" class="labelBkg" style="display: table-cell; white-space: nowrap; line-height: 1.5; max-width: 200px; text-align: center;"><span class="edgeLabel"><p>provides timing</p></span></div></foreignObject></g></g><g class="edgeLabel" transform="translate(845.1171875, 311)"><g class="label" data-id="id_StateEventEmitter_ClairDevice_3" transform="translate(-51.7421875, -12)"><foreignObject width="103.484375" height="24"><div xmlns="http://www.w3.org/1999/xhtml" class="labelBkg" style="display: table-cell; white-space: nowrap; line-height: 1.5; max-width: 200px; text-align: center;"><span class="edgeLabel"><p>emits events</p></span></div></foreignObject></g></g></g><g class="nodes"><g class="node default" id="my-svg-classId-StatePersistence-0" data-look="classic" transform="translate(166.54296875, 141)"><g class="basic label-container outer-path"><path d="M-123.54296875 -87 L123.54296875 -87 L123.54296875 87 L-123.54296875 87" stroke="none" stroke-width="0" fill="#ECECFF" style=""/><path d="M-123.54296875 -87 C-65.36142232646031 -87, -7.179875902920628 -87, 123.54296875 -87 M-123.54296875 -87 C-25.477878105076414 -87, 72.58721253984717 -87, 123.54296875 -87 M123.54296875 -87 C123.54296875 -24.17620544946446, 123.54296875 38.64758910107108, 123.54296875 87 M123.54296875 -87 C123.54296875 -46.66813490892421, 123.54296875 -6.336269817848418, 123.54296875 87 M123.54296875 87 C42.01246516120297 87, -39.518038427594064 87, -123.54296875 87 M123.54296875 87 C31.889402108565974 87, -59.76416453286805 87, -123.54296875 87 M-123.54296875 87 C-123.54296875 51.74715890346276, -123.54296875 16.494317806925523, -123.54296875 -87 M-123.54296875 87 C-123.54296875 44.45672649675803, -123.54296875 1.91345299351606, -123.54296875 -87" stroke="#9370DB" stroke-width="1.3" fill="none" stroke-dasharray="0 0" style=""/></g><g class="annotation-group text" transform="translate(0, -63)"/><g class="label-group text" transform="translate(-76.8515625, -63)"><g class="label" style="font-weight: bolder" transform="translate(0,-12)"><foreignObject width="153.703125" height="24"><div xmlns="http://www.w3.org/1999/xhtml" style="display: table-cell; white-space: nowrap; line-height: 1.5; max-width: 183px; text-align: center;"><span class="nodeLabel markdown-node-label" style=""><p>StatePersistence</p></span></div></foreignObject></g></g><g class="members-group text" transform="translate(-111.54296875, -15)"/><g class="methods-group text" transform="translate(-111.54296875, 15)"><g class="label" style="" transform="translate(0,-12)"><foreignObject width="146.234375" height="24"><div xmlns="http://www.w3.org/1999/xhtml" style="display: table-cell; white-space: nowrap; line-height: 1.5; max-width: 199px; text-align: center;"><span class="nodeLabel markdown-node-label" style=""><p>+saveState(state)</p></span></div></foreignObject></g><g class="label" style="" transform="translate(0,12)"><foreignObject width="102.4375" height="24"><div xmlns="http://www.w3.org/1999/xhtml" style="display: table-cell; white-space: nowrap; line-height: 1.5; max-width: 156px; text-align: center;"><span class="nodeLabel markdown-node-label" style=""><p>+loadState()</p></span></div></foreignObject></g><g class="label" style="" transform="translate(0,36)"><foreignObject width="107.71875" height="24"><div xmlns="http://www.w3.org/1999/xhtml" style="display: table-cell; white-space: nowrap; line-height: 1.5; max-width: 162px; text-align: center;"><span class="nodeLabel markdown-node-label" style=""><p>+clearState()</p></span></div></foreignObject></g></g><g class="divider" style=""><path d="M-123.54296875 -39 C-39.57985200260377 -38.999660186582865, 44.383264744792456 -38.99932037316574, 123.54296875 -38.999 M-123.54296875 -39 C-42.59593807779248 -38.99967239321067, 38.351092594415036 -38.99934478642135, 123.54296875 -38.999" stroke="#9370DB" stroke-width="1.3" fill="none" stroke-dasharray="0 0" style=""/></g><g class="divider" style=""><path d="M-123.54296875 -15 C-60.800541234151645 -14.999746070423308, 1.9418862816967106 -14.999492140846616, 123.54296875 -14.999 M-123.54296875 -15 C-70.3684740129506 -14.999784793520526, -17.193979275901185 -14.999569587041051, 123.54296875 -14.999" stroke="#9370DB" stroke-width="1.3" fill="none" stroke-dasharray="0 0" style=""/></g></g><g class="node default" id="my-svg-classId-StateTimer-1" data-look="classic" transform="translate(485.140625, 141)"><g class="basic label-container outer-path"><path d="M-145.0546875 -108 L145.0546875 -108 L145.0546875 108 L-145.0546875 108" stroke="none" stroke-width="0" fill="#ECECFF" style=""/><path d="M-145.0546875 -108 C-45.24841492261285 -108, 54.557857654774295 -108, 145.0546875 -108 M-145.0546875 -108 C-39.570085259850146 -108, 65.91451698029971 -108, 145.0546875 -108 M145.0546875 -108 C145.0546875 -21.82664224442196, 145.0546875 64.34671551115608, 145.0546875 108 M145.0546875 -108 C145.0546875 -45.30171388514498, 145.0546875 17.396572229710046, 145.0546875 108 M145.0546875 108 C44.46274683051375 108, -56.1291938389725 108, -145.0546875 108 M145.0546875 108 C29.770292788998603 108, -85.5141019220028 108, -145.0546875 108 M-145.0546875 108 C-145.0546875 42.19978415632241, -145.0546875 -23.600431687355183, -145.0546875 -108 M-145.0546875 108 C-145.0546875 47.31569666649511, -145.0546875 -13.368606667009786, -145.0546875 -108" stroke="#9370DB" stroke-width="1.3" fill="none" stroke-dasharray="0 0" style=""/></g><g class="annotation-group text" transform="translate(0, -84)"/><g class="label-group text" transform="translate(-50.140625, -84)"><g class="label" style="font-weight: bolder" transform="translate(0,-12)"><foreignObject width="100.28125" height="24"><div xmlns="http://www.w3.org/1999/xhtml" style="display: table-cell; white-space: nowrap; line-height: 1.5; max-width: 139px; text-align: center;"><span class="nodeLabel markdown-node-label" style=""><p>StateTimer</p></span></div></foreignObject></g></g><g class="members-group text" transform="translate(-133.0546875, -36)"><g class="label" style="" transform="translate(0,-12)"><foreignObject width="207.890625" height="24"><div xmlns="http://www.w3.org/1999/xhtml" style="display: table-cell; white-space: nowrap; line-height: 1.5; max-width: 261px; text-align: center;"><span class="nodeLabel markdown-node-label" style=""><p>+unsigned long startTime</p></span></div></foreignObject></g><g class="label" style="" transform="translate(0,12)"><foreignObject width="215.96875" height="24"><div xmlns="http://www.w3.org/1999/xhtml" style="display: table-cell; white-space: nowrap; line-height: 1.5; max-width: 268px; text-align: center;"><span class="nodeLabel markdown-node-label" style=""><p>+unsigned long timeoutMs</p></span></div></foreignObject></g></g><g class="methods-group text" transform="translate(-133.0546875, 36)"><g class="label" style="" transform="translate(0,-12)"><foreignObject width="171.765625" height="24"><div xmlns="http://www.w3.org/1999/xhtml" style="display: table-cell; white-space: nowrap; line-height: 1.5; max-width: 226px; text-align: center;"><span class="nodeLabel markdown-node-label" style=""><p>+bool hasTimedOut()</p></span></div></foreignObject></g><g class="label" style="" transform="translate(0,12)"><foreignObject width="66.421875" height="24"><div xmlns="http://www.w3.org/1999/xhtml" style="display: table-cell; white-space: nowrap; line-height: 1.5; max-width: 121px; text-align: center;"><span class="nodeLabel markdown-node-label" style=""><p>+reset()</p></span></div></foreignObject></g><g class="label" style="" transform="translate(0,36)"><foreignObject width="137.15625" height="24"><div xmlns="http://www.w3.org/1999/xhtml" style="display: table-cell; white-space: nowrap; line-height: 1.5; max-width: 190px; text-align: center;"><span class="nodeLabel markdown-node-label" style=""><p>+getElapsedMs()</p></span></div></foreignObject></g></g><g class="divider" style=""><path d="M-145.0546875 -60 C-57.488809846543546 -59.99969816253731, 30.077067806912908 -59.99939632507461, 145.0546875 -59.999 M-145.0546875 -60 C-84.8716919804671 -59.99979255066983, -24.68869646093421 -59.99958510133966, 145.0546875 -59.999" stroke="#9370DB" stroke-width="1.3" fill="none" stroke-dasharray="0 0" style=""/></g><g class="divider" style=""><path d="M-145.0546875 12 C-52.84452835248369 12.000317846188691, 39.365630795032615 12.000635692377383, 145.0546875 12.001 M-145.0546875 12 C-36.06177423042607 12.000375695936299, 72.93113903914787 12.000751391872596, 145.0546875 12.001" stroke="#9370DB" stroke-width="1.3" fill="none" stroke-dasharray="0 0" style=""/></g></g><g class="node default" id="my-svg-classId-StateEventEmitter-2" data-look="classic" transform="translate(845.1171875, 141)"><g class="basic label-container outer-path"><path d="M-164.921875 -87 L164.921875 -87 L164.921875 87 L-164.921875 87" stroke="none" stroke-width="0" fill="#ECECFF" style=""/><path d="M-164.921875 -87 C-60.84780809528948 -87, 43.22625880942104 -87, 164.921875 -87 M-164.921875 -87 C-54.61409554297754 -87, 55.693683914044925 -87, 164.921875 -87 M164.921875 -87 C164.921875 -48.72461103257694, 164.921875 -10.449222065153876, 164.921875 87 M164.921875 -87 C164.921875 -44.77835857410848, 164.921875 -2.5567171482169613, 164.921875 87 M164.921875 87 C55.52051605756708 87, -53.88084288486584 87, -164.921875 87 M164.921875 87 C68.0499189876262 87, -28.8220370247476 87, -164.921875 87 M-164.921875 87 C-164.921875 22.01401548641776, -164.921875 -42.97196902716448, -164.921875 -87 M-164.921875 87 C-164.921875 19.135881154484963, -164.921875 -48.728237691030074, -164.921875 -87" stroke="#9370DB" stroke-width="1.3" fill="none" stroke-dasharray="0 0" style=""/></g><g class="annotation-group text" transform="translate(-53.8828125, -63)"><g class="label" style="" transform="translate(0,-12)"><foreignObject width="107.765625" height="24"><div xmlns="http://www.w3.org/1999/xhtml" style="display: table-cell; white-space: nowrap; line-height: 1.5; max-width: 158px; text-align: center;"><span class="nodeLabel markdown-node-label" style=""><p>«conceptual»</p></span></div></foreignObject></g></g><g class="label-group text" transform="translate(-83.421875, -39)"><g class="label" style="font-weight: bolder" transform="translate(0,-12)"><foreignObject width="166.84375" height="24"><div xmlns="http://www.w3.org/1999/xhtml" style="display: table-cell; white-space: nowrap; line-height: 1.5; max-width: 196px; text-align: center;"><span class="nodeLabel markdown-node-label" style=""><p>StateEventEmitter</p></span></div></foreignObject></g></g><g class="members-group text" transform="translate(-152.921875, 9)"/><g class="methods-group text" transform="translate(-152.921875, 39)"><g class="label" style="" transform="translate(0,-12)"><foreignObject width="216.34375" height="24"><div xmlns="http://www.w3.org/1999/xhtml" style="display: table-cell; white-space: nowrap; line-height: 1.5; max-width: 269px; text-align: center;"><span class="nodeLabel markdown-node-label" style=""><p>+emitStateChanged(state)</p></span></div></foreignObject></g><g class="label" style="" transform="translate(0,12)"><foreignObject width="222.421875" height="24"><div xmlns="http://www.w3.org/1999/xhtml" style="display: table-cell; white-space: nowrap; line-height: 1.5; max-width: 277px; text-align: center;"><span class="nodeLabel markdown-node-label" style=""><p>+emitModeChanged(mode)</p></span></div></foreignObject></g></g><g class="divider" style=""><path d="M-164.921875 -15 C-61.63109821223094 -14.99968684937402, 41.65967857553812 -14.999373698748043, 164.921875 -14.999 M-164.921875 -15 C-95.1057205279803 -14.999788335675689, -25.28956605596059 -14.999576671351377, 164.921875 -14.999" stroke="#9370DB" stroke-width="1.3" fill="none" stroke-dasharray="0 0" style=""/></g><g class="divider" style=""><path d="M-164.921875 9 C-40.027124114297976 9.000378648226276, 84.86762677140405 9.000757296452552, 164.921875 9.001 M-164.921875 9 C-59.18258312887711 9.000320573883455, 46.556708742245775 9.000641147766911, 164.921875 9.001" stroke="#9370DB" stroke-width="1.3" fill="none" stroke-dasharray="0 0" style=""/></g></g><g class="node default" id="my-svg-classId-StateManager-3" data-look="classic" transform="translate(166.54296875, 390)"><g class="basic label-container outer-path"><path d="M-75.7890625 -42 L75.7890625 -42 L75.7890625 42 L-75.7890625 42" stroke="none" stroke-width="0" fill="#ECECFF" style=""/><path d="M-75.7890625 -42 C-41.65099436031506 -42, -7.512926220630121 -42, 75.7890625 -42 M-75.7890625 -42 C-21.03006376600637 -42, 33.72893496798726 -42, 75.7890625 -42 M75.7890625 -42 C75.7890625 -9.795692023728712, 75.7890625 22.408615952542576, 75.7890625 42 M75.7890625 -42 C75.7890625 -15.607702801919725, 75.7890625 10.78459439616055, 75.7890625 42 M75.7890625 42 C20.682821125579835 42, -34.42342024884033 42, -75.7890625 42 M75.7890625 42 C26.279363939879204 42, -23.230334620241592 42, -75.7890625 42 M-75.7890625 42 C-75.7890625 20.33624997512292, -75.7890625 -1.327500049754157, -75.7890625 -42 M-75.7890625 42 C-75.7890625 8.829959775278269, -75.7890625 -24.340080449443462, -75.7890625 -42" stroke="#9370DB" stroke-width="1.3" fill="none" stroke-dasharray="0 0" style=""/></g><g class="annotation-group text" transform="translate(0, -18)"/><g class="label-group text" transform="translate(-63.7890625, -18)"><g class="label" style="font-weight: bolder" transform="translate(0,-12)"><foreignObject width="127.578125" height="24"><div xmlns="http://www.w3.org/1999/xhtml" style="display: table-cell; white-space: nowrap; line-height: 1.5; max-width: 163px; text-align: center;"><span class="nodeLabel markdown-node-label" style=""><p>StateManager</p></span></div></foreignObject></g></g><g class="members-group text" transform="translate(-63.7890625, 30)"/><g class="methods-group text" transform="translate(-63.7890625, 60)"/><g class="divider" style=""><path d="M-75.7890625 6 C-34.18527199230708 6.000274470940366, 7.418518515385841 6.000548941880733, 75.7890625 6.001 M-75.7890625 6 C-16.309740946369857 6.000392400430825, 43.169580607260286 6.00078480086165, 75.7890625 6.001" stroke="#9370DB" stroke-width="1.3" fill="none" stroke-dasharray="0 0" style=""/></g><g class="divider" style=""><path d="M-75.7890625 24 C-15.884412756573958 24.000395206430635, 44.02023698685208 24.000790412861267, 75.7890625 24.001 M-75.7890625 24 C-32.7180190122348 24.00028415078685, 10.353024475530404 24.000568301573697, 75.7890625 24.001" stroke="#9370DB" stroke-width="1.3" fill="none" stroke-dasharray="0 0" style=""/></g></g><g class="node default" id="my-svg-classId-InitStateManager-4" data-look="classic" transform="translate(485.140625, 390)"><g class="basic label-container outer-path"><path d="M-91.0234375 -42 L91.0234375 -42 L91.0234375 42 L-91.0234375 42" stroke="none" stroke-width="0" fill="#ECECFF" style=""/><path d="M-91.0234375 -42 C-44.677400746852946 -42, 1.6686360062941077 -42, 91.0234375 -42 M-91.0234375 -42 C-49.56520929647061 -42, -8.106981092941226 -42, 91.0234375 -42 M91.0234375 -42 C91.0234375 -20.929792879769284, 91.0234375 0.14041424046143192, 91.0234375 42 M91.0234375 -42 C91.0234375 -10.233031594149896, 91.0234375 21.533936811700208, 91.0234375 42 M91.0234375 42 C51.65568142521082 42, 12.287925350421645 42, -91.0234375 42 M91.0234375 42 C38.47184028006221 42, -14.07975693987558 42, -91.0234375 42 M-91.0234375 42 C-91.0234375 11.288437217968866, -91.0234375 -19.423125564062268, -91.0234375 -42 M-91.0234375 42 C-91.0234375 14.013931030038517, -91.0234375 -13.972137939922966, -91.0234375 -42" stroke="#9370DB" stroke-width="1.3" fill="none" stroke-dasharray="0 0" style=""/></g><g class="annotation-group text" transform="translate(0, -18)"/><g class="label-group text" transform="translate(-79.0234375, -18)"><g class="label" style="font-weight: bolder" transform="translate(0,-12)"><foreignObject width="158.046875" height="24"><div xmlns="http://www.w3.org/1999/xhtml" style="display: table-cell; white-space: nowrap; line-height: 1.5; max-width: 188px; text-align: center;"><span class="nodeLabel markdown-node-label" style=""><p>InitStateManager</p></span></div></foreignObject></g></g><g class="members-group text" transform="translate(-79.0234375, 30)"/><g class="methods-group text" transform="translate(-79.0234375, 60)"/><g class="divider" style=""><path d="M-91.0234375 6 C-53.33635086419719 6.0002070185859315, -15.649264228394387 6.000414037171864, 91.0234375 6.001 M-91.0234375 6 C-20.77327207130911 6.000385890531923, 49.47689335738178 6.000771781063847, 91.0234375 6.001" stroke="#9370DB" stroke-width="1.3" fill="none" stroke-dasharray="0 0" style=""/></g><g class="divider" style=""><path d="M-91.0234375 24 C-26.12863590134458 24.000356473032557, 38.76616569731084 24.000712946065114, 91.0234375 24.001 M-91.0234375 24 C-26.863946506938774 24.00035243390469, 37.29554448612245 24.000704867809382, 91.0234375 24.001" stroke="#9370DB" stroke-width="1.3" fill="none" stroke-dasharray="0 0" style=""/></g></g><g class="node default" id="my-svg-classId-ClairDevice-5" data-look="classic" transform="translate(845.1171875, 390)"><g class="basic label-container outer-path"><path d="M-62.890625 -42 L62.890625 -42 L62.890625 42 L-62.890625 42" stroke="none" stroke-width="0" fill="#ECECFF" style=""/><path d="M-62.890625 -42 C-18.13564761001861 -42, 26.619329779962783 -42, 62.890625 -42 M-62.890625 -42 C-24.337722585593525 -42, 14.21517982881295 -42, 62.890625 -42 M62.890625 -42 C62.890625 -10.666523318571162, 62.890625 20.666953362857676, 62.890625 42 M62.890625 -42 C62.890625 -19.389296959249908, 62.890625 3.2214060815001844, 62.890625 42 M62.890625 42 C17.027107083783072 42, -28.836410832433856 42, -62.890625 42 M62.890625 42 C14.166894493568378 42, -34.55683601286324 42, -62.890625 42 M-62.890625 42 C-62.890625 14.795484863593515, -62.890625 -12.40903027281297, -62.890625 -42 M-62.890625 42 C-62.890625 13.320077366184982, -62.890625 -15.359845267630035, -62.890625 -42" stroke="#9370DB" stroke-width="1.3" fill="none" stroke-dasharray="0 0" style=""/></g><g class="annotation-group text" transform="translate(0, -18)"/><g class="label-group text" transform="translate(-50.890625, -18)"><g class="label" style="font-weight: bolder" transform="translate(0,-12)"><foreignObject width="101.78125" height="24"><div xmlns="http://www.w3.org/1999/xhtml" style="display: table-cell; white-space: nowrap; line-height: 1.5; max-width: 140px; text-align: center;"><span class="nodeLabel markdown-node-label" style=""><p>ClairDevice</p></span></div></foreignObject></g></g><g class="members-group text" transform="translate(-50.890625, 30)"/><g class="methods-group text" transform="translate(-50.890625, 60)"/><g class="divider" style=""><path d="M-62.890625 6 C-24.636492983415543 6.000304132229697, 13.617639033168913 6.0006082644593945, 62.890625 6.001 M-62.890625 6 C-36.187900293449445 6.0002122949541885, -9.485175586898897 6.000424589908378, 62.890625 6.001" stroke="#9370DB" stroke-width="1.3" fill="none" stroke-dasharray="0 0" style=""/></g><g class="divider" style=""><path d="M-62.890625 24 C-18.601462508041728 24.00035211259621, 25.687699983916545 24.00070422519242, 62.890625 24.001 M-62.890625 24 C-24.78031374977904 24.00030298880994, 13.32999750044192 24.00060597761988, 62.890625 24.001" stroke="#9370DB" stroke-width="1.3" fill="none" stroke-dasharray="0 0" style=""/></g></g></g></g></g><defs><filter id="my-svg-drop-shadow" height="130%" width="130%"><feDropShadow dx="4" dy="4" stdDeviation="0" flood-opacity="0.06" flood-color="#000000"/></filter></defs><defs><filter id="my-svg-drop-shadow-small" height="150%" width="150%"><feDropShadow dx="2" dy="2" stdDeviation="0" flood-opacity="0.06" flood-color="#000000"/></filter></defs><text text-anchor="middle" x="526.51953125" y="-25" class="classDiagramTitleText">Device State - Infrastructure Layer Class Diagram</text></svg>