<svg id="my-svg" width="100%" xmlns="http://www.w3.org/2000/svg" xmlns:xlink="http://www.w3.org/1999/xlink" class="classDiagram" style="max-width: 1951.31px; background-color: transparent;" viewBox="0 -48 1951.3125 546" role="graphics-document document" aria-roledescription="class"><style>#my-svg{font-family:"trebuchet ms",verdana,arial,sans-serif;font-size:16px;fill:#333;}@keyframes edge-animation-frame{from{stroke-dashoffset:0;}}@keyframes dash{to{stroke-dashoffset:0;}}#my-svg .edge-animation-slow{stroke-dasharray:9,5!important;stroke-dashoffset:900;animation:dash 50s linear infinite;stroke-linecap:round;}#my-svg .edge-animation-fast{stroke-dasharray:9,5!important;stroke-dashoffset:900;animation:dash 20s linear infinite;stroke-linecap:round;}#my-svg .error-icon{fill:#552222;}#my-svg .error-text{fill:#552222;stroke:#552222;}#my-svg .edge-thickness-normal{stroke-width:1px;}#my-svg .edge-thickness-thick{stroke-width:3.5px;}#my-svg .edge-pattern-solid{stroke-dasharray:0;}#my-svg .edge-thickness-invisible{stroke-width:0;fill:none;}#my-svg .edge-pattern-dashed{stroke-dasharray:3;}#my-svg .edge-pattern-dotted{stroke-dasharray:2;}#my-svg .marker{fill:#333333;stroke:#333333;}#my-svg .marker.cross{stroke:#333333;}#my-svg svg{font-family:"trebuchet ms",verdana,arial,sans-serif;font-size:16px;}#my-svg p{margin:0;}#my-svg g.classGroup text{fill:#9370DB;stroke:none;font-family:"trebuchet ms",verdana,arial,sans-serif;font-size:10px;}#my-svg g.classGroup text .title{font-weight:bolder;}#my-svg .nodeLabel,#my-svg .edgeLabel{color:#131300;}#my-svg .edgeLabel .label rect{fill:#ECECFF;}#my-svg .label text{fill:#131300;}#my-svg .labelBkg{background:#ECECFF;}#my-svg .edgeLabel .label span{background:#ECECFF;}#my-svg .classTitle{font-weight:bolder;}#my-svg .node rect,#my-svg .node circle,#my-svg .node ellipse,#my-svg .node polygon,#my-svg .node path{fill:#ECECFF;stroke:#9370DB;stroke-width:1px;}#my-svg .divider{stroke:#9370DB;stroke-width:1;}#my-svg g.clickable{cursor:pointer;}#my-svg g.classGroup rect{fill:#ECECFF;stroke:#9370DB;}#my-svg g.classGroup line{stroke:#9370DB;stroke-width:1;}#my-svg .classLabel .box{stroke:none;stroke-width:0;fill:#ECECFF;opacity:0.5;}#my-svg .classLabel .label{fill:#9370DB;font-size:10px;}#my-svg .relation{stroke:#333333;stroke-width:1;fill:none;}#my-svg .dashed-line{stroke-dasharray:3;}#my-svg .dotted-line{stroke-dasharray:1 2;}#my-svg #compositionStart,#my-svg .composition{fill:#333333!important;stroke:#333333!important;stroke-width:1;}#my-svg #compositionEnd,#my-svg .composition{fill:#333333!important;stroke:#333333!important;stroke-width:1;}#my-svg #dependencyStart,#my-svg .dependency{fill:#333333!important;stroke:#333333!important;stroke-width:1;}#my-svg #dependencyStart,#my-svg .dependency{fill:#333333!important;stroke:#333333!important;stroke-width:1;}#my-svg #extensionStart,#my-svg .extension{fill:transparent!important;stroke:#333333!important;stroke-width:1;}#my-svg #extensionEnd,#my-svg .extension{fill:transparent!important;stroke:#333333!important;stroke-width:1;}#my-svg #aggregationStart,#my-svg .aggregation{fill:transparent!important;stroke:#333333!important;stroke-width:1;}#my-svg #aggregationEnd,#my-svg .aggregation{fill:transparent!important;stroke:#333333!important;stroke-width:1;}#my-svg #lollipopStart,#my-svg .lollipop{fill:#ECECFF!important;stroke:#333333!important;stroke-width:1;}#my-svg #lollipopEnd,#my-svg .lollipop{fill:#ECECFF!important;stroke:#333333!important;stroke-width:1;}#my-svg .edgeTerminals{font-size:11px;line-height:initial;}#my-svg .classTitleText{text-anchor:middle;font-size:18px;fill:#333;}#my-svg .label-icon{display:inline-block;height:1em;overflow:visible;vertical-align:-0.125em;}#my-svg .node .label-icon path{fill:currentColor;stroke:revert;stroke-width:revert;}#my-svg :root{--mermaid-font-family:"trebuchet ms",verdana,arial,sans-serif;}</style><g><defs><marker id="my-svg_class-aggregationStart" class="marker aggregation class" refX="18" refY="7" markerWidth="190" markerHeight="240" orient="auto"><path d="M 18,7 L9,13 L1,7 L9,1 Z"/></marker></defs><defs><marker id="my-svg_class-aggregationEnd" class="marker aggregation class" refX="1" refY="7" markerWidth="20" markerHeight="28" orient="auto"><path d="M 18,7 L9,13 L1,7 L9,1 Z"/></marker></defs><defs><marker id="my-svg_class-extensionStart" class="marker extension class" refX="18" refY="7" markerWidth="190" markerHeight="240" orient="auto"><path d="M 1,7 L18,13 V 1 Z"/></marker></defs><defs><marker id="my-svg_class-extensionEnd" class="marker extension class" refX="1" refY="7" markerWidth="20" markerHeight="28" orient="auto"><path d="M 1,1 V 13 L18,7 Z"/></marker></defs><defs><marker id="my-svg_class-compositionStart" class="marker composition class" refX="18" refY="7" markerWidth="190" markerHeight="240" orient="auto"><path d="M 18,7 L9,13 L1,7 L9,1 Z"/></marker></defs><defs><marker id="my-svg_class-compositionEnd" class="marker composition class" refX="1" refY="7" markerWidth="20" markerHeight="28" orient="auto"><path d="M 18,7 L9,13 L1,7 L9,1 Z"/></marker></defs><defs><marker id="my-svg_class-dependencyStart" class="marker dependency class" refX="6" refY="7" markerWidth="190" markerHeight="240" orient="auto"><path d="M 5,7 L9,13 L1,7 L9,1 Z"/></marker></defs><defs><marker id="my-svg_class-dependencyEnd" class="marker dependency class" refX="13" refY="7" markerWidth="20" markerHeight="28" orient="auto"><path d="M 18,7 L9,13 L14,7 L9,1 Z"/></marker></defs><defs><marker id="my-svg_class-lollipopStart" class="marker lollipop class" refX="13" refY="7" markerWidth="190" markerHeight="240" orient="auto"><circle stroke="black" fill="transparent" cx="7" cy="7" r="6"/></marker></defs><defs><marker id="my-svg_class-lollipopEnd" class="marker lollipop class" refX="1" refY="7" markerWidth="190" markerHeight="240" orient="auto"><circle stroke="black" fill="transparent" cx="7" cy="7" r="6"/></marker></defs><g class="root"><g class="clusters"/><g class="edgePaths"><path d="M266.004,188L266.004,200.167C266.004,212.333,266.004,236.667,266.004,254C266.004,271.333,266.004,281.667,266.004,286.833L266.004,292" id="id_DeviceVitalsAcl_DeviceVitalsSnapshot_1" class="edge-thickness-normal edge-pattern-solid relation" style=";;;" data-edge="true" data-et="edge" data-id="id_DeviceVitalsAcl_DeviceVitalsSnapshot_1" data-points="W3sieCI6MjY2LjAwMzkwNjI1LCJ5IjoxODh9LHsieCI6MjY2LjAwMzkwNjI1LCJ5IjoyNjF9LHsieCI6MjY2LjAwMzkwNjI1LCJ5IjoyOTh9XQ==" marker-end="url(#my-svg_class-dependencyEnd)"/></g><g class="edgeLabels"><g class="edgeLabel" transform="translate(266.00390625, 261)"><g class="label" data-id="id_DeviceVitalsAcl_DeviceVitalsSnapshot_1" transform="translate(-36.890625, -12)"><foreignObject width="73.78125" height="24"><div xmlns="http://www.w3.org/1999/xhtml" class="labelBkg" style="display: table-cell; white-space: nowrap; line-height: 1.5; max-width: 200px; text-align: center;"><span class="edgeLabel"><p>constructs</p></span></div></foreignObject></g></g></g><g class="nodes"><g class="node default" id="classId-DeviceVitalsAcl-0" transform="translate(266.00390625, 116)"><g class="basic label-container"><path d="M-258.00390625 -72 L258.00390625 -72 L258.00390625 72 L-258.00390625 72" stroke="none" stroke-width="0" fill="#ECECFF" style=""/><path d="M-258.00390625 -72 C-77.03767569101984 -72, 103.92855486796032 -72, 258.00390625 -72 M-258.00390625 -72 C-73.37109264058253 -72, 111.26172096883494 -72, 258.00390625 -72 M258.00390625 -72 C258.00390625 -28.350874495245904, 258.00390625 15.298251009508192, 258.00390625 72 M258.00390625 -72 C258.00390625 -15.9275206966106, 258.00390625 40.1449586067788, 258.00390625 72 M258.00390625 72 C105.82117668727867 72, -46.36155287544267 72, -258.00390625 72 M258.00390625 72 C78.52093822164079 72, -100.96202980671842 72, -258.00390625 72 M-258.00390625 72 C-258.00390625 16.20553148951211, -258.00390625 -39.58893702097578, -258.00390625 -72 M-258.00390625 72 C-258.00390625 32.07723943615855, -258.00390625 -7.8455211276829, -258.00390625 -72" stroke="#9370DB" stroke-width="1.3" fill="none" stroke-dasharray="0 0" style=""/></g><g class="annotation-group text" transform="translate(0, -48)"/><g class="label-group text" transform="translate(-57.2578125, -48)"><g class="label" style="font-weight: bolder" transform="translate(0,-12)"><foreignObject width="114.515625" height="24"><div xmlns="http://www.w3.org/1999/xhtml" style="display: table-cell; white-space: nowrap; line-height: 1.5; max-width: 156px; text-align: center;"><span class="nodeLabel markdown-node-label" style=""><p>DeviceVitalsAcl</p></span></div></foreignObject></g></g><g class="members-group text" transform="translate(-246.00390625, 0)"><g class="label" style="" transform="translate(0,-12)"><foreignObject width="434.75" height="24"><div xmlns="http://www.w3.org/1999/xhtml" style="display: table-cell; white-space: nowrap; line-height: 1.5; max-width: 452px; text-align: center;"><span class="nodeLabel markdown-node-label" style=""><p>-_evaluationQueryService: TelemetryEvaluationQueryService</p></span></div></foreignObject></g></g><g class="methods-group text" transform="translate(-246.00390625, 48)"><g class="label" style="" transform="translate(0,-12)"><foreignObject width="332.1875" height="24"><div xmlns="http://www.w3.org/1999/xhtml" style="display: table-cell; white-space: nowrap; line-height: 1.5; max-width: 357px; text-align: center;"><span class="nodeLabel markdown-node-label" style=""><p>+fetchLatestVitals(deviceId: DeviceId) : Either</p></span></div></foreignObject></g></g><g class="divider" style=""><path d="M-258.00390625 -24 C-90.0711921826771 -24, 77.86152188464581 -24, 258.00390625 -24 M-258.00390625 -24 C-74.0844927063398 -24, 109.8349208373204 -24, 258.00390625 -24" stroke="#9370DB" stroke-width="1.3" fill="none" stroke-dasharray="0 0" style=""/></g><g class="divider" style=""><path d="M-258.00390625 24 C-59.11821313530078 24, 139.76747997939844 24, 258.00390625 24 M-258.00390625 24 C-149.04177805311704 24, -40.079649856234084 24, 258.00390625 24" stroke="#9370DB" stroke-width="1.3" fill="none" stroke-dasharray="0 0" style=""/></g></g><g class="node default" id="classId-DeviceVitalsSnapshot-1" transform="translate(266.00390625, 394)"><g class="basic label-container"><path d="M-160 -96 L160 -96 L160 96 L-160 96" stroke="none" stroke-width="0" fill="#ECECFF" style=""/><path d="M-160 -96 C-95.53624700971507 -96, -31.072494019430138 -96, 160 -96 M-160 -96 C-53.09392978961358 -96, 53.812140420772835 -96, 160 -96 M160 -96 C160 -54.362738918214056, 160 -12.725477836428112, 160 96 M160 -96 C160 -48.00165076435573, 160 -0.0033015287114608327, 160 96 M160 96 C53.078863217294696 96, -53.84227356541061 96, -160 96 M160 96 C79.48343938873406 96, -1.0331212225318893 96, -160 96 M-160 96 C-160 22.105217576195756, -160 -51.78956484760849, -160 -96 M-160 96 C-160 24.329699296660408, -160 -47.340601406679184, -160 -96" stroke="#9370DB" stroke-width="1.3" fill="none" stroke-dasharray="0 0" style=""/></g><g class="annotation-group text" transform="translate(0, -72)"/><g class="label-group text" transform="translate(-79.359375, -72)"><g class="label" style="font-weight: bolder" transform="translate(0,-12)"><foreignObject width="158.71875" height="24"><div xmlns="http://www.w3.org/1999/xhtml" style="display: table-cell; white-space: nowrap; line-height: 1.5; max-width: 192px; text-align: center;"><span class="nodeLabel markdown-node-label" style=""><p>DeviceVitalsSnapshot</p></span></div></foreignObject></g></g><g class="members-group text" transform="translate(-148, -24)"><g class="label" style="" transform="translate(0,-12)"><foreignObject width="187.875" height="24"><div xmlns="http://www.w3.org/1999/xhtml" style="display: table-cell; white-space: nowrap; line-height: 1.5; max-width: 227px; text-align: center;"><span class="nodeLabel markdown-node-label" style=""><p>+connectivityDbm: double</p></span></div></foreignObject></g><g class="label" style="" transform="translate(0,12)"><foreignObject width="129.796875" height="24"><div xmlns="http://www.w3.org/1999/xhtml" style="display: table-cell; white-space: nowrap; line-height: 1.5; max-width: 173px; text-align: center;"><span class="nodeLabel markdown-node-label" style=""><p>+uptimeHours: int</p></span></div></foreignObject></g><g class="label" style="" transform="translate(0,36)"><foreignObject width="216.640625" height="24"><div xmlns="http://www.w3.org/1999/xhtml" style="display: table-cell; white-space: nowrap; line-height: 1.5; max-width: 248px; text-align: center;"><span class="nodeLabel markdown-node-label" style=""><p>+deviceHealthPercent: double</p></span></div></foreignObject></g><g class="label" style="" transform="translate(0,60)"><foreignObject width="156.859375" height="24"><div xmlns="http://www.w3.org/1999/xhtml" style="display: table-cell; white-space: nowrap; line-height: 1.5; max-width: 197px; text-align: center;"><span class="nodeLabel markdown-node-label" style=""><p>+lastUpdateHours: int</p></span></div></foreignObject></g></g><g class="methods-group text" transform="translate(-148, 96)"/><g class="divider" style=""><path d="M-160 -48 C-74.49662308717676 -48, 11.006753825646484 -48, 160 -48 M-160 -48 C-54.19836795116419 -48, 51.60326409767163 -48, 160 -48" stroke="#9370DB" stroke-width="1.3" fill="none" stroke-dasharray="0 0" style=""/></g><g class="divider" style=""><path d="M-160 72 C-67.43556003605933 72, 25.128879927881343 72, 160 72 M-160 72 C-93.00074199786002 72, -26.001483995720037 72, 160 72" stroke="#9370DB" stroke-width="1.3" fill="none" stroke-dasharray="0 0" style=""/></g></g><g class="node default" id="classId-DevicesCommandServiceImpl-2" transform="translate(925.17578125, 116)"><g class="basic label-container"><path d="M-351.16796875 -108 L351.16796875 -108 L351.16796875 108 L-351.16796875 108" stroke="none" stroke-width="0" fill="#ECECFF" style=""/><path d="M-351.16796875 -108 C-162.97110437522366 -108, 25.22575999955268 -108, 351.16796875 -108 M-351.16796875 -108 C-127.07358290276596 -108, 97.02080294446807 -108, 351.16796875 -108 M351.16796875 -108 C351.16796875 -50.25796404378922, 351.16796875 7.484071912421555, 351.16796875 108 M351.16796875 -108 C351.16796875 -31.674911772770486, 351.16796875 44.65017645445903, 351.16796875 108 M351.16796875 108 C159.7716757700834 108, -31.624617209833218 108, -351.16796875 108 M351.16796875 108 C111.74355808786416 108, -127.68085257427168 108, -351.16796875 108 M-351.16796875 108 C-351.16796875 33.42653405314256, -351.16796875 -41.14693189371488, -351.16796875 -108 M-351.16796875 108 C-351.16796875 35.814448591483895, -351.16796875 -36.37110281703221, -351.16796875 -108" stroke="#9370DB" stroke-width="1.3" fill="none" stroke-dasharray="0 0" style=""/></g><g class="annotation-group text" transform="translate(0, -84)"/><g class="label-group text" transform="translate(-109.3046875, -84)"><g class="label" style="font-weight: bolder" transform="translate(0,-12)"><foreignObject width="218.609375" height="24"><div xmlns="http://www.w3.org/1999/xhtml" style="display: table-cell; white-space: nowrap; line-height: 1.5; max-width: 247px; text-align: center;"><span class="nodeLabel markdown-node-label" style=""><p>DevicesCommandServiceImpl</p></span></div></foreignObject></g></g><g class="members-group text" transform="translate(-339.16796875, -36)"><g class="label" style="" transform="translate(0,-12)"><foreignObject width="201.234375" height="24"><div xmlns="http://www.w3.org/1999/xhtml" style="display: table-cell; white-space: nowrap; line-height: 1.5; max-width: 238px; text-align: center;"><span class="nodeLabel markdown-node-label" style=""><p>-_gateway: DevicesGateway</p></span></div></foreignObject></g></g><g class="methods-group text" transform="translate(-339.16796875, 12)"><g class="label" style="" transform="translate(0,-12)"><foreignObject width="427.578125" height="24"><div xmlns="http://www.w3.org/1999/xhtml" style="display: table-cell; white-space: nowrap; line-height: 1.5; max-width: 449px; text-align: center;"><span class="nodeLabel markdown-node-label" style=""><p>+handlePairDevice(command: PairDeviceCommand) : Either</p></span></div></foreignObject></g><g class="label" style="" transform="translate(0,12)"><foreignObject width="569.03125" height="24"><div xmlns="http://www.w3.org/1999/xhtml" style="display: table-cell; white-space: nowrap; line-height: 1.5; max-width: 586px; text-align: center;"><span class="nodeLabel markdown-node-label" style=""><p>+handleClaimDeviceToSpace(command: ClaimDeviceToSpaceCommand) : Either</p></span></div></foreignObject></g><g class="label" style="" transform="translate(0,36)"><foreignObject width="466.96875" height="24"><div xmlns="http://www.w3.org/1999/xhtml" style="display: table-cell; white-space: nowrap; line-height: 1.5; max-width: 481px; text-align: center;"><span class="nodeLabel markdown-node-label" style=""><p>+handleDeleteDevice(command: DeleteDeviceCommand) : Either</p></span></div></foreignObject></g><g class="label" style="" transform="translate(0,60)"><foreignObject width="557.46875" height="24"><div xmlns="http://www.w3.org/1999/xhtml" style="display: table-cell; white-space: nowrap; line-height: 1.5; max-width: 567px; text-align: center;"><span class="nodeLabel markdown-node-label" style=""><p>+handleUpdateDeviceName(command: UpdateDeviceNameCommand) : Either</p></span></div></foreignObject></g></g><g class="divider" style=""><path d="M-351.16796875 -60 C-90.81556674065462 -60, 169.53683526869077 -60, 351.16796875 -60 M-351.16796875 -60 C-149.84710422222147 -60, 51.47376030555705 -60, 351.16796875 -60" stroke="#9370DB" stroke-width="1.3" fill="none" stroke-dasharray="0 0" style=""/></g><g class="divider" style=""><path d="M-351.16796875 -12 C-78.99290702992403 -12, 193.18215469015195 -12, 351.16796875 -12 M-351.16796875 -12 C-73.59893009468954 -12, 203.97010856062093 -12, 351.16796875 -12" stroke="#9370DB" stroke-width="1.3" fill="none" stroke-dasharray="0 0" style=""/></g></g><g class="node default" id="classId-DevicesQueryServiceImpl-3" transform="translate(1634.828125, 116)"><g class="basic label-container"><path d="M-308.484375 -96 L308.484375 -96 L308.484375 96 L-308.484375 96" stroke="none" stroke-width="0" fill="#ECECFF" style=""/><path d="M-308.484375 -96 C-160.66749601554508 -96, -12.850617031090167 -96, 308.484375 -96 M-308.484375 -96 C-70.19606096268865 -96, 168.0922530746227 -96, 308.484375 -96 M308.484375 -96 C308.484375 -24.69134568892447, 308.484375 46.61730862215106, 308.484375 96 M308.484375 -96 C308.484375 -20.51291745118847, 308.484375 54.97416509762306, 308.484375 96 M308.484375 96 C133.08306913071488 96, -42.31823673857025 96, -308.484375 96 M308.484375 96 C104.71042923477097 96, -99.06351653045806 96, -308.484375 96 M-308.484375 96 C-308.484375 25.856423199953454, -308.484375 -44.28715360009309, -308.484375 -96 M-308.484375 96 C-308.484375 56.149809946472466, -308.484375 16.299619892944932, -308.484375 -96" stroke="#9370DB" stroke-width="1.3" fill="none" stroke-dasharray="0 0" style=""/></g><g class="annotation-group text" transform="translate(0, -72)"/><g class="label-group text" transform="translate(-95.1875, -72)"><g class="label" style="font-weight: bolder" transform="translate(0,-12)"><foreignObject width="190.375" height="24"><div xmlns="http://www.w3.org/1999/xhtml" style="display: table-cell; white-space: nowrap; line-height: 1.5; max-width: 220px; text-align: center;"><span class="nodeLabel markdown-node-label" style=""><p>DevicesQueryServiceImpl</p></span></div></foreignObject></g></g><g class="members-group text" transform="translate(-296.484375, -24)"><g class="label" style="" transform="translate(0,-12)"><foreignObject width="201.234375" height="24"><div xmlns="http://www.w3.org/1999/xhtml" style="display: table-cell; white-space: nowrap; line-height: 1.5; max-width: 238px; text-align: center;"><span class="nodeLabel markdown-node-label" style=""><p>-_gateway: DevicesGateway</p></span></div></foreignObject></g></g><g class="methods-group text" transform="translate(-296.484375, 24)"><g class="label" style="" transform="translate(0,-12)"><foreignObject width="497.78125" height="24"><div xmlns="http://www.w3.org/1999/xhtml" style="display: table-cell; white-space: nowrap; line-height: 1.5; max-width: 517px; text-align: center;"><span class="nodeLabel markdown-node-label" style=""><p>+handleGetDevicesBySpace(query: GetDevicesBySpaceQuery) : Either</p></span></div></foreignObject></g><g class="label" style="" transform="translate(0,12)"><foreignObject width="428.234375" height="24"><div xmlns="http://www.w3.org/1999/xhtml" style="display: table-cell; white-space: nowrap; line-height: 1.5; max-width: 455px; text-align: center;"><span class="nodeLabel markdown-node-label" style=""><p>+handleGetDeviceById(query: GetDeviceByIdQuery) : Either</p></span></div></foreignObject></g><g class="label" style="" transform="translate(0,36)"><foreignObject width="455.625" height="24"><div xmlns="http://www.w3.org/1999/xhtml" style="display: table-cell; white-space: nowrap; line-height: 1.5; max-width: 469px; text-align: center;"><span class="nodeLabel markdown-node-label" style=""><p>+handleGetDeviceStatus(query: GetDeviceStatusQuery) : Either</p></span></div></foreignObject></g></g><g class="divider" style=""><path d="M-308.484375 -48 C-94.31479785262303 -48, 119.85477929475394 -48, 308.484375 -48 M-308.484375 -48 C-117.03755367450037 -48, 74.40926765099925 -48, 308.484375 -48" stroke="#9370DB" stroke-width="1.3" fill="none" stroke-dasharray="0 0" style=""/></g><g class="divider" style=""><path d="M-308.484375 0 C-62.468179560077715 0, 183.54801587984457 0, 308.484375 0 M-308.484375 0 C-138.231065718021 0, 32.022243563958 0, 308.484375 0" stroke="#9370DB" stroke-width="1.3" fill="none" stroke-dasharray="0 0" style=""/></g></g></g></g></g><text text-anchor="middle" x="975.65625" y="-25" class="classDiagramTitleText">Application Layer Class Diagram</text></svg>