<svg id="my-svg" width="100%" xmlns="http://www.w3.org/2000/svg" xmlns:xlink="http://www.w3.org/1999/xlink" class="classDiagram" style="max-width: 2130.61px; background-color: transparent;" viewBox="0 -48 2130.609375 570" role="graphics-document document" aria-roledescription="class"><style>#my-svg{font-family:"trebuchet ms",verdana,arial,sans-serif;font-size:16px;fill:#333;}@keyframes edge-animation-frame{from{stroke-dashoffset:0;}}@keyframes dash{to{stroke-dashoffset:0;}}#my-svg .edge-animation-slow{stroke-dasharray:9,5!important;stroke-dashoffset:900;animation:dash 50s linear infinite;stroke-linecap:round;}#my-svg .edge-animation-fast{stroke-dasharray:9,5!important;stroke-dashoffset:900;animation:dash 20s linear infinite;stroke-linecap:round;}#my-svg .error-icon{fill:#552222;}#my-svg .error-text{fill:#552222;stroke:#552222;}#my-svg .edge-thickness-normal{stroke-width:1px;}#my-svg .edge-thickness-thick{stroke-width:3.5px;}#my-svg .edge-pattern-solid{stroke-dasharray:0;}#my-svg .edge-thickness-invisible{stroke-width:0;fill:none;}#my-svg .edge-pattern-dashed{stroke-dasharray:3;}#my-svg .edge-pattern-dotted{stroke-dasharray:2;}#my-svg .marker{fill:#333333;stroke:#333333;}#my-svg .marker.cross{stroke:#333333;}#my-svg svg{font-family:"trebuchet ms",verdana,arial,sans-serif;font-size:16px;}#my-svg p{margin:0;}#my-svg g.classGroup text{fill:#9370DB;stroke:none;font-family:"trebuchet ms",verdana,arial,sans-serif;font-size:10px;}#my-svg g.classGroup text .title{font-weight:bolder;}#my-svg .nodeLabel,#my-svg .edgeLabel{color:#131300;}#my-svg .edgeLabel .label rect{fill:#ECECFF;}#my-svg .label text{fill:#131300;}#my-svg .labelBkg{background:#ECECFF;}#my-svg .edgeLabel .label span{background:#ECECFF;}#my-svg .classTitle{font-weight:bolder;}#my-svg .node rect,#my-svg .node circle,#my-svg .node ellipse,#my-svg .node polygon,#my-svg .node path{fill:#ECECFF;stroke:#9370DB;stroke-width:1px;}#my-svg .divider{stroke:#9370DB;stroke-width:1;}#my-svg g.clickable{cursor:pointer;}#my-svg g.classGroup rect{fill:#ECECFF;stroke:#9370DB;}#my-svg g.classGroup line{stroke:#9370DB;stroke-width:1;}#my-svg .classLabel .box{stroke:none;stroke-width:0;fill:#ECECFF;opacity:0.5;}#my-svg .classLabel .label{fill:#9370DB;font-size:10px;}#my-svg .relation{stroke:#333333;stroke-width:1;fill:none;}#my-svg .dashed-line{stroke-dasharray:3;}#my-svg .dotted-line{stroke-dasharray:1 2;}#my-svg #compositionStart,#my-svg .composition{fill:#333333!important;stroke:#333333!important;stroke-width:1;}#my-svg #compositionEnd,#my-svg .composition{fill:#333333!important;stroke:#333333!important;stroke-width:1;}#my-svg #dependencyStart,#my-svg .dependency{fill:#333333!important;stroke:#333333!important;stroke-width:1;}#my-svg #dependencyStart,#my-svg .dependency{fill:#333333!important;stroke:#333333!important;stroke-width:1;}#my-svg #extensionStart,#my-svg .extension{fill:transparent!important;stroke:#333333!important;stroke-width:1;}#my-svg #extensionEnd,#my-svg .extension{fill:transparent!important;stroke:#333333!important;stroke-width:1;}#my-svg #aggregationStart,#my-svg .aggregation{fill:transparent!important;stroke:#333333!important;stroke-width:1;}#my-svg #aggregationEnd,#my-svg .aggregation{fill:transparent!important;stroke:#333333!important;stroke-width:1;}#my-svg #lollipopStart,#my-svg .lollipop{fill:#ECECFF!important;stroke:#333333!important;stroke-width:1;}#my-svg #lollipopEnd,#my-svg .lollipop{fill:#ECECFF!important;stroke:#333333!important;stroke-width:1;}#my-svg .edgeTerminals{font-size:11px;line-height:initial;}#my-svg .classTitleText{text-anchor:middle;font-size:18px;fill:#333;}#my-svg .label-icon{display:inline-block;height:1em;overflow:visible;vertical-align:-0.125em;}#my-svg .node .label-icon path{fill:currentColor;stroke:revert;stroke-width:revert;}#my-svg :root{--mermaid-font-family:"trebuchet ms",verdana,arial,sans-serif;}</style><g><defs><marker id="my-svg_class-aggregationStart" class="marker aggregation class" refX="18" refY="7" markerWidth="190" markerHeight="240" orient="auto"><path d="M 18,7 L9,13 L1,7 L9,1 Z"/></marker></defs><defs><marker id="my-svg_class-aggregationEnd" class="marker aggregation class" refX="1" refY="7" markerWidth="20" markerHeight="28" orient="auto"><path d="M 18,7 L9,13 L1,7 L9,1 Z"/></marker></defs><defs><marker id="my-svg_class-extensionStart" class="marker extension class" refX="18" refY="7" markerWidth="190" markerHeight="240" orient="auto"><path d="M 1,7 L18,13 V 1 Z"/></marker></defs><defs><marker id="my-svg_class-extensionEnd" class="marker extension class" refX="1" refY="7" markerWidth="20" markerHeight="28" orient="auto"><path d="M 1,1 V 13 L18,7 Z"/></marker></defs><defs><marker id="my-svg_class-compositionStart" class="marker composition class" refX="18" refY="7" markerWidth="190" markerHeight="240" orient="auto"><path d="M 18,7 L9,13 L1,7 L9,1 Z"/></marker></defs><defs><marker id="my-svg_class-compositionEnd" class="marker composition class" refX="1" refY="7" markerWidth="20" markerHeight="28" orient="auto"><path d="M 18,7 L9,13 L1,7 L9,1 Z"/></marker></defs><defs><marker id="my-svg_class-dependencyStart" class="marker dependency class" refX="6" refY="7" markerWidth="190" markerHeight="240" orient="auto"><path d="M 5,7 L9,13 L1,7 L9,1 Z"/></marker></defs><defs><marker id="my-svg_class-dependencyEnd" class="marker dependency class" refX="13" refY="7" markerWidth="20" markerHeight="28" orient="auto"><path d="M 18,7 L9,13 L14,7 L9,1 Z"/></marker></defs><defs><marker id="my-svg_class-lollipopStart" class="marker lollipop class" refX="13" refY="7" markerWidth="190" markerHeight="240" orient="auto"><circle stroke="black" fill="transparent" cx="7" cy="7" r="6"/></marker></defs><defs><marker id="my-svg_class-lollipopEnd" class="marker lollipop class" refX="1" refY="7" markerWidth="190" markerHeight="240" orient="auto"><circle stroke="black" fill="transparent" cx="7" cy="7" r="6"/></marker></defs><g class="root"><g class="clusters"/><g class="edgePaths"><path d="M1689.949,224L1689.949,246.167C1689.949,268.333,1689.949,312.667,1702.17,342.43C1714.391,372.192,1738.832,387.385,1751.053,394.981L1763.273,402.577" id="id_PairDeviceCommand_DeviceId_1" class="edge-thickness-normal edge-pattern-solid relation" style=";;;" data-edge="true" data-et="edge" data-id="id_PairDeviceCommand_DeviceId_1" data-points="W3sieCI6MTY4OS45NDkyMTg3NSwieSI6MjI0fSx7IngiOjE2ODkuOTQ5MjE4NzUsInkiOjM1N30seyJ4IjoxNzY4LjM2OTE0MDYyNSwieSI6NDA1Ljc0NDYyNzU5MjMzNTN9XQ==" marker-end="url(#my-svg_class-dependencyEnd)"/><path d="M2002.055,224L2002.055,246.167C2002.055,268.333,2002.055,312.667,1989.834,342.43C1977.613,372.192,1953.172,387.385,1940.951,394.981L1928.731,402.577" id="id_GetDeviceByIdQuery_DeviceId_2" class="edge-thickness-normal edge-pattern-solid relation" style=";;;" data-edge="true" data-et="edge" data-id="id_GetDeviceByIdQuery_DeviceId_2" data-points="W3sieCI6MjAwMi4wNTQ2ODc1LCJ5IjoyMjR9LHsieCI6MjAwMi4wNTQ2ODc1LCJ5IjozNTd9LHsieCI6MTkyMy42MzQ3NjU2MjUsInkiOjQwNS43NDQ2Mjc1OTIzMzUzfV0=" marker-end="url(#my-svg_class-dependencyEnd)"/></g><g class="edgeLabels"><g class="edgeLabel" transform="translate(1689.94921875, 357)"><g class="label" data-id="id_PairDeviceCommand_DeviceId_1" transform="translate(-15.2109375, -12)"><foreignObject width="30.421875" height="24"><div xmlns="http://www.w3.org/1999/xhtml" class="labelBkg" style="display: table-cell; white-space: nowrap; line-height: 1.5; max-width: 200px; text-align: center;"><span class="edgeLabel"><p>uses</p></span></div></foreignObject></g></g><g class="edgeLabel" transform="translate(2002.0546875, 357)"><g class="label" data-id="id_GetDeviceByIdQuery_DeviceId_2" transform="translate(-15.2109375, -12)"><foreignObject width="30.421875" height="24"><div xmlns="http://www.w3.org/1999/xhtml" class="labelBkg" style="display: table-cell; white-space: nowrap; line-height: 1.5; max-width: 200px; text-align: center;"><span class="edgeLabel"><p>uses</p></span></div></foreignObject></g></g></g><g class="nodes"><g class="node default" id="classId-DevicesCommandService-0" transform="translate(246.84375, 164)"><g class="basic label-container"><path d="M-238.84375 -111 L238.84375 -111 L238.84375 111 L-238.84375 111" stroke="none" stroke-width="0" fill="#ECECFF" style=""/><path d="M-238.84375 -111 C-53.405432909995596 -111, 132.0328841800088 -111, 238.84375 -111 M-238.84375 -111 C-111.13718617575883 -111, 16.569377648482345 -111, 238.84375 -111 M238.84375 -111 C238.84375 -30.206059201988097, 238.84375 50.587881596023806, 238.84375 111 M238.84375 -111 C238.84375 -35.81429682098799, 238.84375 39.37140635802402, 238.84375 111 M238.84375 111 C71.59255930691677 111, -95.65863138616646 111, -238.84375 111 M238.84375 111 C56.815875903307926 111, -125.21199819338415 111, -238.84375 111 M-238.84375 111 C-238.84375 35.34999168354773, -238.84375 -40.300016632904544, -238.84375 -111 M-238.84375 111 C-238.84375 30.92551115350217, -238.84375 -49.14897769299566, -238.84375 -111" stroke="#9370DB" stroke-width="1.3" fill="none" stroke-dasharray="0 0" style=""/></g><g class="annotation-group text" transform="translate(-41.171875, -87)"><g class="label" style="" transform="translate(0,-12)"><foreignObject width="82.34375" height="24"><div xmlns="http://www.w3.org/1999/xhtml" style="display: table-cell; white-space: nowrap; line-height: 1.5; max-width: 122px; text-align: center;"><span class="nodeLabel markdown-node-label" style=""><p>«interface»</p></span></div></foreignObject></g></g><g class="label-group text" transform="translate(-93.1875, -63)"><g class="label" style="font-weight: bolder" transform="translate(0,-12)"><foreignObject width="186.375" height="24"><div xmlns="http://www.w3.org/1999/xhtml" style="display: table-cell; white-space: nowrap; line-height: 1.5; max-width: 216px; text-align: center;"><span class="nodeLabel markdown-node-label" style=""><p>DevicesCommandService</p></span></div></foreignObject></g></g><g class="members-group text" transform="translate(-226.84375, -15)"/><g class="methods-group text" transform="translate(-226.84375, 15)"><g class="label" style="font-style:italic;" transform="translate(0,-12)"><foreignObject width="286.6875" height="24"><div xmlns="http://www.w3.org/1999/xhtml" style="display: table-cell; white-space: nowrap; line-height: 1.5; max-width: 303px; text-align: center;"><span class="nodeLabel markdown-node-label" style=""><p>+handlePairDevice(command) : Either</p></span></div></foreignObject></g><g class="label" style="font-style:italic;" transform="translate(0,12)"><foreignObject width="360.5" height="24"><div xmlns="http://www.w3.org/1999/xhtml" style="display: table-cell; white-space: nowrap; line-height: 1.5; max-width: 371px; text-align: center;"><span class="nodeLabel markdown-node-label" style=""><p>+handleClaimDeviceToSpace(command) : Either</p></span></div></foreignObject></g><g class="label" style="font-style:italic;" transform="translate(0,36)"><foreignObject width="304.21875" height="24"><div xmlns="http://www.w3.org/1999/xhtml" style="display: table-cell; white-space: nowrap; line-height: 1.5; max-width: 319px; text-align: center;"><span class="nodeLabel markdown-node-label" style=""><p>+handleDeleteDevice(command) : Either</p></span></div></foreignObject></g><g class="label" style="font-style:italic;" transform="translate(0,60)"><foreignObject width="352.625" height="24"><div xmlns="http://www.w3.org/1999/xhtml" style="display: table-cell; white-space: nowrap; line-height: 1.5; max-width: 362px; text-align: center;"><span class="nodeLabel markdown-node-label" style=""><p>+handleUpdateDeviceName(command) : Either</p></span></div></foreignObject></g></g><g class="divider" style=""><path d="M-238.84375 -39 C-115.45473429210736 -39, 7.934281415785279 -39, 238.84375 -39 M-238.84375 -39 C-128.26492255831818 -39, -17.68609511663638 -39, 238.84375 -39" stroke="#9370DB" stroke-width="1.3" fill="none" stroke-dasharray="0 0" style=""/></g><g class="divider" style=""><path d="M-238.84375 -15 C-93.95093626997675 -15, 50.9418774600465 -15, 238.84375 -15 M-238.84375 -15 C-133.0348343573083 -15, -27.225918714616625 -15, 238.84375 -15" stroke="#9370DB" stroke-width="1.3" fill="none" stroke-dasharray="0 0" style=""/></g></g><g class="node default" id="classId-DevicesQueryService-1" transform="translate(749.08203125, 164)"><g class="basic label-container"><path d="M-213.39453125 -99 L213.39453125 -99 L213.39453125 99 L-213.39453125 99" stroke="none" stroke-width="0" fill="#ECECFF" style=""/><path d="M-213.39453125 -99 C-93.05664027576127 -99, 27.281250698477464 -99, 213.39453125 -99 M-213.39453125 -99 C-67.28571681449728 -99, 78.82309762100545 -99, 213.39453125 -99 M213.39453125 -99 C213.39453125 -31.707612232895485, 213.39453125 35.58477553420903, 213.39453125 99 M213.39453125 -99 C213.39453125 -41.19545159616689, 213.39453125 16.60909680766622, 213.39453125 99 M213.39453125 99 C60.2134194797475 99, -92.967692290505 99, -213.39453125 99 M213.39453125 99 C69.62799333235304 99, -74.13854458529391 99, -213.39453125 99 M-213.39453125 99 C-213.39453125 37.2484169833018, -213.39453125 -24.503166033396397, -213.39453125 -99 M-213.39453125 99 C-213.39453125 36.58029860108911, -213.39453125 -25.839402797821776, -213.39453125 -99" stroke="#9370DB" stroke-width="1.3" fill="none" stroke-dasharray="0 0" style=""/></g><g class="annotation-group text" transform="translate(-41.171875, -75)"><g class="label" style="" transform="translate(0,-12)"><foreignObject width="82.34375" height="24"><div xmlns="http://www.w3.org/1999/xhtml" style="display: table-cell; white-space: nowrap; line-height: 1.5; max-width: 122px; text-align: center;"><span class="nodeLabel markdown-node-label" style=""><p>«interface»</p></span></div></foreignObject></g></g><g class="label-group text" transform="translate(-79.0703125, -51)"><g class="label" style="font-weight: bolder" transform="translate(0,-12)"><foreignObject width="158.140625" height="24"><div xmlns="http://www.w3.org/1999/xhtml" style="display: table-cell; white-space: nowrap; line-height: 1.5; max-width: 190px; text-align: center;"><span class="nodeLabel markdown-node-label" style=""><p>DevicesQueryService</p></span></div></foreignObject></g></g><g class="members-group text" transform="translate(-201.39453125, -3)"/><g class="methods-group text" transform="translate(-201.39453125, 27)"><g class="label" style="font-style:italic;" transform="translate(0,-12)"><foreignObject width="323.71875" height="24"><div xmlns="http://www.w3.org/1999/xhtml" style="display: table-cell; white-space: nowrap; line-height: 1.5; max-width: 337px; text-align: center;"><span class="nodeLabel markdown-node-label" style=""><p>+handleGetDevicesBySpace(query) : Either</p></span></div></foreignObject></g><g class="label" style="font-style:italic;" transform="translate(0,12)"><foreignObject width="286.515625" height="24"><div xmlns="http://www.w3.org/1999/xhtml" style="display: table-cell; white-space: nowrap; line-height: 1.5; max-width: 306px; text-align: center;"><span class="nodeLabel markdown-node-label" style=""><p>+handleGetDeviceById(query) : Either</p></span></div></foreignObject></g><g class="label" style="font-style:italic;" transform="translate(0,36)"><foreignObject width="301.890625" height="24"><div xmlns="http://www.w3.org/1999/xhtml" style="display: table-cell; white-space: nowrap; line-height: 1.5; max-width: 313px; text-align: center;"><span class="nodeLabel markdown-node-label" style=""><p>+handleGetDeviceStatus(query) : Either</p></span></div></foreignObject></g></g><g class="divider" style=""><path d="M-213.39453125 -27 C-76.97237648377643 -27, 59.44977828244714 -27, 213.39453125 -27 M-213.39453125 -27 C-91.45350081477996 -27, 30.487529620440085 -27, 213.39453125 -27" stroke="#9370DB" stroke-width="1.3" fill="none" stroke-dasharray="0 0" style=""/></g><g class="divider" style=""><path d="M-213.39453125 -3 C-116.68234538242164 -3, -19.97015951484329 -3, 213.39453125 -3 M-213.39453125 -3 C-99.21695815925645 -3, 14.9606149314871 -3, 213.39453125 -3" stroke="#9370DB" stroke-width="1.3" fill="none" stroke-dasharray="0 0" style=""/></g></g><g class="node default" id="classId-DeviceReadModel-2" transform="translate(1145.703125, 164)"><g class="basic label-container"><path d="M-133.2265625 -156 L133.2265625 -156 L133.2265625 156 L-133.2265625 156" stroke="none" stroke-width="0" fill="#ECECFF" style=""/><path d="M-133.2265625 -156 C-66.6783513544137 -156, -0.13014020882741306 -156, 133.2265625 -156 M-133.2265625 -156 C-54.25386701637319 -156, 24.718828467253616 -156, 133.2265625 -156 M133.2265625 -156 C133.2265625 -89.74566085097622, 133.2265625 -23.491321701952444, 133.2265625 156 M133.2265625 -156 C133.2265625 -44.94886238431717, 133.2265625 66.10227523136567, 133.2265625 156 M133.2265625 156 C71.83049640573756 156, 10.434430311475126 156, -133.2265625 156 M133.2265625 156 C55.159929510055576 156, -22.906703479888847 156, -133.2265625 156 M-133.2265625 156 C-133.2265625 36.87868194807801, -133.2265625 -82.24263610384398, -133.2265625 -156 M-133.2265625 156 C-133.2265625 34.694271549829864, -133.2265625 -86.61145690034027, -133.2265625 -156" stroke="#9370DB" stroke-width="1.3" fill="none" stroke-dasharray="0 0" style=""/></g><g class="annotation-group text" transform="translate(0, -132)"/><g class="label-group text" transform="translate(-65.765625, -132)"><g class="label" style="font-weight: bolder" transform="translate(0,-12)"><foreignObject width="131.53125" height="24"><div xmlns="http://www.w3.org/1999/xhtml" style="display: table-cell; white-space: nowrap; line-height: 1.5; max-width: 171px; text-align: center;"><span class="nodeLabel markdown-node-label" style=""><p>DeviceReadModel</p></span></div></foreignObject></g></g><g class="members-group text" transform="translate(-121.2265625, -84)"><g class="label" style="" transform="translate(0,-12)"><foreignObject width="74.15625" height="24"><div xmlns="http://www.w3.org/1999/xhtml" style="display: table-cell; white-space: nowrap; line-height: 1.5; max-width: 123px; text-align: center;"><span class="nodeLabel markdown-node-label" style=""><p>+id: String</p></span></div></foreignObject></g><g class="label" style="" transform="translate(0,12)"><foreignObject width="155.890625" height="24"><div xmlns="http://www.w3.org/1999/xhtml" style="display: table-cell; white-space: nowrap; line-height: 1.5; max-width: 198px; text-align: center;"><span class="nodeLabel markdown-node-label" style=""><p>+serialNumber: String</p></span></div></foreignObject></g><g class="label" style="" transform="translate(0,36)"><foreignObject width="99.84375" height="24"><div xmlns="http://www.w3.org/1999/xhtml" style="display: table-cell; white-space: nowrap; line-height: 1.5; max-width: 146px; text-align: center;"><span class="nodeLabel markdown-node-label" style=""><p>+name: String</p></span></div></foreignObject></g><g class="label" style="" transform="translate(0,60)"><foreignObject width="103.46875" height="24"><div xmlns="http://www.w3.org/1999/xhtml" style="display: table-cell; white-space: nowrap; line-height: 1.5; max-width: 147px; text-align: center;"><span class="nodeLabel markdown-node-label" style=""><p>+status: String</p></span></div></foreignObject></g><g class="label" style="" transform="translate(0,84)"><foreignObject width="120.375" height="24"><div xmlns="http://www.w3.org/1999/xhtml" style="display: table-cell; white-space: nowrap; line-height: 1.5; max-width: 167px; text-align: center;"><span class="nodeLabel markdown-node-label" style=""><p>+spaceId: String?</p></span></div></foreignObject></g><g class="label" style="" transform="translate(0,108)"><foreignObject width="141.59375" height="24"><div xmlns="http://www.w3.org/1999/xhtml" style="display: table-cell; white-space: nowrap; line-height: 1.5; max-width: 184px; text-align: center;"><span class="nodeLabel markdown-node-label" style=""><p>+hardwareId: String</p></span></div></foreignObject></g><g class="label" style="" transform="translate(0,132)"><foreignObject width="140.34375" height="24"><div xmlns="http://www.w3.org/1999/xhtml" style="display: table-cell; white-space: nowrap; line-height: 1.5; max-width: 185px; text-align: center;"><span class="nodeLabel markdown-node-label" style=""><p>+deviceType: String</p></span></div></foreignObject></g><g class="label" style="" transform="translate(0,156)"><foreignObject width="176.6875" height="24"><div xmlns="http://www.w3.org/1999/xhtml" style="display: table-cell; white-space: nowrap; line-height: 1.5; max-width: 216px; text-align: center;"><span class="nodeLabel markdown-node-label" style=""><p>+activatedAt: DateTime?</p></span></div></foreignObject></g><g class="label" style="" transform="translate(0,180)"><foreignObject width="169.0625" height="24"><div xmlns="http://www.w3.org/1999/xhtml" style="display: table-cell; white-space: nowrap; line-height: 1.5; max-width: 212px; text-align: center;"><span class="nodeLabel markdown-node-label" style=""><p>+lastSeenAt: DateTime?</p></span></div></foreignObject></g></g><g class="methods-group text" transform="translate(-121.2265625, 156)"/><g class="divider" style=""><path d="M-133.2265625 -108 C-79.35078534741139 -108, -25.475008194822777 -108, 133.2265625 -108 M-133.2265625 -108 C-37.27396859010712 -108, 58.678625319785766 -108, 133.2265625 -108" stroke="#9370DB" stroke-width="1.3" fill="none" stroke-dasharray="0 0" style=""/></g><g class="divider" style=""><path d="M-133.2265625 132 C-28.866619269820006 132, 75.49332396035999 132, 133.2265625 132 M-133.2265625 132 C-77.20412525390901 132, -21.181688007818025 132, 133.2265625 132" stroke="#9370DB" stroke-width="1.3" fill="none" stroke-dasharray="0 0" style=""/></g></g><g class="node default" id="classId-DeviceId-3" transform="translate(1846.001953125, 454)"><g class="basic label-container"><path d="M-77.6328125 -60 L77.6328125 -60 L77.6328125 60 L-77.6328125 60" stroke="none" stroke-width="0" fill="#ECECFF" style=""/><path d="M-77.6328125 -60 C-41.24295433414811 -60, -4.853096168296219 -60, 77.6328125 -60 M-77.6328125 -60 C-40.25776255475326 -60, -2.8827126095065267 -60, 77.6328125 -60 M77.6328125 -60 C77.6328125 -13.303974589611741, 77.6328125 33.39205082077652, 77.6328125 60 M77.6328125 -60 C77.6328125 -22.250451754965944, 77.6328125 15.499096490068112, 77.6328125 60 M77.6328125 60 C26.757423802318606 60, -24.11796489536279 60, -77.6328125 60 M77.6328125 60 C25.850969359900688 60, -25.930873780198624 60, -77.6328125 60 M-77.6328125 60 C-77.6328125 27.29918921056135, -77.6328125 -5.401621578877297, -77.6328125 -60 M-77.6328125 60 C-77.6328125 25.631845636974866, -77.6328125 -8.736308726050268, -77.6328125 -60" stroke="#9370DB" stroke-width="1.3" fill="none" stroke-dasharray="0 0" style=""/></g><g class="annotation-group text" transform="translate(0, -36)"/><g class="label-group text" transform="translate(-32.15625, -36)"><g class="label" style="font-weight: bolder" transform="translate(0,-12)"><foreignObject width="64.3125" height="24"><div xmlns="http://www.w3.org/1999/xhtml" style="display: table-cell; white-space: nowrap; line-height: 1.5; max-width: 110px; text-align: center;"><span class="nodeLabel markdown-node-label" style=""><p>DeviceId</p></span></div></foreignObject></g></g><g class="members-group text" transform="translate(-65.6328125, 12)"><g class="label" style="" transform="translate(0,-12)"><foreignObject width="99.109375" height="24"><div xmlns="http://www.w3.org/1999/xhtml" style="display: table-cell; white-space: nowrap; line-height: 1.5; max-width: 146px; text-align: center;"><span class="nodeLabel markdown-node-label" style=""><p>+value: String</p></span></div></foreignObject></g></g><g class="methods-group text" transform="translate(-65.6328125, 60)"/><g class="divider" style=""><path d="M-77.6328125 -12 C-39.68777378288633 -12, -1.7427350657726635 -12, 77.6328125 -12 M-77.6328125 -12 C-34.67550800991844 -12, 8.281796480163123 -12, 77.6328125 -12" stroke="#9370DB" stroke-width="1.3" fill="none" stroke-dasharray="0 0" style=""/></g><g class="divider" style=""><path d="M-77.6328125 36 C-17.928132062289066 36, 41.77654837542187 36, 77.6328125 36 M-77.6328125 36 C-24.027324635425074 36, 29.57816322914985 36, 77.6328125 36" stroke="#9370DB" stroke-width="1.3" fill="none" stroke-dasharray="0 0" style=""/></g></g><g class="node default" id="classId-DeviceName-4" transform="translate(1413.6640625, 164)"><g class="basic label-container"><path d="M-84.734375 -60 L84.734375 -60 L84.734375 60 L-84.734375 60" stroke="none" stroke-width="0" fill="#ECECFF" style=""/><path d="M-84.734375 -60 C-38.90111706676533 -60, 6.932140866469339 -60, 84.734375 -60 M-84.734375 -60 C-31.194234840447116 -60, 22.345905319105768 -60, 84.734375 -60 M84.734375 -60 C84.734375 -26.190720938449836, 84.734375 7.618558123100328, 84.734375 60 M84.734375 -60 C84.734375 -16.494714007160937, 84.734375 27.010571985678126, 84.734375 60 M84.734375 60 C44.778430552976225 60, 4.82248610595245 60, -84.734375 60 M84.734375 60 C25.529411665325433 60, -33.67555166934913 60, -84.734375 60 M-84.734375 60 C-84.734375 27.692363734558462, -84.734375 -4.615272530883075, -84.734375 -60 M-84.734375 60 C-84.734375 34.30912154615413, -84.734375 8.618243092308255, -84.734375 -60" stroke="#9370DB" stroke-width="1.3" fill="none" stroke-dasharray="0 0" style=""/></g><g class="annotation-group text" transform="translate(0, -36)"/><g class="label-group text" transform="translate(-46.359375, -36)"><g class="label" style="font-weight: bolder" transform="translate(0,-12)"><foreignObject width="92.71875" height="24"><div xmlns="http://www.w3.org/1999/xhtml" style="display: table-cell; white-space: nowrap; line-height: 1.5; max-width: 134px; text-align: center;"><span class="nodeLabel markdown-node-label" style=""><p>DeviceName</p></span></div></foreignObject></g></g><g class="members-group text" transform="translate(-72.734375, 12)"><g class="label" style="" transform="translate(0,-12)"><foreignObject width="99.109375" height="24"><div xmlns="http://www.w3.org/1999/xhtml" style="display: table-cell; white-space: nowrap; line-height: 1.5; max-width: 146px; text-align: center;"><span class="nodeLabel markdown-node-label" style=""><p>+value: String</p></span></div></foreignObject></g></g><g class="methods-group text" transform="translate(-72.734375, 60)"/><g class="divider" style=""><path d="M-84.734375 -12 C-49.48156146971494 -12, -14.22874793942988 -12, 84.734375 -12 M-84.734375 -12 C-36.87905654436878 -12, 10.97626191126244 -12, 84.734375 -12" stroke="#9370DB" stroke-width="1.3" fill="none" stroke-dasharray="0 0" style=""/></g><g class="divider" style=""><path d="M-84.734375 36 C-22.217768715883196 36, 40.29883756823361 36, 84.734375 36 M-84.734375 36 C-18.994016745290992 36, 46.746341509418016 36, 84.734375 36" stroke="#9370DB" stroke-width="1.3" fill="none" stroke-dasharray="0 0" style=""/></g></g><g class="node default" id="classId-PairDeviceCommand-5" transform="translate(1689.94921875, 164)"><g class="basic label-container"><path d="M-141.55078125 -60 L141.55078125 -60 L141.55078125 60 L-141.55078125 60" stroke="none" stroke-width="0" fill="#ECECFF" style=""/><path d="M-141.55078125 -60 C-76.70967329408991 -60, -11.86856533817982 -60, 141.55078125 -60 M-141.55078125 -60 C-71.04138507168042 -60, -0.5319888933608468 -60, 141.55078125 -60 M141.55078125 -60 C141.55078125 -22.029153077499465, 141.55078125 15.941693845001069, 141.55078125 60 M141.55078125 -60 C141.55078125 -25.6797149898875, 141.55078125 8.640570020224999, 141.55078125 60 M141.55078125 60 C79.86529085699408 60, 18.179800463988144 60, -141.55078125 60 M141.55078125 60 C83.24953890785567 60, 24.94829656571133 60, -141.55078125 60 M-141.55078125 60 C-141.55078125 21.214376717324363, -141.55078125 -17.571246565351274, -141.55078125 -60 M-141.55078125 60 C-141.55078125 22.374835229903773, -141.55078125 -15.250329540192453, -141.55078125 -60" stroke="#9370DB" stroke-width="1.3" fill="none" stroke-dasharray="0 0" style=""/></g><g class="annotation-group text" transform="translate(0, -36)"/><g class="label-group text" transform="translate(-76.4765625, -36)"><g class="label" style="font-weight: bolder" transform="translate(0,-12)"><foreignObject width="152.953125" height="24"><div xmlns="http://www.w3.org/1999/xhtml" style="display: table-cell; white-space: nowrap; line-height: 1.5; max-width: 189px; text-align: center;"><span class="nodeLabel markdown-node-label" style=""><p>PairDeviceCommand</p></span></div></foreignObject></g></g><g class="members-group text" transform="translate(-129.55078125, 12)"><g class="label" style="" transform="translate(0,-12)"><foreignObject width="182.625" height="24"><div xmlns="http://www.w3.org/1999/xhtml" style="display: table-cell; white-space: nowrap; line-height: 1.5; max-width: 222px; text-align: center;"><span class="nodeLabel markdown-node-label" style=""><p>+hardwareId: HardwareId</p></span></div></foreignObject></g></g><g class="methods-group text" transform="translate(-129.55078125, 60)"/><g class="divider" style=""><path d="M-141.55078125 -12 C-50.51934795726436 -12, 40.51208533547128 -12, 141.55078125 -12 M-141.55078125 -12 C-47.91271258700576 -12, 45.725356075988486 -12, 141.55078125 -12" stroke="#9370DB" stroke-width="1.3" fill="none" stroke-dasharray="0 0" style=""/></g><g class="divider" style=""><path d="M-141.55078125 36 C-57.895876009444834 36, 25.759029231110333 36, 141.55078125 36 M-141.55078125 36 C-78.04154980647965 36, -14.532318362959316 36, 141.55078125 36" stroke="#9370DB" stroke-width="1.3" fill="none" stroke-dasharray="0 0" style=""/></g></g><g class="node default" id="classId-GetDeviceByIdQuery-6" transform="translate(2002.0546875, 164)"><g class="basic label-container"><path d="M-120.5546875 -60 L120.5546875 -60 L120.5546875 60 L-120.5546875 60" stroke="none" stroke-width="0" fill="#ECECFF" style=""/><path d="M-120.5546875 -60 C-36.5636561066968 -60, 47.427375286606406 -60, 120.5546875 -60 M-120.5546875 -60 C-66.25100327749703 -60, -11.947319054994068 -60, 120.5546875 -60 M120.5546875 -60 C120.5546875 -33.653361799749575, 120.5546875 -7.306723599499151, 120.5546875 60 M120.5546875 -60 C120.5546875 -15.698213106782816, 120.5546875 28.603573786434367, 120.5546875 60 M120.5546875 60 C49.080260679354595 60, -22.39416614129081 60, -120.5546875 60 M120.5546875 60 C66.76714653232784 60, 12.979605564655685 60, -120.5546875 60 M-120.5546875 60 C-120.5546875 17.62541081901999, -120.5546875 -24.74917836196002, -120.5546875 -60 M-120.5546875 60 C-120.5546875 18.675501147308523, -120.5546875 -22.648997705382953, -120.5546875 -60" stroke="#9370DB" stroke-width="1.3" fill="none" stroke-dasharray="0 0" style=""/></g><g class="annotation-group text" transform="translate(0, -36)"/><g class="label-group text" transform="translate(-77.015625, -36)"><g class="label" style="font-weight: bolder" transform="translate(0,-12)"><foreignObject width="154.03125" height="24"><div xmlns="http://www.w3.org/1999/xhtml" style="display: table-cell; white-space: nowrap; line-height: 1.5; max-width: 190px; text-align: center;"><span class="nodeLabel markdown-node-label" style=""><p>GetDeviceByIdQuery</p></span></div></foreignObject></g></g><g class="members-group text" transform="translate(-108.5546875, 12)"><g class="label" style="" transform="translate(0,-12)"><foreignObject width="140.09375" height="24"><div xmlns="http://www.w3.org/1999/xhtml" style="display: table-cell; white-space: nowrap; line-height: 1.5; max-width: 187px; text-align: center;"><span class="nodeLabel markdown-node-label" style=""><p>+deviceId: DeviceId</p></span></div></foreignObject></g></g><g class="methods-group text" transform="translate(-108.5546875, 60)"/><g class="divider" style=""><path d="M-120.5546875 -12 C-58.476643629192424 -12, 3.6014002416151527 -12, 120.5546875 -12 M-120.5546875 -12 C-32.51823998220924 -12, 55.518207535581524 -12, 120.5546875 -12" stroke="#9370DB" stroke-width="1.3" fill="none" stroke-dasharray="0 0" style=""/></g><g class="divider" style=""><path d="M-120.5546875 36 C-44.17971244909094 36, 32.195262601818115 36, 120.5546875 36 M-120.5546875 36 C-27.322120516097797 36, 65.9104464678044 36, 120.5546875 36" stroke="#9370DB" stroke-width="1.3" fill="none" stroke-dasharray="0 0" style=""/></g></g></g></g></g><text text-anchor="middle" x="1065.3046875" y="-25" class="classDiagramTitleText">Domain Layer Class Diagram</text></svg>