<svg id="my-svg" width="100%" xmlns="http://www.w3.org/2000/svg" xmlns:xlink="http://www.w3.org/1999/xlink" class="classDiagram" style="max-width: 714.891px; background-color: transparent;" viewBox="-8 -48 714.890625 834" role="graphics-document document" aria-roledescription="class"><style>#my-svg{font-family:"trebuchet ms",verdana,arial,sans-serif;font-size:16px;fill:#333;}@keyframes edge-animation-frame{from{stroke-dashoffset:0;}}@keyframes dash{to{stroke-dashoffset:0;}}#my-svg .edge-animation-slow{stroke-dasharray:9,5!important;stroke-dashoffset:900;animation:dash 50s linear infinite;stroke-linecap:round;}#my-svg .edge-animation-fast{stroke-dasharray:9,5!important;stroke-dashoffset:900;animation:dash 20s linear infinite;stroke-linecap:round;}#my-svg .error-icon{fill:#552222;}#my-svg .error-text{fill:#552222;stroke:#552222;}#my-svg .edge-thickness-normal{stroke-width:1px;}#my-svg .edge-thickness-thick{stroke-width:3.5px;}#my-svg .edge-pattern-solid{stroke-dasharray:0;}#my-svg .edge-thickness-invisible{stroke-width:0;fill:none;}#my-svg .edge-pattern-dashed{stroke-dasharray:3;}#my-svg .edge-pattern-dotted{stroke-dasharray:2;}#my-svg .marker{fill:#333333;stroke:#333333;}#my-svg .marker.cross{stroke:#333333;}#my-svg svg{font-family:"trebuchet ms",verdana,arial,sans-serif;font-size:16px;}#my-svg p{margin:0;}#my-svg g.classGroup text{fill:#9370DB;stroke:none;font-family:"trebuchet ms",verdana,arial,sans-serif;font-size:10px;}#my-svg g.classGroup text .title{font-weight:bolder;}#my-svg .cluster-label text{fill:#333;}#my-svg .cluster-label span{color:#333;}#my-svg .cluster-label span p{background-color:transparent;}#my-svg .cluster rect{fill:transparent;stroke:#666666;stroke-width:1px;}#my-svg .cluster text{fill:#333;}#my-svg .cluster span{color:#333;}#my-svg .nodeLabel,#my-svg .edgeLabel{color:#131300;}#my-svg .noteLabel .nodeLabel,#my-svg .noteLabel .edgeLabel{color:black;}#my-svg .edgeLabel .label rect{fill:#ECECFF;}#my-svg .label text{fill:#131300;}#my-svg .labelBkg{background:#ECECFF;}#my-svg .edgeLabel .label span{background:#ECECFF;}#my-svg .classTitle{font-weight:bolder;}#my-svg .node rect,#my-svg .node circle,#my-svg .node ellipse,#my-svg .node polygon,#my-svg .node path{fill:#ECECFF;stroke:#9370DB;stroke-width:1;}#my-svg .divider{stroke:#9370DB;stroke-width:1;}#my-svg g.clickable{cursor:pointer;}#my-svg g.classGroup rect{fill:#ECECFF;stroke:#9370DB;}#my-svg g.classGroup line{stroke:#9370DB;stroke-width:1;}#my-svg .classLabel .box{stroke:none;stroke-width:0;fill:#ECECFF;opacity:0.5;}#my-svg .classLabel .label{fill:#9370DB;font-size:10px;}#my-svg .relation{stroke:#333333;stroke-width:1;fill:none;}#my-svg .dashed-line{stroke-dasharray:3;}#my-svg .dotted-line{stroke-dasharray:1 2;}#my-svg [id$="-compositionStart"],#my-svg .composition{fill:#333333!important;stroke:#333333!important;stroke-width:1;}#my-svg [id$="-compositionEnd"],#my-svg .composition{fill:#333333!important;stroke:#333333!important;stroke-width:1;}#my-svg [id$="-dependencyStart"],#my-svg .dependency{fill:#333333!important;stroke:#333333!important;stroke-width:1;}#my-svg [id$="-dependencyEnd"],#my-svg .dependency{fill:#333333!important;stroke:#333333!important;stroke-width:1;}#my-svg [id$="-extensionStart"],#my-svg .extension{fill:transparent!important;stroke:#333333!important;stroke-width:1;}#my-svg [id$="-extensionEnd"],#my-svg .extension{fill:transparent!important;stroke:#333333!important;stroke-width:1;}#my-svg [id$="-aggregationStart"],#my-svg .aggregation{fill:transparent!important;stroke:#333333!important;stroke-width:1;}#my-svg [id$="-aggregationEnd"],#my-svg .aggregation{fill:transparent!important;stroke:#333333!important;stroke-width:1;}#my-svg [id$="-lollipopStart"],#my-svg .lollipop{fill:#ECECFF!important;stroke:#333333!important;stroke-width:1;}#my-svg [id$="-lollipopEnd"],#my-svg .lollipop{fill:#ECECFF!important;stroke:#333333!important;stroke-width:1;}#my-svg .edgeTerminals{font-size:11px;line-height:initial;}#my-svg .classTitleText{text-anchor:middle;font-size:18px;fill:#333;}#my-svg .edgeLabel[data-look="neo"]{background-color:rgba(232,232,232, 0.8);text-align:center;}#my-svg .edgeLabel[data-look="neo"] p{background-color:rgba(232,232,232, 0.8);}#my-svg .edgeLabel[data-look="neo"] rect{opacity:0.5;background-color:rgba(232,232,232, 0.8);fill:rgba(232,232,232, 0.8);}#my-svg .label-icon{display:inline-block;height:1em;overflow:visible;vertical-align:-0.125em;}#my-svg .node .label-icon path{fill:currentColor;stroke:revert;stroke-width:revert;}#my-svg .node .neo-node{stroke:#9370DB;}#my-svg [data-look="neo"].node rect,#my-svg [data-look="neo"].cluster rect,#my-svg [data-look="neo"].node polygon{stroke:#9370DB;filter:drop-shadow(1px 2px 2px rgba(185, 185, 185, 1));}#my-svg [data-look="neo"].node path{stroke:#9370DB;stroke-width:1px;}#my-svg [data-look="neo"].node .outer-path{filter:drop-shadow(1px 2px 2px rgba(185, 185, 185, 1));}#my-svg [data-look="neo"].node .neo-line path{stroke:#9370DB;filter:none;}#my-svg [data-look="neo"].node circle{stroke:#9370DB;filter:drop-shadow(1px 2px 2px rgba(185, 185, 185, 1));}#my-svg [data-look="neo"].node circle .state-start{fill:#000000;}#my-svg [data-look="neo"].icon-shape .icon{fill:#9370DB;filter:drop-shadow(1px 2px 2px rgba(185, 185, 185, 1));}#my-svg [data-look="neo"].icon-shape .icon-neo path{stroke:#9370DB;filter:drop-shadow(1px 2px 2px rgba(185, 185, 185, 1));}#my-svg :root{--mermaid-font-family:"trebuchet ms",verdana,arial,sans-serif;}</style><g><defs><marker id="my-svg_class-aggregationStart" class="marker aggregation class" refX="18" refY="7" markerWidth="190" markerHeight="240" orient="auto"><path d="M 18,7 L9,13 L1,7 L9,1 Z"/></marker></defs><defs><marker id="my-svg_class-aggregationEnd" class="marker aggregation class" refX="1" refY="7" markerWidth="20" markerHeight="28" orient="auto"><path d="M 18,7 L9,13 L1,7 L9,1 Z"/></marker></defs><defs><marker id="my-svg_class-aggregationStart-margin" class="marker aggregation class" refX="15" refY="7" markerWidth="190" markerHeight="240" orient="auto" markerUnits="userSpaceOnUse"><path d="M 18,7 L9,13 L1,7 L9,1 Z" style="stroke-width: 2;"/></marker></defs><defs><marker id="my-svg_class-aggregationEnd-margin" class="marker aggregation class" refX="1" refY="7" markerWidth="20" markerHeight="28" orient="auto" markerUnits="userSpaceOnUse"><path d="M 18,7 L9,13 L1,7 L9,1 Z" style="stroke-width: 2;"/></marker></defs><defs><marker id="my-svg_class-extensionStart" class="marker extension class" refX="18" refY="7" markerWidth="20" markerHeight="28" orient="auto" markerUnits="userSpaceOnUse"><path d="M 1,7 L18,13 V 1 Z"/></marker></defs><defs><marker id="my-svg_class-extensionEnd" class="marker extension class" refX="1" refY="7" markerWidth="20" markerHeight="28" orient="auto"><path d="M 1,1 V 13 L18,7 Z"/></marker></defs><marker id="my-svg_class-extensionStart-margin" class="marker extension class" refX="18" refY="7" markerWidth="20" markerHeight="28" orient="auto" markerUnits="userSpaceOnUse" viewBox="0 0 20 14"><polygon points="10,7 18,13 18,1" style="stroke-width: 2; stroke-dasharray: 0;"/></marker><defs><marker id="my-svg_class-extensionEnd-margin" class="marker extension class" refX="9" refY="7" markerWidth="20" markerHeight="28" orient="auto" markerUnits="userSpaceOnUse" viewBox="0 0 20 14"><polygon points="10,1 10,13 18,7" style="stroke-width: 2; stroke-dasharray: 0;"/></marker></defs><defs><marker id="my-svg_class-compositionStart" class="marker composition class" refX="18" refY="7" markerWidth="190" markerHeight="240" orient="auto"><path d="M 18,7 L9,13 L1,7 L9,1 Z"/></marker></defs><defs><marker id="my-svg_class-compositionEnd" class="marker composition class" refX="1" refY="7" markerWidth="20" markerHeight="28" orient="auto"><path d="M 18,7 L9,13 L1,7 L9,1 Z"/></marker></defs><defs><marker id="my-svg_class-compositionStart-margin" class="marker composition class" refX="15" refY="7" markerWidth="190" markerHeight="240" orient="auto" markerUnits="userSpaceOnUse"><path viewBox="0 0 15 15" d="M 18,7 L9,13 L1,7 L9,1 Z" style="stroke-width: 0;"/></marker></defs><defs><marker id="my-svg_class-compositionEnd-margin" class="marker composition class" refX="3.5" refY="7" markerWidth="20" markerHeight="28" orient="auto" markerUnits="userSpaceOnUse"><path d="M 18,7 L9,13 L1,7 L9,1 Z" style="stroke-width: 0;"/></marker></defs><defs><marker id="my-svg_class-dependencyStart" class="marker dependency class" refX="6" refY="7" markerWidth="190" markerHeight="240" orient="auto"><path d="M 5,7 L9,13 L1,7 L9,1 Z"/></marker></defs><defs><marker id="my-svg_class-dependencyEnd" class="marker dependency class" refX="13" refY="7" markerWidth="20" markerHeight="28" orient="auto"><path d="M 18,7 L9,13 L14,7 L9,1 Z"/></marker></defs><defs><marker id="my-svg_class-dependencyStart-margin" class="marker dependency class" refX="4" refY="7" markerWidth="190" markerHeight="240" orient="auto" markerUnits="userSpaceOnUse"><path d="M 5,7 L9,13 L1,7 L9,1 Z" style="stroke-width: 0;"/></marker></defs><defs><marker id="my-svg_class-dependencyEnd-margin" class="marker dependency class" refX="16" refY="7" markerWidth="20" markerHeight="28" orient="auto" markerUnits="userSpaceOnUse"><path d="M 18,7 L9,13 L14,7 L9,1 Z" style="stroke-width: 0;"/></marker></defs><defs><marker id="my-svg_class-lollipopStart" class="marker lollipop class" refX="13" refY="7" markerWidth="190" markerHeight="240" orient="auto"><circle fill="transparent" cx="7" cy="7" r="6"/></marker></defs><defs><marker id="my-svg_class-lollipopEnd" class="marker lollipop class" refX="1" refY="7" markerWidth="190" markerHeight="240" orient="auto"><circle fill="transparent" cx="7" cy="7" r="6"/></marker></defs><defs><marker id="my-svg_class-lollipopStart-margin" class="marker lollipop class" refX="13" refY="7" markerWidth="190" markerHeight="240" orient="auto" markerUnits="userSpaceOnUse"><circle fill="transparent" cx="7" cy="7" r="6" stroke-width="2"/></marker></defs><defs><marker id="my-svg_class-lollipopEnd-margin" class="marker lollipop class" refX="1" refY="7" markerWidth="190" markerHeight="240" orient="auto" markerUnits="userSpaceOnUse"><circle fill="transparent" cx="7" cy="7" r="6" stroke-width="2"/></marker></defs><g class="root"><g class="clusters"/><g class="edgePaths"/><g class="edgeLabels"/><g class="nodes"><g class="root" transform="translate(-8, 0)"><g class="clusters"><g class="cluster undefined" id="my-svg-domain" data-look="classic"><rect style="" x="8" y="8" width="698.890625" height="770"/><g class="cluster-label" transform="translate(327.484375, 8)"><foreignObject width="59.921875" height="24"><div xmlns="http://www.w3.org/1999/xhtml" style="display: table-cell; white-space: nowrap; line-height: 1.5;"><span class="nodeLabel"><p>domain</p></span></div></foreignObject></g></g></g><g class="edgePaths"><path d="M300.375,196.033L312.044,188.528C323.714,181.022,347.052,166.011,375.775,158.506C404.497,151,438.604,151,455.658,151L472.711,151" id="my-svg-id_AlertRule_MetricType_1" class="edge-thickness-normal edge-pattern-solid relation" style=";;;" data-edge="true" data-et="edge" data-id="id_AlertRule_MetricType_1" data-points="W3sieCI6MzAwLjM3NSwieSI6MTk2LjAzMzM5NDAwMTc0MDkzfSx7IngiOjM3MC4zOTA2MjUsInkiOjE1MX0seyJ4Ijo0NzguNzEwOTM3NSwieSI6MTUxfV0=" data-look="classic" marker-end="url(#my-svg_class-dependencyEnd)"/><path d="M300.375,359.967L312.044,367.472C323.714,374.978,347.052,389.989,374.706,397.494C402.359,405,434.328,405,450.313,405L466.297,405" id="my-svg-id_AlertRule_IncidentPriority_2" class="edge-thickness-normal edge-pattern-solid relation" style=";;;" data-edge="true" data-et="edge" data-id="id_AlertRule_IncidentPriority_2" data-points="W3sieCI6MzAwLjM3NSwieSI6MzU5Ljk2NjYwNTk5ODI1OTA3fSx7IngiOjM3MC4zOTA2MjUsInkiOjQwNX0seyJ4Ijo0NzIuMjk2ODc1LCJ5Ijo0MDV9XQ==" data-look="classic" marker-end="url(#my-svg_class-dependencyEnd)"/></g><g class="edgeLabels"><g class="edgeLabel" transform="translate(370.390625, 151)"><g class="label" data-id="id_AlertRule_MetricType_1" transform="translate(-18.328125, -12)"><foreignObject width="36.65625" height="24"><div xmlns="http://www.w3.org/1999/xhtml" class="labelBkg" style="display: table-cell; white-space: nowrap; line-height: 1.5; max-width: 200px; text-align: center;"><span class="edgeLabel"><p>uses</p></span></div></foreignObject></g></g><g class="edgeLabel" transform="translate(370.390625, 405)"><g class="label" data-id="id_AlertRule_IncidentPriority_2" transform="translate(-32.515625, -12)"><foreignObject width="65.03125" height="24"><div xmlns="http://www.w3.org/1999/xhtml" class="labelBkg" style="display: table-cell; white-space: nowrap; line-height: 1.5; max-width: 200px; text-align: center;"><span class="edgeLabel"><p>maps to</p></span></div></foreignObject></g></g></g><g class="nodes"><g class="node default" id="my-svg-classId-MetricType-0" data-look="classic" transform="translate(554.8984375, 151)"><g class="basic label-container outer-path"><path d="M-76.1875 -108 L76.1875 -108 L76.1875 108 L-76.1875 108" stroke="none" stroke-width="0" fill="#ECECFF" style=""/><path d="M-76.1875 -108 C-30.54769176698383 -108, 15.092116466032337 -108, 76.1875 -108 M-76.1875 -108 C-24.359032167524404 -108, 27.46943566495119 -108, 76.1875 -108 M76.1875 -108 C76.1875 -53.22505860987697, 76.1875 1.5498827802460653, 76.1875 108 M76.1875 -108 C76.1875 -40.574801666930625, 76.1875 26.85039666613875, 76.1875 108 M76.1875 108 C20.67185489994025 108, -34.8437902001195 108, -76.1875 108 M76.1875 108 C23.14784939575288 108, -29.891801208494243 108, -76.1875 108 M-76.1875 108 C-76.1875 26.819665395061648, -76.1875 -54.360669209876704, -76.1875 -108 M-76.1875 108 C-76.1875 24.020377865372552, -76.1875 -59.959244269254896, -76.1875 -108" stroke="#9370DB" stroke-width="1.3" fill="none" stroke-dasharray="0 0" style=""/></g><g class="annotation-group text" transform="translate(-32.6484375, -84)"><g class="label" style="" transform="translate(0,-12)"><foreignObject width="65.296875" height="24"><div xmlns="http://www.w3.org/1999/xhtml" style="display: table-cell; white-space: nowrap; line-height: 1.5; max-width: 116px; text-align: center;"><span class="nodeLabel markdown-node-label" style=""><p>«enum»</p></span></div></foreignObject></g></g><g class="label-group text" transform="translate(-49.515625, -60)"><g class="label" style="font-weight: bolder" transform="translate(0,-12)"><foreignObject width="99.03125" height="24"><div xmlns="http://www.w3.org/1999/xhtml" style="display: table-cell; white-space: nowrap; line-height: 1.5; max-width: 137px; text-align: center;"><span class="nodeLabel markdown-node-label" style=""><p>MetricType</p></span></div></foreignObject></g></g><g class="members-group text" transform="translate(-64.1875, -12)"><g class="label" style="" transform="translate(0,-12)"><foreignObject width="33.953125" height="24"><div xmlns="http://www.w3.org/1999/xhtml" style="display: table-cell; white-space: nowrap; line-height: 1.5; max-width: 84px; text-align: center;"><span class="nodeLabel markdown-node-label" style=""><p>CO2</p></span></div></foreignObject></g><g class="label" style="" transform="translate(0,12)"><foreignObject width="43.8125" height="24"><div xmlns="http://www.w3.org/1999/xhtml" style="display: table-cell; white-space: nowrap; line-height: 1.5; max-width: 94px; text-align: center;"><span class="nodeLabel markdown-node-label" style=""><p>PM25</p></span></div></foreignObject></g><g class="label" style="" transform="translate(0,36)"><foreignObject width="43.34375" height="24"><div xmlns="http://www.w3.org/1999/xhtml" style="display: table-cell; white-space: nowrap; line-height: 1.5; max-width: 95px; text-align: center;"><span class="nodeLabel markdown-node-label" style=""><p>TEMP</p></span></div></foreignObject></g><g class="label" style="" transform="translate(0,60)"><foreignObject width="78.859375" height="24"><div xmlns="http://www.w3.org/1999/xhtml" style="display: table-cell; white-space: nowrap; line-height: 1.5; max-width: 130px; text-align: center;"><span class="nodeLabel markdown-node-label" style=""><p>HUMIDITY</p></span></div></foreignObject></g></g><g class="methods-group text" transform="translate(-64.1875, 108)"/><g class="divider" style=""><path d="M-76.1875 -36 C-40.668247323769044 -35.99976689579868, -5.148994647538089 -35.99953379159736, 76.1875 -35.999 M-76.1875 -36 C-17.313333371686973 -35.99961362318866, 41.560833256626054 -35.999227246377316, 76.1875 -35.999" stroke="#9370DB" stroke-width="1.3" fill="none" stroke-dasharray="0 0" style=""/></g><g class="divider" style=""><path d="M-76.1875 84 C-21.64499456691391 84.0003579491743, 32.89751086617218 84.00071589834859, 76.1875 84.001 M-76.1875 84 C-23.16861907780575 84.00034794999785, 29.8502618443885 84.0006958999957, 76.1875 84.001" stroke="#9370DB" stroke-width="1.3" fill="none" stroke-dasharray="0 0" style=""/></g></g><g class="node default" id="my-svg-classId-AlertRule-3" data-look="classic" transform="translate(172.9375, 278)"><g class="basic label-container outer-path"><path d="M-127.4375 -108 L127.4375 -108 L127.4375 108 L-127.4375 108" stroke="none" stroke-width="0" fill="#ECECFF" style=""/><path d="M-127.4375 -108 C-37.15405867137626 -108, 53.129382657247476 -108, 127.4375 -108 M-127.4375 -108 C-54.826881164310606 -108, 17.783737671378788 -108, 127.4375 -108 M127.4375 -108 C127.4375 -45.42479025193702, 127.4375 17.150419496125963, 127.4375 108 M127.4375 -108 C127.4375 -33.791187562598694, 127.4375 40.41762487480261, 127.4375 108 M127.4375 108 C65.79551102648888 108, 4.153522052977763 108, -127.4375 108 M127.4375 108 C29.998864230408103 108, -67.4397715391838 108, -127.4375 108 M-127.4375 108 C-127.4375 51.094577798766764, -127.4375 -5.810844402466472, -127.4375 -108 M-127.4375 108 C-127.4375 61.98085900842048, -127.4375 15.961718016840962, -127.4375 -108" stroke="#9370DB" stroke-width="1.3" fill="none" stroke-dasharray="0 0" style=""/></g><g class="annotation-group text" transform="translate(0, -84)"/><g class="label-group text" transform="translate(-42.15625, -84)"><g class="label" style="font-weight: bolder" transform="translate(0,-12)"><foreignObject width="84.3125" height="24"><div xmlns="http://www.w3.org/1999/xhtml" style="display: table-cell; white-space: nowrap; line-height: 1.5; max-width: 122px; text-align: center;"><span class="nodeLabel markdown-node-label" style=""><p>AlertRule</p></span></div></foreignObject></g></g><g class="members-group text" transform="translate(-115.4375, -36)"><g class="label" style="" transform="translate(0,-12)"><foreignObject width="117.765625" height="24"><div xmlns="http://www.w3.org/1999/xhtml" style="display: table-cell; white-space: nowrap; line-height: 1.5; max-width: 172px; text-align: center;"><span class="nodeLabel markdown-node-label" style=""><p>+String metric</p></span></div></foreignObject></g><g class="label" style="" transform="translate(0,12)"><foreignObject width="173.734375" height="24"><div xmlns="http://www.w3.org/1999/xhtml" style="display: table-cell; white-space: nowrap; line-height: 1.5; max-width: 228px; text-align: center;"><span class="nodeLabel markdown-node-label" style=""><p>+float thresholdValue</p></span></div></foreignObject></g><g class="label" style="" transform="translate(0,36)"><foreignObject width="135.0625" height="24"><div xmlns="http://www.w3.org/1999/xhtml" style="display: table-cell; white-space: nowrap; line-height: 1.5; max-width: 190px; text-align: center;"><span class="nodeLabel markdown-node-label" style=""><p>+String operator</p></span></div></foreignObject></g><g class="label" style="" transform="translate(0,60)"><foreignObject width="97.09375" height="24"><div xmlns="http://www.w3.org/1999/xhtml" style="display: table-cell; white-space: nowrap; line-height: 1.5; max-width: 150px; text-align: center;"><span class="nodeLabel markdown-node-label" style=""><p>+int priority</p></span></div></foreignObject></g></g><g class="methods-group text" transform="translate(-115.4375, 84)"><g class="label" style="" transform="translate(0,-12)"><foreignObject width="188.71875" height="24"><div xmlns="http://www.w3.org/1999/xhtml" style="display: table-cell; white-space: nowrap; line-height: 1.5; max-width: 242px; text-align: center;"><span class="nodeLabel markdown-node-label" style=""><p>+evaluate(actualValue)</p></span></div></foreignObject></g></g><g class="divider" style=""><path d="M-127.4375 -60 C-41.79691566580058 -59.99966398986039, 43.843668668398834 -59.999327979720775, 127.4375 -59.999 M-127.4375 -60 C-59.70228009245615 -59.99973424141282, 8.032939815087701 -59.99946848282564, 127.4375 -59.999" stroke="#9370DB" stroke-width="1.3" fill="none" stroke-dasharray="0 0" style=""/></g><g class="divider" style=""><path d="M-127.4375 60 C-29.464569837101564 60.00038439599868, 68.50836032579687 60.00076879199735, 127.4375 60.001 M-127.4375 60 C-44.83159172357327 60.000324103612655, 37.77431655285346 60.00064820722532, 127.4375 60.001" stroke="#9370DB" stroke-width="1.3" fill="none" stroke-dasharray="0 0" style=""/></g></g><g class="node default" id="my-svg-classId-IncidentPriority-2" data-look="classic" transform="translate(554.8984375, 405)"><g class="basic label-container outer-path"><path d="M-82.6015625 -96 L82.6015625 -96 L82.6015625 96 L-82.6015625 96" stroke="none" stroke-width="0" fill="#ECECFF" style=""/><path d="M-82.6015625 -96 C-20.365524154266552 -96, 41.870514191466896 -96, 82.6015625 -96 M-82.6015625 -96 C-43.65066664498501 -96, -4.699770789970017 -96, 82.6015625 -96 M82.6015625 -96 C82.6015625 -27.638648075652668, 82.6015625 40.722703848694664, 82.6015625 96 M82.6015625 -96 C82.6015625 -47.267374541304505, 82.6015625 1.4652509173909891, 82.6015625 96 M82.6015625 96 C32.58965223617071 96, -17.422258027658586 96, -82.6015625 96 M82.6015625 96 C28.221438383958308 96, -26.158685732083384 96, -82.6015625 96 M-82.6015625 96 C-82.6015625 54.99940801947044, -82.6015625 13.998816038940873, -82.6015625 -96 M-82.6015625 96 C-82.6015625 21.324842853418048, -82.6015625 -53.350314293163905, -82.6015625 -96" stroke="#9370DB" stroke-width="1.3" fill="none" stroke-dasharray="0 0" style=""/></g><g class="annotation-group text" transform="translate(-32.6484375, -72)"><g class="label" style="" transform="translate(0,-12)"><foreignObject width="65.296875" height="24"><div xmlns="http://www.w3.org/1999/xhtml" style="display: table-cell; white-space: nowrap; line-height: 1.5; max-width: 116px; text-align: center;"><span class="nodeLabel markdown-node-label" style=""><p>«enum»</p></span></div></foreignObject></g></g><g class="label-group text" transform="translate(-70.6015625, -48)"><g class="label" style="font-weight: bolder" transform="translate(0,-12)"><foreignObject width="141.203125" height="24"><div xmlns="http://www.w3.org/1999/xhtml" style="display: table-cell; white-space: nowrap; line-height: 1.5; max-width: 171px; text-align: center;"><span class="nodeLabel markdown-node-label" style=""><p>IncidentPriority</p></span></div></foreignObject></g></g><g class="members-group text" transform="translate(-70.6015625, 0)"><g class="label" style="" transform="translate(0,-12)"><foreignObject width="41.1875" height="24"><div xmlns="http://www.w3.org/1999/xhtml" style="display: table-cell; white-space: nowrap; line-height: 1.5; max-width: 91px; text-align: center;"><span class="nodeLabel markdown-node-label" style=""><p>HIGH</p></span></div></foreignObject></g><g class="label" style="" transform="translate(0,12)"><foreignObject width="66.46875" height="24"><div xmlns="http://www.w3.org/1999/xhtml" style="display: table-cell; white-space: nowrap; line-height: 1.5; max-width: 117px; text-align: center;"><span class="nodeLabel markdown-node-label" style=""><p>MEDIUM</p></span></div></foreignObject></g><g class="label" style="" transform="translate(0,36)"><foreignObject width="36.765625" height="24"><div xmlns="http://www.w3.org/1999/xhtml" style="display: table-cell; white-space: nowrap; line-height: 1.5; max-width: 87px; text-align: center;"><span class="nodeLabel markdown-node-label" style=""><p>LOW</p></span></div></foreignObject></g></g><g class="methods-group text" transform="translate(-70.6015625, 96)"/><g class="divider" style=""><path d="M-82.6015625 -24 C-25.670769917554672 -23.999655389130304, 31.260022664890656 -23.99931077826061, 82.6015625 -23.999 M-82.6015625 -24 C-41.63785100719933 -23.99975204033524, -0.6741395143986608 -23.999504080670473, 82.6015625 -23.999" stroke="#9370DB" stroke-width="1.3" fill="none" stroke-dasharray="0 0" style=""/></g><g class="divider" style=""><path d="M-82.6015625 72 C-34.779827091613804 72.00028947234145, 13.041908316772393 72.0005789446829, 82.6015625 72.001 M-82.6015625 72 C-48.98236924848415 72.00020350216288, -15.363175996968295 72.00040700432575, 82.6015625 72.001" stroke="#9370DB" stroke-width="1.3" fill="none" stroke-dasharray="0 0" style=""/></g></g><g class="node default" id="my-svg-classId-IncidentStatus-1" data-look="classic" transform="translate(554.8984375, 647)"><g class="basic label-container outer-path"><path d="M-114.4921875 -96 L114.4921875 -96 L114.4921875 96 L-114.4921875 96" stroke="none" stroke-width="0" fill="#ECECFF" style=""/><path d="M-114.4921875 -96 C-51.20516996880412 -96, 12.081847562391758 -96, 114.4921875 -96 M-114.4921875 -96 C-60.1163442067683 -96, -5.740500913536593 -96, 114.4921875 -96 M114.4921875 -96 C114.4921875 -32.63690136287855, 114.4921875 30.726197274242907, 114.4921875 96 M114.4921875 -96 C114.4921875 -53.30701969410319, 114.4921875 -10.614039388206379, 114.4921875 96 M114.4921875 96 C23.240962133495685 96, -68.01026323300863 96, -114.4921875 96 M114.4921875 96 C43.71494888977048 96, -27.062289720459034 96, -114.4921875 96 M-114.4921875 96 C-114.4921875 33.933226871579464, -114.4921875 -28.133546256841072, -114.4921875 -96 M-114.4921875 96 C-114.4921875 34.17277540181212, -114.4921875 -27.654449196375765, -114.4921875 -96" stroke="#9370DB" stroke-width="1.3" fill="none" stroke-dasharray="0 0" style=""/></g><g class="annotation-group text" transform="translate(-32.6484375, -72)"><g class="label" style="" transform="translate(0,-12)"><foreignObject width="65.296875" height="24"><div xmlns="http://www.w3.org/1999/xhtml" style="display: table-cell; white-space: nowrap; line-height: 1.5; max-width: 116px; text-align: center;"><span class="nodeLabel markdown-node-label" style=""><p>«enum»</p></span></div></foreignObject></g></g><g class="label-group text" transform="translate(-66.09375, -48)"><g class="label" style="font-weight: bolder" transform="translate(0,-12)"><foreignObject width="132.1875" height="24"><div xmlns="http://www.w3.org/1999/xhtml" style="display: table-cell; white-space: nowrap; line-height: 1.5; max-width: 164px; text-align: center;"><span class="nodeLabel markdown-node-label" style=""><p>IncidentStatus</p></span></div></foreignObject></g></g><g class="members-group text" transform="translate(-102.4921875, 0)"><g class="label" style="" transform="translate(0,-12)"><foreignObject width="57.390625" height="24"><div xmlns="http://www.w3.org/1999/xhtml" style="display: table-cell; white-space: nowrap; line-height: 1.5; max-width: 108px; text-align: center;"><span class="nodeLabel markdown-node-label" style=""><p>ACTIVE</p></span></div></foreignObject></g><g class="label" style="" transform="translate(0,12)"><foreignObject width="84.515625" height="24"><div xmlns="http://www.w3.org/1999/xhtml" style="display: table-cell; white-space: nowrap; line-height: 1.5; max-width: 134px; text-align: center;"><span class="nodeLabel markdown-node-label" style=""><p>RESOLVED</p></span></div></foreignObject></g><g class="label" style="" transform="translate(0,36)"><foreignObject width="138.890625" height="24"><div xmlns="http://www.w3.org/1999/xhtml" style="display: table-cell; white-space: nowrap; line-height: 1.5; max-width: 189px; text-align: center;"><span class="nodeLabel markdown-node-label" style=""><p>ACKNOWLEDGED</p></span></div></foreignObject></g></g><g class="methods-group text" transform="translate(-102.4921875, 96)"/><g class="divider" style=""><path d="M-114.4921875 -24 C-32.278607678111584 -23.999640964236875, 49.93497214377683 -23.99928192847375, 114.4921875 -23.999 M-114.4921875 -24 C-25.409549261903592 -23.99961096630179, 63.673088976192815 -23.999221932603582, 114.4921875 -23.999" stroke="#9370DB" stroke-width="1.3" fill="none" stroke-dasharray="0 0" style=""/></g><g class="divider" style=""><path d="M-114.4921875 72 C-58.60441573711143 72.0002440680582, -2.716643974222862 72.00048813611639, 114.4921875 72.001 M-114.4921875 72 C-39.45743507321531 72.00032768503277, 35.577317353569384 72.00065537006556, 114.4921875 72.001" stroke="#9370DB" stroke-width="1.3" fill="none" stroke-dasharray="0 0" style=""/></g></g></g></g></g></g></g><defs><filter id="my-svg-drop-shadow" height="130%" width="130%"><feDropShadow dx="4" dy="4" stdDeviation="0" flood-opacity="0.06" flood-color="#000000"/></filter></defs><defs><filter id="my-svg-drop-shadow-small" height="150%" width="150%"><feDropShadow dx="2" dy="2" stdDeviation="0" flood-opacity="0.06" flood-color="#000000"/></filter></defs><text text-anchor="middle" x="349.4453125" y="-25" class="classDiagramTitleText">Alerting - Domain Layer Class Diagram (Embedded)</text></svg>