<svg id="my-svg" width="100%" xmlns="http://www.w3.org/2000/svg" xmlns:xlink="http://www.w3.org/1999/xlink" class="classDiagram" style="max-width: 1470.83px; background-color: transparent;" viewBox="0 -48 1470.828125 818" role="graphics-document document" aria-roledescription="class"><style>#my-svg{font-family:"trebuchet ms",verdana,arial,sans-serif;font-size:16px;fill:#333;}@keyframes edge-animation-frame{from{stroke-dashoffset:0;}}@keyframes dash{to{stroke-dashoffset:0;}}#my-svg .edge-animation-slow{stroke-dasharray:9,5!important;stroke-dashoffset:900;animation:dash 50s linear infinite;stroke-linecap:round;}#my-svg .edge-animation-fast{stroke-dasharray:9,5!important;stroke-dashoffset:900;animation:dash 20s linear infinite;stroke-linecap:round;}#my-svg .error-icon{fill:#552222;}#my-svg .error-text{fill:#552222;stroke:#552222;}#my-svg .edge-thickness-normal{stroke-width:1px;}#my-svg .edge-thickness-thick{stroke-width:3.5px;}#my-svg .edge-pattern-solid{stroke-dasharray:0;}#my-svg .edge-thickness-invisible{stroke-width:0;fill:none;}#my-svg .edge-pattern-dashed{stroke-dasharray:3;}#my-svg .edge-pattern-dotted{stroke-dasharray:2;}#my-svg .marker{fill:#333333;stroke:#333333;}#my-svg .marker.cross{stroke:#333333;}#my-svg svg{font-family:"trebuchet ms",verdana,arial,sans-serif;font-size:16px;}#my-svg p{margin:0;}#my-svg g.classGroup text{fill:#9370DB;stroke:none;font-family:"trebuchet ms",verdana,arial,sans-serif;font-size:10px;}#my-svg g.classGroup text .title{font-weight:bolder;}#my-svg .cluster-label text{fill:#333;}#my-svg .cluster-label span{color:#333;}#my-svg .cluster-label span p{background-color:transparent;}#my-svg .cluster rect{fill:transparent;stroke:#666666;stroke-width:1px;}#my-svg .cluster text{fill:#333;}#my-svg .cluster span{color:#333;}#my-svg .nodeLabel,#my-svg .edgeLabel{color:#131300;}#my-svg .noteLabel .nodeLabel,#my-svg .noteLabel .edgeLabel{color:black;}#my-svg .edgeLabel .label rect{fill:#ECECFF;}#my-svg .label text{fill:#131300;}#my-svg .labelBkg{background:#ECECFF;}#my-svg .edgeLabel .label span{background:#ECECFF;}#my-svg .classTitle{font-weight:bolder;}#my-svg .node rect,#my-svg .node circle,#my-svg .node ellipse,#my-svg .node polygon,#my-svg .node path{fill:#ECECFF;stroke:#9370DB;stroke-width:1;}#my-svg .divider{stroke:#9370DB;stroke-width:1;}#my-svg g.clickable{cursor:pointer;}#my-svg g.classGroup rect{fill:#ECECFF;stroke:#9370DB;}#my-svg g.classGroup line{stroke:#9370DB;stroke-width:1;}#my-svg .classLabel .box{stroke:none;stroke-width:0;fill:#ECECFF;opacity:0.5;}#my-svg .classLabel .label{fill:#9370DB;font-size:10px;}#my-svg .relation{stroke:#333333;stroke-width:1;fill:none;}#my-svg .dashed-line{stroke-dasharray:3;}#my-svg .dotted-line{stroke-dasharray:1 2;}#my-svg [id$="-compositionStart"],#my-svg .composition{fill:#333333!important;stroke:#333333!important;stroke-width:1;}#my-svg [id$="-compositionEnd"],#my-svg .composition{fill:#333333!important;stroke:#333333!important;stroke-width:1;}#my-svg [id$="-dependencyStart"],#my-svg .dependency{fill:#333333!important;stroke:#333333!important;stroke-width:1;}#my-svg [id$="-dependencyEnd"],#my-svg .dependency{fill:#333333!important;stroke:#333333!important;stroke-width:1;}#my-svg [id$="-extensionStart"],#my-svg .extension{fill:transparent!important;stroke:#333333!important;stroke-width:1;}#my-svg [id$="-extensionEnd"],#my-svg .extension{fill:transparent!important;stroke:#333333!important;stroke-width:1;}#my-svg [id$="-aggregationStart"],#my-svg .aggregation{fill:transparent!important;stroke:#333333!important;stroke-width:1;}#my-svg [id$="-aggregationEnd"],#my-svg .aggregation{fill:transparent!important;stroke:#333333!important;stroke-width:1;}#my-svg [id$="-lollipopStart"],#my-svg .lollipop{fill:#ECECFF!important;stroke:#333333!important;stroke-width:1;}#my-svg [id$="-lollipopEnd"],#my-svg .lollipop{fill:#ECECFF!important;stroke:#333333!important;stroke-width:1;}#my-svg .edgeTerminals{font-size:11px;line-height:initial;}#my-svg .classTitleText{text-anchor:middle;font-size:18px;fill:#333;}#my-svg .edgeLabel[data-look="neo"]{background-color:rgba(232,232,232, 0.8);text-align:center;}#my-svg .edgeLabel[data-look="neo"] p{background-color:rgba(232,232,232, 0.8);}#my-svg .edgeLabel[data-look="neo"] rect{opacity:0.5;background-color:rgba(232,232,232, 0.8);fill:rgba(232,232,232, 0.8);}#my-svg .label-icon{display:inline-block;height:1em;overflow:visible;vertical-align:-0.125em;}#my-svg .node .label-icon path{fill:currentColor;stroke:revert;stroke-width:revert;}#my-svg .node .neo-node{stroke:#9370DB;}#my-svg [data-look="neo"].node rect,#my-svg [data-look="neo"].cluster rect,#my-svg [data-look="neo"].node polygon{stroke:#9370DB;filter:drop-shadow(1px 2px 2px rgba(185, 185, 185, 1));}#my-svg [data-look="neo"].node path{stroke:#9370DB;stroke-width:1px;}#my-svg [data-look="neo"].node .outer-path{filter:drop-shadow(1px 2px 2px rgba(185, 185, 185, 1));}#my-svg [data-look="neo"].node .neo-line path{stroke:#9370DB;filter:none;}#my-svg [data-look="neo"].node circle{stroke:#9370DB;filter:drop-shadow(1px 2px 2px rgba(185, 185, 185, 1));}#my-svg [data-look="neo"].node circle .state-start{fill:#000000;}#my-svg [data-look="neo"].icon-shape .icon{fill:#9370DB;filter:drop-shadow(1px 2px 2px rgba(185, 185, 185, 1));}#my-svg [data-look="neo"].icon-shape .icon-neo path{stroke:#9370DB;filter:drop-shadow(1px 2px 2px rgba(185, 185, 185, 1));}#my-svg :root{--mermaid-font-family:"trebuchet ms",verdana,arial,sans-serif;}</style><g><defs><marker id="my-svg_class-aggregationStart" class="marker aggregation class" refX="18" refY="7" markerWidth="190" markerHeight="240" orient="auto"><path d="M 18,7 L9,13 L1,7 L9,1 Z"/></marker></defs><defs><marker id="my-svg_class-aggregationEnd" class="marker aggregation class" refX="1" refY="7" markerWidth="20" markerHeight="28" orient="auto"><path d="M 18,7 L9,13 L1,7 L9,1 Z"/></marker></defs><defs><marker id="my-svg_class-aggregationStart-margin" class="marker aggregation class" refX="15" refY="7" markerWidth="190" markerHeight="240" orient="auto" markerUnits="userSpaceOnUse"><path d="M 18,7 L9,13 L1,7 L9,1 Z" style="stroke-width: 2;"/></marker></defs><defs><marker id="my-svg_class-aggregationEnd-margin" class="marker aggregation class" refX="1" refY="7" markerWidth="20" markerHeight="28" orient="auto" markerUnits="userSpaceOnUse"><path d="M 18,7 L9,13 L1,7 L9,1 Z" style="stroke-width: 2;"/></marker></defs><defs><marker id="my-svg_class-extensionStart" class="marker extension class" refX="18" refY="7" markerWidth="20" markerHeight="28" orient="auto" markerUnits="userSpaceOnUse"><path d="M 1,7 L18,13 V 1 Z"/></marker></defs><defs><marker id="my-svg_class-extensionEnd" class="marker extension class" refX="1" refY="7" markerWidth="20" markerHeight="28" orient="auto"><path d="M 1,1 V 13 L18,7 Z"/></marker></defs><marker id="my-svg_class-extensionStart-margin" class="marker extension class" refX="18" refY="7" markerWidth="20" markerHeight="28" orient="auto" markerUnits="userSpaceOnUse" viewBox="0 0 20 14"><polygon points="10,7 18,13 18,1" style="stroke-width: 2; stroke-dasharray: 0;"/></marker><defs><marker id="my-svg_class-extensionEnd-margin" class="marker extension class" refX="9" refY="7" markerWidth="20" markerHeight="28" orient="auto" markerUnits="userSpaceOnUse" viewBox="0 0 20 14"><polygon points="10,1 10,13 18,7" style="stroke-width: 2; stroke-dasharray: 0;"/></marker></defs><defs><marker id="my-svg_class-compositionStart" class="marker composition class" refX="18" refY="7" markerWidth="190" markerHeight="240" orient="auto"><path d="M 18,7 L9,13 L1,7 L9,1 Z"/></marker></defs><defs><marker id="my-svg_class-compositionEnd" class="marker composition class" refX="1" refY="7" markerWidth="20" markerHeight="28" orient="auto"><path d="M 18,7 L9,13 L1,7 L9,1 Z"/></marker></defs><defs><marker id="my-svg_class-compositionStart-margin" class="marker composition class" refX="15" refY="7" markerWidth="190" markerHeight="240" orient="auto" markerUnits="userSpaceOnUse"><path viewBox="0 0 15 15" d="M 18,7 L9,13 L1,7 L9,1 Z" style="stroke-width: 0;"/></marker></defs><defs><marker id="my-svg_class-compositionEnd-margin" class="marker composition class" refX="3.5" refY="7" markerWidth="20" markerHeight="28" orient="auto" markerUnits="userSpaceOnUse"><path d="M 18,7 L9,13 L1,7 L9,1 Z" style="stroke-width: 0;"/></marker></defs><defs><marker id="my-svg_class-dependencyStart" class="marker dependency class" refX="6" refY="7" markerWidth="190" markerHeight="240" orient="auto"><path d="M 5,7 L9,13 L1,7 L9,1 Z"/></marker></defs><defs><marker id="my-svg_class-dependencyEnd" class="marker dependency class" refX="13" refY="7" markerWidth="20" markerHeight="28" orient="auto"><path d="M 18,7 L9,13 L14,7 L9,1 Z"/></marker></defs><defs><marker id="my-svg_class-dependencyStart-margin" class="marker dependency class" refX="4" refY="7" markerWidth="190" markerHeight="240" orient="auto" markerUnits="userSpaceOnUse"><path d="M 5,7 L9,13 L1,7 L9,1 Z" style="stroke-width: 0;"/></marker></defs><defs><marker id="my-svg_class-dependencyEnd-margin" class="marker dependency class" refX="16" refY="7" markerWidth="20" markerHeight="28" orient="auto" markerUnits="userSpaceOnUse"><path d="M 18,7 L9,13 L14,7 L9,1 Z" style="stroke-width: 0;"/></marker></defs><defs><marker id="my-svg_class-lollipopStart" class="marker lollipop class" refX="13" refY="7" markerWidth="190" markerHeight="240" orient="auto"><circle fill="transparent" cx="7" cy="7" r="6"/></marker></defs><defs><marker id="my-svg_class-lollipopEnd" class="marker lollipop class" refX="1" refY="7" markerWidth="190" markerHeight="240" orient="auto"><circle fill="transparent" cx="7" cy="7" r="6"/></marker></defs><defs><marker id="my-svg_class-lollipopStart-margin" class="marker lollipop class" refX="13" refY="7" markerWidth="190" markerHeight="240" orient="auto" markerUnits="userSpaceOnUse"><circle fill="transparent" cx="7" cy="7" r="6" stroke-width="2"/></marker></defs><defs><marker id="my-svg_class-lollipopEnd-margin" class="marker lollipop class" refX="1" refY="7" markerWidth="190" markerHeight="240" orient="auto" markerUnits="userSpaceOnUse"><circle fill="transparent" cx="7" cy="7" r="6" stroke-width="2"/></marker></defs><g class="root"><g class="clusters"><g class="cluster undefined" id="my-svg-infrastructure" data-look="classic"><rect style="" x="8" y="8" width="1243.0625" height="754"/><g class="cluster-label" transform="translate(574.921875, 8)"><foreignObject width="109.21875" height="24"><div xmlns="http://www.w3.org/1999/xhtml" style="display: table-cell; white-space: nowrap; line-height: 1.5;"><span class="nodeLabel"><p>infrastructure</p></span></div></foreignObject></g></g></g><g class="edgePaths"><path d="M244.188,219L244.188,231.167C244.188,243.333,244.188,267.667,244.188,285C244.188,302.333,244.188,312.667,244.188,317.833L244.188,323" id="my-svg-id_LedController_Led_1" class="edge-thickness-normal edge-pattern-solid relation" style=";;;" data-edge="true" data-et="edge" data-id="id_LedController_Led_1" data-points="W3sieCI6MjQ0LjE4NzUsInkiOjIxOX0seyJ4IjoyNDQuMTg3NSwieSI6MjkyfSx7IngiOjI0NC4xODc1LCJ5IjozMjl9XQ==" data-look="classic" marker-end="url(#my-svg_class-dependencyEnd)"/><path d="M680.422,252L680.422,258.667C680.422,265.333,680.422,278.667,780.417,320.057C880.413,361.447,1080.404,430.894,1180.399,465.617L1280.395,500.341" id="my-svg-id_IncidentHttpClient_IncidentManager_2" class="edge-thickness-normal edge-pattern-solid relation" style=";;;" data-edge="true" data-et="edge" data-id="id_IncidentHttpClient_IncidentManager_2" data-points="W3sieCI6NjgwLjQyMTg3NSwieSI6MjUyfSx7IngiOjY4MC40MjE4NzUsInkiOjI5Mn0seyJ4IjoxMjg2LjA2MjUsInkiOjUwMi4zMDkwMjIzNDQ3OTY1fV0=" data-look="classic" marker-end="url(#my-svg_class-dependencyEnd)"/><path d="M1065.766,255L1065.766,261.167C1065.766,267.333,1065.766,279.667,1107.458,318.385C1149.151,357.103,1232.536,422.205,1274.229,454.756L1315.921,487.308" id="my-svg-id_IncidentAckQueue_IncidentManager_3" class="edge-thickness-normal edge-pattern-solid relation" style=";;;" data-edge="true" data-et="edge" data-id="id_IncidentAckQueue_IncidentManager_3" data-points="W3sieCI6MTA2NS43NjU2MjUsInkiOjI1NX0seyJ4IjoxMDY1Ljc2NTYyNSwieSI6MjkyfSx7IngiOjEzMjAuNjUwNTEyMTg4Nzk2NywieSI6NDkxfV0=" data-look="classic" marker-end="url(#my-svg_class-dependencyEnd)"/></g><g class="edgeLabels"><g class="edgeLabel" transform="translate(244.1875, 292)"><g class="label" data-id="id_LedController_Led_1" transform="translate(-31.8984375, -12)"><foreignObject width="63.796875" height="24"><div xmlns="http://www.w3.org/1999/xhtml" class="labelBkg" style="display: table-cell; white-space: nowrap; line-height: 1.5; max-width: 200px; text-align: center;"><span class="edgeLabel"><p>controls</p></span></div></foreignObject></g></g><g class="edgeLabel" transform="translate(680.421875, 292)"><g class="label" data-id="id_IncidentHttpClient_IncidentManager_2" transform="translate(-31.59375, -12)"><foreignObject width="63.1875" height="24"><div xmlns="http://www.w3.org/1999/xhtml" class="labelBkg" style="display: table-cell; white-space: nowrap; line-height: 1.5; max-width: 200px; text-align: center;"><span class="edgeLabel"><p>used by</p></span></div></foreignObject></g></g><g class="edgeLabel" transform="translate(1065.765625, 292)"><g class="label" data-id="id_IncidentAckQueue_IncidentManager_3" transform="translate(-31.59375, -12)"><foreignObject width="63.1875" height="24"><div xmlns="http://www.w3.org/1999/xhtml" class="labelBkg" style="display: table-cell; white-space: nowrap; line-height: 1.5; max-width: 200px; text-align: center;"><span class="edgeLabel"><p>used by</p></span></div></foreignObject></g></g></g><g class="nodes"><g class="node default" id="my-svg-classId-Led-0" data-look="classic" transform="translate(244.1875, 533)"><g class="basic label-container outer-path"><path d="M-143.9296875 -204 L143.9296875 -204 L143.9296875 204 L-143.9296875 204" stroke="none" stroke-width="0" fill="#ECECFF" style=""/><path d="M-143.9296875 -204 C-47.86683361954013 -204, 48.19602026091974 -204, 143.9296875 -204 M-143.9296875 -204 C-54.63677900165983 -204, 34.656129496680336 -204, 143.9296875 -204 M143.9296875 -204 C143.9296875 -91.63489288654323, 143.9296875 20.730214226913546, 143.9296875 204 M143.9296875 -204 C143.9296875 -83.21721717243793, 143.9296875 37.565565655124146, 143.9296875 204 M143.9296875 204 C34.19246851827515 204, -75.5447504634497 204, -143.9296875 204 M143.9296875 204 C39.60564047760387 204, -64.71840654479226 204, -143.9296875 204 M-143.9296875 204 C-143.9296875 62.306045167860674, -143.9296875 -79.38790966427865, -143.9296875 -204 M-143.9296875 204 C-143.9296875 46.83313825550081, -143.9296875 -110.33372348899837, -143.9296875 -204" stroke="#9370DB" stroke-width="1.3" fill="none" stroke-dasharray="0 0" style=""/></g><g class="annotation-group text" transform="translate(0, -180)"/><g class="label-group text" transform="translate(-16.25, -180)"><g class="label" style="font-weight: bolder" transform="translate(0,-12)"><foreignObject width="32.5" height="24"><div xmlns="http://www.w3.org/1999/xhtml" style="display: table-cell; white-space: nowrap; line-height: 1.5; max-width: 79px; text-align: center;"><span class="nodeLabel markdown-node-label" style=""><p>Led</p></span></div></foreignObject></g></g><g class="members-group text" transform="translate(-131.9296875, -132)"><g class="label" style="" transform="translate(0,-12)"><foreignObject width="85.578125" height="24"><div xmlns="http://www.w3.org/1999/xhtml" style="display: table-cell; white-space: nowrap; line-height: 1.5; max-width: 140px; text-align: center;"><span class="nodeLabel markdown-node-label" style=""><p>-bool state</p></span></div></foreignObject></g><g class="label" style="" transform="translate(0,12)"><foreignObject width="108.234375" height="24"><div xmlns="http://www.w3.org/1999/xhtml" style="display: table-cell; white-space: nowrap; line-height: 1.5; max-width: 161px; text-align: center;"><span class="nodeLabel markdown-node-label" style=""><p>-bool blinking</p></span></div></foreignObject></g><g class="label" style="" transform="translate(0,36)"><foreignObject width="231.125" height="24"><div xmlns="http://www.w3.org/1999/xhtml" style="display: table-cell; white-space: nowrap; line-height: 1.5; max-width: 283px; text-align: center;"><span class="nodeLabel markdown-node-label" style=""><p>-unsigned long lastBlinkTime</p></span></div></foreignObject></g><g class="label" style="" transform="translate(0,60)"><foreignObject width="223.5625" height="24"><div xmlns="http://www.w3.org/1999/xhtml" style="display: table-cell; white-space: nowrap; line-height: 1.5; max-width: 275px; text-align: center;"><span class="nodeLabel markdown-node-label" style=""><p>-unsigned long blinkInterval</p></span></div></foreignObject></g><g class="label" style="" transform="translate(0,84)"><foreignObject width="125.84375" height="24"><div xmlns="http://www.w3.org/1999/xhtml" style="display: table-cell; white-space: nowrap; line-height: 1.5; max-width: 179px; text-align: center;"><span class="nodeLabel markdown-node-label" style=""><p>-bool blinkState</p></span></div></foreignObject></g><g class="label" style="" transform="translate(0,108)"><foreignObject width="130.453125" height="24"><div xmlns="http://www.w3.org/1999/xhtml" style="display: table-cell; white-space: nowrap; line-height: 1.5; max-width: 184px; text-align: center;"><span class="nodeLabel markdown-node-label" style=""><p>-bool activeHigh</p></span></div></foreignObject></g></g><g class="methods-group text" transform="translate(-131.9296875, 36)"><g class="label" style="" transform="translate(0,-12)"><foreignObject width="45.828125" height="24"><div xmlns="http://www.w3.org/1999/xhtml" style="display: table-cell; white-space: nowrap; line-height: 1.5; max-width: 100px; text-align: center;"><span class="nodeLabel markdown-node-label" style=""><p>+on()</p></span></div></foreignObject></g><g class="label" style="" transform="translate(0,12)"><foreignObject width="46.703125" height="24"><div xmlns="http://www.w3.org/1999/xhtml" style="display: table-cell; white-space: nowrap; line-height: 1.5; max-width: 101px; text-align: center;"><span class="nodeLabel markdown-node-label" style=""><p>+off()</p></span></div></foreignObject></g><g class="label" style="" transform="translate(0,36)"><foreignObject width="185.578125" height="24"><div xmlns="http://www.w3.org/1999/xhtml" style="display: table-cell; white-space: nowrap; line-height: 1.5; max-width: 237px; text-align: center;"><span class="nodeLabel markdown-node-label" style=""><p>+startBlink(intervalMs)</p></span></div></foreignObject></g><g class="label" style="" transform="translate(0,60)"><foreignObject width="99.71875" height="24"><div xmlns="http://www.w3.org/1999/xhtml" style="display: table-cell; white-space: nowrap; line-height: 1.5; max-width: 152px; text-align: center;"><span class="nodeLabel markdown-node-label" style=""><p>+stopBlink()</p></span></div></foreignObject></g><g class="label" style="" transform="translate(0,84)"><foreignObject width="82.265625" height="24"><div xmlns="http://www.w3.org/1999/xhtml" style="display: table-cell; white-space: nowrap; line-height: 1.5; max-width: 136px; text-align: center;"><span class="nodeLabel markdown-node-label" style=""><p>+update()</p></span></div></foreignObject></g><g class="label" style="" transform="translate(0,108)"><foreignObject width="102.6875" height="24"><div xmlns="http://www.w3.org/1999/xhtml" style="display: table-cell; white-space: nowrap; line-height: 1.5; max-width: 154px; text-align: center;"><span class="nodeLabel markdown-node-label" style=""><p>+isBlinking()</p></span></div></foreignObject></g><g class="label" style="" transform="translate(0,132)"><foreignObject width="247.609375" height="24"><div xmlns="http://www.w3.org/1999/xhtml" style="display: table-cell; white-space: nowrap; line-height: 1.5; max-width: 303px; text-align: center;"><span class="nodeLabel markdown-node-label" style=""><p>+handle(Command command)</p></span></div></foreignObject></g></g><g class="divider" style=""><path d="M-143.9296875 -156 C-81.64203372951434 -155.99978361776903, -19.35437995902869 -155.99956723553805, 143.9296875 -155.999 M-143.9296875 -156 C-65.27588250737708 -155.99972676309397, 13.377922485245847 -155.99945352618798, 143.9296875 -155.999" stroke="#9370DB" stroke-width="1.3" fill="none" stroke-dasharray="0 0" style=""/></g><g class="divider" style=""><path d="M-143.9296875 12 C-85.7778048278449 12.000202014899365, -27.62592215568982 12.000404029798732, 143.9296875 12.001 M-143.9296875 12 C-51.58911547785242 12.000320783618815, 40.751456544295166 12.00064156723763, 143.9296875 12.001" stroke="#9370DB" stroke-width="1.3" fill="none" stroke-dasharray="0 0" style=""/></g></g><g class="node default" id="my-svg-classId-IncidentHttpClient-1" data-look="classic" transform="translate(680.421875, 144)"><g class="basic label-container outer-path"><path d="M-185.046875 -108 L185.046875 -108 L185.046875 108 L-185.046875 108" stroke="none" stroke-width="0" fill="#ECECFF" style=""/><path d="M-185.046875 -108 C-75.14976083981017 -108, 34.74735332037966 -108, 185.046875 -108 M-185.046875 -108 C-56.74148916884158 -108, 71.56389666231684 -108, 185.046875 -108 M185.046875 -108 C185.046875 -52.51804687251141, 185.046875 2.963906254977175, 185.046875 108 M185.046875 -108 C185.046875 -57.36472911855114, 185.046875 -6.729458237102278, 185.046875 108 M185.046875 108 C39.44210017352145 108, -106.1626746529571 108, -185.046875 108 M185.046875 108 C59.31337282742513 108, -66.42012934514975 108, -185.046875 108 M-185.046875 108 C-185.046875 33.894255789979155, -185.046875 -40.21148842004169, -185.046875 -108 M-185.046875 108 C-185.046875 52.43209062079636, -185.046875 -3.1358187584072823, -185.046875 -108" stroke="#9370DB" stroke-width="1.3" fill="none" stroke-dasharray="0 0" style=""/></g><g class="annotation-group text" transform="translate(0, -84)"/><g class="label-group text" transform="translate(-83.203125, -84)"><g class="label" style="font-weight: bolder" transform="translate(0,-12)"><foreignObject width="166.40625" height="24"><div xmlns="http://www.w3.org/1999/xhtml" style="display: table-cell; white-space: nowrap; line-height: 1.5; max-width: 193px; text-align: center;"><span class="nodeLabel markdown-node-label" style=""><p>IncidentHttpClient</p></span></div></foreignObject></g></g><g class="members-group text" transform="translate(-173.046875, -36)"><g class="label" style="" transform="translate(0,-12)"><foreignObject width="177.296875" height="24"><div xmlns="http://www.w3.org/1999/xhtml" style="display: table-cell; white-space: nowrap; line-height: 1.5; max-width: 230px; text-align: center;"><span class="nodeLabel markdown-node-label" style=""><p>-HTTPClient httpClient</p></span></div></foreignObject></g></g><g class="methods-group text" transform="translate(-173.046875, 12)"><g class="label" style="" transform="translate(0,-12)"><foreignObject width="210.140625" height="24"><div xmlns="http://www.w3.org/1999/xhtml" style="display: table-cell; white-space: nowrap; line-height: 1.5; max-width: 262px; text-align: center;"><span class="nodeLabel markdown-node-label" style=""><p>+getPendingIncidents(url)</p></span></div></foreignObject></g><g class="label" style="" transform="translate(0,12)"><foreignObject width="262.890625" height="24"><div xmlns="http://www.w3.org/1999/xhtml" style="display: table-cell; white-space: nowrap; line-height: 1.5; max-width: 314px; text-align: center;"><span class="nodeLabel markdown-node-label" style=""><p>+sendAck(url, incidentId, status)</p></span></div></foreignObject></g><g class="label" style="" transform="translate(0,36)"><foreignObject width="160.109375" height="24"><div xmlns="http://www.w3.org/1999/xhtml" style="display: table-cell; white-space: nowrap; line-height: 1.5; max-width: 214px; text-align: center;"><span class="nodeLabel markdown-node-label" style=""><p>+addAuthHeaders()</p></span></div></foreignObject></g><g class="label" style="" transform="translate(0,60)"><foreignObject width="139.625" height="24"><div xmlns="http://www.w3.org/1999/xhtml" style="display: table-cell; white-space: nowrap; line-height: 1.5; max-width: 194px; text-align: center;"><span class="nodeLabel markdown-node-label" style=""><p>+setTimeout(ms)</p></span></div></foreignObject></g></g><g class="divider" style=""><path d="M-185.046875 -60 C-99.29645294388831 -59.99976830081012, -13.546030887776624 -59.999536601620235, 185.046875 -59.999 M-185.046875 -60 C-106.49577045546847 -59.99978775349612, -27.944665910936948 -59.999575506992244, 185.046875 -59.999" stroke="#9370DB" stroke-width="1.3" fill="none" stroke-dasharray="0 0" style=""/></g><g class="divider" style=""><path d="M-185.046875 -12 C-69.89103451014279 -11.99968884683816, 45.264805979714424 -11.999377693676319, 185.046875 -11.999 M-185.046875 -12 C-55.25453286282925 -11.999649298746231, 74.5378092743415 -11.999298597492462, 185.046875 -11.999" stroke="#9370DB" stroke-width="1.3" fill="none" stroke-dasharray="0 0" style=""/></g></g><g class="node default" id="my-svg-classId-IncidentAckQueue-2" data-look="classic" transform="translate(1065.765625, 144)"><g class="basic label-container outer-path"><path d="M-150.296875 -111 L150.296875 -111 L150.296875 111 L-150.296875 111" stroke="none" stroke-width="0" fill="#ECECFF" style=""/><path d="M-150.296875 -111 C-67.33666373233912 -111, 15.623547535321762 -111, 150.296875 -111 M-150.296875 -111 C-30.23613797783395 -111, 89.8245990443321 -111, 150.296875 -111 M150.296875 -111 C150.296875 -42.77690961478655, 150.296875 25.446180770426906, 150.296875 111 M150.296875 -111 C150.296875 -40.194493740223294, 150.296875 30.611012519553412, 150.296875 111 M150.296875 111 C51.468965656744686 111, -47.35894368651063 111, -150.296875 111 M150.296875 111 C51.55067437161138 111, -47.19552625677724 111, -150.296875 111 M-150.296875 111 C-150.296875 61.53162962682641, -150.296875 12.063259253652816, -150.296875 -111 M-150.296875 111 C-150.296875 64.36352093793073, -150.296875 17.727041875861445, -150.296875 -111" stroke="#9370DB" stroke-width="1.3" fill="none" stroke-dasharray="0 0" style=""/></g><g class="annotation-group text" transform="translate(0, -87)"/><g class="label-group text" transform="translate(-82.125, -87)"><g class="label" style="font-weight: bolder" transform="translate(0,-12)"><foreignObject width="164.25" height="24"><div xmlns="http://www.w3.org/1999/xhtml" style="display: table-cell; white-space: nowrap; line-height: 1.5; max-width: 196px; text-align: center;"><span class="nodeLabel markdown-node-label" style=""><p>IncidentAckQueue</p></span></div></foreignObject></g></g><g class="members-group text" transform="translate(-138.296875, -39)"/><g class="methods-group text" transform="translate(-138.296875, -9)"><g class="label" style="" transform="translate(0,-12)"><foreignObject width="194.46875" height="24"><div xmlns="http://www.w3.org/1999/xhtml" style="display: table-cell; white-space: nowrap; line-height: 1.5; max-width: 246px; text-align: center;"><span class="nodeLabel markdown-node-label" style=""><p>+add(incidentId, status)</p></span></div></foreignObject></g><g class="label" style="" transform="translate(0,12)"><foreignObject width="165.765625" height="24"><div xmlns="http://www.w3.org/1999/xhtml" style="display: table-cell; white-space: nowrap; line-height: 1.5; max-width: 220px; text-align: center;"><span class="nodeLabel markdown-node-label" style=""><p>+remove(incidentId)</p></span></div></foreignObject></g><g class="label" style="" transform="translate(0,36)"><foreignObject width="89.4375" height="24"><div xmlns="http://www.w3.org/1999/xhtml" style="display: table-cell; white-space: nowrap; line-height: 1.5; max-width: 143px; text-align: center;"><span class="nodeLabel markdown-node-label" style=""><p>+getNext()</p></span></div></foreignObject></g><g class="label" style="" transform="translate(0,60)"><foreignObject width="56.921875" height="24"><div xmlns="http://www.w3.org/1999/xhtml" style="display: table-cell; white-space: nowrap; line-height: 1.5; max-width: 110px; text-align: center;"><span class="nodeLabel markdown-node-label" style=""><p>+size()</p></span></div></foreignObject></g><g class="label" style="" transform="translate(0,84)"><foreignObject width="90.265625" height="24"><div xmlns="http://www.w3.org/1999/xhtml" style="display: table-cell; white-space: nowrap; line-height: 1.5; max-width: 143px; text-align: center;"><span class="nodeLabel markdown-node-label" style=""><p>+isEmpty()</p></span></div></foreignObject></g></g><g class="divider" style=""><path d="M-150.296875 -63 C-39.63189747816085 -62.99963184538095, 71.0330800436783 -62.99926369076189, 150.296875 -62.999 M-150.296875 -63 C-48.6970398144521 -62.999662002835436, 52.902795371095806 -62.99932400567087, 150.296875 -62.999" stroke="#9370DB" stroke-width="1.3" fill="none" stroke-dasharray="0 0" style=""/></g><g class="divider" style=""><path d="M-150.296875 -39 C-81.2812255132676 -38.999770402247265, -12.2655760265352 -38.99954080449453, 150.296875 -38.999 M-150.296875 -39 C-43.18044281692049 -38.999643650501106, 63.93598936615902 -38.99928730100221, 150.296875 -38.999" stroke="#9370DB" stroke-width="1.3" fill="none" stroke-dasharray="0 0" style=""/></g></g><g class="node default" id="my-svg-classId-LedController-3" data-look="classic" transform="translate(244.1875, 144)"><g class="basic label-container outer-path"><path d="M-201.1875 -75 L201.1875 -75 L201.1875 75 L-201.1875 75" stroke="none" stroke-width="0" fill="#ECECFF" style=""/><path d="M-201.1875 -75 C-102.88427990387117 -75, -4.581059807742349 -75, 201.1875 -75 M-201.1875 -75 C-64.74851616997572 -75, 71.69046766004857 -75, 201.1875 -75 M201.1875 -75 C201.1875 -29.022390980359937, 201.1875 16.955218039280126, 201.1875 75 M201.1875 -75 C201.1875 -32.328047939082055, 201.1875 10.343904121835891, 201.1875 75 M201.1875 75 C98.21955377600837 75, -4.748392447983264 75, -201.1875 75 M201.1875 75 C102.39734620079797 75, 3.6071924015959382 75, -201.1875 75 M-201.1875 75 C-201.1875 17.053109910124036, -201.1875 -40.89378017975193, -201.1875 -75 M-201.1875 75 C-201.1875 25.854432910798337, -201.1875 -23.291134178403325, -201.1875 -75" stroke="#9370DB" stroke-width="1.3" fill="none" stroke-dasharray="0 0" style=""/></g><g class="annotation-group text" transform="translate(-53.8828125, -51)"><g class="label" style="" transform="translate(0,-12)"><foreignObject width="107.765625" height="24"><div xmlns="http://www.w3.org/1999/xhtml" style="display: table-cell; white-space: nowrap; line-height: 1.5; max-width: 158px; text-align: center;"><span class="nodeLabel markdown-node-label" style=""><p>«conceptual»</p></span></div></foreignObject></g></g><g class="label-group text" transform="translate(-61.4375, -27)"><g class="label" style="font-weight: bolder" transform="translate(0,-12)"><foreignObject width="122.875" height="24"><div xmlns="http://www.w3.org/1999/xhtml" style="display: table-cell; white-space: nowrap; line-height: 1.5; max-width: 158px; text-align: center;"><span class="nodeLabel markdown-node-label" style=""><p>LedController</p></span></div></foreignObject></g></g><g class="members-group text" transform="translate(-189.1875, 21)"/><g class="methods-group text" transform="translate(-189.1875, 51)"><g class="label" style="" transform="translate(0,-12)"><foreignObject width="316.9375" height="24"><div xmlns="http://www.w3.org/1999/xhtml" style="display: table-cell; white-space: nowrap; line-height: 1.5; max-width: 369px; text-align: center;"><span class="nodeLabel markdown-node-label" style=""><p>+controlByIncident(hasActiveIncidents)</p></span></div></foreignObject></g></g><g class="divider" style=""><path d="M-201.1875 -3 C-100.42546413401621 -2.999749581768584, 0.33657173196758094 -2.9994991635371684, 201.1875 -2.999 M-201.1875 -3 C-118.59592335698906 -2.999794739790884, -36.00434671397812 -2.9995894795817684, 201.1875 -2.999" stroke="#9370DB" stroke-width="1.3" fill="none" stroke-dasharray="0 0" style=""/></g><g class="divider" style=""><path d="M-201.1875 21 C-88.96127574848073 21.000278909535265, 23.26494850303854 21.000557819070526, 201.1875 21.001 M-201.1875 21 C-46.44061896360287 21.000384583736654, 108.30626207279425 21.00076916747331, 201.1875 21.001" stroke="#9370DB" stroke-width="1.3" fill="none" stroke-dasharray="0 0" style=""/></g></g><g class="node default" id="my-svg-classId-IncidentManager-4" data-look="classic" transform="translate(1374.4453125, 533)"><g class="basic label-container outer-path"><path d="M-88.3828125 -42 L88.3828125 -42 L88.3828125 42 L-88.3828125 42" stroke="none" stroke-width="0" fill="#ECECFF" style=""/><path d="M-88.3828125 -42 C-19.31176496916092 -42, 49.75928256167816 -42, 88.3828125 -42 M-88.3828125 -42 C-38.340467264349705 -42, 11.70187797130059 -42, 88.3828125 -42 M88.3828125 -42 C88.3828125 -18.825522220039055, 88.3828125 4.34895555992189, 88.3828125 42 M88.3828125 -42 C88.3828125 -17.641327845835026, 88.3828125 6.717344308329949, 88.3828125 42 M88.3828125 42 C30.243266419271578 42, -27.896279661456845 42, -88.3828125 42 M88.3828125 42 C29.794687746810474 42, -28.79343700637905 42, -88.3828125 42 M-88.3828125 42 C-88.3828125 14.510319932508121, -88.3828125 -12.979360134983757, -88.3828125 -42 M-88.3828125 42 C-88.3828125 17.422363545018868, -88.3828125 -7.155272909962264, -88.3828125 -42" stroke="#9370DB" stroke-width="1.3" fill="none" stroke-dasharray="0 0" style=""/></g><g class="annotation-group text" transform="translate(0, -18)"/><g class="label-group text" transform="translate(-76.3828125, -18)"><g class="label" style="font-weight: bolder" transform="translate(0,-12)"><foreignObject width="152.765625" height="24"><div xmlns="http://www.w3.org/1999/xhtml" style="display: table-cell; white-space: nowrap; line-height: 1.5; max-width: 185px; text-align: center;"><span class="nodeLabel markdown-node-label" style=""><p>IncidentManager</p></span></div></foreignObject></g></g><g class="members-group text" transform="translate(-76.3828125, 30)"/><g class="methods-group text" transform="translate(-76.3828125, 60)"/><g class="divider" style=""><path d="M-88.3828125 6 C-45.50483914844992 6.000242569636215, -2.6268657968998355 6.00048513927243, 88.3828125 6.001 M-88.3828125 6 C-42.355009123111785 6.0002603888814745, 3.6727942537764307 6.000520777762949, 88.3828125 6.001" stroke="#9370DB" stroke-width="1.3" fill="none" stroke-dasharray="0 0" style=""/></g><g class="divider" style=""><path d="M-88.3828125 24 C-38.57649080101807 24.000281764747523, 11.229830897963865 24.000563529495047, 88.3828125 24.001 M-88.3828125 24 C-31.65790020045025 24.000320904657222, 25.0670120990995 24.00064180931445, 88.3828125 24.001" stroke="#9370DB" stroke-width="1.3" fill="none" stroke-dasharray="0 0" style=""/></g></g></g></g></g><defs><filter id="my-svg-drop-shadow" height="130%" width="130%"><feDropShadow dx="4" dy="4" stdDeviation="0" flood-opacity="0.06" flood-color="#000000"/></filter></defs><defs><filter id="my-svg-drop-shadow-small" height="150%" width="150%"><feDropShadow dx="2" dy="2" stdDeviation="0" flood-opacity="0.06" flood-color="#000000"/></filter></defs><text text-anchor="middle" x="735.4140625" y="-25" class="classDiagramTitleText">Alerting - Infrastructure Layer Class Diagram (Embedded)</text></svg>