<svg id="my-svg" width="100%" xmlns="http://www.w3.org/2000/svg" xmlns:xlink="http://www.w3.org/1999/xlink" class="classDiagram" style="max-width: 2963.8px; background-color: transparent;" viewBox="0 0 2963.796875 656" role="graphics-document document" aria-roledescription="class"><style>#my-svg{font-family:"trebuchet ms",verdana,arial,sans-serif;font-size:16px;fill:#333;}@keyframes edge-animation-frame{from{stroke-dashoffset:0;}}@keyframes dash{to{stroke-dashoffset:0;}}#my-svg .edge-animation-slow{stroke-dasharray:9,5!important;stroke-dashoffset:900;animation:dash 50s linear infinite;stroke-linecap:round;}#my-svg .edge-animation-fast{stroke-dasharray:9,5!important;stroke-dashoffset:900;animation:dash 20s linear infinite;stroke-linecap:round;}#my-svg .error-icon{fill:#552222;}#my-svg .error-text{fill:#552222;stroke:#552222;}#my-svg .edge-thickness-normal{stroke-width:1px;}#my-svg .edge-thickness-thick{stroke-width:3.5px;}#my-svg .edge-pattern-solid{stroke-dasharray:0;}#my-svg .edge-thickness-invisible{stroke-width:0;fill:none;}#my-svg .edge-pattern-dashed{stroke-dasharray:3;}#my-svg .edge-pattern-dotted{stroke-dasharray:2;}#my-svg .marker{fill:#333333;stroke:#333333;}#my-svg .marker.cross{stroke:#333333;}#my-svg svg{font-family:"trebuchet ms",verdana,arial,sans-serif;font-size:16px;}#my-svg p{margin:0;}#my-svg g.classGroup text{fill:#9370DB;stroke:none;font-family:"trebuchet ms",verdana,arial,sans-serif;font-size:10px;}#my-svg g.classGroup text .title{font-weight:bolder;}#my-svg .nodeLabel,#my-svg .edgeLabel{color:#131300;}#my-svg .edgeLabel .label rect{fill:#ECECFF;}#my-svg .label text{fill:#131300;}#my-svg .labelBkg{background:#ECECFF;}#my-svg .edgeLabel .label span{background:#ECECFF;}#my-svg .classTitle{font-weight:bolder;}#my-svg .node rect,#my-svg .node circle,#my-svg .node ellipse,#my-svg .node polygon,#my-svg .node path{fill:#ECECFF;stroke:#9370DB;stroke-width:1px;}#my-svg .divider{stroke:#9370DB;stroke-width:1;}#my-svg g.clickable{cursor:pointer;}#my-svg g.classGroup rect{fill:#ECECFF;stroke:#9370DB;}#my-svg g.classGroup line{stroke:#9370DB;stroke-width:1;}#my-svg .classLabel .box{stroke:none;stroke-width:0;fill:#ECECFF;opacity:0.5;}#my-svg .classLabel .label{fill:#9370DB;font-size:10px;}#my-svg .relation{stroke:#333333;stroke-width:1;fill:none;}#my-svg .dashed-line{stroke-dasharray:3;}#my-svg .dotted-line{stroke-dasharray:1 2;}#my-svg #compositionStart,#my-svg .composition{fill:#333333!important;stroke:#333333!important;stroke-width:1;}#my-svg #compositionEnd,#my-svg .composition{fill:#333333!important;stroke:#333333!important;stroke-width:1;}#my-svg #dependencyStart,#my-svg .dependency{fill:#333333!important;stroke:#333333!important;stroke-width:1;}#my-svg #dependencyStart,#my-svg .dependency{fill:#333333!important;stroke:#333333!important;stroke-width:1;}#my-svg #extensionStart,#my-svg .extension{fill:transparent!important;stroke:#333333!important;stroke-width:1;}#my-svg #extensionEnd,#my-svg .extension{fill:transparent!important;stroke:#333333!important;stroke-width:1;}#my-svg #aggregationStart,#my-svg .aggregation{fill:transparent!important;stroke:#333333!important;stroke-width:1;}#my-svg #aggregationEnd,#my-svg .aggregation{fill:transparent!important;stroke:#333333!important;stroke-width:1;}#my-svg #lollipopStart,#my-svg .lollipop{fill:#ECECFF!important;stroke:#333333!important;stroke-width:1;}#my-svg #lollipopEnd,#my-svg .lollipop{fill:#ECECFF!important;stroke:#333333!important;stroke-width:1;}#my-svg .edgeTerminals{font-size:11px;line-height:initial;}#my-svg .classTitleText{text-anchor:middle;font-size:18px;fill:#333;}#my-svg .label-icon{display:inline-block;height:1em;overflow:visible;vertical-align:-0.125em;}#my-svg .node .label-icon path{fill:currentColor;stroke:revert;stroke-width:revert;}#my-svg :root{--mermaid-font-family:"trebuchet ms",verdana,arial,sans-serif;}</style><g><defs><marker id="my-svg_class-aggregationStart" class="marker aggregation class" refX="18" refY="7" markerWidth="190" markerHeight="240" orient="auto"><path d="M 18,7 L9,13 L1,7 L9,1 Z"/></marker></defs><defs><marker id="my-svg_class-aggregationEnd" class="marker aggregation class" refX="1" refY="7" markerWidth="20" markerHeight="28" orient="auto"><path d="M 18,7 L9,13 L1,7 L9,1 Z"/></marker></defs><defs><marker id="my-svg_class-extensionStart" class="marker extension class" refX="18" refY="7" markerWidth="190" markerHeight="240" orient="auto"><path d="M 1,7 L18,13 V 1 Z"/></marker></defs><defs><marker id="my-svg_class-extensionEnd" class="marker extension class" refX="1" refY="7" markerWidth="20" markerHeight="28" orient="auto"><path d="M 1,1 V 13 L18,7 Z"/></marker></defs><defs><marker id="my-svg_class-compositionStart" class="marker composition class" refX="18" refY="7" markerWidth="190" markerHeight="240" orient="auto"><path d="M 18,7 L9,13 L1,7 L9,1 Z"/></marker></defs><defs><marker id="my-svg_class-compositionEnd" class="marker composition class" refX="1" refY="7" markerWidth="20" markerHeight="28" orient="auto"><path d="M 18,7 L9,13 L1,7 L9,1 Z"/></marker></defs><defs><marker id="my-svg_class-dependencyStart" class="marker dependency class" refX="6" refY="7" markerWidth="190" markerHeight="240" orient="auto"><path d="M 5,7 L9,13 L1,7 L9,1 Z"/></marker></defs><defs><marker id="my-svg_class-dependencyEnd" class="marker dependency class" refX="13" refY="7" markerWidth="20" markerHeight="28" orient="auto"><path d="M 18,7 L9,13 L14,7 L9,1 Z"/></marker></defs><defs><marker id="my-svg_class-lollipopStart" class="marker lollipop class" refX="13" refY="7" markerWidth="190" markerHeight="240" orient="auto"><circle stroke="black" fill="transparent" cx="7" cy="7" r="6"/></marker></defs><defs><marker id="my-svg_class-lollipopEnd" class="marker lollipop class" refX="1" refY="7" markerWidth="190" markerHeight="240" orient="auto"><circle stroke="black" fill="transparent" cx="7" cy="7" r="6"/></marker></defs><g class="root"><g class="clusters"/><g class="edgePaths"><path d="M247.016,200L247.016,210.167C247.016,220.333,247.016,240.667,247.016,256C247.016,271.333,247.016,281.667,247.016,286.833L247.016,292" id="id_NotificationsContextFacadeImpl_EmailCommandServiceImpl_1" class="edge-thickness-normal edge-pattern-solid relation" style=";;;" data-edge="true" data-et="edge" data-id="id_NotificationsContextFacadeImpl_EmailCommandServiceImpl_1" data-points="W3sieCI6MjQ3LjAxNTYyNSwieSI6MjAwfSx7IngiOjI0Ny4wMTU2MjUsInkiOjI2MX0seyJ4IjoyNDcuMDE1NjI1LCJ5IjoyOTh9XQ==" marker-end="url(#my-svg_class-dependencyEnd)"/><path d="M2093.684,221.401L2073.027,228.001C2052.37,234.601,2011.057,247.8,1990.401,263.067C1969.744,278.333,1969.744,295.667,1969.744,304.333L1969.744,313" id="id_AlertIncidentChangedKafkaConsumer_ExternalDeviceService_2" class="edge-thickness-normal edge-pattern-solid relation" style=";;;" data-edge="true" data-et="edge" data-id="id_AlertIncidentChangedKafkaConsumer_ExternalDeviceService_2" data-points="W3sieCI6MjA5My42ODM1OTM3NSwieSI6MjIxLjQwMTMzMzI1ODczNzR9LHsieCI6MTk2OS43NDQxNDA2MjUsInkiOjI2MX0seyJ4IjoxOTY5Ljc0NDE0MDYyNSwieSI6MzE5fV0=" marker-end="url(#my-svg_class-dependencyEnd)"/><path d="M2633.189,224L2645.157,230.167C2657.126,236.333,2681.063,248.667,2693.031,263.5C2705,278.333,2705,295.667,2705,304.333L2705,313" id="id_AlertIncidentChangedKafkaConsumer_ExternalAlertingService_3" class="edge-thickness-normal edge-pattern-solid relation" style=";;;" data-edge="true" data-et="edge" data-id="id_AlertIncidentChangedKafkaConsumer_ExternalAlertingService_3" data-points="W3sieCI6MjYzMy4xODg5MDA4NjIwNjksInkiOjIyNH0seyJ4IjoyNzA1LCJ5IjoyNjF9LHsieCI6MjcwNSwieSI6MzE5fV0=" marker-end="url(#my-svg_class-dependencyEnd)"/><path d="M866.035,466L866.035,476.167C866.035,486.333,866.035,506.667,866.035,522C866.035,537.333,866.035,547.667,866.035,552.833L866.035,558" id="id_PushNotificationHistoryQueryServiceImpl_PushNotificationHistoryRepository_4" class="edge-thickness-normal edge-pattern-solid relation" style=";;;" data-edge="true" data-et="edge" data-id="id_PushNotificationHistoryQueryServiceImpl_PushNotificationHistoryRepository_4" data-points="W3sieCI6ODY2LjAzNTE1NjI1LCJ5Ijo0NjZ9LHsieCI6ODY2LjAzNTE1NjI1LCJ5Ijo1Mjd9LHsieCI6ODY2LjAzNTE1NjI1LCJ5Ijo1NjR9XQ==" marker-end="url(#my-svg_class-dependencyEnd)"/><path d="M866.035,158L866.035,175.167C866.035,192.333,866.035,226.667,866.035,253C866.035,279.333,866.035,297.667,866.035,306.833L866.035,316" id="id_NotificationController_PushNotificationHistoryQueryServiceImpl_5" class="edge-thickness-normal edge-pattern-solid relation" style=";;;" data-edge="true" data-et="edge" data-id="id_NotificationController_PushNotificationHistoryQueryServiceImpl_5" data-points="W3sieCI6ODY2LjAzNTE1NjI1LCJ5IjoxNTh9LHsieCI6ODY2LjAzNTE1NjI1LCJ5IjoyNjF9LHsieCI6ODY2LjAzNTE1NjI1LCJ5IjozMjJ9XQ==" marker-end="url(#my-svg_class-dependencyEnd)"/></g><g class="edgeLabels"><g class="edgeLabel" transform="translate(247.015625, 261)"><g class="label" data-id="id_NotificationsContextFacadeImpl_EmailCommandServiceImpl_1" transform="translate(-15.2109375, -12)"><foreignObject width="30.421875" height="24"><div xmlns="http://www.w3.org/1999/xhtml" class="labelBkg" style="display: table-cell; white-space: nowrap; line-height: 1.5; max-width: 200px; text-align: center;"><span class="edgeLabel"><p>uses</p></span></div></foreignObject></g></g><g class="edgeLabel" transform="translate(1969.744140625, 261)"><g class="label" data-id="id_AlertIncidentChangedKafkaConsumer_ExternalDeviceService_2" transform="translate(-15.2109375, -12)"><foreignObject width="30.421875" height="24"><div xmlns="http://www.w3.org/1999/xhtml" class="labelBkg" style="display: table-cell; white-space: nowrap; line-height: 1.5; max-width: 200px; text-align: center;"><span class="edgeLabel"><p>uses</p></span></div></foreignObject></g></g><g class="edgeLabel" transform="translate(2705, 261)"><g class="label" data-id="id_AlertIncidentChangedKafkaConsumer_ExternalAlertingService_3" transform="translate(-15.2109375, -12)"><foreignObject width="30.421875" height="24"><div xmlns="http://www.w3.org/1999/xhtml" class="labelBkg" style="display: table-cell; white-space: nowrap; line-height: 1.5; max-width: 200px; text-align: center;"><span class="edgeLabel"><p>uses</p></span></div></foreignObject></g></g><g class="edgeLabel" transform="translate(866.03515625, 527)"><g class="label" data-id="id_PushNotificationHistoryQueryServiceImpl_PushNotificationHistoryRepository_4" transform="translate(-15.2109375, -12)"><foreignObject width="30.421875" height="24"><div xmlns="http://www.w3.org/1999/xhtml" class="labelBkg" style="display: table-cell; white-space: nowrap; line-height: 1.5; max-width: 200px; text-align: center;"><span class="edgeLabel"><p>uses</p></span></div></foreignObject></g></g><g class="edgeLabel" transform="translate(866.03515625, 261)"><g class="label" data-id="id_NotificationController_PushNotificationHistoryQueryServiceImpl_5" transform="translate(-15.2109375, -12)"><foreignObject width="30.421875" height="24"><div xmlns="http://www.w3.org/1999/xhtml" class="labelBkg" style="display: table-cell; white-space: nowrap; line-height: 1.5; max-width: 200px; text-align: center;"><span class="edgeLabel"><p>uses</p></span></div></foreignObject></g></g></g><g class="nodes"><g class="node default" id="classId-EmailCommandServiceImpl-0" transform="translate(247.015625, 394)"><g class="basic label-container"><path d="M-231.19140625 -96 L231.19140625 -96 L231.19140625 96 L-231.19140625 96" stroke="none" stroke-width="0" fill="#ECECFF" style=""/><path d="M-231.19140625 -96 C-114.00540285974492 -96, 3.180600530510162 -96, 231.19140625 -96 M-231.19140625 -96 C-51.105853759006834 -96, 128.97969873198633 -96, 231.19140625 -96 M231.19140625 -96 C231.19140625 -50.23072189659421, 231.19140625 -4.4614437931884225, 231.19140625 96 M231.19140625 -96 C231.19140625 -20.479899028580007, 231.19140625 55.040201942839985, 231.19140625 96 M231.19140625 96 C59.84562933255876 96, -111.50014758488248 96, -231.19140625 96 M231.19140625 96 C66.51197802084388 96, -98.16745020831223 96, -231.19140625 96 M-231.19140625 96 C-231.19140625 38.917405854445704, -231.19140625 -18.165188291108592, -231.19140625 -96 M-231.19140625 96 C-231.19140625 25.621229848702896, -231.19140625 -44.75754030259421, -231.19140625 -96" stroke="#9370DB" stroke-width="1.3" fill="none" stroke-dasharray="0 0" style=""/></g><g class="annotation-group text" transform="translate(0, -72)"/><g class="label-group text" transform="translate(-101.0078125, -72)"><g class="label" style="font-weight: bolder" transform="translate(0,-12)"><foreignObject width="202.015625" height="24"><div xmlns="http://www.w3.org/1999/xhtml" style="display: table-cell; white-space: nowrap; line-height: 1.5; max-width: 234px; text-align: center;"><span class="nodeLabel markdown-node-label" style=""><p>EmailCommandServiceImpl</p></span></div></foreignObject></g></g><g class="members-group text" transform="translate(-219.19140625, -24)"><g class="label" style="" transform="translate(0,-12)"><foreignObject width="310.296875" height="24"><div xmlns="http://www.w3.org/1999/xhtml" style="display: table-cell; white-space: nowrap; line-height: 1.5; max-width: 345px; text-align: center;"><span class="nodeLabel markdown-node-label" style=""><p>-EmailDeliveryService emailDeliveryService</p></span></div></foreignObject></g><g class="label" style="" transform="translate(0,12)"><foreignObject width="301.5625" height="24"><div xmlns="http://www.w3.org/1999/xhtml" style="display: table-cell; white-space: nowrap; line-height: 1.5; max-width: 333px; text-align: center;"><span class="nodeLabel markdown-node-label" style=""><p>-EmailLogPersistence emailLogPersistence</p></span></div></foreignObject></g></g><g class="methods-group text" transform="translate(-219.19140625, 48)"><g class="label" style="" transform="translate(0,-12)"><foreignObject width="337.375" height="24"><div xmlns="http://www.w3.org/1999/xhtml" style="display: table-cell; white-space: nowrap; line-height: 1.5; max-width: 367px; text-align: center;"><span class="nodeLabel markdown-node-label" style=""><p>+handle(SendVerificationCodeCommand) : void</p></span></div></foreignObject></g><g class="label" style="" transform="translate(0,12)"><foreignObject width="323.0625" height="24"><div xmlns="http://www.w3.org/1999/xhtml" style="display: table-cell; white-space: nowrap; line-height: 1.5; max-width: 356px; text-align: center;"><span class="nodeLabel markdown-node-label" style=""><p>+handle(SendWelcomeEmailCommand) : void</p></span></div></foreignObject></g></g><g class="divider" style=""><path d="M-231.19140625 -48 C-83.36096253349433 -48, 64.46948118301134 -48, 231.19140625 -48 M-231.19140625 -48 C-54.76671845081867 -48, 121.65796934836266 -48, 231.19140625 -48" stroke="#9370DB" stroke-width="1.3" fill="none" stroke-dasharray="0 0" style=""/></g><g class="divider" style=""><path d="M-231.19140625 24 C-79.4649310435164 24, 72.2615441629672 24, 231.19140625 24 M-231.19140625 24 C-92.90263431380555 24, 45.3861376223889 24, 231.19140625 24" stroke="#9370DB" stroke-width="1.3" fill="none" stroke-dasharray="0 0" style=""/></g></g><g class="node default" id="classId-NotificationsContextFacadeImpl-1" transform="translate(247.015625, 116)"><g class="basic label-container"><path d="M-239.015625 -84 L239.015625 -84 L239.015625 84 L-239.015625 84" stroke="none" stroke-width="0" fill="#ECECFF" style=""/><path d="M-239.015625 -84 C-93.46183786436038 -84, 52.09194927127925 -84, 239.015625 -84 M-239.015625 -84 C-116.28186073892199 -84, 6.451903522156016 -84, 239.015625 -84 M239.015625 -84 C239.015625 -38.00472521157773, 239.015625 7.990549576844543, 239.015625 84 M239.015625 -84 C239.015625 -41.5039593837799, 239.015625 0.9920812324401993, 239.015625 84 M239.015625 84 C101.03490991529523 84, -36.94580516940954 84, -239.015625 84 M239.015625 84 C141.71724029014166 84, 44.41885558028329 84, -239.015625 84 M-239.015625 84 C-239.015625 47.07311598361912, -239.015625 10.146231967238236, -239.015625 -84 M-239.015625 84 C-239.015625 43.0392077042538, -239.015625 2.0784154085075954, -239.015625 -84" stroke="#9370DB" stroke-width="1.3" fill="none" stroke-dasharray="0 0" style=""/></g><g class="annotation-group text" transform="translate(0, -60)"/><g class="label-group text" transform="translate(-119.15625, -60)"><g class="label" style="font-weight: bolder" transform="translate(0,-12)"><foreignObject width="238.3125" height="24"><div xmlns="http://www.w3.org/1999/xhtml" style="display: table-cell; white-space: nowrap; line-height: 1.5; max-width: 261px; text-align: center;"><span class="nodeLabel markdown-node-label" style=""><p>NotificationsContextFacadeImpl</p></span></div></foreignObject></g></g><g class="members-group text" transform="translate(-227.015625, -12)"><g class="label" style="" transform="translate(0,-12)"><foreignObject width="334.875" height="24"><div xmlns="http://www.w3.org/1999/xhtml" style="display: table-cell; white-space: nowrap; line-height: 1.5; max-width: 367px; text-align: center;"><span class="nodeLabel markdown-node-label" style=""><p>-EmailCommandService emailCommandService</p></span></div></foreignObject></g></g><g class="methods-group text" transform="translate(-227.015625, 36)"><g class="label" style="" transform="translate(0,-12)"><foreignObject width="297.671875" height="24"><div xmlns="http://www.w3.org/1999/xhtml" style="display: table-cell; white-space: nowrap; line-height: 1.5; max-width: 332px; text-align: center;"><span class="nodeLabel markdown-node-label" style=""><p>+sendWelcomeEmail(emailAddress) : void</p></span></div></foreignObject></g><g class="label" style="" transform="translate(0,12)"><foreignObject width="301.671875" height="24"><div xmlns="http://www.w3.org/1999/xhtml" style="display: table-cell; white-space: nowrap; line-height: 1.5; max-width: 328px; text-align: center;"><span class="nodeLabel markdown-node-label" style=""><p>+sendVerificationCode(email, code) : void</p></span></div></foreignObject></g></g><g class="divider" style=""><path d="M-239.015625 -36 C-114.20736542601774 -36, 10.60089414796451 -36, 239.015625 -36 M-239.015625 -36 C-55.11535745421722 -36, 128.78491009156556 -36, 239.015625 -36" stroke="#9370DB" stroke-width="1.3" fill="none" stroke-dasharray="0 0" style=""/></g><g class="divider" style=""><path d="M-239.015625 12 C-81.06861528504518 12, 76.87839442990963 12, 239.015625 12 M-239.015625 12 C-50.91208819791791 12, 137.19144860416418 12, 239.015625 12" stroke="#9370DB" stroke-width="1.3" fill="none" stroke-dasharray="0 0" style=""/></g></g><g class="node default" id="classId-PushNotificationHistoryQueryServiceImpl-2" transform="translate(866.03515625, 394)"><g class="basic label-container"><path d="M-337.828125 -72 L337.828125 -72 L337.828125 72 L-337.828125 72" stroke="none" stroke-width="0" fill="#ECECFF" style=""/><path d="M-337.828125 -72 C-84.91834900447608 -72, 167.99142699104783 -72, 337.828125 -72 M-337.828125 -72 C-120.79260168356174 -72, 96.24292163287652 -72, 337.828125 -72 M337.828125 -72 C337.828125 -41.49358299103018, 337.828125 -10.987165982060354, 337.828125 72 M337.828125 -72 C337.828125 -16.47101635574157, 337.828125 39.05796728851686, 337.828125 72 M337.828125 72 C193.46805531386678 72, 49.10798562773357 72, -337.828125 72 M337.828125 72 C142.3428841713751 72, -53.14235665724982 72, -337.828125 72 M-337.828125 72 C-337.828125 41.52597864241579, -337.828125 11.051957284831573, -337.828125 -72 M-337.828125 72 C-337.828125 26.96326234320925, -337.828125 -18.073475313581497, -337.828125 -72" stroke="#9370DB" stroke-width="1.3" fill="none" stroke-dasharray="0 0" style=""/></g><g class="annotation-group text" transform="translate(0, -48)"/><g class="label-group text" transform="translate(-154.6875, -48)"><g class="label" style="font-weight: bolder" transform="translate(0,-12)"><foreignObject width="309.375" height="24"><div xmlns="http://www.w3.org/1999/xhtml" style="display: table-cell; white-space: nowrap; line-height: 1.5; max-width: 325px; text-align: center;"><span class="nodeLabel markdown-node-label" style=""><p>PushNotificationHistoryQueryServiceImpl</p></span></div></foreignObject></g></g><g class="members-group text" transform="translate(-325.828125, 0)"><g class="label" style="" transform="translate(0,-12)"><foreignObject width="496.96875" height="24"><div xmlns="http://www.w3.org/1999/xhtml" style="display: table-cell; white-space: nowrap; line-height: 1.5; max-width: 516px; text-align: center;"><span class="nodeLabel markdown-node-label" style=""><p>-PushNotificationHistoryRepository pushNotificationHistoryRepository</p></span></div></foreignObject></g></g><g class="methods-group text" transform="translate(-325.828125, 48)"><g class="label" style="" transform="translate(0,-12)"><foreignObject width="353.703125" height="24"><div xmlns="http://www.w3.org/1999/xhtml" style="display: table-cell; white-space: nowrap; line-height: 1.5; max-width: 380px; text-align: center;"><span class="nodeLabel markdown-node-label" style=""><p>+handle(GetPushNotificationHistoryQuery) : Page</p></span></div></foreignObject></g></g><g class="divider" style=""><path d="M-337.828125 -24 C-190.47440834931066 -24, -43.12069169862133 -24, 337.828125 -24 M-337.828125 -24 C-125.4851401479319 -24, 86.8578447041362 -24, 337.828125 -24" stroke="#9370DB" stroke-width="1.3" fill="none" stroke-dasharray="0 0" style=""/></g><g class="divider" style=""><path d="M-337.828125 24 C-187.52792381844657 24, -37.227722636893134 24, 337.828125 24 M-337.828125 24 C-160.4967180999878 24, 16.834688800024423 24, 337.828125 24" stroke="#9370DB" stroke-width="1.3" fill="none" stroke-dasharray="0 0" style=""/></g></g><g class="node default" id="classId-AlertIncidentChangedKafkaConsumer-3" transform="translate(2423.578125, 116)"><g class="basic label-container"><path d="M-329.89453125 -108 L329.89453125 -108 L329.89453125 108 L-329.89453125 108" stroke="none" stroke-width="0" fill="#ECECFF" style=""/><path d="M-329.89453125 -108 C-105.20209167112222 -108, 119.49034790775556 -108, 329.89453125 -108 M-329.89453125 -108 C-147.7761030592028 -108, 34.34232513159441 -108, 329.89453125 -108 M329.89453125 -108 C329.89453125 -34.608821161798645, 329.89453125 38.78235767640271, 329.89453125 108 M329.89453125 -108 C329.89453125 -47.077678487510774, 329.89453125 13.844643024978453, 329.89453125 108 M329.89453125 108 C155.50685124545433 108, -18.880828759091344 108, -329.89453125 108 M329.89453125 108 C125.4611218643957 108, -78.97228752120861 108, -329.89453125 108 M-329.89453125 108 C-329.89453125 30.188297200959823, -329.89453125 -47.62340559808035, -329.89453125 -108 M-329.89453125 108 C-329.89453125 40.86403760885595, -329.89453125 -26.271924782288096, -329.89453125 -108" stroke="#9370DB" stroke-width="1.3" fill="none" stroke-dasharray="0 0" style=""/></g><g class="annotation-group text" transform="translate(0, -84)"/><g class="label-group text" transform="translate(-138.8203125, -84)"><g class="label" style="font-weight: bolder" transform="translate(0,-12)"><foreignObject width="277.640625" height="24"><div xmlns="http://www.w3.org/1999/xhtml" style="display: table-cell; white-space: nowrap; line-height: 1.5; max-width: 298px; text-align: center;"><span class="nodeLabel markdown-node-label" style=""><p>AlertIncidentChangedKafkaConsumer</p></span></div></foreignObject></g></g><g class="members-group text" transform="translate(-317.89453125, -36)"><g class="label" style="" transform="translate(0,-12)"><foreignObject width="466.296875" height="24"><div xmlns="http://www.w3.org/1999/xhtml" style="display: table-cell; white-space: nowrap; line-height: 1.5; max-width: 488px; text-align: center;"><span class="nodeLabel markdown-node-label" style=""><p>-PushNotificationDeliveryService pushNotificationDeliveryService</p></span></div></foreignObject></g><g class="label" style="" transform="translate(0,12)"><foreignObject width="496.96875" height="24"><div xmlns="http://www.w3.org/1999/xhtml" style="display: table-cell; white-space: nowrap; line-height: 1.5; max-width: 516px; text-align: center;"><span class="nodeLabel markdown-node-label" style=""><p>-PushNotificationHistoryRepository pushNotificationHistoryRepository</p></span></div></foreignObject></g><g class="label" style="" transform="translate(0,36)"><foreignObject width="328.890625" height="24"><div xmlns="http://www.w3.org/1999/xhtml" style="display: table-cell; white-space: nowrap; line-height: 1.5; max-width: 356px; text-align: center;"><span class="nodeLabel markdown-node-label" style=""><p>-ExternalDeviceService externalDeviceService</p></span></div></foreignObject></g><g class="label" style="" transform="translate(0,60)"><foreignObject width="347.28125" height="24"><div xmlns="http://www.w3.org/1999/xhtml" style="display: table-cell; white-space: nowrap; line-height: 1.5; max-width: 372px; text-align: center;"><span class="nodeLabel markdown-node-label" style=""><p>-ExternalAlertingService externalAlertingService</p></span></div></foreignObject></g></g><g class="methods-group text" transform="translate(-317.89453125, 84)"><g class="label" style="" transform="translate(0,-12)"><foreignObject width="174.625" height="24"><div xmlns="http://www.w3.org/1999/xhtml" style="display: table-cell; white-space: nowrap; line-height: 1.5; max-width: 214px; text-align: center;"><span class="nodeLabel markdown-node-label" style=""><p>+consume(record) : void</p></span></div></foreignObject></g></g><g class="divider" style=""><path d="M-329.89453125 -60 C-104.20631830155546 -60, 121.48189464688909 -60, 329.89453125 -60 M-329.89453125 -60 C-149.09108959512545 -60, 31.712352059749094 -60, 329.89453125 -60" stroke="#9370DB" stroke-width="1.3" fill="none" stroke-dasharray="0 0" style=""/></g><g class="divider" style=""><path d="M-329.89453125 60 C-192.56447779906873 60, -55.23442434813745 60, 329.89453125 60 M-329.89453125 60 C-138.4245427127788 60, 53.045445824442425 60, 329.89453125 60" stroke="#9370DB" stroke-width="1.3" fill="none" stroke-dasharray="0 0" style=""/></g></g><g class="node default" id="classId-ExternalDeviceService-4" transform="translate(1969.744140625, 394)"><g class="basic label-container"><path d="M-262.046875 -75 L262.046875 -75 L262.046875 75 L-262.046875 75" stroke="none" stroke-width="0" fill="#ECECFF" style=""/><path d="M-262.046875 -75 C-95.46260850669125 -75, 71.12165798661749 -75, 262.046875 -75 M-262.046875 -75 C-69.65577024452634 -75, 122.73533451094733 -75, 262.046875 -75 M262.046875 -75 C262.046875 -16.28183913634254, 262.046875 42.43632172731492, 262.046875 75 M262.046875 -75 C262.046875 -29.303401481649658, 262.046875 16.393197036700684, 262.046875 75 M262.046875 75 C118.94206811218399 75, -24.16273877563202 75, -262.046875 75 M262.046875 75 C137.3058290918169 75, 12.564783183633779 75, -262.046875 75 M-262.046875 75 C-262.046875 35.712760498829056, -262.046875 -3.5744790023418886, -262.046875 -75 M-262.046875 75 C-262.046875 41.07578184100463, -262.046875 7.151563682009254, -262.046875 -75" stroke="#9370DB" stroke-width="1.3" fill="none" stroke-dasharray="0 0" style=""/></g><g class="annotation-group text" transform="translate(-41.171875, -51)"><g class="label" style="" transform="translate(0,-12)"><foreignObject width="82.34375" height="24"><div xmlns="http://www.w3.org/1999/xhtml" style="display: table-cell; white-space: nowrap; line-height: 1.5; max-width: 122px; text-align: center;"><span class="nodeLabel markdown-node-label" style=""><p>«interface»</p></span></div></foreignObject></g></g><g class="label-group text" transform="translate(-84.4375, -27)"><g class="label" style="font-weight: bolder" transform="translate(0,-12)"><foreignObject width="168.875" height="24"><div xmlns="http://www.w3.org/1999/xhtml" style="display: table-cell; white-space: nowrap; line-height: 1.5; max-width: 197px; text-align: center;"><span class="nodeLabel markdown-node-label" style=""><p>ExternalDeviceService</p></span></div></foreignObject></g></g><g class="members-group text" transform="translate(-250.046875, 21)"/><g class="methods-group text" transform="translate(-250.046875, 51)"><g class="label" style="" transform="translate(0,-12)"><foreignObject width="415.65625" height="24"><div xmlns="http://www.w3.org/1999/xhtml" style="display: table-cell; white-space: nowrap; line-height: 1.5; max-width: 489px; text-align: center;"><span class="nodeLabel markdown-node-label" style=""><p>+fetchOwnerUserIdByDeviceId(deviceId) : Optional&lt;UUID&gt;</p></span></div></foreignObject></g></g><g class="divider" style=""><path d="M-262.046875 -3 C-129.18445708731105 -3, 3.677960825377909 -3, 262.046875 -3 M-262.046875 -3 C-125.63871345762547 -3, 10.769448084749058 -3, 262.046875 -3" stroke="#9370DB" stroke-width="1.3" fill="none" stroke-dasharray="0 0" style=""/></g><g class="divider" style=""><path d="M-262.046875 21 C-133.80352737689233 21, -5.5601797537846664 21, 262.046875 21 M-262.046875 21 C-121.98583925302327 21, 18.075196493953456 21, 262.046875 21" stroke="#9370DB" stroke-width="1.3" fill="none" stroke-dasharray="0 0" style=""/></g></g><g class="node default" id="classId-ExternalAlertingService-5" transform="translate(2705, 394)"><g class="basic label-container"><path d="M-250.796875 -75 L250.796875 -75 L250.796875 75 L-250.796875 75" stroke="none" stroke-width="0" fill="#ECECFF" style=""/><path d="M-250.796875 -75 C-75.61492890393862 -75, 99.56701719212276 -75, 250.796875 -75 M-250.796875 -75 C-75.06073172351569 -75, 100.67541155296863 -75, 250.796875 -75 M250.796875 -75 C250.796875 -25.724458239473726, 250.796875 23.551083521052547, 250.796875 75 M250.796875 -75 C250.796875 -37.184391159814794, 250.796875 0.6312176803704119, 250.796875 75 M250.796875 75 C131.26601098344452 75, 11.735146966889005 75, -250.796875 75 M250.796875 75 C78.51309034871198 75, -93.77069430257603 75, -250.796875 75 M-250.796875 75 C-250.796875 37.21367219025043, -250.796875 -0.5726556194991446, -250.796875 -75 M-250.796875 75 C-250.796875 42.374341841533465, -250.796875 9.748683683066929, -250.796875 -75" stroke="#9370DB" stroke-width="1.3" fill="none" stroke-dasharray="0 0" style=""/></g><g class="annotation-group text" transform="translate(-41.171875, -51)"><g class="label" style="" transform="translate(0,-12)"><foreignObject width="82.34375" height="24"><div xmlns="http://www.w3.org/1999/xhtml" style="display: table-cell; white-space: nowrap; line-height: 1.5; max-width: 122px; text-align: center;"><span class="nodeLabel markdown-node-label" style=""><p>«interface»</p></span></div></foreignObject></g></g><g class="label-group text" transform="translate(-88.890625, -27)"><g class="label" style="font-weight: bolder" transform="translate(0,-12)"><foreignObject width="177.78125" height="24"><div xmlns="http://www.w3.org/1999/xhtml" style="display: table-cell; white-space: nowrap; line-height: 1.5; max-width: 206px; text-align: center;"><span class="nodeLabel markdown-node-label" style=""><p>ExternalAlertingService</p></span></div></foreignObject></g></g><g class="members-group text" transform="translate(-238.796875, 21)"/><g class="methods-group text" transform="translate(-238.796875, 51)"><g class="label" style="" transform="translate(0,-12)"><foreignObject width="388.703125" height="24"><div xmlns="http://www.w3.org/1999/xhtml" style="display: table-cell; white-space: nowrap; line-height: 1.5; max-width: 454px; text-align: center;"><span class="nodeLabel markdown-node-label" style=""><p>+findAlertDetailsById(alertId) : Optional&lt;AlertDetails&gt;</p></span></div></foreignObject></g></g><g class="divider" style=""><path d="M-250.796875 -3 C-117.0948712342128 -3, 16.607132531574393 -3, 250.796875 -3 M-250.796875 -3 C-138.68452081057154 -3, -26.57216662114311 -3, 250.796875 -3" stroke="#9370DB" stroke-width="1.3" fill="none" stroke-dasharray="0 0" style=""/></g><g class="divider" style=""><path d="M-250.796875 21 C-71.44642257812572 21, 107.90402984374856 21, 250.796875 21 M-250.796875 21 C-143.37909255835103 21, -35.961310116702094 21, 250.796875 21" stroke="#9370DB" stroke-width="1.3" fill="none" stroke-dasharray="0 0" style=""/></g></g><g class="node default" id="classId-SendVerificationCodeCommand-6" transform="translate(1172.765625, 116)"><g class="basic label-container"><path d="M-162.80078125 -72 L162.80078125 -72 L162.80078125 72 L-162.80078125 72" stroke="none" stroke-width="0" fill="#ECECFF" style=""/><path d="M-162.80078125 -72 C-79.1719538566007 -72, 4.456873536798611 -72, 162.80078125 -72 M-162.80078125 -72 C-44.779272843319745 -72, 73.24223556336051 -72, 162.80078125 -72 M162.80078125 -72 C162.80078125 -17.805513502638618, 162.80078125 36.388972994722764, 162.80078125 72 M162.80078125 -72 C162.80078125 -39.290413922963594, 162.80078125 -6.580827845927189, 162.80078125 72 M162.80078125 72 C80.8884454279202 72, -1.0238903941595936 72, -162.80078125 72 M162.80078125 72 C84.86378926953972 72, 6.926797289079445 72, -162.80078125 72 M-162.80078125 72 C-162.80078125 20.238484771364142, -162.80078125 -31.523030457271716, -162.80078125 -72 M-162.80078125 72 C-162.80078125 20.78204767818054, -162.80078125 -30.43590464363892, -162.80078125 -72" stroke="#9370DB" stroke-width="1.3" fill="none" stroke-dasharray="0 0" style=""/></g><g class="annotation-group text" transform="translate(0, -48)"/><g class="label-group text" transform="translate(-116.9609375, -48)"><g class="label" style="font-weight: bolder" transform="translate(0,-12)"><foreignObject width="233.921875" height="24"><div xmlns="http://www.w3.org/1999/xhtml" style="display: table-cell; white-space: nowrap; line-height: 1.5; max-width: 259px; text-align: center;"><span class="nodeLabel markdown-node-label" style=""><p>SendVerificationCodeCommand</p></span></div></foreignObject></g></g><g class="members-group text" transform="translate(-150.80078125, 0)"><g class="label" style="" transform="translate(0,-12)"><foreignObject width="184.640625" height="24"><div xmlns="http://www.w3.org/1999/xhtml" style="display: table-cell; white-space: nowrap; line-height: 1.5; max-width: 224px; text-align: center;"><span class="nodeLabel markdown-node-label" style=""><p>+EmailRecipient recipient</p></span></div></foreignObject></g><g class="label" style="" transform="translate(0,12)"><foreignObject width="172.984375" height="24"><div xmlns="http://www.w3.org/1999/xhtml" style="display: table-cell; white-space: nowrap; line-height: 1.5; max-width: 214px; text-align: center;"><span class="nodeLabel markdown-node-label" style=""><p>+String verificationCode</p></span></div></foreignObject></g></g><g class="methods-group text" transform="translate(-150.80078125, 72)"/><g class="divider" style=""><path d="M-162.80078125 -24 C-63.62937106342176 -24, 35.542039123156485 -24, 162.80078125 -24 M-162.80078125 -24 C-56.558109236058684 -24, 49.68456277788263 -24, 162.80078125 -24" stroke="#9370DB" stroke-width="1.3" fill="none" stroke-dasharray="0 0" style=""/></g><g class="divider" style=""><path d="M-162.80078125 48 C-44.41610690191804 48, 73.96856744616392 48, 162.80078125 48 M-162.80078125 48 C-57.166784992062645 48, 48.46721126587471 48, 162.80078125 48" stroke="#9370DB" stroke-width="1.3" fill="none" stroke-dasharray="0 0" style=""/></g></g><g class="node default" id="classId-SendWelcomeEmailCommand-7" transform="translate(1544.51953125, 116)"><g class="basic label-container"><path d="M-158.953125 -72 L158.953125 -72 L158.953125 72 L-158.953125 72" stroke="none" stroke-width="0" fill="#ECECFF" style=""/><path d="M-158.953125 -72 C-80.55918301965009 -72, -2.1652410393001844 -72, 158.953125 -72 M-158.953125 -72 C-87.64148440045166 -72, -16.32984380090332 -72, 158.953125 -72 M158.953125 -72 C158.953125 -35.432254267113144, 158.953125 1.1354914657737112, 158.953125 72 M158.953125 -72 C158.953125 -21.714089024318866, 158.953125 28.571821951362267, 158.953125 72 M158.953125 72 C59.735537045343946 72, -39.48205090931211 72, -158.953125 72 M158.953125 72 C67.46877964729329 72, -24.015565705413422 72, -158.953125 72 M-158.953125 72 C-158.953125 29.20438919229567, -158.953125 -13.591221615408656, -158.953125 -72 M-158.953125 72 C-158.953125 28.968214218666766, -158.953125 -14.063571562666468, -158.953125 -72" stroke="#9370DB" stroke-width="1.3" fill="none" stroke-dasharray="0 0" style=""/></g><g class="annotation-group text" transform="translate(0, -48)"/><g class="label-group text" transform="translate(-109.265625, -48)"><g class="label" style="font-weight: bolder" transform="translate(0,-12)"><foreignObject width="218.53125" height="24"><div xmlns="http://www.w3.org/1999/xhtml" style="display: table-cell; white-space: nowrap; line-height: 1.5; max-width: 248px; text-align: center;"><span class="nodeLabel markdown-node-label" style=""><p>SendWelcomeEmailCommand</p></span></div></foreignObject></g></g><g class="members-group text" transform="translate(-146.953125, 0)"><g class="label" style="" transform="translate(0,-12)"><foreignObject width="184.640625" height="24"><div xmlns="http://www.w3.org/1999/xhtml" style="display: table-cell; white-space: nowrap; line-height: 1.5; max-width: 224px; text-align: center;"><span class="nodeLabel markdown-node-label" style=""><p>+EmailRecipient recipient</p></span></div></foreignObject></g><g class="label" style="" transform="translate(0,12)"><foreignObject width="93.96875" height="24"><div xmlns="http://www.w3.org/1999/xhtml" style="display: table-cell; white-space: nowrap; line-height: 1.5; max-width: 141px; text-align: center;"><span class="nodeLabel markdown-node-label" style=""><p>+String name</p></span></div></foreignObject></g></g><g class="methods-group text" transform="translate(-146.953125, 72)"/><g class="divider" style=""><path d="M-158.953125 -24 C-45.10117117416523 -24, 68.75078265166954 -24, 158.953125 -24 M-158.953125 -24 C-43.08561808586633 -24, 72.78188882826734 -24, 158.953125 -24" stroke="#9370DB" stroke-width="1.3" fill="none" stroke-dasharray="0 0" style=""/></g><g class="divider" style=""><path d="M-158.953125 48 C-88.78150444079601 48, -18.609883881592026 48, 158.953125 48 M-158.953125 48 C-86.43270272390826 48, -13.912280447816528 48, 158.953125 48" stroke="#9370DB" stroke-width="1.3" fill="none" stroke-dasharray="0 0" style=""/></g></g><g class="node default" id="classId-GetPushNotificationHistoryQuery-8" transform="translate(1898.578125, 116)"><g class="basic label-container"><path d="M-145.10546875 -72 L145.10546875 -72 L145.10546875 72 L-145.10546875 72" stroke="none" stroke-width="0" fill="#ECECFF" style=""/><path d="M-145.10546875 -72 C-78.26797437198907 -72, -11.430479993978139 -72, 145.10546875 -72 M-145.10546875 -72 C-60.47483401472671 -72, 24.15580072054658 -72, 145.10546875 -72 M145.10546875 -72 C145.10546875 -16.19974418308827, 145.10546875 39.60051163382346, 145.10546875 72 M145.10546875 -72 C145.10546875 -41.53442387840205, 145.10546875 -11.068847756804104, 145.10546875 72 M145.10546875 72 C34.74125474804865 72, -75.6229592539027 72, -145.10546875 72 M145.10546875 72 C85.591263442583 72, 26.077058135166 72, -145.10546875 72 M-145.10546875 72 C-145.10546875 28.026471688110007, -145.10546875 -15.947056623779986, -145.10546875 -72 M-145.10546875 72 C-145.10546875 33.05079187606545, -145.10546875 -5.898416247869093, -145.10546875 -72" stroke="#9370DB" stroke-width="1.3" fill="none" stroke-dasharray="0 0" style=""/></g><g class="annotation-group text" transform="translate(0, -48)"/><g class="label-group text" transform="translate(-124.0546875, -48)"><g class="label" style="font-weight: bolder" transform="translate(0,-12)"><foreignObject width="248.109375" height="24"><div xmlns="http://www.w3.org/1999/xhtml" style="display: table-cell; white-space: nowrap; line-height: 1.5; max-width: 270px; text-align: center;"><span class="nodeLabel markdown-node-label" style=""><p>GetPushNotificationHistoryQuery</p></span></div></foreignObject></g></g><g class="members-group text" transform="translate(-133.10546875, 0)"><g class="label" style="" transform="translate(0,-12)"><foreignObject width="91.765625" height="24"><div xmlns="http://www.w3.org/1999/xhtml" style="display: table-cell; white-space: nowrap; line-height: 1.5; max-width: 148px; text-align: center;"><span class="nodeLabel markdown-node-label" style=""><p>+UUID userId</p></span></div></foreignObject></g><g class="label" style="" transform="translate(0,12)"><foreignObject width="142.15625" height="24"><div xmlns="http://www.w3.org/1999/xhtml" style="display: table-cell; white-space: nowrap; line-height: 1.5; max-width: 182px; text-align: center;"><span class="nodeLabel markdown-node-label" style=""><p>+Pageable pageable</p></span></div></foreignObject></g></g><g class="methods-group text" transform="translate(-133.10546875, 72)"/><g class="divider" style=""><path d="M-145.10546875 -24 C-33.20845738985071 -24, 78.68855397029859 -24, 145.10546875 -24 M-145.10546875 -24 C-74.51775014109045 -24, -3.930031532180891 -24, 145.10546875 -24" stroke="#9370DB" stroke-width="1.3" fill="none" stroke-dasharray="0 0" style=""/></g><g class="divider" style=""><path d="M-145.10546875 48 C-56.56966516329284 48, 31.96613842341432 48, 145.10546875 48 M-145.10546875 48 C-31.778776648323245 48, 81.54791545335351 48, 145.10546875 48" stroke="#9370DB" stroke-width="1.3" fill="none" stroke-dasharray="0 0" style=""/></g></g><g class="node default" id="classId-PushNotificationHistoryRepository-9" transform="translate(866.03515625, 606)"><g class="basic label-container"><path d="M-140.125 -42 L140.125 -42 L140.125 42 L-140.125 42" stroke="none" stroke-width="0" fill="#ECECFF" style=""/><path d="M-140.125 -42 C-45.020774781793364 -42, 50.08345043641327 -42, 140.125 -42 M-140.125 -42 C-42.40783040197314 -42, 55.30933919605371 -42, 140.125 -42 M140.125 -42 C140.125 -17.3440315148011, 140.125 7.311936970397802, 140.125 42 M140.125 -42 C140.125 -8.606963212586372, 140.125 24.786073574827256, 140.125 42 M140.125 42 C29.556247021048023 42, -81.01250595790395 42, -140.125 42 M140.125 42 C83.41408131354603 42, 26.703162627092084 42, -140.125 42 M-140.125 42 C-140.125 10.694927827832629, -140.125 -20.610144344334742, -140.125 -42 M-140.125 42 C-140.125 12.395237793830304, -140.125 -17.20952441233939, -140.125 -42" stroke="#9370DB" stroke-width="1.3" fill="none" stroke-dasharray="0 0" style=""/></g><g class="annotation-group text" transform="translate(0, -18)"/><g class="label-group text" transform="translate(-128.125, -18)"><g class="label" style="font-weight: bolder" transform="translate(0,-12)"><foreignObject width="256.25" height="24"><div xmlns="http://www.w3.org/1999/xhtml" style="display: table-cell; white-space: nowrap; line-height: 1.5; max-width: 277px; text-align: center;"><span class="nodeLabel markdown-node-label" style=""><p>PushNotificationHistoryRepository</p></span></div></foreignObject></g></g><g class="members-group text" transform="translate(-128.125, 30)"/><g class="methods-group text" transform="translate(-128.125, 60)"/><g class="divider" style=""><path d="M-140.125 6 C-28.093656728565406 6, 83.93768654286919 6, 140.125 6 M-140.125 6 C-76.57656825164833 6, -13.02813650329665 6, 140.125 6" stroke="#9370DB" stroke-width="1.3" fill="none" stroke-dasharray="0 0" style=""/></g><g class="divider" style=""><path d="M-140.125 24 C-47.40094586973947 24, 45.32310826052105 24, 140.125 24 M-140.125 24 C-62.98137549402895 24, 14.162249011942095 24, 140.125 24" stroke="#9370DB" stroke-width="1.3" fill="none" stroke-dasharray="0 0" style=""/></g></g><g class="node default" id="classId-NotificationController-10" transform="translate(866.03515625, 116)"><g class="basic label-container"><path d="M-93.9296875 -42 L93.9296875 -42 L93.9296875 42 L-93.9296875 42" stroke="none" stroke-width="0" fill="#ECECFF" style=""/><path d="M-93.9296875 -42 C-53.60947702300508 -42, -13.289266546010154 -42, 93.9296875 -42 M-93.9296875 -42 C-47.18212544689552 -42, -0.4345633937910378 -42, 93.9296875 -42 M93.9296875 -42 C93.9296875 -20.9844804287975, 93.9296875 0.03103914240499961, 93.9296875 42 M93.9296875 -42 C93.9296875 -22.56150805307561, 93.9296875 -3.123016106151219, 93.9296875 42 M93.9296875 42 C19.090809591077203 42, -55.74806831784559 42, -93.9296875 42 M93.9296875 42 C30.733442332209776 42, -32.46280283558045 42, -93.9296875 42 M-93.9296875 42 C-93.9296875 10.588369247587288, -93.9296875 -20.823261504825425, -93.9296875 -42 M-93.9296875 42 C-93.9296875 10.089803509031476, -93.9296875 -21.820392981937047, -93.9296875 -42" stroke="#9370DB" stroke-width="1.3" fill="none" stroke-dasharray="0 0" style=""/></g><g class="annotation-group text" transform="translate(0, -18)"/><g class="label-group text" transform="translate(-81.9296875, -18)"><g class="label" style="font-weight: bolder" transform="translate(0,-12)"><foreignObject width="163.859375" height="24"><div xmlns="http://www.w3.org/1999/xhtml" style="display: table-cell; white-space: nowrap; line-height: 1.5; max-width: 195px; text-align: center;"><span class="nodeLabel markdown-node-label" style=""><p>NotificationController</p></span></div></foreignObject></g></g><g class="members-group text" transform="translate(-81.9296875, 30)"/><g class="methods-group text" transform="translate(-81.9296875, 60)"/><g class="divider" style=""><path d="M-93.9296875 6 C-34.46857994868449 6, 24.992527602631014 6, 93.9296875 6 M-93.9296875 6 C-39.25293752886683 6, 15.423812442266339 6, 93.9296875 6" stroke="#9370DB" stroke-width="1.3" fill="none" stroke-dasharray="0 0" style=""/></g><g class="divider" style=""><path d="M-93.9296875 24 C-33.007526508814706 24, 27.914634482370587 24, 93.9296875 24 M-93.9296875 24 C-20.83968784012724 24, 52.25031181974552 24, 93.9296875 24" stroke="#9370DB" stroke-width="1.3" fill="none" stroke-dasharray="0 0" style=""/></g></g></g></g></g></svg>