<svg id="my-svg" width="100%" xmlns="http://www.w3.org/2000/svg" xmlns:xlink="http://www.w3.org/1999/xlink" class="classDiagram" style="max-width: 2428.37px; background-color: transparent;" viewBox="0 0 2428.3671875 474" role="graphics-document document" aria-roledescription="class"><style>#my-svg{font-family:"trebuchet ms",verdana,arial,sans-serif;font-size:16px;fill:#333;}@keyframes edge-animation-frame{from{stroke-dashoffset:0;}}@keyframes dash{to{stroke-dashoffset:0;}}#my-svg .edge-animation-slow{stroke-dasharray:9,5!important;stroke-dashoffset:900;animation:dash 50s linear infinite;stroke-linecap:round;}#my-svg .edge-animation-fast{stroke-dasharray:9,5!important;stroke-dashoffset:900;animation:dash 20s linear infinite;stroke-linecap:round;}#my-svg .error-icon{fill:#552222;}#my-svg .error-text{fill:#552222;stroke:#552222;}#my-svg .edge-thickness-normal{stroke-width:1px;}#my-svg .edge-thickness-thick{stroke-width:3.5px;}#my-svg .edge-pattern-solid{stroke-dasharray:0;}#my-svg .edge-thickness-invisible{stroke-width:0;fill:none;}#my-svg .edge-pattern-dashed{stroke-dasharray:3;}#my-svg .edge-pattern-dotted{stroke-dasharray:2;}#my-svg .marker{fill:#333333;stroke:#333333;}#my-svg .marker.cross{stroke:#333333;}#my-svg svg{font-family:"trebuchet ms",verdana,arial,sans-serif;font-size:16px;}#my-svg p{margin:0;}#my-svg g.classGroup text{fill:#9370DB;stroke:none;font-family:"trebuchet ms",verdana,arial,sans-serif;font-size:10px;}#my-svg g.classGroup text .title{font-weight:bolder;}#my-svg .nodeLabel,#my-svg .edgeLabel{color:#131300;}#my-svg .edgeLabel .label rect{fill:#ECECFF;}#my-svg .label text{fill:#131300;}#my-svg .labelBkg{background:#ECECFF;}#my-svg .edgeLabel .label span{background:#ECECFF;}#my-svg .classTitle{font-weight:bolder;}#my-svg .node rect,#my-svg .node circle,#my-svg .node ellipse,#my-svg .node polygon,#my-svg .node path{fill:#ECECFF;stroke:#9370DB;stroke-width:1px;}#my-svg .divider{stroke:#9370DB;stroke-width:1;}#my-svg g.clickable{cursor:pointer;}#my-svg g.classGroup rect{fill:#ECECFF;stroke:#9370DB;}#my-svg g.classGroup line{stroke:#9370DB;stroke-width:1;}#my-svg .classLabel .box{stroke:none;stroke-width:0;fill:#ECECFF;opacity:0.5;}#my-svg .classLabel .label{fill:#9370DB;font-size:10px;}#my-svg .relation{stroke:#333333;stroke-width:1;fill:none;}#my-svg .dashed-line{stroke-dasharray:3;}#my-svg .dotted-line{stroke-dasharray:1 2;}#my-svg #compositionStart,#my-svg .composition{fill:#333333!important;stroke:#333333!important;stroke-width:1;}#my-svg #compositionEnd,#my-svg .composition{fill:#333333!important;stroke:#333333!important;stroke-width:1;}#my-svg #dependencyStart,#my-svg .dependency{fill:#333333!important;stroke:#333333!important;stroke-width:1;}#my-svg #dependencyStart,#my-svg .dependency{fill:#333333!important;stroke:#333333!important;stroke-width:1;}#my-svg #extensionStart,#my-svg .extension{fill:transparent!important;stroke:#333333!important;stroke-width:1;}#my-svg #extensionEnd,#my-svg .extension{fill:transparent!important;stroke:#333333!important;stroke-width:1;}#my-svg #aggregationStart,#my-svg .aggregation{fill:transparent!important;stroke:#333333!important;stroke-width:1;}#my-svg #aggregationEnd,#my-svg .aggregation{fill:transparent!important;stroke:#333333!important;stroke-width:1;}#my-svg #lollipopStart,#my-svg .lollipop{fill:#ECECFF!important;stroke:#333333!important;stroke-width:1;}#my-svg #lollipopEnd,#my-svg .lollipop{fill:#ECECFF!important;stroke:#333333!important;stroke-width:1;}#my-svg .edgeTerminals{font-size:11px;line-height:initial;}#my-svg .classTitleText{text-anchor:middle;font-size:18px;fill:#333;}#my-svg .label-icon{display:inline-block;height:1em;overflow:visible;vertical-align:-0.125em;}#my-svg .node .label-icon path{fill:currentColor;stroke:revert;stroke-width:revert;}#my-svg :root{--mermaid-font-family:"trebuchet ms",verdana,arial,sans-serif;}</style><g><defs><marker id="my-svg_class-aggregationStart" class="marker aggregation class" refX="18" refY="7" markerWidth="190" markerHeight="240" orient="auto"><path d="M 18,7 L9,13 L1,7 L9,1 Z"/></marker></defs><defs><marker id="my-svg_class-aggregationEnd" class="marker aggregation class" refX="1" refY="7" markerWidth="20" markerHeight="28" orient="auto"><path d="M 18,7 L9,13 L1,7 L9,1 Z"/></marker></defs><defs><marker id="my-svg_class-extensionStart" class="marker extension class" refX="18" refY="7" markerWidth="190" markerHeight="240" orient="auto"><path d="M 1,7 L18,13 V 1 Z"/></marker></defs><defs><marker id="my-svg_class-extensionEnd" class="marker extension class" refX="1" refY="7" markerWidth="20" markerHeight="28" orient="auto"><path d="M 1,1 V 13 L18,7 Z"/></marker></defs><defs><marker id="my-svg_class-compositionStart" class="marker composition class" refX="18" refY="7" markerWidth="190" markerHeight="240" orient="auto"><path d="M 18,7 L9,13 L1,7 L9,1 Z"/></marker></defs><defs><marker id="my-svg_class-compositionEnd" class="marker composition class" refX="1" refY="7" markerWidth="20" markerHeight="28" orient="auto"><path d="M 18,7 L9,13 L1,7 L9,1 Z"/></marker></defs><defs><marker id="my-svg_class-dependencyStart" class="marker dependency class" refX="6" refY="7" markerWidth="190" markerHeight="240" orient="auto"><path d="M 5,7 L9,13 L1,7 L9,1 Z"/></marker></defs><defs><marker id="my-svg_class-dependencyEnd" class="marker dependency class" refX="13" refY="7" markerWidth="20" markerHeight="28" orient="auto"><path d="M 18,7 L9,13 L14,7 L9,1 Z"/></marker></defs><defs><marker id="my-svg_class-lollipopStart" class="marker lollipop class" refX="13" refY="7" markerWidth="190" markerHeight="240" orient="auto"><circle stroke="black" fill="transparent" cx="7" cy="7" r="6"/></marker></defs><defs><marker id="my-svg_class-lollipopEnd" class="marker lollipop class" refX="1" refY="7" markerWidth="190" markerHeight="240" orient="auto"><circle stroke="black" fill="transparent" cx="7" cy="7" r="6"/></marker></defs><g class="root"><g class="clusters"/><g class="edgePaths"><path d="M118.62,272L114.614,278.167C110.609,284.333,102.597,296.667,98.592,308C94.586,319.333,94.586,329.667,94.586,334.833L94.586,340" id="id_EmailLog_EmailRecipient_1" class="edge-thickness-normal edge-pattern-solid relation" style=";;;" data-edge="true" data-et="edge" data-id="id_EmailLog_EmailRecipient_1" data-points="W3sieCI6MTE4LjYyMDAzMDUxMDM1NTA0LCJ5IjoyNzJ9LHsieCI6OTQuNTg1OTM3NSwieSI6MzA5fSx7IngiOjk0LjU4NTkzNzUsInkiOjM0Nn1d" marker-end="url(#my-svg_class-dependencyEnd)"/><path d="M290.107,272L294.112,278.167C298.118,284.333,306.129,296.667,310.135,308C314.141,319.333,314.141,329.667,314.141,334.833L314.141,340" id="id_EmailLog_EmailSubject_2" class="edge-thickness-normal edge-pattern-solid relation" style=";;;" data-edge="true" data-et="edge" data-id="id_EmailLog_EmailSubject_2" data-points="W3sieCI6MjkwLjEwNjUzMTk4OTY0NDk2LCJ5IjoyNzJ9LHsieCI6MzE0LjE0MDYyNSwieSI6MzA5fSx7IngiOjMxNC4xNDA2MjUsInkiOjM0Nn1d" marker-end="url(#my-svg_class-dependencyEnd)"/><path d="M324.125,201.993L358.579,219.827C393.033,237.662,461.94,273.331,496.394,296.332C530.848,319.333,530.848,329.667,530.848,334.833L530.848,340" id="id_EmailLog_EmailContent_3" class="edge-thickness-normal edge-pattern-solid relation" style=";;;" data-edge="true" data-et="edge" data-id="id_EmailLog_EmailContent_3" data-points="W3sieCI6MzI0LjEyNSwieSI6MjAxLjk5Mjk1Mjg1OTUzNTc2fSx7IngiOjUzMC44NDc2NTYyNSwieSI6MzA5fSx7IngiOjUzMC44NDc2NTYyNSwieSI6MzQ2fV0=" marker-end="url(#my-svg_class-dependencyEnd)"/></g><g class="edgeLabels"><g class="edgeLabel" transform="translate(94.5859375, 309)"><g class="label" data-id="id_EmailLog_EmailRecipient_1" transform="translate(-29.890625, -12)"><foreignObject width="59.78125" height="24"><div xmlns="http://www.w3.org/1999/xhtml" class="labelBkg" style="display: table-cell; white-space: nowrap; line-height: 1.5; max-width: 200px; text-align: center;"><span class="edgeLabel"><p>contains</p></span></div></foreignObject></g></g><g class="edgeLabel" transform="translate(314.140625, 309)"><g class="label" data-id="id_EmailLog_EmailSubject_2" transform="translate(-29.890625, -12)"><foreignObject width="59.78125" height="24"><div xmlns="http://www.w3.org/1999/xhtml" class="labelBkg" style="display: table-cell; white-space: nowrap; line-height: 1.5; max-width: 200px; text-align: center;"><span class="edgeLabel"><p>contains</p></span></div></foreignObject></g></g><g class="edgeLabel" transform="translate(530.84765625, 309)"><g class="label" data-id="id_EmailLog_EmailContent_3" transform="translate(-29.890625, -12)"><foreignObject width="59.78125" height="24"><div xmlns="http://www.w3.org/1999/xhtml" class="labelBkg" style="display: table-cell; white-space: nowrap; line-height: 1.5; max-width: 200px; text-align: center;"><span class="edgeLabel"><p>contains</p></span></div></foreignObject></g></g></g><g class="nodes"><g class="node default" id="classId-EmailLog-0" transform="translate(204.36328125, 140)"><g class="basic label-container"><path d="M-119.76171875 -132 L119.76171875 -132 L119.76171875 132 L-119.76171875 132" stroke="none" stroke-width="0" fill="#ECECFF" style=""/><path d="M-119.76171875 -132 C-68.46657398378184 -132, -17.17142921756367 -132, 119.76171875 -132 M-119.76171875 -132 C-33.13126125604752 -132, 53.499196237904954 -132, 119.76171875 -132 M119.76171875 -132 C119.76171875 -65.33163585465029, 119.76171875 1.3367282906994262, 119.76171875 132 M119.76171875 -132 C119.76171875 -28.553265793341808, 119.76171875 74.89346841331638, 119.76171875 132 M119.76171875 132 C60.35092533041002 132, 0.9401319108200425 132, -119.76171875 132 M119.76171875 132 C53.990571542613225 132, -11.78057566477355 132, -119.76171875 132 M-119.76171875 132 C-119.76171875 79.13639927312573, -119.76171875 26.272798546251465, -119.76171875 -132 M-119.76171875 132 C-119.76171875 50.91628261229886, -119.76171875 -30.167434775402285, -119.76171875 -132" stroke="#9370DB" stroke-width="1.3" fill="none" stroke-dasharray="0 0" style=""/></g><g class="annotation-group text" transform="translate(0, -108)"/><g class="label-group text" transform="translate(-33.3984375, -108)"><g class="label" style="font-weight: bolder" transform="translate(0,-12)"><foreignObject width="66.796875" height="24"><div xmlns="http://www.w3.org/1999/xhtml" style="display: table-cell; white-space: nowrap; line-height: 1.5; max-width: 114px; text-align: center;"><span class="nodeLabel markdown-node-label" style=""><p>EmailLog</p></span></div></foreignObject></g></g><g class="members-group text" transform="translate(-107.76171875, -60)"><g class="label" style="" transform="translate(0,-12)"><foreignObject width="59.1875" height="24"><div xmlns="http://www.w3.org/1999/xhtml" style="display: table-cell; white-space: nowrap; line-height: 1.5; max-width: 117px; text-align: center;"><span class="nodeLabel markdown-node-label" style=""><p>-UUID id</p></span></div></foreignObject></g><g class="label" style="" transform="translate(0,12)"><foreignObject width="182.125" height="24"><div xmlns="http://www.w3.org/1999/xhtml" style="display: table-cell; white-space: nowrap; line-height: 1.5; max-width: 220px; text-align: center;"><span class="nodeLabel markdown-node-label" style=""><p>-EmailRecipient recipient</p></span></div></foreignObject></g><g class="label" style="" transform="translate(0,36)"><foreignObject width="157.4375" height="24"><div xmlns="http://www.w3.org/1999/xhtml" style="display: table-cell; white-space: nowrap; line-height: 1.5; max-width: 196px; text-align: center;"><span class="nodeLabel markdown-node-label" style=""><p>-EmailSubject subject</p></span></div></foreignObject></g><g class="label" style="" transform="translate(0,60)"><foreignObject width="162.703125" height="24"><div xmlns="http://www.w3.org/1999/xhtml" style="display: table-cell; white-space: nowrap; line-height: 1.5; max-width: 200px; text-align: center;"><span class="nodeLabel markdown-node-label" style=""><p>-EmailContent content</p></span></div></foreignObject></g><g class="label" style="" transform="translate(0,84)"><foreignObject width="95.078125" height="24"><div xmlns="http://www.w3.org/1999/xhtml" style="display: table-cell; white-space: nowrap; line-height: 1.5; max-width: 139px; text-align: center;"><span class="nodeLabel markdown-node-label" style=""><p>-String status</p></span></div></foreignObject></g><g class="label" style="" transform="translate(0,108)"><foreignObject width="106.28125" height="24"><div xmlns="http://www.w3.org/1999/xhtml" style="display: table-cell; white-space: nowrap; line-height: 1.5; max-width: 150px; text-align: center;"><span class="nodeLabel markdown-node-label" style=""><p>-Instant sentAt</p></span></div></foreignObject></g><g class="label" style="" transform="translate(0,132)"><foreignObject width="146.453125" height="24"><div xmlns="http://www.w3.org/1999/xhtml" style="display: table-cell; white-space: nowrap; line-height: 1.5; max-width: 190px; text-align: center;"><span class="nodeLabel markdown-node-label" style=""><p>-String errorMessage</p></span></div></foreignObject></g></g><g class="methods-group text" transform="translate(-107.76171875, 132)"/><g class="divider" style=""><path d="M-119.76171875 -84 C-45.2373549968937 -84, 29.2870087562126 -84, 119.76171875 -84 M-119.76171875 -84 C-36.00688622929303 -84, 47.74794629141394 -84, 119.76171875 -84" stroke="#9370DB" stroke-width="1.3" fill="none" stroke-dasharray="0 0" style=""/></g><g class="divider" style=""><path d="M-119.76171875 108 C-69.28898540896941 108, -18.816252067938805 108, 119.76171875 108 M-119.76171875 108 C-65.1465386398429 108, -10.531358529685804 108, 119.76171875 108" stroke="#9370DB" stroke-width="1.3" fill="none" stroke-dasharray="0 0" style=""/></g></g><g class="node default" id="classId-PushNotificationLog-1" transform="translate(486.16015625, 140)"><g class="basic label-container"><path d="M-112.03515625 -132 L112.03515625 -132 L112.03515625 132 L-112.03515625 132" stroke="none" stroke-width="0" fill="#ECECFF" style=""/><path d="M-112.03515625 -132 C-37.819003162214116 -132, 36.39714992557177 -132, 112.03515625 -132 M-112.03515625 -132 C-47.8162860617323 -132, 16.4025841265354 -132, 112.03515625 -132 M112.03515625 -132 C112.03515625 -70.55054401647017, 112.03515625 -9.10108803294034, 112.03515625 132 M112.03515625 -132 C112.03515625 -75.22158024567838, 112.03515625 -18.44316049135675, 112.03515625 132 M112.03515625 132 C27.497740456574704 132, -57.03967533685059 132, -112.03515625 132 M112.03515625 132 C64.65758363296531 132, 17.280011015930626 132, -112.03515625 132 M-112.03515625 132 C-112.03515625 49.4625032314632, -112.03515625 -33.074993537073595, -112.03515625 -132 M-112.03515625 132 C-112.03515625 53.09518645939444, -112.03515625 -25.80962708121112, -112.03515625 -132" stroke="#9370DB" stroke-width="1.3" fill="none" stroke-dasharray="0 0" style=""/></g><g class="annotation-group text" transform="translate(0, -108)"/><g class="label-group text" transform="translate(-74.5078125, -108)"><g class="label" style="font-weight: bolder" transform="translate(0,-12)"><foreignObject width="149.015625" height="24"><div xmlns="http://www.w3.org/1999/xhtml" style="display: table-cell; white-space: nowrap; line-height: 1.5; max-width: 184px; text-align: center;"><span class="nodeLabel markdown-node-label" style=""><p>PushNotificationLog</p></span></div></foreignObject></g></g><g class="members-group text" transform="translate(-100.03515625, -60)"><g class="label" style="" transform="translate(0,-12)"><foreignObject width="59.1875" height="24"><div xmlns="http://www.w3.org/1999/xhtml" style="display: table-cell; white-space: nowrap; line-height: 1.5; max-width: 117px; text-align: center;"><span class="nodeLabel markdown-node-label" style=""><p>-UUID id</p></span></div></foreignObject></g><g class="label" style="" transform="translate(0,12)"><foreignObject width="89.25" height="24"><div xmlns="http://www.w3.org/1999/xhtml" style="display: table-cell; white-space: nowrap; line-height: 1.5; max-width: 145px; text-align: center;"><span class="nodeLabel markdown-node-label" style=""><p>-UUID userId</p></span></div></foreignObject></g><g class="label" style="" transform="translate(0,36)"><foreignObject width="82.984375" height="24"><div xmlns="http://www.w3.org/1999/xhtml" style="display: table-cell; white-space: nowrap; line-height: 1.5; max-width: 128px; text-align: center;"><span class="nodeLabel markdown-node-label" style=""><p>-String title</p></span></div></foreignObject></g><g class="label" style="" transform="translate(0,60)"><foreignObject width="112.421875" height="24"><div xmlns="http://www.w3.org/1999/xhtml" style="display: table-cell; white-space: nowrap; line-height: 1.5; max-width: 157px; text-align: center;"><span class="nodeLabel markdown-node-label" style=""><p>-String message</p></span></div></foreignObject></g><g class="label" style="" transform="translate(0,84)"><foreignObject width="95.078125" height="24"><div xmlns="http://www.w3.org/1999/xhtml" style="display: table-cell; white-space: nowrap; line-height: 1.5; max-width: 139px; text-align: center;"><span class="nodeLabel markdown-node-label" style=""><p>-String status</p></span></div></foreignObject></g><g class="label" style="" transform="translate(0,108)"><foreignObject width="106.28125" height="24"><div xmlns="http://www.w3.org/1999/xhtml" style="display: table-cell; white-space: nowrap; line-height: 1.5; max-width: 150px; text-align: center;"><span class="nodeLabel markdown-node-label" style=""><p>-Instant sentAt</p></span></div></foreignObject></g><g class="label" style="" transform="translate(0,132)"><foreignObject width="125.5625" height="24"><div xmlns="http://www.w3.org/1999/xhtml" style="display: table-cell; white-space: nowrap; line-height: 1.5; max-width: 169px; text-align: center;"><span class="nodeLabel markdown-node-label" style=""><p>-String externalId</p></span></div></foreignObject></g></g><g class="methods-group text" transform="translate(-100.03515625, 132)"/><g class="divider" style=""><path d="M-112.03515625 -84 C-24.483326661677253 -84, 63.06850292664549 -84, 112.03515625 -84 M-112.03515625 -84 C-59.472797354547886 -84, -6.910438459095772 -84, 112.03515625 -84" stroke="#9370DB" stroke-width="1.3" fill="none" stroke-dasharray="0 0" style=""/></g><g class="divider" style=""><path d="M-112.03515625 108 C-33.73242108120408 108, 44.57031408759184 108, 112.03515625 108 M-112.03515625 108 C-48.66411908103323 108, 14.706918087933545 108, 112.03515625 108" stroke="#9370DB" stroke-width="1.3" fill="none" stroke-dasharray="0 0" style=""/></g></g><g class="node default" id="classId-EmailDeliveryService-2" transform="translate(846.1953125, 140)"><g class="basic label-container"><path d="M-198 -75 L198 -75 L198 75 L-198 75" stroke="none" stroke-width="0" fill="#ECECFF" style=""/><path d="M-198 -75 C-52.70176873001054 -75, 92.59646253997892 -75, 198 -75 M-198 -75 C-69.55711030918019 -75, 58.88577938163962 -75, 198 -75 M198 -75 C198 -37.908475455470416, 198 -0.8169509109408324, 198 75 M198 -75 C198 -32.00427522825726, 198 10.991449543485487, 198 75 M198 75 C98.698409298262 75, -0.6031814034759861 75, -198 75 M198 75 C112.36411627606041 75, 26.72823255212083 75, -198 75 M-198 75 C-198 29.2683982150673, -198 -16.4632035698654, -198 -75 M-198 75 C-198 28.96135223051006, -198 -17.077295538979882, -198 -75" stroke="#9370DB" stroke-width="1.3" fill="none" stroke-dasharray="0 0" style=""/></g><g class="annotation-group text" transform="translate(-41.171875, -51)"><g class="label" style="" transform="translate(0,-12)"><foreignObject width="82.34375" height="24"><div xmlns="http://www.w3.org/1999/xhtml" style="display: table-cell; white-space: nowrap; line-height: 1.5; max-width: 122px; text-align: center;"><span class="nodeLabel markdown-node-label" style=""><p>«interface»</p></span></div></foreignObject></g></g><g class="label-group text" transform="translate(-79.078125, -27)"><g class="label" style="font-weight: bolder" transform="translate(0,-12)"><foreignObject width="158.15625" height="24"><div xmlns="http://www.w3.org/1999/xhtml" style="display: table-cell; white-space: nowrap; line-height: 1.5; max-width: 192px; text-align: center;"><span class="nodeLabel markdown-node-label" style=""><p>EmailDeliveryService</p></span></div></foreignObject></g></g><g class="members-group text" transform="translate(-186, 21)"/><g class="methods-group text" transform="translate(-186, 51)"><g class="label" style="" transform="translate(0,-12)"><foreignObject width="292.921875" height="24"><div xmlns="http://www.w3.org/1999/xhtml" style="display: table-cell; white-space: nowrap; line-height: 1.5; max-width: 310px; text-align: center;"><span class="nodeLabel markdown-node-label" style=""><p>+send(recipient, subject, content) : void</p></span></div></foreignObject></g></g><g class="divider" style=""><path d="M-198 -3 C-61.24952253219172 -3, 75.50095493561656 -3, 198 -3 M-198 -3 C-102.15090775651818 -3, -6.30181551303636 -3, 198 -3" stroke="#9370DB" stroke-width="1.3" fill="none" stroke-dasharray="0 0" style=""/></g><g class="divider" style=""><path d="M-198 21 C-53.292797433776315 21, 91.41440513244737 21, 198 21 M-198 21 C-115.42377713209015 21, -32.8475542641803 21, 198 21" stroke="#9370DB" stroke-width="1.3" fill="none" stroke-dasharray="0 0" style=""/></g></g><g class="node default" id="classId-PushNotificationDeliveryService-3" transform="translate(1315.65625, 140)"><g class="basic label-container"><path d="M-221.4609375 -75 L221.4609375 -75 L221.4609375 75 L-221.4609375 75" stroke="none" stroke-width="0" fill="#ECECFF" style=""/><path d="M-221.4609375 -75 C-79.31914253615363 -75, 62.82265242769273 -75, 221.4609375 -75 M-221.4609375 -75 C-59.668294214967915 -75, 102.12434907006417 -75, 221.4609375 -75 M221.4609375 -75 C221.4609375 -44.169948072431474, 221.4609375 -13.339896144862948, 221.4609375 75 M221.4609375 -75 C221.4609375 -43.81786956521866, 221.4609375 -12.635739130437322, 221.4609375 75 M221.4609375 75 C120.55390842788185 75, 19.6468793557637 75, -221.4609375 75 M221.4609375 75 C85.57980757097476 75, -50.30132235805047 75, -221.4609375 75 M-221.4609375 75 C-221.4609375 25.601395809909825, -221.4609375 -23.79720838018035, -221.4609375 -75 M-221.4609375 75 C-221.4609375 29.28988045602621, -221.4609375 -16.42023908794758, -221.4609375 -75" stroke="#9370DB" stroke-width="1.3" fill="none" stroke-dasharray="0 0" style=""/></g><g class="annotation-group text" transform="translate(-41.171875, -51)"><g class="label" style="" transform="translate(0,-12)"><foreignObject width="82.34375" height="24"><div xmlns="http://www.w3.org/1999/xhtml" style="display: table-cell; white-space: nowrap; line-height: 1.5; max-width: 122px; text-align: center;"><span class="nodeLabel markdown-node-label" style=""><p>«interface»</p></span></div></foreignObject></g></g><g class="label-group text" transform="translate(-120.1875, -27)"><g class="label" style="font-weight: bolder" transform="translate(0,-12)"><foreignObject width="240.375" height="24"><div xmlns="http://www.w3.org/1999/xhtml" style="display: table-cell; white-space: nowrap; line-height: 1.5; max-width: 262px; text-align: center;"><span class="nodeLabel markdown-node-label" style=""><p>PushNotificationDeliveryService</p></span></div></foreignObject></g></g><g class="members-group text" transform="translate(-209.4609375, 21)"/><g class="methods-group text" transform="translate(-209.4609375, 51)"><g class="label" style="" transform="translate(0,-12)"><foreignObject width="298.734375" height="24"><div xmlns="http://www.w3.org/1999/xhtml" style="display: table-cell; white-space: nowrap; line-height: 1.5; max-width: 321px; text-align: center;"><span class="nodeLabel markdown-node-label" style=""><p>+sendPush(userId, title, message) : String</p></span></div></foreignObject></g></g><g class="divider" style=""><path d="M-221.4609375 -3 C-83.73838798210664 -3, 53.98416153578671 -3, 221.4609375 -3 M-221.4609375 -3 C-45.77416889031673 -3, 129.91259971936654 -3, 221.4609375 -3" stroke="#9370DB" stroke-width="1.3" fill="none" stroke-dasharray="0 0" style=""/></g><g class="divider" style=""><path d="M-221.4609375 21 C-76.86747734997184 21, 67.72598280005633 21, 221.4609375 21 M-221.4609375 21 C-104.66513431467963 21, 12.130668870640733 21, 221.4609375 21" stroke="#9370DB" stroke-width="1.3" fill="none" stroke-dasharray="0 0" style=""/></g></g><g class="node default" id="classId-EmailRecipient-4" transform="translate(94.5859375, 406)"><g class="basic label-container"><path d="M-86.5859375 -60 L86.5859375 -60 L86.5859375 60 L-86.5859375 60" stroke="none" stroke-width="0" fill="#ECECFF" style=""/><path d="M-86.5859375 -60 C-49.85376304931025 -60, -13.121588598620505 -60, 86.5859375 -60 M-86.5859375 -60 C-28.925452189121756 -60, 28.735033121756487 -60, 86.5859375 -60 M86.5859375 -60 C86.5859375 -31.5428426812226, 86.5859375 -3.085685362445197, 86.5859375 60 M86.5859375 -60 C86.5859375 -31.34672260245489, 86.5859375 -2.6934452049097786, 86.5859375 60 M86.5859375 60 C51.29446395564969 60, 16.00299041129938 60, -86.5859375 60 M86.5859375 60 C37.95358798645001 60, -10.67876152709998 60, -86.5859375 60 M-86.5859375 60 C-86.5859375 26.216220299190425, -86.5859375 -7.56755940161915, -86.5859375 -60 M-86.5859375 60 C-86.5859375 24.876676631267053, -86.5859375 -10.246646737465895, -86.5859375 -60" stroke="#9370DB" stroke-width="1.3" fill="none" stroke-dasharray="0 0" style=""/></g><g class="annotation-group text" transform="translate(0, -36)"/><g class="label-group text" transform="translate(-55.9375, -36)"><g class="label" style="font-weight: bolder" transform="translate(0,-12)"><foreignObject width="111.875" height="24"><div xmlns="http://www.w3.org/1999/xhtml" style="display: table-cell; white-space: nowrap; line-height: 1.5; max-width: 150px; text-align: center;"><span class="nodeLabel markdown-node-label" style=""><p>EmailRecipient</p></span></div></foreignObject></g></g><g class="members-group text" transform="translate(-74.5859375, 12)"><g class="label" style="" transform="translate(0,-12)"><foreignObject width="93.234375" height="24"><div xmlns="http://www.w3.org/1999/xhtml" style="display: table-cell; white-space: nowrap; line-height: 1.5; max-width: 141px; text-align: center;"><span class="nodeLabel markdown-node-label" style=""><p>+String value</p></span></div></foreignObject></g></g><g class="methods-group text" transform="translate(-74.5859375, 60)"/><g class="divider" style=""><path d="M-86.5859375 -12 C-43.74104216654748 -12, -0.89614683309496 -12, 86.5859375 -12 M-86.5859375 -12 C-33.089492275364265 -12, 20.40695294927147 -12, 86.5859375 -12" stroke="#9370DB" stroke-width="1.3" fill="none" stroke-dasharray="0 0" style=""/></g><g class="divider" style=""><path d="M-86.5859375 36 C-23.730225906396157 36, 39.125485687207686 36, 86.5859375 36 M-86.5859375 36 C-37.12979900130585 36, 12.326339497388304 36, 86.5859375 36" stroke="#9370DB" stroke-width="1.3" fill="none" stroke-dasharray="0 0" style=""/></g></g><g class="node default" id="classId-EmailSubject-5" transform="translate(314.140625, 406)"><g class="basic label-container"><path d="M-82.96875 -60 L82.96875 -60 L82.96875 60 L-82.96875 60" stroke="none" stroke-width="0" fill="#ECECFF" style=""/><path d="M-82.96875 -60 C-34.511515864264034 -60, 13.945718271471932 -60, 82.96875 -60 M-82.96875 -60 C-27.7664843129416 -60, 27.4357813741168 -60, 82.96875 -60 M82.96875 -60 C82.96875 -21.793515087142623, 82.96875 16.412969825714754, 82.96875 60 M82.96875 -60 C82.96875 -23.399250103915044, 82.96875 13.201499792169912, 82.96875 60 M82.96875 60 C47.03336722661532 60, 11.097984453230637 60, -82.96875 60 M82.96875 60 C19.4226153950803 60, -44.1235192098394 60, -82.96875 60 M-82.96875 60 C-82.96875 16.808728211380185, -82.96875 -26.38254357723963, -82.96875 -60 M-82.96875 60 C-82.96875 14.599620686761398, -82.96875 -30.800758626477204, -82.96875 -60" stroke="#9370DB" stroke-width="1.3" fill="none" stroke-dasharray="0 0" style=""/></g><g class="annotation-group text" transform="translate(0, -36)"/><g class="label-group text" transform="translate(-48.703125, -36)"><g class="label" style="font-weight: bolder" transform="translate(0,-12)"><foreignObject width="97.40625" height="24"><div xmlns="http://www.w3.org/1999/xhtml" style="display: table-cell; white-space: nowrap; line-height: 1.5; max-width: 137px; text-align: center;"><span class="nodeLabel markdown-node-label" style=""><p>EmailSubject</p></span></div></foreignObject></g></g><g class="members-group text" transform="translate(-70.96875, 12)"><g class="label" style="" transform="translate(0,-12)"><foreignObject width="93.234375" height="24"><div xmlns="http://www.w3.org/1999/xhtml" style="display: table-cell; white-space: nowrap; line-height: 1.5; max-width: 141px; text-align: center;"><span class="nodeLabel markdown-node-label" style=""><p>+String value</p></span></div></foreignObject></g></g><g class="methods-group text" transform="translate(-70.96875, 60)"/><g class="divider" style=""><path d="M-82.96875 -12 C-19.40368754997909 -12, 44.16137490004182 -12, 82.96875 -12 M-82.96875 -12 C-44.63913584306399 -12, -6.3095216861279795 -12, 82.96875 -12" stroke="#9370DB" stroke-width="1.3" fill="none" stroke-dasharray="0 0" style=""/></g><g class="divider" style=""><path d="M-82.96875 36 C-38.607933896037785 36, 5.752882207924429 36, 82.96875 36 M-82.96875 36 C-19.56437611702109 36, 43.83999776595782 36, 82.96875 36" stroke="#9370DB" stroke-width="1.3" fill="none" stroke-dasharray="0 0" style=""/></g></g><g class="node default" id="classId-EmailContent-6" transform="translate(530.84765625, 406)"><g class="basic label-container"><path d="M-83.73828125 -60 L83.73828125 -60 L83.73828125 60 L-83.73828125 60" stroke="none" stroke-width="0" fill="#ECECFF" style=""/><path d="M-83.73828125 -60 C-49.84326369247403 -60, -15.948246134948064 -60, 83.73828125 -60 M-83.73828125 -60 C-46.068385032868335 -60, -8.39848881573667 -60, 83.73828125 -60 M83.73828125 -60 C83.73828125 -24.401037833484025, 83.73828125 11.19792433303195, 83.73828125 60 M83.73828125 -60 C83.73828125 -21.037178214037695, 83.73828125 17.92564357192461, 83.73828125 60 M83.73828125 60 C34.42487736590309 60, -14.888526518193814 60, -83.73828125 60 M83.73828125 60 C24.438481038997082 60, -34.861319172005835 60, -83.73828125 60 M-83.73828125 60 C-83.73828125 15.744466850790474, -83.73828125 -28.511066298419053, -83.73828125 -60 M-83.73828125 60 C-83.73828125 34.11887899095585, -83.73828125 8.237757981911699, -83.73828125 -60" stroke="#9370DB" stroke-width="1.3" fill="none" stroke-dasharray="0 0" style=""/></g><g class="annotation-group text" transform="translate(0, -36)"/><g class="label-group text" transform="translate(-50.2421875, -36)"><g class="label" style="font-weight: bolder" transform="translate(0,-12)"><foreignObject width="100.484375" height="24"><div xmlns="http://www.w3.org/1999/xhtml" style="display: table-cell; white-space: nowrap; line-height: 1.5; max-width: 139px; text-align: center;"><span class="nodeLabel markdown-node-label" style=""><p>EmailContent</p></span></div></foreignObject></g></g><g class="members-group text" transform="translate(-71.73828125, 12)"><g class="label" style="" transform="translate(0,-12)"><foreignObject width="93.234375" height="24"><div xmlns="http://www.w3.org/1999/xhtml" style="display: table-cell; white-space: nowrap; line-height: 1.5; max-width: 141px; text-align: center;"><span class="nodeLabel markdown-node-label" style=""><p>+String value</p></span></div></foreignObject></g></g><g class="methods-group text" transform="translate(-71.73828125, 60)"/><g class="divider" style=""><path d="M-83.73828125 -12 C-49.74408997465854 -12, -15.749898699317086 -12, 83.73828125 -12 M-83.73828125 -12 C-22.901598394535668 -12, 37.935084460928664 -12, 83.73828125 -12" stroke="#9370DB" stroke-width="1.3" fill="none" stroke-dasharray="0 0" style=""/></g><g class="divider" style=""><path d="M-83.73828125 36 C-21.123970045432372 36, 41.490341159135255 36, 83.73828125 36 M-83.73828125 36 C-23.028158437519103 36, 37.681964374961794 36, 83.73828125 36" stroke="#9370DB" stroke-width="1.3" fill="none" stroke-dasharray="0 0" style=""/></g></g><g class="node default" id="classId-EmailLogRepository-7" transform="translate(1733.65234375, 140)"><g class="basic label-container"><path d="M-146.53515625 -75 L146.53515625 -75 L146.53515625 75 L-146.53515625 75" stroke="none" stroke-width="0" fill="#ECECFF" style=""/><path d="M-146.53515625 -75 C-64.75558599124078 -75, 17.023984267518443 -75, 146.53515625 -75 M-146.53515625 -75 C-44.27556732248456 -75, 57.984021605030875 -75, 146.53515625 -75 M146.53515625 -75 C146.53515625 -31.98202485388007, 146.53515625 11.03595029223986, 146.53515625 75 M146.53515625 -75 C146.53515625 -17.31444720041884, 146.53515625 40.37110559916232, 146.53515625 75 M146.53515625 75 C64.5966568557064 75, -17.3418425385872 75, -146.53515625 75 M146.53515625 75 C35.41158901254181 75, -75.71197822491638 75, -146.53515625 75 M-146.53515625 75 C-146.53515625 38.16953989895391, -146.53515625 1.3390797979078144, -146.53515625 -75 M-146.53515625 75 C-146.53515625 22.401525990468535, -146.53515625 -30.19694801906293, -146.53515625 -75" stroke="#9370DB" stroke-width="1.3" fill="none" stroke-dasharray="0 0" style=""/></g><g class="annotation-group text" transform="translate(-41.171875, -51)"><g class="label" style="" transform="translate(0,-12)"><foreignObject width="82.34375" height="24"><div xmlns="http://www.w3.org/1999/xhtml" style="display: table-cell; white-space: nowrap; line-height: 1.5; max-width: 122px; text-align: center;"><span class="nodeLabel markdown-node-label" style=""><p>«interface»</p></span></div></foreignObject></g></g><g class="label-group text" transform="translate(-73.2890625, -27)"><g class="label" style="font-weight: bolder" transform="translate(0,-12)"><foreignObject width="146.578125" height="24"><div xmlns="http://www.w3.org/1999/xhtml" style="display: table-cell; white-space: nowrap; line-height: 1.5; max-width: 184px; text-align: center;"><span class="nodeLabel markdown-node-label" style=""><p>EmailLogRepository</p></span></div></foreignObject></g></g><g class="members-group text" transform="translate(-134.53515625, 21)"/><g class="methods-group text" transform="translate(-134.53515625, 51)"><g class="label" style="" transform="translate(0,-12)"><foreignObject width="195.78125" height="24"><div xmlns="http://www.w3.org/1999/xhtml" style="display: table-cell; white-space: nowrap; line-height: 1.5; max-width: 240px; text-align: center;"><span class="nodeLabel markdown-node-label" style=""><p>+save(emailLog) : EmailLog</p></span></div></foreignObject></g></g><g class="divider" style=""><path d="M-146.53515625 -3 C-63.635040147144366 -3, 19.265075955711268 -3, 146.53515625 -3 M-146.53515625 -3 C-76.49996301384313 -3, -6.464769777686257 -3, 146.53515625 -3" stroke="#9370DB" stroke-width="1.3" fill="none" stroke-dasharray="0 0" style=""/></g><g class="divider" style=""><path d="M-146.53515625 21 C-52.29344132084249 21, 41.94827360831502 21, 146.53515625 21 M-146.53515625 21 C-74.59439827960553 21, -2.653640309211056 21, 146.53515625 21" stroke="#9370DB" stroke-width="1.3" fill="none" stroke-dasharray="0 0" style=""/></g></g><g class="node default" id="classId-PushNotificationLogRepository-8" transform="translate(2175.27734375, 140)"><g class="basic label-container"><path d="M-245.08984375 -75 L245.08984375 -75 L245.08984375 75 L-245.08984375 75" stroke="none" stroke-width="0" fill="#ECECFF" style=""/><path d="M-245.08984375 -75 C-104.11621586964782 -75, 36.857412010704365 -75, 245.08984375 -75 M-245.08984375 -75 C-75.1331565132763 -75, 94.82353072344739 -75, 245.08984375 -75 M245.08984375 -75 C245.08984375 -38.030594763198835, 245.08984375 -1.0611895263976692, 245.08984375 75 M245.08984375 -75 C245.08984375 -23.736497577056966, 245.08984375 27.52700484588607, 245.08984375 75 M245.08984375 75 C70.07037724848573 75, -104.94908925302855 75, -245.08984375 75 M245.08984375 75 C103.24513340539846 75, -38.599576939203075 75, -245.08984375 75 M-245.08984375 75 C-245.08984375 30.62391906125847, -245.08984375 -13.752161877483061, -245.08984375 -75 M-245.08984375 75 C-245.08984375 19.813239434207112, -245.08984375 -35.373521131585775, -245.08984375 -75" stroke="#9370DB" stroke-width="1.3" fill="none" stroke-dasharray="0 0" style=""/></g><g class="annotation-group text" transform="translate(-41.171875, -51)"><g class="label" style="" transform="translate(0,-12)"><foreignObject width="82.34375" height="24"><div xmlns="http://www.w3.org/1999/xhtml" style="display: table-cell; white-space: nowrap; line-height: 1.5; max-width: 122px; text-align: center;"><span class="nodeLabel markdown-node-label" style=""><p>«interface»</p></span></div></foreignObject></g></g><g class="label-group text" transform="translate(-114.3984375, -27)"><g class="label" style="font-weight: bolder" transform="translate(0,-12)"><foreignObject width="228.796875" height="24"><div xmlns="http://www.w3.org/1999/xhtml" style="display: table-cell; white-space: nowrap; line-height: 1.5; max-width: 254px; text-align: center;"><span class="nodeLabel markdown-node-label" style=""><p>PushNotificationLogRepository</p></span></div></foreignObject></g></g><g class="members-group text" transform="translate(-233.08984375, 21)"/><g class="methods-group text" transform="translate(-233.08984375, 51)"><g class="label" style="" transform="translate(0,-12)"><foreignObject width="351.78125" height="24"><div xmlns="http://www.w3.org/1999/xhtml" style="display: table-cell; white-space: nowrap; line-height: 1.5; max-width: 383px; text-align: center;"><span class="nodeLabel markdown-node-label" style=""><p>+save(pushNotificationLog) : PushNotificationLog</p></span></div></foreignObject></g></g><g class="divider" style=""><path d="M-245.08984375 -3 C-99.60779816684754 -3, 45.87424741630491 -3, 245.08984375 -3 M-245.08984375 -3 C-58.158126467871995 -3, 128.773590814256 -3, 245.08984375 -3" stroke="#9370DB" stroke-width="1.3" fill="none" stroke-dasharray="0 0" style=""/></g><g class="divider" style=""><path d="M-245.08984375 21 C-136.30641555581792 21, -27.522987361635813 21, 245.08984375 21 M-245.08984375 21 C-140.97962422160938 21, -36.86940469321877 21, 245.08984375 21" stroke="#9370DB" stroke-width="1.3" fill="none" stroke-dasharray="0 0" style=""/></g></g></g></g></g></svg>