<svg id="my-svg" width="100%" xmlns="http://www.w3.org/2000/svg" xmlns:xlink="http://www.w3.org/1999/xlink" class="classDiagram" style="max-width: 667.666px; background-color: transparent;" viewBox="0 -48 667.666015625 506" role="graphics-document document" aria-roledescription="class"><style>#my-svg{font-family:"trebuchet ms",verdana,arial,sans-serif;font-size:16px;fill:#333;}@keyframes edge-animation-frame{from{stroke-dashoffset:0;}}@keyframes dash{to{stroke-dashoffset:0;}}#my-svg .edge-animation-slow{stroke-dasharray:9,5!important;stroke-dashoffset:900;animation:dash 50s linear infinite;stroke-linecap:round;}#my-svg .edge-animation-fast{stroke-dasharray:9,5!important;stroke-dashoffset:900;animation:dash 20s linear infinite;stroke-linecap:round;}#my-svg .error-icon{fill:#552222;}#my-svg .error-text{fill:#552222;stroke:#552222;}#my-svg .edge-thickness-normal{stroke-width:1px;}#my-svg .edge-thickness-thick{stroke-width:3.5px;}#my-svg .edge-pattern-solid{stroke-dasharray:0;}#my-svg .edge-thickness-invisible{stroke-width:0;fill:none;}#my-svg .edge-pattern-dashed{stroke-dasharray:3;}#my-svg .edge-pattern-dotted{stroke-dasharray:2;}#my-svg .marker{fill:#333333;stroke:#333333;}#my-svg .marker.cross{stroke:#333333;}#my-svg svg{font-family:"trebuchet ms",verdana,arial,sans-serif;font-size:16px;}#my-svg p{margin:0;}#my-svg g.classGroup text{fill:#9370DB;stroke:none;font-family:"trebuchet ms",verdana,arial,sans-serif;font-size:10px;}#my-svg g.classGroup text .title{font-weight:bolder;}#my-svg .nodeLabel,#my-svg .edgeLabel{color:#131300;}#my-svg .edgeLabel .label rect{fill:#ECECFF;}#my-svg .label text{fill:#131300;}#my-svg .labelBkg{background:#ECECFF;}#my-svg .edgeLabel .label span{background:#ECECFF;}#my-svg .classTitle{font-weight:bolder;}#my-svg .node rect,#my-svg .node circle,#my-svg .node ellipse,#my-svg .node polygon,#my-svg .node path{fill:#ECECFF;stroke:#9370DB;stroke-width:1px;}#my-svg .divider{stroke:#9370DB;stroke-width:1;}#my-svg g.clickable{cursor:pointer;}#my-svg g.classGroup rect{fill:#ECECFF;stroke:#9370DB;}#my-svg g.classGroup line{stroke:#9370DB;stroke-width:1;}#my-svg .classLabel .box{stroke:none;stroke-width:0;fill:#ECECFF;opacity:0.5;}#my-svg .classLabel .label{fill:#9370DB;font-size:10px;}#my-svg .relation{stroke:#333333;stroke-width:1;fill:none;}#my-svg .dashed-line{stroke-dasharray:3;}#my-svg .dotted-line{stroke-dasharray:1 2;}#my-svg #compositionStart,#my-svg .composition{fill:#333333!important;stroke:#333333!important;stroke-width:1;}#my-svg #compositionEnd,#my-svg .composition{fill:#333333!important;stroke:#333333!important;stroke-width:1;}#my-svg #dependencyStart,#my-svg .dependency{fill:#333333!important;stroke:#333333!important;stroke-width:1;}#my-svg #dependencyStart,#my-svg .dependency{fill:#333333!important;stroke:#333333!important;stroke-width:1;}#my-svg #extensionStart,#my-svg .extension{fill:transparent!important;stroke:#333333!important;stroke-width:1;}#my-svg #extensionEnd,#my-svg .extension{fill:transparent!important;stroke:#333333!important;stroke-width:1;}#my-svg #aggregationStart,#my-svg .aggregation{fill:transparent!important;stroke:#333333!important;stroke-width:1;}#my-svg #aggregationEnd,#my-svg .aggregation{fill:transparent!important;stroke:#333333!important;stroke-width:1;}#my-svg #lollipopStart,#my-svg .lollipop{fill:#ECECFF!important;stroke:#333333!important;stroke-width:1;}#my-svg #lollipopEnd,#my-svg .lollipop{fill:#ECECFF!important;stroke:#333333!important;stroke-width:1;}#my-svg .edgeTerminals{font-size:11px;line-height:initial;}#my-svg .classTitleText{text-anchor:middle;font-size:18px;fill:#333;}#my-svg .label-icon{display:inline-block;height:1em;overflow:visible;vertical-align:-0.125em;}#my-svg .node .label-icon path{fill:currentColor;stroke:revert;stroke-width:revert;}#my-svg :root{--mermaid-font-family:"trebuchet ms",verdana,arial,sans-serif;}</style><g><defs><marker id="my-svg_class-aggregationStart" class="marker aggregation class" refX="18" refY="7" markerWidth="190" markerHeight="240" orient="auto"><path d="M 18,7 L9,13 L1,7 L9,1 Z"/></marker></defs><defs><marker id="my-svg_class-aggregationEnd" class="marker aggregation class" refX="1" refY="7" markerWidth="20" markerHeight="28" orient="auto"><path d="M 18,7 L9,13 L1,7 L9,1 Z"/></marker></defs><defs><marker id="my-svg_class-extensionStart" class="marker extension class" refX="18" refY="7" markerWidth="190" markerHeight="240" orient="auto"><path d="M 1,7 L18,13 V 1 Z"/></marker></defs><defs><marker id="my-svg_class-extensionEnd" class="marker extension class" refX="1" refY="7" markerWidth="20" markerHeight="28" orient="auto"><path d="M 1,1 V 13 L18,7 Z"/></marker></defs><defs><marker id="my-svg_class-compositionStart" class="marker composition class" refX="18" refY="7" markerWidth="190" markerHeight="240" orient="auto"><path d="M 18,7 L9,13 L1,7 L9,1 Z"/></marker></defs><defs><marker id="my-svg_class-compositionEnd" class="marker composition class" refX="1" refY="7" markerWidth="20" markerHeight="28" orient="auto"><path d="M 18,7 L9,13 L1,7 L9,1 Z"/></marker></defs><defs><marker id="my-svg_class-dependencyStart" class="marker dependency class" refX="6" refY="7" markerWidth="190" markerHeight="240" orient="auto"><path d="M 5,7 L9,13 L1,7 L9,1 Z"/></marker></defs><defs><marker id="my-svg_class-dependencyEnd" class="marker dependency class" refX="13" refY="7" markerWidth="20" markerHeight="28" orient="auto"><path d="M 18,7 L9,13 L14,7 L9,1 Z"/></marker></defs><defs><marker id="my-svg_class-lollipopStart" class="marker lollipop class" refX="13" refY="7" markerWidth="190" markerHeight="240" orient="auto"><circle stroke="black" fill="transparent" cx="7" cy="7" r="6"/></marker></defs><defs><marker id="my-svg_class-lollipopEnd" class="marker lollipop class" refX="1" refY="7" markerWidth="190" markerHeight="240" orient="auto"><circle stroke="black" fill="transparent" cx="7" cy="7" r="6"/></marker></defs><g class="root"><g class="clusters"><g class="cluster undefined" id="infrastructure" data-look="classic"><rect style="fill:none !important;stroke:black !important" x="8" y="8" width="440.384765625" height="442"/><g class="cluster-label" transform="translate(178.4033203125, 8)"><foreignObject width="99.578125" height="24"><div xmlns="http://www.w3.org/1999/xhtml" style="display: table-cell; white-space: nowrap; line-height: 1.5; max-width: 200px; text-align: center;"><span class="nodeLabel"><p>infrastructure</p></span></div></foreignObject></g></g></g><g class="edgePaths"><path d="M282.952,159L287.613,165.167C292.273,171.333,301.595,183.667,333.413,203.693C365.232,223.72,419.547,251.439,446.705,265.299L473.863,279.159" id="id_NotificationHttpGateway_NotificationGateway_1" class="edge-thickness-normal edge-pattern-dashed relation" style=";;;" data-edge="true" data-et="edge" data-id="id_NotificationHttpGateway_NotificationGateway_1" data-points="W3sieCI6MjgyLjk1MjEwOTM3NSwieSI6MTU5fSx7IngiOjMxMC45MTYwMTU2MjUsInkiOjE5Nn0seyJ4Ijo0ODkuMjI3NjkzMjU2NTc4OTYsInkiOjI4N31d" marker-end="url(#my-svg_class-extensionEnd)"/><path d="M210.003,159L207.523,165.167C205.043,171.333,200.083,183.667,197.603,195C195.123,206.333,195.123,216.667,195.123,221.833L195.123,227" id="id_NotificationHttpGateway_PushNotificationLogResource_2" class="edge-thickness-normal edge-pattern-solid relation" style=";;;" data-edge="true" data-et="edge" data-id="id_NotificationHttpGateway_PushNotificationLogResource_2" data-points="W3sieCI6MjEwLjAwMjUzOTA2MjUsInkiOjE1OX0seyJ4IjoxOTUuMTIzMDQ2ODc1LCJ5IjoxOTZ9LHsieCI6MTk1LjEyMzA0Njg3NSwieSI6MjMzfV0=" marker-end="url(#my-svg_class-dependencyEnd)"/></g><g class="edgeLabels"><g class="edgeLabel" transform="translate(379.41684, 230.95887)"><g class="label" data-id="id_NotificationHttpGateway_NotificationGateway_1" transform="translate(-41.890625, -12)"><foreignObject width="83.78125" height="24"><div xmlns="http://www.w3.org/1999/xhtml" class="labelBkg" style="display: table-cell; white-space: nowrap; line-height: 1.5; max-width: 200px; text-align: center;"><span class="edgeLabel"><p>implements</p></span></div></foreignObject></g></g><g class="edgeLabel" transform="translate(195.123046875, 196)"><g class="label" data-id="id_NotificationHttpGateway_PushNotificationLogResource_2" transform="translate(-18.5390625, -12)"><foreignObject width="37.078125" height="24"><div xmlns="http://www.w3.org/1999/xhtml" class="labelBkg" style="display: table-cell; white-space: nowrap; line-height: 1.5; max-width: 200px; text-align: center;"><span class="edgeLabel"><p>maps</p></span></div></foreignObject></g></g></g><g class="nodes"><g class="node default" id="classId-NotificationHttpGateway-0" transform="translate(235.337890625, 96)"><g class="basic label-container"><path d="M-178.046875 -63 L178.046875 -63 L178.046875 63 L-178.046875 63" stroke="none" stroke-width="0" fill="#ECECFF" style=""/><path d="M-178.046875 -63 C-89.51762318602454 -63, -0.9883713720490732 -63, 178.046875 -63 M-178.046875 -63 C-52.79753829543593 -63, 72.45179840912814 -63, 178.046875 -63 M178.046875 -63 C178.046875 -19.53355311911455, 178.046875 23.9328937617709, 178.046875 63 M178.046875 -63 C178.046875 -36.20096238460306, 178.046875 -9.401924769206111, 178.046875 63 M178.046875 63 C105.97861734598 63, 33.91035969196 63, -178.046875 63 M178.046875 63 C38.35897261344434 63, -101.32892977311133 63, -178.046875 63 M-178.046875 63 C-178.046875 37.54049284466709, -178.046875 12.080985689334184, -178.046875 -63 M-178.046875 63 C-178.046875 21.431456502512383, -178.046875 -20.137086994975235, -178.046875 -63" stroke="#9370DB" stroke-width="1.3" fill="none" stroke-dasharray="0 0" style=""/></g><g class="annotation-group text" transform="translate(0, -39)"/><g class="label-group text" transform="translate(-92.609375, -39)"><g class="label" style="font-weight: bolder" transform="translate(0,-12)"><foreignObject width="185.21875" height="24"><div xmlns="http://www.w3.org/1999/xhtml" style="display: table-cell; white-space: nowrap; line-height: 1.5; max-width: 214px; text-align: center;"><span class="nodeLabel markdown-node-label" style=""><p>NotificationHttpGateway</p></span></div></foreignObject></g></g><g class="members-group text" transform="translate(-166.046875, 9)"/><g class="methods-group text" transform="translate(-166.046875, 39)"><g class="label" style="" transform="translate(0,-12)"><foreignObject width="239.484375" height="24"><div xmlns="http://www.w3.org/1999/xhtml" style="display: table-cell; white-space: nowrap; line-height: 1.5; max-width: 271px; text-align: center;"><span class="nodeLabel markdown-node-label" style=""><p>+getPushNotifications(page, size)</p></span></div></foreignObject></g></g><g class="divider" style=""><path d="M-178.046875 -15 C-51.57648823133252 -15, 74.89389853733496 -15, 178.046875 -15 M-178.046875 -15 C-45.702318556277476 -15, 86.64223788744505 -15, 178.046875 -15" stroke="#9370DB" stroke-width="1.3" fill="none" stroke-dasharray="0 0" style=""/></g><g class="divider" style=""><path d="M-178.046875 9 C-52.74423860348692 9, 72.55839779302616 9, 178.046875 9 M-178.046875 9 C-82.5221586928665 9, 13.002557614267005 9, 178.046875 9" stroke="#9370DB" stroke-width="1.3" fill="none" stroke-dasharray="0 0" style=""/></g></g><g class="node default" id="classId-PushNotificationLogResource-1" transform="translate(195.123046875, 329)"><g class="basic label-container"><path d="M-126.19921875 -96 L126.19921875 -96 L126.19921875 96 L-126.19921875 96" stroke="none" stroke-width="0" fill="#ECECFF" style=""/><path d="M-126.19921875 -96 C-65.00143674014507 -96, -3.80365473029012 -96, 126.19921875 -96 M-126.19921875 -96 C-45.0805603330743 -96, 36.038098083851395 -96, 126.19921875 -96 M126.19921875 -96 C126.19921875 -55.981950023650285, 126.19921875 -15.96390004730057, 126.19921875 96 M126.19921875 -96 C126.19921875 -26.64790928960153, 126.19921875 42.70418142079694, 126.19921875 96 M126.19921875 96 C64.26367132156503 96, 2.328123893130069 96, -126.19921875 96 M126.19921875 96 C68.22159127371097 96, 10.24396379742194 96, -126.19921875 96 M-126.19921875 96 C-126.19921875 44.72433094144175, -126.19921875 -6.551338117116501, -126.19921875 -96 M-126.19921875 96 C-126.19921875 41.360882815423054, -126.19921875 -13.278234369153893, -126.19921875 -96" stroke="#9370DB" stroke-width="1.3" fill="none" stroke-dasharray="0 0" style=""/></g><g class="annotation-group text" transform="translate(0, -72)"/><g class="label-group text" transform="translate(-108.8046875, -72)"><g class="label" style="font-weight: bolder" transform="translate(0,-12)"><foreignObject width="217.609375" height="24"><div xmlns="http://www.w3.org/1999/xhtml" style="display: table-cell; white-space: nowrap; line-height: 1.5; max-width: 244px; text-align: center;"><span class="nodeLabel markdown-node-label" style=""><p>PushNotificationLogResource</p></span></div></foreignObject></g></g><g class="members-group text" transform="translate(-114.19921875, -24)"><g class="label" style="" transform="translate(0,-12)"><foreignObject width="72.9375" height="24"><div xmlns="http://www.w3.org/1999/xhtml" style="display: table-cell; white-space: nowrap; line-height: 1.5; max-width: 121px; text-align: center;"><span class="nodeLabel markdown-node-label" style=""><p>+id: string</p></span></div></foreignObject></g><g class="label" style="" transform="translate(0,12)"><foreignObject width="90.15625" height="24"><div xmlns="http://www.w3.org/1999/xhtml" style="display: table-cell; white-space: nowrap; line-height: 1.5; max-width: 133px; text-align: center;"><span class="nodeLabel markdown-node-label" style=""><p>+title: string</p></span></div></foreignObject></g><g class="label" style="" transform="translate(0,36)"><foreignObject width="119.59375" height="24"><div xmlns="http://www.w3.org/1999/xhtml" style="display: table-cell; white-space: nowrap; line-height: 1.5; max-width: 163px; text-align: center;"><span class="nodeLabel markdown-node-label" style=""><p>+message: string</p></span></div></foreignObject></g><g class="label" style="" transform="translate(0,60)"><foreignObject width="112.890625" height="24"><div xmlns="http://www.w3.org/1999/xhtml" style="display: table-cell; white-space: nowrap; line-height: 1.5; max-width: 154px; text-align: center;"><span class="nodeLabel markdown-node-label" style=""><p>+sent_at: string</p></span></div></foreignObject></g></g><g class="methods-group text" transform="translate(-114.19921875, 96)"/><g class="divider" style=""><path d="M-126.19921875 -48 C-59.9806249142805 -48, 6.2379689214390055 -48, 126.19921875 -48 M-126.19921875 -48 C-26.616716776224948 -48, 72.9657851975501 -48, 126.19921875 -48" stroke="#9370DB" stroke-width="1.3" fill="none" stroke-dasharray="0 0" style=""/></g><g class="divider" style=""><path d="M-126.19921875 72 C-64.5086884306211 72, -2.8181581112422265 72, 126.19921875 72 M-126.19921875 72 C-29.211248609812472 72, 67.77672153037506 72, 126.19921875 72" stroke="#9370DB" stroke-width="1.3" fill="none" stroke-dasharray="0 0" style=""/></g></g><g class="node default" id="classId-NotificationGateway-2" transform="translate(571.525390625, 329)"><g class="basic label-container"><path d="M-88.140625 -42 L88.140625 -42 L88.140625 42 L-88.140625 42" stroke="none" stroke-width="0" fill="#ECECFF" style=""/><path d="M-88.140625 -42 C-40.34223261275193 -42, 7.456159774496143 -42, 88.140625 -42 M-88.140625 -42 C-44.176241508867115 -42, -0.21185801773422952 -42, 88.140625 -42 M88.140625 -42 C88.140625 -15.006758699928493, 88.140625 11.986482600143013, 88.140625 42 M88.140625 -42 C88.140625 -17.078691424129154, 88.140625 7.842617151741692, 88.140625 42 M88.140625 42 C22.320701847619475 42, -43.49922130476105 42, -88.140625 42 M88.140625 42 C44.80789874600426 42, 1.4751724920085252 42, -88.140625 42 M-88.140625 42 C-88.140625 18.91463154781743, -88.140625 -4.1707369043651425, -88.140625 -42 M-88.140625 42 C-88.140625 10.42458109021024, -88.140625 -21.15083781957952, -88.140625 -42" stroke="#9370DB" stroke-width="1.3" fill="none" stroke-dasharray="0 0" style=""/></g><g class="annotation-group text" transform="translate(0, -18)"/><g class="label-group text" transform="translate(-76.140625, -18)"><g class="label" style="font-weight: bolder" transform="translate(0,-12)"><foreignObject width="152.28125" height="24"><div xmlns="http://www.w3.org/1999/xhtml" style="display: table-cell; white-space: nowrap; line-height: 1.5; max-width: 185px; text-align: center;"><span class="nodeLabel markdown-node-label" style=""><p>NotificationGateway</p></span></div></foreignObject></g></g><g class="members-group text" transform="translate(-76.140625, 30)"/><g class="methods-group text" transform="translate(-76.140625, 60)"/><g class="divider" style=""><path d="M-88.140625 6 C-17.972069093288653 6, 52.196486813422695 6, 88.140625 6 M-88.140625 6 C-34.54074678343886 6, 19.059131433122275 6, 88.140625 6" stroke="#9370DB" stroke-width="1.3" fill="none" stroke-dasharray="0 0" style=""/></g><g class="divider" style=""><path d="M-88.140625 24 C-35.63382538656711 24, 16.87297422686578 24, 88.140625 24 M-88.140625 24 C-26.302784286765466 24, 35.53505642646907 24, 88.140625 24" stroke="#9370DB" stroke-width="1.3" fill="none" stroke-dasharray="0 0" style=""/></g></g></g></g></g><text text-anchor="middle" x="333.8330078125" y="-25" class="classDiagramTitleText">Infrastructure - Notifications</text></svg>