<svg id="my-svg" width="100%" xmlns="http://www.w3.org/2000/svg" xmlns:xlink="http://www.w3.org/1999/xlink" class="classDiagram" style="max-width: 884.809px; background-color: transparent;" viewBox="0 -48 884.80859375 580" role="graphics-document document" aria-roledescription="class"><style>#my-svg{font-family:"trebuchet ms",verdana,arial,sans-serif;font-size:16px;fill:#333;}@keyframes edge-animation-frame{from{stroke-dashoffset:0;}}@keyframes dash{to{stroke-dashoffset:0;}}#my-svg .edge-animation-slow{stroke-dasharray:9,5!important;stroke-dashoffset:900;animation:dash 50s linear infinite;stroke-linecap:round;}#my-svg .edge-animation-fast{stroke-dasharray:9,5!important;stroke-dashoffset:900;animation:dash 20s linear infinite;stroke-linecap:round;}#my-svg .error-icon{fill:#552222;}#my-svg .error-text{fill:#552222;stroke:#552222;}#my-svg .edge-thickness-normal{stroke-width:1px;}#my-svg .edge-thickness-thick{stroke-width:3.5px;}#my-svg .edge-pattern-solid{stroke-dasharray:0;}#my-svg .edge-thickness-invisible{stroke-width:0;fill:none;}#my-svg .edge-pattern-dashed{stroke-dasharray:3;}#my-svg .edge-pattern-dotted{stroke-dasharray:2;}#my-svg .marker{fill:#333333;stroke:#333333;}#my-svg .marker.cross{stroke:#333333;}#my-svg svg{font-family:"trebuchet ms",verdana,arial,sans-serif;font-size:16px;}#my-svg p{margin:0;}#my-svg g.classGroup text{fill:#9370DB;stroke:none;font-family:"trebuchet ms",verdana,arial,sans-serif;font-size:10px;}#my-svg g.classGroup text .title{font-weight:bolder;}#my-svg .nodeLabel,#my-svg .edgeLabel{color:#131300;}#my-svg .edgeLabel .label rect{fill:#ECECFF;}#my-svg .label text{fill:#131300;}#my-svg .labelBkg{background:#ECECFF;}#my-svg .edgeLabel .label span{background:#ECECFF;}#my-svg .classTitle{font-weight:bolder;}#my-svg .node rect,#my-svg .node circle,#my-svg .node ellipse,#my-svg .node polygon,#my-svg .node path{fill:#ECECFF;stroke:#9370DB;stroke-width:1px;}#my-svg .divider{stroke:#9370DB;stroke-width:1;}#my-svg g.clickable{cursor:pointer;}#my-svg g.classGroup rect{fill:#ECECFF;stroke:#9370DB;}#my-svg g.classGroup line{stroke:#9370DB;stroke-width:1;}#my-svg .classLabel .box{stroke:none;stroke-width:0;fill:#ECECFF;opacity:0.5;}#my-svg .classLabel .label{fill:#9370DB;font-size:10px;}#my-svg .relation{stroke:#333333;stroke-width:1;fill:none;}#my-svg .dashed-line{stroke-dasharray:3;}#my-svg .dotted-line{stroke-dasharray:1 2;}#my-svg #compositionStart,#my-svg .composition{fill:#333333!important;stroke:#333333!important;stroke-width:1;}#my-svg #compositionEnd,#my-svg .composition{fill:#333333!important;stroke:#333333!important;stroke-width:1;}#my-svg #dependencyStart,#my-svg .dependency{fill:#333333!important;stroke:#333333!important;stroke-width:1;}#my-svg #dependencyStart,#my-svg .dependency{fill:#333333!important;stroke:#333333!important;stroke-width:1;}#my-svg #extensionStart,#my-svg .extension{fill:transparent!important;stroke:#333333!important;stroke-width:1;}#my-svg #extensionEnd,#my-svg .extension{fill:transparent!important;stroke:#333333!important;stroke-width:1;}#my-svg #aggregationStart,#my-svg .aggregation{fill:transparent!important;stroke:#333333!important;stroke-width:1;}#my-svg #aggregationEnd,#my-svg .aggregation{fill:transparent!important;stroke:#333333!important;stroke-width:1;}#my-svg #lollipopStart,#my-svg .lollipop{fill:#ECECFF!important;stroke:#333333!important;stroke-width:1;}#my-svg #lollipopEnd,#my-svg .lollipop{fill:#ECECFF!important;stroke:#333333!important;stroke-width:1;}#my-svg .edgeTerminals{font-size:11px;line-height:initial;}#my-svg .classTitleText{text-anchor:middle;font-size:18px;fill:#333;}#my-svg .label-icon{display:inline-block;height:1em;overflow:visible;vertical-align:-0.125em;}#my-svg .node .label-icon path{fill:currentColor;stroke:revert;stroke-width:revert;}#my-svg :root{--mermaid-font-family:"trebuchet ms",verdana,arial,sans-serif;}</style><g><defs><marker id="my-svg_class-aggregationStart" class="marker aggregation class" refX="18" refY="7" markerWidth="190" markerHeight="240" orient="auto"><path d="M 18,7 L9,13 L1,7 L9,1 Z"/></marker></defs><defs><marker id="my-svg_class-aggregationEnd" class="marker aggregation class" refX="1" refY="7" markerWidth="20" markerHeight="28" orient="auto"><path d="M 18,7 L9,13 L1,7 L9,1 Z"/></marker></defs><defs><marker id="my-svg_class-extensionStart" class="marker extension class" refX="18" refY="7" markerWidth="190" markerHeight="240" orient="auto"><path d="M 1,7 L18,13 V 1 Z"/></marker></defs><defs><marker id="my-svg_class-extensionEnd" class="marker extension class" refX="1" refY="7" markerWidth="20" markerHeight="28" orient="auto"><path d="M 1,1 V 13 L18,7 Z"/></marker></defs><defs><marker id="my-svg_class-compositionStart" class="marker composition class" refX="18" refY="7" markerWidth="190" markerHeight="240" orient="auto"><path d="M 18,7 L9,13 L1,7 L9,1 Z"/></marker></defs><defs><marker id="my-svg_class-compositionEnd" class="marker composition class" refX="1" refY="7" markerWidth="20" markerHeight="28" orient="auto"><path d="M 18,7 L9,13 L1,7 L9,1 Z"/></marker></defs><defs><marker id="my-svg_class-dependencyStart" class="marker dependency class" refX="6" refY="7" markerWidth="190" markerHeight="240" orient="auto"><path d="M 5,7 L9,13 L1,7 L9,1 Z"/></marker></defs><defs><marker id="my-svg_class-dependencyEnd" class="marker dependency class" refX="13" refY="7" markerWidth="20" markerHeight="28" orient="auto"><path d="M 18,7 L9,13 L14,7 L9,1 Z"/></marker></defs><defs><marker id="my-svg_class-lollipopStart" class="marker lollipop class" refX="13" refY="7" markerWidth="190" markerHeight="240" orient="auto"><circle stroke="black" fill="transparent" cx="7" cy="7" r="6"/></marker></defs><defs><marker id="my-svg_class-lollipopEnd" class="marker lollipop class" refX="1" refY="7" markerWidth="190" markerHeight="240" orient="auto"><circle stroke="black" fill="transparent" cx="7" cy="7" r="6"/></marker></defs><g class="root"><g class="clusters"><g class="cluster undefined" id="interfaces" data-look="classic"><rect style="fill:none !important;stroke:black !important" x="8" y="166" width="859.416015625" height="200"/><g class="cluster-label" transform="translate(401.6845703125, 166)"><foreignObject width="72.046875" height="24"><div xmlns="http://www.w3.org/1999/xhtml" style="display: table-cell; white-space: nowrap; line-height: 1.5; max-width: 200px; text-align: center;"><span class="nodeLabel"><p>interfaces</p></span></div></foreignObject></g></g></g><g class="edgePaths"><path d="M226.262,92L226.262,98.167C226.262,104.333,226.262,116.667,226.262,129C226.262,141.333,226.262,153.667,226.262,161.125C226.262,168.583,226.262,171.167,226.262,172.458L226.262,173.75" id="id_NotificationsContextFacadeImpl_NotificationsContextFacade_1" class="edge-thickness-normal edge-pattern-dashed relation" style=";;;" data-edge="true" data-et="edge" data-id="id_NotificationsContextFacadeImpl_NotificationsContextFacade_1" data-points="W3sieCI6MjI2LjI2MTcxODc1LCJ5Ijo5Mn0seyJ4IjoyMjYuMjYxNzE4NzUsInkiOjEyOX0seyJ4IjoyMjYuMjYxNzE4NzUsInkiOjE2Nn0seyJ4IjoyMjYuMjYxNzE4NzUsInkiOjE5MX1d" marker-end="url(#my-svg_class-extensionEnd)"/><path d="M459.523,323.936L439.215,330.946C418.907,337.957,378.29,351.979,357.982,365.156C337.674,378.333,337.674,390.667,337.674,402C337.674,413.333,337.674,423.667,337.674,428.833L337.674,434" id="id_PushNotificationTransform_PushNotificationLog_2" class="edge-thickness-normal edge-pattern-solid relation" style=";;;" data-edge="true" data-et="edge" data-id="id_PushNotificationTransform_PushNotificationLog_2" data-points="W3sieCI6NDU5LjUyMzQzNzUsInkiOjMyMy45MzU1ODIxODA5MjgyfSx7IngiOjMzNy42NzM4MjgxMjUsInkiOjM2Nn0seyJ4IjozMzcuNjczODI4MTI1LCJ5Ijo0MDN9LHsieCI6MzM3LjY3MzgyODEyNSwieSI6NDQwfV0=" marker-end="url(#my-svg_class-dependencyEnd)"/><path d="M723.84,341L729.201,345.167C734.561,349.333,745.283,357.667,750.643,368C756.004,378.333,756.004,390.667,756.004,402C756.004,413.333,756.004,423.667,756.004,428.833L756.004,434" id="id_PushNotificationTransform_PushNotificationLogResource_3" class="edge-thickness-normal edge-pattern-solid relation" style=";;;" data-edge="true" data-et="edge" data-id="id_PushNotificationTransform_PushNotificationLogResource_3" data-points="W3sieCI6NzIzLjgzOTg0Mzc1LCJ5IjozNDF9LHsieCI6NzU2LjAwMzkwNjI1LCJ5IjozNjZ9LHsieCI6NzU2LjAwMzkwNjI1LCJ5Ijo0MDN9LHsieCI6NzU2LjAwMzkwNjI1LCJ5Ijo0NDB9XQ==" marker-end="url(#my-svg_class-dependencyEnd)"/></g><g class="edgeLabels"><g class="edgeLabel" transform="translate(226.26171875, 129)"><g class="label" data-id="id_NotificationsContextFacadeImpl_NotificationsContextFacade_1" transform="translate(-41.890625, -12)"><foreignObject width="83.78125" height="24"><div xmlns="http://www.w3.org/1999/xhtml" class="labelBkg" style="display: table-cell; white-space: nowrap; line-height: 1.5; max-width: 200px; text-align: center;"><span class="edgeLabel"><p>implements</p></span></div></foreignObject></g></g><g class="edgeLabel" transform="translate(337.673828125, 403)"><g class="label" data-id="id_PushNotificationTransform_PushNotificationLog_2" transform="translate(-28.4140625, -12)"><foreignObject width="56.828125" height="24"><div xmlns="http://www.w3.org/1999/xhtml" class="labelBkg" style="display: table-cell; white-space: nowrap; line-height: 1.5; max-width: 200px; text-align: center;"><span class="edgeLabel"><p>maps to</p></span></div></foreignObject></g></g><g class="edgeLabel" transform="translate(756.00390625, 403)"><g class="label" data-id="id_PushNotificationTransform_PushNotificationLogResource_3" transform="translate(-37.953125, -12)"><foreignObject width="75.90625" height="24"><div xmlns="http://www.w3.org/1999/xhtml" class="labelBkg" style="display: table-cell; white-space: nowrap; line-height: 1.5; max-width: 200px; text-align: center;"><span class="edgeLabel"><p>maps from</p></span></div></foreignObject></g></g></g><g class="nodes"><g class="node default" id="classId-NotificationsContextFacade-0" transform="translate(226.26171875, 266)"><g class="basic label-container"><path d="M-183.26171875 -75 L183.26171875 -75 L183.26171875 75 L-183.26171875 75" stroke="none" stroke-width="0" fill="#ECECFF" style=""/><path d="M-183.26171875 -75 C-105.70055826008988 -75, -28.139397770179755 -75, 183.26171875 -75 M-183.26171875 -75 C-47.137258861477676 -75, 88.98720102704465 -75, 183.26171875 -75 M183.26171875 -75 C183.26171875 -32.69879789301085, 183.26171875 9.602404213978303, 183.26171875 75 M183.26171875 -75 C183.26171875 -20.935301764547233, 183.26171875 33.12939647090553, 183.26171875 75 M183.26171875 75 C100.71733423672505 75, 18.172949723450103 75, -183.26171875 75 M183.26171875 75 C98.00596090534212 75, 12.750203060684242 75, -183.26171875 75 M-183.26171875 75 C-183.26171875 21.64647606836381, -183.26171875 -31.70704786327238, -183.26171875 -75 M-183.26171875 75 C-183.26171875 21.81627986101922, -183.26171875 -31.367440277961563, -183.26171875 -75" stroke="#9370DB" stroke-width="1.3" fill="none" stroke-dasharray="0 0" style=""/></g><g class="annotation-group text" transform="translate(-41.171875, -51)"><g class="label" style="" transform="translate(0,-12)"><foreignObject width="82.34375" height="24"><div xmlns="http://www.w3.org/1999/xhtml" style="display: table-cell; white-space: nowrap; line-height: 1.5; max-width: 122px; text-align: center;"><span class="nodeLabel markdown-node-label" style=""><p>«interface»</p></span></div></foreignObject></g></g><g class="label-group text" transform="translate(-103.0390625, -27)"><g class="label" style="font-weight: bolder" transform="translate(0,-12)"><foreignObject width="206.078125" height="24"><div xmlns="http://www.w3.org/1999/xhtml" style="display: table-cell; white-space: nowrap; line-height: 1.5; max-width: 231px; text-align: center;"><span class="nodeLabel markdown-node-label" style=""><p>NotificationsContextFacade</p></span></div></foreignObject></g></g><g class="members-group text" transform="translate(-171.26171875, 21)"/><g class="methods-group text" transform="translate(-171.26171875, 51)"><g class="label" style="" transform="translate(0,-12)"><foreignObject width="239.484375" height="24"><div xmlns="http://www.w3.org/1999/xhtml" style="display: table-cell; white-space: nowrap; line-height: 1.5; max-width: 271px; text-align: center;"><span class="nodeLabel markdown-node-label" style=""><p>+getPushNotifications(page, size)</p></span></div></foreignObject></g></g><g class="divider" style=""><path d="M-183.26171875 -3 C-74.15617076196929 -3, 34.949377226061415 -3, 183.26171875 -3 M-183.26171875 -3 C-46.787594575136865 -3, 89.68652959972627 -3, 183.26171875 -3" stroke="#9370DB" stroke-width="1.3" fill="none" stroke-dasharray="0 0" style=""/></g><g class="divider" style=""><path d="M-183.26171875 21 C-84.28431722377567 21, 14.693084302448653 21, 183.26171875 21 M-183.26171875 21 C-89.6839806180144 21, 3.8937575139711953 21, 183.26171875 21" stroke="#9370DB" stroke-width="1.3" fill="none" stroke-dasharray="0 0" style=""/></g></g><g class="node default" id="classId-PushNotificationTransform-1" transform="translate(627.34765625, 266)"><g class="basic label-container"><path d="M-167.82421875 -75 L167.82421875 -75 L167.82421875 75 L-167.82421875 75" stroke="none" stroke-width="0" fill="#ECECFF" style=""/><path d="M-167.82421875 -75 C-60.97241514639916 -75, 45.879388457201685 -75, 167.82421875 -75 M-167.82421875 -75 C-92.03374793962809 -75, -16.24327712925617 -75, 167.82421875 -75 M167.82421875 -75 C167.82421875 -25.246645072568356, 167.82421875 24.50670985486329, 167.82421875 75 M167.82421875 -75 C167.82421875 -34.25624584115869, 167.82421875 6.487508317682625, 167.82421875 75 M167.82421875 75 C63.567880908014786 75, -40.68845693397043 75, -167.82421875 75 M167.82421875 75 C92.7185796167555 75, 17.61294048351101 75, -167.82421875 75 M-167.82421875 75 C-167.82421875 17.537010906370213, -167.82421875 -39.925978187259574, -167.82421875 -75 M-167.82421875 75 C-167.82421875 40.67449593700196, -167.82421875 6.348991874003914, -167.82421875 -75" stroke="#9370DB" stroke-width="1.3" fill="none" stroke-dasharray="0 0" style=""/></g><g class="annotation-group text" transform="translate(-33.625, -51)"><g class="label" style="" transform="translate(0,-12)"><foreignObject width="67.25" height="24"><div xmlns="http://www.w3.org/1999/xhtml" style="display: table-cell; white-space: nowrap; line-height: 1.5; max-width: 111px; text-align: center;"><span class="nodeLabel markdown-node-label" style=""><p>«service»</p></span></div></foreignObject></g></g><g class="label-group text" transform="translate(-98.9921875, -27)"><g class="label" style="font-weight: bolder" transform="translate(0,-12)"><foreignObject width="197.984375" height="24"><div xmlns="http://www.w3.org/1999/xhtml" style="display: table-cell; white-space: nowrap; line-height: 1.5; max-width: 226px; text-align: center;"><span class="nodeLabel markdown-node-label" style=""><p>PushNotificationTransform</p></span></div></foreignObject></g></g><g class="members-group text" transform="translate(-155.82421875, 21)"/><g class="methods-group text" transform="translate(-155.82421875, 51)"><g class="label" style="" transform="translate(0,-12)"><foreignObject width="212.65625" height="24"><div xmlns="http://www.w3.org/1999/xhtml" style="display: table-cell; white-space: nowrap; line-height: 1.5; max-width: 251px; text-align: center;"><span class="nodeLabel markdown-node-label" style=""><p>+resourceToDomain(resource)</p></span></div></foreignObject></g></g><g class="divider" style=""><path d="M-167.82421875 -3 C-44.29914826721823 -3, 79.22592221556354 -3, 167.82421875 -3 M-167.82421875 -3 C-94.66462991480249 -3, -21.50504107960498 -3, 167.82421875 -3" stroke="#9370DB" stroke-width="1.3" fill="none" stroke-dasharray="0 0" style=""/></g><g class="divider" style=""><path d="M-167.82421875 21 C-69.9240594059179 21, 27.976099938164197 21, 167.82421875 21 M-167.82421875 21 C-71.2782434588062 21, 25.267731832387597 21, 167.82421875 21" stroke="#9370DB" stroke-width="1.3" fill="none" stroke-dasharray="0 0" style=""/></g></g><g class="node default" id="classId-NotificationsContextFacadeImpl-2" transform="translate(226.26171875, 50)"><g class="basic label-container"><path d="M-131.15625 -42 L131.15625 -42 L131.15625 42 L-131.15625 42" stroke="none" stroke-width="0" fill="#ECECFF" style=""/><path d="M-131.15625 -42 C-62.341059946330404 -42, 6.474130107339192 -42, 131.15625 -42 M-131.15625 -42 C-61.15532422698132 -42, 8.845601546037358 -42, 131.15625 -42 M131.15625 -42 C131.15625 -8.925362940440493, 131.15625 24.149274119119013, 131.15625 42 M131.15625 -42 C131.15625 -10.070584797590914, 131.15625 21.85883040481817, 131.15625 42 M131.15625 42 C65.1639604632709 42, -0.8283290734582067 42, -131.15625 42 M131.15625 42 C46.44138010357689 42, -38.27348979284622 42, -131.15625 42 M-131.15625 42 C-131.15625 13.084262670554043, -131.15625 -15.831474658891914, -131.15625 -42 M-131.15625 42 C-131.15625 22.2541271859526, -131.15625 2.5082543719052026, -131.15625 -42" stroke="#9370DB" stroke-width="1.3" fill="none" stroke-dasharray="0 0" style=""/></g><g class="annotation-group text" transform="translate(0, -18)"/><g class="label-group text" transform="translate(-119.15625, -18)"><g class="label" style="font-weight: bolder" transform="translate(0,-12)"><foreignObject width="238.3125" height="24"><div xmlns="http://www.w3.org/1999/xhtml" style="display: table-cell; white-space: nowrap; line-height: 1.5; max-width: 261px; text-align: center;"><span class="nodeLabel markdown-node-label" style=""><p>NotificationsContextFacadeImpl</p></span></div></foreignObject></g></g><g class="members-group text" transform="translate(-119.15625, 30)"/><g class="methods-group text" transform="translate(-119.15625, 60)"/><g class="divider" style=""><path d="M-131.15625 6 C-50.15936219295244 6, 30.837525614095114 6, 131.15625 6 M-131.15625 6 C-44.741482129567245 6, 41.67328574086551 6, 131.15625 6" stroke="#9370DB" stroke-width="1.3" fill="none" stroke-dasharray="0 0" style=""/></g><g class="divider" style=""><path d="M-131.15625 24 C-54.47467002671897 24, 22.206909946562064 24, 131.15625 24 M-131.15625 24 C-32.74790936404929 24, 65.66043127190142 24, 131.15625 24" stroke="#9370DB" stroke-width="1.3" fill="none" stroke-dasharray="0 0" style=""/></g></g><g class="node default" id="classId-PushNotificationLog-3" transform="translate(337.673828125, 482)"><g class="basic label-container"><path d="M-86.5078125 -42 L86.5078125 -42 L86.5078125 42 L-86.5078125 42" stroke="none" stroke-width="0" fill="#ECECFF" style=""/><path d="M-86.5078125 -42 C-24.1152647597333 -42, 38.2772829805334 -42, 86.5078125 -42 M-86.5078125 -42 C-48.95507343157809 -42, -11.402334363156186 -42, 86.5078125 -42 M86.5078125 -42 C86.5078125 -20.692749077374845, 86.5078125 0.6145018452503095, 86.5078125 42 M86.5078125 -42 C86.5078125 -17.037459829451375, 86.5078125 7.9250803410972495, 86.5078125 42 M86.5078125 42 C47.19850901868044 42, 7.88920553736088 42, -86.5078125 42 M86.5078125 42 C38.04336790256981 42, -10.421076694860375 42, -86.5078125 42 M-86.5078125 42 C-86.5078125 22.313668436580567, -86.5078125 2.627336873161134, -86.5078125 -42 M-86.5078125 42 C-86.5078125 19.721468467743545, -86.5078125 -2.55706306451291, -86.5078125 -42" stroke="#9370DB" stroke-width="1.3" fill="none" stroke-dasharray="0 0" style=""/></g><g class="annotation-group text" transform="translate(0, -18)"/><g class="label-group text" transform="translate(-74.5078125, -18)"><g class="label" style="font-weight: bolder" transform="translate(0,-12)"><foreignObject width="149.015625" height="24"><div xmlns="http://www.w3.org/1999/xhtml" style="display: table-cell; white-space: nowrap; line-height: 1.5; max-width: 184px; text-align: center;"><span class="nodeLabel markdown-node-label" style=""><p>PushNotificationLog</p></span></div></foreignObject></g></g><g class="members-group text" transform="translate(-74.5078125, 30)"/><g class="methods-group text" transform="translate(-74.5078125, 60)"/><g class="divider" style=""><path d="M-86.5078125 6 C-25.432095093953684 6, 35.64362231209263 6, 86.5078125 6 M-86.5078125 6 C-50.66502979595273 6, -14.822247091905453 6, 86.5078125 6" stroke="#9370DB" stroke-width="1.3" fill="none" stroke-dasharray="0 0" style=""/></g><g class="divider" style=""><path d="M-86.5078125 24 C-26.475805708034585 24, 33.55620108393083 24, 86.5078125 24 M-86.5078125 24 C-19.29868064764949 24, 47.91045120470102 24, 86.5078125 24" stroke="#9370DB" stroke-width="1.3" fill="none" stroke-dasharray="0 0" style=""/></g></g><g class="node default" id="classId-PushNotificationLogResource-4" transform="translate(756.00390625, 482)"><g class="basic label-container"><path d="M-120.8046875 -42 L120.8046875 -42 L120.8046875 42 L-120.8046875 42" stroke="none" stroke-width="0" fill="#ECECFF" style=""/><path d="M-120.8046875 -42 C-72.16006382044826 -42, -23.515440140896516 -42, 120.8046875 -42 M-120.8046875 -42 C-46.05351164632066 -42, 28.697664207358685 -42, 120.8046875 -42 M120.8046875 -42 C120.8046875 -12.171275820031646, 120.8046875 17.65744835993671, 120.8046875 42 M120.8046875 -42 C120.8046875 -24.125283648811457, 120.8046875 -6.250567297622915, 120.8046875 42 M120.8046875 42 C34.910417674886105 42, -50.98385215022779 42, -120.8046875 42 M120.8046875 42 C70.88584874837755 42, 20.967009996755095 42, -120.8046875 42 M-120.8046875 42 C-120.8046875 12.593423898829744, -120.8046875 -16.81315220234051, -120.8046875 -42 M-120.8046875 42 C-120.8046875 13.33476072412251, -120.8046875 -15.330478551754979, -120.8046875 -42" stroke="#9370DB" stroke-width="1.3" fill="none" stroke-dasharray="0 0" style=""/></g><g class="annotation-group text" transform="translate(0, -18)"/><g class="label-group text" transform="translate(-108.8046875, -18)"><g class="label" style="font-weight: bolder" transform="translate(0,-12)"><foreignObject width="217.609375" height="24"><div xmlns="http://www.w3.org/1999/xhtml" style="display: table-cell; white-space: nowrap; line-height: 1.5; max-width: 244px; text-align: center;"><span class="nodeLabel markdown-node-label" style=""><p>PushNotificationLogResource</p></span></div></foreignObject></g></g><g class="members-group text" transform="translate(-108.8046875, 30)"/><g class="methods-group text" transform="translate(-108.8046875, 60)"/><g class="divider" style=""><path d="M-120.8046875 6 C-29.79914343223328 6, 61.20640063553344 6, 120.8046875 6 M-120.8046875 6 C-67.02905385059914 6, -13.253420201198281 6, 120.8046875 6" stroke="#9370DB" stroke-width="1.3" fill="none" stroke-dasharray="0 0" style=""/></g><g class="divider" style=""><path d="M-120.8046875 24 C-31.763776130707143 24, 57.277135238585714 24, 120.8046875 24 M-120.8046875 24 C-64.9842688060032 24, -9.163850112006415 24, 120.8046875 24" stroke="#9370DB" stroke-width="1.3" fill="none" stroke-dasharray="0 0" style=""/></g></g></g></g></g><text text-anchor="middle" x="442.404296875" y="-25" class="classDiagramTitleText">Interfaces - Notifications</text></svg>