<svg id="my-svg" width="100%" xmlns="http://www.w3.org/2000/svg" xmlns:xlink="http://www.w3.org/1999/xlink" class="classDiagram" style="max-width: 2345.97px; background-color: transparent;" viewBox="0 -48 2345.974609375 470" role="graphics-document document" aria-roledescription="class"><style>#my-svg{font-family:"trebuchet ms",verdana,arial,sans-serif;font-size:16px;fill:#333;}@keyframes edge-animation-frame{from{stroke-dashoffset:0;}}@keyframes dash{to{stroke-dashoffset:0;}}#my-svg .edge-animation-slow{stroke-dasharray:9,5!important;stroke-dashoffset:900;animation:dash 50s linear infinite;stroke-linecap:round;}#my-svg .edge-animation-fast{stroke-dasharray:9,5!important;stroke-dashoffset:900;animation:dash 20s linear infinite;stroke-linecap:round;}#my-svg .error-icon{fill:#552222;}#my-svg .error-text{fill:#552222;stroke:#552222;}#my-svg .edge-thickness-normal{stroke-width:1px;}#my-svg .edge-thickness-thick{stroke-width:3.5px;}#my-svg .edge-pattern-solid{stroke-dasharray:0;}#my-svg .edge-thickness-invisible{stroke-width:0;fill:none;}#my-svg .edge-pattern-dashed{stroke-dasharray:3;}#my-svg .edge-pattern-dotted{stroke-dasharray:2;}#my-svg .marker{fill:#333333;stroke:#333333;}#my-svg .marker.cross{stroke:#333333;}#my-svg svg{font-family:"trebuchet ms",verdana,arial,sans-serif;font-size:16px;}#my-svg p{margin:0;}#my-svg g.classGroup text{fill:#9370DB;stroke:none;font-family:"trebuchet ms",verdana,arial,sans-serif;font-size:10px;}#my-svg g.classGroup text .title{font-weight:bolder;}#my-svg .nodeLabel,#my-svg .edgeLabel{color:#131300;}#my-svg .edgeLabel .label rect{fill:#ECECFF;}#my-svg .label text{fill:#131300;}#my-svg .labelBkg{background:#ECECFF;}#my-svg .edgeLabel .label span{background:#ECECFF;}#my-svg .classTitle{font-weight:bolder;}#my-svg .node rect,#my-svg .node circle,#my-svg .node ellipse,#my-svg .node polygon,#my-svg .node path{fill:#ECECFF;stroke:#9370DB;stroke-width:1px;}#my-svg .divider{stroke:#9370DB;stroke-width:1;}#my-svg g.clickable{cursor:pointer;}#my-svg g.classGroup rect{fill:#ECECFF;stroke:#9370DB;}#my-svg g.classGroup line{stroke:#9370DB;stroke-width:1;}#my-svg .classLabel .box{stroke:none;stroke-width:0;fill:#ECECFF;opacity:0.5;}#my-svg .classLabel .label{fill:#9370DB;font-size:10px;}#my-svg .relation{stroke:#333333;stroke-width:1;fill:none;}#my-svg .dashed-line{stroke-dasharray:3;}#my-svg .dotted-line{stroke-dasharray:1 2;}#my-svg #compositionStart,#my-svg .composition{fill:#333333!important;stroke:#333333!important;stroke-width:1;}#my-svg #compositionEnd,#my-svg .composition{fill:#333333!important;stroke:#333333!important;stroke-width:1;}#my-svg #dependencyStart,#my-svg .dependency{fill:#333333!important;stroke:#333333!important;stroke-width:1;}#my-svg #dependencyStart,#my-svg .dependency{fill:#333333!important;stroke:#333333!important;stroke-width:1;}#my-svg #extensionStart,#my-svg .extension{fill:transparent!important;stroke:#333333!important;stroke-width:1;}#my-svg #extensionEnd,#my-svg .extension{fill:transparent!important;stroke:#333333!important;stroke-width:1;}#my-svg #aggregationStart,#my-svg .aggregation{fill:transparent!important;stroke:#333333!important;stroke-width:1;}#my-svg #aggregationEnd,#my-svg .aggregation{fill:transparent!important;stroke:#333333!important;stroke-width:1;}#my-svg #lollipopStart,#my-svg .lollipop{fill:#ECECFF!important;stroke:#333333!important;stroke-width:1;}#my-svg #lollipopEnd,#my-svg .lollipop{fill:#ECECFF!important;stroke:#333333!important;stroke-width:1;}#my-svg .edgeTerminals{font-size:11px;line-height:initial;}#my-svg .classTitleText{text-anchor:middle;font-size:18px;fill:#333;}#my-svg .label-icon{display:inline-block;height:1em;overflow:visible;vertical-align:-0.125em;}#my-svg .node .label-icon path{fill:currentColor;stroke:revert;stroke-width:revert;}#my-svg :root{--mermaid-font-family:"trebuchet ms",verdana,arial,sans-serif;}</style><g><defs><marker id="my-svg_class-aggregationStart" class="marker aggregation class" refX="18" refY="7" markerWidth="190" markerHeight="240" orient="auto"><path d="M 18,7 L9,13 L1,7 L9,1 Z"/></marker></defs><defs><marker id="my-svg_class-aggregationEnd" class="marker aggregation class" refX="1" refY="7" markerWidth="20" markerHeight="28" orient="auto"><path d="M 18,7 L9,13 L1,7 L9,1 Z"/></marker></defs><defs><marker id="my-svg_class-extensionStart" class="marker extension class" refX="18" refY="7" markerWidth="190" markerHeight="240" orient="auto"><path d="M 1,7 L18,13 V 1 Z"/></marker></defs><defs><marker id="my-svg_class-extensionEnd" class="marker extension class" refX="1" refY="7" markerWidth="20" markerHeight="28" orient="auto"><path d="M 1,1 V 13 L18,7 Z"/></marker></defs><defs><marker id="my-svg_class-compositionStart" class="marker composition class" refX="18" refY="7" markerWidth="190" markerHeight="240" orient="auto"><path d="M 18,7 L9,13 L1,7 L9,1 Z"/></marker></defs><defs><marker id="my-svg_class-compositionEnd" class="marker composition class" refX="1" refY="7" markerWidth="20" markerHeight="28" orient="auto"><path d="M 18,7 L9,13 L1,7 L9,1 Z"/></marker></defs><defs><marker id="my-svg_class-dependencyStart" class="marker dependency class" refX="6" refY="7" markerWidth="190" markerHeight="240" orient="auto"><path d="M 5,7 L9,13 L1,7 L9,1 Z"/></marker></defs><defs><marker id="my-svg_class-dependencyEnd" class="marker dependency class" refX="13" refY="7" markerWidth="20" markerHeight="28" orient="auto"><path d="M 18,7 L9,13 L14,7 L9,1 Z"/></marker></defs><defs><marker id="my-svg_class-lollipopStart" class="marker lollipop class" refX="13" refY="7" markerWidth="190" markerHeight="240" orient="auto"><circle stroke="black" fill="transparent" cx="7" cy="7" r="6"/></marker></defs><defs><marker id="my-svg_class-lollipopEnd" class="marker lollipop class" refX="1" refY="7" markerWidth="190" markerHeight="240" orient="auto"><circle stroke="black" fill="transparent" cx="7" cy="7" r="6"/></marker></defs><g class="root"><g class="clusters"><g class="cluster undefined" id="application" data-look="classic"><rect style="fill:none !important;stroke:black !important" x="69.7421875" y="8" width="2015.107421875" height="248"/><g class="cluster-label" transform="translate(1037.2568359375, 8)"><foreignObject width="80.078125" height="24"><div xmlns="http://www.w3.org/1999/xhtml" style="display: table-cell; white-space: nowrap; line-height: 1.5; max-width: 200px; text-align: center;"><span class="nodeLabel"><p>application</p></span></div></foreignObject></g></g></g><g class="edgePaths"><path d="M861.354,207L856.301,215.167C851.247,223.333,841.139,239.667,836.085,254C831.031,268.333,831.031,280.667,831.031,290.125C831.031,299.583,831.031,306.167,831.031,309.458L831.031,312.75" id="id_DeviceQueryServiceImpl_DeviceQueryService_1" class="edge-thickness-normal edge-pattern-dashed relation" style=";;;" data-edge="true" data-et="edge" data-id="id_DeviceQueryServiceImpl_DeviceQueryService_1" data-points="W3sieCI6ODYxLjM1NDQ3NjQzNjQ5MiwieSI6MjA3fSx7IngiOjgzMS4wMzEyNSwieSI6MjU2fSx7IngiOjgzMS4wMzEyNSwieSI6MjkzfSx7IngiOjgzMS4wMzEyNSwieSI6MzMwfV0=" marker-end="url(#my-svg_class-extensionEnd)"/><path d="M240.365,209.238L218.595,217.031C196.824,224.825,153.283,240.413,131.513,254.373C109.742,268.333,109.742,280.667,109.742,290.125C109.742,299.583,109.742,306.167,109.742,309.458L109.742,312.75" id="id_DeviceCommandServiceImpl_DeviceCommandService_2" class="edge-thickness-normal edge-pattern-dashed relation" style=";;;" data-edge="true" data-et="edge" data-id="id_DeviceCommandServiceImpl_DeviceCommandService_2" data-points="W3sieCI6MjQwLjM2NTIzNDM3NSwieSI6MjA5LjIzNzUzNDA0NDE5NjgyfSx7IngiOjEwOS43NDIxODc1LCJ5IjoyNTZ9LHsieCI6MTA5Ljc0MjE4NzUsInkiOjI5M30seyJ4IjoxMDkuNzQyMTg3NSwieSI6MzMwfV0=" marker-end="url(#my-svg_class-extensionEnd)"/><path d="M2228.912,174L2228.912,187.667C2228.912,201.333,2228.912,228.667,2228.912,248.5C2228.912,268.333,2228.912,280.667,2228.912,290.125C2228.912,299.583,2228.912,306.167,2228.912,309.458L2228.912,312.75" id="id_DeviceContextFacadeImpl_DeviceContextFacade_3" class="edge-thickness-normal edge-pattern-dashed relation" style=";;;" data-edge="true" data-et="edge" data-id="id_DeviceContextFacadeImpl_DeviceContextFacade_3" data-points="W3sieCI6MjIyOC45MTIxMDkzNzUsInkiOjE3NH0seyJ4IjoyMjI4LjkxMjEwOTM3NSwieSI6MjU2fSx7IngiOjIyMjguOTEyMTA5Mzc1LCJ5IjoyOTN9LHsieCI6MjIyOC45MTIxMDkzNzUsInkiOjMzMH1d" marker-end="url(#my-svg_class-extensionEnd)"/><path d="M721.865,179.168L671.396,191.973C620.927,204.779,519.989,230.389,469.52,249.361C419.051,268.333,419.051,280.667,412.92,292.332C406.79,303.998,394.528,314.996,388.398,320.495L382.267,325.994" id="id_DeviceQueryServiceImpl_DeviceGateway_4" class="edge-thickness-normal edge-pattern-solid relation" style=";;;" data-edge="true" data-et="edge" data-id="id_DeviceQueryServiceImpl_DeviceGateway_4" data-points="W3sieCI6NzIxLjg2NTIzNDM3NSwieSI6MTc5LjE2ODE5Nzk2NzQxMzA1fSx7IngiOjQxOS4wNTA3ODEyNSwieSI6MjU2fSx7IngiOjQxOS4wNTA3ODEyNSwieSI6MjkzfSx7IngiOjM3Ny44MDA4MzA2OTYyMDI1LCJ5IjozMzB9XQ==" marker-end="url(#my-svg_class-dependencyEnd)"/><path d="M298.669,231L292.043,235.167C285.416,239.333,272.163,247.667,265.537,258C258.91,268.333,258.91,280.667,263.862,292.261C268.813,303.856,278.716,314.712,283.668,320.139L288.619,325.567" id="id_DeviceCommandServiceImpl_DeviceGateway_5" class="edge-thickness-normal edge-pattern-solid relation" style=";;;" data-edge="true" data-et="edge" data-id="id_DeviceCommandServiceImpl_DeviceGateway_5" data-points="W3sieCI6Mjk4LjY2OTI0NDU4MTY1MzIzLCJ5IjoyMzF9LHsieCI6MjU4LjkxMDE1NjI1LCJ5IjoyNTZ9LHsieCI6MjU4LjkxMDE1NjI1LCJ5IjoyOTN9LHsieCI6MjkyLjY2Mjc3Njg5ODczNDIsInkiOjMzMH1d" marker-end="url(#my-svg_class-dependencyEnd)"/><path d="M1093.67,177.824L1146.528,190.854C1199.385,203.883,1305.101,229.941,1357.959,249.137C1410.816,268.333,1410.816,280.667,1405.017,292.313C1399.218,303.96,1387.619,314.919,1381.82,320.399L1376.02,325.879" id="id_DeviceQueryServiceImpl_DeviceTransform_6" class="edge-thickness-normal edge-pattern-solid relation" style=";;;" data-edge="true" data-et="edge" data-id="id_DeviceQueryServiceImpl_DeviceTransform_6" data-points="W3sieCI6MTA5My42Njk5MjE4NzUsInkiOjE3Ny44MjQzNjAwNTQ1MTEzN30seyJ4IjoxNDEwLjgxNjQwNjI1LCJ5IjoyNTZ9LHsieCI6MTQxMC44MTY0MDYyNSwieSI6MjkzfSx7IngiOjEzNzEuNjU5NDE0NTU2OTYyLCJ5IjozMzB9XQ==" marker-end="url(#my-svg_class-dependencyEnd)"/><path d="M671.865,165.297L769.818,180.414C867.771,195.531,1063.676,225.766,1161.629,247.049C1259.582,268.333,1259.582,280.667,1264.211,292.24C1268.839,303.814,1278.097,314.628,1282.726,320.035L1287.354,325.442" id="id_DeviceCommandServiceImpl_DeviceTransform_7" class="edge-thickness-normal edge-pattern-solid relation" style=";;;" data-edge="true" data-et="edge" data-id="id_DeviceCommandServiceImpl_DeviceTransform_7" data-points="W3sieCI6NjcxLjg2NTIzNDM3NSwieSI6MTY1LjI5Njk1Nzc2MzU5NzY3fSx7IngiOjEyNTkuNTgyMDMxMjUsInkiOjI1Nn0seyJ4IjoxMjU5LjU4MjAzMTI1LCJ5IjoyOTN9LHsieCI6MTI5MS4yNTYzMjkxMTM5MjQsInkiOjMzMH1d" marker-end="url(#my-svg_class-dependencyEnd)"/><path d="M548.586,231L552.478,235.167C556.37,239.333,564.154,247.667,568.046,258C571.938,268.333,571.938,280.667,571.938,292C571.938,303.333,571.938,313.667,571.938,318.833L571.938,324" id="id_DeviceCommandServiceImpl_CreateOrganizationCommand_8" class="edge-thickness-normal edge-pattern-solid relation" style=";;;" data-edge="true" data-et="edge" data-id="id_DeviceCommandServiceImpl_CreateOrganizationCommand_8" data-points="W3sieCI6NTQ4LjU4NjIzNjc2OTE1MzIsInkiOjIzMX0seyJ4Ijo1NzEuOTM3NSwieSI6MjU2fSx7IngiOjU3MS45Mzc1LCJ5IjoyOTN9LHsieCI6NTcxLjkzNzUsInkiOjMzMH1d" marker-end="url(#my-svg_class-dependencyEnd)"/><path d="M1093.67,167.385L1171.264,182.154C1248.858,196.923,1404.046,226.462,1481.64,247.397C1559.234,268.333,1559.234,280.667,1559.234,292C1559.234,303.333,1559.234,313.667,1559.234,318.833L1559.234,324" id="id_DeviceQueryServiceImpl_GetDevicesBySpaceQuery_9" class="edge-thickness-normal edge-pattern-solid relation" style=";;;" data-edge="true" data-et="edge" data-id="id_DeviceQueryServiceImpl_GetDevicesBySpaceQuery_9" data-points="W3sieCI6MTA5My42Njk5MjE4NzUsInkiOjE2Ny4zODQ1OTc4NTc1OTg5OH0seyJ4IjoxNTU5LjIzNDM3NSwieSI6MjU2fSx7IngiOjE1NTkuMjM0Mzc1LCJ5IjoyOTN9LHsieCI6MTU1OS4yMzQzNzUsInkiOjMzMH1d" marker-end="url(#my-svg_class-dependencyEnd)"/></g><g class="edgeLabels"><g class="edgeLabel" transform="translate(831.03125, 293)"><g class="label" data-id="id_DeviceQueryServiceImpl_DeviceQueryService_1" transform="translate(-41.890625, -12)"><foreignObject width="83.78125" height="24"><div xmlns="http://www.w3.org/1999/xhtml" class="labelBkg" style="display: table-cell; white-space: nowrap; line-height: 1.5; max-width: 200px; text-align: center;"><span class="edgeLabel"><p>implements</p></span></div></foreignObject></g></g><g class="edgeLabel" transform="translate(109.7421875, 293)"><g class="label" data-id="id_DeviceCommandServiceImpl_DeviceCommandService_2" transform="translate(-41.890625, -12)"><foreignObject width="83.78125" height="24"><div xmlns="http://www.w3.org/1999/xhtml" class="labelBkg" style="display: table-cell; white-space: nowrap; line-height: 1.5; max-width: 200px; text-align: center;"><span class="edgeLabel"><p>implements</p></span></div></foreignObject></g></g><g class="edgeLabel" transform="translate(2228.912109375, 293)"><g class="label" data-id="id_DeviceContextFacadeImpl_DeviceContextFacade_3" transform="translate(-41.890625, -12)"><foreignObject width="83.78125" height="24"><div xmlns="http://www.w3.org/1999/xhtml" class="labelBkg" style="display: table-cell; white-space: nowrap; line-height: 1.5; max-width: 200px; text-align: center;"><span class="edgeLabel"><p>implements</p></span></div></foreignObject></g></g><g class="edgeLabel" transform="translate(419.05078125, 293)"><g class="label" data-id="id_DeviceQueryServiceImpl_DeviceGateway_4" transform="translate(-15.2109375, -12)"><foreignObject width="30.421875" height="24"><div xmlns="http://www.w3.org/1999/xhtml" class="labelBkg" style="display: table-cell; white-space: nowrap; line-height: 1.5; max-width: 200px; text-align: center;"><span class="edgeLabel"><p>uses</p></span></div></foreignObject></g></g><g class="edgeLabel" transform="translate(258.91015625, 293)"><g class="label" data-id="id_DeviceCommandServiceImpl_DeviceGateway_5" transform="translate(-15.2109375, -12)"><foreignObject width="30.421875" height="24"><div xmlns="http://www.w3.org/1999/xhtml" class="labelBkg" style="display: table-cell; white-space: nowrap; line-height: 1.5; max-width: 200px; text-align: center;"><span class="edgeLabel"><p>uses</p></span></div></foreignObject></g></g><g class="edgeLabel" transform="translate(1410.81640625, 293)"><g class="label" data-id="id_DeviceQueryServiceImpl_DeviceTransform_6" transform="translate(-15.2109375, -12)"><foreignObject width="30.421875" height="24"><div xmlns="http://www.w3.org/1999/xhtml" class="labelBkg" style="display: table-cell; white-space: nowrap; line-height: 1.5; max-width: 200px; text-align: center;"><span class="edgeLabel"><p>uses</p></span></div></foreignObject></g></g><g class="edgeLabel" transform="translate(1259.58203125, 293)"><g class="label" data-id="id_DeviceCommandServiceImpl_DeviceTransform_7" transform="translate(-15.2109375, -12)"><foreignObject width="30.421875" height="24"><div xmlns="http://www.w3.org/1999/xhtml" class="labelBkg" style="display: table-cell; white-space: nowrap; line-height: 1.5; max-width: 200px; text-align: center;"><span class="edgeLabel"><p>uses</p></span></div></foreignObject></g></g><g class="edgeLabel" transform="translate(571.9375, 293)"><g class="label" data-id="id_DeviceCommandServiceImpl_CreateOrganizationCommand_8" transform="translate(-29.6015625, -12)"><foreignObject width="59.203125" height="24"><div xmlns="http://www.w3.org/1999/xhtml" class="labelBkg" style="display: table-cell; white-space: nowrap; line-height: 1.5; max-width: 200px; text-align: center;"><span class="edgeLabel"><p>receives</p></span></div></foreignObject></g></g><g class="edgeLabel" transform="translate(1559.234375, 293)"><g class="label" data-id="id_DeviceQueryServiceImpl_GetDevicesBySpaceQuery_9" transform="translate(-29.6015625, -12)"><foreignObject width="59.203125" height="24"><div xmlns="http://www.w3.org/1999/xhtml" class="labelBkg" style="display: table-cell; white-space: nowrap; line-height: 1.5; max-width: 200px; text-align: center;"><span class="edgeLabel"><p>receives</p></span></div></foreignObject></g></g></g><g class="nodes"><g class="node default" id="classId-DeviceCommandServiceImpl-0" transform="translate(456.115234375, 132)"><g class="basic label-container"><path d="M-215.75 -99 L215.75 -99 L215.75 99 L-215.75 99" stroke="none" stroke-width="0" fill="#ECECFF" style=""/><path d="M-215.75 -99 C-58.35865528643831 -99, 99.03268942712339 -99, 215.75 -99 M-215.75 -99 C-116.99565579487692 -99, -18.24131158975385 -99, 215.75 -99 M215.75 -99 C215.75 -44.66172611678634, 215.75 9.67654776642732, 215.75 99 M215.75 -99 C215.75 -51.819724905176066, 215.75 -4.639449810352133, 215.75 99 M215.75 99 C66.40612586559217 99, -82.93774826881565 99, -215.75 99 M215.75 99 C84.26603583236866 99, -47.217928335262684 99, -215.75 99 M-215.75 99 C-215.75 29.577629447657642, -215.75 -39.844741104684715, -215.75 -99 M-215.75 99 C-215.75 39.291397156794496, -215.75 -20.41720568641101, -215.75 -99" stroke="#9370DB" stroke-width="1.3" fill="none" stroke-dasharray="0 0" style=""/></g><g class="annotation-group text" transform="translate(0, -75)"/><g class="label-group text" transform="translate(-105.859375, -75)"><g class="label" style="font-weight: bolder" transform="translate(0,-12)"><foreignObject width="211.71875" height="24"><div xmlns="http://www.w3.org/1999/xhtml" style="display: table-cell; white-space: nowrap; line-height: 1.5; max-width: 241px; text-align: center;"><span class="nodeLabel markdown-node-label" style=""><p>DeviceCommandServiceImpl</p></span></div></foreignObject></g></g><g class="members-group text" transform="translate(-203.75, -27)"/><g class="methods-group text" transform="translate(-203.75, 3)"><g class="label" style="" transform="translate(0,-12)"><foreignObject width="276.5" height="24"><div xmlns="http://www.w3.org/1999/xhtml" style="display: table-cell; white-space: nowrap; line-height: 1.5; max-width: 305px; text-align: center;"><span class="nodeLabel markdown-node-label" style=""><p>+handleCreateOrganization(command)</p></span></div></foreignObject></g><g class="label" style="" transform="translate(0,12)"><foreignObject width="225.65625" height="24"><div xmlns="http://www.w3.org/1999/xhtml" style="display: table-cell; white-space: nowrap; line-height: 1.5; max-width: 264px; text-align: center;"><span class="nodeLabel markdown-node-label" style=""><p>+handleClaimDevice(command)</p></span></div></foreignObject></g><g class="label" style="" transform="translate(0,36)"><foreignObject width="212.46875" height="24"><div xmlns="http://www.w3.org/1999/xhtml" style="display: table-cell; white-space: nowrap; line-height: 1.5; max-width: 251px; text-align: center;"><span class="nodeLabel markdown-node-label" style=""><p>+handlePairDevice(command)</p></span></div></foreignObject></g><g class="label" style="" transform="translate(0,60)"><foreignObject width="301.640625" height="24"><div xmlns="http://www.w3.org/1999/xhtml" style="display: table-cell; white-space: nowrap; line-height: 1.5; max-width: 334px; text-align: center;"><span class="nodeLabel markdown-node-label" style=""><p>+handleQueueDeviceCommand(command)</p></span></div></foreignObject></g></g><g class="divider" style=""><path d="M-215.75 -51 C-46.85567750834491 -51, 122.03864498331018 -51, 215.75 -51 M-215.75 -51 C-67.03937771602563 -51, 81.67124456794875 -51, 215.75 -51" stroke="#9370DB" stroke-width="1.3" fill="none" stroke-dasharray="0 0" style=""/></g><g class="divider" style=""><path d="M-215.75 -27 C-61.84924185344954 -27, 92.05151629310092 -27, 215.75 -27 M-215.75 -27 C-112.27413965477784 -27, -8.798279309555681 -27, 215.75 -27" stroke="#9370DB" stroke-width="1.3" fill="none" stroke-dasharray="0 0" style=""/></g></g><g class="node default" id="classId-DeviceQueryServiceImpl-1" transform="translate(907.767578125, 132)"><g class="basic label-container"><path d="M-185.90234375 -75 L185.90234375 -75 L185.90234375 75 L-185.90234375 75" stroke="none" stroke-width="0" fill="#ECECFF" style=""/><path d="M-185.90234375 -75 C-67.06493804048334 -75, 51.77246766903332 -75, 185.90234375 -75 M-185.90234375 -75 C-80.2283989789468 -75, 25.4455457921064 -75, 185.90234375 -75 M185.90234375 -75 C185.90234375 -21.894946655278282, 185.90234375 31.210106689443435, 185.90234375 75 M185.90234375 -75 C185.90234375 -37.45458317149918, 185.90234375 0.09083365700163881, 185.90234375 75 M185.90234375 75 C38.58012878652164 75, -108.74208617695672 75, -185.90234375 75 M185.90234375 75 C68.64402849514178 75, -48.614286759716435 75, -185.90234375 75 M-185.90234375 75 C-185.90234375 24.813690591896723, -185.90234375 -25.372618816206554, -185.90234375 -75 M-185.90234375 75 C-185.90234375 35.16512992550542, -185.90234375 -4.669740148989163, -185.90234375 -75" stroke="#9370DB" stroke-width="1.3" fill="none" stroke-dasharray="0 0" style=""/></g><g class="annotation-group text" transform="translate(0, -51)"/><g class="label-group text" transform="translate(-91.7421875, -51)"><g class="label" style="font-weight: bolder" transform="translate(0,-12)"><foreignObject width="183.484375" height="24"><div xmlns="http://www.w3.org/1999/xhtml" style="display: table-cell; white-space: nowrap; line-height: 1.5; max-width: 214px; text-align: center;"><span class="nodeLabel markdown-node-label" style=""><p>DeviceQueryServiceImpl</p></span></div></foreignObject></g></g><g class="members-group text" transform="translate(-173.90234375, -3)"/><g class="methods-group text" transform="translate(-173.90234375, 27)"><g class="label" style="" transform="translate(0,-12)"><foreignObject width="247.453125" height="24"><div xmlns="http://www.w3.org/1999/xhtml" style="display: table-cell; white-space: nowrap; line-height: 1.5; max-width: 285px; text-align: center;"><span class="nodeLabel markdown-node-label" style=""><p>+handleGetDevicesBySpace(query)</p></span></div></foreignObject></g><g class="label" style="" transform="translate(0,12)"><foreignObject width="256.0625" height="24"><div xmlns="http://www.w3.org/1999/xhtml" style="display: table-cell; white-space: nowrap; line-height: 1.5; max-width: 292px; text-align: center;"><span class="nodeLabel markdown-node-label" style=""><p>+handleGetOrganizationById(query)</p></span></div></foreignObject></g></g><g class="divider" style=""><path d="M-185.90234375 -27 C-73.71269053383507 -27, 38.476962682329855 -27, 185.90234375 -27 M-185.90234375 -27 C-87.76215488835001 -27, 10.378033973299978 -27, 185.90234375 -27" stroke="#9370DB" stroke-width="1.3" fill="none" stroke-dasharray="0 0" style=""/></g><g class="divider" style=""><path d="M-185.90234375 -3 C-74.78910544243466 -3, 36.32413286513068 -3, 185.90234375 -3 M-185.90234375 -3 C-41.653059545027276 -3, 102.59622465994545 -3, 185.90234375 -3" stroke="#9370DB" stroke-width="1.3" fill="none" stroke-dasharray="0 0" style=""/></g></g><g class="node default" id="classId-DeviceThresholdCommandServiceImpl-2" transform="translate(1357.099609375, 132)"><g class="basic label-container"><path d="M-213.4296875 -75 L213.4296875 -75 L213.4296875 75 L-213.4296875 75" stroke="none" stroke-width="0" fill="#ECECFF" style=""/><path d="M-213.4296875 -75 C-67.8728566509059 -75, 77.6839741981882 -75, 213.4296875 -75 M-213.4296875 -75 C-80.957824333725 -75, 51.51403883255 -75, 213.4296875 -75 M213.4296875 -75 C213.4296875 -28.93824257656319, 213.4296875 17.12351484687362, 213.4296875 75 M213.4296875 -75 C213.4296875 -33.44581585602654, 213.4296875 8.108368287946917, 213.4296875 75 M213.4296875 75 C96.07837003223091 75, -21.272947435538185 75, -213.4296875 75 M213.4296875 75 C118.55185325447289 75, 23.674019008945777 75, -213.4296875 75 M-213.4296875 75 C-213.4296875 24.187784260074586, -213.4296875 -26.624431479850827, -213.4296875 -75 M-213.4296875 75 C-213.4296875 42.8412852273551, -213.4296875 10.682570454710202, -213.4296875 -75" stroke="#9370DB" stroke-width="1.3" fill="none" stroke-dasharray="0 0" style=""/></g><g class="annotation-group text" transform="translate(0, -51)"/><g class="label-group text" transform="translate(-143.234375, -51)"><g class="label" style="font-weight: bolder" transform="translate(0,-12)"><foreignObject width="286.46875" height="24"><div xmlns="http://www.w3.org/1999/xhtml" style="display: table-cell; white-space: nowrap; line-height: 1.5; max-width: 306px; text-align: center;"><span class="nodeLabel markdown-node-label" style=""><p>DeviceThresholdCommandServiceImpl</p></span></div></foreignObject></g></g><g class="members-group text" transform="translate(-201.4296875, -3)"/><g class="methods-group text" transform="translate(-201.4296875, 27)"><g class="label" style="" transform="translate(0,-12)"><foreignObject width="255.9375" height="24"><div xmlns="http://www.w3.org/1999/xhtml" style="display: table-cell; white-space: nowrap; line-height: 1.5; max-width: 287px; text-align: center;"><span class="nodeLabel markdown-node-label" style=""><p>+handleCreateThreshold(command)</p></span></div></foreignObject></g><g class="label" style="" transform="translate(0,12)"><foreignObject width="259.625" height="24"><div xmlns="http://www.w3.org/1999/xhtml" style="display: table-cell; white-space: nowrap; line-height: 1.5; max-width: 291px; text-align: center;"><span class="nodeLabel markdown-node-label" style=""><p>+handleUpdateThreshold(command)</p></span></div></foreignObject></g></g><g class="divider" style=""><path d="M-213.4296875 -27 C-121.85210152324879 -27, -30.274515546497582 -27, 213.4296875 -27 M-213.4296875 -27 C-108.70513499443643 -27, -3.9805824888728694 -27, 213.4296875 -27" stroke="#9370DB" stroke-width="1.3" fill="none" stroke-dasharray="0 0" style=""/></g><g class="divider" style=""><path d="M-213.4296875 -3 C-122.66065501925154 -3, -31.89162253850307 -3, 213.4296875 -3 M-213.4296875 -3 C-43.90746115118182 -3, 125.61476519763636 -3, 213.4296875 -3" stroke="#9370DB" stroke-width="1.3" fill="none" stroke-dasharray="0 0" style=""/></g></g><g class="node default" id="classId-DeviceThresholdQueryServiceImpl-3" transform="translate(1835.189453125, 132)"><g class="basic label-container"><path d="M-214.66015625 -63 L214.66015625 -63 L214.66015625 63 L-214.66015625 63" stroke="none" stroke-width="0" fill="#ECECFF" style=""/><path d="M-214.66015625 -63 C-124.48705188179093 -63, -34.313947513581866 -63, 214.66015625 -63 M-214.66015625 -63 C-117.07382132477255 -63, -19.487486399545105 -63, 214.66015625 -63 M214.66015625 -63 C214.66015625 -25.882479111906967, 214.66015625 11.235041776186065, 214.66015625 63 M214.66015625 -63 C214.66015625 -20.80537373738006, 214.66015625 21.389252525239883, 214.66015625 63 M214.66015625 63 C86.69610039855938 63, -41.26795545288124 63, -214.66015625 63 M214.66015625 63 C76.36385325565803 63, -61.93244973868394 63, -214.66015625 63 M-214.66015625 63 C-214.66015625 30.73569966583984, -214.66015625 -1.5286006683203226, -214.66015625 -63 M-214.66015625 63 C-214.66015625 21.557449721840023, -214.66015625 -19.885100556319955, -214.66015625 -63" stroke="#9370DB" stroke-width="1.3" fill="none" stroke-dasharray="0 0" style=""/></g><g class="annotation-group text" transform="translate(0, -39)"/><g class="label-group text" transform="translate(-129.1171875, -39)"><g class="label" style="font-weight: bolder" transform="translate(0,-12)"><foreignObject width="258.234375" height="24"><div xmlns="http://www.w3.org/1999/xhtml" style="display: table-cell; white-space: nowrap; line-height: 1.5; max-width: 279px; text-align: center;"><span class="nodeLabel markdown-node-label" style=""><p>DeviceThresholdQueryServiceImpl</p></span></div></foreignObject></g></g><g class="members-group text" transform="translate(-202.66015625, 9)"/><g class="methods-group text" transform="translate(-202.66015625, 39)"><g class="label" style="" transform="translate(0,-12)"><foreignObject width="276.203125" height="24"><div xmlns="http://www.w3.org/1999/xhtml" style="display: table-cell; white-space: nowrap; line-height: 1.5; max-width: 311px; text-align: center;"><span class="nodeLabel markdown-node-label" style=""><p>+handleGetThresholdsByDevice(query)</p></span></div></foreignObject></g></g><g class="divider" style=""><path d="M-214.66015625 -15 C-57.82817049258617 -15, 99.00381526482767 -15, 214.66015625 -15 M-214.66015625 -15 C-109.1636352372756 -15, -3.6671142245511987 -15, 214.66015625 -15" stroke="#9370DB" stroke-width="1.3" fill="none" stroke-dasharray="0 0" style=""/></g><g class="divider" style=""><path d="M-214.66015625 9 C-78.26916587843354 9, 58.12182449313292 9, 214.66015625 9 M-214.66015625 9 C-85.88598433857754 9, 42.88818757284491 9, 214.66015625 9" stroke="#9370DB" stroke-width="1.3" fill="none" stroke-dasharray="0 0" style=""/></g></g><g class="node default" id="classId-DeviceQueryService-4" transform="translate(831.03125, 372)"><g class="basic label-container"><path d="M-87.625 -42 L87.625 -42 L87.625 42 L-87.625 42" stroke="none" stroke-width="0" fill="#ECECFF" style=""/><path d="M-87.625 -42 C-37.670111588841635 -42, 12.28477682231673 -42, 87.625 -42 M-87.625 -42 C-30.43491051026855 -42, 26.755178979462897 -42, 87.625 -42 M87.625 -42 C87.625 -14.818230108390658, 87.625 12.363539783218684, 87.625 42 M87.625 -42 C87.625 -9.546205287644206, 87.625 22.90758942471159, 87.625 42 M87.625 42 C27.900091666242524 42, -31.824816667514952 42, -87.625 42 M87.625 42 C39.2372704747942 42, -9.150459050411598 42, -87.625 42 M-87.625 42 C-87.625 13.569326500684163, -87.625 -14.861346998631674, -87.625 -42 M-87.625 42 C-87.625 9.364207095708267, -87.625 -23.271585808583467, -87.625 -42" stroke="#9370DB" stroke-width="1.3" fill="none" stroke-dasharray="0 0" style=""/></g><g class="annotation-group text" transform="translate(0, -18)"/><g class="label-group text" transform="translate(-75.625, -18)"><g class="label" style="font-weight: bolder" transform="translate(0,-12)"><foreignObject width="151.25" height="24"><div xmlns="http://www.w3.org/1999/xhtml" style="display: table-cell; white-space: nowrap; line-height: 1.5; max-width: 183px; text-align: center;"><span class="nodeLabel markdown-node-label" style=""><p>DeviceQueryService</p></span></div></foreignObject></g></g><g class="members-group text" transform="translate(-75.625, 30)"/><g class="methods-group text" transform="translate(-75.625, 60)"/><g class="divider" style=""><path d="M-87.625 6 C-27.689394616053626 6, 32.24621076789275 6, 87.625 6 M-87.625 6 C-21.27950818129993 6, 45.06598363740014 6, 87.625 6" stroke="#9370DB" stroke-width="1.3" fill="none" stroke-dasharray="0 0" style=""/></g><g class="divider" style=""><path d="M-87.625 24 C-20.08865088618596 24, 47.44769822762808 24, 87.625 24 M-87.625 24 C-46.67935736379801 24, -5.733714727596023 24, 87.625 24" stroke="#9370DB" stroke-width="1.3" fill="none" stroke-dasharray="0 0" style=""/></g></g><g class="node default" id="classId-DeviceCommandService-5" transform="translate(109.7421875, 372)"><g class="basic label-container"><path d="M-101.7421875 -42 L101.7421875 -42 L101.7421875 42 L-101.7421875 42" stroke="none" stroke-width="0" fill="#ECECFF" style=""/><path d="M-101.7421875 -42 C-55.46527761605404 -42, -9.188367732108077 -42, 101.7421875 -42 M-101.7421875 -42 C-46.971240106084345 -42, 7.7997072878313105 -42, 101.7421875 -42 M101.7421875 -42 C101.7421875 -23.915427418765578, 101.7421875 -5.830854837531156, 101.7421875 42 M101.7421875 -42 C101.7421875 -24.858832675006973, 101.7421875 -7.717665350013945, 101.7421875 42 M101.7421875 42 C23.583087126044504 42, -54.57601324791099 42, -101.7421875 42 M101.7421875 42 C47.27051447994953 42, -7.201158540100934 42, -101.7421875 42 M-101.7421875 42 C-101.7421875 13.689762005885374, -101.7421875 -14.620475988229252, -101.7421875 -42 M-101.7421875 42 C-101.7421875 12.099820469071048, -101.7421875 -17.800359061857904, -101.7421875 -42" stroke="#9370DB" stroke-width="1.3" fill="none" stroke-dasharray="0 0" style=""/></g><g class="annotation-group text" transform="translate(0, -18)"/><g class="label-group text" transform="translate(-89.7421875, -18)"><g class="label" style="font-weight: bolder" transform="translate(0,-12)"><foreignObject width="179.484375" height="24"><div xmlns="http://www.w3.org/1999/xhtml" style="display: table-cell; white-space: nowrap; line-height: 1.5; max-width: 210px; text-align: center;"><span class="nodeLabel markdown-node-label" style=""><p>DeviceCommandService</p></span></div></foreignObject></g></g><g class="members-group text" transform="translate(-89.7421875, 30)"/><g class="methods-group text" transform="translate(-89.7421875, 60)"/><g class="divider" style=""><path d="M-101.7421875 6 C-56.00577124902084 6, -10.269354998041678 6, 101.7421875 6 M-101.7421875 6 C-32.580671275005486 6, 36.58084494998903 6, 101.7421875 6" stroke="#9370DB" stroke-width="1.3" fill="none" stroke-dasharray="0 0" style=""/></g><g class="divider" style=""><path d="M-101.7421875 24 C-30.12670963570632 24, 41.48876822858736 24, 101.7421875 24 M-101.7421875 24 C-56.88721418737842 24, -12.032240874756837 24, 101.7421875 24" stroke="#9370DB" stroke-width="1.3" fill="none" stroke-dasharray="0 0" style=""/></g></g><g class="node default" id="classId-DeviceContextFacade-6" transform="translate(2228.912109375, 372)"><g class="basic label-container"><path d="M-92.9453125 -42 L92.9453125 -42 L92.9453125 42 L-92.9453125 42" stroke="none" stroke-width="0" fill="#ECECFF" style=""/><path d="M-92.9453125 -42 C-24.67611838345968 -42, 43.59307573308064 -42, 92.9453125 -42 M-92.9453125 -42 C-51.950073956432576 -42, -10.954835412865151 -42, 92.9453125 -42 M92.9453125 -42 C92.9453125 -10.931966011811884, 92.9453125 20.136067976376232, 92.9453125 42 M92.9453125 -42 C92.9453125 -14.838026057240477, 92.9453125 12.323947885519047, 92.9453125 42 M92.9453125 42 C50.78661241037817 42, 8.627912320756337 42, -92.9453125 42 M92.9453125 42 C45.426722988689285 42, -2.09186652262143 42, -92.9453125 42 M-92.9453125 42 C-92.9453125 20.01528280018557, -92.9453125 -1.9694343996288595, -92.9453125 -42 M-92.9453125 42 C-92.9453125 9.106587400746626, -92.9453125 -23.786825198506747, -92.9453125 -42" stroke="#9370DB" stroke-width="1.3" fill="none" stroke-dasharray="0 0" style=""/></g><g class="annotation-group text" transform="translate(0, -18)"/><g class="label-group text" transform="translate(-80.9453125, -18)"><g class="label" style="font-weight: bolder" transform="translate(0,-12)"><foreignObject width="161.890625" height="24"><div xmlns="http://www.w3.org/1999/xhtml" style="display: table-cell; white-space: nowrap; line-height: 1.5; max-width: 191px; text-align: center;"><span class="nodeLabel markdown-node-label" style=""><p>DeviceContextFacade</p></span></div></foreignObject></g></g><g class="members-group text" transform="translate(-80.9453125, 30)"/><g class="methods-group text" transform="translate(-80.9453125, 60)"/><g class="divider" style=""><path d="M-92.9453125 6 C-31.88566777341724 6, 29.17397695316552 6, 92.9453125 6 M-92.9453125 6 C-38.70796635018097 6, 15.529379799638065 6, 92.9453125 6" stroke="#9370DB" stroke-width="1.3" fill="none" stroke-dasharray="0 0" style=""/></g><g class="divider" style=""><path d="M-92.9453125 24 C-38.88472996248577 24, 15.175852575028458 24, 92.9453125 24 M-92.9453125 24 C-21.928565516164326 24, 49.08818146767135 24, 92.9453125 24" stroke="#9370DB" stroke-width="1.3" fill="none" stroke-dasharray="0 0" style=""/></g></g><g class="node default" id="classId-DeviceGateway-7" transform="translate(330.9765625, 372)"><g class="basic label-container"><path d="M-69.4921875 -42 L69.4921875 -42 L69.4921875 42 L-69.4921875 42" stroke="none" stroke-width="0" fill="#ECECFF" style=""/><path d="M-69.4921875 -42 C-19.233291898339793 -42, 31.025603703320414 -42, 69.4921875 -42 M-69.4921875 -42 C-31.77687719851498 -42, 5.938433102970038 -42, 69.4921875 -42 M69.4921875 -42 C69.4921875 -8.672054786929316, 69.4921875 24.65589042614137, 69.4921875 42 M69.4921875 -42 C69.4921875 -22.95709194769076, 69.4921875 -3.9141838953815196, 69.4921875 42 M69.4921875 42 C32.943242911723836 42, -3.6057016765523286 42, -69.4921875 42 M69.4921875 42 C37.424419081023544 42, 5.3566506620470875 42, -69.4921875 42 M-69.4921875 42 C-69.4921875 17.56354230400283, -69.4921875 -6.87291539199434, -69.4921875 -42 M-69.4921875 42 C-69.4921875 9.600545951595912, -69.4921875 -22.798908096808177, -69.4921875 -42" stroke="#9370DB" stroke-width="1.3" fill="none" stroke-dasharray="0 0" style=""/></g><g class="annotation-group text" transform="translate(0, -18)"/><g class="label-group text" transform="translate(-57.4921875, -18)"><g class="label" style="font-weight: bolder" transform="translate(0,-12)"><foreignObject width="114.984375" height="24"><div xmlns="http://www.w3.org/1999/xhtml" style="display: table-cell; white-space: nowrap; line-height: 1.5; max-width: 152px; text-align: center;"><span class="nodeLabel markdown-node-label" style=""><p>DeviceGateway</p></span></div></foreignObject></g></g><g class="members-group text" transform="translate(-57.4921875, 30)"/><g class="methods-group text" transform="translate(-57.4921875, 60)"/><g class="divider" style=""><path d="M-69.4921875 6 C-32.649646771376176 6, 4.192893957247648 6, 69.4921875 6 M-69.4921875 6 C-36.29901334486918 6, -3.1058391897383615 6, 69.4921875 6" stroke="#9370DB" stroke-width="1.3" fill="none" stroke-dasharray="0 0" style=""/></g><g class="divider" style=""><path d="M-69.4921875 24 C-31.085952794930336 24, 7.320281910139329 24, 69.4921875 24 M-69.4921875 24 C-34.8950650253361 24, -0.29794255067220377 24, 69.4921875 24" stroke="#9370DB" stroke-width="1.3" fill="none" stroke-dasharray="0 0" style=""/></g></g><g class="node default" id="classId-DeviceTransform-8" transform="translate(1327.2109375, 372)"><g class="basic label-container"><path d="M-74.734375 -42 L74.734375 -42 L74.734375 42 L-74.734375 42" stroke="none" stroke-width="0" fill="#ECECFF" style=""/><path d="M-74.734375 -42 C-32.374012861016936 -42, 9.986349277966127 -42, 74.734375 -42 M-74.734375 -42 C-17.29474240840701 -42, 40.14489018318598 -42, 74.734375 -42 M74.734375 -42 C74.734375 -25.197670469241714, 74.734375 -8.395340938483429, 74.734375 42 M74.734375 -42 C74.734375 -13.86689480359533, 74.734375 14.266210392809342, 74.734375 42 M74.734375 42 C27.302571562561788 42, -20.129231874876425 42, -74.734375 42 M74.734375 42 C23.30251747835888 42, -28.12934004328224 42, -74.734375 42 M-74.734375 42 C-74.734375 10.469656910643362, -74.734375 -21.060686178713276, -74.734375 -42 M-74.734375 42 C-74.734375 14.533780477657576, -74.734375 -12.932439044684848, -74.734375 -42" stroke="#9370DB" stroke-width="1.3" fill="none" stroke-dasharray="0 0" style=""/></g><g class="annotation-group text" transform="translate(0, -18)"/><g class="label-group text" transform="translate(-62.734375, -18)"><g class="label" style="font-weight: bolder" transform="translate(0,-12)"><foreignObject width="125.46875" height="24"><div xmlns="http://www.w3.org/1999/xhtml" style="display: table-cell; white-space: nowrap; line-height: 1.5; max-width: 163px; text-align: center;"><span class="nodeLabel markdown-node-label" style=""><p>DeviceTransform</p></span></div></foreignObject></g></g><g class="members-group text" transform="translate(-62.734375, 30)"/><g class="methods-group text" transform="translate(-62.734375, 60)"/><g class="divider" style=""><path d="M-74.734375 6 C-38.43682152365311 6, -2.139268047306217 6, 74.734375 6 M-74.734375 6 C-23.838568476851655 6, 27.05723804629669 6, 74.734375 6" stroke="#9370DB" stroke-width="1.3" fill="none" stroke-dasharray="0 0" style=""/></g><g class="divider" style=""><path d="M-74.734375 24 C-27.61668730470626 24, 19.50100039058748 24, 74.734375 24 M-74.734375 24 C-29.63396335717001 24, 15.466448285659979 24, 74.734375 24" stroke="#9370DB" stroke-width="1.3" fill="none" stroke-dasharray="0 0" style=""/></g></g><g class="node default" id="classId-CreateOrganizationCommand-9" transform="translate(571.9375, 372)"><g class="basic label-container"><path d="M-121.46875 -42 L121.46875 -42 L121.46875 42 L-121.46875 42" stroke="none" stroke-width="0" fill="#ECECFF" style=""/><path d="M-121.46875 -42 C-66.95447494818077 -42, -12.440199896361534 -42, 121.46875 -42 M-121.46875 -42 C-69.52664281455387 -42, -17.584535629107734 -42, 121.46875 -42 M121.46875 -42 C121.46875 -17.02597679287981, 121.46875 7.94804641424038, 121.46875 42 M121.46875 -42 C121.46875 -10.20356529831557, 121.46875 21.59286940336886, 121.46875 42 M121.46875 42 C71.7526309210764 42, 22.036511842152805 42, -121.46875 42 M121.46875 42 C36.49296796091545 42, -48.4828140781691 42, -121.46875 42 M-121.46875 42 C-121.46875 15.048726085133346, -121.46875 -11.902547829733308, -121.46875 -42 M-121.46875 42 C-121.46875 19.696643450165112, -121.46875 -2.6067130996697756, -121.46875 -42" stroke="#9370DB" stroke-width="1.3" fill="none" stroke-dasharray="0 0" style=""/></g><g class="annotation-group text" transform="translate(0, -18)"/><g class="label-group text" transform="translate(-109.46875, -18)"><g class="label" style="font-weight: bolder" transform="translate(0,-12)"><foreignObject width="218.9375" height="24"><div xmlns="http://www.w3.org/1999/xhtml" style="display: table-cell; white-space: nowrap; line-height: 1.5; max-width: 243px; text-align: center;"><span class="nodeLabel markdown-node-label" style=""><p>CreateOrganizationCommand</p></span></div></foreignObject></g></g><g class="members-group text" transform="translate(-109.46875, 30)"/><g class="methods-group text" transform="translate(-109.46875, 60)"/><g class="divider" style=""><path d="M-121.46875 6 C-27.79158729418873 6, 65.88557541162254 6, 121.46875 6 M-121.46875 6 C-66.8643923869578 6, -12.260034773915606 6, 121.46875 6" stroke="#9370DB" stroke-width="1.3" fill="none" stroke-dasharray="0 0" style=""/></g><g class="divider" style=""><path d="M-121.46875 24 C-50.716411459385 24, 20.03592708123 24, 121.46875 24 M-121.46875 24 C-27.354748756958884 24, 66.75925248608223 24, 121.46875 24" stroke="#9370DB" stroke-width="1.3" fill="none" stroke-dasharray="0 0" style=""/></g></g><g class="node default" id="classId-GetDevicesBySpaceQuery-10" transform="translate(1559.234375, 372)"><g class="basic label-container"><path d="M-107.2890625 -42 L107.2890625 -42 L107.2890625 42 L-107.2890625 42" stroke="none" stroke-width="0" fill="#ECECFF" style=""/><path d="M-107.2890625 -42 C-48.97050560065133 -42, 9.348051298697342 -42, 107.2890625 -42 M-107.2890625 -42 C-32.00180586758596 -42, 43.285450764828084 -42, 107.2890625 -42 M107.2890625 -42 C107.2890625 -15.447683079675464, 107.2890625 11.104633840649072, 107.2890625 42 M107.2890625 -42 C107.2890625 -16.510778459294297, 107.2890625 8.978443081411406, 107.2890625 42 M107.2890625 42 C60.39845276489751 42, 13.507843029795026 42, -107.2890625 42 M107.2890625 42 C37.31483706513083 42, -32.65938836973834 42, -107.2890625 42 M-107.2890625 42 C-107.2890625 17.88219540916347, -107.2890625 -6.2356091816730626, -107.2890625 -42 M-107.2890625 42 C-107.2890625 8.410422069993075, -107.2890625 -25.17915586001385, -107.2890625 -42" stroke="#9370DB" stroke-width="1.3" fill="none" stroke-dasharray="0 0" style=""/></g><g class="annotation-group text" transform="translate(0, -18)"/><g class="label-group text" transform="translate(-95.2890625, -18)"><g class="label" style="font-weight: bolder" transform="translate(0,-12)"><foreignObject width="190.578125" height="24"><div xmlns="http://www.w3.org/1999/xhtml" style="display: table-cell; white-space: nowrap; line-height: 1.5; max-width: 222px; text-align: center;"><span class="nodeLabel markdown-node-label" style=""><p>GetDevicesBySpaceQuery</p></span></div></foreignObject></g></g><g class="members-group text" transform="translate(-95.2890625, 30)"/><g class="methods-group text" transform="translate(-95.2890625, 60)"/><g class="divider" style=""><path d="M-107.2890625 6 C-48.46640680328627 6, 10.356248893427463 6, 107.2890625 6 M-107.2890625 6 C-57.81474958288524 6, -8.340436665770483 6, 107.2890625 6" stroke="#9370DB" stroke-width="1.3" fill="none" stroke-dasharray="0 0" style=""/></g><g class="divider" style=""><path d="M-107.2890625 24 C-37.027471134435274 24, 33.23412023112945 24, 107.2890625 24 M-107.2890625 24 C-37.197307722252845 24, 32.89444705549431 24, 107.2890625 24" stroke="#9370DB" stroke-width="1.3" fill="none" stroke-dasharray="0 0" style=""/></g></g><g class="node default" id="classId-DeviceContextFacadeImpl-11" transform="translate(2228.912109375, 132)"><g class="basic label-container"><path d="M-109.0625 -42 L109.0625 -42 L109.0625 42 L-109.0625 42" stroke="none" stroke-width="0" fill="#ECECFF" style=""/><path d="M-109.0625 -42 C-31.14825478113795 -42, 46.7659904377241 -42, 109.0625 -42 M-109.0625 -42 C-37.11084628431648 -42, 34.84080743136704 -42, 109.0625 -42 M109.0625 -42 C109.0625 -16.785096833051547, 109.0625 8.429806333896906, 109.0625 42 M109.0625 -42 C109.0625 -10.037649226910546, 109.0625 21.92470154617891, 109.0625 42 M109.0625 42 C53.32412920202884 42, -2.4142415959423147 42, -109.0625 42 M109.0625 42 C43.58091670355381 42, -21.900666592892378 42, -109.0625 42 M-109.0625 42 C-109.0625 19.47830082695394, -109.0625 -3.0433983460921183, -109.0625 -42 M-109.0625 42 C-109.0625 11.276266422493023, -109.0625 -19.447467155013953, -109.0625 -42" stroke="#9370DB" stroke-width="1.3" fill="none" stroke-dasharray="0 0" style=""/></g><g class="annotation-group text" transform="translate(0, -18)"/><g class="label-group text" transform="translate(-97.0625, -18)"><g class="label" style="font-weight: bolder" transform="translate(0,-12)"><foreignObject width="194.125" height="24"><div xmlns="http://www.w3.org/1999/xhtml" style="display: table-cell; white-space: nowrap; line-height: 1.5; max-width: 222px; text-align: center;"><span class="nodeLabel markdown-node-label" style=""><p>DeviceContextFacadeImpl</p></span></div></foreignObject></g></g><g class="members-group text" transform="translate(-97.0625, 30)"/><g class="methods-group text" transform="translate(-97.0625, 60)"/><g class="divider" style=""><path d="M-109.0625 6 C-44.68156653221051 6, 19.69936693557898 6, 109.0625 6 M-109.0625 6 C-61.271874420416985 6, -13.48124884083397 6, 109.0625 6" stroke="#9370DB" stroke-width="1.3" fill="none" stroke-dasharray="0 0" style=""/></g><g class="divider" style=""><path d="M-109.0625 24 C-25.24182809725687 24, 58.57884380548626 24, 109.0625 24 M-109.0625 24 C-39.874844698399954 24, 29.31281060320009 24, 109.0625 24" stroke="#9370DB" stroke-width="1.3" fill="none" stroke-dasharray="0 0" style=""/></g></g></g></g></g><text text-anchor="middle" x="1172.9873046875" y="-25" class="classDiagramTitleText">Application - Devices</text></svg>