<svg id="my-svg" width="100%" xmlns="http://www.w3.org/2000/svg" xmlns:xlink="http://www.w3.org/1999/xlink" class="classDiagram" style="max-width: 1171.64px; background-color: transparent;" viewBox="0 -48 1171.642578125 482" role="graphics-document document" aria-roledescription="class"><style>#my-svg{font-family:"trebuchet ms",verdana,arial,sans-serif;font-size:16px;fill:#333;}@keyframes edge-animation-frame{from{stroke-dashoffset:0;}}@keyframes dash{to{stroke-dashoffset:0;}}#my-svg .edge-animation-slow{stroke-dasharray:9,5!important;stroke-dashoffset:900;animation:dash 50s linear infinite;stroke-linecap:round;}#my-svg .edge-animation-fast{stroke-dasharray:9,5!important;stroke-dashoffset:900;animation:dash 20s linear infinite;stroke-linecap:round;}#my-svg .error-icon{fill:#552222;}#my-svg .error-text{fill:#552222;stroke:#552222;}#my-svg .edge-thickness-normal{stroke-width:1px;}#my-svg .edge-thickness-thick{stroke-width:3.5px;}#my-svg .edge-pattern-solid{stroke-dasharray:0;}#my-svg .edge-thickness-invisible{stroke-width:0;fill:none;}#my-svg .edge-pattern-dashed{stroke-dasharray:3;}#my-svg .edge-pattern-dotted{stroke-dasharray:2;}#my-svg .marker{fill:#333333;stroke:#333333;}#my-svg .marker.cross{stroke:#333333;}#my-svg svg{font-family:"trebuchet ms",verdana,arial,sans-serif;font-size:16px;}#my-svg p{margin:0;}#my-svg g.classGroup text{fill:#9370DB;stroke:none;font-family:"trebuchet ms",verdana,arial,sans-serif;font-size:10px;}#my-svg g.classGroup text .title{font-weight:bolder;}#my-svg .nodeLabel,#my-svg .edgeLabel{color:#131300;}#my-svg .edgeLabel .label rect{fill:#ECECFF;}#my-svg .label text{fill:#131300;}#my-svg .labelBkg{background:#ECECFF;}#my-svg .edgeLabel .label span{background:#ECECFF;}#my-svg .classTitle{font-weight:bolder;}#my-svg .node rect,#my-svg .node circle,#my-svg .node ellipse,#my-svg .node polygon,#my-svg .node path{fill:#ECECFF;stroke:#9370DB;stroke-width:1px;}#my-svg .divider{stroke:#9370DB;stroke-width:1;}#my-svg g.clickable{cursor:pointer;}#my-svg g.classGroup rect{fill:#ECECFF;stroke:#9370DB;}#my-svg g.classGroup line{stroke:#9370DB;stroke-width:1;}#my-svg .classLabel .box{stroke:none;stroke-width:0;fill:#ECECFF;opacity:0.5;}#my-svg .classLabel .label{fill:#9370DB;font-size:10px;}#my-svg .relation{stroke:#333333;stroke-width:1;fill:none;}#my-svg .dashed-line{stroke-dasharray:3;}#my-svg .dotted-line{stroke-dasharray:1 2;}#my-svg #compositionStart,#my-svg .composition{fill:#333333!important;stroke:#333333!important;stroke-width:1;}#my-svg #compositionEnd,#my-svg .composition{fill:#333333!important;stroke:#333333!important;stroke-width:1;}#my-svg #dependencyStart,#my-svg .dependency{fill:#333333!important;stroke:#333333!important;stroke-width:1;}#my-svg #dependencyStart,#my-svg .dependency{fill:#333333!important;stroke:#333333!important;stroke-width:1;}#my-svg #extensionStart,#my-svg .extension{fill:transparent!important;stroke:#333333!important;stroke-width:1;}#my-svg #extensionEnd,#my-svg .extension{fill:transparent!important;stroke:#333333!important;stroke-width:1;}#my-svg #aggregationStart,#my-svg .aggregation{fill:transparent!important;stroke:#333333!important;stroke-width:1;}#my-svg #aggregationEnd,#my-svg .aggregation{fill:transparent!important;stroke:#333333!important;stroke-width:1;}#my-svg #lollipopStart,#my-svg .lollipop{fill:#ECECFF!important;stroke:#333333!important;stroke-width:1;}#my-svg #lollipopEnd,#my-svg .lollipop{fill:#ECECFF!important;stroke:#333333!important;stroke-width:1;}#my-svg .edgeTerminals{font-size:11px;line-height:initial;}#my-svg .classTitleText{text-anchor:middle;font-size:18px;fill:#333;}#my-svg .label-icon{display:inline-block;height:1em;overflow:visible;vertical-align:-0.125em;}#my-svg .node .label-icon path{fill:currentColor;stroke:revert;stroke-width:revert;}#my-svg :root{--mermaid-font-family:"trebuchet ms",verdana,arial,sans-serif;}</style><g><defs><marker id="my-svg_class-aggregationStart" class="marker aggregation class" refX="18" refY="7" markerWidth="190" markerHeight="240" orient="auto"><path d="M 18,7 L9,13 L1,7 L9,1 Z"/></marker></defs><defs><marker id="my-svg_class-aggregationEnd" class="marker aggregation class" refX="1" refY="7" markerWidth="20" markerHeight="28" orient="auto"><path d="M 18,7 L9,13 L1,7 L9,1 Z"/></marker></defs><defs><marker id="my-svg_class-extensionStart" class="marker extension class" refX="18" refY="7" markerWidth="190" markerHeight="240" orient="auto"><path d="M 1,7 L18,13 V 1 Z"/></marker></defs><defs><marker id="my-svg_class-extensionEnd" class="marker extension class" refX="1" refY="7" markerWidth="20" markerHeight="28" orient="auto"><path d="M 1,1 V 13 L18,7 Z"/></marker></defs><defs><marker id="my-svg_class-compositionStart" class="marker composition class" refX="18" refY="7" markerWidth="190" markerHeight="240" orient="auto"><path d="M 18,7 L9,13 L1,7 L9,1 Z"/></marker></defs><defs><marker id="my-svg_class-compositionEnd" class="marker composition class" refX="1" refY="7" markerWidth="20" markerHeight="28" orient="auto"><path d="M 18,7 L9,13 L1,7 L9,1 Z"/></marker></defs><defs><marker id="my-svg_class-dependencyStart" class="marker dependency class" refX="6" refY="7" markerWidth="190" markerHeight="240" orient="auto"><path d="M 5,7 L9,13 L1,7 L9,1 Z"/></marker></defs><defs><marker id="my-svg_class-dependencyEnd" class="marker dependency class" refX="13" refY="7" markerWidth="20" markerHeight="28" orient="auto"><path d="M 18,7 L9,13 L14,7 L9,1 Z"/></marker></defs><defs><marker id="my-svg_class-lollipopStart" class="marker lollipop class" refX="13" refY="7" markerWidth="190" markerHeight="240" orient="auto"><circle stroke="black" fill="transparent" cx="7" cy="7" r="6"/></marker></defs><defs><marker id="my-svg_class-lollipopEnd" class="marker lollipop class" refX="1" refY="7" markerWidth="190" markerHeight="240" orient="auto"><circle stroke="black" fill="transparent" cx="7" cy="7" r="6"/></marker></defs><g class="root"><g class="clusters"><g class="cluster undefined" id="infrastructure" data-look="classic"><rect style="fill:none !important;stroke:black !important" x="8" y="8" width="743.611328125" height="418"/><g class="cluster-label" transform="translate(330.0166015625, 8)"><foreignObject width="99.578125" height="24"><div xmlns="http://www.w3.org/1999/xhtml" style="display: table-cell; white-space: nowrap; line-height: 1.5; max-width: 200px; text-align: center;"><span class="nodeLabel"><p>infrastructure</p></span></div></foreignObject></g></g></g><g class="edgePaths"><path d="M599.963,183L601.316,189.167C602.668,195.333,605.373,207.667,633.849,225.753C662.325,243.84,716.572,267.68,743.696,279.6L770.819,291.52" id="id_DeviceHttpGateway_DeviceGateway_1" class="edge-thickness-normal edge-pattern-dashed relation" style=";;;" data-edge="true" data-et="edge" data-id="id_DeviceHttpGateway_DeviceGateway_1" data-points="W3sieCI6NTk5Ljk2MzA4MjQ0OTc3NjgsInkiOjE4M30seyJ4Ijo2MDguMDc4MTI1LCJ5IjoyMjB9LHsieCI6Nzg2LjYxMTMyODEyNSwieSI6Mjk4LjQ2MDE4OTQ2NTIyOTN9XQ==" marker-end="url(#my-svg_class-extensionEnd)"/><path d="M546.104,183L543.028,189.167C539.952,195.333,533.8,207.667,530.724,219C527.648,230.333,527.648,240.667,527.648,245.833L527.648,251" id="id_DeviceHttpGateway_DeviceResource_2" class="edge-thickness-normal edge-pattern-solid relation" style=";;;" data-edge="true" data-et="edge" data-id="id_DeviceHttpGateway_DeviceResource_2" data-points="W3sieCI6NTQ2LjEwMzkxNjcxMzE2OTYsInkiOjE4M30seyJ4Ijo1MjcuNjQ4NDM3NSwieSI6MjIwfSx7IngiOjUyNy42NDg0Mzc1LCJ5IjoyNTd9XQ==" marker-end="url(#my-svg_class-dependencyEnd)"/><path d="M653.822,183L659.603,189.167C665.384,195.333,676.946,207.667,729.613,227.243C782.281,246.82,876.054,273.639,922.94,287.049L969.827,300.459" id="id_DeviceHttpGateway_OrganizationResource_3" class="edge-thickness-normal edge-pattern-solid relation" style=";;;" data-edge="true" data-et="edge" data-id="id_DeviceHttpGateway_OrganizationResource_3" data-points="W3sieCI6NjUzLjgyMjI0ODE4NjM4NCwieSI6MTgzfSx7IngiOjY4OC41MDc4MTI1LCJ5IjoyMjB9LHsieCI6OTc1LjU5NTcwMzEyNSwieSI6MzAyLjEwODc2Mzk0NTkwMjQ3fV0=" marker-end="url(#my-svg_class-dependencyEnd)"/></g><g class="edgeLabels"><g class="edgeLabel" transform="translate(680.00553, 251.61002)"><g class="label" data-id="id_DeviceHttpGateway_DeviceGateway_1" transform="translate(-41.890625, -12)"><foreignObject width="83.78125" height="24"><div xmlns="http://www.w3.org/1999/xhtml" class="labelBkg" style="display: table-cell; white-space: nowrap; line-height: 1.5; max-width: 200px; text-align: center;"><span class="edgeLabel"><p>implements</p></span></div></foreignObject></g></g><g class="edgeLabel" transform="translate(527.6484375, 220)"><g class="label" data-id="id_DeviceHttpGateway_DeviceResource_2" transform="translate(-18.5390625, -12)"><foreignObject width="37.078125" height="24"><div xmlns="http://www.w3.org/1999/xhtml" class="labelBkg" style="display: table-cell; white-space: nowrap; line-height: 1.5; max-width: 200px; text-align: center;"><span class="edgeLabel"><p>maps</p></span></div></foreignObject></g></g><g class="edgeLabel" transform="translate(807.67143, 254.08147)"><g class="label" data-id="id_DeviceHttpGateway_OrganizationResource_3" transform="translate(-18.5390625, -12)"><foreignObject width="37.078125" height="24"><div xmlns="http://www.w3.org/1999/xhtml" class="labelBkg" style="display: table-cell; white-space: nowrap; line-height: 1.5; max-width: 200px; text-align: center;"><span class="edgeLabel"><p>maps</p></span></div></foreignObject></g></g></g><g class="nodes"><g class="node default" id="classId-DeviceHttpGateway-0" transform="translate(583.513671875, 108)"><g class="basic label-container"><path d="M-133.09765625 -75 L133.09765625 -75 L133.09765625 75 L-133.09765625 75" stroke="none" stroke-width="0" fill="#ECECFF" style=""/><path d="M-133.09765625 -75 C-57.52215239860978 -75, 18.053351452780447 -75, 133.09765625 -75 M-133.09765625 -75 C-63.92332712097867 -75, 5.251002008042661 -75, 133.09765625 -75 M133.09765625 -75 C133.09765625 -41.548468430597026, 133.09765625 -8.096936861194052, 133.09765625 75 M133.09765625 -75 C133.09765625 -41.076537247265, 133.09765625 -7.153074494530003, 133.09765625 75 M133.09765625 75 C54.432798925487205 75, -24.23205839902559 75, -133.09765625 75 M133.09765625 75 C76.23322740996684 75, 19.368798569933674 75, -133.09765625 75 M-133.09765625 75 C-133.09765625 27.38229606306861, -133.09765625 -20.235407873862783, -133.09765625 -75 M-133.09765625 75 C-133.09765625 40.69111067729682, -133.09765625 6.382221354593639, -133.09765625 -75" stroke="#9370DB" stroke-width="1.3" fill="none" stroke-dasharray="0 0" style=""/></g><g class="annotation-group text" transform="translate(0, -51)"/><g class="label-group text" transform="translate(-73.9609375, -51)"><g class="label" style="font-weight: bolder" transform="translate(0,-12)"><foreignObject width="147.921875" height="24"><div xmlns="http://www.w3.org/1999/xhtml" style="display: table-cell; white-space: nowrap; line-height: 1.5; max-width: 181px; text-align: center;"><span class="nodeLabel markdown-node-label" style=""><p>DeviceHttpGateway</p></span></div></foreignObject></g></g><g class="members-group text" transform="translate(-121.09765625, -3)"/><g class="methods-group text" transform="translate(-121.09765625, 27)"><g class="label" style="" transform="translate(0,-12)"><foreignObject width="168.234375" height="24"><div xmlns="http://www.w3.org/1999/xhtml" style="display: table-cell; white-space: nowrap; line-height: 1.5; max-width: 209px; text-align: center;"><span class="nodeLabel markdown-node-label" style=""><p>+claimDevice(resource)</p></span></div></foreignObject></g><g class="label" style="" transform="translate(0,12)"><foreignObject width="157.453125" height="24"><div xmlns="http://www.w3.org/1999/xhtml" style="display: table-cell; white-space: nowrap; line-height: 1.5; max-width: 199px; text-align: center;"><span class="nodeLabel markdown-node-label" style=""><p>+pairDevice(resource)</p></span></div></foreignObject></g></g><g class="divider" style=""><path d="M-133.09765625 -27 C-30.823602695185187 -27, 71.45045085962963 -27, 133.09765625 -27 M-133.09765625 -27 C-62.89427330770313 -27, 7.309109634593739 -27, 133.09765625 -27" stroke="#9370DB" stroke-width="1.3" fill="none" stroke-dasharray="0 0" style=""/></g><g class="divider" style=""><path d="M-133.09765625 -3 C-32.12622068598877 -3, 68.84521487802246 -3, 133.09765625 -3 M-133.09765625 -3 C-56.716598078751005 -3, 19.66446009249799 -3, 133.09765625 -3" stroke="#9370DB" stroke-width="1.3" fill="none" stroke-dasharray="0 0" style=""/></g></g><g class="node default" id="classId-DeviceThresholdHttpGateway-1" transform="translate(200.76171875, 329)"><g class="basic label-container"><path d="M-157.76171875 -63 L157.76171875 -63 L157.76171875 63 L-157.76171875 63" stroke="none" stroke-width="0" fill="#ECECFF" style=""/><path d="M-157.76171875 -63 C-62.618365086758374 -63, 32.52498857648325 -63, 157.76171875 -63 M-157.76171875 -63 C-51.6888327757907 -63, 54.3840531984186 -63, 157.76171875 -63 M157.76171875 -63 C157.76171875 -21.05417349922378, 157.76171875 20.89165300155244, 157.76171875 63 M157.76171875 -63 C157.76171875 -29.791011495512485, 157.76171875 3.417977008975029, 157.76171875 63 M157.76171875 63 C68.64650322120393 63, -20.468712307592142 63, -157.76171875 63 M157.76171875 63 C65.3940285854893 63, -26.97366157902141 63, -157.76171875 63 M-157.76171875 63 C-157.76171875 37.7950149560034, -157.76171875 12.590029912006791, -157.76171875 -63 M-157.76171875 63 C-157.76171875 16.603708566764503, -157.76171875 -29.792582866470994, -157.76171875 -63" stroke="#9370DB" stroke-width="1.3" fill="none" stroke-dasharray="0 0" style=""/></g><g class="annotation-group text" transform="translate(0, -39)"/><g class="label-group text" transform="translate(-111.3359375, -39)"><g class="label" style="font-weight: bolder" transform="translate(0,-12)"><foreignObject width="222.671875" height="24"><div xmlns="http://www.w3.org/1999/xhtml" style="display: table-cell; white-space: nowrap; line-height: 1.5; max-width: 245px; text-align: center;"><span class="nodeLabel markdown-node-label" style=""><p>DeviceThresholdHttpGateway</p></span></div></foreignObject></g></g><g class="members-group text" transform="translate(-145.76171875, 9)"/><g class="methods-group text" transform="translate(-145.76171875, 39)"><g class="label" style="" transform="translate(0,-12)"><foreignObject width="180.1875" height="24"><div xmlns="http://www.w3.org/1999/xhtml" style="display: table-cell; white-space: nowrap; line-height: 1.5; max-width: 220px; text-align: center;"><span class="nodeLabel markdown-node-label" style=""><p>+getThresholds(deviceId)</p></span></div></foreignObject></g></g><g class="divider" style=""><path d="M-157.76171875 -15 C-34.22420587557144 -15, 89.31330699885712 -15, 157.76171875 -15 M-157.76171875 -15 C-43.83630176432773 -15, 70.08911522134454 -15, 157.76171875 -15" stroke="#9370DB" stroke-width="1.3" fill="none" stroke-dasharray="0 0" style=""/></g><g class="divider" style=""><path d="M-157.76171875 9 C-44.46303004201623 9, 68.83565866596754 9, 157.76171875 9 M-157.76171875 9 C-94.4760365426943 9, -31.190354335388605 9, 157.76171875 9" stroke="#9370DB" stroke-width="1.3" fill="none" stroke-dasharray="0 0" style=""/></g></g><g class="node default" id="classId-DeviceResource-2" transform="translate(527.6484375, 329)"><g class="basic label-container"><path d="M-119.125 -72 L119.125 -72 L119.125 72 L-119.125 72" stroke="none" stroke-width="0" fill="#ECECFF" style=""/><path d="M-119.125 -72 C-24.309748453916512 -72, 70.50550309216698 -72, 119.125 -72 M-119.125 -72 C-33.10151812282194 -72, 52.92196375435611 -72, 119.125 -72 M119.125 -72 C119.125 -22.439891442749158, 119.125 27.120217114501685, 119.125 72 M119.125 -72 C119.125 -21.10738681734533, 119.125 29.78522636530934, 119.125 72 M119.125 72 C42.23382092202999 72, -34.65735815594002 72, -119.125 72 M119.125 72 C39.89140459118995 72, -39.34219081762009 72, -119.125 72 M-119.125 72 C-119.125 31.328867346975947, -119.125 -9.342265306048105, -119.125 -72 M-119.125 72 C-119.125 29.27056228767986, -119.125 -13.458875424640283, -119.125 -72" stroke="#9370DB" stroke-width="1.3" fill="none" stroke-dasharray="0 0" style=""/></g><g class="annotation-group text" transform="translate(0, -48)"/><g class="label-group text" transform="translate(-59.578125, -48)"><g class="label" style="font-weight: bolder" transform="translate(0,-12)"><foreignObject width="119.15625" height="24"><div xmlns="http://www.w3.org/1999/xhtml" style="display: table-cell; white-space: nowrap; line-height: 1.5; max-width: 155px; text-align: center;"><span class="nodeLabel markdown-node-label" style=""><p>DeviceResource</p></span></div></foreignObject></g></g><g class="members-group text" transform="translate(-107.125, 0)"><g class="label" style="" transform="translate(0,-12)"><foreignObject width="72.9375" height="24"><div xmlns="http://www.w3.org/1999/xhtml" style="display: table-cell; white-space: nowrap; line-height: 1.5; max-width: 121px; text-align: center;"><span class="nodeLabel markdown-node-label" style=""><p>+id: string</p></span></div></foreignObject></g><g class="label" style="" transform="translate(0,12)"><foreignObject width="154.671875" height="24"><div xmlns="http://www.w3.org/1999/xhtml" style="display: table-cell; white-space: nowrap; line-height: 1.5; max-width: 195px; text-align: center;"><span class="nodeLabel markdown-node-label" style=""><p>+serialNumber: string</p></span></div></foreignObject></g></g><g class="methods-group text" transform="translate(-107.125, 72)"/><g class="divider" style=""><path d="M-119.125 -24 C-53.66827094057997 -24, 11.788458118840055 -24, 119.125 -24 M-119.125 -24 C-32.924173638716596 -24, 53.27665272256681 -24, 119.125 -24" stroke="#9370DB" stroke-width="1.3" fill="none" stroke-dasharray="0 0" style=""/></g><g class="divider" style=""><path d="M-119.125 48 C-50.15518135693691 48, 18.814637286126185 48, 119.125 48 M-119.125 48 C-45.387285828472315 48, 28.35042834305537 48, 119.125 48" stroke="#9370DB" stroke-width="1.3" fill="none" stroke-dasharray="0 0" style=""/></g></g><g class="node default" id="classId-DeviceGateway-3" transform="translate(856.103515625, 329)"><g class="basic label-container"><path d="M-69.4921875 -42 L69.4921875 -42 L69.4921875 42 L-69.4921875 42" stroke="none" stroke-width="0" fill="#ECECFF" style=""/><path d="M-69.4921875 -42 C-37.617647262682794 -42, -5.743107025365596 -42, 69.4921875 -42 M-69.4921875 -42 C-17.742473033758124 -42, 34.00724143248375 -42, 69.4921875 -42 M69.4921875 -42 C69.4921875 -9.683024385281996, 69.4921875 22.633951229436008, 69.4921875 42 M69.4921875 -42 C69.4921875 -15.744989421049915, 69.4921875 10.51002115790017, 69.4921875 42 M69.4921875 42 C21.369058712721582 42, -26.754070074556836 42, -69.4921875 42 M69.4921875 42 C30.36862607229954 42, -8.754935355400917 42, -69.4921875 42 M-69.4921875 42 C-69.4921875 22.118415906000894, -69.4921875 2.236831812001789, -69.4921875 -42 M-69.4921875 42 C-69.4921875 13.260396054482108, -69.4921875 -15.479207891035784, -69.4921875 -42" stroke="#9370DB" stroke-width="1.3" fill="none" stroke-dasharray="0 0" style=""/></g><g class="annotation-group text" transform="translate(0, -18)"/><g class="label-group text" transform="translate(-57.4921875, -18)"><g class="label" style="font-weight: bolder" transform="translate(0,-12)"><foreignObject width="114.984375" height="24"><div xmlns="http://www.w3.org/1999/xhtml" style="display: table-cell; white-space: nowrap; line-height: 1.5; max-width: 152px; text-align: center;"><span class="nodeLabel markdown-node-label" style=""><p>DeviceGateway</p></span></div></foreignObject></g></g><g class="members-group text" transform="translate(-57.4921875, 30)"/><g class="methods-group text" transform="translate(-57.4921875, 60)"/><g class="divider" style=""><path d="M-69.4921875 6 C-37.16590785231546 6, -4.839628204630927 6, 69.4921875 6 M-69.4921875 6 C-39.13002236826391 6, -8.76785723652781 6, 69.4921875 6" stroke="#9370DB" stroke-width="1.3" fill="none" stroke-dasharray="0 0" style=""/></g><g class="divider" style=""><path d="M-69.4921875 24 C-22.911500071045126 24, 23.66918735790975 24, 69.4921875 24 M-69.4921875 24 C-34.922150516393025 24, -0.3521135327860492 24, 69.4921875 24" stroke="#9370DB" stroke-width="1.3" fill="none" stroke-dasharray="0 0" style=""/></g></g><g class="node default" id="classId-OrganizationResource-4" transform="translate(1069.619140625, 329)"><g class="basic label-container"><path d="M-94.0234375 -42 L94.0234375 -42 L94.0234375 42 L-94.0234375 42" stroke="none" stroke-width="0" fill="#ECECFF" style=""/><path d="M-94.0234375 -42 C-44.050163136121874 -42, 5.923111227756252 -42, 94.0234375 -42 M-94.0234375 -42 C-20.207199287163036 -42, 53.60903892567393 -42, 94.0234375 -42 M94.0234375 -42 C94.0234375 -23.09251968595135, 94.0234375 -4.185039371902697, 94.0234375 42 M94.0234375 -42 C94.0234375 -15.330191622325376, 94.0234375 11.339616755349248, 94.0234375 42 M94.0234375 42 C48.62721503529973 42, 3.2309925705994544 42, -94.0234375 42 M94.0234375 42 C54.06739927734819 42, 14.111361054696374 42, -94.0234375 42 M-94.0234375 42 C-94.0234375 17.942138895077697, -94.0234375 -6.115722209844606, -94.0234375 -42 M-94.0234375 42 C-94.0234375 18.955420774746525, -94.0234375 -4.08915845050695, -94.0234375 -42" stroke="#9370DB" stroke-width="1.3" fill="none" stroke-dasharray="0 0" style=""/></g><g class="annotation-group text" transform="translate(0, -18)"/><g class="label-group text" transform="translate(-82.0234375, -18)"><g class="label" style="font-weight: bolder" transform="translate(0,-12)"><foreignObject width="164.046875" height="24"><div xmlns="http://www.w3.org/1999/xhtml" style="display: table-cell; white-space: nowrap; line-height: 1.5; max-width: 193px; text-align: center;"><span class="nodeLabel markdown-node-label" style=""><p>OrganizationResource</p></span></div></foreignObject></g></g><g class="members-group text" transform="translate(-82.0234375, 30)"/><g class="methods-group text" transform="translate(-82.0234375, 60)"/><g class="divider" style=""><path d="M-94.0234375 6 C-30.151547490518908 6, 33.720342518962184 6, 94.0234375 6 M-94.0234375 6 C-21.11939849743574 6, 51.78464050512852 6, 94.0234375 6" stroke="#9370DB" stroke-width="1.3" fill="none" stroke-dasharray="0 0" style=""/></g><g class="divider" style=""><path d="M-94.0234375 24 C-34.19343431582156 24, 25.636568868356875 24, 94.0234375 24 M-94.0234375 24 C-56.27261767584232 24, -18.52179785168464 24, 94.0234375 24" stroke="#9370DB" stroke-width="1.3" fill="none" stroke-dasharray="0 0" style=""/></g></g></g></g></g><text text-anchor="middle" x="585.8212890625" y="-25" class="classDiagramTitleText">Infrastructure - Devices</text></svg>