<svg id="my-svg" width="100%" xmlns="http://www.w3.org/2000/svg" xmlns:xlink="http://www.w3.org/1999/xlink" class="classDiagram" style="max-width: 436.07px; background-color: transparent;" viewBox="-8 -48 436.0703125 1120" role="graphics-document document" aria-roledescription="class"><style>#my-svg{font-family:"trebuchet ms",verdana,arial,sans-serif;font-size:16px;fill:#333;}@keyframes edge-animation-frame{from{stroke-dashoffset:0;}}@keyframes dash{to{stroke-dashoffset:0;}}#my-svg .edge-animation-slow{stroke-dasharray:9,5!important;stroke-dashoffset:900;animation:dash 50s linear infinite;stroke-linecap:round;}#my-svg .edge-animation-fast{stroke-dasharray:9,5!important;stroke-dashoffset:900;animation:dash 20s linear infinite;stroke-linecap:round;}#my-svg .error-icon{fill:#552222;}#my-svg .error-text{fill:#552222;stroke:#552222;}#my-svg .edge-thickness-normal{stroke-width:1px;}#my-svg .edge-thickness-thick{stroke-width:3.5px;}#my-svg .edge-pattern-solid{stroke-dasharray:0;}#my-svg .edge-thickness-invisible{stroke-width:0;fill:none;}#my-svg .edge-pattern-dashed{stroke-dasharray:3;}#my-svg .edge-pattern-dotted{stroke-dasharray:2;}#my-svg .marker{fill:#333333;stroke:#333333;}#my-svg .marker.cross{stroke:#333333;}#my-svg svg{font-family:"trebuchet ms",verdana,arial,sans-serif;font-size:16px;}#my-svg p{margin:0;}#my-svg g.classGroup text{fill:#9370DB;stroke:none;font-family:"trebuchet ms",verdana,arial,sans-serif;font-size:10px;}#my-svg g.classGroup text .title{font-weight:bolder;}#my-svg .nodeLabel,#my-svg .edgeLabel{color:#131300;}#my-svg .edgeLabel .label rect{fill:#ECECFF;}#my-svg .label text{fill:#131300;}#my-svg .labelBkg{background:#ECECFF;}#my-svg .edgeLabel .label span{background:#ECECFF;}#my-svg .classTitle{font-weight:bolder;}#my-svg .node rect,#my-svg .node circle,#my-svg .node ellipse,#my-svg .node polygon,#my-svg .node path{fill:#ECECFF;stroke:#9370DB;stroke-width:1px;}#my-svg .divider{stroke:#9370DB;stroke-width:1;}#my-svg g.clickable{cursor:pointer;}#my-svg g.classGroup rect{fill:#ECECFF;stroke:#9370DB;}#my-svg g.classGroup line{stroke:#9370DB;stroke-width:1;}#my-svg .classLabel .box{stroke:none;stroke-width:0;fill:#ECECFF;opacity:0.5;}#my-svg .classLabel .label{fill:#9370DB;font-size:10px;}#my-svg .relation{stroke:#333333;stroke-width:1;fill:none;}#my-svg .dashed-line{stroke-dasharray:3;}#my-svg .dotted-line{stroke-dasharray:1 2;}#my-svg #compositionStart,#my-svg .composition{fill:#333333!important;stroke:#333333!important;stroke-width:1;}#my-svg #compositionEnd,#my-svg .composition{fill:#333333!important;stroke:#333333!important;stroke-width:1;}#my-svg #dependencyStart,#my-svg .dependency{fill:#333333!important;stroke:#333333!important;stroke-width:1;}#my-svg #dependencyStart,#my-svg .dependency{fill:#333333!important;stroke:#333333!important;stroke-width:1;}#my-svg #extensionStart,#my-svg .extension{fill:transparent!important;stroke:#333333!important;stroke-width:1;}#my-svg #extensionEnd,#my-svg .extension{fill:transparent!important;stroke:#333333!important;stroke-width:1;}#my-svg #aggregationStart,#my-svg .aggregation{fill:transparent!important;stroke:#333333!important;stroke-width:1;}#my-svg #aggregationEnd,#my-svg .aggregation{fill:transparent!important;stroke:#333333!important;stroke-width:1;}#my-svg #lollipopStart,#my-svg .lollipop{fill:#ECECFF!important;stroke:#333333!important;stroke-width:1;}#my-svg #lollipopEnd,#my-svg .lollipop{fill:#ECECFF!important;stroke:#333333!important;stroke-width:1;}#my-svg .edgeTerminals{font-size:11px;line-height:initial;}#my-svg .classTitleText{text-anchor:middle;font-size:18px;fill:#333;}#my-svg .label-icon{display:inline-block;height:1em;overflow:visible;vertical-align:-0.125em;}#my-svg .node .label-icon path{fill:currentColor;stroke:revert;stroke-width:revert;}#my-svg :root{--mermaid-font-family:"trebuchet ms",verdana,arial,sans-serif;}</style><g><defs><marker id="my-svg_class-aggregationStart" class="marker aggregation class" refX="18" refY="7" markerWidth="190" markerHeight="240" orient="auto"><path d="M 18,7 L9,13 L1,7 L9,1 Z"/></marker></defs><defs><marker id="my-svg_class-aggregationEnd" class="marker aggregation class" refX="1" refY="7" markerWidth="20" markerHeight="28" orient="auto"><path d="M 18,7 L9,13 L1,7 L9,1 Z"/></marker></defs><defs><marker id="my-svg_class-extensionStart" class="marker extension class" refX="18" refY="7" markerWidth="190" markerHeight="240" orient="auto"><path d="M 1,7 L18,13 V 1 Z"/></marker></defs><defs><marker id="my-svg_class-extensionEnd" class="marker extension class" refX="1" refY="7" markerWidth="20" markerHeight="28" orient="auto"><path d="M 1,1 V 13 L18,7 Z"/></marker></defs><defs><marker id="my-svg_class-compositionStart" class="marker composition class" refX="18" refY="7" markerWidth="190" markerHeight="240" orient="auto"><path d="M 18,7 L9,13 L1,7 L9,1 Z"/></marker></defs><defs><marker id="my-svg_class-compositionEnd" class="marker composition class" refX="1" refY="7" markerWidth="20" markerHeight="28" orient="auto"><path d="M 18,7 L9,13 L1,7 L9,1 Z"/></marker></defs><defs><marker id="my-svg_class-dependencyStart" class="marker dependency class" refX="6" refY="7" markerWidth="190" markerHeight="240" orient="auto"><path d="M 5,7 L9,13 L1,7 L9,1 Z"/></marker></defs><defs><marker id="my-svg_class-dependencyEnd" class="marker dependency class" refX="13" refY="7" markerWidth="20" markerHeight="28" orient="auto"><path d="M 18,7 L9,13 L14,7 L9,1 Z"/></marker></defs><defs><marker id="my-svg_class-lollipopStart" class="marker lollipop class" refX="13" refY="7" markerWidth="190" markerHeight="240" orient="auto"><circle stroke="black" fill="transparent" cx="7" cy="7" r="6"/></marker></defs><defs><marker id="my-svg_class-lollipopEnd" class="marker lollipop class" refX="1" refY="7" markerWidth="190" markerHeight="240" orient="auto"><circle stroke="black" fill="transparent" cx="7" cy="7" r="6"/></marker></defs><g class="root"><g class="clusters"/><g class="edgePaths"/><g class="edgeLabels"/><g class="nodes"><g class="root" transform="translate(-8, 0)"><g class="clusters"><g class="cluster undefined" data-look="classic"><rect style="fill:none !important;stroke:black !important" x="8" y="8" width="420.0703125" height="1056"/><g class="cluster-label" transform="translate(191.78515625, 8)"><foreignObject width="52.5" height="24"><div xmlns="http://www.w3.org/1999/xhtml" style="display: table-cell; white-space: nowrap; line-height: 1.5; max-width: 200px; text-align: center;"><span class="nodeLabel"><p>domain</p></span></div></foreignObject></g></g></g><g class="edgePaths"/><g class="edgeLabels"/><g class="nodes"><g class="node default" id="classId-Trend-0" transform="translate(218.03515625, 127)"><g class="basic label-container"><path d="M-92.48046875 -84 L92.48046875 -84 L92.48046875 84 L-92.48046875 84" stroke="none" stroke-width="0" fill="#ECECFF" style=""/><path d="M-92.48046875 -84 C-21.537376524961516 -84, 49.40571570007697 -84, 92.48046875 -84 M-92.48046875 -84 C-52.38476984738438 -84, -12.289070944768767 -84, 92.48046875 -84 M92.48046875 -84 C92.48046875 -28.671594542362705, 92.48046875 26.65681091527459, 92.48046875 84 M92.48046875 -84 C92.48046875 -16.886928048686457, 92.48046875 50.226143902627086, 92.48046875 84 M92.48046875 84 C49.470456194619025 84, 6.460443639238051 84, -92.48046875 84 M92.48046875 84 C19.092439136142062 84, -54.295590477715876 84, -92.48046875 84 M-92.48046875 84 C-92.48046875 19.69064181047581, -92.48046875 -44.61871637904838, -92.48046875 -84 M-92.48046875 84 C-92.48046875 18.908003414271263, -92.48046875 -46.18399317145747, -92.48046875 -84" stroke="#9370DB" stroke-width="1.3" fill="none" stroke-dasharray="0 0" style=""/></g><g class="annotation-group text" transform="translate(0, -60)"/><g class="label-group text" transform="translate(-21.4609375, -60)"><g class="label" style="font-weight: bolder" transform="translate(0,-12)"><foreignObject width="42.921875" height="24"><div xmlns="http://www.w3.org/1999/xhtml" style="display: table-cell; white-space: nowrap; line-height: 1.5; max-width: 89px; text-align: center;"><span class="nodeLabel markdown-node-label" style=""><p>Trend</p></span></div></foreignObject></g></g><g class="members-group text" transform="translate(-80.48046875, -12)"><g class="label" style="" transform="translate(0,-12)"><foreignObject width="135.796875" height="24"><div xmlns="http://www.w3.org/1999/xhtml" style="display: table-cell; white-space: nowrap; line-height: 1.5; max-width: 175px; text-align: center;"><span class="nodeLabel markdown-node-label" style=""><p>+timestamp: string</p></span></div></foreignObject></g><g class="label" style="" transform="translate(0,12)"><foreignObject width="112.140625" height="24"><div xmlns="http://www.w3.org/1999/xhtml" style="display: table-cell; white-space: nowrap; line-height: 1.5; max-width: 156px; text-align: center;"><span class="nodeLabel markdown-node-label" style=""><p>+value: number</p></span></div></foreignObject></g><g class="label" style="" transform="translate(0,36)"><foreignObject width="139.5" height="24"><div xmlns="http://www.w3.org/1999/xhtml" style="display: table-cell; white-space: nowrap; line-height: 1.5; max-width: 181px; text-align: center;"><span class="nodeLabel markdown-node-label" style=""><p>+metricType: string</p></span></div></foreignObject></g></g><g class="methods-group text" transform="translate(-80.48046875, 84)"/><g class="divider" style=""><path d="M-92.48046875 -36 C-53.343494730788045 -36, -14.20652071157609 -36, 92.48046875 -36 M-92.48046875 -36 C-20.03160756075343 -36, 52.41725362849314 -36, 92.48046875 -36" stroke="#9370DB" stroke-width="1.3" fill="none" stroke-dasharray="0 0" style=""/></g><g class="divider" style=""><path d="M-92.48046875 60 C-34.76019113549387 60, 22.96008647901226 60, 92.48046875 60 M-92.48046875 60 C-36.36194785435324 60, 19.75657304129352 60, 92.48046875 60" stroke="#9370DB" stroke-width="1.3" fill="none" stroke-dasharray="0 0" style=""/></g></g><g class="node default" id="classId-AnalyticsOverview-1" transform="translate(218.03515625, 333)"><g class="basic label-container"><path d="M-126.3984375 -72 L126.3984375 -72 L126.3984375 72 L-126.3984375 72" stroke="none" stroke-width="0" fill="#ECECFF" style=""/><path d="M-126.3984375 -72 C-25.668715250328404 -72, 75.06100699934319 -72, 126.3984375 -72 M-126.3984375 -72 C-48.311765286839716 -72, 29.77490692632057 -72, 126.3984375 -72 M126.3984375 -72 C126.3984375 -26.538085809761533, 126.3984375 18.923828380476934, 126.3984375 72 M126.3984375 -72 C126.3984375 -39.55474711861547, 126.3984375 -7.109494237230933, 126.3984375 72 M126.3984375 72 C34.88215475231074 72, -56.63412799537852 72, -126.3984375 72 M126.3984375 72 C49.85774878769415 72, -26.682939924611702 72, -126.3984375 72 M-126.3984375 72 C-126.3984375 33.187502729613726, -126.3984375 -5.624994540772548, -126.3984375 -72 M-126.3984375 72 C-126.3984375 22.268904766490593, -126.3984375 -27.462190467018814, -126.3984375 -72" stroke="#9370DB" stroke-width="1.3" fill="none" stroke-dasharray="0 0" style=""/></g><g class="annotation-group text" transform="translate(0, -48)"/><g class="label-group text" transform="translate(-69.359375, -48)"><g class="label" style="font-weight: bolder" transform="translate(0,-12)"><foreignObject width="138.71875" height="24"><div xmlns="http://www.w3.org/1999/xhtml" style="display: table-cell; white-space: nowrap; line-height: 1.5; max-width: 175px; text-align: center;"><span class="nodeLabel markdown-node-label" style=""><p>AnalyticsOverview</p></span></div></foreignObject></g></g><g class="members-group text" transform="translate(-114.3984375, 0)"><g class="label" style="" transform="translate(0,-12)"><foreignObject width="95.59375" height="24"><div xmlns="http://www.w3.org/1999/xhtml" style="display: table-cell; white-space: nowrap; line-height: 1.5; max-width: 141px; text-align: center;"><span class="nodeLabel markdown-node-label" style=""><p>+aqi: number</p></span></div></foreignObject></g><g class="label" style="" transform="translate(0,12)"><foreignObject width="159.4375" height="24"><div xmlns="http://www.w3.org/1999/xhtml" style="display: table-cell; white-space: nowrap; line-height: 1.5; max-width: 199px; text-align: center;"><span class="nodeLabel markdown-node-label" style=""><p>+activeAlerts: number</p></span></div></foreignObject></g></g><g class="methods-group text" transform="translate(-114.3984375, 72)"/><g class="divider" style=""><path d="M-126.3984375 -24 C-31.58586277679973 -24, 63.22671194640054 -24, 126.3984375 -24 M-126.3984375 -24 C-70.58215569101799 -24, -14.76587388203599 -24, 126.3984375 -24" stroke="#9370DB" stroke-width="1.3" fill="none" stroke-dasharray="0 0" style=""/></g><g class="divider" style=""><path d="M-126.3984375 48 C-54.049487086376686 48, 18.299463327246627 48, 126.3984375 48 M-126.3984375 48 C-75.20328249689187 48, -24.008127493783746 48, 126.3984375 48" stroke="#9370DB" stroke-width="1.3" fill="none" stroke-dasharray="0 0" style=""/></g></g><g class="node default" id="classId-AnalyticsQueryService-2" transform="translate(218.03515625, 530)"><g class="basic label-container"><path d="M-144.75390625 -75 L144.75390625 -75 L144.75390625 75 L-144.75390625 75" stroke="none" stroke-width="0" fill="#ECECFF" style=""/><path d="M-144.75390625 -75 C-48.5613854499872 -75, 47.6311353500256 -75, 144.75390625 -75 M-144.75390625 -75 C-52.42965139543581 -75, 39.894603459128376 -75, 144.75390625 -75 M144.75390625 -75 C144.75390625 -34.984082429063314, 144.75390625 5.031835141873373, 144.75390625 75 M144.75390625 -75 C144.75390625 -34.0134398681349, 144.75390625 6.973120263730195, 144.75390625 75 M144.75390625 75 C67.40324884624818 75, -9.94740855750365 75, -144.75390625 75 M144.75390625 75 C46.305265885877574 75, -52.14337447824485 75, -144.75390625 75 M-144.75390625 75 C-144.75390625 27.283633149803812, -144.75390625 -20.432733700392376, -144.75390625 -75 M-144.75390625 75 C-144.75390625 38.15461152548931, -144.75390625 1.3092230509786162, -144.75390625 -75" stroke="#9370DB" stroke-width="1.3" fill="none" stroke-dasharray="0 0" style=""/></g><g class="annotation-group text" transform="translate(-41.171875, -51)"><g class="label" style="" transform="translate(0,-12)"><foreignObject width="82.34375" height="24"><div xmlns="http://www.w3.org/1999/xhtml" style="display: table-cell; white-space: nowrap; line-height: 1.5; max-width: 122px; text-align: center;"><span class="nodeLabel markdown-node-label" style=""><p>«interface»</p></span></div></foreignObject></g></g><g class="label-group text" transform="translate(-84.1171875, -27)"><g class="label" style="font-weight: bolder" transform="translate(0,-12)"><foreignObject width="168.234375" height="24"><div xmlns="http://www.w3.org/1999/xhtml" style="display: table-cell; white-space: nowrap; line-height: 1.5; max-width: 199px; text-align: center;"><span class="nodeLabel markdown-node-label" style=""><p>AnalyticsQueryService</p></span></div></foreignObject></g></g><g class="members-group text" transform="translate(-132.75390625, 21)"/><g class="methods-group text" transform="translate(-132.75390625, 51)"><g class="label" style="" transform="translate(0,-12)"><foreignObject width="181.390625" height="24"><div xmlns="http://www.w3.org/1999/xhtml" style="display: table-cell; white-space: nowrap; line-height: 1.5; max-width: 220px; text-align: center;"><span class="nodeLabel markdown-node-label" style=""><p>+handleGetTrends(query)</p></span></div></foreignObject></g></g><g class="divider" style=""><path d="M-144.75390625 -3 C-67.4829750406115 -3, 9.787956168776986 -3, 144.75390625 -3 M-144.75390625 -3 C-51.382067943411684 -3, 41.98977036317663 -3, 144.75390625 -3" stroke="#9370DB" stroke-width="1.3" fill="none" stroke-dasharray="0 0" style=""/></g><g class="divider" style=""><path d="M-144.75390625 21 C-42.837501374557505 21, 59.07890350088499 21, 144.75390625 21 M-144.75390625 21 C-63.676289967567286 21, 17.40132631486543 21, 144.75390625 21" stroke="#9370DB" stroke-width="1.3" fill="none" stroke-dasharray="0 0" style=""/></g></g><g class="node default" id="classId-AnalyticsOverviewQueryService-3" transform="translate(218.03515625, 730)"><g class="basic label-container"><path d="M-172.53515625 -75 L172.53515625 -75 L172.53515625 75 L-172.53515625 75" stroke="none" stroke-width="0" fill="#ECECFF" style=""/><path d="M-172.53515625 -75 C-74.10536625299561 -75, 24.324423744008783 -75, 172.53515625 -75 M-172.53515625 -75 C-74.56736410812857 -75, 23.400428033742855 -75, 172.53515625 -75 M172.53515625 -75 C172.53515625 -20.853546168607302, 172.53515625 33.292907662785396, 172.53515625 75 M172.53515625 -75 C172.53515625 -32.67867724902555, 172.53515625 9.642645501948905, 172.53515625 75 M172.53515625 75 C94.41484330323136 75, 16.29453035646273 75, -172.53515625 75 M172.53515625 75 C73.64955182822833 75, -25.23605259354335 75, -172.53515625 75 M-172.53515625 75 C-172.53515625 15.42683870186508, -172.53515625 -44.14632259626984, -172.53515625 -75 M-172.53515625 75 C-172.53515625 23.41143556948662, -172.53515625 -28.17712886102676, -172.53515625 -75" stroke="#9370DB" stroke-width="1.3" fill="none" stroke-dasharray="0 0" style=""/></g><g class="annotation-group text" transform="translate(-41.171875, -51)"><g class="label" style="" transform="translate(0,-12)"><foreignObject width="82.34375" height="24"><div xmlns="http://www.w3.org/1999/xhtml" style="display: table-cell; white-space: nowrap; line-height: 1.5; max-width: 122px; text-align: center;"><span class="nodeLabel markdown-node-label" style=""><p>«interface»</p></span></div></foreignObject></g></g><g class="label-group text" transform="translate(-119.6953125, -27)"><g class="label" style="font-weight: bolder" transform="translate(0,-12)"><foreignObject width="239.390625" height="24"><div xmlns="http://www.w3.org/1999/xhtml" style="display: table-cell; white-space: nowrap; line-height: 1.5; max-width: 262px; text-align: center;"><span class="nodeLabel markdown-node-label" style=""><p>AnalyticsOverviewQueryService</p></span></div></foreignObject></g></g><g class="members-group text" transform="translate(-160.53515625, 21)"/><g class="methods-group text" transform="translate(-160.53515625, 51)"><g class="label" style="" transform="translate(0,-12)"><foreignObject width="201.375" height="24"><div xmlns="http://www.w3.org/1999/xhtml" style="display: table-cell; white-space: nowrap; line-height: 1.5; max-width: 239px; text-align: center;"><span class="nodeLabel markdown-node-label" style=""><p>+handleGetOverview(query)</p></span></div></foreignObject></g></g><g class="divider" style=""><path d="M-172.53515625 -3 C-70.76514511817284 -3, 31.004866013654322 -3, 172.53515625 -3 M-172.53515625 -3 C-54.820372831383224 -3, 62.89441058723355 -3, 172.53515625 -3" stroke="#9370DB" stroke-width="1.3" fill="none" stroke-dasharray="0 0" style=""/></g><g class="divider" style=""><path d="M-172.53515625 21 C-43.121166715458514 21, 86.29282281908297 21, 172.53515625 21 M-172.53515625 21 C-68.96199514021536 21, 34.61116596956927 21, 172.53515625 21" stroke="#9370DB" stroke-width="1.3" fill="none" stroke-dasharray="0 0" style=""/></g></g><g class="node default" id="classId-AnalyticsGateway-4" transform="translate(218.03515625, 942)"><g class="basic label-container"><path d="M-120.15625 -87 L120.15625 -87 L120.15625 87 L-120.15625 87" stroke="none" stroke-width="0" fill="#ECECFF" style=""/><path d="M-120.15625 -87 C-46.09037292792648 -87, 27.97550414414704 -87, 120.15625 -87 M-120.15625 -87 C-41.404809697209174 -87, 37.34663060558165 -87, 120.15625 -87 M120.15625 -87 C120.15625 -45.147253733376026, 120.15625 -3.2945074667520515, 120.15625 87 M120.15625 -87 C120.15625 -52.19868798367288, 120.15625 -17.397375967345766, 120.15625 87 M120.15625 87 C47.32688562059576 87, -25.50247875880848 87, -120.15625 87 M120.15625 87 C62.531479388171036 87, 4.906708776342072 87, -120.15625 87 M-120.15625 87 C-120.15625 49.65736264678977, -120.15625 12.314725293579542, -120.15625 -87 M-120.15625 87 C-120.15625 33.95084464552729, -120.15625 -19.09831070894542, -120.15625 -87" stroke="#9370DB" stroke-width="1.3" fill="none" stroke-dasharray="0 0" style=""/></g><g class="annotation-group text" transform="translate(-41.171875, -63)"><g class="label" style="" transform="translate(0,-12)"><foreignObject width="82.34375" height="24"><div xmlns="http://www.w3.org/1999/xhtml" style="display: table-cell; white-space: nowrap; line-height: 1.5; max-width: 122px; text-align: center;"><span class="nodeLabel markdown-node-label" style=""><p>«interface»</p></span></div></foreignObject></g></g><g class="label-group text" transform="translate(-65.984375, -39)"><g class="label" style="font-weight: bolder" transform="translate(0,-12)"><foreignObject width="131.96875" height="24"><div xmlns="http://www.w3.org/1999/xhtml" style="display: table-cell; white-space: nowrap; line-height: 1.5; max-width: 168px; text-align: center;"><span class="nodeLabel markdown-node-label" style=""><p>AnalyticsGateway</p></span></div></foreignObject></g></g><g class="members-group text" transform="translate(-108.15625, 9)"/><g class="methods-group text" transform="translate(-108.15625, 39)"><g class="label" style="" transform="translate(0,-12)"><foreignObject width="130.34375" height="24"><div xmlns="http://www.w3.org/1999/xhtml" style="display: table-cell; white-space: nowrap; line-height: 1.5; max-width: 174px; text-align: center;"><span class="nodeLabel markdown-node-label" style=""><p>+getTrends(query)</p></span></div></foreignObject></g><g class="label" style="" transform="translate(0,12)"><foreignObject width="150.328125" height="24"><div xmlns="http://www.w3.org/1999/xhtml" style="display: table-cell; white-space: nowrap; line-height: 1.5; max-width: 193px; text-align: center;"><span class="nodeLabel markdown-node-label" style=""><p>+getOverview(query)</p></span></div></foreignObject></g></g><g class="divider" style=""><path d="M-120.15625 -15 C-33.01294864129444 -15, 54.130352717411114 -15, 120.15625 -15 M-120.15625 -15 C-34.394822385005185 -15, 51.36660522998963 -15, 120.15625 -15" stroke="#9370DB" stroke-width="1.3" fill="none" stroke-dasharray="0 0" style=""/></g><g class="divider" style=""><path d="M-120.15625 9 C-45.057245578087105 9, 30.04175884382579 9, 120.15625 9 M-120.15625 9 C-35.01241396771856 9, 50.131422064562884 9, 120.15625 9" stroke="#9370DB" stroke-width="1.3" fill="none" stroke-dasharray="0 0" style=""/></g></g></g></g></g></g></g><text text-anchor="middle" x="210.03515625" y="-25" class="classDiagramTitleText">Domain - Analytics</text></svg>