<svg id="my-svg" width="100%" xmlns="http://www.w3.org/2000/svg" xmlns:xlink="http://www.w3.org/1999/xlink" class="classDiagram" style="max-width: 3653.45px; background-color: transparent;" viewBox="0 0 3653.4453125 328" role="graphics-document document" aria-roledescription="class"><style>#my-svg{font-family:"trebuchet ms",verdana,arial,sans-serif;font-size:16px;fill:#333;}@keyframes edge-animation-frame{from{stroke-dashoffset:0;}}@keyframes dash{to{stroke-dashoffset:0;}}#my-svg .edge-animation-slow{stroke-dasharray:9,5!important;stroke-dashoffset:900;animation:dash 50s linear infinite;stroke-linecap:round;}#my-svg .edge-animation-fast{stroke-dasharray:9,5!important;stroke-dashoffset:900;animation:dash 20s linear infinite;stroke-linecap:round;}#my-svg .error-icon{fill:#552222;}#my-svg .error-text{fill:#552222;stroke:#552222;}#my-svg .edge-thickness-normal{stroke-width:1px;}#my-svg .edge-thickness-thick{stroke-width:3.5px;}#my-svg .edge-pattern-solid{stroke-dasharray:0;}#my-svg .edge-thickness-invisible{stroke-width:0;fill:none;}#my-svg .edge-pattern-dashed{stroke-dasharray:3;}#my-svg .edge-pattern-dotted{stroke-dasharray:2;}#my-svg .marker{fill:#333333;stroke:#333333;}#my-svg .marker.cross{stroke:#333333;}#my-svg svg{font-family:"trebuchet ms",verdana,arial,sans-serif;font-size:16px;}#my-svg p{margin:0;}#my-svg g.classGroup text{fill:#9370DB;stroke:none;font-family:"trebuchet ms",verdana,arial,sans-serif;font-size:10px;}#my-svg g.classGroup text .title{font-weight:bolder;}#my-svg .nodeLabel,#my-svg .edgeLabel{color:#131300;}#my-svg .edgeLabel .label rect{fill:#ECECFF;}#my-svg .label text{fill:#131300;}#my-svg .labelBkg{background:#ECECFF;}#my-svg .edgeLabel .label span{background:#ECECFF;}#my-svg .classTitle{font-weight:bolder;}#my-svg .node rect,#my-svg .node circle,#my-svg .node ellipse,#my-svg .node polygon,#my-svg .node path{fill:#ECECFF;stroke:#9370DB;stroke-width:1px;}#my-svg .divider{stroke:#9370DB;stroke-width:1;}#my-svg g.clickable{cursor:pointer;}#my-svg g.classGroup rect{fill:#ECECFF;stroke:#9370DB;}#my-svg g.classGroup line{stroke:#9370DB;stroke-width:1;}#my-svg .classLabel .box{stroke:none;stroke-width:0;fill:#ECECFF;opacity:0.5;}#my-svg .classLabel .label{fill:#9370DB;font-size:10px;}#my-svg .relation{stroke:#333333;stroke-width:1;fill:none;}#my-svg .dashed-line{stroke-dasharray:3;}#my-svg .dotted-line{stroke-dasharray:1 2;}#my-svg #compositionStart,#my-svg .composition{fill:#333333!important;stroke:#333333!important;stroke-width:1;}#my-svg #compositionEnd,#my-svg .composition{fill:#333333!important;stroke:#333333!important;stroke-width:1;}#my-svg #dependencyStart,#my-svg .dependency{fill:#333333!important;stroke:#333333!important;stroke-width:1;}#my-svg #dependencyStart,#my-svg .dependency{fill:#333333!important;stroke:#333333!important;stroke-width:1;}#my-svg #extensionStart,#my-svg .extension{fill:transparent!important;stroke:#333333!important;stroke-width:1;}#my-svg #extensionEnd,#my-svg .extension{fill:transparent!important;stroke:#333333!important;stroke-width:1;}#my-svg #aggregationStart,#my-svg .aggregation{fill:transparent!important;stroke:#333333!important;stroke-width:1;}#my-svg #aggregationEnd,#my-svg .aggregation{fill:transparent!important;stroke:#333333!important;stroke-width:1;}#my-svg #lollipopStart,#my-svg .lollipop{fill:#ECECFF!important;stroke:#333333!important;stroke-width:1;}#my-svg #lollipopEnd,#my-svg .lollipop{fill:#ECECFF!important;stroke:#333333!important;stroke-width:1;}#my-svg .edgeTerminals{font-size:11px;line-height:initial;}#my-svg .classTitleText{text-anchor:middle;font-size:18px;fill:#333;}#my-svg .label-icon{display:inline-block;height:1em;overflow:visible;vertical-align:-0.125em;}#my-svg .node .label-icon path{fill:currentColor;stroke:revert;stroke-width:revert;}#my-svg :root{--mermaid-font-family:"trebuchet ms",verdana,arial,sans-serif;}</style><g><defs><marker id="my-svg_class-aggregationStart" class="marker aggregation class" refX="18" refY="7" markerWidth="190" markerHeight="240" orient="auto"><path d="M 18,7 L9,13 L1,7 L9,1 Z"/></marker></defs><defs><marker id="my-svg_class-aggregationEnd" class="marker aggregation class" refX="1" refY="7" markerWidth="20" markerHeight="28" orient="auto"><path d="M 18,7 L9,13 L1,7 L9,1 Z"/></marker></defs><defs><marker id="my-svg_class-extensionStart" class="marker extension class" refX="18" refY="7" markerWidth="190" markerHeight="240" orient="auto"><path d="M 1,7 L18,13 V 1 Z"/></marker></defs><defs><marker id="my-svg_class-extensionEnd" class="marker extension class" refX="1" refY="7" markerWidth="20" markerHeight="28" orient="auto"><path d="M 1,1 V 13 L18,7 Z"/></marker></defs><defs><marker id="my-svg_class-compositionStart" class="marker composition class" refX="18" refY="7" markerWidth="190" markerHeight="240" orient="auto"><path d="M 18,7 L9,13 L1,7 L9,1 Z"/></marker></defs><defs><marker id="my-svg_class-compositionEnd" class="marker composition class" refX="1" refY="7" markerWidth="20" markerHeight="28" orient="auto"><path d="M 18,7 L9,13 L1,7 L9,1 Z"/></marker></defs><defs><marker id="my-svg_class-dependencyStart" class="marker dependency class" refX="6" refY="7" markerWidth="190" markerHeight="240" orient="auto"><path d="M 5,7 L9,13 L1,7 L9,1 Z"/></marker></defs><defs><marker id="my-svg_class-dependencyEnd" class="marker dependency class" refX="13" refY="7" markerWidth="20" markerHeight="28" orient="auto"><path d="M 18,7 L9,13 L14,7 L9,1 Z"/></marker></defs><defs><marker id="my-svg_class-lollipopStart" class="marker lollipop class" refX="13" refY="7" markerWidth="190" markerHeight="240" orient="auto"><circle stroke="black" fill="transparent" cx="7" cy="7" r="6"/></marker></defs><defs><marker id="my-svg_class-lollipopEnd" class="marker lollipop class" refX="1" refY="7" markerWidth="190" markerHeight="240" orient="auto"><circle stroke="black" fill="transparent" cx="7" cy="7" r="6"/></marker></defs><g class="root"><g class="clusters"/><g class="edgePaths"/><g class="edgeLabels"/><g class="nodes"><g class="node default" id="classId-DeviceCommandServiceImpl-0" transform="translate(281.203125, 164)"><g class="basic label-container"><path d="M-273.203125 -156 L273.203125 -156 L273.203125 156 L-273.203125 156" stroke="none" stroke-width="0" fill="#ECECFF" style=""/><path d="M-273.203125 -156 C-133.62543524692526 -156, 5.9522545061494725 -156, 273.203125 -156 M-273.203125 -156 C-55.33171228744058 -156, 162.53970042511884 -156, 273.203125 -156 M273.203125 -156 C273.203125 -72.09320694851834, 273.203125 11.813586102963313, 273.203125 156 M273.203125 -156 C273.203125 -67.08820099574885, 273.203125 21.8235980085023, 273.203125 156 M273.203125 156 C140.23981042124248 156, 7.276495842484962 156, -273.203125 156 M273.203125 156 C126.57041270411446 156, -20.06229959177108 156, -273.203125 156 M-273.203125 156 C-273.203125 87.1512686377928, -273.203125 18.302537275585593, -273.203125 -156 M-273.203125 156 C-273.203125 74.4646604363089, -273.203125 -7.070679127382192, -273.203125 -156" stroke="#9370DB" stroke-width="1.3" fill="none" stroke-dasharray="0 0" style=""/></g><g class="annotation-group text" transform="translate(0, -132)"/><g class="label-group text" transform="translate(-105.859375, -132)"><g class="label" style="font-weight: bolder" transform="translate(0,-12)"><foreignObject width="211.71875" height="24"><div xmlns="http://www.w3.org/1999/xhtml" style="display: table-cell; white-space: nowrap; line-height: 1.5; max-width: 241px; text-align: center;"><span class="nodeLabel markdown-node-label" style=""><p>DeviceCommandServiceImpl</p></span></div></foreignObject></g></g><g class="members-group text" transform="translate(-261.203125, -84)"><g class="label" style="" transform="translate(0,-12)"><foreignObject width="254.90625" height="24"><div xmlns="http://www.w3.org/1999/xhtml" style="display: table-cell; white-space: nowrap; line-height: 1.5; max-width: 291px; text-align: center;"><span class="nodeLabel markdown-node-label" style=""><p>-DeviceRepository deviceRepository</p></span></div></foreignObject></g><g class="label" style="" transform="translate(0,12)"><foreignObject width="416.546875" height="24"><div xmlns="http://www.w3.org/1999/xhtml" style="display: table-cell; white-space: nowrap; line-height: 1.5; max-width: 444px; text-align: center;"><span class="nodeLabel markdown-node-label" style=""><p>-DeviceAssignmentRepository deviceAssignmentRepository</p></span></div></foreignObject></g><g class="label" style="" transform="translate(0,36)"><foreignObject width="242.75" height="24"><div xmlns="http://www.w3.org/1999/xhtml" style="display: table-cell; white-space: nowrap; line-height: 1.5; max-width: 278px; text-align: center;"><span class="nodeLabel markdown-node-label" style=""><p>-SpaceRepository spaceRepository</p></span></div></foreignObject></g><g class="label" style="" transform="translate(0,60)"><foreignObject width="383.015625" height="24"><div xmlns="http://www.w3.org/1999/xhtml" style="display: table-cell; white-space: nowrap; line-height: 1.5; max-width: 414px; text-align: center;"><span class="nodeLabel markdown-node-label" style=""><p>-ProvisioningDevicesChangedKafkaPublisher publisher</p></span></div></foreignObject></g></g><g class="methods-group text" transform="translate(-261.203125, 36)"><g class="label" style="" transform="translate(0,-12)"><foreignObject width="358.046875" height="24"><div xmlns="http://www.w3.org/1999/xhtml" style="display: table-cell; white-space: nowrap; line-height: 1.5; max-width: 389px; text-align: center;"><span class="nodeLabel markdown-node-label" style=""><p>+handle(PairDeviceCommand) : DeviceAssignment</p></span></div></foreignObject></g><g class="label" style="" transform="translate(0,12)"><foreignObject width="371.21875" height="24"><div xmlns="http://www.w3.org/1999/xhtml" style="display: table-cell; white-space: nowrap; line-height: 1.5; max-width: 403px; text-align: center;"><span class="nodeLabel markdown-node-label" style=""><p>+handle(ClaimDeviceCommand) : DeviceAssignment</p></span></div></foreignObject></g><g class="label" style="" transform="translate(0,36)"><foreignObject width="306.515625" height="24"><div xmlns="http://www.w3.org/1999/xhtml" style="display: table-cell; white-space: nowrap; line-height: 1.5; max-width: 341px; text-align: center;"><span class="nodeLabel markdown-node-label" style=""><p>+handle(ResetDeviceAssignmentCommand)</p></span></div></foreignObject></g><g class="label" style="" transform="translate(0,60)"><foreignObject width="279.0625" height="24"><div xmlns="http://www.w3.org/1999/xhtml" style="display: table-cell; white-space: nowrap; line-height: 1.5; max-width: 313px; text-align: center;"><span class="nodeLabel markdown-node-label" style=""><p>+handle(UpdateDeviceNameCommand)</p></span></div></foreignObject></g><g class="label" style="" transform="translate(0,84)"><foreignObject width="332.671875" height="24"><div xmlns="http://www.w3.org/1999/xhtml" style="display: table-cell; white-space: nowrap; line-height: 1.5; max-width: 404px; text-align: center;"><span class="nodeLabel markdown-node-label" style=""><p>+handle(SeedDevicesCommand) : List&lt;Device&gt;</p></span></div></foreignObject></g></g><g class="divider" style=""><path d="M-273.203125 -108 C-140.5323560890004 -108, -7.861587178000775 -108, 273.203125 -108 M-273.203125 -108 C-110.25378319178944 -108, 52.695558616421124 -108, 273.203125 -108" stroke="#9370DB" stroke-width="1.3" fill="none" stroke-dasharray="0 0" style=""/></g><g class="divider" style=""><path d="M-273.203125 12 C-85.20855988115946 12, 102.78600523768108 12, 273.203125 12 M-273.203125 12 C-66.44904002582683 12, 140.30504494834634 12, 273.203125 12" stroke="#9370DB" stroke-width="1.3" fill="none" stroke-dasharray="0 0" style=""/></g></g><g class="node default" id="classId-DeviceControlCommandServiceImpl-1" transform="translate(902.859375, 164)"><g class="basic label-container"><path d="M-298.453125 -108 L298.453125 -108 L298.453125 108 L-298.453125 108" stroke="none" stroke-width="0" fill="#ECECFF" style=""/><path d="M-298.453125 -108 C-94.02468915364778 -108, 110.40374669270443 -108, 298.453125 -108 M-298.453125 -108 C-157.31132633619836 -108, -16.169527672396725 -108, 298.453125 -108 M298.453125 -108 C298.453125 -50.64600409410784, 298.453125 6.707991811784325, 298.453125 108 M298.453125 -108 C298.453125 -24.5109574927246, 298.453125 58.9780850145508, 298.453125 108 M298.453125 108 C75.7334212752873 108, -146.9862824494254 108, -298.453125 108 M298.453125 108 C88.2897299074987 108, -121.87366518500261 108, -298.453125 108 M-298.453125 108 C-298.453125 33.34808906340855, -298.453125 -41.3038218731829, -298.453125 -108 M-298.453125 108 C-298.453125 44.81968533316629, -298.453125 -18.36062933366742, -298.453125 -108" stroke="#9370DB" stroke-width="1.3" fill="none" stroke-dasharray="0 0" style=""/></g><g class="annotation-group text" transform="translate(0, -84)"/><g class="label-group text" transform="translate(-133.484375, -84)"><g class="label" style="font-weight: bolder" transform="translate(0,-12)"><foreignObject width="266.96875" height="24"><div xmlns="http://www.w3.org/1999/xhtml" style="display: table-cell; white-space: nowrap; line-height: 1.5; max-width: 290px; text-align: center;"><span class="nodeLabel markdown-node-label" style=""><p>DeviceControlCommandServiceImpl</p></span></div></foreignObject></g></g><g class="members-group text" transform="translate(-286.453125, -36)"><g class="label" style="" transform="translate(0,-12)"><foreignObject width="396.46875" height="24"><div xmlns="http://www.w3.org/1999/xhtml" style="display: table-cell; white-space: nowrap; line-height: 1.5; max-width: 425px; text-align: center;"><span class="nodeLabel markdown-node-label" style=""><p>-DeviceCommandRepository deviceCommandRepository</p></span></div></foreignObject></g><g class="label" style="" transform="translate(0,12)"><foreignObject width="416.546875" height="24"><div xmlns="http://www.w3.org/1999/xhtml" style="display: table-cell; white-space: nowrap; line-height: 1.5; max-width: 444px; text-align: center;"><span class="nodeLabel markdown-node-label" style=""><p>-DeviceAssignmentRepository deviceAssignmentRepository</p></span></div></foreignObject></g><g class="label" style="" transform="translate(0,36)"><foreignObject width="363.484375" height="24"><div xmlns="http://www.w3.org/1999/xhtml" style="display: table-cell; white-space: nowrap; line-height: 1.5; max-width: 394px; text-align: center;"><span class="nodeLabel markdown-node-label" style=""><p>-DeviceCommandsPendingKafkaPublisher publisher</p></span></div></foreignObject></g></g><g class="methods-group text" transform="translate(-286.453125, 60)"><g class="label" style="" transform="translate(0,-12)"><foreignObject width="439.421875" height="24"><div xmlns="http://www.w3.org/1999/xhtml" style="display: table-cell; white-space: nowrap; line-height: 1.5; max-width: 463px; text-align: center;"><span class="nodeLabel markdown-node-label" style=""><p>+handle(CreateDeviceCommandCommand) : DeviceCommand</p></span></div></foreignObject></g><g class="label" style="" transform="translate(0,12)"><foreignObject width="381.09375" height="24"><div xmlns="http://www.w3.org/1999/xhtml" style="display: table-cell; white-space: nowrap; line-height: 1.5; max-width: 411px; text-align: center;"><span class="nodeLabel markdown-node-label" style=""><p>+handle(DispatchPendingDeviceCommandsCommand)</p></span></div></foreignObject></g></g><g class="divider" style=""><path d="M-298.453125 -60 C-121.41738449814022 -60, 55.618356003719555 -60, 298.453125 -60 M-298.453125 -60 C-125.89407921922185 -60, 46.6649665615563 -60, 298.453125 -60" stroke="#9370DB" stroke-width="1.3" fill="none" stroke-dasharray="0 0" style=""/></g><g class="divider" style=""><path d="M-298.453125 36 C-84.84026494348939 36, 128.77259511302123 36, 298.453125 36 M-298.453125 36 C-144.15753844679975 36, 10.138048106400504 36, 298.453125 36" stroke="#9370DB" stroke-width="1.3" fill="none" stroke-dasharray="0 0" style=""/></g></g><g class="node default" id="classId-DevicePresenceCommandServiceImpl-2" transform="translate(1541.6015625, 164)"><g class="basic label-container"><path d="M-290.2890625 -72 L290.2890625 -72 L290.2890625 72 L-290.2890625 72" stroke="none" stroke-width="0" fill="#ECECFF" style=""/><path d="M-290.2890625 -72 C-135.74754641478623 -72, 18.793969670427543 -72, 290.2890625 -72 M-290.2890625 -72 C-86.29440090176962 -72, 117.70026069646076 -72, 290.2890625 -72 M290.2890625 -72 C290.2890625 -38.26850262505758, 290.2890625 -4.537005250115158, 290.2890625 72 M290.2890625 -72 C290.2890625 -30.95455589543276, 290.2890625 10.090888209134476, 290.2890625 72 M290.2890625 72 C130.26139588283638 72, -29.766270734327236 72, -290.2890625 72 M290.2890625 72 C159.59284046795003 72, 28.896618435900052 72, -290.2890625 72 M-290.2890625 72 C-290.2890625 41.40207974496086, -290.2890625 10.804159489921723, -290.2890625 -72 M-290.2890625 72 C-290.2890625 23.682162677373114, -290.2890625 -24.635674645253772, -290.2890625 -72" stroke="#9370DB" stroke-width="1.3" fill="none" stroke-dasharray="0 0" style=""/></g><g class="annotation-group text" transform="translate(0, -48)"/><g class="label-group text" transform="translate(-140.03125, -48)"><g class="label" style="font-weight: bolder" transform="translate(0,-12)"><foreignObject width="280.0625" height="24"><div xmlns="http://www.w3.org/1999/xhtml" style="display: table-cell; white-space: nowrap; line-height: 1.5; max-width: 298px; text-align: center;"><span class="nodeLabel markdown-node-label" style=""><p>DevicePresenceCommandServiceImpl</p></span></div></foreignObject></g></g><g class="members-group text" transform="translate(-278.2890625, 0)"><g class="label" style="" transform="translate(0,-12)"><foreignObject width="416.546875" height="24"><div xmlns="http://www.w3.org/1999/xhtml" style="display: table-cell; white-space: nowrap; line-height: 1.5; max-width: 444px; text-align: center;"><span class="nodeLabel markdown-node-label" style=""><p>-DeviceAssignmentRepository deviceAssignmentRepository</p></span></div></foreignObject></g></g><g class="methods-group text" transform="translate(-278.2890625, 48)"><g class="label" style="" transform="translate(0,-12)"><foreignObject width="346.15625" height="24"><div xmlns="http://www.w3.org/1999/xhtml" style="display: table-cell; white-space: nowrap; line-height: 1.5; max-width: 371px; text-align: center;"><span class="nodeLabel markdown-node-label" style=""><p>+handle(UpdateDevicePresenceStatusCommand)</p></span></div></foreignObject></g></g><g class="divider" style=""><path d="M-290.2890625 -24 C-100.98650892166825 -24, 88.31604465666351 -24, 290.2890625 -24 M-290.2890625 -24 C-118.90386772970223 -24, 52.481327040595545 -24, 290.2890625 -24" stroke="#9370DB" stroke-width="1.3" fill="none" stroke-dasharray="0 0" style=""/></g><g class="divider" style=""><path d="M-290.2890625 24 C-140.51130412172515 24, 9.266454256549707 24, 290.2890625 24 M-290.2890625 24 C-90.12836555295118 24, 110.03233139409764 24, 290.2890625 24" stroke="#9370DB" stroke-width="1.3" fill="none" stroke-dasharray="0 0" style=""/></g></g><g class="node default" id="classId-DeviceThresholdCommandServiceImpl-3" transform="translate(2173.78125, 164)"><g class="basic label-container"><path d="M-291.890625 -84 L291.890625 -84 L291.890625 84 L-291.890625 84" stroke="none" stroke-width="0" fill="#ECECFF" style=""/><path d="M-291.890625 -84 C-163.63971126310125 -84, -35.388797526202495 -84, 291.890625 -84 M-291.890625 -84 C-102.62971230577759 -84, 86.63120038844482 -84, 291.890625 -84 M291.890625 -84 C291.890625 -47.59803993131033, 291.890625 -11.196079862620664, 291.890625 84 M291.890625 -84 C291.890625 -18.101682262081837, 291.890625 47.796635475836325, 291.890625 84 M291.890625 84 C105.5623923713382 84, -80.76584025732359 84, -291.890625 84 M291.890625 84 C159.48199179627306 84, 27.07335859254613 84, -291.890625 84 M-291.890625 84 C-291.890625 49.07315963595399, -291.890625 14.146319271907984, -291.890625 -84 M-291.890625 84 C-291.890625 50.348083518217805, -291.890625 16.69616703643561, -291.890625 -84" stroke="#9370DB" stroke-width="1.3" fill="none" stroke-dasharray="0 0" style=""/></g><g class="annotation-group text" transform="translate(0, -60)"/><g class="label-group text" transform="translate(-143.234375, -60)"><g class="label" style="font-weight: bolder" transform="translate(0,-12)"><foreignObject width="286.46875" height="24"><div xmlns="http://www.w3.org/1999/xhtml" style="display: table-cell; white-space: nowrap; line-height: 1.5; max-width: 306px; text-align: center;"><span class="nodeLabel markdown-node-label" style=""><p>DeviceThresholdCommandServiceImpl</p></span></div></foreignObject></g></g><g class="members-group text" transform="translate(-279.890625, -12)"><g class="label" style="" transform="translate(0,-12)"><foreignObject width="416.546875" height="24"><div xmlns="http://www.w3.org/1999/xhtml" style="display: table-cell; white-space: nowrap; line-height: 1.5; max-width: 444px; text-align: center;"><span class="nodeLabel markdown-node-label" style=""><p>-DeviceAssignmentRepository deviceAssignmentRepository</p></span></div></foreignObject></g></g><g class="methods-group text" transform="translate(-279.890625, 36)"><g class="label" style="" transform="translate(0,-12)"><foreignObject width="295.859375" height="24"><div xmlns="http://www.w3.org/1999/xhtml" style="display: table-cell; white-space: nowrap; line-height: 1.5; max-width: 329px; text-align: center;"><span class="nodeLabel markdown-node-label" style=""><p>+handle(WriteDeviceThresholdCommand)</p></span></div></foreignObject></g><g class="label" style="" transform="translate(0,12)"><foreignObject width="313" height="24"><div xmlns="http://www.w3.org/1999/xhtml" style="display: table-cell; white-space: nowrap; line-height: 1.5; max-width: 347px; text-align: center;"><span class="nodeLabel markdown-node-label" style=""><p>+handle(RemoveDeviceThresholdCommand)</p></span></div></foreignObject></g></g><g class="divider" style=""><path d="M-291.890625 -36 C-97.866589760665 -36, 96.15744547867001 -36, 291.890625 -36 M-291.890625 -36 C-170.71701357398763 -36, -49.54340214797523 -36, 291.890625 -36" stroke="#9370DB" stroke-width="1.3" fill="none" stroke-dasharray="0 0" style=""/></g><g class="divider" style=""><path d="M-291.890625 12 C-96.8374907171972 12, 98.2156435656056 12, 291.890625 12 M-291.890625 12 C-83.36374762760724 12, 125.16312974478552 12, 291.890625 12" stroke="#9370DB" stroke-width="1.3" fill="none" stroke-dasharray="0 0" style=""/></g></g><g class="node default" id="classId-OrganizationCommandServiceImpl-4" transform="translate(2784.14453125, 164)"><g class="basic label-container"><path d="M-268.47265625 -96 L268.47265625 -96 L268.47265625 96 L-268.47265625 96" stroke="none" stroke-width="0" fill="#ECECFF" style=""/><path d="M-268.47265625 -96 C-78.1309369724365 -96, 112.210782305127 -96, 268.47265625 -96 M-268.47265625 -96 C-122.43991898322002 -96, 23.59281828355995 -96, 268.47265625 -96 M268.47265625 -96 C268.47265625 -42.04214116480385, 268.47265625 11.915717670392297, 268.47265625 96 M268.47265625 -96 C268.47265625 -41.210179050086126, 268.47265625 13.579641899827749, 268.47265625 96 M268.47265625 96 C126.66352791518341 96, -15.145600419633183 96, -268.47265625 96 M268.47265625 96 C159.09391756667094 96, 49.71517888334188 96, -268.47265625 96 M-268.47265625 96 C-268.47265625 30.84194257269654, -268.47265625 -34.31611485460692, -268.47265625 -96 M-268.47265625 96 C-268.47265625 22.055892047508138, -268.47265625 -51.888215904983724, -268.47265625 -96" stroke="#9370DB" stroke-width="1.3" fill="none" stroke-dasharray="0 0" style=""/></g><g class="annotation-group text" transform="translate(0, -72)"/><g class="label-group text" transform="translate(-128.3046875, -72)"><g class="label" style="font-weight: bolder" transform="translate(0,-12)"><foreignObject width="256.609375" height="24"><div xmlns="http://www.w3.org/1999/xhtml" style="display: table-cell; white-space: nowrap; line-height: 1.5; max-width: 279px; text-align: center;"><span class="nodeLabel markdown-node-label" style=""><p>OrganizationCommandServiceImpl</p></span></div></foreignObject></g></g><g class="members-group text" transform="translate(-256.47265625, -24)"><g class="label" style="" transform="translate(0,-12)"><foreignObject width="340.390625" height="24"><div xmlns="http://www.w3.org/1999/xhtml" style="display: table-cell; white-space: nowrap; line-height: 1.5; max-width: 367px; text-align: center;"><span class="nodeLabel markdown-node-label" style=""><p>-OrganizationRepository organizationRepository</p></span></div></foreignObject></g></g><g class="methods-group text" transform="translate(-256.47265625, 24)"><g class="label" style="" transform="translate(0,-12)"><foreignObject width="384.640625" height="24"><div xmlns="http://www.w3.org/1999/xhtml" style="display: table-cell; white-space: nowrap; line-height: 1.5; max-width: 404px; text-align: center;"><span class="nodeLabel markdown-node-label" style=""><p>+handle(CreateOrganizationCommand) : Organization</p></span></div></foreignObject></g><g class="label" style="" transform="translate(0,12)"><foreignObject width="322.453125" height="24"><div xmlns="http://www.w3.org/1999/xhtml" style="display: table-cell; white-space: nowrap; line-height: 1.5; max-width: 351px; text-align: center;"><span class="nodeLabel markdown-node-label" style=""><p>+handle(UpdateOrganizationNameCommand)</p></span></div></foreignObject></g><g class="label" style="" transform="translate(0,36)"><foreignObject width="277.203125" height="24"><div xmlns="http://www.w3.org/1999/xhtml" style="display: table-cell; white-space: nowrap; line-height: 1.5; max-width: 308px; text-align: center;"><span class="nodeLabel markdown-node-label" style=""><p>+handle(DeleteOrganizationCommand)</p></span></div></foreignObject></g></g><g class="divider" style=""><path d="M-268.47265625 -48 C-98.51617847187973 -48, 71.44029930624055 -48, 268.47265625 -48 M-268.47265625 -48 C-83.90693048467 -48, 100.65879528066 -48, 268.47265625 -48" stroke="#9370DB" stroke-width="1.3" fill="none" stroke-dasharray="0 0" style=""/></g><g class="divider" style=""><path d="M-268.47265625 0 C-72.64775104394079 0, 123.17715416211843 0, 268.47265625 0 M-268.47265625 0 C-98.19216825023679 0, 72.08831974952642 0, 268.47265625 0" stroke="#9370DB" stroke-width="1.3" fill="none" stroke-dasharray="0 0" style=""/></g></g><g class="node default" id="classId-SpaceCommandServiceImpl-5" transform="translate(3374.03125, 164)"><g class="basic label-container"><path d="M-271.4140625 -132 L271.4140625 -132 L271.4140625 132 L-271.4140625 132" stroke="none" stroke-width="0" fill="#ECECFF" style=""/><path d="M-271.4140625 -132 C-159.67481751651596 -132, -47.935572533031916 -132, 271.4140625 -132 M-271.4140625 -132 C-130.5317259013259 -132, 10.350610697348202 -132, 271.4140625 -132 M271.4140625 -132 C271.4140625 -64.24151953961393, 271.4140625 3.516960920772135, 271.4140625 132 M271.4140625 -132 C271.4140625 -65.9686809380318, 271.4140625 0.06263812393640933, 271.4140625 132 M271.4140625 132 C158.74888023517406 132, 46.083697970348084 132, -271.4140625 132 M271.4140625 132 C123.81068774451387 132, -23.79268701097226 132, -271.4140625 132 M-271.4140625 132 C-271.4140625 49.85353718006172, -271.4140625 -32.29292563987656, -271.4140625 -132 M-271.4140625 132 C-271.4140625 77.57642007110385, -271.4140625 23.152840142207722, -271.4140625 -132" stroke="#9370DB" stroke-width="1.3" fill="none" stroke-dasharray="0 0" style=""/></g><g class="annotation-group text" transform="translate(0, -108)"/><g class="label-group text" transform="translate(-102.28125, -108)"><g class="label" style="font-weight: bolder" transform="translate(0,-12)"><foreignObject width="204.5625" height="24"><div xmlns="http://www.w3.org/1999/xhtml" style="display: table-cell; white-space: nowrap; line-height: 1.5; max-width: 234px; text-align: center;"><span class="nodeLabel markdown-node-label" style=""><p>SpaceCommandServiceImpl</p></span></div></foreignObject></g></g><g class="members-group text" transform="translate(-259.4140625, -60)"><g class="label" style="" transform="translate(0,-12)"><foreignObject width="242.75" height="24"><div xmlns="http://www.w3.org/1999/xhtml" style="display: table-cell; white-space: nowrap; line-height: 1.5; max-width: 278px; text-align: center;"><span class="nodeLabel markdown-node-label" style=""><p>-SpaceRepository spaceRepository</p></span></div></foreignObject></g><g class="label" style="" transform="translate(0,12)"><foreignObject width="340.390625" height="24"><div xmlns="http://www.w3.org/1999/xhtml" style="display: table-cell; white-space: nowrap; line-height: 1.5; max-width: 367px; text-align: center;"><span class="nodeLabel markdown-node-label" style=""><p>-OrganizationRepository organizationRepository</p></span></div></foreignObject></g><g class="label" style="" transform="translate(0,36)"><foreignObject width="416.546875" height="24"><div xmlns="http://www.w3.org/1999/xhtml" style="display: table-cell; white-space: nowrap; line-height: 1.5; max-width: 444px; text-align: center;"><span class="nodeLabel markdown-node-label" style=""><p>-DeviceAssignmentRepository deviceAssignmentRepository</p></span></div></foreignObject></g><g class="label" style="" transform="translate(0,60)"><foreignObject width="322.5" height="24"><div xmlns="http://www.w3.org/1999/xhtml" style="display: table-cell; white-space: nowrap; line-height: 1.5; max-width: 354px; text-align: center;"><span class="nodeLabel markdown-node-label" style=""><p>-ExternalBillingService externalBillingService</p></span></div></foreignObject></g></g><g class="methods-group text" transform="translate(-259.4140625, 60)"><g class="label" style="" transform="translate(0,-12)"><foreignObject width="286.015625" height="24"><div xmlns="http://www.w3.org/1999/xhtml" style="display: table-cell; white-space: nowrap; line-height: 1.5; max-width: 314px; text-align: center;"><span class="nodeLabel markdown-node-label" style=""><p>+handle(CreateSpaceCommand) : Space</p></span></div></foreignObject></g><g class="label" style="" transform="translate(0,12)"><foreignObject width="273.140625" height="24"><div xmlns="http://www.w3.org/1999/xhtml" style="display: table-cell; white-space: nowrap; line-height: 1.5; max-width: 306px; text-align: center;"><span class="nodeLabel markdown-node-label" style=""><p>+handle(UpdateSpaceNameCommand)</p></span></div></foreignObject></g><g class="label" style="" transform="translate(0,36)"><foreignObject width="227.890625" height="24"><div xmlns="http://www.w3.org/1999/xhtml" style="display: table-cell; white-space: nowrap; line-height: 1.5; max-width: 263px; text-align: center;"><span class="nodeLabel markdown-node-label" style=""><p>+handle(DeleteSpaceCommand)</p></span></div></foreignObject></g></g><g class="divider" style=""><path d="M-271.4140625 -84 C-147.0782065993817 -84, -22.742350698763374 -84, 271.4140625 -84 M-271.4140625 -84 C-146.1540793205288 -84, -20.894096141057645 -84, 271.4140625 -84" stroke="#9370DB" stroke-width="1.3" fill="none" stroke-dasharray="0 0" style=""/></g><g class="divider" style=""><path d="M-271.4140625 36 C-119.02947405949286 36, 33.35511438101429 36, 271.4140625 36 M-271.4140625 36 C-64.06721545738142 36, 143.27963158523715 36, 271.4140625 36" stroke="#9370DB" stroke-width="1.3" fill="none" stroke-dasharray="0 0" style=""/></g></g></g></g></g></svg>