<svg id="my-svg" width="100%" xmlns="http://www.w3.org/2000/svg" xmlns:xlink="http://www.w3.org/1999/xlink" class="classDiagram" style="max-width: 2735.52px; background-color: transparent;" viewBox="0 0 2735.515625 280" role="graphics-document document" aria-roledescription="class"><style>#my-svg{font-family:"trebuchet ms",verdana,arial,sans-serif;font-size:16px;fill:#333;}@keyframes edge-animation-frame{from{stroke-dashoffset:0;}}@keyframes dash{to{stroke-dashoffset:0;}}#my-svg .edge-animation-slow{stroke-dasharray:9,5!important;stroke-dashoffset:900;animation:dash 50s linear infinite;stroke-linecap:round;}#my-svg .edge-animation-fast{stroke-dasharray:9,5!important;stroke-dashoffset:900;animation:dash 20s linear infinite;stroke-linecap:round;}#my-svg .error-icon{fill:#552222;}#my-svg .error-text{fill:#552222;stroke:#552222;}#my-svg .edge-thickness-normal{stroke-width:1px;}#my-svg .edge-thickness-thick{stroke-width:3.5px;}#my-svg .edge-pattern-solid{stroke-dasharray:0;}#my-svg .edge-thickness-invisible{stroke-width:0;fill:none;}#my-svg .edge-pattern-dashed{stroke-dasharray:3;}#my-svg .edge-pattern-dotted{stroke-dasharray:2;}#my-svg .marker{fill:#333333;stroke:#333333;}#my-svg .marker.cross{stroke:#333333;}#my-svg svg{font-family:"trebuchet ms",verdana,arial,sans-serif;font-size:16px;}#my-svg p{margin:0;}#my-svg g.classGroup text{fill:#9370DB;stroke:none;font-family:"trebuchet ms",verdana,arial,sans-serif;font-size:10px;}#my-svg g.classGroup text .title{font-weight:bolder;}#my-svg .nodeLabel,#my-svg .edgeLabel{color:#131300;}#my-svg .edgeLabel .label rect{fill:#ECECFF;}#my-svg .label text{fill:#131300;}#my-svg .labelBkg{background:#ECECFF;}#my-svg .edgeLabel .label span{background:#ECECFF;}#my-svg .classTitle{font-weight:bolder;}#my-svg .node rect,#my-svg .node circle,#my-svg .node ellipse,#my-svg .node polygon,#my-svg .node path{fill:#ECECFF;stroke:#9370DB;stroke-width:1px;}#my-svg .divider{stroke:#9370DB;stroke-width:1;}#my-svg g.clickable{cursor:pointer;}#my-svg g.classGroup rect{fill:#ECECFF;stroke:#9370DB;}#my-svg g.classGroup line{stroke:#9370DB;stroke-width:1;}#my-svg .classLabel .box{stroke:none;stroke-width:0;fill:#ECECFF;opacity:0.5;}#my-svg .classLabel .label{fill:#9370DB;font-size:10px;}#my-svg .relation{stroke:#333333;stroke-width:1;fill:none;}#my-svg .dashed-line{stroke-dasharray:3;}#my-svg .dotted-line{stroke-dasharray:1 2;}#my-svg #compositionStart,#my-svg .composition{fill:#333333!important;stroke:#333333!important;stroke-width:1;}#my-svg #compositionEnd,#my-svg .composition{fill:#333333!important;stroke:#333333!important;stroke-width:1;}#my-svg #dependencyStart,#my-svg .dependency{fill:#333333!important;stroke:#333333!important;stroke-width:1;}#my-svg #dependencyStart,#my-svg .dependency{fill:#333333!important;stroke:#333333!important;stroke-width:1;}#my-svg #extensionStart,#my-svg .extension{fill:transparent!important;stroke:#333333!important;stroke-width:1;}#my-svg #extensionEnd,#my-svg .extension{fill:transparent!important;stroke:#333333!important;stroke-width:1;}#my-svg #aggregationStart,#my-svg .aggregation{fill:transparent!important;stroke:#333333!important;stroke-width:1;}#my-svg #aggregationEnd,#my-svg .aggregation{fill:transparent!important;stroke:#333333!important;stroke-width:1;}#my-svg #lollipopStart,#my-svg .lollipop{fill:#ECECFF!important;stroke:#333333!important;stroke-width:1;}#my-svg #lollipopEnd,#my-svg .lollipop{fill:#ECECFF!important;stroke:#333333!important;stroke-width:1;}#my-svg .edgeTerminals{font-size:11px;line-height:initial;}#my-svg .classTitleText{text-anchor:middle;font-size:18px;fill:#333;}#my-svg .label-icon{display:inline-block;height:1em;overflow:visible;vertical-align:-0.125em;}#my-svg .node .label-icon path{fill:currentColor;stroke:revert;stroke-width:revert;}#my-svg :root{--mermaid-font-family:"trebuchet ms",verdana,arial,sans-serif;}</style><g><defs><marker id="my-svg_class-aggregationStart" class="marker aggregation class" refX="18" refY="7" markerWidth="190" markerHeight="240" orient="auto"><path d="M 18,7 L9,13 L1,7 L9,1 Z"/></marker></defs><defs><marker id="my-svg_class-aggregationEnd" class="marker aggregation class" refX="1" refY="7" markerWidth="20" markerHeight="28" orient="auto"><path d="M 18,7 L9,13 L1,7 L9,1 Z"/></marker></defs><defs><marker id="my-svg_class-extensionStart" class="marker extension class" refX="18" refY="7" markerWidth="190" markerHeight="240" orient="auto"><path d="M 1,7 L18,13 V 1 Z"/></marker></defs><defs><marker id="my-svg_class-extensionEnd" class="marker extension class" refX="1" refY="7" markerWidth="20" markerHeight="28" orient="auto"><path d="M 1,1 V 13 L18,7 Z"/></marker></defs><defs><marker id="my-svg_class-compositionStart" class="marker composition class" refX="18" refY="7" markerWidth="190" markerHeight="240" orient="auto"><path d="M 18,7 L9,13 L1,7 L9,1 Z"/></marker></defs><defs><marker id="my-svg_class-compositionEnd" class="marker composition class" refX="1" refY="7" markerWidth="20" markerHeight="28" orient="auto"><path d="M 18,7 L9,13 L1,7 L9,1 Z"/></marker></defs><defs><marker id="my-svg_class-dependencyStart" class="marker dependency class" refX="6" refY="7" markerWidth="190" markerHeight="240" orient="auto"><path d="M 5,7 L9,13 L1,7 L9,1 Z"/></marker></defs><defs><marker id="my-svg_class-dependencyEnd" class="marker dependency class" refX="13" refY="7" markerWidth="20" markerHeight="28" orient="auto"><path d="M 18,7 L9,13 L14,7 L9,1 Z"/></marker></defs><defs><marker id="my-svg_class-lollipopStart" class="marker lollipop class" refX="13" refY="7" markerWidth="190" markerHeight="240" orient="auto"><circle stroke="black" fill="transparent" cx="7" cy="7" r="6"/></marker></defs><defs><marker id="my-svg_class-lollipopEnd" class="marker lollipop class" refX="1" refY="7" markerWidth="190" markerHeight="240" orient="auto"><circle stroke="black" fill="transparent" cx="7" cy="7" r="6"/></marker></defs><g class="root"><g class="clusters"/><g class="edgePaths"/><g class="edgeLabels"/><g class="nodes"><g class="node default" id="classId-SubscriptionCommandServiceImpl-0" transform="translate(274.7109375, 140)"><g class="basic label-container"><path d="M-266.7109375 -132 L266.7109375 -132 L266.7109375 132 L-266.7109375 132" stroke="none" stroke-width="0" fill="#ECECFF" style=""/><path d="M-266.7109375 -132 C-148.25377848680498 -132, -29.79661947360995 -132, 266.7109375 -132 M-266.7109375 -132 C-80.45699898075333 -132, 105.79693953849335 -132, 266.7109375 -132 M266.7109375 -132 C266.7109375 -41.87076246841853, 266.7109375 48.25847506316293, 266.7109375 132 M266.7109375 -132 C266.7109375 -40.360846126464324, 266.7109375 51.27830774707135, 266.7109375 132 M266.7109375 132 C153.3727345786601 132, 40.0345316573202 132, -266.7109375 132 M266.7109375 132 C102.55302421464864 132, -61.60488907070271 132, -266.7109375 132 M-266.7109375 132 C-266.7109375 50.40954312494678, -266.7109375 -31.18091375010644, -266.7109375 -132 M-266.7109375 132 C-266.7109375 73.62782743527914, -266.7109375 15.255654870558288, -266.7109375 -132" stroke="#9370DB" stroke-width="1.3" fill="none" stroke-dasharray="0 0" style=""/></g><g class="annotation-group text" transform="translate(0, -108)"/><g class="label-group text" transform="translate(-126.859375, -108)"><g class="label" style="font-weight: bolder" transform="translate(0,-12)"><foreignObject width="253.71875" height="24"><div xmlns="http://www.w3.org/1999/xhtml" style="display: table-cell; white-space: nowrap; line-height: 1.5; max-width: 276px; text-align: center;"><span class="nodeLabel markdown-node-label" style=""><p>SubscriptionCommandServiceImpl</p></span></div></foreignObject></g></g><g class="members-group text" transform="translate(-254.7109375, -60)"><g class="label" style="" transform="translate(0,-12)"><foreignObject width="259.5625" height="24"><div xmlns="http://www.w3.org/1999/xhtml" style="display: table-cell; white-space: nowrap; line-height: 1.5; max-width: 289px; text-align: center;"><span class="nodeLabel markdown-node-label" style=""><p>-PaymentGateway paymentGateway</p></span></div></foreignObject></g><g class="label" style="" transform="translate(0,12)"><foreignObject width="382.5625" height="24"><div xmlns="http://www.w3.org/1999/xhtml" style="display: table-cell; white-space: nowrap; line-height: 1.5; max-width: 408px; text-align: center;"><span class="nodeLabel markdown-node-label" style=""><p>-PaymentRecordRepository paymentRecordRepository</p></span></div></foreignObject></g><g class="label" style="" transform="translate(0,36)"><foreignObject width="284.171875" height="24"><div xmlns="http://www.w3.org/1999/xhtml" style="display: table-cell; white-space: nowrap; line-height: 1.5; max-width: 318px; text-align: center;"><span class="nodeLabel markdown-node-label" style=""><p>-UserPlanRepository userPlanRepository</p></span></div></foreignObject></g></g><g class="methods-group text" transform="translate(-254.7109375, 36)"><g class="label" style="" transform="translate(0,-12)"><foreignObject width="362.25" height="24"><div xmlns="http://www.w3.org/1999/xhtml" style="display: table-cell; white-space: nowrap; line-height: 1.5; max-width: 387px; text-align: center;"><span class="nodeLabel markdown-node-label" style=""><p>+handle(CreateCheckoutSessionCommand) : String</p></span></div></foreignObject></g><g class="label" style="" transform="translate(0,12)"><foreignObject width="349.1875" height="24"><div xmlns="http://www.w3.org/1999/xhtml" style="display: table-cell; white-space: nowrap; line-height: 1.5; max-width: 370px; text-align: center;"><span class="nodeLabel markdown-node-label" style=""><p>+handle(CreatePaymentIntentCommand) : String</p></span></div></foreignObject></g><g class="label" style="" transform="translate(0,36)"><foreignObject width="314.046875" height="24"><div xmlns="http://www.w3.org/1999/xhtml" style="display: table-cell; white-space: nowrap; line-height: 1.5; max-width: 346px; text-align: center;"><span class="nodeLabel markdown-node-label" style=""><p>+handle(FulfillSubscriptionCommand) : void</p></span></div></foreignObject></g><g class="label" style="" transform="translate(0,60)"><foreignObject width="351.75" height="24"><div xmlns="http://www.w3.org/1999/xhtml" style="display: table-cell; white-space: nowrap; line-height: 1.5; max-width: 382px; text-align: center;"><span class="nodeLabel markdown-node-label" style=""><p>+handle(DowngradeToFreemiumCommand) : void</p></span></div></foreignObject></g></g><g class="divider" style=""><path d="M-266.7109375 -84 C-55.0032646614369 -84, 156.7044081771262 -84, 266.7109375 -84 M-266.7109375 -84 C-108.58207682894673 -84, 49.54678384210655 -84, 266.7109375 -84" stroke="#9370DB" stroke-width="1.3" fill="none" stroke-dasharray="0 0" style=""/></g><g class="divider" style=""><path d="M-266.7109375 12 C-158.73929854818397 12, -50.767659596367935 12, 266.7109375 12 M-266.7109375 12 C-90.02465305253011 12, 86.66163139493977 12, 266.7109375 12" stroke="#9370DB" stroke-width="1.3" fill="none" stroke-dasharray="0 0" style=""/></g></g><g class="node default" id="classId-SubscriptionQueryServiceImpl-1" transform="translate(890.44921875, 140)"><g class="basic label-container"><path d="M-299.02734375 -108 L299.02734375 -108 L299.02734375 108 L-299.02734375 108" stroke="none" stroke-width="0" fill="#ECECFF" style=""/><path d="M-299.02734375 -108 C-97.37164604610933 -108, 104.28405165778133 -108, 299.02734375 -108 M-299.02734375 -108 C-172.70523771698726 -108, -46.38313168397448 -108, 299.02734375 -108 M299.02734375 -108 C299.02734375 -42.84776578342871, 299.02734375 22.304468433142574, 299.02734375 108 M299.02734375 -108 C299.02734375 -25.416868900565305, 299.02734375 57.16626219886939, 299.02734375 108 M299.02734375 108 C77.06407582970749 108, -144.89919209058502 108, -299.02734375 108 M299.02734375 108 C152.96512541706102 108, 6.902907084122035 108, -299.02734375 108 M-299.02734375 108 C-299.02734375 53.797440846352565, -299.02734375 -0.4051183072948703, -299.02734375 -108 M-299.02734375 108 C-299.02734375 62.284788623819196, -299.02734375 16.569577247638392, -299.02734375 -108" stroke="#9370DB" stroke-width="1.3" fill="none" stroke-dasharray="0 0" style=""/></g><g class="annotation-group text" transform="translate(0, -84)"/><g class="label-group text" transform="translate(-112.7421875, -84)"><g class="label" style="font-weight: bolder" transform="translate(0,-12)"><foreignObject width="225.484375" height="24"><div xmlns="http://www.w3.org/1999/xhtml" style="display: table-cell; white-space: nowrap; line-height: 1.5; max-width: 250px; text-align: center;"><span class="nodeLabel markdown-node-label" style=""><p>SubscriptionQueryServiceImpl</p></span></div></foreignObject></g></g><g class="members-group text" transform="translate(-287.02734375, -36)"><g class="label" style="" transform="translate(0,-12)"><foreignObject width="284.171875" height="24"><div xmlns="http://www.w3.org/1999/xhtml" style="display: table-cell; white-space: nowrap; line-height: 1.5; max-width: 318px; text-align: center;"><span class="nodeLabel markdown-node-label" style=""><p>-UserPlanRepository userPlanRepository</p></span></div></foreignObject></g><g class="label" style="" transform="translate(0,12)"><foreignObject width="382.5625" height="24"><div xmlns="http://www.w3.org/1999/xhtml" style="display: table-cell; white-space: nowrap; line-height: 1.5; max-width: 408px; text-align: center;"><span class="nodeLabel markdown-node-label" style=""><p>-PaymentRecordRepository paymentRecordRepository</p></span></div></foreignObject></g></g><g class="methods-group text" transform="translate(-287.02734375, 36)"><g class="label" style="" transform="translate(0,-12)"><foreignObject width="458.609375" height="24"><div xmlns="http://www.w3.org/1999/xhtml" style="display: table-cell; white-space: nowrap; line-height: 1.5; max-width: 519px; text-align: center;"><span class="nodeLabel markdown-node-label" style=""><p>+handle(GetSubscriptionByIdQuery) : Optional&lt;PaymentRecord&gt;</p></span></div></foreignObject></g><g class="label" style="" transform="translate(0,12)"><foreignObject width="461.3125" height="24"><div xmlns="http://www.w3.org/1999/xhtml" style="display: table-cell; white-space: nowrap; line-height: 1.5; max-width: 524px; text-align: center;"><span class="nodeLabel markdown-node-label" style=""><p>+handle(GetSubscriptionsByUserIdQuery) : List&lt;PaymentRecord&gt;</p></span></div></foreignObject></g><g class="label" style="" transform="translate(0,36)"><foreignObject width="322" height="24"><div xmlns="http://www.w3.org/1999/xhtml" style="display: table-cell; white-space: nowrap; line-height: 1.5; max-width: 352px; text-align: center;"><span class="nodeLabel markdown-node-label" style=""><p>+resolveUserPlan(GetUserPlanQuery) : String</p></span></div></foreignObject></g></g><g class="divider" style=""><path d="M-299.02734375 -60 C-171.43715437765496 -60, -43.846965005309926 -60, 299.02734375 -60 M-299.02734375 -60 C-137.14811481216483 -60, 24.73111412567033 -60, 299.02734375 -60" stroke="#9370DB" stroke-width="1.3" fill="none" stroke-dasharray="0 0" style=""/></g><g class="divider" style=""><path d="M-299.02734375 12 C-107.16463858869807 12, 84.69806657260386 12, 299.02734375 12 M-299.02734375 12 C-145.92905055463416 12, 7.169242640731682 12, 299.02734375 12" stroke="#9370DB" stroke-width="1.3" fill="none" stroke-dasharray="0 0" style=""/></g></g><g class="node default" id="classId-BillingContextFacadeImpl-2" transform="translate(1442.51171875, 140)"><g class="basic label-container"><path d="M-203.03515625 -108 L203.03515625 -108 L203.03515625 108 L-203.03515625 108" stroke="none" stroke-width="0" fill="#ECECFF" style=""/><path d="M-203.03515625 -108 C-113.5536693471274 -108, -24.072182444254793 -108, 203.03515625 -108 M-203.03515625 -108 C-107.75470624660396 -108, -12.474256243207918 -108, 203.03515625 -108 M203.03515625 -108 C203.03515625 -44.66761431365115, 203.03515625 18.6647713726977, 203.03515625 108 M203.03515625 -108 C203.03515625 -51.23949017081236, 203.03515625 5.52101965837528, 203.03515625 108 M203.03515625 108 C100.27016161750377 108, -2.4948330149924516 108, -203.03515625 108 M203.03515625 108 C87.53417974071671 108, -27.96679676856658 108, -203.03515625 108 M-203.03515625 108 C-203.03515625 43.387192705411536, -203.03515625 -21.225614589176928, -203.03515625 -108 M-203.03515625 108 C-203.03515625 51.616897503030586, -203.03515625 -4.766204993938828, -203.03515625 -108" stroke="#9370DB" stroke-width="1.3" fill="none" stroke-dasharray="0 0" style=""/></g><g class="annotation-group text" transform="translate(0, -84)"/><g class="label-group text" transform="translate(-94.7734375, -84)"><g class="label" style="font-weight: bolder" transform="translate(0,-12)"><foreignObject width="189.546875" height="24"><div xmlns="http://www.w3.org/1999/xhtml" style="display: table-cell; white-space: nowrap; line-height: 1.5; max-width: 221px; text-align: center;"><span class="nodeLabel markdown-node-label" style=""><p>BillingContextFacadeImpl</p></span></div></foreignObject></g></g><g class="members-group text" transform="translate(-191.03515625, -36)"><g class="label" style="" transform="translate(0,-12)"><foreignObject width="284.171875" height="24"><div xmlns="http://www.w3.org/1999/xhtml" style="display: table-cell; white-space: nowrap; line-height: 1.5; max-width: 318px; text-align: center;"><span class="nodeLabel markdown-node-label" style=""><p>-UserPlanRepository userPlanRepository</p></span></div></foreignObject></g></g><g class="methods-group text" transform="translate(-191.03515625, 12)"><g class="label" style="" transform="translate(0,-12)"><foreignObject width="287.296875" height="24"><div xmlns="http://www.w3.org/1999/xhtml" style="display: table-cell; white-space: nowrap; line-height: 1.5; max-width: 320px; text-align: center;"><span class="nodeLabel markdown-node-label" style=""><p>-resolveUserPlanType(userId) : PlanType</p></span></div></foreignObject></g><g class="label" style="" transform="translate(0,12)"><foreignObject width="247.171875" height="24"><div xmlns="http://www.w3.org/1999/xhtml" style="display: table-cell; white-space: nowrap; line-height: 1.5; max-width: 282px; text-align: center;"><span class="nodeLabel markdown-node-label" style=""><p>+getMaxOrganizations(userId) : int</p></span></div></foreignObject></g><g class="label" style="" transform="translate(0,36)"><foreignObject width="197.859375" height="24"><div xmlns="http://www.w3.org/1999/xhtml" style="display: table-cell; white-space: nowrap; line-height: 1.5; max-width: 237px; text-align: center;"><span class="nodeLabel markdown-node-label" style=""><p>+getMaxSpaces(userId) : int</p></span></div></foreignObject></g><g class="label" style="" transform="translate(0,60)"><foreignObject width="203.78125" height="24"><div xmlns="http://www.w3.org/1999/xhtml" style="display: table-cell; white-space: nowrap; line-height: 1.5; max-width: 244px; text-align: center;"><span class="nodeLabel markdown-node-label" style=""><p>+getMaxDevices(userId) : int</p></span></div></foreignObject></g></g><g class="divider" style=""><path d="M-203.03515625 -60 C-44.54043288402397 -60, 113.95429048195206 -60, 203.03515625 -60 M-203.03515625 -60 C-83.83778209867903 -60, 35.35959205264194 -60, 203.03515625 -60" stroke="#9370DB" stroke-width="1.3" fill="none" stroke-dasharray="0 0" style=""/></g><g class="divider" style=""><path d="M-203.03515625 -12 C-83.23361711996345 -12, 36.56792201007309 -12, 203.03515625 -12 M-203.03515625 -12 C-43.27099358146501 -12, 116.49316908706999 -12, 203.03515625 -12" stroke="#9370DB" stroke-width="1.3" fill="none" stroke-dasharray="0 0" style=""/></g></g><g class="node default" id="classId-SubscriptionPaidEventHandler-3" transform="translate(1978.75390625, 140)"><g class="basic label-container"><path d="M-283.20703125 -72 L283.20703125 -72 L283.20703125 72 L-283.20703125 72" stroke="none" stroke-width="0" fill="#ECECFF" style=""/><path d="M-283.20703125 -72 C-101.85007231037099 -72, 79.50688662925802 -72, 283.20703125 -72 M-283.20703125 -72 C-96.74824624163585 -72, 89.71053876672829 -72, 283.20703125 -72 M283.20703125 -72 C283.20703125 -22.040800628189864, 283.20703125 27.918398743620273, 283.20703125 72 M283.20703125 -72 C283.20703125 -38.7575243425151, 283.20703125 -5.5150486850301945, 283.20703125 72 M283.20703125 72 C100.11217811982812 72, -82.98267501034377 72, -283.20703125 72 M283.20703125 72 C163.74871991793475 72, 44.2904085858695 72, -283.20703125 72 M-283.20703125 72 C-283.20703125 34.258732392325236, -283.20703125 -3.482535215349529, -283.20703125 -72 M-283.20703125 72 C-283.20703125 17.914722477887416, -283.20703125 -36.17055504422517, -283.20703125 -72" stroke="#9370DB" stroke-width="1.3" fill="none" stroke-dasharray="0 0" style=""/></g><g class="annotation-group text" transform="translate(0, -48)"/><g class="label-group text" transform="translate(-112.6328125, -48)"><g class="label" style="font-weight: bolder" transform="translate(0,-12)"><foreignObject width="225.265625" height="24"><div xmlns="http://www.w3.org/1999/xhtml" style="display: table-cell; white-space: nowrap; line-height: 1.5; max-width: 249px; text-align: center;"><span class="nodeLabel markdown-node-label" style=""><p>SubscriptionPaidEventHandler</p></span></div></foreignObject></g></g><g class="members-group text" transform="translate(-271.20703125, 0)"><g class="label" style="" transform="translate(0,-12)"><foreignObject width="429.78125" height="24"><div xmlns="http://www.w3.org/1999/xhtml" style="display: table-cell; white-space: nowrap; line-height: 1.5; max-width: 452px; text-align: center;"><span class="nodeLabel markdown-node-label" style=""><p>-SubscriptionCommandService subscriptionCommandService</p></span></div></foreignObject></g></g><g class="methods-group text" transform="translate(-271.20703125, 48)"><g class="label" style="" transform="translate(0,-12)"><foreignObject width="271.765625" height="24"><div xmlns="http://www.w3.org/1999/xhtml" style="display: table-cell; white-space: nowrap; line-height: 1.5; max-width: 305px; text-align: center;"><span class="nodeLabel markdown-node-label" style=""><p>+handle(SubscriptionPaidEvent) : void</p></span></div></foreignObject></g></g><g class="divider" style=""><path d="M-283.20703125 -24 C-129.9234239588978 -24, 23.36018333220437 -24, 283.20703125 -24 M-283.20703125 -24 C-141.98569731814305 -24, -0.7643633862861066 -24, 283.20703125 -24" stroke="#9370DB" stroke-width="1.3" fill="none" stroke-dasharray="0 0" style=""/></g><g class="divider" style=""><path d="M-283.20703125 24 C-156.49820022160372 24, -29.78936919320742 24, 283.20703125 24 M-283.20703125 24 C-162.5376934384737 24, -41.86835562694739 24, 283.20703125 24" stroke="#9370DB" stroke-width="1.3" fill="none" stroke-dasharray="0 0" style=""/></g></g><g class="node default" id="classId-UserRegisteredEventHandler-4" transform="translate(2519.73828125, 140)"><g class="basic label-container"><path d="M-207.77734375 -72 L207.77734375 -72 L207.77734375 72 L-207.77734375 72" stroke="none" stroke-width="0" fill="#ECECFF" style=""/><path d="M-207.77734375 -72 C-56.93028672470106 -72, 93.91677030059788 -72, 207.77734375 -72 M-207.77734375 -72 C-54.78317590169391 -72, 98.21099194661218 -72, 207.77734375 -72 M207.77734375 -72 C207.77734375 -22.669559730526636, 207.77734375 26.660880538946728, 207.77734375 72 M207.77734375 -72 C207.77734375 -27.942953327886713, 207.77734375 16.114093344226575, 207.77734375 72 M207.77734375 72 C103.77708467268715 72, -0.22317440462569493 72, -207.77734375 72 M207.77734375 72 C88.1664366589229 72, -31.44447043215419 72, -207.77734375 72 M-207.77734375 72 C-207.77734375 23.953347059014654, -207.77734375 -24.093305881970693, -207.77734375 -72 M-207.77734375 72 C-207.77734375 28.16708269257623, -207.77734375 -15.66583461484754, -207.77734375 -72" stroke="#9370DB" stroke-width="1.3" fill="none" stroke-dasharray="0 0" style=""/></g><g class="annotation-group text" transform="translate(0, -48)"/><g class="label-group text" transform="translate(-107.3828125, -48)"><g class="label" style="font-weight: bolder" transform="translate(0,-12)"><foreignObject width="214.765625" height="24"><div xmlns="http://www.w3.org/1999/xhtml" style="display: table-cell; white-space: nowrap; line-height: 1.5; max-width: 238px; text-align: center;"><span class="nodeLabel markdown-node-label" style=""><p>UserRegisteredEventHandler</p></span></div></foreignObject></g></g><g class="members-group text" transform="translate(-195.77734375, 0)"><g class="label" style="" transform="translate(0,-12)"><foreignObject width="284.171875" height="24"><div xmlns="http://www.w3.org/1999/xhtml" style="display: table-cell; white-space: nowrap; line-height: 1.5; max-width: 318px; text-align: center;"><span class="nodeLabel markdown-node-label" style=""><p>-UserPlanRepository userPlanRepository</p></span></div></foreignObject></g></g><g class="methods-group text" transform="translate(-195.77734375, 48)"><g class="label" style="" transform="translate(0,-12)"><foreignObject width="261.21875" height="24"><div xmlns="http://www.w3.org/1999/xhtml" style="display: table-cell; white-space: nowrap; line-height: 1.5; max-width: 295px; text-align: center;"><span class="nodeLabel markdown-node-label" style=""><p>+handle(UserRegisteredEvent) : void</p></span></div></foreignObject></g></g><g class="divider" style=""><path d="M-207.77734375 -24 C-112.95882061874379 -24, -18.140297487487572 -24, 207.77734375 -24 M-207.77734375 -24 C-57.00375308171863 -24, 93.76983758656274 -24, 207.77734375 -24" stroke="#9370DB" stroke-width="1.3" fill="none" stroke-dasharray="0 0" style=""/></g><g class="divider" style=""><path d="M-207.77734375 24 C-119.00937482330573 24, -30.241405896611468 24, 207.77734375 24 M-207.77734375 24 C-93.18561079340915 24, 21.406122163181692 24, 207.77734375 24" stroke="#9370DB" stroke-width="1.3" fill="none" stroke-dasharray="0 0" style=""/></g></g></g></g></g></svg>