<svg id="my-svg" width="100%" xmlns="http://www.w3.org/2000/svg" xmlns:xlink="http://www.w3.org/1999/xlink" class="classDiagram" style="max-width: 1844.01px; background-color: transparent;" viewBox="0 0 1844.0078125 280" role="graphics-document document" aria-roledescription="class"><style>#my-svg{font-family:"trebuchet ms",verdana,arial,sans-serif;font-size:16px;fill:#333;}@keyframes edge-animation-frame{from{stroke-dashoffset:0;}}@keyframes dash{to{stroke-dashoffset:0;}}#my-svg .edge-animation-slow{stroke-dasharray:9,5!important;stroke-dashoffset:900;animation:dash 50s linear infinite;stroke-linecap:round;}#my-svg .edge-animation-fast{stroke-dasharray:9,5!important;stroke-dashoffset:900;animation:dash 20s linear infinite;stroke-linecap:round;}#my-svg .error-icon{fill:#552222;}#my-svg .error-text{fill:#552222;stroke:#552222;}#my-svg .edge-thickness-normal{stroke-width:1px;}#my-svg .edge-thickness-thick{stroke-width:3.5px;}#my-svg .edge-pattern-solid{stroke-dasharray:0;}#my-svg .edge-thickness-invisible{stroke-width:0;fill:none;}#my-svg .edge-pattern-dashed{stroke-dasharray:3;}#my-svg .edge-pattern-dotted{stroke-dasharray:2;}#my-svg .marker{fill:#333333;stroke:#333333;}#my-svg .marker.cross{stroke:#333333;}#my-svg svg{font-family:"trebuchet ms",verdana,arial,sans-serif;font-size:16px;}#my-svg p{margin:0;}#my-svg g.classGroup text{fill:#9370DB;stroke:none;font-family:"trebuchet ms",verdana,arial,sans-serif;font-size:10px;}#my-svg g.classGroup text .title{font-weight:bolder;}#my-svg .nodeLabel,#my-svg .edgeLabel{color:#131300;}#my-svg .edgeLabel .label rect{fill:#ECECFF;}#my-svg .label text{fill:#131300;}#my-svg .labelBkg{background:#ECECFF;}#my-svg .edgeLabel .label span{background:#ECECFF;}#my-svg .classTitle{font-weight:bolder;}#my-svg .node rect,#my-svg .node circle,#my-svg .node ellipse,#my-svg .node polygon,#my-svg .node path{fill:#ECECFF;stroke:#9370DB;stroke-width:1px;}#my-svg .divider{stroke:#9370DB;stroke-width:1;}#my-svg g.clickable{cursor:pointer;}#my-svg g.classGroup rect{fill:#ECECFF;stroke:#9370DB;}#my-svg g.classGroup line{stroke:#9370DB;stroke-width:1;}#my-svg .classLabel .box{stroke:none;stroke-width:0;fill:#ECECFF;opacity:0.5;}#my-svg .classLabel .label{fill:#9370DB;font-size:10px;}#my-svg .relation{stroke:#333333;stroke-width:1;fill:none;}#my-svg .dashed-line{stroke-dasharray:3;}#my-svg .dotted-line{stroke-dasharray:1 2;}#my-svg #compositionStart,#my-svg .composition{fill:#333333!important;stroke:#333333!important;stroke-width:1;}#my-svg #compositionEnd,#my-svg .composition{fill:#333333!important;stroke:#333333!important;stroke-width:1;}#my-svg #dependencyStart,#my-svg .dependency{fill:#333333!important;stroke:#333333!important;stroke-width:1;}#my-svg #dependencyStart,#my-svg .dependency{fill:#333333!important;stroke:#333333!important;stroke-width:1;}#my-svg #extensionStart,#my-svg .extension{fill:transparent!important;stroke:#333333!important;stroke-width:1;}#my-svg #extensionEnd,#my-svg .extension{fill:transparent!important;stroke:#333333!important;stroke-width:1;}#my-svg #aggregationStart,#my-svg .aggregation{fill:transparent!important;stroke:#333333!important;stroke-width:1;}#my-svg #aggregationEnd,#my-svg .aggregation{fill:transparent!important;stroke:#333333!important;stroke-width:1;}#my-svg #lollipopStart,#my-svg .lollipop{fill:#ECECFF!important;stroke:#333333!important;stroke-width:1;}#my-svg #lollipopEnd,#my-svg .lollipop{fill:#ECECFF!important;stroke:#333333!important;stroke-width:1;}#my-svg .edgeTerminals{font-size:11px;line-height:initial;}#my-svg .classTitleText{text-anchor:middle;font-size:18px;fill:#333;}#my-svg .label-icon{display:inline-block;height:1em;overflow:visible;vertical-align:-0.125em;}#my-svg .node .label-icon path{fill:currentColor;stroke:revert;stroke-width:revert;}#my-svg :root{--mermaid-font-family:"trebuchet ms",verdana,arial,sans-serif;}</style><g><defs><marker id="my-svg_class-aggregationStart" class="marker aggregation class" refX="18" refY="7" markerWidth="190" markerHeight="240" orient="auto"><path d="M 18,7 L9,13 L1,7 L9,1 Z"/></marker></defs><defs><marker id="my-svg_class-aggregationEnd" class="marker aggregation class" refX="1" refY="7" markerWidth="20" markerHeight="28" orient="auto"><path d="M 18,7 L9,13 L1,7 L9,1 Z"/></marker></defs><defs><marker id="my-svg_class-extensionStart" class="marker extension class" refX="18" refY="7" markerWidth="190" markerHeight="240" orient="auto"><path d="M 1,7 L18,13 V 1 Z"/></marker></defs><defs><marker id="my-svg_class-extensionEnd" class="marker extension class" refX="1" refY="7" markerWidth="20" markerHeight="28" orient="auto"><path d="M 1,1 V 13 L18,7 Z"/></marker></defs><defs><marker id="my-svg_class-compositionStart" class="marker composition class" refX="18" refY="7" markerWidth="190" markerHeight="240" orient="auto"><path d="M 18,7 L9,13 L1,7 L9,1 Z"/></marker></defs><defs><marker id="my-svg_class-compositionEnd" class="marker composition class" refX="1" refY="7" markerWidth="20" markerHeight="28" orient="auto"><path d="M 18,7 L9,13 L1,7 L9,1 Z"/></marker></defs><defs><marker id="my-svg_class-dependencyStart" class="marker dependency class" refX="6" refY="7" markerWidth="190" markerHeight="240" orient="auto"><path d="M 5,7 L9,13 L1,7 L9,1 Z"/></marker></defs><defs><marker id="my-svg_class-dependencyEnd" class="marker dependency class" refX="13" refY="7" markerWidth="20" markerHeight="28" orient="auto"><path d="M 18,7 L9,13 L14,7 L9,1 Z"/></marker></defs><defs><marker id="my-svg_class-lollipopStart" class="marker lollipop class" refX="13" refY="7" markerWidth="190" markerHeight="240" orient="auto"><circle stroke="black" fill="transparent" cx="7" cy="7" r="6"/></marker></defs><defs><marker id="my-svg_class-lollipopEnd" class="marker lollipop class" refX="1" refY="7" markerWidth="190" markerHeight="240" orient="auto"><circle stroke="black" fill="transparent" cx="7" cy="7" r="6"/></marker></defs><g class="root"><g class="clusters"/><g class="edgePaths"/><g class="edgeLabels"/><g class="nodes"><g class="node default" id="classId-SubscriptionController-0" transform="translate(277.03125, 140)"><g class="basic label-container"><path d="M-269.03125 -132 L269.03125 -132 L269.03125 132 L-269.03125 132" stroke="none" stroke-width="0" fill="#ECECFF" style=""/><path d="M-269.03125 -132 C-59.06835608074752 -132, 150.89453783850496 -132, 269.03125 -132 M-269.03125 -132 C-65.4507414678458 -132, 138.1297670643084 -132, 269.03125 -132 M269.03125 -132 C269.03125 -57.008148856160034, 269.03125 17.983702287679932, 269.03125 132 M269.03125 -132 C269.03125 -56.96404601049305, 269.03125 18.0719079790139, 269.03125 132 M269.03125 132 C148.03927480990183 132, 27.047299619803624 132, -269.03125 132 M269.03125 132 C64.93129805540502 132, -139.16865388918995 132, -269.03125 132 M-269.03125 132 C-269.03125 78.33337093410451, -269.03125 24.666741868209016, -269.03125 -132 M-269.03125 132 C-269.03125 61.5171507639683, -269.03125 -8.965698472063394, -269.03125 -132" stroke="#9370DB" stroke-width="1.3" fill="none" stroke-dasharray="0 0" style=""/></g><g class="annotation-group text" transform="translate(0, -108)"/><g class="label-group text" transform="translate(-84.28125, -108)"><g class="label" style="font-weight: bolder" transform="translate(0,-12)"><foreignObject width="168.5625" height="24"><div xmlns="http://www.w3.org/1999/xhtml" style="display: table-cell; white-space: nowrap; line-height: 1.5; max-width: 197px; text-align: center;"><span class="nodeLabel markdown-node-label" style=""><p>SubscriptionController</p></span></div></foreignObject></g></g><g class="members-group text" transform="translate(-257.03125, -60)"><g class="label" style="" transform="translate(0,-12)"><foreignObject width="429.78125" height="24"><div xmlns="http://www.w3.org/1999/xhtml" style="display: table-cell; white-space: nowrap; line-height: 1.5; max-width: 452px; text-align: center;"><span class="nodeLabel markdown-node-label" style=""><p>-SubscriptionCommandService subscriptionCommandService</p></span></div></foreignObject></g><g class="label" style="" transform="translate(0,12)"><foreignObject width="373" height="24"><div xmlns="http://www.w3.org/1999/xhtml" style="display: table-cell; white-space: nowrap; line-height: 1.5; max-width: 399px; text-align: center;"><span class="nodeLabel markdown-node-label" style=""><p>-SubscriptionQueryService subscriptionQueryService</p></span></div></foreignObject></g></g><g class="methods-group text" transform="translate(-257.03125, 12)"><g class="label" style="" transform="translate(0,-12)"><foreignObject width="369.359375" height="24"><div xmlns="http://www.w3.org/1999/xhtml" style="display: table-cell; white-space: nowrap; line-height: 1.5; max-width: 390px; text-align: center;"><span class="nodeLabel markdown-node-label" style=""><p>+createCheckoutSession(resource) : ResponseEntity</p></span></div></foreignObject></g><g class="label" style="" transform="translate(0,12)"><foreignObject width="356.296875" height="24"><div xmlns="http://www.w3.org/1999/xhtml" style="display: table-cell; white-space: nowrap; line-height: 1.5; max-width: 373px; text-align: center;"><span class="nodeLabel markdown-node-label" style=""><p>+createPaymentIntent(resource) : ResponseEntity</p></span></div></foreignObject></g><g class="label" style="" transform="translate(0,36)"><foreignObject width="366.328125" height="24"><div xmlns="http://www.w3.org/1999/xhtml" style="display: table-cell; white-space: nowrap; line-height: 1.5; max-width: 396px; text-align: center;"><span class="nodeLabel markdown-node-label" style=""><p>+getSubscriptionsByUserId(userId) : ResponseEntity</p></span></div></foreignObject></g><g class="label" style="" transform="translate(0,60)"><foreignObject width="272.640625" height="24"><div xmlns="http://www.w3.org/1999/xhtml" style="display: table-cell; white-space: nowrap; line-height: 1.5; max-width: 305px; text-align: center;"><span class="nodeLabel markdown-node-label" style=""><p>+getUserPlan(userId) : ResponseEntity</p></span></div></foreignObject></g><g class="label" style="" transform="translate(0,84)"><foreignObject width="353.21875" height="24"><div xmlns="http://www.w3.org/1999/xhtml" style="display: table-cell; white-space: nowrap; line-height: 1.5; max-width: 381px; text-align: center;"><span class="nodeLabel markdown-node-label" style=""><p>+downgradeToFreemium(userId) : ResponseEntity</p></span></div></foreignObject></g></g><g class="divider" style=""><path d="M-269.03125 -84 C-102.29676004190159 -84, 64.43772991619682 -84, 269.03125 -84 M-269.03125 -84 C-65.78920314279395 -84, 137.4528437144121 -84, 269.03125 -84" stroke="#9370DB" stroke-width="1.3" fill="none" stroke-dasharray="0 0" style=""/></g><g class="divider" style=""><path d="M-269.03125 -12 C-62.58570391406175 -12, 143.8598421718765 -12, 269.03125 -12 M-269.03125 -12 C-118.20250738453487 -12, 32.62623523093026 -12, 269.03125 -12" stroke="#9370DB" stroke-width="1.3" fill="none" stroke-dasharray="0 0" style=""/></g></g><g class="node default" id="classId-StripeWebhookController-1" transform="translate(870.29296875, 140)"><g class="basic label-container"><path d="M-274.23046875 -84 L274.23046875 -84 L274.23046875 84 L-274.23046875 84" stroke="none" stroke-width="0" fill="#ECECFF" style=""/><path d="M-274.23046875 -84 C-64.49083780058618 -84, 145.24879314882764 -84, 274.23046875 -84 M-274.23046875 -84 C-85.30178220814298 -84, 103.62690433371404 -84, 274.23046875 -84 M274.23046875 -84 C274.23046875 -22.577309036910258, 274.23046875 38.845381926179485, 274.23046875 84 M274.23046875 -84 C274.23046875 -24.433386629264824, 274.23046875 35.13322674147035, 274.23046875 84 M274.23046875 84 C126.15191796094271 84, -21.926632828114577 84, -274.23046875 84 M274.23046875 84 C139.79734657923936 84, 5.364224408478719 84, -274.23046875 84 M-274.23046875 84 C-274.23046875 42.78724759891347, -274.23046875 1.5744951978269341, -274.23046875 -84 M-274.23046875 84 C-274.23046875 21.483243383009658, -274.23046875 -41.033513233980685, -274.23046875 -84" stroke="#9370DB" stroke-width="1.3" fill="none" stroke-dasharray="0 0" style=""/></g><g class="annotation-group text" transform="translate(0, -60)"/><g class="label-group text" transform="translate(-94.6796875, -60)"><g class="label" style="font-weight: bolder" transform="translate(0,-12)"><foreignObject width="189.359375" height="24"><div xmlns="http://www.w3.org/1999/xhtml" style="display: table-cell; white-space: nowrap; line-height: 1.5; max-width: 216px; text-align: center;"><span class="nodeLabel markdown-node-label" style=""><p>StripeWebhookController</p></span></div></foreignObject></g></g><g class="members-group text" transform="translate(-262.23046875, -12)"><g class="label" style="" transform="translate(0,-12)"><foreignObject width="429.78125" height="24"><div xmlns="http://www.w3.org/1999/xhtml" style="display: table-cell; white-space: nowrap; line-height: 1.5; max-width: 452px; text-align: center;"><span class="nodeLabel markdown-node-label" style=""><p>-SubscriptionCommandService subscriptionCommandService</p></span></div></foreignObject></g><g class="label" style="" transform="translate(0,12)"><foreignObject width="203.6875" height="24"><div xmlns="http://www.w3.org/1999/xhtml" style="display: table-cell; white-space: nowrap; line-height: 1.5; max-width: 240px; text-align: center;"><span class="nodeLabel markdown-node-label" style=""><p>-String stripeWebhookSecret</p></span></div></foreignObject></g></g><g class="methods-group text" transform="translate(-262.23046875, 60)"><g class="label" style="" transform="translate(0,-12)"><foreignObject width="393.265625" height="24"><div xmlns="http://www.w3.org/1999/xhtml" style="display: table-cell; white-space: nowrap; line-height: 1.5; max-width: 414px; text-align: center;"><span class="nodeLabel markdown-node-label" style=""><p>+handleWebhook(payload, sigHeader) : ResponseEntity</p></span></div></foreignObject></g></g><g class="divider" style=""><path d="M-274.23046875 -36 C-141.91245913936535 -36, -9.594449528730706 -36, 274.23046875 -36 M-274.23046875 -36 C-62.97835812708382 -36, 148.27375249583235 -36, 274.23046875 -36" stroke="#9370DB" stroke-width="1.3" fill="none" stroke-dasharray="0 0" style=""/></g><g class="divider" style=""><path d="M-274.23046875 36 C-163.60673389073372 36, -52.982999031467415 36, 274.23046875 36 M-274.23046875 36 C-92.33480802492224 36, 89.56085270015552 36, 274.23046875 36" stroke="#9370DB" stroke-width="1.3" fill="none" stroke-dasharray="0 0" style=""/></g></g><g class="node default" id="classId-StaticWebController-2" transform="translate(1315.35546875, 140)"><g class="basic label-container"><path d="M-120.83203125 -87 L120.83203125 -87 L120.83203125 87 L-120.83203125 87" stroke="none" stroke-width="0" fill="#ECECFF" style=""/><path d="M-120.83203125 -87 C-51.150725787274425 -87, 18.53057967545115 -87, 120.83203125 -87 M-120.83203125 -87 C-27.431939994675744 -87, 65.96815126064851 -87, 120.83203125 -87 M120.83203125 -87 C120.83203125 -36.029868129713336, 120.83203125 14.940263740573329, 120.83203125 87 M120.83203125 -87 C120.83203125 -37.01045620291079, 120.83203125 12.979087594178424, 120.83203125 87 M120.83203125 87 C65.86248833013448 87, 10.892945410268965 87, -120.83203125 87 M120.83203125 87 C34.26872543492121 87, -52.29458038015758 87, -120.83203125 87 M-120.83203125 87 C-120.83203125 30.540463698529223, -120.83203125 -25.919072602941554, -120.83203125 -87 M-120.83203125 87 C-120.83203125 28.396165338246682, -120.83203125 -30.207669323506636, -120.83203125 -87" stroke="#9370DB" stroke-width="1.3" fill="none" stroke-dasharray="0 0" style=""/></g><g class="annotation-group text" transform="translate(0, -63)"/><g class="label-group text" transform="translate(-75.3515625, -63)"><g class="label" style="font-weight: bolder" transform="translate(0,-12)"><foreignObject width="150.703125" height="24"><div xmlns="http://www.w3.org/1999/xhtml" style="display: table-cell; white-space: nowrap; line-height: 1.5; max-width: 182px; text-align: center;"><span class="nodeLabel markdown-node-label" style=""><p>StaticWebController</p></span></div></foreignObject></g></g><g class="members-group text" transform="translate(-108.83203125, -15)"/><g class="methods-group text" transform="translate(-108.83203125, 15)"><g class="label" style="" transform="translate(0,-12)"><foreignObject width="142.3125" height="24"><div xmlns="http://www.w3.org/1999/xhtml" style="display: table-cell; white-space: nowrap; line-height: 1.5; max-width: 183px; text-align: center;"><span class="nodeLabel markdown-node-label" style=""><p>+checkout() : String</p></span></div></foreignObject></g><g class="label" style="" transform="translate(0,12)"><foreignObject width="130" height="24"><div xmlns="http://www.w3.org/1999/xhtml" style="display: table-cell; white-space: nowrap; line-height: 1.5; max-width: 174px; text-align: center;"><span class="nodeLabel markdown-node-label" style=""><p>+success() : String</p></span></div></foreignObject></g><g class="label" style="" transform="translate(0,36)"><foreignObject width="123.6875" height="24"><div xmlns="http://www.w3.org/1999/xhtml" style="display: table-cell; white-space: nowrap; line-height: 1.5; max-width: 167px; text-align: center;"><span class="nodeLabel markdown-node-label" style=""><p>+cancel() : String</p></span></div></foreignObject></g></g><g class="divider" style=""><path d="M-120.83203125 -39 C-37.29345788298477 -39, 46.245115484030464 -39, 120.83203125 -39 M-120.83203125 -39 C-41.74067294972622 -39, 37.350685350547565 -39, 120.83203125 -39" stroke="#9370DB" stroke-width="1.3" fill="none" stroke-dasharray="0 0" style=""/></g><g class="divider" style=""><path d="M-120.83203125 -15 C-70.33315143396088 -15, -19.834271617921758 -15, 120.83203125 -15 M-120.83203125 -15 C-68.59150020979311 -15, -16.350969169586207 -15, 120.83203125 -15" stroke="#9370DB" stroke-width="1.3" fill="none" stroke-dasharray="0 0" style=""/></g></g><g class="node default" id="classId-BillingContextFacade-3" transform="translate(1661.09765625, 140)"><g class="basic label-container"><path d="M-174.91015625 -99 L174.91015625 -99 L174.91015625 99 L-174.91015625 99" stroke="none" stroke-width="0" fill="#ECECFF" style=""/><path d="M-174.91015625 -99 C-103.46965656801461 -99, -32.02915688602923 -99, 174.91015625 -99 M-174.91015625 -99 C-39.443882860564855 -99, 96.02239052887029 -99, 174.91015625 -99 M174.91015625 -99 C174.91015625 -25.867672600173222, 174.91015625 47.264654799653556, 174.91015625 99 M174.91015625 -99 C174.91015625 -41.92271293871234, 174.91015625 15.154574122575326, 174.91015625 99 M174.91015625 99 C50.478430567209486 99, -73.95329511558103 99, -174.91015625 99 M174.91015625 99 C40.848071125232195 99, -93.21401399953561 99, -174.91015625 99 M-174.91015625 99 C-174.91015625 31.58535655796156, -174.91015625 -35.82928688407688, -174.91015625 -99 M-174.91015625 99 C-174.91015625 48.467682153292074, -174.91015625 -2.064635693415852, -174.91015625 -99" stroke="#9370DB" stroke-width="1.3" fill="none" stroke-dasharray="0 0" style=""/></g><g class="annotation-group text" transform="translate(-41.171875, -75)"><g class="label" style="" transform="translate(0,-12)"><foreignObject width="82.34375" height="24"><div xmlns="http://www.w3.org/1999/xhtml" style="display: table-cell; white-space: nowrap; line-height: 1.5; max-width: 122px; text-align: center;"><span class="nodeLabel markdown-node-label" style=""><p>«interface»</p></span></div></foreignObject></g></g><g class="label-group text" transform="translate(-78.6484375, -51)"><g class="label" style="font-weight: bolder" transform="translate(0,-12)"><foreignObject width="157.296875" height="24"><div xmlns="http://www.w3.org/1999/xhtml" style="display: table-cell; white-space: nowrap; line-height: 1.5; max-width: 190px; text-align: center;"><span class="nodeLabel markdown-node-label" style=""><p>BillingContextFacade</p></span></div></foreignObject></g></g><g class="members-group text" transform="translate(-162.91015625, -3)"/><g class="methods-group text" transform="translate(-162.91015625, 27)"><g class="label" style="" transform="translate(0,-12)"><foreignObject width="247.171875" height="24"><div xmlns="http://www.w3.org/1999/xhtml" style="display: table-cell; white-space: nowrap; line-height: 1.5; max-width: 282px; text-align: center;"><span class="nodeLabel markdown-node-label" style=""><p>+getMaxOrganizations(userId) : int</p></span></div></foreignObject></g><g class="label" style="" transform="translate(0,12)"><foreignObject width="197.859375" height="24"><div xmlns="http://www.w3.org/1999/xhtml" style="display: table-cell; white-space: nowrap; line-height: 1.5; max-width: 237px; text-align: center;"><span class="nodeLabel markdown-node-label" style=""><p>+getMaxSpaces(userId) : int</p></span></div></foreignObject></g><g class="label" style="" transform="translate(0,36)"><foreignObject width="203.78125" height="24"><div xmlns="http://www.w3.org/1999/xhtml" style="display: table-cell; white-space: nowrap; line-height: 1.5; max-width: 244px; text-align: center;"><span class="nodeLabel markdown-node-label" style=""><p>+getMaxDevices(userId) : int</p></span></div></foreignObject></g></g><g class="divider" style=""><path d="M-174.91015625 -27 C-76.33421062896191 -27, 22.241734992076175 -27, 174.91015625 -27 M-174.91015625 -27 C-77.0018303411297 -27, 20.906495567740592 -27, 174.91015625 -27" stroke="#9370DB" stroke-width="1.3" fill="none" stroke-dasharray="0 0" style=""/></g><g class="divider" style=""><path d="M-174.91015625 -3 C-93.31188905699983 -3, -11.713621863999663 -3, 174.91015625 -3 M-174.91015625 -3 C-57.87731914852435 -3, 59.1555179529513 -3, 174.91015625 -3" stroke="#9370DB" stroke-width="1.3" fill="none" stroke-dasharray="0 0" style=""/></g></g></g></g></g></svg>