<svg id="my-svg" width="100%" xmlns="http://www.w3.org/2000/svg" xmlns:xlink="http://www.w3.org/1999/xlink" class="classDiagram" style="max-width: 1013.15px; background-color: transparent;" viewBox="-8 -48 1013.1484375 568" role="graphics-document document" aria-roledescription="class"><style>#my-svg{font-family:"trebuchet ms",verdana,arial,sans-serif;font-size:16px;fill:#333;}@keyframes edge-animation-frame{from{stroke-dashoffset:0;}}@keyframes dash{to{stroke-dashoffset:0;}}#my-svg .edge-animation-slow{stroke-dasharray:9,5!important;stroke-dashoffset:900;animation:dash 50s linear infinite;stroke-linecap:round;}#my-svg .edge-animation-fast{stroke-dasharray:9,5!important;stroke-dashoffset:900;animation:dash 20s linear infinite;stroke-linecap:round;}#my-svg .error-icon{fill:#552222;}#my-svg .error-text{fill:#552222;stroke:#552222;}#my-svg .edge-thickness-normal{stroke-width:1px;}#my-svg .edge-thickness-thick{stroke-width:3.5px;}#my-svg .edge-pattern-solid{stroke-dasharray:0;}#my-svg .edge-thickness-invisible{stroke-width:0;fill:none;}#my-svg .edge-pattern-dashed{stroke-dasharray:3;}#my-svg .edge-pattern-dotted{stroke-dasharray:2;}#my-svg .marker{fill:#333333;stroke:#333333;}#my-svg .marker.cross{stroke:#333333;}#my-svg svg{font-family:"trebuchet ms",verdana,arial,sans-serif;font-size:16px;}#my-svg p{margin:0;}#my-svg g.classGroup text{fill:#9370DB;stroke:none;font-family:"trebuchet ms",verdana,arial,sans-serif;font-size:10px;}#my-svg g.classGroup text .title{font-weight:bolder;}#my-svg .nodeLabel,#my-svg .edgeLabel{color:#131300;}#my-svg .edgeLabel .label rect{fill:#ECECFF;}#my-svg .label text{fill:#131300;}#my-svg .labelBkg{background:#ECECFF;}#my-svg .edgeLabel .label span{background:#ECECFF;}#my-svg .classTitle{font-weight:bolder;}#my-svg .node rect,#my-svg .node circle,#my-svg .node ellipse,#my-svg .node polygon,#my-svg .node path{fill:#ECECFF;stroke:#9370DB;stroke-width:1px;}#my-svg .divider{stroke:#9370DB;stroke-width:1;}#my-svg g.clickable{cursor:pointer;}#my-svg g.classGroup rect{fill:#ECECFF;stroke:#9370DB;}#my-svg g.classGroup line{stroke:#9370DB;stroke-width:1;}#my-svg .classLabel .box{stroke:none;stroke-width:0;fill:#ECECFF;opacity:0.5;}#my-svg .classLabel .label{fill:#9370DB;font-size:10px;}#my-svg .relation{stroke:#333333;stroke-width:1;fill:none;}#my-svg .dashed-line{stroke-dasharray:3;}#my-svg .dotted-line{stroke-dasharray:1 2;}#my-svg #compositionStart,#my-svg .composition{fill:#333333!important;stroke:#333333!important;stroke-width:1;}#my-svg #compositionEnd,#my-svg .composition{fill:#333333!important;stroke:#333333!important;stroke-width:1;}#my-svg #dependencyStart,#my-svg .dependency{fill:#333333!important;stroke:#333333!important;stroke-width:1;}#my-svg #dependencyStart,#my-svg .dependency{fill:#333333!important;stroke:#333333!important;stroke-width:1;}#my-svg #extensionStart,#my-svg .extension{fill:transparent!important;stroke:#333333!important;stroke-width:1;}#my-svg #extensionEnd,#my-svg .extension{fill:transparent!important;stroke:#333333!important;stroke-width:1;}#my-svg #aggregationStart,#my-svg .aggregation{fill:transparent!important;stroke:#333333!important;stroke-width:1;}#my-svg #aggregationEnd,#my-svg .aggregation{fill:transparent!important;stroke:#333333!important;stroke-width:1;}#my-svg #lollipopStart,#my-svg .lollipop{fill:#ECECFF!important;stroke:#333333!important;stroke-width:1;}#my-svg #lollipopEnd,#my-svg .lollipop{fill:#ECECFF!important;stroke:#333333!important;stroke-width:1;}#my-svg .edgeTerminals{font-size:11px;line-height:initial;}#my-svg .classTitleText{text-anchor:middle;font-size:18px;fill:#333;}#my-svg .label-icon{display:inline-block;height:1em;overflow:visible;vertical-align:-0.125em;}#my-svg .node .label-icon path{fill:currentColor;stroke:revert;stroke-width:revert;}#my-svg :root{--mermaid-font-family:"trebuchet ms",verdana,arial,sans-serif;}</style><g><defs><marker id="my-svg_class-aggregationStart" class="marker aggregation class" refX="18" refY="7" markerWidth="190" markerHeight="240" orient="auto"><path d="M 18,7 L9,13 L1,7 L9,1 Z"/></marker></defs><defs><marker id="my-svg_class-aggregationEnd" class="marker aggregation class" refX="1" refY="7" markerWidth="20" markerHeight="28" orient="auto"><path d="M 18,7 L9,13 L1,7 L9,1 Z"/></marker></defs><defs><marker id="my-svg_class-extensionStart" class="marker extension class" refX="18" refY="7" markerWidth="190" markerHeight="240" orient="auto"><path d="M 1,7 L18,13 V 1 Z"/></marker></defs><defs><marker id="my-svg_class-extensionEnd" class="marker extension class" refX="1" refY="7" markerWidth="20" markerHeight="28" orient="auto"><path d="M 1,1 V 13 L18,7 Z"/></marker></defs><defs><marker id="my-svg_class-compositionStart" class="marker composition class" refX="18" refY="7" markerWidth="190" markerHeight="240" orient="auto"><path d="M 18,7 L9,13 L1,7 L9,1 Z"/></marker></defs><defs><marker id="my-svg_class-compositionEnd" class="marker composition class" refX="1" refY="7" markerWidth="20" markerHeight="28" orient="auto"><path d="M 18,7 L9,13 L1,7 L9,1 Z"/></marker></defs><defs><marker id="my-svg_class-dependencyStart" class="marker dependency class" refX="6" refY="7" markerWidth="190" markerHeight="240" orient="auto"><path d="M 5,7 L9,13 L1,7 L9,1 Z"/></marker></defs><defs><marker id="my-svg_class-dependencyEnd" class="marker dependency class" refX="13" refY="7" markerWidth="20" markerHeight="28" orient="auto"><path d="M 18,7 L9,13 L14,7 L9,1 Z"/></marker></defs><defs><marker id="my-svg_class-lollipopStart" class="marker lollipop class" refX="13" refY="7" markerWidth="190" markerHeight="240" orient="auto"><circle stroke="black" fill="transparent" cx="7" cy="7" r="6"/></marker></defs><defs><marker id="my-svg_class-lollipopEnd" class="marker lollipop class" refX="1" refY="7" markerWidth="190" markerHeight="240" orient="auto"><circle stroke="black" fill="transparent" cx="7" cy="7" r="6"/></marker></defs><g class="root"><g class="clusters"/><g class="edgePaths"/><g class="edgeLabels"/><g class="nodes"><g class="root" transform="translate(-8, 0)"><g class="clusters"><g class="cluster undefined" id="infrastructure" data-look="classic"><rect style="fill:none !important;stroke:black !important" x="8" y="8" width="997.1484375" height="504"/><g class="cluster-label" transform="translate(456.78515625, 8)"><foreignObject width="99.578125" height="24"><div xmlns="http://www.w3.org/1999/xhtml" style="display: table-cell; white-space: nowrap; line-height: 1.5; max-width: 200px; text-align: center;"><span class="nodeLabel"><p>infrastructure</p></span></div></foreignObject></g></g></g><g class="edgePaths"><path d="M558.82,163L568.16,163C577.5,163,596.18,163,624.428,163C652.677,163,690.495,163,709.404,163L728.313,163" id="id_DeviceRepository_DeviceModel_1" class="edge-thickness-normal edge-pattern-solid relation" style=";;;" data-edge="true" data-et="edge" data-id="id_DeviceRepository_DeviceModel_1" data-points="W3sieCI6NTU4LjgyMDMxMjUsInkiOjE2M30seyJ4Ijo2MTQuODU5Mzc1LCJ5IjoxNjN9LHsieCI6NzM0LjMxMjUsInkiOjE2M31d" marker-end="url(#my-svg_class-dependencyEnd)"/></g><g class="edgeLabels"><g class="edgeLabel" transform="translate(614.859375, 163)"><g class="label" data-id="id_DeviceRepository_DeviceModel_1" transform="translate(-18.5390625, -12)"><foreignObject width="37.078125" height="24"><div xmlns="http://www.w3.org/1999/xhtml" class="labelBkg" style="display: table-cell; white-space: nowrap; line-height: 1.5; max-width: 200px; text-align: center;"><span class="edgeLabel"><p>maps</p></span></div></foreignObject></g></g></g><g class="nodes"><g class="node default" id="classId-DeviceRepository-0" transform="translate(302.16015625, 163)"><g class="basic label-container"><path d="M-256.66015625 -111 L256.66015625 -111 L256.66015625 111 L-256.66015625 111" stroke="none" stroke-width="0" fill="#ECECFF" style=""/><path d="M-256.66015625 -111 C-86.101161969685 -111, 84.45783231063001 -111, 256.66015625 -111 M-256.66015625 -111 C-76.95850603278012 -111, 102.74314418443976 -111, 256.66015625 -111 M256.66015625 -111 C256.66015625 -58.781178873151056, 256.66015625 -6.562357746302112, 256.66015625 111 M256.66015625 -111 C256.66015625 -38.16681861011449, 256.66015625 34.66636277977102, 256.66015625 111 M256.66015625 111 C120.5039419098367 111, -15.652272430326605 111, -256.66015625 111 M256.66015625 111 C118.85422625632529 111, -18.95170373734942 111, -256.66015625 111 M-256.66015625 111 C-256.66015625 23.28359883910683, -256.66015625 -64.43280232178634, -256.66015625 -111 M-256.66015625 111 C-256.66015625 62.3875267456461, -256.66015625 13.775053491292198, -256.66015625 -111" stroke="#9370DB" stroke-width="1.3" fill="none" stroke-dasharray="0 0" style=""/></g><g class="annotation-group text" transform="translate(0, -87)"/><g class="label-group text" transform="translate(-65.1796875, -87)"><g class="label" style="font-weight: bolder" transform="translate(0,-12)"><foreignObject width="130.359375" height="24"><div xmlns="http://www.w3.org/1999/xhtml" style="display: table-cell; white-space: nowrap; line-height: 1.5; max-width: 166px; text-align: center;"><span class="nodeLabel markdown-node-label" style=""><p>DeviceRepository</p></span></div></foreignObject></g></g><g class="members-group text" transform="translate(-244.66015625, -39)"/><g class="methods-group text" transform="translate(-244.66015625, -9)"><g class="label" style="" transform="translate(0,-12)"><foreignObject width="424.140625" height="24"><div xmlns="http://www.w3.org/1999/xhtml" style="display: table-cell; white-space: nowrap; line-height: 1.5; max-width: 440px; text-align: center;"><span class="nodeLabel markdown-node-label" style=""><p>+find_by_hardware_id_and_api_key(hardware_id, api_key)</p></span></div></foreignObject></g><g class="label" style="" transform="translate(0,12)"><foreignObject width="235" height="24"><div xmlns="http://www.w3.org/1999/xhtml" style="display: table-cell; white-space: nowrap; line-height: 1.5; max-width: 263px; text-align: center;"><span class="nodeLabel markdown-node-label" style=""><p>+update_last_seen(hardware_id)</p></span></div></foreignObject></g><g class="label" style="" transform="translate(0,36)"><foreignObject width="318.9375" height="24"><div xmlns="http://www.w3.org/1999/xhtml" style="display: table-cell; white-space: nowrap; line-height: 1.5; max-width: 342px; text-align: center;"><span class="nodeLabel markdown-node-label" style=""><p>+mark_offline_stale_devices(offline_before)</p></span></div></foreignObject></g><g class="label" style="" transform="translate(0,60)"><foreignObject width="260.671875" height="24"><div xmlns="http://www.w3.org/1999/xhtml" style="display: table-cell; white-space: nowrap; line-height: 1.5; max-width: 292px; text-align: center;"><span class="nodeLabel markdown-node-label" style=""><p>+find_by_hardware_id(hardware_id)</p></span></div></foreignObject></g><g class="label" style="" transform="translate(0,84)"><foreignObject width="218.96875" height="24"><div xmlns="http://www.w3.org/1999/xhtml" style="display: table-cell; white-space: nowrap; line-height: 1.5; max-width: 256px; text-align: center;"><span class="nodeLabel markdown-node-label" style=""><p>+find_by_device_id(device_id)</p></span></div></foreignObject></g></g><g class="divider" style=""><path d="M-256.66015625 -63 C-72.83476962683358 -63, 110.99061699633285 -63, 256.66015625 -63 M-256.66015625 -63 C-97.483023297329 -63, 61.694109655342004 -63, 256.66015625 -63" stroke="#9370DB" stroke-width="1.3" fill="none" stroke-dasharray="0 0" style=""/></g><g class="divider" style=""><path d="M-256.66015625 -39 C-81.81860352814391 -39, 93.02294919371218 -39, 256.66015625 -39 M-256.66015625 -39 C-104.05995684425127 -39, 48.54024256149745 -39, 256.66015625 -39" stroke="#9370DB" stroke-width="1.3" fill="none" stroke-dasharray="0 0" style=""/></g></g><g class="node default" id="classId-DeviceModel-1" transform="translate(819.2734375, 163)"><g class="basic label-container"><path d="M-84.9609375 -120 L84.9609375 -120 L84.9609375 120 L-84.9609375 120" stroke="none" stroke-width="0" fill="#ECECFF" style=""/><path d="M-84.9609375 -120 C-25.627659537469277 -120, 33.705618425061445 -120, 84.9609375 -120 M-84.9609375 -120 C-50.71344994597329 -120, -16.465962391946576 -120, 84.9609375 -120 M84.9609375 -120 C84.9609375 -35.23358522031549, 84.9609375 49.53282955936902, 84.9609375 120 M84.9609375 -120 C84.9609375 -45.451805119599285, 84.9609375 29.09638976080143, 84.9609375 120 M84.9609375 120 C30.92135866295793 120, -23.118220174084144 120, -84.9609375 120 M84.9609375 120 C34.609152305177155 120, -15.74263288964569 120, -84.9609375 120 M-84.9609375 120 C-84.9609375 46.149334158246305, -84.9609375 -27.70133168350739, -84.9609375 -120 M-84.9609375 120 C-84.9609375 54.9943405920657, -84.9609375 -10.011318815868606, -84.9609375 -120" stroke="#9370DB" stroke-width="1.3" fill="none" stroke-dasharray="0 0" style=""/></g><g class="annotation-group text" transform="translate(0, -96)"/><g class="label-group text" transform="translate(-47.375, -96)"><g class="label" style="font-weight: bolder" transform="translate(0,-12)"><foreignObject width="94.75" height="24"><div xmlns="http://www.w3.org/1999/xhtml" style="display: table-cell; white-space: nowrap; line-height: 1.5; max-width: 138px; text-align: center;"><span class="nodeLabel markdown-node-label" style=""><p>DeviceModel</p></span></div></foreignObject></g></g><g class="members-group text" transform="translate(-72.9609375, -48)"><g class="label" style="" transform="translate(0,-12)"><foreignObject width="76.953125" height="24"><div xmlns="http://www.w3.org/1999/xhtml" style="display: table-cell; white-space: nowrap; line-height: 1.5; max-width: 127px; text-align: center;"><span class="nodeLabel markdown-node-label" style=""><p>+device_id</p></span></div></foreignObject></g><g class="label" style="" transform="translate(0,12)"><foreignObject width="97.796875" height="24"><div xmlns="http://www.w3.org/1999/xhtml" style="display: table-cell; white-space: nowrap; line-height: 1.5; max-width: 144px; text-align: center;"><span class="nodeLabel markdown-node-label" style=""><p>+hardware_id</p></span></div></foreignObject></g><g class="label" style="" transform="translate(0,36)"><foreignObject width="63.359375" height="24"><div xmlns="http://www.w3.org/1999/xhtml" style="display: table-cell; white-space: nowrap; line-height: 1.5; max-width: 114px; text-align: center;"><span class="nodeLabel markdown-node-label" style=""><p>+api_key</p></span></div></foreignObject></g><g class="label" style="" transform="translate(0,60)"><foreignObject width="51.1875" height="24"><div xmlns="http://www.w3.org/1999/xhtml" style="display: table-cell; white-space: nowrap; line-height: 1.5; max-width: 100px; text-align: center;"><span class="nodeLabel markdown-node-label" style=""><p>+status</p></span></div></foreignObject></g><g class="label" style="" transform="translate(0,84)"><foreignObject width="86.796875" height="24"><div xmlns="http://www.w3.org/1999/xhtml" style="display: table-cell; white-space: nowrap; line-height: 1.5; max-width: 130px; text-align: center;"><span class="nodeLabel markdown-node-label" style=""><p>+created_at</p></span></div></foreignObject></g><g class="label" style="" transform="translate(0,108)"><foreignObject width="98.546875" height="24"><div xmlns="http://www.w3.org/1999/xhtml" style="display: table-cell; white-space: nowrap; line-height: 1.5; max-width: 142px; text-align: center;"><span class="nodeLabel markdown-node-label" style=""><p>+last_seen_at</p></span></div></foreignObject></g></g><g class="methods-group text" transform="translate(-72.9609375, 120)"/><g class="divider" style=""><path d="M-84.9609375 -72 C-39.94428759722392 -72, 5.072362305552161 -72, 84.9609375 -72 M-84.9609375 -72 C-36.456373926199994 -72, 12.048189647600012 -72, 84.9609375 -72" stroke="#9370DB" stroke-width="1.3" fill="none" stroke-dasharray="0 0" style=""/></g><g class="divider" style=""><path d="M-84.9609375 96 C-19.951969149178026 96, 45.05699920164395 96, 84.9609375 96 M-84.9609375 96 C-19.341369680699998 96, 46.278198138600004 96, 84.9609375 96" stroke="#9370DB" stroke-width="1.3" fill="none" stroke-dasharray="0 0" style=""/></g></g><g class="node default" id="classId-IamKafkaTopics-2" transform="translate(819.2734375, 405)"><g class="basic label-container"><path d="M-148.375 -72 L148.375 -72 L148.375 72 L-148.375 72" stroke="none" stroke-width="0" fill="#ECECFF" style=""/><path d="M-148.375 -72 C-49.31757193452506 -72, 49.739856130949875 -72, 148.375 -72 M-148.375 -72 C-81.5555407872521 -72, -14.736081574504198 -72, 148.375 -72 M148.375 -72 C148.375 -38.24727158523533, 148.375 -4.4945431704706635, 148.375 72 M148.375 -72 C148.375 -25.895000793252066, 148.375 20.209998413495867, 148.375 72 M148.375 72 C33.90991118982372 72, -80.55517762035257 72, -148.375 72 M148.375 72 C50.62891679529737 72, -47.11716640940526 72, -148.375 72 M-148.375 72 C-148.375 33.138359966986094, -148.375 -5.723280066027812, -148.375 -72 M-148.375 72 C-148.375 38.762480398211125, -148.375 5.524960796422249, -148.375 -72" stroke="#9370DB" stroke-width="1.3" fill="none" stroke-dasharray="0 0" style=""/></g><g class="annotation-group text" transform="translate(0, -48)"/><g class="label-group text" transform="translate(-56.890625, -48)"><g class="label" style="font-weight: bolder" transform="translate(0,-12)"><foreignObject width="113.78125" height="24"><div xmlns="http://www.w3.org/1999/xhtml" style="display: table-cell; white-space: nowrap; line-height: 1.5; max-width: 156px; text-align: center;"><span class="nodeLabel markdown-node-label" style=""><p>IamKafkaTopics</p></span></div></foreignObject></g></g><g class="members-group text" transform="translate(-136.375, 0)"><g class="label" style="" transform="translate(0,-12)"><foreignObject width="215.859375" height="24"><div xmlns="http://www.w3.org/1999/xhtml" style="display: table-cell; white-space: nowrap; line-height: 1.5; max-width: 296px; text-align: center;"><span class="nodeLabel markdown-node-label" style=""><p>+DEVICE_PRESENCE_CHANGED</p></span></div></foreignObject></g></g><g class="methods-group text" transform="translate(-136.375, 48)"><g class="label" style="" transform="translate(0,-12)"><foreignObject width="37.984375" height="24"><div xmlns="http://www.w3.org/1999/xhtml" style="display: table-cell; white-space: nowrap; line-height: 1.5; max-width: 90px; text-align: center;"><span class="nodeLabel markdown-node-label" style=""><p>+all()</p></span></div></foreignObject></g></g><g class="divider" style=""><path d="M-148.375 -24 C-77.08968284783943 -24, -5.804365695678854 -24, 148.375 -24 M-148.375 -24 C-39.470453768179226 -24, 69.43409246364155 -24, 148.375 -24" stroke="#9370DB" stroke-width="1.3" fill="none" stroke-dasharray="0 0" style=""/></g><g class="divider" style=""><path d="M-148.375 24 C-76.09543418205834 24, -3.8158683641166817 24, 148.375 24 M-148.375 24 C-61.54479495781753 24, 25.28541008436494 24, 148.375 24" stroke="#9370DB" stroke-width="1.3" fill="none" stroke-dasharray="0 0" style=""/></g></g></g></g></g></g></g><text text-anchor="middle" x="498.57421875" y="-25" class="classDiagramTitleText">Infrastructure Layer Class Diagram</text></svg>