<svg id="my-svg" width="100%" xmlns="http://www.w3.org/2000/svg" xmlns:xlink="http://www.w3.org/1999/xlink" class="classDiagram" style="max-width: 540.586px; background-color: transparent;" viewBox="0 -48 540.5859375 444" role="graphics-document document" aria-roledescription="class"><style>#my-svg{font-family:"trebuchet ms",verdana,arial,sans-serif;font-size:16px;fill:#333;}@keyframes edge-animation-frame{from{stroke-dashoffset:0;}}@keyframes dash{to{stroke-dashoffset:0;}}#my-svg .edge-animation-slow{stroke-dasharray:9,5!important;stroke-dashoffset:900;animation:dash 50s linear infinite;stroke-linecap:round;}#my-svg .edge-animation-fast{stroke-dasharray:9,5!important;stroke-dashoffset:900;animation:dash 20s linear infinite;stroke-linecap:round;}#my-svg .error-icon{fill:#552222;}#my-svg .error-text{fill:#552222;stroke:#552222;}#my-svg .edge-thickness-normal{stroke-width:1px;}#my-svg .edge-thickness-thick{stroke-width:3.5px;}#my-svg .edge-pattern-solid{stroke-dasharray:0;}#my-svg .edge-thickness-invisible{stroke-width:0;fill:none;}#my-svg .edge-pattern-dashed{stroke-dasharray:3;}#my-svg .edge-pattern-dotted{stroke-dasharray:2;}#my-svg .marker{fill:#333333;stroke:#333333;}#my-svg .marker.cross{stroke:#333333;}#my-svg svg{font-family:"trebuchet ms",verdana,arial,sans-serif;font-size:16px;}#my-svg p{margin:0;}#my-svg g.classGroup text{fill:#9370DB;stroke:none;font-family:"trebuchet ms",verdana,arial,sans-serif;font-size:10px;}#my-svg g.classGroup text .title{font-weight:bolder;}#my-svg .nodeLabel,#my-svg .edgeLabel{color:#131300;}#my-svg .edgeLabel .label rect{fill:#ECECFF;}#my-svg .label text{fill:#131300;}#my-svg .labelBkg{background:#ECECFF;}#my-svg .edgeLabel .label span{background:#ECECFF;}#my-svg .classTitle{font-weight:bolder;}#my-svg .node rect,#my-svg .node circle,#my-svg .node ellipse,#my-svg .node polygon,#my-svg .node path{fill:#ECECFF;stroke:#9370DB;stroke-width:1px;}#my-svg .divider{stroke:#9370DB;stroke-width:1;}#my-svg g.clickable{cursor:pointer;}#my-svg g.classGroup rect{fill:#ECECFF;stroke:#9370DB;}#my-svg g.classGroup line{stroke:#9370DB;stroke-width:1;}#my-svg .classLabel .box{stroke:none;stroke-width:0;fill:#ECECFF;opacity:0.5;}#my-svg .classLabel .label{fill:#9370DB;font-size:10px;}#my-svg .relation{stroke:#333333;stroke-width:1;fill:none;}#my-svg .dashed-line{stroke-dasharray:3;}#my-svg .dotted-line{stroke-dasharray:1 2;}#my-svg #compositionStart,#my-svg .composition{fill:#333333!important;stroke:#333333!important;stroke-width:1;}#my-svg #compositionEnd,#my-svg .composition{fill:#333333!important;stroke:#333333!important;stroke-width:1;}#my-svg #dependencyStart,#my-svg .dependency{fill:#333333!important;stroke:#333333!important;stroke-width:1;}#my-svg #dependencyStart,#my-svg .dependency{fill:#333333!important;stroke:#333333!important;stroke-width:1;}#my-svg #extensionStart,#my-svg .extension{fill:transparent!important;stroke:#333333!important;stroke-width:1;}#my-svg #extensionEnd,#my-svg .extension{fill:transparent!important;stroke:#333333!important;stroke-width:1;}#my-svg #aggregationStart,#my-svg .aggregation{fill:transparent!important;stroke:#333333!important;stroke-width:1;}#my-svg #aggregationEnd,#my-svg .aggregation{fill:transparent!important;stroke:#333333!important;stroke-width:1;}#my-svg #lollipopStart,#my-svg .lollipop{fill:#ECECFF!important;stroke:#333333!important;stroke-width:1;}#my-svg #lollipopEnd,#my-svg .lollipop{fill:#ECECFF!important;stroke:#333333!important;stroke-width:1;}#my-svg .edgeTerminals{font-size:11px;line-height:initial;}#my-svg .classTitleText{text-anchor:middle;font-size:18px;fill:#333;}#my-svg .label-icon{display:inline-block;height:1em;overflow:visible;vertical-align:-0.125em;}#my-svg .node .label-icon path{fill:currentColor;stroke:revert;stroke-width:revert;}#my-svg :root{--mermaid-font-family:"trebuchet ms",verdana,arial,sans-serif;}</style><g><defs><marker id="my-svg_class-aggregationStart" class="marker aggregation class" refX="18" refY="7" markerWidth="190" markerHeight="240" orient="auto"><path d="M 18,7 L9,13 L1,7 L9,1 Z"/></marker></defs><defs><marker id="my-svg_class-aggregationEnd" class="marker aggregation class" refX="1" refY="7" markerWidth="20" markerHeight="28" orient="auto"><path d="M 18,7 L9,13 L1,7 L9,1 Z"/></marker></defs><defs><marker id="my-svg_class-extensionStart" class="marker extension class" refX="18" refY="7" markerWidth="190" markerHeight="240" orient="auto"><path d="M 1,7 L18,13 V 1 Z"/></marker></defs><defs><marker id="my-svg_class-extensionEnd" class="marker extension class" refX="1" refY="7" markerWidth="20" markerHeight="28" orient="auto"><path d="M 1,1 V 13 L18,7 Z"/></marker></defs><defs><marker id="my-svg_class-compositionStart" class="marker composition class" refX="18" refY="7" markerWidth="190" markerHeight="240" orient="auto"><path d="M 18,7 L9,13 L1,7 L9,1 Z"/></marker></defs><defs><marker id="my-svg_class-compositionEnd" class="marker composition class" refX="1" refY="7" markerWidth="20" markerHeight="28" orient="auto"><path d="M 18,7 L9,13 L1,7 L9,1 Z"/></marker></defs><defs><marker id="my-svg_class-dependencyStart" class="marker dependency class" refX="6" refY="7" markerWidth="190" markerHeight="240" orient="auto"><path d="M 5,7 L9,13 L1,7 L9,1 Z"/></marker></defs><defs><marker id="my-svg_class-dependencyEnd" class="marker dependency class" refX="13" refY="7" markerWidth="20" markerHeight="28" orient="auto"><path d="M 18,7 L9,13 L14,7 L9,1 Z"/></marker></defs><defs><marker id="my-svg_class-lollipopStart" class="marker lollipop class" refX="13" refY="7" markerWidth="190" markerHeight="240" orient="auto"><circle stroke="black" fill="transparent" cx="7" cy="7" r="6"/></marker></defs><defs><marker id="my-svg_class-lollipopEnd" class="marker lollipop class" refX="1" refY="7" markerWidth="190" markerHeight="240" orient="auto"><circle stroke="black" fill="transparent" cx="7" cy="7" r="6"/></marker></defs><g class="root"><g class="clusters"/><g class="edgePaths"><path d="M270.293,152L270.293,158.167C270.293,164.333,270.293,176.667,270.293,186.125C270.293,195.583,270.293,202.167,270.293,205.458L270.293,208.75" id="id_NotificationsHttpGateway_NotificationsGateway_1" class="edge-thickness-normal edge-pattern-dashed relation" style=";;;" data-edge="true" data-et="edge" data-id="id_NotificationsHttpGateway_NotificationsGateway_1" data-points="W3sieCI6MjcwLjI5Mjk2ODc1LCJ5IjoxNTJ9LHsieCI6MjcwLjI5Mjk2ODc1LCJ5IjoxODl9LHsieCI6MjcwLjI5Mjk2ODc1LCJ5IjoyMjZ9XQ==" marker-end="url(#my-svg_class-extensionEnd)"/></g><g class="edgeLabels"><g class="edgeLabel" transform="translate(270.29296875, 189)"><g class="label" data-id="id_NotificationsHttpGateway_NotificationsGateway_1" transform="translate(-41.890625, -12)"><foreignObject width="83.78125" height="24"><div xmlns="http://www.w3.org/1999/xhtml" class="labelBkg" style="display: table-cell; white-space: nowrap; line-height: 1.5; max-width: 200px; text-align: center;"><span class="edgeLabel"><p>implements</p></span></div></foreignObject></g></g></g><g class="nodes"><g class="node default" id="classId-NotificationsGateway-0" transform="translate(270.29296875, 307)"><g class="basic label-container"><path d="M-262.29296875 -81 L262.29296875 -81 L262.29296875 81 L-262.29296875 81" stroke="none" stroke-width="0" fill="#ECECFF" style=""/><path d="M-262.29296875 -81 C-137.39328598229895 -81, -12.493603214597897 -81, 262.29296875 -81 M-262.29296875 -81 C-56.76053751676014 -81, 148.77189371647972 -81, 262.29296875 -81 M262.29296875 -81 C262.29296875 -28.332584410172544, 262.29296875 24.334831179654913, 262.29296875 81 M262.29296875 -81 C262.29296875 -20.711958922470032, 262.29296875 39.576082155059936, 262.29296875 81 M262.29296875 81 C150.83682830907128 81, 39.38068786814256 81, -262.29296875 81 M262.29296875 81 C134.05694031364428 81, 5.820911877288552 81, -262.29296875 81 M-262.29296875 81 C-262.29296875 32.9566511541201, -262.29296875 -15.086697691759795, -262.29296875 -81 M-262.29296875 81 C-262.29296875 21.470894414291223, -262.29296875 -38.058211171417554, -262.29296875 -81" stroke="#9370DB" stroke-width="1.3" fill="none" stroke-dasharray="0 0" style=""/></g><g class="annotation-group text" transform="translate(-41.171875, -57)"><g class="label" style="" transform="translate(0,-12)"><foreignObject width="82.34375" height="24"><div xmlns="http://www.w3.org/1999/xhtml" style="display: table-cell; white-space: nowrap; line-height: 1.5; max-width: 122px; text-align: center;"><span class="nodeLabel markdown-node-label" style=""><p>«interface»</p></span></div></foreignObject></g></g><g class="label-group text" transform="translate(-79.5859375, -33)"><g class="label" style="font-weight: bolder" transform="translate(0,-12)"><foreignObject width="159.171875" height="24"><div xmlns="http://www.w3.org/1999/xhtml" style="display: table-cell; white-space: nowrap; line-height: 1.5; max-width: 191px; text-align: center;"><span class="nodeLabel markdown-node-label" style=""><p>NotificationsGateway</p></span></div></foreignObject></g></g><g class="members-group text" transform="translate(-250.29296875, 15)"/><g class="methods-group text" transform="translate(-250.29296875, 45)"><g class="label" style="font-style:italic;" transform="translate(0,-24)"><foreignObject width="421" height="48"><div xmlns="http://www.w3.org/1999/xhtml" style="display: table; white-space: break-spaces; line-height: 1.5; max-width: 421px; text-align: center; width: 421px;"><span class="nodeLabel markdown-node-label" style=""><p>+getNotifications(page, size) : NotificationPageResource</p></span></div></foreignObject></g></g><g class="divider" style=""><path d="M-262.29296875 -9 C-85.31008932621936 -9, 91.67279009756129 -9, 262.29296875 -9 M-262.29296875 -9 C-57.29770478766784 -9, 147.69755917466432 -9, 262.29296875 -9" stroke="#9370DB" stroke-width="1.3" fill="none" stroke-dasharray="0 0" style=""/></g><g class="divider" style=""><path d="M-262.29296875 15 C-150.45538887201124 15, -38.61780899402248 15, 262.29296875 15 M-262.29296875 15 C-101.6546726355185 15, 58.98362347896301 15, 262.29296875 15" stroke="#9370DB" stroke-width="1.3" fill="none" stroke-dasharray="0 0" style=""/></g></g><g class="node default" id="classId-NotificationsHttpGateway-1" transform="translate(270.29296875, 80)"><g class="basic label-container"><path d="M-262.15234375 -72 L262.15234375 -72 L262.15234375 72 L-262.15234375 72" stroke="none" stroke-width="0" fill="#ECECFF" style=""/><path d="M-262.15234375 -72 C-133.02274179349376 -72, -3.8931398369875296 -72, 262.15234375 -72 M-262.15234375 -72 C-54.08118435565004 -72, 153.98997503869992 -72, 262.15234375 -72 M262.15234375 -72 C262.15234375 -28.252683391107546, 262.15234375 15.494633217784909, 262.15234375 72 M262.15234375 -72 C262.15234375 -41.919924787863266, 262.15234375 -11.839849575726532, 262.15234375 72 M262.15234375 72 C154.8449902381265 72, 47.537636726253055 72, -262.15234375 72 M262.15234375 72 C95.08724826879995 72, -71.97784721240009 72, -262.15234375 72 M-262.15234375 72 C-262.15234375 31.021701238100057, -262.15234375 -9.956597523799886, -262.15234375 -72 M-262.15234375 72 C-262.15234375 20.828364461299124, -262.15234375 -30.343271077401752, -262.15234375 -72" stroke="#9370DB" stroke-width="1.3" fill="none" stroke-dasharray="0 0" style=""/></g><g class="annotation-group text" transform="translate(0, -48)"/><g class="label-group text" transform="translate(-96.0546875, -48)"><g class="label" style="font-weight: bolder" transform="translate(0,-12)"><foreignObject width="192.109375" height="24"><div xmlns="http://www.w3.org/1999/xhtml" style="display: table-cell; white-space: nowrap; line-height: 1.5; max-width: 220px; text-align: center;"><span class="nodeLabel markdown-node-label" style=""><p>NotificationsHttpGateway</p></span></div></foreignObject></g></g><g class="members-group text" transform="translate(-250.15234375, 0)"><g class="label" style="" transform="translate(0,-12)"><foreignObject width="69.984375" height="24"><div xmlns="http://www.w3.org/1999/xhtml" style="display: table-cell; white-space: nowrap; line-height: 1.5; max-width: 121px; text-align: center;"><span class="nodeLabel markdown-node-label" style=""><p>-_dio: Dio</p></span></div></foreignObject></g></g><g class="methods-group text" transform="translate(-250.15234375, 48)"><g class="label" style="" transform="translate(0,-12)"><foreignObject width="404.25" height="24"><div xmlns="http://www.w3.org/1999/xhtml" style="display: table-cell; white-space: nowrap; line-height: 1.5; max-width: 421px; text-align: center;"><span class="nodeLabel markdown-node-label" style=""><p>+getNotifications(page, size) : NotificationPageResource</p></span></div></foreignObject></g></g><g class="divider" style=""><path d="M-262.15234375 -24 C-127.78837189309749 -24, 6.575599963805018 -24, 262.15234375 -24 M-262.15234375 -24 C-142.223209556308 -24, -22.294075362615985 -24, 262.15234375 -24" stroke="#9370DB" stroke-width="1.3" fill="none" stroke-dasharray="0 0" style=""/></g><g class="divider" style=""><path d="M-262.15234375 24 C-146.3783145526448 24, -30.60428535528962 24, 262.15234375 24 M-262.15234375 24 C-73.38811463032295 24, 115.37611448935411 24, 262.15234375 24" stroke="#9370DB" stroke-width="1.3" fill="none" stroke-dasharray="0 0" style=""/></g></g></g></g></g><text text-anchor="middle" x="270.29296875" y="-25" class="classDiagramTitleText">Notifications - Infrastructure Layer</text></svg>