<svg id="my-svg" width="100%" xmlns="http://www.w3.org/2000/svg" xmlns:xlink="http://www.w3.org/1999/xlink" class="classDiagram" style="max-width: 1599.63px; background-color: transparent;" viewBox="0 -48 1599.6328125 256" role="graphics-document document" aria-roledescription="class"><style>#my-svg{font-family:"trebuchet ms",verdana,arial,sans-serif;font-size:16px;fill:#333;}@keyframes edge-animation-frame{from{stroke-dashoffset:0;}}@keyframes dash{to{stroke-dashoffset:0;}}#my-svg .edge-animation-slow{stroke-dasharray:9,5!important;stroke-dashoffset:900;animation:dash 50s linear infinite;stroke-linecap:round;}#my-svg .edge-animation-fast{stroke-dasharray:9,5!important;stroke-dashoffset:900;animation:dash 20s linear infinite;stroke-linecap:round;}#my-svg .error-icon{fill:#552222;}#my-svg .error-text{fill:#552222;stroke:#552222;}#my-svg .edge-thickness-normal{stroke-width:1px;}#my-svg .edge-thickness-thick{stroke-width:3.5px;}#my-svg .edge-pattern-solid{stroke-dasharray:0;}#my-svg .edge-thickness-invisible{stroke-width:0;fill:none;}#my-svg .edge-pattern-dashed{stroke-dasharray:3;}#my-svg .edge-pattern-dotted{stroke-dasharray:2;}#my-svg .marker{fill:#333333;stroke:#333333;}#my-svg .marker.cross{stroke:#333333;}#my-svg svg{font-family:"trebuchet ms",verdana,arial,sans-serif;font-size:16px;}#my-svg p{margin:0;}#my-svg g.classGroup text{fill:#9370DB;stroke:none;font-family:"trebuchet ms",verdana,arial,sans-serif;font-size:10px;}#my-svg g.classGroup text .title{font-weight:bolder;}#my-svg .nodeLabel,#my-svg .edgeLabel{color:#131300;}#my-svg .edgeLabel .label rect{fill:#ECECFF;}#my-svg .label text{fill:#131300;}#my-svg .labelBkg{background:#ECECFF;}#my-svg .edgeLabel .label span{background:#ECECFF;}#my-svg .classTitle{font-weight:bolder;}#my-svg .node rect,#my-svg .node circle,#my-svg .node ellipse,#my-svg .node polygon,#my-svg .node path{fill:#ECECFF;stroke:#9370DB;stroke-width:1px;}#my-svg .divider{stroke:#9370DB;stroke-width:1;}#my-svg g.clickable{cursor:pointer;}#my-svg g.classGroup rect{fill:#ECECFF;stroke:#9370DB;}#my-svg g.classGroup line{stroke:#9370DB;stroke-width:1;}#my-svg .classLabel .box{stroke:none;stroke-width:0;fill:#ECECFF;opacity:0.5;}#my-svg .classLabel .label{fill:#9370DB;font-size:10px;}#my-svg .relation{stroke:#333333;stroke-width:1;fill:none;}#my-svg .dashed-line{stroke-dasharray:3;}#my-svg .dotted-line{stroke-dasharray:1 2;}#my-svg #compositionStart,#my-svg .composition{fill:#333333!important;stroke:#333333!important;stroke-width:1;}#my-svg #compositionEnd,#my-svg .composition{fill:#333333!important;stroke:#333333!important;stroke-width:1;}#my-svg #dependencyStart,#my-svg .dependency{fill:#333333!important;stroke:#333333!important;stroke-width:1;}#my-svg #dependencyStart,#my-svg .dependency{fill:#333333!important;stroke:#333333!important;stroke-width:1;}#my-svg #extensionStart,#my-svg .extension{fill:transparent!important;stroke:#333333!important;stroke-width:1;}#my-svg #extensionEnd,#my-svg .extension{fill:transparent!important;stroke:#333333!important;stroke-width:1;}#my-svg #aggregationStart,#my-svg .aggregation{fill:transparent!important;stroke:#333333!important;stroke-width:1;}#my-svg #aggregationEnd,#my-svg .aggregation{fill:transparent!important;stroke:#333333!important;stroke-width:1;}#my-svg #lollipopStart,#my-svg .lollipop{fill:#ECECFF!important;stroke:#333333!important;stroke-width:1;}#my-svg #lollipopEnd,#my-svg .lollipop{fill:#ECECFF!important;stroke:#333333!important;stroke-width:1;}#my-svg .edgeTerminals{font-size:11px;line-height:initial;}#my-svg .classTitleText{text-anchor:middle;font-size:18px;fill:#333;}#my-svg .label-icon{display:inline-block;height:1em;overflow:visible;vertical-align:-0.125em;}#my-svg .node .label-icon path{fill:currentColor;stroke:revert;stroke-width:revert;}#my-svg :root{--mermaid-font-family:"trebuchet ms",verdana,arial,sans-serif;}</style><g><defs><marker id="my-svg_class-aggregationStart" class="marker aggregation class" refX="18" refY="7" markerWidth="190" markerHeight="240" orient="auto"><path d="M 18,7 L9,13 L1,7 L9,1 Z"/></marker></defs><defs><marker id="my-svg_class-aggregationEnd" class="marker aggregation class" refX="1" refY="7" markerWidth="20" markerHeight="28" orient="auto"><path d="M 18,7 L9,13 L1,7 L9,1 Z"/></marker></defs><defs><marker id="my-svg_class-extensionStart" class="marker extension class" refX="18" refY="7" markerWidth="190" markerHeight="240" orient="auto"><path d="M 1,7 L18,13 V 1 Z"/></marker></defs><defs><marker id="my-svg_class-extensionEnd" class="marker extension class" refX="1" refY="7" markerWidth="20" markerHeight="28" orient="auto"><path d="M 1,1 V 13 L18,7 Z"/></marker></defs><defs><marker id="my-svg_class-compositionStart" class="marker composition class" refX="18" refY="7" markerWidth="190" markerHeight="240" orient="auto"><path d="M 18,7 L9,13 L1,7 L9,1 Z"/></marker></defs><defs><marker id="my-svg_class-compositionEnd" class="marker composition class" refX="1" refY="7" markerWidth="20" markerHeight="28" orient="auto"><path d="M 18,7 L9,13 L1,7 L9,1 Z"/></marker></defs><defs><marker id="my-svg_class-dependencyStart" class="marker dependency class" refX="6" refY="7" markerWidth="190" markerHeight="240" orient="auto"><path d="M 5,7 L9,13 L1,7 L9,1 Z"/></marker></defs><defs><marker id="my-svg_class-dependencyEnd" class="marker dependency class" refX="13" refY="7" markerWidth="20" markerHeight="28" orient="auto"><path d="M 18,7 L9,13 L14,7 L9,1 Z"/></marker></defs><defs><marker id="my-svg_class-lollipopStart" class="marker lollipop class" refX="13" refY="7" markerWidth="190" markerHeight="240" orient="auto"><circle stroke="black" fill="transparent" cx="7" cy="7" r="6"/></marker></defs><defs><marker id="my-svg_class-lollipopEnd" class="marker lollipop class" refX="1" refY="7" markerWidth="190" markerHeight="240" orient="auto"><circle stroke="black" fill="transparent" cx="7" cy="7" r="6"/></marker></defs><g class="root"><g class="clusters"/><g class="edgePaths"/><g class="edgeLabels"/><g class="nodes"><g class="node default" id="classId-LoginCubit-0" transform="translate(226.7421875, 104)"><g class="basic label-container"><path d="M-218.7421875 -96 L218.7421875 -96 L218.7421875 96 L-218.7421875 96" stroke="none" stroke-width="0" fill="#ECECFF" style=""/><path d="M-218.7421875 -96 C-47.30855891837015 -96, 124.1250696632597 -96, 218.7421875 -96 M-218.7421875 -96 C-72.02484784332054 -96, 74.69249181335891 -96, 218.7421875 -96 M218.7421875 -96 C218.7421875 -56.40186946035553, 218.7421875 -16.803738920711055, 218.7421875 96 M218.7421875 -96 C218.7421875 -50.12485648151685, 218.7421875 -4.249712963033701, 218.7421875 96 M218.7421875 96 C108.58135884011244 96, -1.5794698197751131 96, -218.7421875 96 M218.7421875 96 C114.72590969476995 96, 10.709631889539907 96, -218.7421875 96 M-218.7421875 96 C-218.7421875 45.75148344849053, -218.7421875 -4.497033103018936, -218.7421875 -96 M-218.7421875 96 C-218.7421875 48.145941105807346, -218.7421875 0.2918822116146913, -218.7421875 -96" stroke="#9370DB" stroke-width="1.3" fill="none" stroke-dasharray="0 0" style=""/></g><g class="annotation-group text" transform="translate(0, -72)"/><g class="label-group text" transform="translate(-39.90625, -72)"><g class="label" style="font-weight: bolder" transform="translate(0,-12)"><foreignObject width="79.8125" height="24"><div xmlns="http://www.w3.org/1999/xhtml" style="display: table-cell; white-space: nowrap; line-height: 1.5; max-width: 124px; text-align: center;"><span class="nodeLabel markdown-node-label" style=""><p>LoginCubit</p></span></div></foreignObject></g></g><g class="members-group text" transform="translate(-206.7421875, -24)"><g class="label" style="" transform="translate(0,-12)"><foreignObject width="373.578125" height="24"><div xmlns="http://www.w3.org/1999/xhtml" style="display: table-cell; white-space: nowrap; line-height: 1.5; max-width: 396px; text-align: center;"><span class="nodeLabel markdown-node-label" style=""><p>-_commandService: AuthenticationCommandService</p></span></div></foreignObject></g><g class="label" style="" transform="translate(0,12)"><foreignObject width="349.15625" height="24"><div xmlns="http://www.w3.org/1999/xhtml" style="display: table-cell; white-space: nowrap; line-height: 1.5; max-width: 384px; text-align: center;"><span class="nodeLabel markdown-node-label" style=""><p>-_googleIdTokenProvider: GoogleIdTokenProvider</p></span></div></foreignObject></g></g><g class="methods-group text" transform="translate(-206.7421875, 48)"><g class="label" style="" transform="translate(0,-12)"><foreignObject width="222.859375" height="24"><div xmlns="http://www.w3.org/1999/xhtml" style="display: table-cell; white-space: nowrap; line-height: 1.5; max-width: 260px; text-align: center;"><span class="nodeLabel markdown-node-label" style=""><p>+signIn(email, password) : void</p></span></div></foreignObject></g><g class="label" style="" transform="translate(0,12)"><foreignObject width="189.09375" height="24"><div xmlns="http://www.w3.org/1999/xhtml" style="display: table-cell; white-space: nowrap; line-height: 1.5; max-width: 234px; text-align: center;"><span class="nodeLabel markdown-node-label" style=""><p>+signInWithGoogle() : void</p></span></div></foreignObject></g></g><g class="divider" style=""><path d="M-218.7421875 -48 C-93.89717663939746 -48, 30.947834221205085 -48, 218.7421875 -48 M-218.7421875 -48 C-122.0621601246282 -48, -25.382132749256414 -48, 218.7421875 -48" stroke="#9370DB" stroke-width="1.3" fill="none" stroke-dasharray="0 0" style=""/></g><g class="divider" style=""><path d="M-218.7421875 24 C-83.3966702328944 24, 51.94884703421121 24, 218.7421875 24 M-218.7421875 24 C-78.09187362875602 24, 62.55844024248796 24, 218.7421875 24" stroke="#9370DB" stroke-width="1.3" fill="none" stroke-dasharray="0 0" style=""/></g></g><g class="node default" id="classId-RegisterCubit-1" transform="translate(719.44921875, 104)"><g class="basic label-container"><path d="M-223.96484375 -96 L223.96484375 -96 L223.96484375 96 L-223.96484375 96" stroke="none" stroke-width="0" fill="#ECECFF" style=""/><path d="M-223.96484375 -96 C-66.83114330930795 -96, 90.3025571313841 -96, 223.96484375 -96 M-223.96484375 -96 C-47.93214247417498 -96, 128.10055880165004 -96, 223.96484375 -96 M223.96484375 -96 C223.96484375 -54.749442386069724, 223.96484375 -13.498884772139448, 223.96484375 96 M223.96484375 -96 C223.96484375 -20.592526291465973, 223.96484375 54.814947417068055, 223.96484375 96 M223.96484375 96 C104.61577986303253 96, -14.733284023934942 96, -223.96484375 96 M223.96484375 96 C127.83535497158749 96, 31.705866193174984 96, -223.96484375 96 M-223.96484375 96 C-223.96484375 29.72962305064698, -223.96484375 -36.54075389870604, -223.96484375 -96 M-223.96484375 96 C-223.96484375 47.53653175834382, -223.96484375 -0.9269364833123603, -223.96484375 -96" stroke="#9370DB" stroke-width="1.3" fill="none" stroke-dasharray="0 0" style=""/></g><g class="annotation-group text" transform="translate(0, -72)"/><g class="label-group text" transform="translate(-50.3515625, -72)"><g class="label" style="font-weight: bolder" transform="translate(0,-12)"><foreignObject width="100.703125" height="24"><div xmlns="http://www.w3.org/1999/xhtml" style="display: table-cell; white-space: nowrap; line-height: 1.5; max-width: 139px; text-align: center;"><span class="nodeLabel markdown-node-label" style=""><p>RegisterCubit</p></span></div></foreignObject></g></g><g class="members-group text" transform="translate(-211.96484375, -24)"><g class="label" style="" transform="translate(0,-12)"><foreignObject width="373.578125" height="24"><div xmlns="http://www.w3.org/1999/xhtml" style="display: table-cell; white-space: nowrap; line-height: 1.5; max-width: 396px; text-align: center;"><span class="nodeLabel markdown-node-label" style=""><p>-_commandService: AuthenticationCommandService</p></span></div></foreignObject></g><g class="label" style="" transform="translate(0,12)"><foreignObject width="349.15625" height="24"><div xmlns="http://www.w3.org/1999/xhtml" style="display: table-cell; white-space: nowrap; line-height: 1.5; max-width: 384px; text-align: center;"><span class="nodeLabel markdown-node-label" style=""><p>-_googleIdTokenProvider: GoogleIdTokenProvider</p></span></div></foreignObject></g></g><g class="methods-group text" transform="translate(-211.96484375, 48)"><g class="label" style="" transform="translate(0,-12)"><foreignObject width="287" height="24"><div xmlns="http://www.w3.org/1999/xhtml" style="display: table-cell; white-space: nowrap; line-height: 1.5; max-width: 311px; text-align: center;"><span class="nodeLabel markdown-node-label" style=""><p>+register(email, name, password) : void</p></span></div></foreignObject></g><g class="label" style="" transform="translate(0,12)"><foreignObject width="195.1875" height="24"><div xmlns="http://www.w3.org/1999/xhtml" style="display: table-cell; white-space: nowrap; line-height: 1.5; max-width: 241px; text-align: center;"><span class="nodeLabel markdown-node-label" style=""><p>+signUpWithGoogle() : void</p></span></div></foreignObject></g></g><g class="divider" style=""><path d="M-223.96484375 -48 C-112.3622880400522 -48, -0.7597323301044128 -48, 223.96484375 -48 M-223.96484375 -48 C-83.56444557018986 -48, 56.83595260962028 -48, 223.96484375 -48" stroke="#9370DB" stroke-width="1.3" fill="none" stroke-dasharray="0 0" style=""/></g><g class="divider" style=""><path d="M-223.96484375 24 C-46.00545277598309 24, 131.95393819803382 24, 223.96484375 24 M-223.96484375 24 C-105.65787333773773 24, 12.649097074524548 24, 223.96484375 24" stroke="#9370DB" stroke-width="1.3" fill="none" stroke-dasharray="0 0" style=""/></g></g><g class="node default" id="classId-ConfirmRegistrationCubit-2" transform="translate(1292.5234375, 104)"><g class="basic label-container"><path d="M-299.109375 -84 L299.109375 -84 L299.109375 84 L-299.109375 84" stroke="none" stroke-width="0" fill="#ECECFF" style=""/><path d="M-299.109375 -84 C-96.77703217649687 -84, 105.55531064700625 -84, 299.109375 -84 M-299.109375 -84 C-140.32800269102881 -84, 18.45336961794237 -84, 299.109375 -84 M299.109375 -84 C299.109375 -45.961884935114554, 299.109375 -7.923769870229108, 299.109375 84 M299.109375 -84 C299.109375 -39.016270075670704, 299.109375 5.967459848658592, 299.109375 84 M299.109375 84 C125.01350562258591 84, -49.08236375482818 84, -299.109375 84 M299.109375 84 C142.19626637783892 84, -14.716842244322152 84, -299.109375 84 M-299.109375 84 C-299.109375 22.215321362573093, -299.109375 -39.569357274853814, -299.109375 -84 M-299.109375 84 C-299.109375 19.817988458158126, -299.109375 -44.36402308368375, -299.109375 -84" stroke="#9370DB" stroke-width="1.3" fill="none" stroke-dasharray="0 0" style=""/></g><g class="annotation-group text" transform="translate(0, -60)"/><g class="label-group text" transform="translate(-94.359375, -60)"><g class="label" style="font-weight: bolder" transform="translate(0,-12)"><foreignObject width="188.71875" height="24"><div xmlns="http://www.w3.org/1999/xhtml" style="display: table-cell; white-space: nowrap; line-height: 1.5; max-width: 219px; text-align: center;"><span class="nodeLabel markdown-node-label" style=""><p>ConfirmRegistrationCubit</p></span></div></foreignObject></g></g><g class="members-group text" transform="translate(-287.109375, -12)"><g class="label" style="" transform="translate(0,-12)"><foreignObject width="373.578125" height="24"><div xmlns="http://www.w3.org/1999/xhtml" style="display: table-cell; white-space: nowrap; line-height: 1.5; max-width: 396px; text-align: center;"><span class="nodeLabel markdown-node-label" style=""><p>-_commandService: AuthenticationCommandService</p></span></div></foreignObject></g><g class="label" style="" transform="translate(0,12)"><foreignObject width="479.859375" height="24"><div xmlns="http://www.w3.org/1999/xhtml" style="display: table-cell; white-space: nowrap; line-height: 1.5; max-width: 496px; text-align: center;"><span class="nodeLabel markdown-node-label" style=""><p>-_registrationSessionLocalStorage: RegistrationSessionLocalStorage</p></span></div></foreignObject></g></g><g class="methods-group text" transform="translate(-287.109375, 60)"><g class="label" style="" transform="translate(0,-12)"><foreignObject width="154.9375" height="24"><div xmlns="http://www.w3.org/1999/xhtml" style="display: table-cell; white-space: nowrap; line-height: 1.5; max-width: 197px; text-align: center;"><span class="nodeLabel markdown-node-label" style=""><p>+confirm(code) : void</p></span></div></foreignObject></g></g><g class="divider" style=""><path d="M-299.109375 -36 C-127.08118586422603 -36, 44.94700327154794 -36, 299.109375 -36 M-299.109375 -36 C-164.3250633258879 -36, -29.540751651775793 -36, 299.109375 -36" stroke="#9370DB" stroke-width="1.3" fill="none" stroke-dasharray="0 0" style=""/></g><g class="divider" style=""><path d="M-299.109375 36 C-153.6793026145281 36, -8.249230229056195 36, 299.109375 36 M-299.109375 36 C-165.30142723612747 36, -31.493479472254933 36, 299.109375 36" stroke="#9370DB" stroke-width="1.3" fill="none" stroke-dasharray="0 0" style=""/></g></g></g></g></g><text text-anchor="middle" x="799.81640625" y="-25" class="classDiagramTitleText">IAM - Interfaces Layer</text></svg>