<svg id="my-svg" width="100%" xmlns="http://www.w3.org/2000/svg" xmlns:xlink="http://www.w3.org/1999/xlink" class="classDiagram" style="max-width: 2284.85px; background-color: transparent;" viewBox="0 -48 2284.84765625 422" role="graphics-document document" aria-roledescription="class"><style>#my-svg{font-family:"trebuchet ms",verdana,arial,sans-serif;font-size:16px;fill:#333;}@keyframes edge-animation-frame{from{stroke-dashoffset:0;}}@keyframes dash{to{stroke-dashoffset:0;}}#my-svg .edge-animation-slow{stroke-dasharray:9,5!important;stroke-dashoffset:900;animation:dash 50s linear infinite;stroke-linecap:round;}#my-svg .edge-animation-fast{stroke-dasharray:9,5!important;stroke-dashoffset:900;animation:dash 20s linear infinite;stroke-linecap:round;}#my-svg .error-icon{fill:#552222;}#my-svg .error-text{fill:#552222;stroke:#552222;}#my-svg .edge-thickness-normal{stroke-width:1px;}#my-svg .edge-thickness-thick{stroke-width:3.5px;}#my-svg .edge-pattern-solid{stroke-dasharray:0;}#my-svg .edge-thickness-invisible{stroke-width:0;fill:none;}#my-svg .edge-pattern-dashed{stroke-dasharray:3;}#my-svg .edge-pattern-dotted{stroke-dasharray:2;}#my-svg .marker{fill:#333333;stroke:#333333;}#my-svg .marker.cross{stroke:#333333;}#my-svg svg{font-family:"trebuchet ms",verdana,arial,sans-serif;font-size:16px;}#my-svg p{margin:0;}#my-svg g.classGroup text{fill:#9370DB;stroke:none;font-family:"trebuchet ms",verdana,arial,sans-serif;font-size:10px;}#my-svg g.classGroup text .title{font-weight:bolder;}#my-svg .nodeLabel,#my-svg .edgeLabel{color:#131300;}#my-svg .edgeLabel .label rect{fill:#ECECFF;}#my-svg .label text{fill:#131300;}#my-svg .labelBkg{background:#ECECFF;}#my-svg .edgeLabel .label span{background:#ECECFF;}#my-svg .classTitle{font-weight:bolder;}#my-svg .node rect,#my-svg .node circle,#my-svg .node ellipse,#my-svg .node polygon,#my-svg .node path{fill:#ECECFF;stroke:#9370DB;stroke-width:1px;}#my-svg .divider{stroke:#9370DB;stroke-width:1;}#my-svg g.clickable{cursor:pointer;}#my-svg g.classGroup rect{fill:#ECECFF;stroke:#9370DB;}#my-svg g.classGroup line{stroke:#9370DB;stroke-width:1;}#my-svg .classLabel .box{stroke:none;stroke-width:0;fill:#ECECFF;opacity:0.5;}#my-svg .classLabel .label{fill:#9370DB;font-size:10px;}#my-svg .relation{stroke:#333333;stroke-width:1;fill:none;}#my-svg .dashed-line{stroke-dasharray:3;}#my-svg .dotted-line{stroke-dasharray:1 2;}#my-svg #compositionStart,#my-svg .composition{fill:#333333!important;stroke:#333333!important;stroke-width:1;}#my-svg #compositionEnd,#my-svg .composition{fill:#333333!important;stroke:#333333!important;stroke-width:1;}#my-svg #dependencyStart,#my-svg .dependency{fill:#333333!important;stroke:#333333!important;stroke-width:1;}#my-svg #dependencyStart,#my-svg .dependency{fill:#333333!important;stroke:#333333!important;stroke-width:1;}#my-svg #extensionStart,#my-svg .extension{fill:transparent!important;stroke:#333333!important;stroke-width:1;}#my-svg #extensionEnd,#my-svg .extension{fill:transparent!important;stroke:#333333!important;stroke-width:1;}#my-svg #aggregationStart,#my-svg .aggregation{fill:transparent!important;stroke:#333333!important;stroke-width:1;}#my-svg #aggregationEnd,#my-svg .aggregation{fill:transparent!important;stroke:#333333!important;stroke-width:1;}#my-svg #lollipopStart,#my-svg .lollipop{fill:#ECECFF!important;stroke:#333333!important;stroke-width:1;}#my-svg #lollipopEnd,#my-svg .lollipop{fill:#ECECFF!important;stroke:#333333!important;stroke-width:1;}#my-svg .edgeTerminals{font-size:11px;line-height:initial;}#my-svg .classTitleText{text-anchor:middle;font-size:18px;fill:#333;}#my-svg .label-icon{display:inline-block;height:1em;overflow:visible;vertical-align:-0.125em;}#my-svg .node .label-icon path{fill:currentColor;stroke:revert;stroke-width:revert;}#my-svg :root{--mermaid-font-family:"trebuchet ms",verdana,arial,sans-serif;}</style><g><defs><marker id="my-svg_class-aggregationStart" class="marker aggregation class" refX="18" refY="7" markerWidth="190" markerHeight="240" orient="auto"><path d="M 18,7 L9,13 L1,7 L9,1 Z"/></marker></defs><defs><marker id="my-svg_class-aggregationEnd" class="marker aggregation class" refX="1" refY="7" markerWidth="20" markerHeight="28" orient="auto"><path d="M 18,7 L9,13 L1,7 L9,1 Z"/></marker></defs><defs><marker id="my-svg_class-extensionStart" class="marker extension class" refX="18" refY="7" markerWidth="190" markerHeight="240" orient="auto"><path d="M 1,7 L18,13 V 1 Z"/></marker></defs><defs><marker id="my-svg_class-extensionEnd" class="marker extension class" refX="1" refY="7" markerWidth="20" markerHeight="28" orient="auto"><path d="M 1,1 V 13 L18,7 Z"/></marker></defs><defs><marker id="my-svg_class-compositionStart" class="marker composition class" refX="18" refY="7" markerWidth="190" markerHeight="240" orient="auto"><path d="M 18,7 L9,13 L1,7 L9,1 Z"/></marker></defs><defs><marker id="my-svg_class-compositionEnd" class="marker composition class" refX="1" refY="7" markerWidth="20" markerHeight="28" orient="auto"><path d="M 18,7 L9,13 L1,7 L9,1 Z"/></marker></defs><defs><marker id="my-svg_class-dependencyStart" class="marker dependency class" refX="6" refY="7" markerWidth="190" markerHeight="240" orient="auto"><path d="M 5,7 L9,13 L1,7 L9,1 Z"/></marker></defs><defs><marker id="my-svg_class-dependencyEnd" class="marker dependency class" refX="13" refY="7" markerWidth="20" markerHeight="28" orient="auto"><path d="M 18,7 L9,13 L14,7 L9,1 Z"/></marker></defs><defs><marker id="my-svg_class-lollipopStart" class="marker lollipop class" refX="13" refY="7" markerWidth="190" markerHeight="240" orient="auto"><circle stroke="black" fill="transparent" cx="7" cy="7" r="6"/></marker></defs><defs><marker id="my-svg_class-lollipopEnd" class="marker lollipop class" refX="1" refY="7" markerWidth="190" markerHeight="240" orient="auto"><circle stroke="black" fill="transparent" cx="7" cy="7" r="6"/></marker></defs><g class="root"><g class="clusters"><g class="cluster undefined" id="application" data-look="classic"><rect style="fill:none !important;stroke:black !important" x="108.62890625" y="8" width="2168.21875" height="200"/><g class="cluster-label" transform="translate(1152.69921875, 8)"><foreignObject width="80.078125" height="24"><div xmlns="http://www.w3.org/1999/xhtml" style="display: table-cell; white-space: nowrap; line-height: 1.5; max-width: 200px; text-align: center;"><span class="nodeLabel"><p>application</p></span></div></foreignObject></g></g></g><g class="edgePaths"><path d="M2012.955,169.424L2034.89,175.853C2056.826,182.283,2100.696,195.141,2122.631,207.737C2144.566,220.333,2144.566,232.667,2144.566,242.125C2144.566,251.583,2144.566,258.167,2144.566,261.458L2144.566,264.75" id="id_EvaluationContextFacadeImpl_EvaluationContextFacade_1" class="edge-thickness-normal edge-pattern-dashed relation" style=";;;" data-edge="true" data-et="edge" data-id="id_EvaluationContextFacadeImpl_EvaluationContextFacade_1" data-points="W3sieCI6MjAxMi45NTUwNzgxMjUsInkiOjE2OS40MjM5NjcxMTcyMDIyfSx7IngiOjIxNDQuNTY2NDA2MjUsInkiOjIwOH0seyJ4IjoyMTQ0LjU2NjQwNjI1LCJ5IjoyNDV9LHsieCI6MjE0NC41NjY0MDYyNSwieSI6MjgyfV0=" marker-end="url(#my-svg_class-extensionEnd)"/><path d="M267.953,171L250.217,177.167C232.482,183.333,197.01,195.667,179.275,208C161.539,220.333,161.539,232.667,161.539,242.125C161.539,251.583,161.539,258.167,161.539,261.458L161.539,264.75" id="id_TelemetryEvaluationCommandServiceImpl_TelemetryEvaluationCommandService_2" class="edge-thickness-normal edge-pattern-dashed relation" style=";;;" data-edge="true" data-et="edge" data-id="id_TelemetryEvaluationCommandServiceImpl_TelemetryEvaluationCommandService_2" data-points="W3sieCI6MjY3Ljk1MzA4NTkzNzQ5OTk2LCJ5IjoxNzF9LHsieCI6MTYxLjUzOTA2MjUsInkiOjIwOH0seyJ4IjoxNjEuNTM5MDYyNSwieSI6MjQ1fSx7IngiOjE2MS41MzkwNjI1LCJ5IjoyODJ9XQ==" marker-end="url(#my-svg_class-extensionEnd)"/><path d="M1042.75,183L1031.688,187.167C1020.626,191.333,998.503,199.667,987.441,210C976.379,220.333,976.379,232.667,982.516,243.307C988.653,253.946,1000.928,262.893,1007.065,267.366L1013.202,271.839" id="id_TelemetryEvaluationQueryServiceImpl_TelemetryEvaluationQueryService_3" class="edge-thickness-normal edge-pattern-dashed relation" style=";;;" data-edge="true" data-et="edge" data-id="id_TelemetryEvaluationQueryServiceImpl_TelemetryEvaluationQueryService_3" data-points="W3sieCI6MTA0Mi43NSwieSI6MTgzfSx7IngiOjk3Ni4zNzg5MDYyNSwieSI6MjA4fSx7IngiOjk3Ni4zNzg5MDYyNSwieSI6MjQ1fSx7IngiOjEwMjcuMTQyMzA2MTcwODg2LCJ5IjoyODJ9XQ==" marker-end="url(#my-svg_class-extensionEnd)"/><path d="M449.145,171L449.145,177.167C449.145,183.333,449.145,195.667,449.145,208C449.145,220.333,449.145,232.667,451.624,244.095C454.103,255.524,459.062,266.048,461.541,271.31L464.021,276.572" id="id_TelemetryEvaluationCommandServiceImpl_TelemetryEvaluationGateway_4" class="edge-thickness-normal edge-pattern-solid relation" style=";;;" data-edge="true" data-et="edge" data-id="id_TelemetryEvaluationCommandServiceImpl_TelemetryEvaluationGateway_4" data-points="W3sieCI6NDQ5LjE0NDUzMTI1LCJ5IjoxNzF9LHsieCI6NDQ5LjE0NDUzMTI1LCJ5IjoyMDh9LHsieCI6NDQ5LjE0NDUzMTI1LCJ5IjoyNDV9LHsieCI6NDY2LjU3NzkyNzIxNTE4OTksInkiOjI4Mn1d" marker-end="url(#my-svg_class-dependencyEnd)"/><path d="M998.781,145.814L932.156,156.178C865.53,166.543,732.279,187.271,665.653,203.802C599.027,220.333,599.027,232.667,591.052,244.426C583.077,256.185,567.126,267.37,559.15,272.963L551.175,278.555" id="id_TelemetryEvaluationQueryServiceImpl_TelemetryEvaluationGateway_5" class="edge-thickness-normal edge-pattern-solid relation" style=";;;" data-edge="true" data-et="edge" data-id="id_TelemetryEvaluationQueryServiceImpl_TelemetryEvaluationGateway_5" data-points="W3sieCI6OTk4Ljc4MTI1LCJ5IjoxNDUuODE0MDA3NzUzNzI4fSx7IngiOjU5OS4wMjczNDM3NSwieSI6MjA4fSx7IngiOjU5OS4wMjczNDM3NSwieSI6MjQ1fSx7IngiOjU0Ni4yNjI0NjA0NDMwMzgsInkiOjI4Mn1d" marker-end="url(#my-svg_class-dependencyEnd)"/><path d="M1593.83,152.707L1550.633,161.923C1507.436,171.138,1421.042,189.569,1377.845,204.951C1334.648,220.333,1334.648,232.667,1316.096,244.699C1297.544,256.73,1260.44,268.461,1241.888,274.326L1223.336,280.191" id="id_EvaluationContextFacadeImpl_TelemetryEvaluationQueryService_6" class="edge-thickness-normal edge-pattern-solid relation" style=";;;" data-edge="true" data-et="edge" data-id="id_EvaluationContextFacadeImpl_TelemetryEvaluationQueryService_6" data-points="W3sieCI6MTU5My44MzAwNzgxMjUsInkiOjE1Mi43MDcyMjU1MDY5ODU1fSx7IngiOjEzMzQuNjQ4NDM3NSwieSI6MjA4fSx7IngiOjEzMzQuNjQ4NDM3NSwieSI6MjQ1fSx7IngiOjEyMTcuNjE0NzE1MTg5ODczMywieSI6MjgyfV0=" marker-end="url(#my-svg_class-dependencyEnd)"/><path d="M655.378,171L675.565,177.167C695.752,183.333,736.126,195.667,756.313,208C776.5,220.333,776.5,232.667,776.5,244C776.5,255.333,776.5,265.667,776.5,270.833L776.5,276" id="id_TelemetryEvaluationCommandServiceImpl_EvaluateTelemetryCommand_7" class="edge-thickness-normal edge-pattern-solid relation" style=";;;" data-edge="true" data-et="edge" data-id="id_TelemetryEvaluationCommandServiceImpl_EvaluateTelemetryCommand_7" data-points="W3sieCI6NjU1LjM3ODQ3NjU2MjUsInkiOjE3MX0seyJ4Ijo3NzYuNSwieSI6MjA4fSx7IngiOjc3Ni41LCJ5IjoyNDV9LHsieCI6Nzc2LjUsInkiOjI4Mn1d" marker-end="url(#my-svg_class-dependencyEnd)"/><path d="M1453.58,183L1465.342,187.167C1477.104,191.333,1500.628,199.667,1512.39,210C1524.152,220.333,1524.152,232.667,1524.152,244C1524.152,255.333,1524.152,265.667,1524.152,270.833L1524.152,276" id="id_TelemetryEvaluationQueryServiceImpl_GetEvaluationsByDeviceQuery_8" class="edge-thickness-normal edge-pattern-solid relation" style=";;;" data-edge="true" data-et="edge" data-id="id_TelemetryEvaluationQueryServiceImpl_GetEvaluationsByDeviceQuery_8" data-points="W3sieCI6MTQ1My41ODAwNzgxMjUsInkiOjE4M30seyJ4IjoxNTI0LjE1MjM0Mzc1LCJ5IjoyMDh9LHsieCI6MTUyNC4xNTIzNDM3NSwieSI6MjQ1fSx7IngiOjE1MjQuMTUyMzQzNzUsInkiOjI4Mn1d" marker-end="url(#my-svg_class-dependencyEnd)"/><path d="M1484.945,148.415L1544.675,158.346C1604.405,168.277,1723.865,188.138,1783.594,204.236C1843.324,220.333,1843.324,232.667,1843.324,244C1843.324,255.333,1843.324,265.667,1843.324,270.833L1843.324,276" id="id_TelemetryEvaluationQueryServiceImpl_GetLatestEvaluationByDeviceQuery_9" class="edge-thickness-normal edge-pattern-solid relation" style=";;;" data-edge="true" data-et="edge" data-id="id_TelemetryEvaluationQueryServiceImpl_GetLatestEvaluationByDeviceQuery_9" data-points="W3sieCI6MTQ4NC45NDUzMTI1LCJ5IjoxNDguNDE1MjY0OTE0ODU1NzV9LHsieCI6MTg0My4zMjQyMTg3NSwieSI6MjA4fSx7IngiOjE4NDMuMzI0MjE4NzUsInkiOjI0NX0seyJ4IjoxODQzLjMyNDIxODc1LCJ5IjoyODJ9XQ==" marker-end="url(#my-svg_class-dependencyEnd)"/></g><g class="edgeLabels"><g class="edgeLabel" transform="translate(2144.56640625, 245)"><g class="label" data-id="id_EvaluationContextFacadeImpl_EvaluationContextFacade_1" transform="translate(-41.890625, -12)"><foreignObject width="83.78125" height="24"><div xmlns="http://www.w3.org/1999/xhtml" class="labelBkg" style="display: table-cell; white-space: nowrap; line-height: 1.5; max-width: 200px; text-align: center;"><span class="edgeLabel"><p>implements</p></span></div></foreignObject></g></g><g class="edgeLabel" transform="translate(161.5390625, 245)"><g class="label" data-id="id_TelemetryEvaluationCommandServiceImpl_TelemetryEvaluationCommandService_2" transform="translate(-41.890625, -12)"><foreignObject width="83.78125" height="24"><div xmlns="http://www.w3.org/1999/xhtml" class="labelBkg" style="display: table-cell; white-space: nowrap; line-height: 1.5; max-width: 200px; text-align: center;"><span class="edgeLabel"><p>implements</p></span></div></foreignObject></g></g><g class="edgeLabel" transform="translate(976.37890625, 245)"><g class="label" data-id="id_TelemetryEvaluationQueryServiceImpl_TelemetryEvaluationQueryService_3" transform="translate(-41.890625, -12)"><foreignObject width="83.78125" height="24"><div xmlns="http://www.w3.org/1999/xhtml" class="labelBkg" style="display: table-cell; white-space: nowrap; line-height: 1.5; max-width: 200px; text-align: center;"><span class="edgeLabel"><p>implements</p></span></div></foreignObject></g></g><g class="edgeLabel" transform="translate(449.14453125, 245)"><g class="label" data-id="id_TelemetryEvaluationCommandServiceImpl_TelemetryEvaluationGateway_4" transform="translate(-15.2109375, -12)"><foreignObject width="30.421875" height="24"><div xmlns="http://www.w3.org/1999/xhtml" class="labelBkg" style="display: table-cell; white-space: nowrap; line-height: 1.5; max-width: 200px; text-align: center;"><span class="edgeLabel"><p>uses</p></span></div></foreignObject></g></g><g class="edgeLabel" transform="translate(599.02734375, 245)"><g class="label" data-id="id_TelemetryEvaluationQueryServiceImpl_TelemetryEvaluationGateway_5" transform="translate(-15.2109375, -12)"><foreignObject width="30.421875" height="24"><div xmlns="http://www.w3.org/1999/xhtml" class="labelBkg" style="display: table-cell; white-space: nowrap; line-height: 1.5; max-width: 200px; text-align: center;"><span class="edgeLabel"><p>uses</p></span></div></foreignObject></g></g><g class="edgeLabel" transform="translate(1334.6484375, 245)"><g class="label" data-id="id_EvaluationContextFacadeImpl_TelemetryEvaluationQueryService_6" transform="translate(-15.2109375, -12)"><foreignObject width="30.421875" height="24"><div xmlns="http://www.w3.org/1999/xhtml" class="labelBkg" style="display: table-cell; white-space: nowrap; line-height: 1.5; max-width: 200px; text-align: center;"><span class="edgeLabel"><p>uses</p></span></div></foreignObject></g></g><g class="edgeLabel" transform="translate(776.5, 245)"><g class="label" data-id="id_TelemetryEvaluationCommandServiceImpl_EvaluateTelemetryCommand_7" transform="translate(-29.6015625, -12)"><foreignObject width="59.203125" height="24"><div xmlns="http://www.w3.org/1999/xhtml" class="labelBkg" style="display: table-cell; white-space: nowrap; line-height: 1.5; max-width: 200px; text-align: center;"><span class="edgeLabel"><p>receives</p></span></div></foreignObject></g></g><g class="edgeLabel" transform="translate(1524.15234375, 245)"><g class="label" data-id="id_TelemetryEvaluationQueryServiceImpl_GetEvaluationsByDeviceQuery_8" transform="translate(-29.6015625, -12)"><foreignObject width="59.203125" height="24"><div xmlns="http://www.w3.org/1999/xhtml" class="labelBkg" style="display: table-cell; white-space: nowrap; line-height: 1.5; max-width: 200px; text-align: center;"><span class="edgeLabel"><p>receives</p></span></div></foreignObject></g></g><g class="edgeLabel" transform="translate(1843.32421875, 245)"><g class="label" data-id="id_TelemetryEvaluationQueryServiceImpl_GetLatestEvaluationByDeviceQuery_9" transform="translate(-29.6015625, -12)"><foreignObject width="59.203125" height="24"><div xmlns="http://www.w3.org/1999/xhtml" class="labelBkg" style="display: table-cell; white-space: nowrap; line-height: 1.5; max-width: 200px; text-align: center;"><span class="edgeLabel"><p>receives</p></span></div></foreignObject></g></g></g><g class="nodes"><g class="node default" id="classId-TelemetryEvaluationCommandServiceImpl-0" transform="translate(449.14453125, 108)"><g class="basic label-container"><path d="M-255.3828125 -63 L255.3828125 -63 L255.3828125 63 L-255.3828125 63" stroke="none" stroke-width="0" fill="#ECECFF" style=""/><path d="M-255.3828125 -63 C-90.36967364817986 -63, 74.64346520364029 -63, 255.3828125 -63 M-255.3828125 -63 C-92.38373155222516 -63, 70.61534939554969 -63, 255.3828125 -63 M255.3828125 -63 C255.3828125 -21.68585371500364, 255.3828125 19.628292569992723, 255.3828125 63 M255.3828125 -63 C255.3828125 -37.57000387242546, 255.3828125 -12.140007744850926, 255.3828125 63 M255.3828125 63 C108.37737981833706 63, -38.62805286332588 63, -255.3828125 63 M255.3828125 63 C106.7625710442457 63, -41.85767041150859 63, -255.3828125 63 M-255.3828125 63 C-255.3828125 18.44555966173934, -255.3828125 -26.108880676521323, -255.3828125 -63 M-255.3828125 63 C-255.3828125 30.59952561008118, -255.3828125 -1.8009487798376398, -255.3828125 -63" stroke="#9370DB" stroke-width="1.3" fill="none" stroke-dasharray="0 0" style=""/></g><g class="annotation-group text" transform="translate(0, -39)"/><g class="label-group text" transform="translate(-157.65625, -39)"><g class="label" style="font-weight: bolder" transform="translate(0,-12)"><foreignObject width="315.3125" height="24"><div xmlns="http://www.w3.org/1999/xhtml" style="display: table-cell; white-space: nowrap; line-height: 1.5; max-width: 329px; text-align: center;"><span class="nodeLabel markdown-node-label" style=""><p>TelemetryEvaluationCommandServiceImpl</p></span></div></foreignObject></g></g><g class="members-group text" transform="translate(-243.3828125, 9)"/><g class="methods-group text" transform="translate(-243.3828125, 39)"><g class="label" style="" transform="translate(0,-12)"><foreignObject width="329.109375" height="24"><div xmlns="http://www.w3.org/1999/xhtml" style="display: table-cell; white-space: nowrap; line-height: 1.5; max-width: 355px; text-align: center;"><span class="nodeLabel markdown-node-label" style=""><p>+handleEvaluateTelemetry(command, apiKey)</p></span></div></foreignObject></g></g><g class="divider" style=""><path d="M-255.3828125 -15 C-68.54800349558522 -15, 118.28680550882956 -15, 255.3828125 -15 M-255.3828125 -15 C-102.70064936725598 -15, 49.981513765488046 -15, 255.3828125 -15" stroke="#9370DB" stroke-width="1.3" fill="none" stroke-dasharray="0 0" style=""/></g><g class="divider" style=""><path d="M-255.3828125 9 C-81.11064312381379 9, 93.16152625237243 9, 255.3828125 9 M-255.3828125 9 C-129.1703784545565 9, -2.957944409112997 9, 255.3828125 9" stroke="#9370DB" stroke-width="1.3" fill="none" stroke-dasharray="0 0" style=""/></g></g><g class="node default" id="classId-TelemetryEvaluationQueryServiceImpl-1" transform="translate(1241.86328125, 108)"><g class="basic label-container"><path d="M-243.08203125 -75 L243.08203125 -75 L243.08203125 75 L-243.08203125 75" stroke="none" stroke-width="0" fill="#ECECFF" style=""/><path d="M-243.08203125 -75 C-76.72884374520913 -75, 89.62434375958173 -75, 243.08203125 -75 M-243.08203125 -75 C-117.03556649463837 -75, 9.010898260723252 -75, 243.08203125 -75 M243.08203125 -75 C243.08203125 -32.2113709139052, 243.08203125 10.577258172189602, 243.08203125 75 M243.08203125 -75 C243.08203125 -28.254477646721845, 243.08203125 18.49104470655631, 243.08203125 75 M243.08203125 75 C133.9867061276879 75, 24.89138100537579 75, -243.08203125 75 M243.08203125 75 C49.91062946238327 75, -143.26077232523346 75, -243.08203125 75 M-243.08203125 75 C-243.08203125 16.784071109156905, -243.08203125 -41.43185778168619, -243.08203125 -75 M-243.08203125 75 C-243.08203125 28.99881185066956, -243.08203125 -17.002376298660877, -243.08203125 -75" stroke="#9370DB" stroke-width="1.3" fill="none" stroke-dasharray="0 0" style=""/></g><g class="annotation-group text" transform="translate(0, -51)"/><g class="label-group text" transform="translate(-143.5390625, -51)"><g class="label" style="font-weight: bolder" transform="translate(0,-12)"><foreignObject width="287.078125" height="24"><div xmlns="http://www.w3.org/1999/xhtml" style="display: table-cell; white-space: nowrap; line-height: 1.5; max-width: 303px; text-align: center;"><span class="nodeLabel markdown-node-label" style=""><p>TelemetryEvaluationQueryServiceImpl</p></span></div></foreignObject></g></g><g class="members-group text" transform="translate(-231.08203125, -3)"/><g class="methods-group text" transform="translate(-231.08203125, 27)"><g class="label" style="" transform="translate(0,-12)"><foreignObject width="280.703125" height="24"><div xmlns="http://www.w3.org/1999/xhtml" style="display: table-cell; white-space: nowrap; line-height: 1.5; max-width: 316px; text-align: center;"><span class="nodeLabel markdown-node-label" style=""><p>+handleGetEvaluationsByDevice(query)</p></span></div></foreignObject></g><g class="label" style="" transform="translate(0,12)"><foreignObject width="318.625" height="24"><div xmlns="http://www.w3.org/1999/xhtml" style="display: table-cell; white-space: nowrap; line-height: 1.5; max-width: 349px; text-align: center;"><span class="nodeLabel markdown-node-label" style=""><p>+handleGetLatestEvaluationByDevice(query)</p></span></div></foreignObject></g></g><g class="divider" style=""><path d="M-243.08203125 -27 C-124.85781344162301 -27, -6.633595633246017 -27, 243.08203125 -27 M-243.08203125 -27 C-84.51819329547811 -27, 74.04564465904377 -27, 243.08203125 -27" stroke="#9370DB" stroke-width="1.3" fill="none" stroke-dasharray="0 0" style=""/></g><g class="divider" style=""><path d="M-243.08203125 -3 C-57.294484209107225 -3, 128.49306283178555 -3, 243.08203125 -3 M-243.08203125 -3 C-66.62389561599221 -3, 109.83424001801558 -3, 243.08203125 -3" stroke="#9370DB" stroke-width="1.3" fill="none" stroke-dasharray="0 0" style=""/></g></g><g class="node default" id="classId-EvaluationContextFacadeImpl-2" transform="translate(1803.392578125, 108)"><g class="basic label-container"><path d="M-209.5625 -63 L209.5625 -63 L209.5625 63 L-209.5625 63" stroke="none" stroke-width="0" fill="#ECECFF" style=""/><path d="M-209.5625 -63 C-91.24525617105098 -63, 27.071987657898035 -63, 209.5625 -63 M-209.5625 -63 C-64.94596107602905 -63, 79.6705778479419 -63, 209.5625 -63 M209.5625 -63 C209.5625 -15.317179535754661, 209.5625 32.36564092849068, 209.5625 63 M209.5625 -63 C209.5625 -20.202607078101877, 209.5625 22.594785843796245, 209.5625 63 M209.5625 63 C93.69542444801087 63, -22.171651103978263 63, -209.5625 63 M209.5625 63 C60.21118262522782 63, -89.14013474954436 63, -209.5625 63 M-209.5625 63 C-209.5625 19.791805744692695, -209.5625 -23.41638851061461, -209.5625 -63 M-209.5625 63 C-209.5625 30.490174900779692, -209.5625 -2.0196501984406154, -209.5625 -63" stroke="#9370DB" stroke-width="1.3" fill="none" stroke-dasharray="0 0" style=""/></g><g class="annotation-group text" transform="translate(0, -39)"/><g class="label-group text" transform="translate(-110.96875, -39)"><g class="label" style="font-weight: bolder" transform="translate(0,-12)"><foreignObject width="221.9375" height="24"><div xmlns="http://www.w3.org/1999/xhtml" style="display: table-cell; white-space: nowrap; line-height: 1.5; max-width: 246px; text-align: center;"><span class="nodeLabel markdown-node-label" style=""><p>EvaluationContextFacadeImpl</p></span></div></foreignObject></g></g><g class="members-group text" transform="translate(-197.5625, 9)"/><g class="methods-group text" transform="translate(-197.5625, 39)"><g class="label" style="" transform="translate(0,-12)"><foreignObject width="284.15625" height="24"><div xmlns="http://www.w3.org/1999/xhtml" style="display: table-cell; white-space: nowrap; line-height: 1.5; max-width: 316px; text-align: center;"><span class="nodeLabel markdown-node-label" style=""><p>+getLatestTelemetryByDevice(deviceId)</p></span></div></foreignObject></g></g><g class="divider" style=""><path d="M-209.5625 -15 C-97.66750928522207 -15, 14.227481429555866 -15, 209.5625 -15 M-209.5625 -15 C-72.09045584955174 -15, 65.38158830089651 -15, 209.5625 -15" stroke="#9370DB" stroke-width="1.3" fill="none" stroke-dasharray="0 0" style=""/></g><g class="divider" style=""><path d="M-209.5625 9 C-77.0115522880709 9, 55.539395423858195 9, 209.5625 9 M-209.5625 9 C-121.12714790108454 9, -32.69179580216908 9, 209.5625 9" stroke="#9370DB" stroke-width="1.3" fill="none" stroke-dasharray="0 0" style=""/></g></g><g class="node default" id="classId-EvaluationContextFacade-3" transform="translate(2144.56640625, 324)"><g class="basic label-container"><path d="M-106.84375 -42 L106.84375 -42 L106.84375 42 L-106.84375 42" stroke="none" stroke-width="0" fill="#ECECFF" style=""/><path d="M-106.84375 -42 C-54.62695008521012 -42, -2.4101501704202377 -42, 106.84375 -42 M-106.84375 -42 C-63.87069651312396 -42, -20.89764302624792 -42, 106.84375 -42 M106.84375 -42 C106.84375 -23.39973433385062, 106.84375 -4.799468667701241, 106.84375 42 M106.84375 -42 C106.84375 -15.781756296072231, 106.84375 10.436487407855537, 106.84375 42 M106.84375 42 C27.214841147557834 42, -52.41406770488433 42, -106.84375 42 M106.84375 42 C27.417254674367697 42, -52.009240651264605 42, -106.84375 42 M-106.84375 42 C-106.84375 11.198397634928153, -106.84375 -19.603204730143695, -106.84375 -42 M-106.84375 42 C-106.84375 18.04734512666088, -106.84375 -5.905309746678242, -106.84375 -42" stroke="#9370DB" stroke-width="1.3" fill="none" stroke-dasharray="0 0" style=""/></g><g class="annotation-group text" transform="translate(0, -18)"/><g class="label-group text" transform="translate(-94.84375, -18)"><g class="label" style="font-weight: bolder" transform="translate(0,-12)"><foreignObject width="189.6875" height="24"><div xmlns="http://www.w3.org/1999/xhtml" style="display: table-cell; white-space: nowrap; line-height: 1.5; max-width: 215px; text-align: center;"><span class="nodeLabel markdown-node-label" style=""><p>EvaluationContextFacade</p></span></div></foreignObject></g></g><g class="members-group text" transform="translate(-94.84375, 30)"/><g class="methods-group text" transform="translate(-94.84375, 60)"/><g class="divider" style=""><path d="M-106.84375 6 C-30.168027428539887 6, 46.50769514292023 6, 106.84375 6 M-106.84375 6 C-41.00012199843263 6, 24.843506003134735 6, 106.84375 6" stroke="#9370DB" stroke-width="1.3" fill="none" stroke-dasharray="0 0" style=""/></g><g class="divider" style=""><path d="M-106.84375 24 C-30.675217183821985 24, 45.49331563235603 24, 106.84375 24 M-106.84375 24 C-57.516065120173586 24, -8.188380240347172 24, 106.84375 24" stroke="#9370DB" stroke-width="1.3" fill="none" stroke-dasharray="0 0" style=""/></g></g><g class="node default" id="classId-TelemetryEvaluationCommandService-4" transform="translate(161.5390625, 324)"><g class="basic label-container"><path d="M-153.5390625 -42 L153.5390625 -42 L153.5390625 42 L-153.5390625 42" stroke="none" stroke-width="0" fill="#ECECFF" style=""/><path d="M-153.5390625 -42 C-45.098304034983656 -42, 63.34245443003269 -42, 153.5390625 -42 M-153.5390625 -42 C-31.338538089286615 -42, 90.86198632142677 -42, 153.5390625 -42 M153.5390625 -42 C153.5390625 -23.83335517684754, 153.5390625 -5.6667103536950805, 153.5390625 42 M153.5390625 -42 C153.5390625 -20.395233754616907, 153.5390625 1.2095324907661862, 153.5390625 42 M153.5390625 42 C54.62587274047978 42, -44.287317019040444 42, -153.5390625 42 M153.5390625 42 C30.856696074444628 42, -91.82567035111074 42, -153.5390625 42 M-153.5390625 42 C-153.5390625 12.288535292177478, -153.5390625 -17.422929415645044, -153.5390625 -42 M-153.5390625 42 C-153.5390625 9.56620852209604, -153.5390625 -22.86758295580792, -153.5390625 -42" stroke="#9370DB" stroke-width="1.3" fill="none" stroke-dasharray="0 0" style=""/></g><g class="annotation-group text" transform="translate(0, -18)"/><g class="label-group text" transform="translate(-141.5390625, -18)"><g class="label" style="font-weight: bolder" transform="translate(0,-12)"><foreignObject width="283.078125" height="24"><div xmlns="http://www.w3.org/1999/xhtml" style="display: table-cell; white-space: nowrap; line-height: 1.5; max-width: 299px; text-align: center;"><span class="nodeLabel markdown-node-label" style=""><p>TelemetryEvaluationCommandService</p></span></div></foreignObject></g></g><g class="members-group text" transform="translate(-141.5390625, 30)"/><g class="methods-group text" transform="translate(-141.5390625, 60)"/><g class="divider" style=""><path d="M-153.5390625 6 C-72.08864102537828 6, 9.36178044924344 6, 153.5390625 6 M-153.5390625 6 C-45.62375326312748 6, 62.291555973745034 6, 153.5390625 6" stroke="#9370DB" stroke-width="1.3" fill="none" stroke-dasharray="0 0" style=""/></g><g class="divider" style=""><path d="M-153.5390625 24 C-37.47543488329272 24, 78.58819273341456 24, 153.5390625 24 M-153.5390625 24 C-36.942051503390715 24, 79.65495949321857 24, 153.5390625 24" stroke="#9370DB" stroke-width="1.3" fill="none" stroke-dasharray="0 0" style=""/></g></g><g class="node default" id="classId-TelemetryEvaluationQueryService-5" transform="translate(1084.765625, 324)"><g class="basic label-container"><path d="M-139.421875 -42 L139.421875 -42 L139.421875 42 L-139.421875 42" stroke="none" stroke-width="0" fill="#ECECFF" style=""/><path d="M-139.421875 -42 C-31.49086668274947 -42, 76.44014163450106 -42, 139.421875 -42 M-139.421875 -42 C-65.90296247455284 -42, 7.615950050894327 -42, 139.421875 -42 M139.421875 -42 C139.421875 -14.075726252543195, 139.421875 13.84854749491361, 139.421875 42 M139.421875 -42 C139.421875 -19.650097484755655, 139.421875 2.6998050304886902, 139.421875 42 M139.421875 42 C33.71663035955997 42, -71.98861428088006 42, -139.421875 42 M139.421875 42 C33.029457663274385 42, -73.36295967345123 42, -139.421875 42 M-139.421875 42 C-139.421875 17.982694054596582, -139.421875 -6.034611890806836, -139.421875 -42 M-139.421875 42 C-139.421875 21.452049197907257, -139.421875 0.9040983958145148, -139.421875 -42" stroke="#9370DB" stroke-width="1.3" fill="none" stroke-dasharray="0 0" style=""/></g><g class="annotation-group text" transform="translate(0, -18)"/><g class="label-group text" transform="translate(-127.421875, -18)"><g class="label" style="font-weight: bolder" transform="translate(0,-12)"><foreignObject width="254.84375" height="24"><div xmlns="http://www.w3.org/1999/xhtml" style="display: table-cell; white-space: nowrap; line-height: 1.5; max-width: 272px; text-align: center;"><span class="nodeLabel markdown-node-label" style=""><p>TelemetryEvaluationQueryService</p></span></div></foreignObject></g></g><g class="members-group text" transform="translate(-127.421875, 30)"/><g class="methods-group text" transform="translate(-127.421875, 60)"/><g class="divider" style=""><path d="M-139.421875 6 C-59.80779681979371 6, 19.806281360412584 6, 139.421875 6 M-139.421875 6 C-59.59648592614347 6, 20.228903147713055 6, 139.421875 6" stroke="#9370DB" stroke-width="1.3" fill="none" stroke-dasharray="0 0" style=""/></g><g class="divider" style=""><path d="M-139.421875 24 C-73.91214235620282 24, -8.402409712405642 24, 139.421875 24 M-139.421875 24 C-51.61794946228538 24, 36.18597607542924 24, 139.421875 24" stroke="#9370DB" stroke-width="1.3" fill="none" stroke-dasharray="0 0" style=""/></g></g><g class="node default" id="classId-TelemetryEvaluationGateway-6" transform="translate(486.3671875, 324)"><g class="basic label-container"><path d="M-121.2890625 -42 L121.2890625 -42 L121.2890625 42 L-121.2890625 42" stroke="none" stroke-width="0" fill="#ECECFF" style=""/><path d="M-121.2890625 -42 C-36.364141511335646 -42, 48.56077947732871 -42, 121.2890625 -42 M-121.2890625 -42 C-27.502879580932444 -42, 66.28330333813511 -42, 121.2890625 -42 M121.2890625 -42 C121.2890625 -16.105857421983558, 121.2890625 9.788285156032885, 121.2890625 42 M121.2890625 -42 C121.2890625 -15.805062345334452, 121.2890625 10.389875309331096, 121.2890625 42 M121.2890625 42 C50.98027182384105 42, -19.3285188523179 42, -121.2890625 42 M121.2890625 42 C57.612675308340755 42, -6.06371188331849 42, -121.2890625 42 M-121.2890625 42 C-121.2890625 15.306312151961688, -121.2890625 -11.387375696076624, -121.2890625 -42 M-121.2890625 42 C-121.2890625 15.389994010592059, -121.2890625 -11.220011978815883, -121.2890625 -42" stroke="#9370DB" stroke-width="1.3" fill="none" stroke-dasharray="0 0" style=""/></g><g class="annotation-group text" transform="translate(0, -18)"/><g class="label-group text" transform="translate(-109.2890625, -18)"><g class="label" style="font-weight: bolder" transform="translate(0,-12)"><foreignObject width="218.578125" height="24"><div xmlns="http://www.w3.org/1999/xhtml" style="display: table-cell; white-space: nowrap; line-height: 1.5; max-width: 241px; text-align: center;"><span class="nodeLabel markdown-node-label" style=""><p>TelemetryEvaluationGateway</p></span></div></foreignObject></g></g><g class="members-group text" transform="translate(-109.2890625, 30)"/><g class="methods-group text" transform="translate(-109.2890625, 60)"/><g class="divider" style=""><path d="M-121.2890625 6 C-62.949646977756764 6, -4.610231455513528 6, 121.2890625 6 M-121.2890625 6 C-68.04830005118998 6, -14.807537602379966 6, 121.2890625 6" stroke="#9370DB" stroke-width="1.3" fill="none" stroke-dasharray="0 0" style=""/></g><g class="divider" style=""><path d="M-121.2890625 24 C-54.83565678690809 24, 11.617748926183822 24, 121.2890625 24 M-121.2890625 24 C-62.26840378339682 24, -3.247745066793641 24, 121.2890625 24" stroke="#9370DB" stroke-width="1.3" fill="none" stroke-dasharray="0 0" style=""/></g></g><g class="node default" id="classId-EvaluateTelemetryCommand-7" transform="translate(776.5, 324)"><g class="basic label-container"><path d="M-118.84375 -42 L118.84375 -42 L118.84375 42 L-118.84375 42" stroke="none" stroke-width="0" fill="#ECECFF" style=""/><path d="M-118.84375 -42 C-50.005379457088424 -42, 18.832991085823153 -42, 118.84375 -42 M-118.84375 -42 C-44.56019506883585 -42, 29.723359862328294 -42, 118.84375 -42 M118.84375 -42 C118.84375 -17.10243681705527, 118.84375 7.795126365889459, 118.84375 42 M118.84375 -42 C118.84375 -17.40941243395236, 118.84375 7.181175132095277, 118.84375 42 M118.84375 42 C57.910223644922795 42, -3.023302710154411 42, -118.84375 42 M118.84375 42 C64.55300412972585 42, 10.262258259451684 42, -118.84375 42 M-118.84375 42 C-118.84375 11.63960831860767, -118.84375 -18.72078336278466, -118.84375 -42 M-118.84375 42 C-118.84375 22.84400986195421, -118.84375 3.6880197239084183, -118.84375 -42" stroke="#9370DB" stroke-width="1.3" fill="none" stroke-dasharray="0 0" style=""/></g><g class="annotation-group text" transform="translate(0, -18)"/><g class="label-group text" transform="translate(-106.84375, -18)"><g class="label" style="font-weight: bolder" transform="translate(0,-12)"><foreignObject width="213.6875" height="24"><div xmlns="http://www.w3.org/1999/xhtml" style="display: table-cell; white-space: nowrap; line-height: 1.5; max-width: 238px; text-align: center;"><span class="nodeLabel markdown-node-label" style=""><p>EvaluateTelemetryCommand</p></span></div></foreignObject></g></g><g class="members-group text" transform="translate(-106.84375, 30)"/><g class="methods-group text" transform="translate(-106.84375, 60)"/><g class="divider" style=""><path d="M-118.84375 6 C-62.76429185675564 6, -6.684833713511281 6, 118.84375 6 M-118.84375 6 C-39.609401476558475 6, 39.62494704688305 6, 118.84375 6" stroke="#9370DB" stroke-width="1.3" fill="none" stroke-dasharray="0 0" style=""/></g><g class="divider" style=""><path d="M-118.84375 24 C-48.76286330193304 24, 21.318023396133924 24, 118.84375 24 M-118.84375 24 C-50.004235829609186 24, 18.835278340781628 24, 118.84375 24" stroke="#9370DB" stroke-width="1.3" fill="none" stroke-dasharray="0 0" style=""/></g></g><g class="node default" id="classId-GetEvaluationsByDeviceQuery-8" transform="translate(1524.15234375, 324)"><g class="basic label-container"><path d="M-124.7734375 -42 L124.7734375 -42 L124.7734375 42 L-124.7734375 42" stroke="none" stroke-width="0" fill="#ECECFF" style=""/><path d="M-124.7734375 -42 C-61.62925755765443 -42, 1.5149223846911468 -42, 124.7734375 -42 M-124.7734375 -42 C-31.091070499913315 -42, 62.59129650017337 -42, 124.7734375 -42 M124.7734375 -42 C124.7734375 -14.08704307078219, 124.7734375 13.82591385843562, 124.7734375 42 M124.7734375 -42 C124.7734375 -12.730936733408257, 124.7734375 16.538126533183487, 124.7734375 42 M124.7734375 42 C52.93840716000486 42, -18.896623179990286 42, -124.7734375 42 M124.7734375 42 C50.570484011910494 42, -23.63246947617901 42, -124.7734375 42 M-124.7734375 42 C-124.7734375 10.804705122113894, -124.7734375 -20.39058975577221, -124.7734375 -42 M-124.7734375 42 C-124.7734375 14.057965867428244, -124.7734375 -13.884068265143512, -124.7734375 -42" stroke="#9370DB" stroke-width="1.3" fill="none" stroke-dasharray="0 0" style=""/></g><g class="annotation-group text" transform="translate(0, -18)"/><g class="label-group text" transform="translate(-112.7734375, -18)"><g class="label" style="font-weight: bolder" transform="translate(0,-12)"><foreignObject width="225.546875" height="24"><div xmlns="http://www.w3.org/1999/xhtml" style="display: table-cell; white-space: nowrap; line-height: 1.5; max-width: 253px; text-align: center;"><span class="nodeLabel markdown-node-label" style=""><p>GetEvaluationsByDeviceQuery</p></span></div></foreignObject></g></g><g class="members-group text" transform="translate(-112.7734375, 30)"/><g class="methods-group text" transform="translate(-112.7734375, 60)"/><g class="divider" style=""><path d="M-124.7734375 6 C-41.266444355879486 6, 42.24054878824103 6, 124.7734375 6 M-124.7734375 6 C-43.91373374198321 6, 36.945970016033584 6, 124.7734375 6" stroke="#9370DB" stroke-width="1.3" fill="none" stroke-dasharray="0 0" style=""/></g><g class="divider" style=""><path d="M-124.7734375 24 C-45.84805802434475 24, 33.077321451310496 24, 124.7734375 24 M-124.7734375 24 C-63.11824941381935 24, -1.4630613276386981 24, 124.7734375 24" stroke="#9370DB" stroke-width="1.3" fill="none" stroke-dasharray="0 0" style=""/></g></g><g class="node default" id="classId-GetLatestEvaluationByDeviceQuery-9" transform="translate(1843.32421875, 324)"><g class="basic label-container"><path d="M-144.3984375 -42 L144.3984375 -42 L144.3984375 42 L-144.3984375 42" stroke="none" stroke-width="0" fill="#ECECFF" style=""/><path d="M-144.3984375 -42 C-45.10319538153897 -42, 54.192046736922066 -42, 144.3984375 -42 M-144.3984375 -42 C-70.97133606793496 -42, 2.4557653641300874 -42, 144.3984375 -42 M144.3984375 -42 C144.3984375 -22.829099610397527, 144.3984375 -3.658199220795055, 144.3984375 42 M144.3984375 -42 C144.3984375 -16.64143627304798, 144.3984375 8.717127453904041, 144.3984375 42 M144.3984375 42 C43.24367414350846 42, -57.911089212983086 42, -144.3984375 42 M144.3984375 42 C79.35763948151552 42, 14.31684146303104 42, -144.3984375 42 M-144.3984375 42 C-144.3984375 21.43009719079273, -144.3984375 0.8601943815854582, -144.3984375 -42 M-144.3984375 42 C-144.3984375 17.61343512477568, -144.3984375 -6.773129750448639, -144.3984375 -42" stroke="#9370DB" stroke-width="1.3" fill="none" stroke-dasharray="0 0" style=""/></g><g class="annotation-group text" transform="translate(0, -18)"/><g class="label-group text" transform="translate(-132.3984375, -18)"><g class="label" style="font-weight: bolder" transform="translate(0,-12)"><foreignObject width="264.796875" height="24"><div xmlns="http://www.w3.org/1999/xhtml" style="display: table-cell; white-space: nowrap; line-height: 1.5; max-width: 285px; text-align: center;"><span class="nodeLabel markdown-node-label" style=""><p>GetLatestEvaluationByDeviceQuery</p></span></div></foreignObject></g></g><g class="members-group text" transform="translate(-132.3984375, 30)"/><g class="methods-group text" transform="translate(-132.3984375, 60)"/><g class="divider" style=""><path d="M-144.3984375 6 C-70.99756633016274 6, 2.4033048396745187 6, 144.3984375 6 M-144.3984375 6 C-43.73155119578338 6, 56.935335108433236 6, 144.3984375 6" stroke="#9370DB" stroke-width="1.3" fill="none" stroke-dasharray="0 0" style=""/></g><g class="divider" style=""><path d="M-144.3984375 24 C-72.46975673084928 24, -0.5410759616985672 24, 144.3984375 24 M-144.3984375 24 C-72.44262544608668 24, -0.48681339217336017 24, 144.3984375 24" stroke="#9370DB" stroke-width="1.3" fill="none" stroke-dasharray="0 0" style=""/></g></g></g></g></g><text text-anchor="middle" x="1142.423828125" y="-25" class="classDiagramTitleText">Application - Evaluation</text></svg>