<svg id="my-svg" width="100%" xmlns="http://www.w3.org/2000/svg" xmlns:xlink="http://www.w3.org/1999/xlink" class="classDiagram" style="max-width: 455.078px; background-color: transparent;" viewBox="-8 -48 455.078125 1258" role="graphics-document document" aria-roledescription="class"><style>#my-svg{font-family:"trebuchet ms",verdana,arial,sans-serif;font-size:16px;fill:#333;}@keyframes edge-animation-frame{from{stroke-dashoffset:0;}}@keyframes dash{to{stroke-dashoffset:0;}}#my-svg .edge-animation-slow{stroke-dasharray:9,5!important;stroke-dashoffset:900;animation:dash 50s linear infinite;stroke-linecap:round;}#my-svg .edge-animation-fast{stroke-dasharray:9,5!important;stroke-dashoffset:900;animation:dash 20s linear infinite;stroke-linecap:round;}#my-svg .error-icon{fill:#552222;}#my-svg .error-text{fill:#552222;stroke:#552222;}#my-svg .edge-thickness-normal{stroke-width:1px;}#my-svg .edge-thickness-thick{stroke-width:3.5px;}#my-svg .edge-pattern-solid{stroke-dasharray:0;}#my-svg .edge-thickness-invisible{stroke-width:0;fill:none;}#my-svg .edge-pattern-dashed{stroke-dasharray:3;}#my-svg .edge-pattern-dotted{stroke-dasharray:2;}#my-svg .marker{fill:#333333;stroke:#333333;}#my-svg .marker.cross{stroke:#333333;}#my-svg svg{font-family:"trebuchet ms",verdana,arial,sans-serif;font-size:16px;}#my-svg p{margin:0;}#my-svg g.classGroup text{fill:#9370DB;stroke:none;font-family:"trebuchet ms",verdana,arial,sans-serif;font-size:10px;}#my-svg g.classGroup text .title{font-weight:bolder;}#my-svg .nodeLabel,#my-svg .edgeLabel{color:#131300;}#my-svg .edgeLabel .label rect{fill:#ECECFF;}#my-svg .label text{fill:#131300;}#my-svg .labelBkg{background:#ECECFF;}#my-svg .edgeLabel .label span{background:#ECECFF;}#my-svg .classTitle{font-weight:bolder;}#my-svg .node rect,#my-svg .node circle,#my-svg .node ellipse,#my-svg .node polygon,#my-svg .node path{fill:#ECECFF;stroke:#9370DB;stroke-width:1px;}#my-svg .divider{stroke:#9370DB;stroke-width:1;}#my-svg g.clickable{cursor:pointer;}#my-svg g.classGroup rect{fill:#ECECFF;stroke:#9370DB;}#my-svg g.classGroup line{stroke:#9370DB;stroke-width:1;}#my-svg .classLabel .box{stroke:none;stroke-width:0;fill:#ECECFF;opacity:0.5;}#my-svg .classLabel .label{fill:#9370DB;font-size:10px;}#my-svg .relation{stroke:#333333;stroke-width:1;fill:none;}#my-svg .dashed-line{stroke-dasharray:3;}#my-svg .dotted-line{stroke-dasharray:1 2;}#my-svg #compositionStart,#my-svg .composition{fill:#333333!important;stroke:#333333!important;stroke-width:1;}#my-svg #compositionEnd,#my-svg .composition{fill:#333333!important;stroke:#333333!important;stroke-width:1;}#my-svg #dependencyStart,#my-svg .dependency{fill:#333333!important;stroke:#333333!important;stroke-width:1;}#my-svg #dependencyStart,#my-svg .dependency{fill:#333333!important;stroke:#333333!important;stroke-width:1;}#my-svg #extensionStart,#my-svg .extension{fill:transparent!important;stroke:#333333!important;stroke-width:1;}#my-svg #extensionEnd,#my-svg .extension{fill:transparent!important;stroke:#333333!important;stroke-width:1;}#my-svg #aggregationStart,#my-svg .aggregation{fill:transparent!important;stroke:#333333!important;stroke-width:1;}#my-svg #aggregationEnd,#my-svg .aggregation{fill:transparent!important;stroke:#333333!important;stroke-width:1;}#my-svg #lollipopStart,#my-svg .lollipop{fill:#ECECFF!important;stroke:#333333!important;stroke-width:1;}#my-svg #lollipopEnd,#my-svg .lollipop{fill:#ECECFF!important;stroke:#333333!important;stroke-width:1;}#my-svg .edgeTerminals{font-size:11px;line-height:initial;}#my-svg .classTitleText{text-anchor:middle;font-size:18px;fill:#333;}#my-svg .label-icon{display:inline-block;height:1em;overflow:visible;vertical-align:-0.125em;}#my-svg .node .label-icon path{fill:currentColor;stroke:revert;stroke-width:revert;}#my-svg :root{--mermaid-font-family:"trebuchet ms",verdana,arial,sans-serif;}</style><g><defs><marker id="my-svg_class-aggregationStart" class="marker aggregation class" refX="18" refY="7" markerWidth="190" markerHeight="240" orient="auto"><path d="M 18,7 L9,13 L1,7 L9,1 Z"/></marker></defs><defs><marker id="my-svg_class-aggregationEnd" class="marker aggregation class" refX="1" refY="7" markerWidth="20" markerHeight="28" orient="auto"><path d="M 18,7 L9,13 L1,7 L9,1 Z"/></marker></defs><defs><marker id="my-svg_class-extensionStart" class="marker extension class" refX="18" refY="7" markerWidth="190" markerHeight="240" orient="auto"><path d="M 1,7 L18,13 V 1 Z"/></marker></defs><defs><marker id="my-svg_class-extensionEnd" class="marker extension class" refX="1" refY="7" markerWidth="20" markerHeight="28" orient="auto"><path d="M 1,1 V 13 L18,7 Z"/></marker></defs><defs><marker id="my-svg_class-compositionStart" class="marker composition class" refX="18" refY="7" markerWidth="190" markerHeight="240" orient="auto"><path d="M 18,7 L9,13 L1,7 L9,1 Z"/></marker></defs><defs><marker id="my-svg_class-compositionEnd" class="marker composition class" refX="1" refY="7" markerWidth="20" markerHeight="28" orient="auto"><path d="M 18,7 L9,13 L1,7 L9,1 Z"/></marker></defs><defs><marker id="my-svg_class-dependencyStart" class="marker dependency class" refX="6" refY="7" markerWidth="190" markerHeight="240" orient="auto"><path d="M 5,7 L9,13 L1,7 L9,1 Z"/></marker></defs><defs><marker id="my-svg_class-dependencyEnd" class="marker dependency class" refX="13" refY="7" markerWidth="20" markerHeight="28" orient="auto"><path d="M 18,7 L9,13 L14,7 L9,1 Z"/></marker></defs><defs><marker id="my-svg_class-lollipopStart" class="marker lollipop class" refX="13" refY="7" markerWidth="190" markerHeight="240" orient="auto"><circle stroke="black" fill="transparent" cx="7" cy="7" r="6"/></marker></defs><defs><marker id="my-svg_class-lollipopEnd" class="marker lollipop class" refX="1" refY="7" markerWidth="190" markerHeight="240" orient="auto"><circle stroke="black" fill="transparent" cx="7" cy="7" r="6"/></marker></defs><g class="root"><g class="clusters"/><g class="edgePaths"/><g class="edgeLabels"/><g class="nodes"><g class="root" transform="translate(-8, 0)"><g class="clusters"><g class="cluster undefined" data-look="classic"><rect style="fill:none !important;stroke:black !important" x="8" y="8" width="439.078125" height="1194"/><g class="cluster-label" transform="translate(201.2890625, 8)"><foreignObject width="52.5" height="24"><div xmlns="http://www.w3.org/1999/xhtml" style="display: table-cell; white-space: nowrap; line-height: 1.5; max-width: 200px; text-align: center;"><span class="nodeLabel"><p>domain</p></span></div></foreignObject></g></g></g><g class="edgePaths"/><g class="edgeLabels"/><g class="nodes"><g class="node default" id="classId-Alert-0" transform="translate(227.5390625, 151)"><g class="basic label-container"><path d="M-105.52734375 -108 L105.52734375 -108 L105.52734375 108 L-105.52734375 108" stroke="none" stroke-width="0" fill="#ECECFF" style=""/><path d="M-105.52734375 -108 C-47.94710343730543 -108, 9.633136875389141 -108, 105.52734375 -108 M-105.52734375 -108 C-53.04935771871327 -108, -0.5713716874265344 -108, 105.52734375 -108 M105.52734375 -108 C105.52734375 -28.88051333109071, 105.52734375 50.23897333781858, 105.52734375 108 M105.52734375 -108 C105.52734375 -44.582471941964066, 105.52734375 18.83505611607187, 105.52734375 108 M105.52734375 108 C25.367030026699993 108, -54.793283696600014 108, -105.52734375 108 M105.52734375 108 C54.79131978095763 108, 4.055295811915258 108, -105.52734375 108 M-105.52734375 108 C-105.52734375 63.91664137379916, -105.52734375 19.833282747598318, -105.52734375 -108 M-105.52734375 108 C-105.52734375 28.71300716700476, -105.52734375 -50.57398566599048, -105.52734375 -108" stroke="#9370DB" stroke-width="1.3" fill="none" stroke-dasharray="0 0" style=""/></g><g class="annotation-group text" transform="translate(0, -84)"/><g class="label-group text" transform="translate(-18.6171875, -84)"><g class="label" style="font-weight: bolder" transform="translate(0,-12)"><foreignObject width="37.234375" height="24"><div xmlns="http://www.w3.org/1999/xhtml" style="display: table-cell; white-space: nowrap; line-height: 1.5; max-width: 83px; text-align: center;"><span class="nodeLabel markdown-node-label" style=""><p>Alert</p></span></div></foreignObject></g></g><g class="members-group text" transform="translate(-93.52734375, -36)"><g class="label" style="" transform="translate(0,-12)"><foreignObject width="80.5" height="24"><div xmlns="http://www.w3.org/1999/xhtml" style="display: table-cell; white-space: nowrap; line-height: 1.5; max-width: 131px; text-align: center;"><span class="nodeLabel markdown-node-label" style=""><p>+id: AlertId</p></span></div></foreignObject></g><g class="label" style="" transform="translate(0,12)"><foreignObject width="168.4375" height="24"><div xmlns="http://www.w3.org/1999/xhtml" style="display: table-cell; white-space: nowrap; line-height: 1.5; max-width: 208px; text-align: center;"><span class="nodeLabel markdown-node-label" style=""><p>+severity: AlertSeverity</p></span></div></foreignObject></g><g class="label" style="" transform="translate(0,36)"><foreignObject width="140.453125" height="24"><div xmlns="http://www.w3.org/1999/xhtml" style="display: table-cell; white-space: nowrap; line-height: 1.5; max-width: 179px; text-align: center;"><span class="nodeLabel markdown-node-label" style=""><p>+status: AlertStatus</p></span></div></foreignObject></g><g class="label" style="" transform="translate(0,60)"><foreignObject width="119.59375" height="24"><div xmlns="http://www.w3.org/1999/xhtml" style="display: table-cell; white-space: nowrap; line-height: 1.5; max-width: 163px; text-align: center;"><span class="nodeLabel markdown-node-label" style=""><p>+message: string</p></span></div></foreignObject></g><g class="label" style="" transform="translate(0,84)"><foreignObject width="135.796875" height="24"><div xmlns="http://www.w3.org/1999/xhtml" style="display: table-cell; white-space: nowrap; line-height: 1.5; max-width: 175px; text-align: center;"><span class="nodeLabel markdown-node-label" style=""><p>+timestamp: string</p></span></div></foreignObject></g></g><g class="methods-group text" transform="translate(-93.52734375, 108)"/><g class="divider" style=""><path d="M-105.52734375 -60 C-21.874402333622655 -60, 61.77853908275469 -60, 105.52734375 -60 M-105.52734375 -60 C-27.84813424674276 -60, 49.83107525651448 -60, 105.52734375 -60" stroke="#9370DB" stroke-width="1.3" fill="none" stroke-dasharray="0 0" style=""/></g><g class="divider" style=""><path d="M-105.52734375 84 C-57.16264141176157 84, -8.797939073523139 84, 105.52734375 84 M-105.52734375 84 C-61.578624167171554 84, -17.62990458434311 84, 105.52734375 84" stroke="#9370DB" stroke-width="1.3" fill="none" stroke-dasharray="0 0" style=""/></g></g><g class="node default" id="classId-AlertQueryService-1" transform="translate(227.5390625, 396)"><g class="basic label-container"><path d="M-182.0390625 -87 L182.0390625 -87 L182.0390625 87 L-182.0390625 87" stroke="none" stroke-width="0" fill="#ECECFF" style=""/><path d="M-182.0390625 -87 C-99.28939465614971 -87, -16.53972681229942 -87, 182.0390625 -87 M-182.0390625 -87 C-74.33363150211711 -87, 33.37179949576577 -87, 182.0390625 -87 M182.0390625 -87 C182.0390625 -27.199489960067027, 182.0390625 32.60102007986595, 182.0390625 87 M182.0390625 -87 C182.0390625 -21.72098034587995, 182.0390625 43.5580393082401, 182.0390625 87 M182.0390625 87 C74.68049483286948 87, -32.67807283426103 87, -182.0390625 87 M182.0390625 87 C70.31770190701064 87, -41.40365868597871 87, -182.0390625 87 M-182.0390625 87 C-182.0390625 29.770295513058144, -182.0390625 -27.45940897388371, -182.0390625 -87 M-182.0390625 87 C-182.0390625 20.46798992809336, -182.0390625 -46.06402014381328, -182.0390625 -87" stroke="#9370DB" stroke-width="1.3" fill="none" stroke-dasharray="0 0" style=""/></g><g class="annotation-group text" transform="translate(-41.171875, -63)"><g class="label" style="" transform="translate(0,-12)"><foreignObject width="82.34375" height="24"><div xmlns="http://www.w3.org/1999/xhtml" style="display: table-cell; white-space: nowrap; line-height: 1.5; max-width: 122px; text-align: center;"><span class="nodeLabel markdown-node-label" style=""><p>«interface»</p></span></div></foreignObject></g></g><g class="label-group text" transform="translate(-68.953125, -39)"><g class="label" style="font-weight: bolder" transform="translate(0,-12)"><foreignObject width="137.90625" height="24"><div xmlns="http://www.w3.org/1999/xhtml" style="display: table-cell; white-space: nowrap; line-height: 1.5; max-width: 171px; text-align: center;"><span class="nodeLabel markdown-node-label" style=""><p>AlertQueryService</p></span></div></foreignObject></g></g><g class="members-group text" transform="translate(-170.0390625, 9)"/><g class="methods-group text" transform="translate(-170.0390625, 39)"><g class="label" style="" transform="translate(0,-12)"><foreignObject width="176.703125" height="24"><div xmlns="http://www.w3.org/1999/xhtml" style="display: table-cell; white-space: nowrap; line-height: 1.5; max-width: 215px; text-align: center;"><span class="nodeLabel markdown-node-label" style=""><p>+handleGetAlerts(query)</p></span></div></foreignObject></g><g class="label" style="" transform="translate(0,12)"><foreignObject width="271.125" height="24"><div xmlns="http://www.w3.org/1999/xhtml" style="display: table-cell; white-space: nowrap; line-height: 1.5; max-width: 307px; text-align: center;"><span class="nodeLabel markdown-node-label" style=""><p>+handleGetAlertDailySummary(query)</p></span></div></foreignObject></g></g><g class="divider" style=""><path d="M-182.0390625 -15 C-102.88208012789198 -15, -23.725097755783963 -15, 182.0390625 -15 M-182.0390625 -15 C-44.022168564855576 -15, 93.99472537028885 -15, 182.0390625 -15" stroke="#9370DB" stroke-width="1.3" fill="none" stroke-dasharray="0 0" style=""/></g><g class="divider" style=""><path d="M-182.0390625 9 C-44.423998518635045 9, 93.19106546272991 9, 182.0390625 9 M-182.0390625 9 C-70.1261348269267 9, 41.7867928461466 9, 182.0390625 9" stroke="#9370DB" stroke-width="1.3" fill="none" stroke-dasharray="0 0" style=""/></g></g><g class="node default" id="classId-AlertGateway-2" transform="translate(227.5390625, 620)"><g class="basic label-container"><path d="M-147.45703125 -87 L147.45703125 -87 L147.45703125 87 L-147.45703125 87" stroke="none" stroke-width="0" fill="#ECECFF" style=""/><path d="M-147.45703125 -87 C-32.43815373361481 -87, 82.58072378277038 -87, 147.45703125 -87 M-147.45703125 -87 C-39.1215126992376 -87, 69.2140058515248 -87, 147.45703125 -87 M147.45703125 -87 C147.45703125 -30.209793943049753, 147.45703125 26.580412113900493, 147.45703125 87 M147.45703125 -87 C147.45703125 -35.54335560692738, 147.45703125 15.913288786145245, 147.45703125 87 M147.45703125 87 C59.10089243975233 87, -29.255246370495342 87, -147.45703125 87 M147.45703125 87 C43.529471674289994 87, -60.39808790142001 87, -147.45703125 87 M-147.45703125 87 C-147.45703125 34.25215397854016, -147.45703125 -18.495692042919686, -147.45703125 -87 M-147.45703125 87 C-147.45703125 25.465436824591407, -147.45703125 -36.069126350817186, -147.45703125 -87" stroke="#9370DB" stroke-width="1.3" fill="none" stroke-dasharray="0 0" style=""/></g><g class="annotation-group text" transform="translate(-41.171875, -63)"><g class="label" style="" transform="translate(0,-12)"><foreignObject width="82.34375" height="24"><div xmlns="http://www.w3.org/1999/xhtml" style="display: table-cell; white-space: nowrap; line-height: 1.5; max-width: 122px; text-align: center;"><span class="nodeLabel markdown-node-label" style=""><p>«interface»</p></span></div></foreignObject></g></g><g class="label-group text" transform="translate(-50.8203125, -39)"><g class="label" style="font-weight: bolder" transform="translate(0,-12)"><foreignObject width="101.640625" height="24"><div xmlns="http://www.w3.org/1999/xhtml" style="display: table-cell; white-space: nowrap; line-height: 1.5; max-width: 140px; text-align: center;"><span class="nodeLabel markdown-node-label" style=""><p>AlertGateway</p></span></div></foreignObject></g></g><g class="members-group text" transform="translate(-135.45703125, 9)"/><g class="methods-group text" transform="translate(-135.45703125, 39)"><g class="label" style="" transform="translate(0,-12)"><foreignObject width="125.65625" height="24"><div xmlns="http://www.w3.org/1999/xhtml" style="display: table-cell; white-space: nowrap; line-height: 1.5; max-width: 169px; text-align: center;"><span class="nodeLabel markdown-node-label" style=""><p>+getAlerts(query)</p></span></div></foreignObject></g><g class="label" style="" transform="translate(0,12)"><foreignObject width="220.09375" height="24"><div xmlns="http://www.w3.org/1999/xhtml" style="display: table-cell; white-space: nowrap; line-height: 1.5; max-width: 261px; text-align: center;"><span class="nodeLabel markdown-node-label" style=""><p>+getAlertDailySummary(query)</p></span></div></foreignObject></g></g><g class="divider" style=""><path d="M-147.45703125 -15 C-88.09708220452332 -15, -28.737133159046635 -15, 147.45703125 -15 M-147.45703125 -15 C-79.09734281602807 -15, -10.73765438205615 -15, 147.45703125 -15" stroke="#9370DB" stroke-width="1.3" fill="none" stroke-dasharray="0 0" style=""/></g><g class="divider" style=""><path d="M-147.45703125 9 C-63.75371792824964 9, 19.949595393500715 9, 147.45703125 9 M-147.45703125 9 C-87.01520794319981 9, -26.573384636399624 9, 147.45703125 9" stroke="#9370DB" stroke-width="1.3" fill="none" stroke-dasharray="0 0" style=""/></g></g><g class="node default" id="classId-GetAlertsQuery-3" transform="translate(227.5390625, 829)"><g class="basic label-container"><path d="M-94.83984375 -72 L94.83984375 -72 L94.83984375 72 L-94.83984375 72" stroke="none" stroke-width="0" fill="#ECECFF" style=""/><path d="M-94.83984375 -72 C-24.664516454335455 -72, 45.51081084132909 -72, 94.83984375 -72 M-94.83984375 -72 C-39.65288349112406 -72, 15.534076767751884 -72, 94.83984375 -72 M94.83984375 -72 C94.83984375 -28.42141040250123, 94.83984375 15.15717919499754, 94.83984375 72 M94.83984375 -72 C94.83984375 -19.742074996956937, 94.83984375 32.515850006086126, 94.83984375 72 M94.83984375 72 C30.618059545219182 72, -33.603724659561635 72, -94.83984375 72 M94.83984375 72 C48.22164167927064 72, 1.6034396085412794 72, -94.83984375 72 M-94.83984375 72 C-94.83984375 30.223887597360346, -94.83984375 -11.552224805279309, -94.83984375 -72 M-94.83984375 72 C-94.83984375 42.7444694474036, -94.83984375 13.488938894807212, -94.83984375 -72" stroke="#9370DB" stroke-width="1.3" fill="none" stroke-dasharray="0 0" style=""/></g><g class="annotation-group text" transform="translate(0, -48)"/><g class="label-group text" transform="translate(-57.8828125, -48)"><g class="label" style="font-weight: bolder" transform="translate(0,-12)"><foreignObject width="115.765625" height="24"><div xmlns="http://www.w3.org/1999/xhtml" style="display: table-cell; white-space: nowrap; line-height: 1.5; max-width: 152px; text-align: center;"><span class="nodeLabel markdown-node-label" style=""><p>GetAlertsQuery</p></span></div></foreignObject></g></g><g class="members-group text" transform="translate(-82.83984375, 0)"><g class="label" style="" transform="translate(0,-12)"><foreignObject width="107.796875" height="24"><div xmlns="http://www.w3.org/1999/xhtml" style="display: table-cell; white-space: nowrap; line-height: 1.5; max-width: 152px; text-align: center;"><span class="nodeLabel markdown-node-label" style=""><p>+page: number</p></span></div></foreignObject></g><g class="label" style="" transform="translate(0,12)"><foreignObject width="101.078125" height="24"><div xmlns="http://www.w3.org/1999/xhtml" style="display: table-cell; white-space: nowrap; line-height: 1.5; max-width: 146px; text-align: center;"><span class="nodeLabel markdown-node-label" style=""><p>+size: number</p></span></div></foreignObject></g></g><g class="methods-group text" transform="translate(-82.83984375, 72)"/><g class="divider" style=""><path d="M-94.83984375 -24 C-47.09506664932285 -24, 0.6497104513542951 -24, 94.83984375 -24 M-94.83984375 -24 C-46.385965424848294 -24, 2.067912900303412 -24, 94.83984375 -24" stroke="#9370DB" stroke-width="1.3" fill="none" stroke-dasharray="0 0" style=""/></g><g class="divider" style=""><path d="M-94.83984375 48 C-28.744506412119506 48, 37.35083092576099 48, 94.83984375 48 M-94.83984375 48 C-23.378039811782912 48, 48.083764126434176 48, 94.83984375 48" stroke="#9370DB" stroke-width="1.3" fill="none" stroke-dasharray="0 0" style=""/></g></g><g class="node default" id="classId-AlertSeverity-4" transform="translate(227.5390625, 1059)"><g class="basic label-container"><path d="M-71.05859375 -108 L71.05859375 -108 L71.05859375 108 L-71.05859375 108" stroke="none" stroke-width="0" fill="#ECECFF" style=""/><path d="M-71.05859375 -108 C-38.22536515267613 -108, -5.392136555352266 -108, 71.05859375 -108 M-71.05859375 -108 C-21.43880846202284 -108, 28.180976825954318 -108, 71.05859375 -108 M71.05859375 -108 C71.05859375 -28.94835188249877, 71.05859375 50.10329623500246, 71.05859375 108 M71.05859375 -108 C71.05859375 -62.257612747644046, 71.05859375 -16.515225495288092, 71.05859375 108 M71.05859375 108 C41.95655737347319 108, 12.854520996946377 108, -71.05859375 108 M71.05859375 108 C39.662707861010155 108, 8.26682197202031 108, -71.05859375 108 M-71.05859375 108 C-71.05859375 23.739943388035513, -71.05859375 -60.52011322392897, -71.05859375 -108 M-71.05859375 108 C-71.05859375 63.65132052803404, -71.05859375 19.302641056068083, -71.05859375 -108" stroke="#9370DB" stroke-width="1.3" fill="none" stroke-dasharray="0 0" style=""/></g><g class="annotation-group text" transform="translate(-53.9296875, -84)"><g class="label" style="" transform="translate(0,-12)"><foreignObject width="107.859375" height="24"><div xmlns="http://www.w3.org/1999/xhtml" style="display: table-cell; white-space: nowrap; line-height: 1.5; max-width: 146px; text-align: center;"><span class="nodeLabel markdown-node-label" style=""><p>«enumeration»</p></span></div></foreignObject></g></g><g class="label-group text" transform="translate(-49.3671875, -60)"><g class="label" style="font-weight: bolder" transform="translate(0,-12)"><foreignObject width="98.734375" height="24"><div xmlns="http://www.w3.org/1999/xhtml" style="display: table-cell; white-space: nowrap; line-height: 1.5; max-width: 136px; text-align: center;"><span class="nodeLabel markdown-node-label" style=""><p>AlertSeverity</p></span></div></foreignObject></g></g><g class="members-group text" transform="translate(-59.05859375, -12)"><g class="label" style="" transform="translate(0,-12)"><foreignObject width="32.515625" height="24"><div xmlns="http://www.w3.org/1999/xhtml" style="display: table-cell; white-space: nowrap; line-height: 1.5; max-width: 86px; text-align: center;"><span class="nodeLabel markdown-node-label" style=""><p>LOW</p></span></div></foreignObject></g><g class="label" style="" transform="translate(0,12)"><foreignObject width="55.921875" height="24"><div xmlns="http://www.w3.org/1999/xhtml" style="display: table-cell; white-space: nowrap; line-height: 1.5; max-width: 117px; text-align: center;"><span class="nodeLabel markdown-node-label" style=""><p>MEDIUM</p></span></div></foreignObject></g><g class="label" style="" transform="translate(0,36)"><foreignObject width="36.21875" height="24"><div xmlns="http://www.w3.org/1999/xhtml" style="display: table-cell; white-space: nowrap; line-height: 1.5; max-width: 90px; text-align: center;"><span class="nodeLabel markdown-node-label" style=""><p>HIGH</p></span></div></foreignObject></g><g class="label" style="" transform="translate(0,60)"><foreignObject width="64.1875" height="24"><div xmlns="http://www.w3.org/1999/xhtml" style="display: table-cell; white-space: nowrap; line-height: 1.5; max-width: 124px; text-align: center;"><span class="nodeLabel markdown-node-label" style=""><p>CRITICAL</p></span></div></foreignObject></g></g><g class="methods-group text" transform="translate(-59.05859375, 108)"/><g class="divider" style=""><path d="M-71.05859375 -36 C-16.469528997947627 -36, 38.119535754104746 -36, 71.05859375 -36 M-71.05859375 -36 C-24.82507392059052 -36, 21.408445908818962 -36, 71.05859375 -36" stroke="#9370DB" stroke-width="1.3" fill="none" stroke-dasharray="0 0" style=""/></g><g class="divider" style=""><path d="M-71.05859375 84 C-23.641910404243383 84, 23.774772941513234 84, 71.05859375 84 M-71.05859375 84 C-24.917001860732938 84, 21.224590028534124 84, 71.05859375 84" stroke="#9370DB" stroke-width="1.3" fill="none" stroke-dasharray="0 0" style=""/></g></g></g></g></g></g></g><text text-anchor="middle" x="219.5390625" y="-25" class="classDiagramTitleText">Domain - Alerting</text></svg>