<svg id="my-svg" width="100%" xmlns="http://www.w3.org/2000/svg" xmlns:xlink="http://www.w3.org/1999/xlink" class="classDiagram" style="max-width: 577.402px; background-color: transparent;" viewBox="0 -48 577.40234375 506" role="graphics-document document" aria-roledescription="class"><style>#my-svg{font-family:"trebuchet ms",verdana,arial,sans-serif;font-size:16px;fill:#333;}@keyframes edge-animation-frame{from{stroke-dashoffset:0;}}@keyframes dash{to{stroke-dashoffset:0;}}#my-svg .edge-animation-slow{stroke-dasharray:9,5!important;stroke-dashoffset:900;animation:dash 50s linear infinite;stroke-linecap:round;}#my-svg .edge-animation-fast{stroke-dasharray:9,5!important;stroke-dashoffset:900;animation:dash 20s linear infinite;stroke-linecap:round;}#my-svg .error-icon{fill:#552222;}#my-svg .error-text{fill:#552222;stroke:#552222;}#my-svg .edge-thickness-normal{stroke-width:1px;}#my-svg .edge-thickness-thick{stroke-width:3.5px;}#my-svg .edge-pattern-solid{stroke-dasharray:0;}#my-svg .edge-thickness-invisible{stroke-width:0;fill:none;}#my-svg .edge-pattern-dashed{stroke-dasharray:3;}#my-svg .edge-pattern-dotted{stroke-dasharray:2;}#my-svg .marker{fill:#333333;stroke:#333333;}#my-svg .marker.cross{stroke:#333333;}#my-svg svg{font-family:"trebuchet ms",verdana,arial,sans-serif;font-size:16px;}#my-svg p{margin:0;}#my-svg g.classGroup text{fill:#9370DB;stroke:none;font-family:"trebuchet ms",verdana,arial,sans-serif;font-size:10px;}#my-svg g.classGroup text .title{font-weight:bolder;}#my-svg .nodeLabel,#my-svg .edgeLabel{color:#131300;}#my-svg .edgeLabel .label rect{fill:#ECECFF;}#my-svg .label text{fill:#131300;}#my-svg .labelBkg{background:#ECECFF;}#my-svg .edgeLabel .label span{background:#ECECFF;}#my-svg .classTitle{font-weight:bolder;}#my-svg .node rect,#my-svg .node circle,#my-svg .node ellipse,#my-svg .node polygon,#my-svg .node path{fill:#ECECFF;stroke:#9370DB;stroke-width:1px;}#my-svg .divider{stroke:#9370DB;stroke-width:1;}#my-svg g.clickable{cursor:pointer;}#my-svg g.classGroup rect{fill:#ECECFF;stroke:#9370DB;}#my-svg g.classGroup line{stroke:#9370DB;stroke-width:1;}#my-svg .classLabel .box{stroke:none;stroke-width:0;fill:#ECECFF;opacity:0.5;}#my-svg .classLabel .label{fill:#9370DB;font-size:10px;}#my-svg .relation{stroke:#333333;stroke-width:1;fill:none;}#my-svg .dashed-line{stroke-dasharray:3;}#my-svg .dotted-line{stroke-dasharray:1 2;}#my-svg #compositionStart,#my-svg .composition{fill:#333333!important;stroke:#333333!important;stroke-width:1;}#my-svg #compositionEnd,#my-svg .composition{fill:#333333!important;stroke:#333333!important;stroke-width:1;}#my-svg #dependencyStart,#my-svg .dependency{fill:#333333!important;stroke:#333333!important;stroke-width:1;}#my-svg #dependencyStart,#my-svg .dependency{fill:#333333!important;stroke:#333333!important;stroke-width:1;}#my-svg #extensionStart,#my-svg .extension{fill:transparent!important;stroke:#333333!important;stroke-width:1;}#my-svg #extensionEnd,#my-svg .extension{fill:transparent!important;stroke:#333333!important;stroke-width:1;}#my-svg #aggregationStart,#my-svg .aggregation{fill:transparent!important;stroke:#333333!important;stroke-width:1;}#my-svg #aggregationEnd,#my-svg .aggregation{fill:transparent!important;stroke:#333333!important;stroke-width:1;}#my-svg #lollipopStart,#my-svg .lollipop{fill:#ECECFF!important;stroke:#333333!important;stroke-width:1;}#my-svg #lollipopEnd,#my-svg .lollipop{fill:#ECECFF!important;stroke:#333333!important;stroke-width:1;}#my-svg .edgeTerminals{font-size:11px;line-height:initial;}#my-svg .classTitleText{text-anchor:middle;font-size:18px;fill:#333;}#my-svg .label-icon{display:inline-block;height:1em;overflow:visible;vertical-align:-0.125em;}#my-svg .node .label-icon path{fill:currentColor;stroke:revert;stroke-width:revert;}#my-svg :root{--mermaid-font-family:"trebuchet ms",verdana,arial,sans-serif;}</style><g><defs><marker id="my-svg_class-aggregationStart" class="marker aggregation class" refX="18" refY="7" markerWidth="190" markerHeight="240" orient="auto"><path d="M 18,7 L9,13 L1,7 L9,1 Z"/></marker></defs><defs><marker id="my-svg_class-aggregationEnd" class="marker aggregation class" refX="1" refY="7" markerWidth="20" markerHeight="28" orient="auto"><path d="M 18,7 L9,13 L1,7 L9,1 Z"/></marker></defs><defs><marker id="my-svg_class-extensionStart" class="marker extension class" refX="18" refY="7" markerWidth="190" markerHeight="240" orient="auto"><path d="M 1,7 L18,13 V 1 Z"/></marker></defs><defs><marker id="my-svg_class-extensionEnd" class="marker extension class" refX="1" refY="7" markerWidth="20" markerHeight="28" orient="auto"><path d="M 1,1 V 13 L18,7 Z"/></marker></defs><defs><marker id="my-svg_class-compositionStart" class="marker composition class" refX="18" refY="7" markerWidth="190" markerHeight="240" orient="auto"><path d="M 18,7 L9,13 L1,7 L9,1 Z"/></marker></defs><defs><marker id="my-svg_class-compositionEnd" class="marker composition class" refX="1" refY="7" markerWidth="20" markerHeight="28" orient="auto"><path d="M 18,7 L9,13 L1,7 L9,1 Z"/></marker></defs><defs><marker id="my-svg_class-dependencyStart" class="marker dependency class" refX="6" refY="7" markerWidth="190" markerHeight="240" orient="auto"><path d="M 5,7 L9,13 L1,7 L9,1 Z"/></marker></defs><defs><marker id="my-svg_class-dependencyEnd" class="marker dependency class" refX="13" refY="7" markerWidth="20" markerHeight="28" orient="auto"><path d="M 18,7 L9,13 L14,7 L9,1 Z"/></marker></defs><defs><marker id="my-svg_class-lollipopStart" class="marker lollipop class" refX="13" refY="7" markerWidth="190" markerHeight="240" orient="auto"><circle stroke="black" fill="transparent" cx="7" cy="7" r="6"/></marker></defs><defs><marker id="my-svg_class-lollipopEnd" class="marker lollipop class" refX="1" refY="7" markerWidth="190" markerHeight="240" orient="auto"><circle stroke="black" fill="transparent" cx="7" cy="7" r="6"/></marker></defs><g class="root"><g class="clusters"><g class="cluster undefined" id="infrastructure" data-look="classic"><rect style="fill:none !important;stroke:black !important" x="8" y="8" width="400.76171875" height="442"/><g class="cluster-label" transform="translate(158.591796875, 8)"><foreignObject width="99.578125" height="24"><div xmlns="http://www.w3.org/1999/xhtml" style="display: table-cell; white-space: nowrap; line-height: 1.5; max-width: 200px; text-align: center;"><span class="nodeLabel"><p>infrastructure</p></span></div></foreignObject></g></g></g><g class="edgePaths"><path d="M261.196,183L264.741,189.167C268.287,195.333,275.379,207.667,303.277,226.981C331.175,246.296,379.879,272.592,404.231,285.74L428.583,298.887" id="id_AlertHttpGateway_AlertGateway_1" class="edge-thickness-normal edge-pattern-dashed relation" style=";;;" data-edge="true" data-et="edge" data-id="id_AlertHttpGateway_AlertGateway_1" data-points="W3sieCI6MjYxLjE5NTU3NDA3OTI0MTA2LCJ5IjoxODN9LHsieCI6MjgyLjQ3MDcwMzEyNSwieSI6MjIwfSx7IngiOjQ0My43NjE3MTg3NSwieSI6MzA3LjA4MjY3MDI2ODg1NzA0fV0=" marker-end="url(#my-svg_class-extensionEnd)"/><path d="M191.141,183L188.927,189.167C186.712,195.333,182.284,207.667,180.07,219C177.855,230.333,177.855,240.667,177.855,245.833L177.855,251" id="id_AlertHttpGateway_AlertResponseResource_2" class="edge-thickness-normal edge-pattern-solid relation" style=";;;" data-edge="true" data-et="edge" data-id="id_AlertHttpGateway_AlertResponseResource_2" data-points="W3sieCI6MTkxLjE0MDcyOTYzMTY5NjQyLCJ5IjoxODN9LHsieCI6MTc3Ljg1NTQ2ODc1LCJ5IjoyMjB9LHsieCI6MTc3Ljg1NTQ2ODc1LCJ5IjoyNTd9XQ==" marker-end="url(#my-svg_class-dependencyEnd)"/></g><g class="edgeLabels"><g class="edgeLabel" transform="translate(344.33807, 253.40283)"><g class="label" data-id="id_AlertHttpGateway_AlertGateway_1" transform="translate(-41.890625, -12)"><foreignObject width="83.78125" height="24"><div xmlns="http://www.w3.org/1999/xhtml" class="labelBkg" style="display: table-cell; white-space: nowrap; line-height: 1.5; max-width: 200px; text-align: center;"><span class="edgeLabel"><p>implements</p></span></div></foreignObject></g></g><g class="edgeLabel" transform="translate(177.85546875, 220)"><g class="label" data-id="id_AlertHttpGateway_AlertResponseResource_2" transform="translate(-18.5390625, -12)"><foreignObject width="37.078125" height="24"><div xmlns="http://www.w3.org/1999/xhtml" class="labelBkg" style="display: table-cell; white-space: nowrap; line-height: 1.5; max-width: 200px; text-align: center;"><span class="edgeLabel"><p>maps</p></span></div></foreignObject></g></g></g><g class="nodes"><g class="node default" id="classId-AlertHttpGateway-0" transform="translate(218.0703125, 108)"><g class="basic label-container"><path d="M-155.69140625 -75 L155.69140625 -75 L155.69140625 75 L-155.69140625 75" stroke="none" stroke-width="0" fill="#ECECFF" style=""/><path d="M-155.69140625 -75 C-75.89369791739053 -75, 3.9040104152189485 -75, 155.69140625 -75 M-155.69140625 -75 C-55.571879692184496 -75, 44.54764686563101 -75, 155.69140625 -75 M155.69140625 -75 C155.69140625 -26.506399753245468, 155.69140625 21.987200493509064, 155.69140625 75 M155.69140625 -75 C155.69140625 -26.94856328519795, 155.69140625 21.102873429604102, 155.69140625 75 M155.69140625 75 C72.15280244588527 75, -11.385801358229457 75, -155.69140625 75 M155.69140625 75 C48.273363311088545 75, -59.14467962782291 75, -155.69140625 75 M-155.69140625 75 C-155.69140625 24.332749306030834, -155.69140625 -26.33450138793833, -155.69140625 -75 M-155.69140625 75 C-155.69140625 41.648463192491825, -155.69140625 8.29692638498365, -155.69140625 -75" stroke="#9370DB" stroke-width="1.3" fill="none" stroke-dasharray="0 0" style=""/></g><g class="annotation-group text" transform="translate(0, -51)"/><g class="label-group text" transform="translate(-67.2890625, -51)"><g class="label" style="font-weight: bolder" transform="translate(0,-12)"><foreignObject width="134.578125" height="24"><div xmlns="http://www.w3.org/1999/xhtml" style="display: table-cell; white-space: nowrap; line-height: 1.5; max-width: 168px; text-align: center;"><span class="nodeLabel markdown-node-label" style=""><p>AlertHttpGateway</p></span></div></foreignObject></g></g><g class="members-group text" transform="translate(-143.69140625, -3)"/><g class="methods-group text" transform="translate(-143.69140625, 27)"><g class="label" style="" transform="translate(0,-12)"><foreignObject width="125.65625" height="24"><div xmlns="http://www.w3.org/1999/xhtml" style="display: table-cell; white-space: nowrap; line-height: 1.5; max-width: 169px; text-align: center;"><span class="nodeLabel markdown-node-label" style=""><p>+getAlerts(query)</p></span></div></foreignObject></g><g class="label" style="" transform="translate(0,12)"><foreignObject width="220.09375" height="24"><div xmlns="http://www.w3.org/1999/xhtml" style="display: table-cell; white-space: nowrap; line-height: 1.5; max-width: 261px; text-align: center;"><span class="nodeLabel markdown-node-label" style=""><p>+getAlertDailySummary(query)</p></span></div></foreignObject></g></g><g class="divider" style=""><path d="M-155.69140625 -27 C-40.56962192569 -27, 74.55216239862 -27, 155.69140625 -27 M-155.69140625 -27 C-39.81942079695526 -27, 76.05256465608949 -27, 155.69140625 -27" stroke="#9370DB" stroke-width="1.3" fill="none" stroke-dasharray="0 0" style=""/></g><g class="divider" style=""><path d="M-155.69140625 -3 C-38.72190107071545 -3, 78.2476041085691 -3, 155.69140625 -3 M-155.69140625 -3 C-35.36613999486666 -3, 84.95912626026669 -3, 155.69140625 -3" stroke="#9370DB" stroke-width="1.3" fill="none" stroke-dasharray="0 0" style=""/></g></g><g class="node default" id="classId-AlertResponseResource-1" transform="translate(177.85546875, 341)"><g class="basic label-container"><path d="M-114.01953125 -84 L114.01953125 -84 L114.01953125 84 L-114.01953125 84" stroke="none" stroke-width="0" fill="#ECECFF" style=""/><path d="M-114.01953125 -84 C-68.19030806469766 -84, -22.361084879395335 -84, 114.01953125 -84 M-114.01953125 -84 C-25.633007725958066 -84, 62.75351579808387 -84, 114.01953125 -84 M114.01953125 -84 C114.01953125 -46.26753195754838, 114.01953125 -8.535063915096757, 114.01953125 84 M114.01953125 -84 C114.01953125 -34.9655222327523, 114.01953125 14.068955534495402, 114.01953125 84 M114.01953125 84 C34.887462013765315 84, -44.24460722246937 84, -114.01953125 84 M114.01953125 84 C61.50464224964826 84, 8.989753249296527 84, -114.01953125 84 M-114.01953125 84 C-114.01953125 19.770350718761847, -114.01953125 -44.459298562476306, -114.01953125 -84 M-114.01953125 84 C-114.01953125 42.21632964383079, -114.01953125 0.43265928766157913, -114.01953125 -84" stroke="#9370DB" stroke-width="1.3" fill="none" stroke-dasharray="0 0" style=""/></g><g class="annotation-group text" transform="translate(0, -60)"/><g class="label-group text" transform="translate(-87.7890625, -60)"><g class="label" style="font-weight: bolder" transform="translate(0,-12)"><foreignObject width="175.578125" height="24"><div xmlns="http://www.w3.org/1999/xhtml" style="display: table-cell; white-space: nowrap; line-height: 1.5; max-width: 204px; text-align: center;"><span class="nodeLabel markdown-node-label" style=""><p>AlertResponseResource</p></span></div></foreignObject></g></g><g class="members-group text" transform="translate(-102.01953125, -12)"><g class="label" style="" transform="translate(0,-12)"><foreignObject width="72.9375" height="24"><div xmlns="http://www.w3.org/1999/xhtml" style="display: table-cell; white-space: nowrap; line-height: 1.5; max-width: 121px; text-align: center;"><span class="nodeLabel markdown-node-label" style=""><p>+id: string</p></span></div></foreignObject></g><g class="label" style="" transform="translate(0,12)"><foreignObject width="116.25" height="24"><div xmlns="http://www.w3.org/1999/xhtml" style="display: table-cell; white-space: nowrap; line-height: 1.5; max-width: 159px; text-align: center;"><span class="nodeLabel markdown-node-label" style=""><p>+severity: string</p></span></div></foreignObject></g><g class="label" style="" transform="translate(0,36)"><foreignObject width="102.25" height="24"><div xmlns="http://www.w3.org/1999/xhtml" style="display: table-cell; white-space: nowrap; line-height: 1.5; max-width: 145px; text-align: center;"><span class="nodeLabel markdown-node-label" style=""><p>+status: string</p></span></div></foreignObject></g></g><g class="methods-group text" transform="translate(-102.01953125, 84)"/><g class="divider" style=""><path d="M-114.01953125 -36 C-49.34821995580478 -36, 15.32309133839044 -36, 114.01953125 -36 M-114.01953125 -36 C-63.4086135055179 -36, -12.797695761035797 -36, 114.01953125 -36" stroke="#9370DB" stroke-width="1.3" fill="none" stroke-dasharray="0 0" style=""/></g><g class="divider" style=""><path d="M-114.01953125 60 C-50.24863480054294 60, 13.522261648914125 60, 114.01953125 60 M-114.01953125 60 C-65.02349563742166 60, -16.02746002484332 60, 114.01953125 60" stroke="#9370DB" stroke-width="1.3" fill="none" stroke-dasharray="0 0" style=""/></g></g><g class="node default" id="classId-AlertGateway-2" transform="translate(506.58203125, 341)"><g class="basic label-container"><path d="M-62.8203125 -42 L62.8203125 -42 L62.8203125 42 L-62.8203125 42" stroke="none" stroke-width="0" fill="#ECECFF" style=""/><path d="M-62.8203125 -42 C-16.829569950091333 -42, 29.161172599817334 -42, 62.8203125 -42 M-62.8203125 -42 C-22.52821656227721 -42, 17.763879375445583 -42, 62.8203125 -42 M62.8203125 -42 C62.8203125 -10.617236401240678, 62.8203125 20.765527197518644, 62.8203125 42 M62.8203125 -42 C62.8203125 -9.3268281044068, 62.8203125 23.3463437911864, 62.8203125 42 M62.8203125 42 C26.186810050690283 42, -10.446692398619433 42, -62.8203125 42 M62.8203125 42 C28.746837380112474 42, -5.326637739775052 42, -62.8203125 42 M-62.8203125 42 C-62.8203125 22.40681948504451, -62.8203125 2.8136389700890234, -62.8203125 -42 M-62.8203125 42 C-62.8203125 13.50833345660142, -62.8203125 -14.98333308679716, -62.8203125 -42" stroke="#9370DB" stroke-width="1.3" fill="none" stroke-dasharray="0 0" style=""/></g><g class="annotation-group text" transform="translate(0, -18)"/><g class="label-group text" transform="translate(-50.8203125, -18)"><g class="label" style="font-weight: bolder" transform="translate(0,-12)"><foreignObject width="101.640625" height="24"><div xmlns="http://www.w3.org/1999/xhtml" style="display: table-cell; white-space: nowrap; line-height: 1.5; max-width: 140px; text-align: center;"><span class="nodeLabel markdown-node-label" style=""><p>AlertGateway</p></span></div></foreignObject></g></g><g class="members-group text" transform="translate(-50.8203125, 30)"/><g class="methods-group text" transform="translate(-50.8203125, 60)"/><g class="divider" style=""><path d="M-62.8203125 6 C-22.90471631754469 6, 17.01087986491062 6, 62.8203125 6 M-62.8203125 6 C-34.27803708082551 6, -5.735761661651033 6, 62.8203125 6" stroke="#9370DB" stroke-width="1.3" fill="none" stroke-dasharray="0 0" style=""/></g><g class="divider" style=""><path d="M-62.8203125 24 C-32.72922345453793 24, -2.6381344090758674 24, 62.8203125 24 M-62.8203125 24 C-26.69600192205713 24, 9.428308655885743 24, 62.8203125 24" stroke="#9370DB" stroke-width="1.3" fill="none" stroke-dasharray="0 0" style=""/></g></g></g></g></g><text text-anchor="middle" x="288.701171875" y="-25" class="classDiagramTitleText">Infrastructure - Alerting</text></svg>