<svg id="my-svg" width="100%" xmlns="http://www.w3.org/2000/svg" xmlns:xlink="http://www.w3.org/1999/xlink" class="classDiagram" style="max-width: 2060.19px; background-color: transparent;" viewBox="0 0 2060.1875 842" role="graphics-document document" aria-roledescription="class"><style>#my-svg{font-family:"trebuchet ms",verdana,arial,sans-serif;font-size:16px;fill:#333;}@keyframes edge-animation-frame{from{stroke-dashoffset:0;}}@keyframes dash{to{stroke-dashoffset:0;}}#my-svg .edge-animation-slow{stroke-dasharray:9,5!important;stroke-dashoffset:900;animation:dash 50s linear infinite;stroke-linecap:round;}#my-svg .edge-animation-fast{stroke-dasharray:9,5!important;stroke-dashoffset:900;animation:dash 20s linear infinite;stroke-linecap:round;}#my-svg .error-icon{fill:#552222;}#my-svg .error-text{fill:#552222;stroke:#552222;}#my-svg .edge-thickness-normal{stroke-width:1px;}#my-svg .edge-thickness-thick{stroke-width:3.5px;}#my-svg .edge-pattern-solid{stroke-dasharray:0;}#my-svg .edge-thickness-invisible{stroke-width:0;fill:none;}#my-svg .edge-pattern-dashed{stroke-dasharray:3;}#my-svg .edge-pattern-dotted{stroke-dasharray:2;}#my-svg .marker{fill:#333333;stroke:#333333;}#my-svg .marker.cross{stroke:#333333;}#my-svg svg{font-family:"trebuchet ms",verdana,arial,sans-serif;font-size:16px;}#my-svg p{margin:0;}#my-svg g.classGroup text{fill:#9370DB;stroke:none;font-family:"trebuchet ms",verdana,arial,sans-serif;font-size:10px;}#my-svg g.classGroup text .title{font-weight:bolder;}#my-svg .nodeLabel,#my-svg .edgeLabel{color:#131300;}#my-svg .edgeLabel .label rect{fill:#ECECFF;}#my-svg .label text{fill:#131300;}#my-svg .labelBkg{background:#ECECFF;}#my-svg .edgeLabel .label span{background:#ECECFF;}#my-svg .classTitle{font-weight:bolder;}#my-svg .node rect,#my-svg .node circle,#my-svg .node ellipse,#my-svg .node polygon,#my-svg .node path{fill:#ECECFF;stroke:#9370DB;stroke-width:1px;}#my-svg .divider{stroke:#9370DB;stroke-width:1;}#my-svg g.clickable{cursor:pointer;}#my-svg g.classGroup rect{fill:#ECECFF;stroke:#9370DB;}#my-svg g.classGroup line{stroke:#9370DB;stroke-width:1;}#my-svg .classLabel .box{stroke:none;stroke-width:0;fill:#ECECFF;opacity:0.5;}#my-svg .classLabel .label{fill:#9370DB;font-size:10px;}#my-svg .relation{stroke:#333333;stroke-width:1;fill:none;}#my-svg .dashed-line{stroke-dasharray:3;}#my-svg .dotted-line{stroke-dasharray:1 2;}#my-svg #compositionStart,#my-svg .composition{fill:#333333!important;stroke:#333333!important;stroke-width:1;}#my-svg #compositionEnd,#my-svg .composition{fill:#333333!important;stroke:#333333!important;stroke-width:1;}#my-svg #dependencyStart,#my-svg .dependency{fill:#333333!important;stroke:#333333!important;stroke-width:1;}#my-svg #dependencyStart,#my-svg .dependency{fill:#333333!important;stroke:#333333!important;stroke-width:1;}#my-svg #extensionStart,#my-svg .extension{fill:transparent!important;stroke:#333333!important;stroke-width:1;}#my-svg #extensionEnd,#my-svg .extension{fill:transparent!important;stroke:#333333!important;stroke-width:1;}#my-svg #aggregationStart,#my-svg .aggregation{fill:transparent!important;stroke:#333333!important;stroke-width:1;}#my-svg #aggregationEnd,#my-svg .aggregation{fill:transparent!important;stroke:#333333!important;stroke-width:1;}#my-svg #lollipopStart,#my-svg .lollipop{fill:#ECECFF!important;stroke:#333333!important;stroke-width:1;}#my-svg #lollipopEnd,#my-svg .lollipop{fill:#ECECFF!important;stroke:#333333!important;stroke-width:1;}#my-svg .edgeTerminals{font-size:11px;line-height:initial;}#my-svg .classTitleText{text-anchor:middle;font-size:18px;fill:#333;}#my-svg .label-icon{display:inline-block;height:1em;overflow:visible;vertical-align:-0.125em;}#my-svg .node .label-icon path{fill:currentColor;stroke:revert;stroke-width:revert;}#my-svg :root{--mermaid-font-family:"trebuchet ms",verdana,arial,sans-serif;}</style><g><defs><marker id="my-svg_class-aggregationStart" class="marker aggregation class" refX="18" refY="7" markerWidth="190" markerHeight="240" orient="auto"><path d="M 18,7 L9,13 L1,7 L9,1 Z"/></marker></defs><defs><marker id="my-svg_class-aggregationEnd" class="marker aggregation class" refX="1" refY="7" markerWidth="20" markerHeight="28" orient="auto"><path d="M 18,7 L9,13 L1,7 L9,1 Z"/></marker></defs><defs><marker id="my-svg_class-extensionStart" class="marker extension class" refX="18" refY="7" markerWidth="190" markerHeight="240" orient="auto"><path d="M 1,7 L18,13 V 1 Z"/></marker></defs><defs><marker id="my-svg_class-extensionEnd" class="marker extension class" refX="1" refY="7" markerWidth="20" markerHeight="28" orient="auto"><path d="M 1,1 V 13 L18,7 Z"/></marker></defs><defs><marker id="my-svg_class-compositionStart" class="marker composition class" refX="18" refY="7" markerWidth="190" markerHeight="240" orient="auto"><path d="M 18,7 L9,13 L1,7 L9,1 Z"/></marker></defs><defs><marker id="my-svg_class-compositionEnd" class="marker composition class" refX="1" refY="7" markerWidth="20" markerHeight="28" orient="auto"><path d="M 18,7 L9,13 L1,7 L9,1 Z"/></marker></defs><defs><marker id="my-svg_class-dependencyStart" class="marker dependency class" refX="6" refY="7" markerWidth="190" markerHeight="240" orient="auto"><path d="M 5,7 L9,13 L1,7 L9,1 Z"/></marker></defs><defs><marker id="my-svg_class-dependencyEnd" class="marker dependency class" refX="13" refY="7" markerWidth="20" markerHeight="28" orient="auto"><path d="M 18,7 L9,13 L14,7 L9,1 Z"/></marker></defs><defs><marker id="my-svg_class-lollipopStart" class="marker lollipop class" refX="13" refY="7" markerWidth="190" markerHeight="240" orient="auto"><circle stroke="black" fill="transparent" cx="7" cy="7" r="6"/></marker></defs><defs><marker id="my-svg_class-lollipopEnd" class="marker lollipop class" refX="1" refY="7" markerWidth="190" markerHeight="240" orient="auto"><circle stroke="black" fill="transparent" cx="7" cy="7" r="6"/></marker></defs><g class="root"><g class="clusters"/><g class="edgePaths"><path d="M834.738,212L834.738,224.167C834.738,236.333,834.738,260.667,834.738,278C834.738,295.333,834.738,305.667,834.738,310.833L834.738,316" id="id_AlertingTelemetryRecordedKafkaConsumer_AlertCommandServiceImpl_1" class="edge-thickness-normal edge-pattern-solid relation" style=";;;" data-edge="true" data-et="edge" data-id="id_AlertingTelemetryRecordedKafkaConsumer_AlertCommandServiceImpl_1" data-points="W3sieCI6ODM0LjczODI4MTI1LCJ5IjoyMTJ9LHsieCI6ODM0LjczODI4MTI1LCJ5IjoyODV9LHsieCI6ODM0LjczODI4MTI1LCJ5IjozMjJ9XQ==" marker-end="url(#my-svg_class-dependencyEnd)"/><path d="M563.826,538L548.357,544.167C532.889,550.333,501.951,562.667,486.482,574C471.014,585.333,471.014,595.667,471.014,600.833L471.014,606" id="id_AlertCommandServiceImpl_ExternalAlertingDeviceService_2" class="edge-thickness-normal edge-pattern-solid relation" style=";;;" data-edge="true" data-et="edge" data-id="id_AlertCommandServiceImpl_ExternalAlertingDeviceService_2" data-points="W3sieCI6NTYzLjgyNjE1ODQwNTE3MjUsInkiOjUzOH0seyJ4Ijo0NzEuMDEzNjcxODc1LCJ5Ijo1NzV9LHsieCI6NDcxLjAxMzY3MTg3NSwieSI6NjEyfV0=" marker-end="url(#my-svg_class-dependencyEnd)"/><path d="M1105.65,538L1121.119,544.167C1136.588,550.333,1167.525,562.667,1182.994,580C1198.463,597.333,1198.463,619.667,1198.463,630.833L1198.463,642" id="id_AlertCommandServiceImpl_ExternalAlertingThresholdService_3" class="edge-thickness-normal edge-pattern-solid relation" style=";;;" data-edge="true" data-et="edge" data-id="id_AlertCommandServiceImpl_ExternalAlertingThresholdService_3" data-points="W3sieCI6MTEwNS42NTA0MDQwOTQ4Mjc1LCJ5Ijo1Mzh9LHsieCI6MTE5OC40NjI4OTA2MjUsInkiOjU3NX0seyJ4IjoxMTk4LjQ2Mjg5MDYyNSwieSI6NjQ4fV0=" marker-end="url(#my-svg_class-dependencyEnd)"/><path d="M1397,200L1397,214.167C1397,228.333,1397,256.667,1397,285.125C1397,313.583,1397,342.167,1397,356.458L1397,370.75" id="id_AlertingContextFacadeImpl_AlertingContextFacade_4" class="edge-thickness-normal edge-pattern-dashed relation" style=";;;" data-edge="true" data-et="edge" data-id="id_AlertingContextFacadeImpl_AlertingContextFacade_4" data-points="W3sieCI6MTM5NywieSI6MjAwfSx7IngiOjEzOTcsInkiOjI4NX0seyJ4IjoxMzk3LCJ5IjozODh9XQ==" marker-end="url(#my-svg_class-extensionEnd)"/></g><g class="edgeLabels"><g class="edgeLabel" transform="translate(834.73828125, 285)"><g class="label" data-id="id_AlertingTelemetryRecordedKafkaConsumer_AlertCommandServiceImpl_1" transform="translate(-15.2109375, -12)"><foreignObject width="30.421875" height="24"><div xmlns="http://www.w3.org/1999/xhtml" class="labelBkg" style="display: table-cell; white-space: nowrap; line-height: 1.5; max-width: 200px; text-align: center;"><span class="edgeLabel"><p>uses</p></span></div></foreignObject></g></g><g class="edgeLabel" transform="translate(471.013671875, 575)"><g class="label" data-id="id_AlertCommandServiceImpl_ExternalAlertingDeviceService_2" transform="translate(-15.2109375, -12)"><foreignObject width="30.421875" height="24"><div xmlns="http://www.w3.org/1999/xhtml" class="labelBkg" style="display: table-cell; white-space: nowrap; line-height: 1.5; max-width: 200px; text-align: center;"><span class="edgeLabel"><p>uses</p></span></div></foreignObject></g></g><g class="edgeLabel" transform="translate(1198.462890625, 575)"><g class="label" data-id="id_AlertCommandServiceImpl_ExternalAlertingThresholdService_3" transform="translate(-15.2109375, -12)"><foreignObject width="30.421875" height="24"><div xmlns="http://www.w3.org/1999/xhtml" class="labelBkg" style="display: table-cell; white-space: nowrap; line-height: 1.5; max-width: 200px; text-align: center;"><span class="edgeLabel"><p>uses</p></span></div></foreignObject></g></g><g class="edgeLabel" transform="translate(1397, 285)"><g class="label" data-id="id_AlertingContextFacadeImpl_AlertingContextFacade_4" transform="translate(-41.890625, -12)"><foreignObject width="83.78125" height="24"><div xmlns="http://www.w3.org/1999/xhtml" class="labelBkg" style="display: table-cell; white-space: nowrap; line-height: 1.5; max-width: 200px; text-align: center;"><span class="edgeLabel"><p>implements</p></span></div></foreignObject></g></g></g><g class="nodes"><g class="node default" id="classId-AlertCommandServiceImpl-0" transform="translate(834.73828125, 430)"><g class="basic label-container"><path d="M-333.921875 -108 L333.921875 -108 L333.921875 108 L-333.921875 108" stroke="none" stroke-width="0" fill="#ECECFF" style=""/><path d="M-333.921875 -108 C-123.21207321781182 -108, 87.49772856437636 -108, 333.921875 -108 M-333.921875 -108 C-132.53343898610476 -108, 68.85499702779049 -108, 333.921875 -108 M333.921875 -108 C333.921875 -47.223231968393065, 333.921875 13.553536063213869, 333.921875 108 M333.921875 -108 C333.921875 -62.925491725221406, 333.921875 -17.85098345044281, 333.921875 108 M333.921875 108 C121.97022348708853 108, -89.98142802582294 108, -333.921875 108 M333.921875 108 C189.38158053105596 108, 44.84128606211192 108, -333.921875 108 M-333.921875 108 C-333.921875 35.30309131004729, -333.921875 -37.393817379905414, -333.921875 -108 M-333.921875 108 C-333.921875 50.58526229938198, -333.921875 -6.829475401236039, -333.921875 -108" stroke="#9370DB" stroke-width="1.3" fill="none" stroke-dasharray="0 0" style=""/></g><g class="annotation-group text" transform="translate(0, -84)"/><g class="label-group text" transform="translate(-99.1875, -84)"><g class="label" style="font-weight: bolder" transform="translate(0,-12)"><foreignObject width="198.375" height="24"><div xmlns="http://www.w3.org/1999/xhtml" style="display: table-cell; white-space: nowrap; line-height: 1.5; max-width: 228px; text-align: center;"><span class="nodeLabel markdown-node-label" style=""><p>AlertCommandServiceImpl</p></span></div></foreignObject></g></g><g class="members-group text" transform="translate(-321.921875, -36)"><g class="label" style="" transform="translate(0,-12)"><foreignObject width="230.5" height="24"><div xmlns="http://www.w3.org/1999/xhtml" style="display: table-cell; white-space: nowrap; line-height: 1.5; max-width: 266px; text-align: center;"><span class="nodeLabel markdown-node-label" style=""><p>-AlertRepository alertRepository</p></span></div></foreignObject></g><g class="label" style="" transform="translate(0,12)"><foreignObject width="431.328125" height="24"><div xmlns="http://www.w3.org/1999/xhtml" style="display: table-cell; white-space: nowrap; line-height: 1.5; max-width: 449px; text-align: center;"><span class="nodeLabel markdown-node-label" style=""><p>-ExternalAlertingThresholdService externalThresholdService</p></span></div></foreignObject></g><g class="label" style="" transform="translate(0,36)"><foreignObject width="385.671875" height="24"><div xmlns="http://www.w3.org/1999/xhtml" style="display: table-cell; white-space: nowrap; line-height: 1.5; max-width: 409px; text-align: center;"><span class="nodeLabel markdown-node-label" style=""><p>-ExternalAlertingDeviceService externalDeviceService</p></span></div></foreignObject></g><g class="label" style="" transform="translate(0,60)"><foreignObject width="544.65625" height="24"><div xmlns="http://www.w3.org/1999/xhtml" style="display: table-cell; white-space: nowrap; line-height: 1.5; max-width: 556px; text-align: center;"><span class="nodeLabel markdown-node-label" style=""><p>-AlertIncidentsChangedKafkaPublisher alertIncidentsChangedKafkaPublisher</p></span></div></foreignObject></g></g><g class="methods-group text" transform="translate(-321.921875, 84)"><g class="label" style="" transform="translate(0,-12)"><foreignObject width="383.390625" height="24"><div xmlns="http://www.w3.org/1999/xhtml" style="display: table-cell; white-space: nowrap; line-height: 1.5; max-width: 407px; text-align: center;"><span class="nodeLabel markdown-node-label" style=""><p>+handle(EvaluateTelemetryForAlertsCommand) : void</p></span></div></foreignObject></g></g><g class="divider" style=""><path d="M-333.921875 -60 C-129.9557278735479 -60, 74.01041925290423 -60, 333.921875 -60 M-333.921875 -60 C-142.43129284580854 -60, 49.059289308382915 -60, 333.921875 -60" stroke="#9370DB" stroke-width="1.3" fill="none" stroke-dasharray="0 0" style=""/></g><g class="divider" style=""><path d="M-333.921875 60 C-114.13789745513739 60, 105.64608008972522 60, 333.921875 60 M-333.921875 60 C-80.55972357480925 60, 172.8024278503815 60, 333.921875 60" stroke="#9370DB" stroke-width="1.3" fill="none" stroke-dasharray="0 0" style=""/></g></g><g class="node default" id="classId-AlertQueryServiceImpl-1" transform="translate(268.79296875, 128)"><g class="basic label-container"><path d="M-260.79296875 -108 L260.79296875 -108 L260.79296875 108 L-260.79296875 108" stroke="none" stroke-width="0" fill="#ECECFF" style=""/><path d="M-260.79296875 -108 C-80.97377338272727 -108, 98.84542198454545 -108, 260.79296875 -108 M-260.79296875 -108 C-79.59442320861919 -108, 101.60412233276162 -108, 260.79296875 -108 M260.79296875 -108 C260.79296875 -63.33062702694403, 260.79296875 -18.661254053888058, 260.79296875 108 M260.79296875 -108 C260.79296875 -34.66839820061357, 260.79296875 38.66320359877287, 260.79296875 108 M260.79296875 108 C156.0608933813839 108, 51.32881801276781 108, -260.79296875 108 M260.79296875 108 C140.78406928234233 108, 20.77516981468463 108, -260.79296875 108 M-260.79296875 108 C-260.79296875 33.94563322909029, -260.79296875 -40.10873354181942, -260.79296875 -108 M-260.79296875 108 C-260.79296875 57.50006052594496, -260.79296875 7.00012105188992, -260.79296875 -108" stroke="#9370DB" stroke-width="1.3" fill="none" stroke-dasharray="0 0" style=""/></g><g class="annotation-group text" transform="translate(0, -84)"/><g class="label-group text" transform="translate(-85.0703125, -84)"><g class="label" style="font-weight: bolder" transform="translate(0,-12)"><foreignObject width="170.140625" height="24"><div xmlns="http://www.w3.org/1999/xhtml" style="display: table-cell; white-space: nowrap; line-height: 1.5; max-width: 202px; text-align: center;"><span class="nodeLabel markdown-node-label" style=""><p>AlertQueryServiceImpl</p></span></div></foreignObject></g></g><g class="members-group text" transform="translate(-248.79296875, -36)"><g class="label" style="" transform="translate(0,-12)"><foreignObject width="230.5" height="24"><div xmlns="http://www.w3.org/1999/xhtml" style="display: table-cell; white-space: nowrap; line-height: 1.5; max-width: 266px; text-align: center;"><span class="nodeLabel markdown-node-label" style=""><p>-AlertRepository alertRepository</p></span></div></foreignObject></g><g class="label" style="" transform="translate(0,12)"><foreignObject width="385.671875" height="24"><div xmlns="http://www.w3.org/1999/xhtml" style="display: table-cell; white-space: nowrap; line-height: 1.5; max-width: 409px; text-align: center;"><span class="nodeLabel markdown-node-label" style=""><p>-ExternalAlertingDeviceService externalDeviceService</p></span></div></foreignObject></g></g><g class="methods-group text" transform="translate(-248.79296875, 36)"><g class="label" style="" transform="translate(0,-12)"><foreignObject width="344.203125" height="24"><div xmlns="http://www.w3.org/1999/xhtml" style="display: table-cell; white-space: nowrap; line-height: 1.5; max-width: 414px; text-align: center;"><span class="nodeLabel markdown-node-label" style=""><p>+handle(GetAlertsByDeviceQuery) : Page&lt;Alert&gt;</p></span></div></foreignObject></g><g class="label" style="" transform="translate(0,12)"><foreignObject width="338.28125" height="24"><div xmlns="http://www.w3.org/1999/xhtml" style="display: table-cell; white-space: nowrap; line-height: 1.5; max-width: 407px; text-align: center;"><span class="nodeLabel markdown-node-label" style=""><p>+handle(GetAlertsBySpaceQuery) : Page&lt;Alert&gt;</p></span></div></foreignObject></g><g class="label" style="" transform="translate(0,36)"><foreignObject width="412.515625" height="24"><div xmlns="http://www.w3.org/1999/xhtml" style="display: table-cell; white-space: nowrap; line-height: 1.5; max-width: 481px; text-align: center;"><span class="nodeLabel markdown-node-label" style=""><p>+handle(GetAlertsByOwnerQuery) : List&lt;DailyAlertCount&gt;</p></span></div></foreignObject></g></g><g class="divider" style=""><path d="M-260.79296875 -60 C-56.924476473639714 -60, 146.94401580272057 -60, 260.79296875 -60 M-260.79296875 -60 C-142.92115884345674 -60, -25.049348936913447 -60, 260.79296875 -60" stroke="#9370DB" stroke-width="1.3" fill="none" stroke-dasharray="0 0" style=""/></g><g class="divider" style=""><path d="M-260.79296875 12 C-73.60367889675263 12, 113.58561095649475 12, 260.79296875 12 M-260.79296875 12 C-102.62788059377311 12, 55.53720756245377 12, 260.79296875 12" stroke="#9370DB" stroke-width="1.3" fill="none" stroke-dasharray="0 0" style=""/></g></g><g class="node default" id="classId-AlertingContextFacadeImpl-2" transform="translate(1397, 128)"><g class="basic label-container"><path d="M-257.109375 -72 L257.109375 -72 L257.109375 72 L-257.109375 72" stroke="none" stroke-width="0" fill="#ECECFF" style=""/><path d="M-257.109375 -72 C-66.54358383681205 -72, 124.0222073263759 -72, 257.109375 -72 M-257.109375 -72 C-132.19938386671367 -72, -7.2893927334273485 -72, 257.109375 -72 M257.109375 -72 C257.109375 -31.703516304404147, 257.109375 8.592967391191706, 257.109375 72 M257.109375 -72 C257.109375 -32.63428763965429, 257.109375 6.731424720691422, 257.109375 72 M257.109375 72 C118.23975122878201 72, -20.629872542435976 72, -257.109375 72 M257.109375 72 C113.4159217001139 72, -30.277531599772203 72, -257.109375 72 M-257.109375 72 C-257.109375 22.823392213463727, -257.109375 -26.353215573072546, -257.109375 -72 M-257.109375 72 C-257.109375 15.667551589404056, -257.109375 -40.66489682119189, -257.109375 -72" stroke="#9370DB" stroke-width="1.3" fill="none" stroke-dasharray="0 0" style=""/></g><g class="annotation-group text" transform="translate(0, -48)"/><g class="label-group text" transform="translate(-101.515625, -48)"><g class="label" style="font-weight: bolder" transform="translate(0,-12)"><foreignObject width="203.03125" height="24"><div xmlns="http://www.w3.org/1999/xhtml" style="display: table-cell; white-space: nowrap; line-height: 1.5; max-width: 230px; text-align: center;"><span class="nodeLabel markdown-node-label" style=""><p>AlertingContextFacadeImpl</p></span></div></foreignObject></g></g><g class="members-group text" transform="translate(-245.109375, 0)"><g class="label" style="" transform="translate(0,-12)"><foreignObject width="230.5" height="24"><div xmlns="http://www.w3.org/1999/xhtml" style="display: table-cell; white-space: nowrap; line-height: 1.5; max-width: 266px; text-align: center;"><span class="nodeLabel markdown-node-label" style=""><p>-AlertRepository alertRepository</p></span></div></foreignObject></g></g><g class="methods-group text" transform="translate(-245.109375, 48)"><g class="label" style="" transform="translate(0,-12)"><foreignObject width="388.703125" height="24"><div xmlns="http://www.w3.org/1999/xhtml" style="display: table-cell; white-space: nowrap; line-height: 1.5; max-width: 454px; text-align: center;"><span class="nodeLabel markdown-node-label" style=""><p>+findAlertDetailsById(alertId) : Optional&lt;AlertDetails&gt;</p></span></div></foreignObject></g></g><g class="divider" style=""><path d="M-257.109375 -24 C-84.84782492605456 -24, 87.41372514789089 -24, 257.109375 -24 M-257.109375 -24 C-135.84327931925625 -24, -14.577183638512508 -24, 257.109375 -24" stroke="#9370DB" stroke-width="1.3" fill="none" stroke-dasharray="0 0" style=""/></g><g class="divider" style=""><path d="M-257.109375 24 C-152.56676165705244 24, -48.02414831410485 24, 257.109375 24 M-257.109375 24 C-146.7701152238014 24, -36.43085544760282 24, 257.109375 24" stroke="#9370DB" stroke-width="1.3" fill="none" stroke-dasharray="0 0" style=""/></g></g><g class="node default" id="classId-AlertingTelemetryRecordedKafkaConsumer-3" transform="translate(834.73828125, 128)"><g class="basic label-container"><path d="M-255.15234375 -84 L255.15234375 -84 L255.15234375 84 L-255.15234375 84" stroke="none" stroke-width="0" fill="#ECECFF" style=""/><path d="M-255.15234375 -84 C-135.41179336836313 -84, -15.67124298672627 -84, 255.15234375 -84 M-255.15234375 -84 C-141.2669100868344 -84, -27.381476423668772 -84, 255.15234375 -84 M255.15234375 -84 C255.15234375 -35.75536924874253, 255.15234375 12.489261502514935, 255.15234375 84 M255.15234375 -84 C255.15234375 -22.410877976615495, 255.15234375 39.17824404676901, 255.15234375 84 M255.15234375 84 C110.41903299879951 84, -34.31427775240098 84, -255.15234375 84 M255.15234375 84 C78.5698890069325 84, -98.012565736135 84, -255.15234375 84 M-255.15234375 84 C-255.15234375 18.48951082155247, -255.15234375 -47.02097835689506, -255.15234375 -84 M-255.15234375 84 C-255.15234375 41.248805621802475, -255.15234375 -1.5023887563950495, -255.15234375 -84" stroke="#9370DB" stroke-width="1.3" fill="none" stroke-dasharray="0 0" style=""/></g><g class="annotation-group text" transform="translate(0, -60)"/><g class="label-group text" transform="translate(-160.8046875, -60)"><g class="label" style="font-weight: bolder" transform="translate(0,-12)"><foreignObject width="321.609375" height="24"><div xmlns="http://www.w3.org/1999/xhtml" style="display: table-cell; white-space: nowrap; line-height: 1.5; max-width: 335px; text-align: center;"><span class="nodeLabel markdown-node-label" style=""><p>AlertingTelemetryRecordedKafkaConsumer</p></span></div></foreignObject></g></g><g class="members-group text" transform="translate(-243.15234375, -12)"><g class="label" style="" transform="translate(0,-12)"><foreignObject width="325.5" height="24"><div xmlns="http://www.w3.org/1999/xhtml" style="display: table-cell; white-space: nowrap; line-height: 1.5; max-width: 354px; text-align: center;"><span class="nodeLabel markdown-node-label" style=""><p>-AlertCommandService alertCommandService</p></span></div></foreignObject></g><g class="label" style="" transform="translate(0,12)"><foreignObject width="210.671875" height="24"><div xmlns="http://www.w3.org/1999/xhtml" style="display: table-cell; white-space: nowrap; line-height: 1.5; max-width: 246px; text-align: center;"><span class="nodeLabel markdown-node-label" style=""><p>-ObjectMapper objectMapper</p></span></div></foreignObject></g></g><g class="methods-group text" transform="translate(-243.15234375, 60)"><g class="label" style="" transform="translate(0,-12)"><foreignObject width="174.625" height="24"><div xmlns="http://www.w3.org/1999/xhtml" style="display: table-cell; white-space: nowrap; line-height: 1.5; max-width: 214px; text-align: center;"><span class="nodeLabel markdown-node-label" style=""><p>+consume(record) : void</p></span></div></foreignObject></g></g><g class="divider" style=""><path d="M-255.15234375 -36 C-150.02871136642767 -36, -44.90507898285534 -36, 255.15234375 -36 M-255.15234375 -36 C-60.98027247053156 -36, 133.19179880893688 -36, 255.15234375 -36" stroke="#9370DB" stroke-width="1.3" fill="none" stroke-dasharray="0 0" style=""/></g><g class="divider" style=""><path d="M-255.15234375 36 C-63.27568582207016 36, 128.60097210585968 36, 255.15234375 36 M-255.15234375 36 C-74.40269557585654 36, 106.34695259828692 36, 255.15234375 36" stroke="#9370DB" stroke-width="1.3" fill="none" stroke-dasharray="0 0" style=""/></g></g><g class="node default" id="classId-ExternalAlertingDeviceService-4" transform="translate(471.013671875, 723)"><g class="basic label-container"><path d="M-278.54296875 -111 L278.54296875 -111 L278.54296875 111 L-278.54296875 111" stroke="none" stroke-width="0" fill="#ECECFF" style=""/><path d="M-278.54296875 -111 C-159.09198360539204 -111, -39.64099846078409 -111, 278.54296875 -111 M-278.54296875 -111 C-101.52692600048837 -111, 75.48911674902325 -111, 278.54296875 -111 M278.54296875 -111 C278.54296875 -29.164072906964478, 278.54296875 52.671854186071045, 278.54296875 111 M278.54296875 -111 C278.54296875 -51.66977210918497, 278.54296875 7.660455781630063, 278.54296875 111 M278.54296875 111 C114.31125418920149 111, -49.92046037159702 111, -278.54296875 111 M278.54296875 111 C112.57133941457295 111, -53.40028992085411 111, -278.54296875 111 M-278.54296875 111 C-278.54296875 57.940478249236925, -278.54296875 4.88095649847385, -278.54296875 -111 M-278.54296875 111 C-278.54296875 39.61828036744318, -278.54296875 -31.763439265113647, -278.54296875 -111" stroke="#9370DB" stroke-width="1.3" fill="none" stroke-dasharray="0 0" style=""/></g><g class="annotation-group text" transform="translate(-41.171875, -87)"><g class="label" style="" transform="translate(0,-12)"><foreignObject width="82.34375" height="24"><div xmlns="http://www.w3.org/1999/xhtml" style="display: table-cell; white-space: nowrap; line-height: 1.5; max-width: 122px; text-align: center;"><span class="nodeLabel markdown-node-label" style=""><p>«interface»</p></span></div></foreignObject></g></g><g class="label-group text" transform="translate(-114.1796875, -63)"><g class="label" style="font-weight: bolder" transform="translate(0,-12)"><foreignObject width="228.359375" height="24"><div xmlns="http://www.w3.org/1999/xhtml" style="display: table-cell; white-space: nowrap; line-height: 1.5; max-width: 251px; text-align: center;"><span class="nodeLabel markdown-node-label" style=""><p>ExternalAlertingDeviceService</p></span></div></foreignObject></g></g><g class="members-group text" transform="translate(-266.54296875, -15)"/><g class="methods-group text" transform="translate(-266.54296875, 15)"><g class="label" style="" transform="translate(0,-12)"><foreignObject width="379.140625" height="24"><div xmlns="http://www.w3.org/1999/xhtml" style="display: table-cell; white-space: nowrap; line-height: 1.5; max-width: 454px; text-align: center;"><span class="nodeLabel markdown-node-label" style=""><p>+fetchSpaceIdByDeviceId(deviceId) : Optional&lt;UUID&gt;</p></span></div></foreignObject></g><g class="label" style="" transform="translate(0,12)"><foreignObject width="400.8125" height="24"><div xmlns="http://www.w3.org/1999/xhtml" style="display: table-cell; white-space: nowrap; line-height: 1.5; max-width: 464px; text-align: center;"><span class="nodeLabel markdown-node-label" style=""><p>+fetchSpaceNameBySpaceId(spaceId) : Optional&lt;String&gt;</p></span></div></foreignObject></g><g class="label" style="" transform="translate(0,36)"><foreignObject width="418.90625" height="24"><div xmlns="http://www.w3.org/1999/xhtml" style="display: table-cell; white-space: nowrap; line-height: 1.5; max-width: 485px; text-align: center;"><span class="nodeLabel markdown-node-label" style=""><p>+fetchDeviceNameByDeviceId(deviceId) : Optional&lt;String&gt;</p></span></div></foreignObject></g><g class="label" style="" transform="translate(0,60)"><foreignObject width="413.328125" height="24"><div xmlns="http://www.w3.org/1999/xhtml" style="display: table-cell; white-space: nowrap; line-height: 1.5; max-width: 478px; text-align: center;"><span class="nodeLabel markdown-node-label" style=""><p>+fetchHardwareIdByDeviceId(deviceId) : Optional&lt;String&gt;</p></span></div></foreignObject></g></g><g class="divider" style=""><path d="M-278.54296875 -39 C-70.43816589204823 -39, 137.66663696590354 -39, 278.54296875 -39 M-278.54296875 -39 C-68.71960092709637 -39, 141.10376689580727 -39, 278.54296875 -39" stroke="#9370DB" stroke-width="1.3" fill="none" stroke-dasharray="0 0" style=""/></g><g class="divider" style=""><path d="M-278.54296875 -15 C-98.97531737329791 -15, 80.59233400340418 -15, 278.54296875 -15 M-278.54296875 -15 C-66.0509873756809 -15, 146.4409939986382 -15, 278.54296875 -15" stroke="#9370DB" stroke-width="1.3" fill="none" stroke-dasharray="0 0" style=""/></g></g><g class="node default" id="classId-ExternalAlertingThresholdService-5" transform="translate(1198.462890625, 723)"><g class="basic label-container"><path d="M-398.90625 -75 L398.90625 -75 L398.90625 75 L-398.90625 75" stroke="none" stroke-width="0" fill="#ECECFF" style=""/><path d="M-398.90625 -75 C-96.12596190325729 -75, 206.65432619348542 -75, 398.90625 -75 M-398.90625 -75 C-183.90929380160793 -75, 31.08766239678414 -75, 398.90625 -75 M398.90625 -75 C398.90625 -44.72352652382652, 398.90625 -14.447053047653043, 398.90625 75 M398.90625 -75 C398.90625 -18.35072642600025, 398.90625 38.2985471479995, 398.90625 75 M398.90625 75 C180.46114145325387 75, -37.983967093492254 75, -398.90625 75 M398.90625 75 C217.55657570328037 75, 36.206901406560746 75, -398.90625 75 M-398.90625 75 C-398.90625 25.290547585273934, -398.90625 -24.41890482945213, -398.90625 -75 M-398.90625 75 C-398.90625 40.05231528449744, -398.90625 5.104630568994878, -398.90625 -75" stroke="#9370DB" stroke-width="1.3" fill="none" stroke-dasharray="0 0" style=""/></g><g class="annotation-group text" transform="translate(-41.171875, -51)"><g class="label" style="" transform="translate(0,-12)"><foreignObject width="82.34375" height="24"><div xmlns="http://www.w3.org/1999/xhtml" style="display: table-cell; white-space: nowrap; line-height: 1.5; max-width: 122px; text-align: center;"><span class="nodeLabel markdown-node-label" style=""><p>«interface»</p></span></div></foreignObject></g></g><g class="label-group text" transform="translate(-126.265625, -27)"><g class="label" style="font-weight: bolder" transform="translate(0,-12)"><foreignObject width="252.53125" height="24"><div xmlns="http://www.w3.org/1999/xhtml" style="display: table-cell; white-space: nowrap; line-height: 1.5; max-width: 270px; text-align: center;"><span class="nodeLabel markdown-node-label" style=""><p>ExternalAlertingThresholdService</p></span></div></foreignObject></g></g><g class="members-group text" transform="translate(-386.90625, 21)"/><g class="methods-group text" transform="translate(-386.90625, 51)"><g class="label" style="" transform="translate(0,-12)"><foreignObject width="647.546875" height="24"><div xmlns="http://www.w3.org/1999/xhtml" style="display: table-cell; white-space: nowrap; line-height: 1.5; max-width: 697px; text-align: center;"><span class="nodeLabel markdown-node-label" style=""><p>+fetchEnabledThresholdsByDeviceId(deviceId) : List&lt;DeviceMetricThresholdConfiguration&gt;</p></span></div></foreignObject></g></g><g class="divider" style=""><path d="M-398.90625 -3 C-134.47244152417977 -3, 129.96136695164046 -3, 398.90625 -3 M-398.90625 -3 C-219.80206267381067 -3, -40.697875347621334 -3, 398.90625 -3" stroke="#9370DB" stroke-width="1.3" fill="none" stroke-dasharray="0 0" style=""/></g><g class="divider" style=""><path d="M-398.90625 21 C-114.53725529344428 21, 169.83173941311145 21, 398.90625 21 M-398.90625 21 C-111.21162895181675 21, 176.4829920963665 21, 398.90625 21" stroke="#9370DB" stroke-width="1.3" fill="none" stroke-dasharray="0 0" style=""/></g></g><g class="node default" id="classId-EvaluateTelemetryForAlertsCommand-6" transform="translate(1878.1484375, 128)"><g class="basic label-container"><path d="M-174.0390625 -120 L174.0390625 -120 L174.0390625 120 L-174.0390625 120" stroke="none" stroke-width="0" fill="#ECECFF" style=""/><path d="M-174.0390625 -120 C-71.04261483465359 -120, 31.953832830692818 -120, 174.0390625 -120 M-174.0390625 -120 C-90.65861405172242 -120, -7.278165603444847 -120, 174.0390625 -120 M174.0390625 -120 C174.0390625 -60.898814153979714, 174.0390625 -1.7976283079594282, 174.0390625 120 M174.0390625 -120 C174.0390625 -38.6253537826024, 174.0390625 42.749292434795194, 174.0390625 120 M174.0390625 120 C46.60446365509486 120, -80.83013518981028 120, -174.0390625 120 M174.0390625 120 C48.74121151053136 120, -76.55663947893729 120, -174.0390625 120 M-174.0390625 120 C-174.0390625 69.80733674991924, -174.0390625 19.61467349983849, -174.0390625 -120 M-174.0390625 120 C-174.0390625 65.7804881497075, -174.0390625 11.560976299414989, -174.0390625 -120" stroke="#9370DB" stroke-width="1.3" fill="none" stroke-dasharray="0 0" style=""/></g><g class="annotation-group text" transform="translate(0, -96)"/><g class="label-group text" transform="translate(-141.140625, -96)"><g class="label" style="font-weight: bolder" transform="translate(0,-12)"><foreignObject width="282.28125" height="24"><div xmlns="http://www.w3.org/1999/xhtml" style="display: table-cell; white-space: nowrap; line-height: 1.5; max-width: 300px; text-align: center;"><span class="nodeLabel markdown-node-label" style=""><p>EvaluateTelemetryForAlertsCommand</p></span></div></foreignObject></g></g><g class="members-group text" transform="translate(-162.0390625, -48)"><g class="label" style="" transform="translate(0,-12)"><foreignObject width="108.28125" height="24"><div xmlns="http://www.w3.org/1999/xhtml" style="display: table-cell; white-space: nowrap; line-height: 1.5; max-width: 164px; text-align: center;"><span class="nodeLabel markdown-node-label" style=""><p>+UUID deviceId</p></span></div></foreignObject></g><g class="label" style="" transform="translate(0,12)"><foreignObject width="117.1875" height="24"><div xmlns="http://www.w3.org/1999/xhtml" style="display: table-cell; white-space: nowrap; line-height: 1.5; max-width: 168px; text-align: center;"><span class="nodeLabel markdown-node-label" style=""><p>+BigDecimal co2</p></span></div></foreignObject></g><g class="label" style="" transform="translate(0,36)"><foreignObject width="131.265625" height="24"><div xmlns="http://www.w3.org/1999/xhtml" style="display: table-cell; white-space: nowrap; line-height: 1.5; max-width: 181px; text-align: center;"><span class="nodeLabel markdown-node-label" style=""><p>+BigDecimal pm25</p></span></div></foreignObject></g><g class="label" style="" transform="translate(0,60)"><foreignObject width="182.9375" height="24"><div xmlns="http://www.w3.org/1999/xhtml" style="display: table-cell; white-space: nowrap; line-height: 1.5; max-width: 221px; text-align: center;"><span class="nodeLabel markdown-node-label" style=""><p>+BigDecimal temperature</p></span></div></foreignObject></g><g class="label" style="" transform="translate(0,84)"><foreignObject width="155.328125" height="24"><div xmlns="http://www.w3.org/1999/xhtml" style="display: table-cell; white-space: nowrap; line-height: 1.5; max-width: 203px; text-align: center;"><span class="nodeLabel markdown-node-label" style=""><p>+BigDecimal humidity</p></span></div></foreignObject></g><g class="label" style="" transform="translate(0,108)"><foreignObject width="141.75" height="24"><div xmlns="http://www.w3.org/1999/xhtml" style="display: table-cell; white-space: nowrap; line-height: 1.5; max-width: 184px; text-align: center;"><span class="nodeLabel markdown-node-label" style=""><p>+Instant occurredAt</p></span></div></foreignObject></g></g><g class="methods-group text" transform="translate(-162.0390625, 120)"/><g class="divider" style=""><path d="M-174.0390625 -72 C-59.2422692007362 -72, 55.554524098527594 -72, 174.0390625 -72 M-174.0390625 -72 C-98.15840557039186 -72, -22.277748640783727 -72, 174.0390625 -72" stroke="#9370DB" stroke-width="1.3" fill="none" stroke-dasharray="0 0" style=""/></g><g class="divider" style=""><path d="M-174.0390625 96 C-46.178429626303554 96, 81.68220324739289 96, 174.0390625 96 M-174.0390625 96 C-70.41110422137073 96, 33.21685405725853 96, 174.0390625 96" stroke="#9370DB" stroke-width="1.3" fill="none" stroke-dasharray="0 0" style=""/></g></g><g class="node default" id="classId-AlertingContextFacade-7" transform="translate(1397, 430)"><g class="basic label-container"><path d="M-97.3984375 -42 L97.3984375 -42 L97.3984375 42 L-97.3984375 42" stroke="none" stroke-width="0" fill="#ECECFF" style=""/><path d="M-97.3984375 -42 C-38.543352483951594 -42, 20.311732532096812 -42, 97.3984375 -42 M-97.3984375 -42 C-31.335225221017396 -42, 34.72798705796521 -42, 97.3984375 -42 M97.3984375 -42 C97.3984375 -10.711598885792064, 97.3984375 20.576802228415872, 97.3984375 42 M97.3984375 -42 C97.3984375 -14.013411331086441, 97.3984375 13.973177337827117, 97.3984375 42 M97.3984375 42 C27.085843633791825 42, -43.22675023241635 42, -97.3984375 42 M97.3984375 42 C30.980215998494714 42, -35.43800550301057 42, -97.3984375 42 M-97.3984375 42 C-97.3984375 17.02765276636963, -97.3984375 -7.944694467260739, -97.3984375 -42 M-97.3984375 42 C-97.3984375 14.519301643152893, -97.3984375 -12.961396713694214, -97.3984375 -42" stroke="#9370DB" stroke-width="1.3" fill="none" stroke-dasharray="0 0" style=""/></g><g class="annotation-group text" transform="translate(0, -18)"/><g class="label-group text" transform="translate(-85.3984375, -18)"><g class="label" style="font-weight: bolder" transform="translate(0,-12)"><foreignObject width="170.796875" height="24"><div xmlns="http://www.w3.org/1999/xhtml" style="display: table-cell; white-space: nowrap; line-height: 1.5; max-width: 199px; text-align: center;"><span class="nodeLabel markdown-node-label" style=""><p>AlertingContextFacade</p></span></div></foreignObject></g></g><g class="members-group text" transform="translate(-85.3984375, 30)"/><g class="methods-group text" transform="translate(-85.3984375, 60)"/><g class="divider" style=""><path d="M-97.3984375 6 C-40.04087403041015 6, 17.316689439179697 6, 97.3984375 6 M-97.3984375 6 C-53.20151853638462 6, -9.004599572769237 6, 97.3984375 6" stroke="#9370DB" stroke-width="1.3" fill="none" stroke-dasharray="0 0" style=""/></g><g class="divider" style=""><path d="M-97.3984375 24 C-44.67561918071543 24, 8.047199138569141 24, 97.3984375 24 M-97.3984375 24 C-38.56005752898083 24, 20.278322442038345 24, 97.3984375 24" stroke="#9370DB" stroke-width="1.3" fill="none" stroke-dasharray="0 0" style=""/></g></g></g></g></g></svg>