<svg id="my-svg" width="100%" xmlns="http://www.w3.org/2000/svg" xmlns:xlink="http://www.w3.org/1999/xlink" class="classDiagram" style="max-width: 1060.57px; background-color: transparent;" viewBox="0 0 1060.5703125 208" role="graphics-document document" aria-roledescription="class"><style>#my-svg{font-family:"trebuchet ms",verdana,arial,sans-serif;font-size:16px;fill:#333;}@keyframes edge-animation-frame{from{stroke-dashoffset:0;}}@keyframes dash{to{stroke-dashoffset:0;}}#my-svg .edge-animation-slow{stroke-dasharray:9,5!important;stroke-dashoffset:900;animation:dash 50s linear infinite;stroke-linecap:round;}#my-svg .edge-animation-fast{stroke-dasharray:9,5!important;stroke-dashoffset:900;animation:dash 20s linear infinite;stroke-linecap:round;}#my-svg .error-icon{fill:#552222;}#my-svg .error-text{fill:#552222;stroke:#552222;}#my-svg .edge-thickness-normal{stroke-width:1px;}#my-svg .edge-thickness-thick{stroke-width:3.5px;}#my-svg .edge-pattern-solid{stroke-dasharray:0;}#my-svg .edge-thickness-invisible{stroke-width:0;fill:none;}#my-svg .edge-pattern-dashed{stroke-dasharray:3;}#my-svg .edge-pattern-dotted{stroke-dasharray:2;}#my-svg .marker{fill:#333333;stroke:#333333;}#my-svg .marker.cross{stroke:#333333;}#my-svg svg{font-family:"trebuchet ms",verdana,arial,sans-serif;font-size:16px;}#my-svg p{margin:0;}#my-svg g.classGroup text{fill:#9370DB;stroke:none;font-family:"trebuchet ms",verdana,arial,sans-serif;font-size:10px;}#my-svg g.classGroup text .title{font-weight:bolder;}#my-svg .nodeLabel,#my-svg .edgeLabel{color:#131300;}#my-svg .edgeLabel .label rect{fill:#ECECFF;}#my-svg .label text{fill:#131300;}#my-svg .labelBkg{background:#ECECFF;}#my-svg .edgeLabel .label span{background:#ECECFF;}#my-svg .classTitle{font-weight:bolder;}#my-svg .node rect,#my-svg .node circle,#my-svg .node ellipse,#my-svg .node polygon,#my-svg .node path{fill:#ECECFF;stroke:#9370DB;stroke-width:1px;}#my-svg .divider{stroke:#9370DB;stroke-width:1;}#my-svg g.clickable{cursor:pointer;}#my-svg g.classGroup rect{fill:#ECECFF;stroke:#9370DB;}#my-svg g.classGroup line{stroke:#9370DB;stroke-width:1;}#my-svg .classLabel .box{stroke:none;stroke-width:0;fill:#ECECFF;opacity:0.5;}#my-svg .classLabel .label{fill:#9370DB;font-size:10px;}#my-svg .relation{stroke:#333333;stroke-width:1;fill:none;}#my-svg .dashed-line{stroke-dasharray:3;}#my-svg .dotted-line{stroke-dasharray:1 2;}#my-svg #compositionStart,#my-svg .composition{fill:#333333!important;stroke:#333333!important;stroke-width:1;}#my-svg #compositionEnd,#my-svg .composition{fill:#333333!important;stroke:#333333!important;stroke-width:1;}#my-svg #dependencyStart,#my-svg .dependency{fill:#333333!important;stroke:#333333!important;stroke-width:1;}#my-svg #dependencyStart,#my-svg .dependency{fill:#333333!important;stroke:#333333!important;stroke-width:1;}#my-svg #extensionStart,#my-svg .extension{fill:transparent!important;stroke:#333333!important;stroke-width:1;}#my-svg #extensionEnd,#my-svg .extension{fill:transparent!important;stroke:#333333!important;stroke-width:1;}#my-svg #aggregationStart,#my-svg .aggregation{fill:transparent!important;stroke:#333333!important;stroke-width:1;}#my-svg #aggregationEnd,#my-svg .aggregation{fill:transparent!important;stroke:#333333!important;stroke-width:1;}#my-svg #lollipopStart,#my-svg .lollipop{fill:#ECECFF!important;stroke:#333333!important;stroke-width:1;}#my-svg #lollipopEnd,#my-svg .lollipop{fill:#ECECFF!important;stroke:#333333!important;stroke-width:1;}#my-svg .edgeTerminals{font-size:11px;line-height:initial;}#my-svg .classTitleText{text-anchor:middle;font-size:18px;fill:#333;}#my-svg .label-icon{display:inline-block;height:1em;overflow:visible;vertical-align:-0.125em;}#my-svg .node .label-icon path{fill:currentColor;stroke:revert;stroke-width:revert;}#my-svg :root{--mermaid-font-family:"trebuchet ms",verdana,arial,sans-serif;}</style><g><defs><marker id="my-svg_class-aggregationStart" class="marker aggregation class" refX="18" refY="7" markerWidth="190" markerHeight="240" orient="auto"><path d="M 18,7 L9,13 L1,7 L9,1 Z"/></marker></defs><defs><marker id="my-svg_class-aggregationEnd" class="marker aggregation class" refX="1" refY="7" markerWidth="20" markerHeight="28" orient="auto"><path d="M 18,7 L9,13 L1,7 L9,1 Z"/></marker></defs><defs><marker id="my-svg_class-extensionStart" class="marker extension class" refX="18" refY="7" markerWidth="190" markerHeight="240" orient="auto"><path d="M 1,7 L18,13 V 1 Z"/></marker></defs><defs><marker id="my-svg_class-extensionEnd" class="marker extension class" refX="1" refY="7" markerWidth="20" markerHeight="28" orient="auto"><path d="M 1,1 V 13 L18,7 Z"/></marker></defs><defs><marker id="my-svg_class-compositionStart" class="marker composition class" refX="18" refY="7" markerWidth="190" markerHeight="240" orient="auto"><path d="M 18,7 L9,13 L1,7 L9,1 Z"/></marker></defs><defs><marker id="my-svg_class-compositionEnd" class="marker composition class" refX="1" refY="7" markerWidth="20" markerHeight="28" orient="auto"><path d="M 18,7 L9,13 L1,7 L9,1 Z"/></marker></defs><defs><marker id="my-svg_class-dependencyStart" class="marker dependency class" refX="6" refY="7" markerWidth="190" markerHeight="240" orient="auto"><path d="M 5,7 L9,13 L1,7 L9,1 Z"/></marker></defs><defs><marker id="my-svg_class-dependencyEnd" class="marker dependency class" refX="13" refY="7" markerWidth="20" markerHeight="28" orient="auto"><path d="M 18,7 L9,13 L14,7 L9,1 Z"/></marker></defs><defs><marker id="my-svg_class-lollipopStart" class="marker lollipop class" refX="13" refY="7" markerWidth="190" markerHeight="240" orient="auto"><circle stroke="black" fill="transparent" cx="7" cy="7" r="6"/></marker></defs><defs><marker id="my-svg_class-lollipopEnd" class="marker lollipop class" refX="1" refY="7" markerWidth="190" markerHeight="240" orient="auto"><circle stroke="black" fill="transparent" cx="7" cy="7" r="6"/></marker></defs><g class="root"><g class="clusters"/><g class="edgePaths"/><g class="edgeLabels"/><g class="nodes"><g class="node default" id="classId-AlertController-0" transform="translate(256.234375, 104)"><g class="basic label-container"><path d="M-248.234375 -96 L248.234375 -96 L248.234375 96 L-248.234375 96" stroke="none" stroke-width="0" fill="#ECECFF" style=""/><path d="M-248.234375 -96 C-62.755319008677105 -96, 122.72373698264579 -96, 248.234375 -96 M-248.234375 -96 C-131.13363177835794 -96, -14.032888556715875 -96, 248.234375 -96 M248.234375 -96 C248.234375 -24.313461415598894, 248.234375 47.37307716880221, 248.234375 96 M248.234375 -96 C248.234375 -35.85455799883803, 248.234375 24.290884002323935, 248.234375 96 M248.234375 96 C86.3237600739352 96, -75.58685485212959 96, -248.234375 96 M248.234375 96 C128.58721014876724 96, 8.940045297534482 96, -248.234375 96 M-248.234375 96 C-248.234375 30.564132425515623, -248.234375 -34.87173514896875, -248.234375 -96 M-248.234375 96 C-248.234375 51.30004710091679, -248.234375 6.600094201833585, -248.234375 -96" stroke="#9370DB" stroke-width="1.3" fill="none" stroke-dasharray="0 0" style=""/></g><g class="annotation-group text" transform="translate(0, -72)"/><g class="label-group text" transform="translate(-56.609375, -72)"><g class="label" style="font-weight: bolder" transform="translate(0,-12)"><foreignObject width="113.21875" height="24"><div xmlns="http://www.w3.org/1999/xhtml" style="display: table-cell; white-space: nowrap; line-height: 1.5; max-width: 149px; text-align: center;"><span class="nodeLabel markdown-node-label" style=""><p>AlertController</p></span></div></foreignObject></g></g><g class="members-group text" transform="translate(-236.234375, -24)"><g class="label" style="" transform="translate(0,-12)"><foreignObject width="268.71875" height="24"><div xmlns="http://www.w3.org/1999/xhtml" style="display: table-cell; white-space: nowrap; line-height: 1.5; max-width: 301px; text-align: center;"><span class="nodeLabel markdown-node-label" style=""><p>-AlertQueryService alertQueryService</p></span></div></foreignObject></g></g><g class="methods-group text" transform="translate(-236.234375, 24)"><g class="label" style="" transform="translate(0,-12)"><foreignObject width="415.859375" height="24"><div xmlns="http://www.w3.org/1999/xhtml" style="display: table-cell; white-space: nowrap; line-height: 1.5; max-width: 436px; text-align: center;"><span class="nodeLabel markdown-node-label" style=""><p>+getAlertsByDevice(deviceId, page, size) : ResponseEntity</p></span></div></foreignObject></g><g class="label" style="" transform="translate(0,12)"><foreignObject width="403.703125" height="24"><div xmlns="http://www.w3.org/1999/xhtml" style="display: table-cell; white-space: nowrap; line-height: 1.5; max-width: 422px; text-align: center;"><span class="nodeLabel markdown-node-label" style=""><p>+getAlertsBySpace(spaceId, page, size) : ResponseEntity</p></span></div></foreignObject></g><g class="label" style="" transform="translate(0,36)"><foreignObject width="321.25" height="24"><div xmlns="http://www.w3.org/1999/xhtml" style="display: table-cell; white-space: nowrap; line-height: 1.5; max-width: 353px; text-align: center;"><span class="nodeLabel markdown-node-label" style=""><p>+getDailySummary(spaceId) : ResponseEntity</p></span></div></foreignObject></g></g><g class="divider" style=""><path d="M-248.234375 -48 C-101.92425529250872 -48, 44.385864414982564 -48, 248.234375 -48 M-248.234375 -48 C-143.60700098737124 -48, -38.979626974742445 -48, 248.234375 -48" stroke="#9370DB" stroke-width="1.3" fill="none" stroke-dasharray="0 0" style=""/></g><g class="divider" style=""><path d="M-248.234375 0 C-79.35557323362232 0, 89.52322853275535 0, 248.234375 0 M-248.234375 0 C-136.2543965048937 0, -24.274418009787382 0, 248.234375 0" stroke="#9370DB" stroke-width="1.3" fill="none" stroke-dasharray="0 0" style=""/></g></g><g class="node default" id="classId-AlertingContextFacade-1" transform="translate(803.51953125, 104)"><g class="basic label-container"><path d="M-249.05078125 -75 L249.05078125 -75 L249.05078125 75 L-249.05078125 75" stroke="none" stroke-width="0" fill="#ECECFF" style=""/><path d="M-249.05078125 -75 C-58.43806639146919 -75, 132.17464846706162 -75, 249.05078125 -75 M-249.05078125 -75 C-126.66217722192879 -75, -4.2735731938575725 -75, 249.05078125 -75 M249.05078125 -75 C249.05078125 -32.14423855243782, 249.05078125 10.71152289512436, 249.05078125 75 M249.05078125 -75 C249.05078125 -24.229633819469534, 249.05078125 26.540732361060932, 249.05078125 75 M249.05078125 75 C129.02806858601056 75, 9.005355922021124 75, -249.05078125 75 M249.05078125 75 C57.05943108263861 75, -134.93191908472278 75, -249.05078125 75 M-249.05078125 75 C-249.05078125 35.83433716539166, -249.05078125 -3.3313256692166817, -249.05078125 -75 M-249.05078125 75 C-249.05078125 27.438357584557416, -249.05078125 -20.12328483088517, -249.05078125 -75" stroke="#9370DB" stroke-width="1.3" fill="none" stroke-dasharray="0 0" style=""/></g><g class="annotation-group text" transform="translate(-41.171875, -51)"><g class="label" style="" transform="translate(0,-12)"><foreignObject width="82.34375" height="24"><div xmlns="http://www.w3.org/1999/xhtml" style="display: table-cell; white-space: nowrap; line-height: 1.5; max-width: 122px; text-align: center;"><span class="nodeLabel markdown-node-label" style=""><p>«interface»</p></span></div></foreignObject></g></g><g class="label-group text" transform="translate(-85.3984375, -27)"><g class="label" style="font-weight: bolder" transform="translate(0,-12)"><foreignObject width="170.796875" height="24"><div xmlns="http://www.w3.org/1999/xhtml" style="display: table-cell; white-space: nowrap; line-height: 1.5; max-width: 199px; text-align: center;"><span class="nodeLabel markdown-node-label" style=""><p>AlertingContextFacade</p></span></div></foreignObject></g></g><g class="members-group text" transform="translate(-237.05078125, 21)"/><g class="methods-group text" transform="translate(-237.05078125, 51)"><g class="label" style="" transform="translate(0,-12)"><foreignObject width="388.703125" height="24"><div xmlns="http://www.w3.org/1999/xhtml" style="display: table-cell; white-space: nowrap; line-height: 1.5; max-width: 454px; text-align: center;"><span class="nodeLabel markdown-node-label" style=""><p>+findAlertDetailsById(alertId) : Optional&lt;AlertDetails&gt;</p></span></div></foreignObject></g></g><g class="divider" style=""><path d="M-249.05078125 -3 C-59.449801065992744 -3, 130.1511791180145 -3, 249.05078125 -3 M-249.05078125 -3 C-52.15622331462325 -3, 144.7383346207535 -3, 249.05078125 -3" stroke="#9370DB" stroke-width="1.3" fill="none" stroke-dasharray="0 0" style=""/></g><g class="divider" style=""><path d="M-249.05078125 21 C-132.73971570005858 21, -16.428650150117136 21, 249.05078125 21 M-249.05078125 21 C-146.76145890595183 21, -44.472136561903625 21, 249.05078125 21" stroke="#9370DB" stroke-width="1.3" fill="none" stroke-dasharray="0 0" style=""/></g></g></g></g></g></svg>