<svg id="my-svg" width="100%" xmlns="http://www.w3.org/2000/svg" xmlns:xlink="http://www.w3.org/1999/xlink" class="classDiagram" style="max-width: 975.711px; background-color: transparent;" viewBox="-8 -48 975.7109375 574" role="graphics-document document" aria-roledescription="class"><style>#my-svg{font-family:"trebuchet ms",verdana,arial,sans-serif;font-size:16px;fill:#333;}@keyframes edge-animation-frame{from{stroke-dashoffset:0;}}@keyframes dash{to{stroke-dashoffset:0;}}#my-svg .edge-animation-slow{stroke-dasharray:9,5!important;stroke-dashoffset:900;animation:dash 50s linear infinite;stroke-linecap:round;}#my-svg .edge-animation-fast{stroke-dasharray:9,5!important;stroke-dashoffset:900;animation:dash 20s linear infinite;stroke-linecap:round;}#my-svg .error-icon{fill:#552222;}#my-svg .error-text{fill:#552222;stroke:#552222;}#my-svg .edge-thickness-normal{stroke-width:1px;}#my-svg .edge-thickness-thick{stroke-width:3.5px;}#my-svg .edge-pattern-solid{stroke-dasharray:0;}#my-svg .edge-thickness-invisible{stroke-width:0;fill:none;}#my-svg .edge-pattern-dashed{stroke-dasharray:3;}#my-svg .edge-pattern-dotted{stroke-dasharray:2;}#my-svg .marker{fill:#333333;stroke:#333333;}#my-svg .marker.cross{stroke:#333333;}#my-svg svg{font-family:"trebuchet ms",verdana,arial,sans-serif;font-size:16px;}#my-svg p{margin:0;}#my-svg g.classGroup text{fill:#9370DB;stroke:none;font-family:"trebuchet ms",verdana,arial,sans-serif;font-size:10px;}#my-svg g.classGroup text .title{font-weight:bolder;}#my-svg .cluster-label text{fill:#333;}#my-svg .cluster-label span{color:#333;}#my-svg .cluster-label span p{background-color:transparent;}#my-svg .cluster rect{fill:transparent;stroke:#666666;stroke-width:1px;}#my-svg .cluster text{fill:#333;}#my-svg .cluster span{color:#333;}#my-svg .nodeLabel,#my-svg .edgeLabel{color:#131300;}#my-svg .noteLabel .nodeLabel,#my-svg .noteLabel .edgeLabel{color:black;}#my-svg .edgeLabel .label rect{fill:#ECECFF;}#my-svg .label text{fill:#131300;}#my-svg .labelBkg{background:#ECECFF;}#my-svg .edgeLabel .label span{background:#ECECFF;}#my-svg .classTitle{font-weight:bolder;}#my-svg .node rect,#my-svg .node circle,#my-svg .node ellipse,#my-svg .node polygon,#my-svg .node path{fill:#ECECFF;stroke:#9370DB;stroke-width:1;}#my-svg .divider{stroke:#9370DB;stroke-width:1;}#my-svg g.clickable{cursor:pointer;}#my-svg g.classGroup rect{fill:#ECECFF;stroke:#9370DB;}#my-svg g.classGroup line{stroke:#9370DB;stroke-width:1;}#my-svg .classLabel .box{stroke:none;stroke-width:0;fill:#ECECFF;opacity:0.5;}#my-svg .classLabel .label{fill:#9370DB;font-size:10px;}#my-svg .relation{stroke:#333333;stroke-width:1;fill:none;}#my-svg .dashed-line{stroke-dasharray:3;}#my-svg .dotted-line{stroke-dasharray:1 2;}#my-svg [id$="-compositionStart"],#my-svg .composition{fill:#333333!important;stroke:#333333!important;stroke-width:1;}#my-svg [id$="-compositionEnd"],#my-svg .composition{fill:#333333!important;stroke:#333333!important;stroke-width:1;}#my-svg [id$="-dependencyStart"],#my-svg .dependency{fill:#333333!important;stroke:#333333!important;stroke-width:1;}#my-svg [id$="-dependencyEnd"],#my-svg .dependency{fill:#333333!important;stroke:#333333!important;stroke-width:1;}#my-svg [id$="-extensionStart"],#my-svg .extension{fill:transparent!important;stroke:#333333!important;stroke-width:1;}#my-svg [id$="-extensionEnd"],#my-svg .extension{fill:transparent!important;stroke:#333333!important;stroke-width:1;}#my-svg [id$="-aggregationStart"],#my-svg .aggregation{fill:transparent!important;stroke:#333333!important;stroke-width:1;}#my-svg [id$="-aggregationEnd"],#my-svg .aggregation{fill:transparent!important;stroke:#333333!important;stroke-width:1;}#my-svg [id$="-lollipopStart"],#my-svg .lollipop{fill:#ECECFF!important;stroke:#333333!important;stroke-width:1;}#my-svg [id$="-lollipopEnd"],#my-svg .lollipop{fill:#ECECFF!important;stroke:#333333!important;stroke-width:1;}#my-svg .edgeTerminals{font-size:11px;line-height:initial;}#my-svg .classTitleText{text-anchor:middle;font-size:18px;fill:#333;}#my-svg .edgeLabel[data-look="neo"]{background-color:rgba(232,232,232, 0.8);text-align:center;}#my-svg .edgeLabel[data-look="neo"] p{background-color:rgba(232,232,232, 0.8);}#my-svg .edgeLabel[data-look="neo"] rect{opacity:0.5;background-color:rgba(232,232,232, 0.8);fill:rgba(232,232,232, 0.8);}#my-svg .label-icon{display:inline-block;height:1em;overflow:visible;vertical-align:-0.125em;}#my-svg .node .label-icon path{fill:currentColor;stroke:revert;stroke-width:revert;}#my-svg .node .neo-node{stroke:#9370DB;}#my-svg [data-look="neo"].node rect,#my-svg [data-look="neo"].cluster rect,#my-svg [data-look="neo"].node polygon{stroke:#9370DB;filter:drop-shadow(1px 2px 2px rgba(185, 185, 185, 1));}#my-svg [data-look="neo"].node path{stroke:#9370DB;stroke-width:1px;}#my-svg [data-look="neo"].node .outer-path{filter:drop-shadow(1px 2px 2px rgba(185, 185, 185, 1));}#my-svg [data-look="neo"].node .neo-line path{stroke:#9370DB;filter:none;}#my-svg [data-look="neo"].node circle{stroke:#9370DB;filter:drop-shadow(1px 2px 2px rgba(185, 185, 185, 1));}#my-svg [data-look="neo"].node circle .state-start{fill:#000000;}#my-svg [data-look="neo"].icon-shape .icon{fill:#9370DB;filter:drop-shadow(1px 2px 2px rgba(185, 185, 185, 1));}#my-svg [data-look="neo"].icon-shape .icon-neo path{stroke:#9370DB;filter:drop-shadow(1px 2px 2px rgba(185, 185, 185, 1));}#my-svg :root{--mermaid-font-family:"trebuchet ms",verdana,arial,sans-serif;}</style><g><defs><marker id="my-svg_class-aggregationStart" class="marker aggregation class" refX="18" refY="7" markerWidth="190" markerHeight="240" orient="auto"><path d="M 18,7 L9,13 L1,7 L9,1 Z"/></marker></defs><defs><marker id="my-svg_class-aggregationEnd" class="marker aggregation class" refX="1" refY="7" markerWidth="20" markerHeight="28" orient="auto"><path d="M 18,7 L9,13 L1,7 L9,1 Z"/></marker></defs><defs><marker id="my-svg_class-aggregationStart-margin" class="marker aggregation class" refX="15" refY="7" markerWidth="190" markerHeight="240" orient="auto" markerUnits="userSpaceOnUse"><path d="M 18,7 L9,13 L1,7 L9,1 Z" style="stroke-width: 2;"/></marker></defs><defs><marker id="my-svg_class-aggregationEnd-margin" class="marker aggregation class" refX="1" refY="7" markerWidth="20" markerHeight="28" orient="auto" markerUnits="userSpaceOnUse"><path d="M 18,7 L9,13 L1,7 L9,1 Z" style="stroke-width: 2;"/></marker></defs><defs><marker id="my-svg_class-extensionStart" class="marker extension class" refX="18" refY="7" markerWidth="20" markerHeight="28" orient="auto" markerUnits="userSpaceOnUse"><path d="M 1,7 L18,13 V 1 Z"/></marker></defs><defs><marker id="my-svg_class-extensionEnd" class="marker extension class" refX="1" refY="7" markerWidth="20" markerHeight="28" orient="auto"><path d="M 1,1 V 13 L18,7 Z"/></marker></defs><marker id="my-svg_class-extensionStart-margin" class="marker extension class" refX="18" refY="7" markerWidth="20" markerHeight="28" orient="auto" markerUnits="userSpaceOnUse" viewBox="0 0 20 14"><polygon points="10,7 18,13 18,1" style="stroke-width: 2; stroke-dasharray: 0;"/></marker><defs><marker id="my-svg_class-extensionEnd-margin" class="marker extension class" refX="9" refY="7" markerWidth="20" markerHeight="28" orient="auto" markerUnits="userSpaceOnUse" viewBox="0 0 20 14"><polygon points="10,1 10,13 18,7" style="stroke-width: 2; stroke-dasharray: 0;"/></marker></defs><defs><marker id="my-svg_class-compositionStart" class="marker composition class" refX="18" refY="7" markerWidth="190" markerHeight="240" orient="auto"><path d="M 18,7 L9,13 L1,7 L9,1 Z"/></marker></defs><defs><marker id="my-svg_class-compositionEnd" class="marker composition class" refX="1" refY="7" markerWidth="20" markerHeight="28" orient="auto"><path d="M 18,7 L9,13 L1,7 L9,1 Z"/></marker></defs><defs><marker id="my-svg_class-compositionStart-margin" class="marker composition class" refX="15" refY="7" markerWidth="190" markerHeight="240" orient="auto" markerUnits="userSpaceOnUse"><path viewBox="0 0 15 15" d="M 18,7 L9,13 L1,7 L9,1 Z" style="stroke-width: 0;"/></marker></defs><defs><marker id="my-svg_class-compositionEnd-margin" class="marker composition class" refX="3.5" refY="7" markerWidth="20" markerHeight="28" orient="auto" markerUnits="userSpaceOnUse"><path d="M 18,7 L9,13 L1,7 L9,1 Z" style="stroke-width: 0;"/></marker></defs><defs><marker id="my-svg_class-dependencyStart" class="marker dependency class" refX="6" refY="7" markerWidth="190" markerHeight="240" orient="auto"><path d="M 5,7 L9,13 L1,7 L9,1 Z"/></marker></defs><defs><marker id="my-svg_class-dependencyEnd" class="marker dependency class" refX="13" refY="7" markerWidth="20" markerHeight="28" orient="auto"><path d="M 18,7 L9,13 L14,7 L9,1 Z"/></marker></defs><defs><marker id="my-svg_class-dependencyStart-margin" class="marker dependency class" refX="4" refY="7" markerWidth="190" markerHeight="240" orient="auto" markerUnits="userSpaceOnUse"><path d="M 5,7 L9,13 L1,7 L9,1 Z" style="stroke-width: 0;"/></marker></defs><defs><marker id="my-svg_class-dependencyEnd-margin" class="marker dependency class" refX="16" refY="7" markerWidth="20" markerHeight="28" orient="auto" markerUnits="userSpaceOnUse"><path d="M 18,7 L9,13 L14,7 L9,1 Z" style="stroke-width: 0;"/></marker></defs><defs><marker id="my-svg_class-lollipopStart" class="marker lollipop class" refX="13" refY="7" markerWidth="190" markerHeight="240" orient="auto"><circle fill="transparent" cx="7" cy="7" r="6"/></marker></defs><defs><marker id="my-svg_class-lollipopEnd" class="marker lollipop class" refX="1" refY="7" markerWidth="190" markerHeight="240" orient="auto"><circle fill="transparent" cx="7" cy="7" r="6"/></marker></defs><defs><marker id="my-svg_class-lollipopStart-margin" class="marker lollipop class" refX="13" refY="7" markerWidth="190" markerHeight="240" orient="auto" markerUnits="userSpaceOnUse"><circle fill="transparent" cx="7" cy="7" r="6" stroke-width="2"/></marker></defs><defs><marker id="my-svg_class-lollipopEnd-margin" class="marker lollipop class" refX="1" refY="7" markerWidth="190" markerHeight="240" orient="auto" markerUnits="userSpaceOnUse"><circle fill="transparent" cx="7" cy="7" r="6" stroke-width="2"/></marker></defs><g class="root"><g class="clusters"/><g class="edgePaths"/><g class="edgeLabels"/><g class="nodes"><g class="root" transform="translate(-8, 0)"><g class="clusters"><g class="cluster undefined" id="my-svg-domain" data-look="classic"><rect style="" x="8" y="8" width="959.7109375" height="510"/><g class="cluster-label" transform="translate(457.89453125, 8)"><foreignObject width="59.921875" height="24"><div xmlns="http://www.w3.org/1999/xhtml" style="display: table-cell; white-space: nowrap; line-height: 1.5;"><span class="nodeLabel"><p>domain</p></span></div></foreignObject></g></g></g><g class="edgePaths"><path d="M414.852,118L425.677,118C436.503,118,458.154,118,503.129,118C548.104,118,616.404,118,650.553,118L684.703,118" id="my-svg-id_CommandHandler_Command_1" class="edge-thickness-normal edge-pattern-solid relation" style=";;;" data-edge="true" data-et="edge" data-id="id_CommandHandler_Command_1" data-points="W3sieCI6Mzk3LjYwMTU2MjUsInkiOjExOH0seyJ4Ijo0NzkuODA0Njg3NSwieSI6MTE4fSx7IngiOjY4NC43MDMxMjUsInkiOjExOH1d" data-look="classic" marker-start="url(#my-svg_class-extensionStart)"/><path d="M333.957,363L358.265,363C382.573,363,431.189,363,468.197,363C505.206,363,530.607,363,543.307,363L556.008,363" id="my-svg-id_RemoteCommandType_CommandResult_2" class="edge-thickness-normal edge-pattern-solid relation" style=";;;" data-edge="true" data-et="edge" data-id="id_RemoteCommandType_CommandResult_2" data-points="W3sieCI6MzMzLjk1NzAzMTI1LCJ5IjozNjN9LHsieCI6NDc5LjgwNDY4NzUsInkiOjM2M30seyJ4Ijo1NjIuMDA3ODEyNSwieSI6MzYzfV0=" data-look="classic" marker-end="url(#my-svg_class-dependencyEnd)"/></g><g class="edgeLabels"><g class="edgeLabel" transform="translate(479.8046875, 118)"><g class="label" data-id="id_CommandHandler_Command_1" transform="translate(-44.703125, -12)"><foreignObject width="89.40625" height="24"><div xmlns="http://www.w3.org/1999/xhtml" class="labelBkg" style="display: table-cell; white-space: nowrap; line-height: 1.5; max-width: 200px; text-align: center;"><span class="edgeLabel"><p>handled by</p></span></div></foreignObject></g></g><g class="edgeLabel" transform="translate(479.8046875, 363)"><g class="label" data-id="id_RemoteCommandType_CommandResult_2" transform="translate(-32.515625, -12)"><foreignObject width="65.03125" height="24"><div xmlns="http://www.w3.org/1999/xhtml" class="labelBkg" style="display: table-cell; white-space: nowrap; line-height: 1.5; max-width: 200px; text-align: center;"><span class="edgeLabel"><p>maps to</p></span></div></foreignObject></g></g></g><g class="nodes"><g class="node default" id="my-svg-classId-Command-0" data-look="classic" transform="translate(746.109375, 118)"><g class="basic label-container outer-path"><path d="M-61.40625 -60 L61.40625 -60 L61.40625 60 L-61.40625 60" stroke="none" stroke-width="0" fill="#ECECFF" style=""/><path d="M-61.40625 -60 C-13.91985052063216 -60, 33.56654895873568 -60, 61.40625 -60 M-61.40625 -60 C-31.831346693423626 -60, -2.256443386847252 -60, 61.40625 -60 M61.40625 -60 C61.40625 -16.965214000709317, 61.40625 26.069571998581367, 61.40625 60 M61.40625 -60 C61.40625 -33.471874668274566, 61.40625 -6.943749336549139, 61.40625 60 M61.40625 60 C35.00708007306616 60, 8.607910146132326 60, -61.40625 60 M61.40625 60 C32.42558159751269 60, 3.4449131950253786 60, -61.40625 60 M-61.40625 60 C-61.40625 19.20660413426613, -61.40625 -21.58679173146774, -61.40625 -60 M-61.40625 60 C-61.40625 24.596497427281513, -61.40625 -10.807005145436975, -61.40625 -60" stroke="#9370DB" stroke-width="1.3" fill="none" stroke-dasharray="0 0" style=""/></g><g class="annotation-group text" transform="translate(0, -36)"/><g class="label-group text" transform="translate(-44.859375, -36)"><g class="label" style="font-weight: bolder" transform="translate(0,-12)"><foreignObject width="89.71875" height="24"><div xmlns="http://www.w3.org/1999/xhtml" style="display: table-cell; white-space: nowrap; line-height: 1.5; max-width: 133px; text-align: center;"><span class="nodeLabel markdown-node-label" style=""><p>Command</p></span></div></foreignObject></g></g><g class="members-group text" transform="translate(-49.40625, 12)"><g class="label" style="" transform="translate(0,-12)"><foreignObject width="53.953125" height="24"><div xmlns="http://www.w3.org/1999/xhtml" style="display: table-cell; white-space: nowrap; line-height: 1.5; max-width: 107px; text-align: center;"><span class="nodeLabel markdown-node-label" style=""><p>+int id</p></span></div></foreignObject></g></g><g class="methods-group text" transform="translate(-49.40625, 60)"/><g class="divider" style=""><path d="M-61.40625 -12 C-21.632864858262003 -11.999676145464495, 18.140520283475993 -11.99935229092899, 61.40625 -11.999 M-61.40625 -12 C-26.752866466097373 -11.999717835045017, 7.900517067805254 -11.999435670090033, 61.40625 -11.999" stroke="#9370DB" stroke-width="1.3" fill="none" stroke-dasharray="0 0" style=""/></g><g class="divider" style=""><path d="M-61.40625 36 C-19.294813405063316 36.00034289210459, 22.81662318987337 36.000685784209175, 61.40625 36.001 M-61.40625 36 C-18.520978214991068 36.0003491930527, 24.364293570017864 36.000698386105405, 61.40625 36.001" stroke="#9370DB" stroke-width="1.3" fill="none" stroke-dasharray="0 0" style=""/></g></g><g class="node default" id="my-svg-classId-CommandHandler-1" data-look="classic" transform="translate(221.55078125, 118)"><g class="basic label-container outer-path"><path d="M-176.05078125 -75 L176.05078125 -75 L176.05078125 75 L-176.05078125 75" stroke="none" stroke-width="0" fill="#ECECFF" style=""/><path d="M-176.05078125 -75 C-92.71222518462405 -75, -9.373669119248092 -75, 176.05078125 -75 M-176.05078125 -75 C-69.50198293697082 -75, 37.04681537605836 -75, 176.05078125 -75 M176.05078125 -75 C176.05078125 -20.001323104691487, 176.05078125 34.99735379061703, 176.05078125 75 M176.05078125 -75 C176.05078125 -25.383681773838937, 176.05078125 24.232636452322126, 176.05078125 75 M176.05078125 75 C78.0835254484947 75, -19.883730353010606 75, -176.05078125 75 M176.05078125 75 C104.62664470089109 75, 33.20250815178218 75, -176.05078125 75 M-176.05078125 75 C-176.05078125 16.499842442979826, -176.05078125 -42.00031511404035, -176.05078125 -75 M-176.05078125 75 C-176.05078125 36.699721610896155, -176.05078125 -1.6005567782076895, -176.05078125 -75" stroke="#9370DB" stroke-width="1.3" fill="none" stroke-dasharray="0 0" style=""/></g><g class="annotation-group text" transform="translate(-45.46875, -51)"><g class="label" style="" transform="translate(0,-12)"><foreignObject width="90.9375" height="24"><div xmlns="http://www.w3.org/1999/xhtml" style="display: table-cell; white-space: nowrap; line-height: 1.5; max-width: 142px; text-align: center;"><span class="nodeLabel markdown-node-label" style=""><p>«interface»</p></span></div></foreignObject></g></g><g class="label-group text" transform="translate(-80.4921875, -27)"><g class="label" style="font-weight: bolder" transform="translate(0,-12)"><foreignObject width="160.984375" height="24"><div xmlns="http://www.w3.org/1999/xhtml" style="display: table-cell; white-space: nowrap; line-height: 1.5; max-width: 196px; text-align: center;"><span class="nodeLabel markdown-node-label" style=""><p>CommandHandler</p></span></div></foreignObject></g></g><g class="members-group text" transform="translate(-164.05078125, 21)"/><g class="methods-group text" transform="translate(-164.05078125, 51)"><g class="label" style="" transform="translate(0,-12)"><foreignObject width="247.609375" height="24"><div xmlns="http://www.w3.org/1999/xhtml" style="display: table-cell; white-space: nowrap; line-height: 1.5; max-width: 303px; text-align: center;"><span class="nodeLabel markdown-node-label" style=""><p>+handle(Command command)</p></span></div></foreignObject></g></g><g class="divider" style=""><path d="M-176.05078125 -3 C-51.34904894314302 -2.9996458359019442, 73.35268336371396 -2.9992916718038884, 176.05078125 -2.999 M-176.05078125 -3 C-78.12588868999843 -2.99972188452711, 19.799003870003133 -2.99944376905422, 176.05078125 -2.999" stroke="#9370DB" stroke-width="1.3" fill="none" stroke-dasharray="0 0" style=""/></g><g class="divider" style=""><path d="M-176.05078125 21 C-58.65460445313383 21.000333415665537, 58.741572343732344 21.00066683133107, 176.05078125 21.001 M-176.05078125 21 C-75.8250920883597 21.000284649941484, 24.400597073280608 21.000569299882965, 176.05078125 21.001" stroke="#9370DB" stroke-width="1.3" fill="none" stroke-dasharray="0 0" style=""/></g></g><g class="node default" id="my-svg-classId-RemoteCommandType-2" data-look="classic" transform="translate(221.55078125, 363)"><g class="basic label-container outer-path"><path d="M-112.40625 -120 L112.40625 -120 L112.40625 120 L-112.40625 120" stroke="none" stroke-width="0" fill="#ECECFF" style=""/><path d="M-112.40625 -120 C-32.038829948156064 -120, 48.32859010368787 -120, 112.40625 -120 M-112.40625 -120 C-30.833046530251295 -120, 50.74015693949741 -120, 112.40625 -120 M112.40625 -120 C112.40625 -32.44821937881079, 112.40625 55.10356124237842, 112.40625 120 M112.40625 -120 C112.40625 -70.10627916643698, 112.40625 -20.212558332873954, 112.40625 120 M112.40625 120 C58.40289736352306 120, 4.39954472704612 120, -112.40625 120 M112.40625 120 C38.86447753052633 120, -34.67729493894734 120, -112.40625 120 M-112.40625 120 C-112.40625 38.59284936150844, -112.40625 -42.814301276983116, -112.40625 -120 M-112.40625 120 C-112.40625 55.588948329925, -112.40625 -8.822103340149994, -112.40625 -120" stroke="#9370DB" stroke-width="1.3" fill="none" stroke-dasharray="0 0" style=""/></g><g class="annotation-group text" transform="translate(-32.6484375, -96)"><g class="label" style="" transform="translate(0,-12)"><foreignObject width="65.296875" height="24"><div xmlns="http://www.w3.org/1999/xhtml" style="display: table-cell; white-space: nowrap; line-height: 1.5; max-width: 116px; text-align: center;"><span class="nodeLabel markdown-node-label" style=""><p>«enum»</p></span></div></foreignObject></g></g><g class="label-group text" transform="translate(-100.40625, -72)"><g class="label" style="font-weight: bolder" transform="translate(0,-12)"><foreignObject width="200.8125" height="24"><div xmlns="http://www.w3.org/1999/xhtml" style="display: table-cell; white-space: nowrap; line-height: 1.5; max-width: 232px; text-align: center;"><span class="nodeLabel markdown-node-label" style=""><p>RemoteCommandType</p></span></div></foreignObject></g></g><g class="members-group text" transform="translate(-100.40625, -24)"><g class="label" style="" transform="translate(0,-12)"><foreignObject width="73.796875" height="24"><div xmlns="http://www.w3.org/1999/xhtml" style="display: table-cell; white-space: nowrap; line-height: 1.5; max-width: 124px; text-align: center;"><span class="nodeLabel markdown-node-label" style=""><p>STANDBY</p></span></div></foreignObject></g><g class="label" style="" transform="translate(0,12)"><foreignObject width="46.5" height="24"><div xmlns="http://www.w3.org/1999/xhtml" style="display: table-cell; white-space: nowrap; line-height: 1.5; max-width: 97px; text-align: center;"><span class="nodeLabel markdown-node-label" style=""><p>WAKE</p></span></div></foreignObject></g><g class="label" style="" transform="translate(0,36)"><foreignObject width="70.59375" height="24"><div xmlns="http://www.w3.org/1999/xhtml" style="display: table-cell; white-space: nowrap; line-height: 1.5; max-width: 121px; text-align: center;"><span class="nodeLabel markdown-node-label" style=""><p>RESTART</p></span></div></foreignObject></g><g class="label" style="" transform="translate(0,60)"><foreignObject width="63.203125" height="24"><div xmlns="http://www.w3.org/1999/xhtml" style="display: table-cell; white-space: nowrap; line-height: 1.5; max-width: 114px; text-align: center;"><span class="nodeLabel markdown-node-label" style=""><p>REPORT</p></span></div></foreignObject></g><g class="label" style="" transform="translate(0,84)"><foreignObject width="86.78125" height="24"><div xmlns="http://www.w3.org/1999/xhtml" style="display: table-cell; white-space: nowrap; line-height: 1.5; max-width: 137px; text-align: center;"><span class="nodeLabel markdown-node-label" style=""><p>CALIBRATE</p></span></div></foreignObject></g></g><g class="methods-group text" transform="translate(-100.40625, 120)"/><g class="divider" style=""><path d="M-112.40625 -48 C-45.48673282724013 -47.9997023318669, 21.432784345519735 -47.9994046637338, 112.40625 -47.999 M-112.40625 -48 C-44.07429962752013 -47.999696049150415, 24.257650744959733 -47.99939209830083, 112.40625 -47.999" stroke="#9370DB" stroke-width="1.3" fill="none" stroke-dasharray="0 0" style=""/></g><g class="divider" style=""><path d="M-112.40625 96 C-60.559516790039524 96.00023062211046, -8.712783580079048 96.00046124422094, 112.40625 96.001 M-112.40625 96 C-61.21204921260098 96.00022771954757, -10.017848425201962 96.00045543909513, 112.40625 96.001" stroke="#9370DB" stroke-width="1.3" fill="none" stroke-dasharray="0 0" style=""/></g></g><g class="node default" id="my-svg-classId-CommandResult-3" data-look="classic" transform="translate(746.109375, 363)"><g class="basic label-container outer-path"><path d="M-184.1015625 -84 L184.1015625 -84 L184.1015625 84 L-184.1015625 84" stroke="none" stroke-width="0" fill="#ECECFF" style=""/><path d="M-184.1015625 -84 C-55.07582802863902 -84, 73.94990644272195 -84, 184.1015625 -84 M-184.1015625 -84 C-106.08022373115035 -84, -28.05888496230071 -84, 184.1015625 -84 M184.1015625 -84 C184.1015625 -45.56883102802705, 184.1015625 -7.137662056054097, 184.1015625 84 M184.1015625 -84 C184.1015625 -17.583479674268716, 184.1015625 48.83304065146257, 184.1015625 84 M184.1015625 84 C107.90427548412639 84, 31.706988468252774 84, -184.1015625 84 M184.1015625 84 C93.80220909723295 84, 3.502855694465893 84, -184.1015625 84 M-184.1015625 84 C-184.1015625 43.43421632027323, -184.1015625 2.868432640546459, -184.1015625 -84 M-184.1015625 84 C-184.1015625 49.82360812780017, -184.1015625 15.647216255600341, -184.1015625 -84" stroke="#9370DB" stroke-width="1.3" fill="none" stroke-dasharray="0 0" style=""/></g><g class="annotation-group text" transform="translate(0, -60)"/><g class="label-group text" transform="translate(-73.46875, -60)"><g class="label" style="font-weight: bolder" transform="translate(0,-12)"><foreignObject width="146.9375" height="24"><div xmlns="http://www.w3.org/1999/xhtml" style="display: table-cell; white-space: nowrap; line-height: 1.5; max-width: 181px; text-align: center;"><span class="nodeLabel markdown-node-label" style=""><p>CommandResult</p></span></div></foreignObject></g></g><g class="members-group text" transform="translate(-172.1015625, -12)"><g class="label" style="" transform="translate(0,-12)"><foreignObject width="115.265625" height="24"><div xmlns="http://www.w3.org/1999/xhtml" style="display: table-cell; white-space: nowrap; line-height: 1.5; max-width: 169px; text-align: center;"><span class="nodeLabel markdown-node-label" style=""><p>+bool success</p></span></div></foreignObject></g><g class="label" style="" transform="translate(0,12)"><foreignObject width="175.09375" height="24"><div xmlns="http://www.w3.org/1999/xhtml" style="display: table-cell; white-space: nowrap; line-height: 1.5; max-width: 229px; text-align: center;"><span class="nodeLabel markdown-node-label" style=""><p>+String failureReason</p></span></div></foreignObject></g><g class="label" style="" transform="translate(0,36)"><foreignObject width="270.734375" height="24"><div xmlns="http://www.w3.org/1999/xhtml" style="display: table-cell; white-space: nowrap; line-height: 1.5; max-width: 324px; text-align: center;"><span class="nodeLabel markdown-node-label" style=""><p>+unsigned long executionTimeMs</p></span></div></foreignObject></g></g><g class="methods-group text" transform="translate(-172.1015625, 84)"/><g class="divider" style=""><path d="M-184.1015625 -36 C-109.62010166814396 -35.99979771638051, -35.13864083628792 -35.999595432761026, 184.1015625 -35.999 M-184.1015625 -36 C-82.5323860263995 -35.999724149064534, 19.036790447201014 -35.99944829812907, 184.1015625 -35.999" stroke="#9370DB" stroke-width="1.3" fill="none" stroke-dasharray="0 0" style=""/></g><g class="divider" style=""><path d="M-184.1015625 60 C-51.23613316645202 60.000360848184904, 81.62929616709596 60.000721696369816, 184.1015625 60.001 M-184.1015625 60 C-56.73712474026604 60.000345908084725, 70.62731301946792 60.00069181616946, 184.1015625 60.001" stroke="#9370DB" stroke-width="1.3" fill="none" stroke-dasharray="0 0" style=""/></g></g></g></g></g></g></g><defs><filter id="my-svg-drop-shadow" height="130%" width="130%"><feDropShadow dx="4" dy="4" stdDeviation="0" flood-opacity="0.06" flood-color="#000000"/></filter></defs><defs><filter id="my-svg-drop-shadow-small" height="150%" width="150%"><feDropShadow dx="2" dy="2" stdDeviation="0" flood-opacity="0.06" flood-color="#000000"/></filter></defs><text text-anchor="middle" x="479.85546875" y="-25" class="classDiagramTitleText">Device Command - Domain Layer Class Diagram</text></svg>