<svg xmlns="http://www.w3.org/2000/svg" xmlns:xlink="http://www.w3.org/1999/xlink" version="1.1" style="background: #111111" viewBox="0 0 2380 2100"><style id="v-3" type="text/css">        .joint-element .scalable * {            vector-effect: non-scaling-stroke;        }    </style><defs joint-selector="defs"><marker id="v-2-527367903" orient="auto" overflow="visible" markerUnits="userSpaceOnUse"><path id="v-115" stroke="#cccccc" fill="#cccccc" transform="rotate(180)" d="M 20 -10 0 0 20 10 Z"></path></marker></defs><g joint-selector="layers"  transform="matrix(1,0,0,1,0,0)"><g  style="pointer-events: none;"></g><g ></g><g  style="user-select: none;"><!--z-index:0--><!--z-index:1--><!--z-index:2--><!--z-index:3--><!--z-index:4--><!--z-index:5--><!--z-index:6--><!--z-index:7--><!--z-index:8--><!--z-index:9--><!--z-index:10--><!--z-index:11--><!--z-index:12--><!--z-index:13--><!--z-index:14--><!--z-index:15--><!--z-index:16--><!--z-index:17--><!--z-index:18--><g   id="j_441"  transform="translate(20,2056)"><g id="v-5739"><text  id="v-5740" font-size="24px" xml:space="preserve" y="0.8em" font-weight="normal" text-anchor="start" fill="#cccccc" pointer-events="none" display="block" font-family="Tahoma, Verdana, Helvetica, Arial"><tspan dy="0" >Friday, June 5, 2026 at 3:48 PM Peru Standard Time</tspan></text></g></g><!--z-index:19--><g   id="j_440"  transform="translate(20,2022)"><g id="v-5737"><text  id="v-5738" font-size="24px" xml:space="preserve" y="0.8em" font-weight="normal" text-anchor="start" fill="#cccccc" pointer-events="none" display="block" font-family="Tahoma, Verdana, Helvetica, Arial"><tspan dy="0" >System Context diagram for the Vanana Platform</tspan></text></g></g><!--z-index:20--><g   id="j_439"  transform="translate(20,1976)"><g id="v-5735"><text  id="v-5736" font-size="36px" xml:space="preserve" y="0.8em" font-weight="normal" text-anchor="start" fill="#cccccc" pointer-events="none" display="block" font-family="Tahoma, Verdana, Helvetica, Arial"><tspan dy="0" >System Context View: Vanana Platform</tspan></text></g></g><!--z-index:21--><g   id="j_442"  transform="translate(199,529)" style=""><g  id="v-5747" style="opacity: 1;"><rect  x="0" y="160" width="400" height="240" rx="70" id="v-5749" stroke-width="2" pointer-events="visiblePainted" fill="#374151" stroke="#323b49" stroke-dasharray="" style="fill: rgb(55, 65, 81); stroke: rgb(50, 59, 73);"></rect><circle  cx="200" cy="88.88888888888889" r="88.88888888888889" id="v-5748" stroke-width="2" pointer-events="visiblePainted" fill="#374151" stroke="#323b49" stroke-dasharray="" style="fill: rgb(55, 65, 81); stroke: rgb(50, 59, 73);"></circle><line  x1="80" y1="266.6666666666667" x2="80" y2="400" id="v-5755" stroke="#323b49" stroke-width="1" stroke-dasharray="" style="stroke: rgb(50, 59, 73);"></line><line  x1="320" y1="266.6666666666667" x2="320" y2="400" id="v-5756" stroke="#323b49" stroke-width="1" stroke-dasharray="" style="stroke: rgb(50, 59, 73);"></line><text  id="v-5750" font-size="33.599999999999994px" xml:space="preserve" y="202.5" font-weight="bold" text-anchor="middle" pointer-events="visible" font-family="Tahoma, Verdana, Helvetica, Arial" fill="#ffffff" dominant-baseline="hanging" transform="matrix(1,0,0,1,200,0)" style="fill: rgb(255, 255, 255);"><tspan dy="0" >Facility Admin</tspan></text><text  id="v-5751" font-size="16.799999999999997px" xml:space="preserve" y="244.1" text-anchor="middle" font-family="Tahoma, Verdana, Helvetica, Arial" fill="#ffffff" dominant-baseline="hanging" transform="matrix(1,0,0,1,200,0)" style="display: block; fill: rgb(255, 255, 255);"><tspan dy="0" >[Person]</tspan></text><text  id="v-5752" font-size="24px" xml:space="preserve" y="275.9" text-anchor="middle" font-family="Tahoma, Verdana, Helvetica, Arial" fill="#ffffff" dominant-baseline="hanging" transform="matrix(1,0,0,1,200,0)" style="display: block; fill: rgb(255, 255, 255);"><tspan dy="0" >Owner or operator of multiple</tspan><tspan dy="1.2em" x="0" >air sensors across one or more</tspan><tspan dy="1.2em" x="0" >facilities or locations.</tspan></text><g  id="v-5753" font-weight="normal" text-anchor="middle" color="#ffffff" transform="matrix(1,0,0,1,197.5,368)" style="fill: rgb(255, 255, 255);" display="none"><g ></g><g ></g><g ></g><g ></g></g><image  id="v-5754"></image></g></g><!--z-index:22--><g   id="j_443"  transform="translate(199,979)" style=""><g  id="v-5760" style="opacity: 1;"><rect  x="0" y="160" width="400" height="240" rx="70" id="v-5762" stroke-width="2" pointer-events="visiblePainted" fill="#374151" stroke="#323b49" stroke-dasharray="" style="fill: rgb(55, 65, 81); stroke: rgb(50, 59, 73);"></rect><circle  cx="200" cy="88.88888888888889" r="88.88888888888889" id="v-5761" stroke-width="2" pointer-events="visiblePainted" fill="#374151" stroke="#323b49" stroke-dasharray="" style="fill: rgb(55, 65, 81); stroke: rgb(50, 59, 73);"></circle><line  x1="80" y1="266.6666666666667" x2="80" y2="400" id="v-5768" stroke="#323b49" stroke-width="1" stroke-dasharray="" style="stroke: rgb(50, 59, 73);"></line><line  x1="320" y1="266.6666666666667" x2="320" y2="400" id="v-5769" stroke="#323b49" stroke-width="1" stroke-dasharray="" style="stroke: rgb(50, 59, 73);"></line><text  id="v-5763" font-size="33.599999999999994px" xml:space="preserve" y="216.9" font-weight="bold" text-anchor="middle" pointer-events="visible" font-family="Tahoma, Verdana, Helvetica, Arial" fill="#ffffff" dominant-baseline="hanging" transform="matrix(1,0,0,1,200,0)" style="fill: rgb(255, 255, 255);"><tspan dy="0" >Home User</tspan></text><text  id="v-5764" font-size="16.799999999999997px" xml:space="preserve" y="258.5" text-anchor="middle" font-family="Tahoma, Verdana, Helvetica, Arial" fill="#ffffff" dominant-baseline="hanging" transform="matrix(1,0,0,1,200,0)" style="display: block; fill: rgb(255, 255, 255);"><tspan dy="0" >[Person]</tspan></text><text  id="v-5765" font-size="24px" xml:space="preserve" y="290.3" text-anchor="middle" font-family="Tahoma, Verdana, Helvetica, Arial" fill="#ffffff" dominant-baseline="hanging" transform="matrix(1,0,0,1,200,0)" style="display: block; fill: rgb(255, 255, 255);"><tspan dy="0" >Customer who owns or uses a</tspan><tspan dy="1.2em" x="0" >personal air sensor at home.</tspan></text><g  id="v-5766" font-weight="normal" text-anchor="middle" color="#ffffff" transform="matrix(1,0,0,1,197.5,368)" style="fill: rgb(255, 255, 255);" display="none"><g ></g><g ></g><g ></g><g ></g></g><image  id="v-5767"></image></g></g><!--z-index:23--><g   id="j_444"  transform="translate(939,753)" style=""><g  id="v-5773" style="opacity: 1;"><rect  id="v-5774" rx="1" ry="1" stroke-width="2" pointer-events="visiblePainted" fill="#2563eb" stroke="#2159d4" stroke-dasharray="" width="450" height="300" style="fill: rgb(37, 99, 235); stroke: rgb(33, 89, 212);"></rect><text  id="v-5775" font-size="33.599999999999994px" xml:space="preserve" y="72.5" font-weight="bold" text-anchor="middle" pointer-events="visible" font-family="Tahoma, Verdana, Helvetica, Arial" fill="#ffffff" dominant-baseline="hanging" transform="matrix(1,0,0,1,225,0)" style="fill: rgb(255, 255, 255);"><tspan dy="0" >Vanana Platform</tspan></text><text  id="v-5776" font-size="16.799999999999997px" xml:space="preserve" y="114.1" text-anchor="middle" font-family="Tahoma, Verdana, Helvetica, Arial" fill="#ffffff" dominant-baseline="hanging" transform="matrix(1,0,0,1,225,0)" style="display: block; fill: rgb(255, 255, 255);"><tspan dy="0" >[Software System]</tspan></text><text  id="v-5777" font-size="24px" xml:space="preserve" y="145.89999999999998" text-anchor="middle" font-family="Tahoma, Verdana, Helvetica, Arial" fill="#ffffff" dominant-baseline="hanging" transform="matrix(1,0,0,1,225,0)" style="display: block; fill: rgb(255, 255, 255);"><tspan dy="0" >Central platform for monitoring,</tspan><tspan dy="1.2em" x="0" >controlling, and automating IoT</tspan><tspan dy="1.2em" x="0" >devices.</tspan></text><g  id="v-5778" color="#ffffff" transform="matrix(1,0,0,1,210,268)" style="fill: rgb(255, 255, 255);" display="none"><g  transform="translate(5 0)"><svg xmlns="http://www.w3.org/2000/svg" width="20" height="20" fill="currentColor" viewBox="0 0 16 16"><path fill-rule="evenodd" d="M6.5 12a5.5 5.5 0 1 0 0-11 5.5 5.5 0 0 0 0 11zM13 6.5a6.5 6.5 0 1 1-13 0 6.5 6.5 0 0 1 13 0z"></path><path d="M10.344 11.742c.03.04.062.078.098.115l3.85 3.85a1 1 0 0 0 1.415-1.414l-3.85-3.85a1.007 1.007 0 0 0-.115-.1 6.538 6.538 0 0 1-1.398 1.4z"></path><path fill-rule="evenodd" d="M6.5 3a.5.5 0 0 1 .5.5V6h2.5a.5.5 0 0 1 0 1H7v2.5a.5.5 0 0 1-1 0V7H3.5a.5.5 0 0 1 0-1H6V3.5a.5.5 0 0 1 .5-.5z"></path></svg></g><g ></g><g ></g><g ></g></g><image  id="v-5779"></image></g></g><!--z-index:24--><g   id="j_445"  transform="translate(1729,492)" style=""><g  id="v-5783" style="opacity: 1;"><rect  id="v-5784" rx="1" ry="1" stroke-width="2" pointer-events="visiblePainted" fill="#ea580c" stroke="#d34f0b" stroke-dasharray="" width="450" height="300" style="fill: rgb(234, 88, 12); stroke: rgb(211, 79, 11);"></rect><text  id="v-5785" font-size="33.599999999999994px" xml:space="preserve" y="86.9" font-weight="bold" text-anchor="middle" pointer-events="visible" font-family="Tahoma, Verdana, Helvetica, Arial" fill="#ffffff" dominant-baseline="hanging" transform="matrix(1,0,0,1,225,0)" style="fill: rgb(255, 255, 255);"><tspan dy="0" >Clair Hardware</tspan></text><text  id="v-5786" font-size="16.799999999999997px" xml:space="preserve" y="128.5" text-anchor="middle" font-family="Tahoma, Verdana, Helvetica, Arial" fill="#ffffff" dominant-baseline="hanging" transform="matrix(1,0,0,1,225,0)" style="display: block; fill: rgb(255, 255, 255);"><tspan dy="0" >[Software System]</tspan></text><text  id="v-5787" font-size="24px" xml:space="preserve" y="160.3" text-anchor="middle" font-family="Tahoma, Verdana, Helvetica, Arial" fill="#ffffff" dominant-baseline="hanging" transform="matrix(1,0,0,1,225,0)" style="display: block; fill: rgb(255, 255, 255);"><tspan dy="0" >Physical devices (sensors and</tspan><tspan dy="1.2em" x="0" >actuators) installed on-site.</tspan></text><g  id="v-5788" color="#ffffff" transform="matrix(1,0,0,1,222.5,268)" style="fill: rgb(255, 255, 255);" display="none"><g ></g><g ></g><g ></g><g ></g></g><image  id="v-5789"></image></g></g><!--z-index:25--><g   id="j_446"  transform="translate(1729,842)" style=""><g  id="v-5793" style="opacity: 1;"><rect  id="v-5794" rx="1" ry="1" stroke-width="2" pointer-events="visiblePainted" fill="#4285f4" stroke="#3b78dc" stroke-dasharray="" width="450" height="300" style="fill: rgb(66, 133, 244); stroke: rgb(59, 120, 220);"></rect><text  id="v-5795" font-size="33.599999999999994px" xml:space="preserve" y="86.9" font-weight="bold" text-anchor="middle" pointer-events="visible" font-family="Tahoma, Verdana, Helvetica, Arial" fill="#ffffff" dominant-baseline="hanging" transform="matrix(1,0,0,1,225,0)" style="fill: rgb(255, 255, 255);"><tspan dy="0" >Google OAuth2</tspan></text><text  id="v-5796" font-size="16.799999999999997px" xml:space="preserve" y="128.5" text-anchor="middle" font-family="Tahoma, Verdana, Helvetica, Arial" fill="#ffffff" dominant-baseline="hanging" transform="matrix(1,0,0,1,225,0)" style="display: block; fill: rgb(255, 255, 255);"><tspan dy="0" >[Software System]</tspan></text><text  id="v-5797" font-size="24px" xml:space="preserve" y="160.3" text-anchor="middle" font-family="Tahoma, Verdana, Helvetica, Arial" fill="#ffffff" dominant-baseline="hanging" transform="matrix(1,0,0,1,225,0)" style="display: block; fill: rgb(255, 255, 255);"><tspan dy="0" >External service for secure user</tspan><tspan dy="1.2em" x="0" >authentication.</tspan></text><g  id="v-5798" color="#ffffff" transform="matrix(1,0,0,1,222.5,268)" style="fill: rgb(255, 255, 255);" display="none"><g ></g><g ></g><g ></g><g ></g></g><image  id="v-5799"></image></g></g><!--z-index:26--><g   id="j_447"  transform="translate(1729,1192)" style=""><g  id="v-5803" style="opacity: 1;"><rect  id="v-5804" rx="1" ry="1" stroke-width="2" pointer-events="visiblePainted" fill="#635bff" stroke="#5952e6" stroke-dasharray="" width="450" height="300" style="fill: rgb(99, 91, 255); stroke: rgb(89, 82, 230);"></rect><text  id="v-5805" font-size="33.599999999999994px" xml:space="preserve" y="72.5" font-weight="bold" text-anchor="middle" pointer-events="visible" font-family="Tahoma, Verdana, Helvetica, Arial" fill="#ffffff" dominant-baseline="hanging" transform="matrix(1,0,0,1,225,0)" style="fill: rgb(255, 255, 255);"><tspan dy="0" >Stripe</tspan></text><text  id="v-5806" font-size="16.799999999999997px" xml:space="preserve" y="114.1" text-anchor="middle" font-family="Tahoma, Verdana, Helvetica, Arial" fill="#ffffff" dominant-baseline="hanging" transform="matrix(1,0,0,1,225,0)" style="display: block; fill: rgb(255, 255, 255);"><tspan dy="0" >[Software System]</tspan></text><text  id="v-5807" font-size="24px" xml:space="preserve" y="145.89999999999998" text-anchor="middle" font-family="Tahoma, Verdana, Helvetica, Arial" fill="#ffffff" dominant-baseline="hanging" transform="matrix(1,0,0,1,225,0)" style="display: block; fill: rgb(255, 255, 255);"><tspan dy="0" >External platform for payment</tspan><tspan dy="1.2em" x="0" >processing and subscription</tspan><tspan dy="1.2em" x="0" >management.</tspan></text><g  id="v-5808" color="#ffffff" transform="matrix(1,0,0,1,222.5,268)" style="fill: rgb(255, 255, 255);" display="none"><g ></g><g ></g><g ></g><g ></g></g><image  id="v-5809"></image></g></g><!--z-index:27--><g   id="j_448"  transform="translate(1729,142)" style=""><g  id="v-5813" style="opacity: 1;"><rect  id="v-5814" rx="1" ry="1" stroke-width="2" pointer-events="visiblePainted" fill="#14b8a6" stroke="#12a695" stroke-dasharray="" width="450" height="300" style="fill: rgb(20, 184, 166); stroke: rgb(18, 166, 149);"></rect><text  id="v-5815" font-size="33.599999999999994px" xml:space="preserve" y="86.9" font-weight="bold" text-anchor="middle" pointer-events="visible" font-family="Tahoma, Verdana, Helvetica, Arial" fill="#ffffff" dominant-baseline="hanging" transform="matrix(1,0,0,1,225,0)" style="fill: rgb(255, 255, 255);"><tspan dy="0" >OneSignal</tspan></text><text  id="v-5816" font-size="16.799999999999997px" xml:space="preserve" y="128.5" text-anchor="middle" font-family="Tahoma, Verdana, Helvetica, Arial" fill="#ffffff" dominant-baseline="hanging" transform="matrix(1,0,0,1,225,0)" style="display: block; fill: rgb(255, 255, 255);"><tspan dy="0" >[Software System]</tspan></text><text  id="v-5817" font-size="24px" xml:space="preserve" y="160.3" text-anchor="middle" font-family="Tahoma, Verdana, Helvetica, Arial" fill="#ffffff" dominant-baseline="hanging" transform="matrix(1,0,0,1,225,0)" style="display: block; fill: rgb(255, 255, 255);"><tspan dy="0" >External platform for push</tspan><tspan dy="1.2em" x="0" >notifications.</tspan></text><g  id="v-5818" color="#ffffff" transform="matrix(1,0,0,1,222.5,268)" style="fill: rgb(255, 255, 255);" display="none"><g ></g><g ></g><g ></g><g ></g></g><image  id="v-5819"></image></g></g><!--z-index:28--><g   id="j_449"  transform="translate(1729,1542)" style=""><g  id="v-5823" style="opacity: 1;"><rect  id="v-5824" rx="1" ry="1" stroke-width="2" pointer-events="visiblePainted" fill="#000000" stroke="#000000" stroke-dasharray="" width="450" height="300" style="fill: rgb(0, 0, 0); stroke: rgb(0, 0, 0);"></rect><text  id="v-5825" font-size="33.599999999999994px" xml:space="preserve" y="86.9" font-weight="bold" text-anchor="middle" pointer-events="visible" font-family="Tahoma, Verdana, Helvetica, Arial" fill="#ffffff" dominant-baseline="hanging" transform="matrix(1,0,0,1,225,0)" style="fill: rgb(255, 255, 255);"><tspan dy="0" >Resend</tspan></text><text  id="v-5826" font-size="16.799999999999997px" xml:space="preserve" y="128.5" text-anchor="middle" font-family="Tahoma, Verdana, Helvetica, Arial" fill="#ffffff" dominant-baseline="hanging" transform="matrix(1,0,0,1,225,0)" style="display: block; fill: rgb(255, 255, 255);"><tspan dy="0" >[Software System]</tspan></text><text  id="v-5827" font-size="24px" xml:space="preserve" y="160.3" text-anchor="middle" font-family="Tahoma, Verdana, Helvetica, Arial" fill="#ffffff" dominant-baseline="hanging" transform="matrix(1,0,0,1,225,0)" style="display: block; fill: rgb(255, 255, 255);"><tspan dy="0" >External platform for transactional</tspan><tspan dy="1.2em" x="0" >email delivery.</tspan></text><g  id="v-5828" color="#ffffff" transform="matrix(1,0,0,1,222.5,268)" style="fill: rgb(255, 255, 255);" display="none"><g ></g><g ></g><g ></g><g ></g></g><image  id="v-5829"></image></g></g><!--z-index:29--><g   id="j_450"  style="opacity: 1;"><path fill="none" cursor="pointer" stroke="transparent" stroke-linecap="round" joint-selector="wrapper" id="v-5844" stroke-width="10" stroke-linejoin="round" d="M 1260.97 753 L 1554 300 C 1557.3333333333333 294.66666666666663 1562.3333333333333 292 1569 292 L 1729 292"></path><path fill="none" pointer-events="none" joint-selector="line" id="v-5843" stroke="#cccccc" stroke-width="2" stroke-linejoin="round" stroke-dasharray="8 8" d="M 1260.97 753 L 1554 300 C 1557.3333333333333 294.66666666666663 1562.3333333333333 292 1569 292 L 1729 292" marker-end="url(#v-2-527367903)"></path><g id="v-5833" ><g id="v-5834"  label-idx="0" cursor="move" transform="matrix(1,0,0,1,1559.8436279296875,280.8247375488281)" style="cursor: default;"><rect joint-selector="rect" id="v-5838" fill="#111111" rx="3" ry="3" x="-81.83706665039062" y="-16.11881446838379" width="163.67413330078125" height="28.315704345703125" pointer-events="none"  style="display: block;"></rect><text joint-selector="text" id="v-5837" font-size="24px" xml:space="preserve" fill="#cccccc" text-anchor="middle" pointer-events="none" font-family="Tahoma, Verdana, Helvetica, Arial" font-weight="normal"  style="display: block;"><tspan dy="0.3em" >Uses OneSignal</tspan></text></g><g id="v-5835"  label-idx="1" cursor="move" transform="matrix(1,0,0,1,1559.8436279296875,311.2247314453125)" style="cursor: default;"><rect joint-selector="rect" id="v-5840" fill="#111111" rx="3" ry="3" x="-61.6282958984375" y="-11.616296768188477" width="123.48723602294922" height="19.98755645751953"  pointer-events="none" style="display: block;"></rect><text joint-selector="text" id="v-5839" font-size="16.799999999999997px" xml:space="preserve" fill="#cccccc" text-anchor="middle" pointer-events="none" font-family="Tahoma, Verdana, Helvetica, Arial" font-weight="normal"  style="display: block;"><tspan dy="0.3em" >[OneSignal SDK]</tspan></text></g><g id="v-5836"  label-idx="2" cursor="move" transform="matrix(1,0,0,1,1445.7779541015625,477.2430725097656)" style="cursor: default;"><rect joint-selector="rect" id="v-5842" fill="#ffffff" rx="3" ry="3" x="-2.2737367544323206e-13" y="-5.684341886080802e-14" width="0" height="0"  display="none"></rect><text joint-selector="text" id="v-5841" fill="#000000" font-size="14" text-anchor="middle" text-vertical-anchor="middle" pointer-events="none"></text></g></g></g><!--z-index:30--><g   id="j_451"  style="opacity: 1;"><path fill="none" cursor="pointer" stroke="transparent" stroke-linecap="round" joint-selector="wrapper" id="v-5859" stroke-width="10" stroke-linejoin="round" d="M 1729 691.22 L 1569 726 C 1562.3333333333333 727.5999999999999 1556 729.5999999999999 1550 732 L 1389 803.54"></path><path fill="none" pointer-events="none" joint-selector="line" id="v-5858" stroke="#cccccc" stroke-width="2" stroke-linejoin="round" stroke-dasharray="8 8" d="M 1729 691.22 L 1569 726 C 1562.3333333333333 727.5999999999999 1556 729.5999999999999 1550 732 L 1389 803.54" marker-end="url(#v-2-527367903)"></path><g id="v-5848" ><g id="v-5849"  label-idx="0" cursor="move" transform="matrix(1,0,0,1,1559.138671875,715.335205078125)" style="cursor: default;"><rect joint-selector="rect" id="v-5853" fill="#111111" rx="3" ry="3" x="-77.68600463867188" y="-59.318817138671875" width="156.31874084472656" height="114.71570587158203" pointer-events="none"  style="display: block;"></rect><text joint-selector="text" id="v-5852" font-size="24px" xml:space="preserve" fill="#cccccc" text-anchor="middle" pointer-events="none" font-family="Tahoma, Verdana, Helvetica, Arial" font-weight="normal"  style="display: block;"><tspan dy="-1.4999999999999998em" >Provides raw</tspan><tspan dy="1.2em" x="0" >measurements</tspan><tspan dy="1.2em" x="0" >and actuator</tspan><tspan dy="1.2em" x="0" >interfaces</tspan></text></g><g id="v-5850"  label-idx="1" cursor="move" transform="matrix(1,0,0,1,1559.138671875,788.9351806640625)" style="cursor: default;"><rect joint-selector="rect" id="v-5855" fill="#111111" rx="3" ry="3" x="-65.36295318603516" y="-11.616296768188477" width="130.9541778564453" height="19.98755645751953"  pointer-events="none" style="display: block;"></rect><text joint-selector="text" id="v-5854" font-size="16.799999999999997px" xml:space="preserve" fill="#cccccc" text-anchor="middle" pointer-events="none" font-family="Tahoma, Verdana, Helvetica, Arial" font-weight="normal"  style="display: block;"><tspan dy="0.3em" >[GPIO/I2C/UART]</tspan></text></g><g id="v-5851"  label-idx="2" cursor="move" transform="matrix(1,0,0,1,1543.517822265625,799.252685546875)" style="cursor: default;"><rect joint-selector="rect" id="v-5857" fill="#ffffff" rx="3" ry="3" x="0" y="0" width="0" height="0"  display="none"></rect><text joint-selector="text" id="v-5856" fill="#000000" font-size="14" text-anchor="middle" text-vertical-anchor="middle" pointer-events="none"></text></g></g></g><!--z-index:31--><g   id="j_452"  style="opacity: 1;"><path fill="none" cursor="pointer" stroke="transparent" stroke-linecap="round" joint-selector="wrapper" id="v-5871" stroke-width="10" stroke-linejoin="round" d="M 599 729.35 L 759 730 C 765.6666666666666 729.7666666666667 772 731.0999999999999 778 734 L 939 804.26"></path><path fill="none" pointer-events="none" joint-selector="line" id="v-5870" stroke="#cccccc" stroke-width="2" stroke-linejoin="round" stroke-dasharray="8 8" d="M 599 729.35 L 759 730 C 765.6666666666666 729.7666666666667 772 731.0999999999999 778 734 L 939 804.26" marker-end="url(#v-2-527367903)"></path><g id="v-5863" ><g id="v-5864"  label-idx="0" cursor="move" transform="matrix(1,0,0,1,768.712890625,730.8171997070312)" style="cursor: default;"><rect joint-selector="rect" id="v-5867" fill="#111111" rx="3" ry="3" x="-93.02801513671875" y="-73.71881103515625" width="186.18978881835938" height="143.51571655273438" pointer-events="none"  style="display: block;"></rect><text joint-selector="text" id="v-5866" font-size="24px" xml:space="preserve" fill="#cccccc" text-anchor="middle" pointer-events="none" font-family="Tahoma, Verdana, Helvetica, Arial" font-weight="normal"  style="display: block;"><tspan dy="-2.1em" >Manages multiple</tspan><tspan dy="1.2em" x="0" >facilities, sensors,</tspan><tspan dy="1.2em" x="0" >and air quality</tspan><tspan dy="1.2em" x="0" >monitoring</tspan><tspan dy="1.2em" x="0" >operations</tspan></text></g><g id="v-5865"  label-idx="1" cursor="move" transform="matrix(1,0,0,1,758.712890625,800.4171752929688)" style="cursor: default;"><rect joint-selector="rect" id="v-5869" fill="#ffffff" rx="3" ry="3" x="-1.1368683772161603e-13" y="0" width="0" height="0"  display="none"></rect><text joint-selector="text" id="v-5868" fill="#000000" font-size="14" text-anchor="middle" text-vertical-anchor="middle" pointer-events="none"></text></g></g></g><!--z-index:32--><g   id="j_453"  style="opacity: 1;"><path fill="none" cursor="pointer" stroke="transparent" stroke-linecap="round" joint-selector="wrapper" id="v-5883" stroke-width="10" stroke-linejoin="round" d="M 599 1179.35 L 759 1180 C 765.6666666666666 1179.7666666666667 771.6666666666666 1177.7666666666667 777 1174 L 949.83 1053"></path><path fill="none" pointer-events="none" joint-selector="line" id="v-5882" stroke="#cccccc" stroke-width="2" stroke-linejoin="round" stroke-dasharray="8 8" d="M 599 1179.35 L 759 1180 C 765.6666666666666 1179.7666666666667 771.6666666666666 1177.7666666666667 777 1174 L 949.83 1053" marker-end="url(#v-2-527367903)"></path><g id="v-5875" ><g id="v-5876"  label-idx="0" cursor="move" transform="matrix(1,0,0,1,768.78076171875,1178.22998046875)" style="cursor: default;"><rect joint-selector="rect" id="v-5879" fill="#111111" rx="3" ry="3" x="-90.86790466308594" y="-73.71881103515625" width="182.6875457763672" height="143.51571655273438" pointer-events="none"  style="display: block;"></rect><text joint-selector="text" id="v-5878" font-size="24px" xml:space="preserve" fill="#cccccc" text-anchor="middle" pointer-events="none" font-family="Tahoma, Verdana, Helvetica, Arial" font-weight="normal"  style="display: block;"><tspan dy="-2.1em" >Controls a</tspan><tspan dy="1.2em" x="0" >personal air</tspan><tspan dy="1.2em" x="0" >sensor and views</tspan><tspan dy="1.2em" x="0" >home air quality</tspan><tspan dy="1.2em" x="0" >metrics</tspan></text></g><g id="v-5877"  label-idx="1" cursor="move" transform="matrix(1,0,0,1,758.78076171875,1247.8299560546875)" style="cursor: default;"><rect joint-selector="rect" id="v-5881" fill="#ffffff" rx="3" ry="3" x="0" y="0" width="0" height="0"  display="none"></rect><text joint-selector="text" id="v-5880" fill="#000000" font-size="14" text-anchor="middle" text-vertical-anchor="middle" pointer-events="none"></text></g></g></g><!--z-index:33--><g   id="j_454"  style="opacity: 1;"><path fill="none" cursor="pointer" stroke="transparent" stroke-linecap="round" joint-selector="wrapper" id="v-5898" stroke-width="10" stroke-linejoin="round" d="M 1323.62 753 L 1552 539 C 1556.6666666666665 534.1999999999999 1562.3333333333333 532.5333333333333 1569 534 L 1729 579.23"></path><path fill="none" pointer-events="none" joint-selector="line" id="v-5897" stroke="#cccccc" stroke-width="2" stroke-linejoin="round" stroke-dasharray="8 8" d="M 1323.62 753 L 1552 539 C 1556.6666666666665 534.1999999999999 1562.3333333333333 532.5333333333333 1569 534 L 1729 579.23" marker-end="url(#v-2-527367903)"></path><g id="v-5887" ><g id="v-5888"  label-idx="0" cursor="move" transform="matrix(1,0,0,1,1559.617431640625,520.7896118164062)" style="cursor: default;"><rect joint-selector="rect" id="v-5892" fill="#111111" rx="3" ry="3" x="-92.53353118896484" y="-44.9188117980957" width="186.011474609375" height="85.91571044921875" pointer-events="none"  style="display: block;"></rect><text joint-selector="text" id="v-5891" font-size="24px" xml:space="preserve" fill="#cccccc" text-anchor="middle" pointer-events="none" font-family="Tahoma, Verdana, Helvetica, Arial" font-weight="normal"  style="display: block;"><tspan dy="-0.8999999999999999em" >Sends commands</tspan><tspan dy="1.2em" x="0" >to and receives</tspan><tspan dy="1.2em" x="0" >telemetry from</tspan></text></g><g id="v-5889"  label-idx="1" cursor="move" transform="matrix(1,0,0,1,1559.617431640625,579.9896240234375)" style="cursor: default;"><rect joint-selector="rect" id="v-5894" fill="#111111" rx="3" ry="3" x="-55.79859161376953" y="-11.616296768188477" width="111.83151245117188" height="19.98755645751953"  pointer-events="none" style="display: block;"></rect><text joint-selector="text" id="v-5893" font-size="16.799999999999997px" xml:space="preserve" fill="#cccccc" text-anchor="middle" pointer-events="none" font-family="Tahoma, Verdana, Helvetica, Arial" font-weight="normal"  style="display: block;"><tspan dy="0.3em" >[MQTT/HTTPS]</tspan></text></g><g id="v-5890"  label-idx="2" cursor="move" transform="matrix(1,0,0,1,1495.2581787109375,636.9986572265625)" style="cursor: default;"><rect joint-selector="rect" id="v-5896" fill="#ffffff" rx="3" ry="3" x="-2.2737367544323206e-13" y="0" width="0" height="0"  display="none"></rect><text joint-selector="text" id="v-5895" fill="#000000" font-size="14" text-anchor="middle" text-vertical-anchor="middle" pointer-events="none"></text></g></g></g><!--z-index:34--><g   id="j_455"  style="opacity: 1;"><path fill="none" cursor="pointer" stroke="transparent" stroke-linecap="round" joint-selector="wrapper" id="v-5916" stroke-width="10" stroke-linejoin="round" d="M 1389 953.7 L 1549 990 C 1555.6666666666665 991.3333333333333 1562.3333333333333 991.9999999999999 1569 992 L 1729 992"></path><path fill="none" pointer-events="none" joint-selector="line" id="v-5915" stroke="#cccccc" stroke-width="2" stroke-linejoin="round" stroke-dasharray="8 8" d="M 1389 953.7 L 1549 990 C 1555.6666666666665 991.3333333333333 1562.3333333333333 991.9999999999999 1569 992 L 1729 992" marker-end="url(#v-2-527367903)"></path><g id="v-5905" ><g id="v-5906"  label-idx="0" cursor="move" transform="matrix(1,0,0,1,1559.0390625,978.1038818359375)" style="cursor: default;"><rect joint-selector="rect" id="v-5910" fill="#111111" rx="3" ry="3" x="-73.40481567382812" y="-30.518814086914062" width="146.08160400390625" height="57.11570358276367" pointer-events="none"  style="display: block;"></rect><text joint-selector="text" id="v-5909" font-size="24px" xml:space="preserve" fill="#cccccc" text-anchor="middle" pointer-events="none" font-family="Tahoma, Verdana, Helvetica, Arial" font-weight="normal"  style="display: block;"><tspan dy="-0.3em" >Authenticates</tspan><tspan dy="1.2em" x="0" >users using</tspan></text></g><g id="v-5907"  label-idx="1" cursor="move" transform="matrix(1,0,0,1,1559.0390625,1022.9038696289062)" style="cursor: default;"><rect joint-selector="rect" id="v-5912" fill="#111111" rx="3" ry="3" x="-67.61415100097656" y="-11.616296768188477" width="135.44590759277344" height="19.98755645751953"  pointer-events="none" style="display: block;"></rect><text joint-selector="text" id="v-5911" font-size="16.799999999999997px" xml:space="preserve" fill="#cccccc" text-anchor="middle" pointer-events="none" font-family="Tahoma, Verdana, Helvetica, Arial" font-weight="normal"  style="display: block;"><tspan dy="0.3em" >[OpenID Connect]</tspan></text></g><g id="v-5908"  label-idx="2" cursor="move" transform="matrix(1,0,0,1,1546.9296875,1031.071533203125)" style="cursor: default;"><rect joint-selector="rect" id="v-5914" fill="#ffffff" rx="3" ry="3" x="0" y="-1.1368683772161603e-13" width="0" height="0"  display="none"></rect><text joint-selector="text" id="v-5913" fill="#000000" font-size="14" text-anchor="middle" text-vertical-anchor="middle" pointer-events="none"></text></g></g></g><!--z-index:35--><g   id="j_456"  style="opacity: 1;"><path fill="none" cursor="pointer" stroke="transparent" stroke-linecap="round" joint-selector="wrapper" id="v-5931" stroke-width="10" stroke-linejoin="round" d="M 1298.97 1053 L 1552 1335 C 1556.6666666666665 1339.6666666666665 1562.3333333333333 1342 1569 1342 L 1729 1342"></path><path fill="none" pointer-events="none" joint-selector="line" id="v-5930" stroke="#cccccc" stroke-width="2" stroke-linejoin="round" stroke-dasharray="8 8" d="M 1298.97 1053 L 1552 1335 C 1556.6666666666665 1339.6666666666665 1562.3333333333333 1342 1569 1342 L 1729 1342" marker-end="url(#v-2-527367903)"></path><g id="v-5920" ><g id="v-5921"  label-idx="0" cursor="move" transform="matrix(1,0,0,1,1559.4521484375,1326.7247314453125)" style="cursor: default;"><rect joint-selector="rect" id="v-5925" fill="#111111" rx="3" ry="3" x="-87.2503662109375" y="-44.9188117980957" width="174.500732421875" height="85.91571044921875" pointer-events="none"  style="display: block;"></rect><text joint-selector="text" id="v-5924" font-size="24px" xml:space="preserve" fill="#cccccc" text-anchor="middle" pointer-events="none" font-family="Tahoma, Verdana, Helvetica, Arial" font-weight="normal"  style="display: block;"><tspan dy="-0.8999999999999999em" >Processes</tspan><tspan dy="1.2em" x="0" >payments and</tspan><tspan dy="1.2em" x="0" >subscriptions via</tspan></text></g><g id="v-5922"  label-idx="1" cursor="move" transform="matrix(1,0,0,1,1559.4521484375,1385.9248046875)" style="cursor: default;"><rect joint-selector="rect" id="v-5927" fill="#111111" rx="3" ry="3" x="-41.34144592285156" y="-11.616296768188477" width="82.9063720703125" height="19.98755645751953"  pointer-events="none" style="display: block;"></rect><text joint-selector="text" id="v-5926" font-size="16.799999999999997px" xml:space="preserve" fill="#cccccc" text-anchor="middle" pointer-events="none" font-family="Tahoma, Verdana, Helvetica, Arial" font-weight="normal"  style="display: block;"><tspan dy="0.3em" >[REST API]</tspan></text></g><g id="v-5923"  label-idx="2" cursor="move" transform="matrix(1,0,0,1,1475.2220458984375,1314.7763671875)" style="cursor: default;"><rect joint-selector="rect" id="v-5929" fill="#ffffff" rx="3" ry="3" x="0" y="-2.2737367544323206e-13" width="0" height="0"  display="none"></rect><text joint-selector="text" id="v-5928" fill="#000000" font-size="14" text-anchor="middle" text-vertical-anchor="middle" pointer-events="none"></text></g></g></g><!--z-index:36--><g   id="j_457"  style="opacity: 1;"><path fill="none" cursor="pointer" stroke="transparent" stroke-linecap="round" joint-selector="wrapper" id="v-5946" stroke-width="10" stroke-linejoin="round" d="M 1239.1 1053 L 1555 1683 C 1557.6666666666665 1689 1562.3333333333333 1692 1569 1692 L 1729 1692"></path><path fill="none" pointer-events="none" joint-selector="line" id="v-5945" stroke="#cccccc" stroke-width="2" stroke-linejoin="round" stroke-dasharray="8 8" d="M 1239.1 1053 L 1555 1683 C 1557.6666666666665 1689 1562.3333333333333 1692 1569 1692 L 1729 1692" marker-end="url(#v-2-527367903)"></path><g id="v-5935" ><g id="v-5936"  label-idx="0" cursor="move" transform="matrix(1,0,0,1,1559.8831787109375,1675.927490234375)" style="cursor: default;"><rect joint-selector="rect" id="v-5940" fill="#111111" rx="3" ry="3" x="-67.23678588867188" y="-44.9188117980957" width="134.47357177734375" height="85.91571044921875" pointer-events="none"  style="display: block;"></rect><text joint-selector="text" id="v-5939" font-size="24px" xml:space="preserve" fill="#cccccc" text-anchor="middle" pointer-events="none" font-family="Tahoma, Verdana, Helvetica, Arial" font-weight="normal"  style="display: block;"><tspan dy="-0.8999999999999999em" >Sends</tspan><tspan dy="1.2em" x="0" >transactional</tspan><tspan dy="1.2em" x="0" >emails using</tspan></text></g><g id="v-5937"  label-idx="1" cursor="move" transform="matrix(1,0,0,1,1559.8831787109375,1735.1275634765625)" style="cursor: default;"><rect joint-selector="rect" id="v-5942" fill="#111111" rx="3" ry="3" x="-41.34144592285156" y="-11.616296768188477" width="82.9063720703125" height="19.98755645751953"  pointer-events="none" style="display: block;"></rect><text joint-selector="text" id="v-5941" font-size="16.799999999999997px" xml:space="preserve" fill="#cccccc" text-anchor="middle" pointer-events="none" font-family="Tahoma, Verdana, Helvetica, Arial" font-weight="normal"  style="display: block;"><tspan dy="0.3em" >[REST API]</tspan></text></g><g id="v-5938"  label-idx="2" cursor="move" transform="matrix(1,0,0,1,1426.885986328125,1501.64501953125)" style="cursor: default;"><rect joint-selector="rect" id="v-5944" fill="#ffffff" rx="3" ry="3" x="0" y="0" width="0" height="0"  display="none"></rect><text joint-selector="text" id="v-5943" fill="#000000" font-size="14" text-anchor="middle" text-vertical-anchor="middle" pointer-events="none"></text></g></g></g><!--z-index:37--><!--z-index:38--><!--z-index:39--><!--z-index:40--><!--z-index:41--><!--z-index:42--><!--z-index:43--><!--z-index:44--><!--z-index:45--><!--z-index:46--><!--z-index:47--><!--z-index:48--><!--z-index:49--><!--z-index:50--><!--z-index:51--><!--z-index:52--><!--z-index:53--><!--z-index:54--><!--z-index:55--><!--z-index:56--><!--z-index:57--><!--z-index:58--><!--z-index:59--><!--z-index:60--><!--z-index:61--><!--z-index:62--><!--z-index:63--><!--z-index:64--><!--z-index:65--><!--z-index:66--><!--z-index:67--><!--z-index:68--><!--z-index:69--><!--z-index:70--><!--z-index:71--><!--z-index:72--><!--z-index:73--><!--z-index:74--><!--z-index:75--><!--z-index:76--><!--z-index:77--><!--z-index:78--><!--z-index:79--><!--z-index:80--><!--z-index:81--><!--z-index:82--><!--z-index:83--><!--z-index:84--><!--z-index:85--><!--z-index:86--><!--z-index:87--><!--z-index:88--><!--z-index:89--><!--z-index:90--><!--z-index:91--><!--z-index:92--><!--z-index:93--><!--z-index:94--><!--z-index:95--><!--z-index:96--><!--z-index:97--></g><g  style="user-select: none;"></g><g ></g><g  display="none"></g></g></svg>